<?xml version="1.0" encoding="utf-8"?>
<!-- Generator: Adobe Illustrator 27.9.0, SVG Export Plug-In . SVG Version: 6.00 Build 0)  -->
<svg version="1.1" xmlns="http://www.w3.org/2000/svg" xmlns:xlink="http://www.w3.org/1999/xlink" x="0px" y="0px"
	 viewBox="0 0 92.1 22.55" style="enable-background:new 0 0 92.1 22.55;" xml:space="preserve">
<style type="text/css">
	.st0{fill:#8F8F8F;}
	.st1{fill:#6E6E6E;}
	.st2{fill:#FFFFFF;}
	.st3{clip-path:url(#SVGID_00000182527936233905585970000010314867967085076614_);}
	.st4{fill:#878787;}
	.st5{fill:#4C4C4A;}
	.st6{fill:#858658;}
	.st7{fill:#1BB09D;}
	.st8{fill:#4CABCB;}
	.st9{fill:#737373;}
	.st10{fill:#4FA98B;}
	.st11{fill:#2276BB;}
	.st12{fill:none;stroke:#FFFFFF;stroke-width:0.25;stroke-miterlimit:10;}
	.st13{clip-path:url(#SVGID_00000165921004500763703240000008072967918442037647_);}
	.st14{clip-path:url(#SVGID_00000069379901997323383770000011302972557862965663_);}
	.st15{clip-path:url(#SVGID_00000045589609989026796220000005638831609037200015_);}
	.st16{clip-path:url(#SVGID_00000137838631670774269370000017770630755134837404_);}
	.st17{clip-path:url(#SVGID_00000138566984732505204230000000153091004349151931_);}
	.st18{clip-path:url(#SVGID_00000057840674293484693300000000327556925438272685_);}
	.st19{clip-path:url(#SVGID_00000157307089192502565850000010002504896446910873_);}
	.st20{clip-path:url(#SVGID_00000034071423008916950830000005396078630014829976_);}
	.st21{display:none;fill:#8F8F8F;}
	.st22{clip-path:url(#SVGID_00000053520497720025896170000010937000481650748579_);}
	
		.st23{clip-path:url(#SVGID_00000008862666936747874340000012158813131245658776_);fill:url(#SVGID_00000081610611620437616070000012840471629685766823_);}
	.st24{fill:#003DA6;stroke:#003DA6;stroke-width:0.25;stroke-miterlimit:10;}
	.st25{fill:none;stroke:#003DA6;stroke-width:0.3;stroke-miterlimit:10;}
	.st26{fill:#FFFFFF;stroke:#ABABAB;stroke-width:0.3093;stroke-miterlimit:10;}
	.st27{fill:none;stroke:#003DA6;stroke-width:0.5024;stroke-miterlimit:10;}
	.st28{fill:#FFFFFF;stroke:#003DA6;stroke-width:0.3467;stroke-miterlimit:10;}
	.st29{opacity:0.5;fill:url(#SVGID_00000101784348191861763150000003664502557588866433_);}
	.st30{fill:url(#SVGID_00000068655686938890921390000002966389916310419637_);}
	.st31{fill:#E4F4F9;}
	.st32{fill:#003DA6;}
	.st33{fill:#003DA6;stroke:#FFFFFF;stroke-width:0.2257;stroke-miterlimit:10;}
	.st34{fill:#FFFFFF;stroke:#003DA6;stroke-width:0.2257;stroke-miterlimit:10;}
	.st35{fill:#FFFFFF;stroke:#ABABAB;stroke-width:0.3504;stroke-miterlimit:10;}
	.st36{fill-rule:evenodd;clip-rule:evenodd;fill:#FFFFFF;stroke:#ABABAB;stroke-width:0.4053;stroke-miterlimit:10;}
	.st37{fill:#FFFFFF;stroke:#ABABAB;stroke-width:0.4053;stroke-miterlimit:10;}
	.st38{opacity:0.7;fill:url(#SVGID_00000150812418363572241110000011049876496871976879_);}
	.st39{opacity:0.5;fill:#4C4C4A;}
	.st40{opacity:0.5;fill:#858658;}
	.st41{opacity:0.5;fill:#1BB09D;}
	.st42{opacity:0.5;fill:#4CABCB;}
	.st43{opacity:0.5;fill:#737373;}
	.st44{opacity:0.5;fill:#2276BB;}
	.st45{fill:none;stroke:#003DA6;stroke-width:0.2224;stroke-miterlimit:10;}
	.st46{fill:#FFFFFF;stroke:#003DA6;stroke-width:0.2835;stroke-miterlimit:10;}
	.st47{fill:none;stroke:#003DA6;stroke-width:0.1864;stroke-linecap:round;stroke-miterlimit:1;}
	.st48{fill:#FFFFFF;stroke:#003DA6;stroke-width:0.1;stroke-miterlimit:10;}
	.st49{fill:none;stroke:#003DA6;stroke-width:0.2835;stroke-miterlimit:10;}
	.st50{fill:#575757;}
	.st51{clip-path:url(#SVGID_00000050634195607876118140000001845838190841688225_);}
	.st52{opacity:0.7;fill:url(#SVGID_00000017507200822299244420000007416583962036463501_);}
	.st53{fill:none;stroke:#003DA6;stroke-width:0.25;stroke-miterlimit:10;}
	.st54{fill:#1C3F81;}
	.st55{fill:none;stroke:#949494;stroke-width:0.25;stroke-miterlimit:10;}
	.st56{clip-path:url(#SVGID_00000116941490406845397010000004387207392345742215_);}
	.st57{fill:#43B6A5;}
	.st58{fill:#25745C;}
	.st59{clip-path:url(#SVGID_00000105393406063104973640000002707883328084885124_);}
	.st60{fill:url(#SVGID_00000094614710706933280210000017111526798341695647_);}
	.st61{fill:url(#SVGID_00000044178476445798082280000018300198350705706112_);}
	.st62{fill:none;stroke:#FFFFFF;stroke-width:2;stroke-linecap:round;stroke-miterlimit:10;}
	.st63{clip-path:url(#SVGID_00000143589174974524228960000013083539907137049518_);}
	.st64{fill:#003DA6;stroke:#FFFFFF;stroke-width:0.1346;stroke-miterlimit:10;}
	.st65{fill:#141414;}
	.st66{stroke:#FFFFFF;stroke-width:0.1346;stroke-miterlimit:10;}
	.st67{clip-path:url(#SVGID_00000141457611999764346030000013045018889174001831_);}
	.st68{opacity:0.18;}
	.st69{fill:#089F91;}
	.st70{opacity:0.18;fill:#BADDE9;}
	.st71{fill:#F5F4EF;stroke:#FFFFFF;stroke-width:1.8244;stroke-miterlimit:10;}
	.st72{opacity:0.65;fill:#858658;}
	.st73{fill:#C3DFF5;}
	.st74{opacity:0.63;}
	.st75{fill:#9C9B9B;}
	.st76{fill:#A9A9A9;}
	.st77{fill:#35350B;}
	.st78{fill:none;stroke:#FFFFFF;stroke-width:0.1824;stroke-linecap:round;stroke-linejoin:round;stroke-miterlimit:10;}
	.st79{opacity:0.64;}
	.st80{fill:#F5F4EF;}
	.st81{clip-path:url(#SVGID_00000160162827449488500590000017288637754581829562_);}
	.st82{fill:#F5F4EF;stroke:#FFFFFF;stroke-width:1.2815;stroke-miterlimit:10;}
	.st83{opacity:0.65;}
	.st84{fill:none;stroke:#FFFFFF;stroke-width:0.1281;stroke-linecap:round;stroke-linejoin:round;stroke-miterlimit:10;}
	.st85{fill:#1D1D1B;}
	
		.st86{opacity:0.4;clip-path:url(#SVGID_00000003809545636225341340000017417341649063392139_);fill:url(#SVGID_00000150069787529606086420000012960384252683410350_);}
	.st87{fill:#45CFDA;}
	.st88{clip-path:url(#SVGID_00000005972471767829592320000008880447696863094702_);}
	.st89{clip-path:url(#SVGID_00000049179503546812057120000003803303764579380394_);}
	.st90{fill:#FFFFFF;stroke:#ABABAB;stroke-width:0.4901;stroke-miterlimit:10;}
	.st91{fill:url(#SVGID_00000059993346390197893660000013613367806430086584_);}
	.st92{fill-rule:evenodd;clip-rule:evenodd;fill:#FFFFFF;stroke:#ABABAB;stroke-width:0.2763;stroke-miterlimit:10;}
	.st93{fill:#FFFFFF;stroke:#ABABAB;stroke-width:0.2763;stroke-miterlimit:10;}
	.st94{fill:#0A0A0A;}
	.st95{opacity:0.5;}
	.st96{fill:#565630;}
	.st97{fill:#A2E3F4;}
	.st98{fill:#454545;}
	.st99{fill:none;stroke:#454545;stroke-width:0.5151;stroke-miterlimit:10;}
	.st100{clip-path:url(#SVGID_00000173140441379919112250000015146449309570952592_);}
	.st101{clip-path:url(#SVGID_00000183223665900132077130000007723175700935502222_);}
	.st102{fill:none;stroke:#787878;stroke-width:0.2794;stroke-miterlimit:10;}
	.st103{fill:none;stroke:#787878;stroke-width:0.2073;stroke-miterlimit:10;}
	.st104{fill:none;stroke:#A7B972;stroke-width:0.2557;stroke-miterlimit:10;}
	.st105{fill:none;stroke:#A7B972;stroke-width:0.1622;stroke-miterlimit:10;}
	
		.st106{clip-path:url(#SVGID_00000024690171339108919510000005914035171605270455_);fill:url(#SVGID_00000171700405096163021930000006568355080687171771_);}
	.st107{clip-path:url(#SVGID_00000061450570054701351250000004003493105494353817_);}
	.st108{clip-path:url(#SVGID_00000171701728517926425110000007817096204790264482_);}
	.st109{clip-path:url(#SVGID_00000087409837262743103760000005143508723151849913_);}
	.st110{clip-path:url(#SVGID_00000000937013058100927670000015314355414570454205_);}
	.st111{clip-path:url(#SVGID_00000081611159861249511700000009066184908442922685_);}
	.st112{fill:url(#SVGID_00000183249796980555835940000004391245817252669061_);}
	.st113{opacity:0.27;fill:#BADDE9;}
	.st114{clip-path:url(#SVGID_00000054960844247069829740000010168614449637522590_);}
	.st115{opacity:0.29;}
	
		.st116{clip-path:url(#SVGID_00000158739791961316575940000000515758817492278961_);fill:url(#SVGID_00000153665272320834325950000017076316099613558913_);}
	.st117{opacity:0.71;}
	.st118{clip-path:url(#SVGID_00000171698632328348239640000015945184685270569119_);}
	.st119{clip-path:url(#SVGID_00000161606138887682911700000007654338949374364054_);}
	.st120{clip-path:url(#SVGID_00000011013441949903040600000000888047721686336429_);}
	.st121{fill:none;stroke:#575757;stroke-miterlimit:10;}
	.st122{fill:none;stroke:#575757;stroke-width:0.5;stroke-miterlimit:10;}
	.st123{fill:#D1D1D1;stroke:#828282;stroke-width:0.1864;stroke-linecap:round;stroke-miterlimit:1;}
	.st124{fill:#FFFFFF;stroke:#828282;stroke-width:0.1864;stroke-linecap:round;stroke-miterlimit:1;}
	.st125{fill:#828282;stroke:#424242;stroke-width:0.5;stroke-miterlimit:1;}
	.st126{fill:none;stroke:#828282;stroke-width:0.1864;stroke-linecap:round;stroke-miterlimit:1;}
	.st127{fill:none;stroke:#1C1C1C;stroke-width:0.1864;stroke-linecap:round;stroke-miterlimit:1;}
	.st128{fill:none;stroke:#828282;stroke-width:0.75;stroke-linecap:round;stroke-miterlimit:1;}
	.st129{fill:none;stroke:#292929;stroke-width:0.75;stroke-linecap:round;stroke-miterlimit:1;}
	.st130{fill:#363636;}
	.st131{fill:none;stroke:#3D3D3D;stroke-width:0.1864;stroke-linecap:round;stroke-miterlimit:1;}
	.st132{fill:none;stroke:#BDBDBD;stroke-width:0.75;stroke-miterlimit:10;}
	.st133{opacity:0.27;fill:#E8E8E8;}
	.st134{fill:none;stroke:#003DA6;stroke-width:0.1794;stroke-miterlimit:10;}
	.st135{clip-path:url(#SVGID_00000047048819209368299360000017879454800945415866_);}
	.st136{fill:#1F1F1F;}
	.st137{clip-path:url(#SVGID_00000083788584548704312410000016485042901387587991_);}
	.st138{clip-path:url(#SVGID_00000171710672515514057630000017627389190815817106_);}
	.st139{clip-path:url(#SVGID_00000040549582907553229260000017730685633297089933_);}
	.st140{clip-path:url(#SVGID_00000130619747597106998260000017488120233952179584_);}
	.st141{fill:url(#SVGID_00000077325889414381369670000008341439333143124108_);}
	.st142{fill:#C0E3EA;}
	.st143{fill:#27745C;}
	.st144{fill:#4D4D4D;}
	.st145{clip-path:url(#SVGID_00000096052697867289696220000007014927578343649446_);}
	.st146{fill:none;stroke:#4DABCB;stroke-width:2;stroke-miterlimit:10;}
	.st147{fill:none;stroke:#27745C;stroke-width:3;stroke-miterlimit:10;}
	.st148{fill:url(#SVGID_00000039128200688861091110000010269661921910822557_);}
	.st149{fill:url(#SVGID_00000139257583745294167450000005458175462923284926_);}
	.st150{fill:#706F6F;}
	.st151{fill:none;}
	.st152{fill:url(#SVGID_00000023980615674765886940000017982569681687994027_);}
	.st153{fill:none;stroke:#4DABCB;stroke-width:2;stroke-linecap:round;stroke-miterlimit:10;}
	.st154{fill:url(#SVGID_00000127739357784966153070000008491396870821742989_);}
	.st155{clip-path:url(#SVGID_00000016769885446628771170000013837734026825217981_);}
	.st156{opacity:0.35;fill:#1C3F81;}
	.st157{clip-path:url(#SVGID_00000147918487992303795380000016741908729278730168_);}
	.st158{clip-path:url(#SVGID_00000179634207483953672180000009443048629658341566_);}
	.st159{opacity:0.29;fill:#4C1608;}
	.st160{clip-path:url(#SVGID_00000046297354994431081230000000423835748665376190_);}
	.st161{opacity:0.29;fill:#054096;}
	.st162{clip-path:url(#SVGID_00000176754565992035694370000015584296994973791143_);}
	.st163{clip-path:url(#SVGID_00000177469066353699025140000001695698685169166720_);}
	.st164{opacity:0.23;fill:#95A71A;}
	.st165{fill:#799B1C;}
	.st166{opacity:0.5;fill:url(#SVGID_00000073684873631775287130000016604446966569765258_);}
	
		.st167{clip-path:url(#SVGID_00000030471066191406494330000008760146739984301502_);fill:url(#SVGID_00000056392682806156506490000008336546807349076887_);}
	
		.st168{clip-path:url(#SVGID_00000016036946728237629590000013957463104788279425_);fill:url(#SVGID_00000020376348399045215380000007369185431628520353_);}
	.st169{display:none;}
	.st170{clip-path:url(#SVGID_00000109724099079084002520000015223090894654413240_);}
	.st171{clip-path:url(#SVGID_00000003095541086595349220000014998649560324684211_);}
	.st172{opacity:0.57;fill:#BADDE9;}
	.st173{opacity:0.54;fill:#1C3F81;}
	.st174{clip-path:url(#SVGID_00000139991975142868890830000010477022765346918295_);}
	.st175{clip-path:url(#SVGID_00000112598288219380406350000012507871707824488866_);}
	.st176{fill:url(#SVGID_00000000925295793713896770000016591682324553201837_);}
	.st177{fill:url(#SVGID_00000089575612584428478220000002977840368375235506_);}
	.st178{clip-path:url(#SVGID_00000117663448767083245600000002069990205171958920_);}
	.st179{clip-path:url(#SVGID_00000004547084196339527700000004809956797778721168_);}
	.st180{fill:none;stroke:#FFFFFF;stroke-width:0.75;stroke-miterlimit:10;}
	.st181{fill:none;stroke:#FFFFFF;stroke-width:0.7503;stroke-miterlimit:10;}
	.st182{clip-path:url(#SVGID_00000004539125110825711970000009192239258760873910_);fill:#FFFFFF;}
	.st183{fill:none;stroke:#2276BB;stroke-width:0.1;stroke-miterlimit:10;}
	.st184{fill:none;stroke:#FFFFFF;stroke-width:0.5;stroke-miterlimit:10;}
	.st185{clip-path:url(#SVGID_00000089571334863070129280000000137037102964436114_);fill:#FFFFFF;}
	.st186{clip-path:url(#SVGID_00000006666079228746966470000011988816670628232359_);fill:#FFFFFF;}
	.st187{clip-path:url(#SVGID_00000048474444275199016750000008950678436349102517_);fill:#FFFFFF;}
	.st188{fill:url(#SVGID_00000159448015825283207000000015291416630630404231_);}
	.st189{fill:none;stroke:#003DA6;stroke-width:0.2543;stroke-linecap:round;stroke-miterlimit:10;}
	.st190{fill:#BEE2E9;}
	.st191{fill:#7FA6E5;}
	.st192{opacity:0.97;fill:#71D4FF;}
</style>
<g id="iconos-fondo">
</g>
<g id="footer">
	<rect x="-363.98" y="-26.8" class="st21" width="1188.37" height="105.21"/>
	<g>
		<g>
			<path class="st2" d="M15.55,17.02c-0.04,0-0.07,0-0.11,0c-1.29-0.03-2.49-0.56-3.38-1.49l-0.13-0.14
				c-0.77-0.81-2.06-0.84-2.87-0.06l-0.24,0.23c-0.88,0.84-2.03,1.3-3.24,1.3c-0.04,0-0.07,0-0.11,0c-1.2-0.03-2.32-0.5-3.18-1.34
				c-0.1-0.1-0.1-0.26,0-0.36c0.09-0.1,0.25-0.1,0.36,0c0.76,0.75,1.77,1.17,2.84,1.19c0.03,0,0.06,0,0.1,0
				c1.08,0,2.11-0.41,2.89-1.16l0.24-0.23c1.01-0.96,2.61-0.93,3.58,0.08l0.13,0.14c0.8,0.84,1.88,1.31,3.03,1.34
				c1.16,0.02,2.25-0.4,3.09-1.2l0.47-0.45c1-0.95,2.59-0.94,3.54,0.03c0.88,0.89,2.13,1.33,3.35,1.22
				c0.93-0.08,1.88-0.53,2.65-1.27l0.21-0.2c0.57-0.54,1.33-0.77,2.11-0.62c0.48,0.09,0.95,0.36,1.35,0.78l0.16,0.17
				c1.64,1.72,4.37,1.79,6.1,0.15l0.61-0.58c0.99-0.94,2.58-0.91,3.54,0.06l0.24,0.24c0.8,0.82,1.89,1.27,3.05,1.28l0.19,0
				c1.05-0.02,2.04-0.43,2.8-1.16l0.24-0.23c0.49-0.47,1.15-0.71,1.81-0.7c0.68,0.02,1.31,0.29,1.77,0.78l0.13,0.14
				c0.8,0.84,1.88,1.31,3.03,1.34c1.13,0.02,2.25-0.4,3.09-1.2l0.47-0.45c1-0.95,2.58-0.94,3.54,0.03c0.88,0.89,2.13,1.33,3.35,1.22
				c0.94-0.08,1.88-0.53,2.65-1.27l0.21-0.2c0.56-0.54,1.33-0.77,2.11-0.62c0.48,0.09,0.95,0.36,1.35,0.78l0.16,0.17
				c1.64,1.72,4.38,1.78,6.11,0.15l0.61-0.58c0.99-0.94,2.59-0.91,3.54,0.06l0.24,0.24c1.65,1.68,4.38,1.72,6.08,0.09l0.17-0.17
				c0.1-0.1,0.26-0.09,0.36,0.01c0.1,0.1,0.09,0.26-0.01,0.36l-0.17,0.17c-1.9,1.82-4.94,1.77-6.78-0.11l-0.24-0.24
				c-0.77-0.78-2.04-0.81-2.84-0.05l-0.61,0.58c-1.92,1.82-4.98,1.75-6.81-0.17l-0.16-0.17c-0.23-0.24-0.61-0.55-1.08-0.64
				c-0.6-0.11-1.22,0.06-1.67,0.49l-0.21,0.2c-0.86,0.82-1.91,1.32-2.96,1.41c-1.41,0.12-2.77-0.38-3.75-1.37
				c-0.75-0.76-2.05-0.77-2.83-0.02l-0.47,0.45c-0.93,0.89-2.18,1.36-3.45,1.34c-1.29-0.03-2.49-0.56-3.38-1.49l-0.13-0.14
				c-0.37-0.39-0.88-0.61-1.42-0.62c-0.51-0.01-1.05,0.18-1.45,0.56l-0.24,0.23c-0.88,0.84-2.02,1.3-3.24,1.3c-0.04,0-0.07,0-0.11,0
				l-0.25-0.01c-1.2-0.07-2.32-0.57-3.16-1.42l-0.24-0.24c-0.77-0.78-2.05-0.8-2.84-0.05l-0.61,0.58c-1.92,1.82-4.98,1.75-6.81-0.17
				l-0.16-0.17c-0.23-0.24-0.61-0.55-1.09-0.64c-0.61-0.12-1.22,0.07-1.67,0.49l-0.21,0.2c-0.86,0.82-1.91,1.32-2.96,1.41
				c-1.41,0.12-2.77-0.38-3.75-1.37c-0.75-0.76-2.05-0.77-2.83-0.02l-0.47,0.45C17.98,16.55,16.8,17.02,15.55,17.02z"/>
		</g>
		<g>
			<path class="st2" d="M15.55,14.72c-0.02,0-0.04,0-0.06,0c-0.68-0.02-1.31-0.29-1.77-0.78l-0.13-0.14
				c-0.8-0.83-1.87-1.3-3.03-1.33c-1.18-0.03-2.26,0.4-3.09,1.19l-0.24,0.23c-0.91,0.87-2.35,0.89-3.28,0.03
				c-0.1-0.09-0.11-0.25-0.01-0.36c0.09-0.1,0.25-0.11,0.36-0.01c0.73,0.68,1.87,0.67,2.59-0.02l0.24-0.23
				c0.9-0.86,2.08-1.33,3.33-1.33c0.04,0,0.08,0,0.11,0c1.29,0.03,2.49,0.56,3.38,1.49l0.13,0.14c0.37,0.39,0.88,0.61,1.42,0.62
				c0.02,0,0.03,0,0.05,0c0.53,0,1.02-0.2,1.4-0.56l0.58-0.56c0.9-0.86,2.07-1.32,3.35-1.3c1.25,0.03,2.42,0.54,3.29,1.45
				c0.42,0.44,1.03,0.65,1.64,0.56c0.48-0.07,0.87-0.36,1.11-0.59l0.15-0.15c0.93-0.89,2.17-1.37,3.45-1.34
				c1.29,0.03,2.49,0.56,3.38,1.49l0.15,0.15c0.77,0.81,2.05,0.83,2.86,0.07l0.61-0.58c1.89-1.8,4.93-1.75,6.77,0.12l0.24,0.24
				c0.78,0.79,2.05,0.8,2.85,0.04l0.17-0.17c0.97-0.92,2.17-1.39,3.48-1.37c1.29,0.03,2.49,0.56,3.38,1.49l0.13,0.14
				c0.37,0.39,0.88,0.61,1.42,0.62c0.55,0.01,1.05-0.19,1.45-0.56l0.58-0.55c1.87-1.79,4.85-1.72,6.64,0.15
				c0.42,0.44,1.02,0.65,1.64,0.56c0.48-0.07,0.87-0.36,1.11-0.59l0.15-0.15c0.93-0.89,2.14-1.37,3.45-1.34
				c1.29,0.03,2.49,0.56,3.38,1.49l0.15,0.15c0.77,0.8,2.05,0.84,2.86,0.07l0.61-0.58c1.9-1.8,4.94-1.74,6.77,0.12l0.24,0.24
				c0.77,0.78,2.05,0.81,2.85,0.04l0.17-0.17c0.1-0.1,0.26-0.09,0.36,0.01c0.1,0.1,0.09,0.26-0.01,0.36l-0.17,0.17
				c-0.99,0.95-2.59,0.92-3.55-0.06l-0.24-0.24c-1.64-1.67-4.36-1.72-6.07-0.11l-0.61,0.58c-1,0.95-2.6,0.92-3.56-0.09l-0.15-0.15
				c-0.8-0.84-1.88-1.31-3.03-1.33c-0.03,0-0.07,0-0.1,0c-1.12,0-2.17,0.42-2.99,1.2l-0.15,0.15c-0.42,0.4-0.9,0.65-1.39,0.72
				c-0.78,0.11-1.54-0.15-2.08-0.71c-1.6-1.67-4.26-1.73-5.92-0.13l-0.58,0.55c-0.48,0.47-1.14,0.72-1.81,0.7
				c-0.68-0.02-1.31-0.29-1.77-0.78l-0.13-0.14c-0.8-0.83-1.87-1.3-3.03-1.33c-0.03,0-0.07,0-0.1,0c-1.12,0-2.18,0.42-2.98,1.19
				l-0.21,0.2c-0.99,0.95-2.59,0.93-3.55-0.05l-0.24-0.24c-1.64-1.67-4.36-1.72-6.06-0.11l-0.61,0.58
				c-1.01,0.95-2.61,0.92-3.56-0.09l-0.15-0.15c-0.8-0.84-1.88-1.31-3.03-1.34c-0.03,0-0.06,0-0.1,0c-1.12,0-2.18,0.42-2.99,1.2
				l-0.15,0.15c-0.42,0.4-0.9,0.65-1.39,0.72c-0.78,0.11-1.54-0.15-2.08-0.71c-0.77-0.81-1.81-1.27-2.93-1.29c-0.03,0-0.06,0-0.1,0
				c-1.09,0-2.11,0.41-2.89,1.16l-0.58,0.56C16.82,14.47,16.2,14.72,15.55,14.72z"/>
		</g>
		<g>
			<path class="st2" d="M15.52,11.4c-0.04,0-0.07,0-0.11,0c-1.29-0.03-2.49-0.56-3.38-1.49l-0.13-0.14
				c-0.37-0.39-0.88-0.61-1.42-0.62C9.9,9.14,9.42,9.33,9.03,9.7L8.79,9.93c-0.88,0.84-2.03,1.3-3.24,1.3c-0.04,0-0.07,0-0.11,0
				c-1.2-0.03-2.32-0.5-3.18-1.34c-0.1-0.1-0.1-0.26,0-0.36c0.1-0.1,0.25-0.1,0.36,0c0.76,0.75,1.77,1.17,2.84,1.19
				c0.03,0,0.06,0,0.1,0c1.08,0,2.11-0.41,2.89-1.16l0.24-0.23c0.49-0.47,1.13-0.72,1.81-0.7c0.68,0.02,1.31,0.29,1.77,0.78
				l0.13,0.14c0.8,0.84,1.88,1.31,3.03,1.34c1.18,0.02,2.25-0.4,3.09-1.2l0.47-0.45c1-0.95,2.59-0.94,3.54,0.03
				c0.88,0.89,2.14,1.33,3.35,1.22c0.94-0.08,1.88-0.53,2.65-1.27l0.21-0.2c0.57-0.54,1.32-0.77,2.11-0.62
				c0.48,0.09,0.95,0.36,1.35,0.78l0.16,0.17c1.64,1.72,4.37,1.79,6.1,0.15l0.61-0.58c0.99-0.94,2.58-0.91,3.54,0.06l0.24,0.24
				c0.8,0.82,1.89,1.27,3.05,1.28l0.19,0c1.05-0.02,2.04-0.43,2.8-1.16l0.24-0.23c0.49-0.47,1.1-0.72,1.81-0.7
				c0.68,0.02,1.31,0.29,1.77,0.78l0.13,0.14c0.8,0.84,1.88,1.31,3.03,1.34c1.16,0.02,2.25-0.4,3.09-1.2l0.47-0.45
				c1-0.95,2.59-0.94,3.54,0.03c0.88,0.89,2.13,1.33,3.35,1.22c0.94-0.08,1.88-0.53,2.65-1.27l0.21-0.2
				c0.56-0.54,1.33-0.76,2.11-0.62c0.48,0.09,0.95,0.36,1.35,0.78l0.16,0.16c1.64,1.72,4.38,1.78,6.11,0.15l0.61-0.58
				c0.99-0.94,2.58-0.91,3.54,0.06l0.24,0.24c1.65,1.68,4.38,1.72,6.08,0.09l0.17-0.17c0.1-0.1,0.26-0.09,0.36,0.01
				c0.1,0.1,0.09,0.26-0.01,0.36l-0.17,0.17c-1.9,1.82-4.94,1.77-6.78-0.11L82.7,9.13c-0.77-0.78-2.04-0.81-2.84-0.05l-0.61,0.58
				c-1.92,1.82-4.98,1.75-6.81-0.17l-0.16-0.17c-0.23-0.24-0.6-0.55-1.08-0.64c-0.61-0.12-1.22,0.06-1.67,0.49l-0.21,0.2
				c-0.86,0.82-1.91,1.32-2.96,1.41c-1.41,0.12-2.77-0.38-3.75-1.37c-0.75-0.76-2.05-0.77-2.83-0.02l-0.47,0.45
				c-0.94,0.89-2.16,1.37-3.45,1.34c-1.29-0.03-2.49-0.56-3.38-1.49l-0.13-0.14c-0.37-0.39-0.88-0.61-1.42-0.62
				c-0.56-0.01-1.06,0.19-1.45,0.56l-0.24,0.23c-0.88,0.84-2.02,1.3-3.24,1.3c-0.04,0-0.07,0-0.11,0l-0.25-0.01
				c-1.2-0.07-2.32-0.57-3.16-1.42l-0.24-0.24c-0.77-0.78-2.04-0.8-2.84-0.05L38.8,9.87c-1.92,1.82-4.98,1.75-6.81-0.17l-0.16-0.17
				c-0.23-0.24-0.61-0.55-1.09-0.64c-0.62-0.12-1.22,0.07-1.67,0.49l-0.21,0.2c-0.86,0.82-1.91,1.32-2.96,1.41
				c-1.41,0.12-2.77-0.38-3.75-1.37c-0.75-0.76-2.05-0.77-2.83-0.02l-0.47,0.45C17.95,10.93,16.77,11.4,15.52,11.4z"/>
		</g>
		<g>
			<path class="st2" d="M15.52,9.1c-0.02,0-0.04,0-0.06,0c-0.68-0.02-1.31-0.29-1.77-0.78l-0.13-0.14c-0.8-0.83-1.87-1.3-3.03-1.33
				c-1.16-0.02-2.26,0.4-3.09,1.19L7.2,8.27C6.29,9.14,4.85,9.16,3.92,8.3C3.82,8.2,3.81,8.04,3.91,7.94C4,7.84,4.16,7.83,4.26,7.93
				C4.99,8.61,6.13,8.6,6.85,7.91l0.24-0.23c0.9-0.86,2.08-1.33,3.33-1.33c0.04,0,0.08,0,0.11,0c1.29,0.03,2.49,0.56,3.38,1.49
				l0.13,0.14c0.37,0.39,0.88,0.61,1.42,0.62C16,8.6,16.53,8.41,16.92,8.04l0.58-0.55c0.91-0.86,2.1-1.33,3.35-1.3
				c1.25,0.03,2.42,0.54,3.29,1.45c0.42,0.44,1.03,0.65,1.64,0.56c0.48-0.07,0.87-0.36,1.11-0.59l0.15-0.15
				c0.91-0.87,2.09-1.34,3.34-1.34c0.04,0,0.07,0,0.11,0c1.29,0.03,2.49,0.56,3.38,1.49l0.15,0.15c0.77,0.81,2.05,0.84,2.86,0.07
				l0.61-0.58c1.89-1.8,4.93-1.75,6.77,0.12l0.24,0.24c0.78,0.79,2.05,0.8,2.85,0.04l0.17-0.17c0.97-0.92,2.2-1.39,3.48-1.37
				c1.29,0.03,2.49,0.56,3.38,1.49l0.13,0.14c0.37,0.39,0.88,0.61,1.42,0.62c0.02,0,0.03,0,0.05,0c0.53,0,1.02-0.2,1.4-0.56
				l0.58-0.55c1.87-1.79,4.85-1.72,6.64,0.15c0.42,0.44,1.03,0.65,1.64,0.56c0.48-0.07,0.87-0.36,1.11-0.59l0.15-0.15
				c0.93-0.89,2.16-1.37,3.45-1.34c1.29,0.03,2.49,0.56,3.38,1.49l0.15,0.15c0.77,0.8,2.05,0.84,2.86,0.07l0.61-0.58
				c1.89-1.8,4.93-1.75,6.77,0.12l0.24,0.24c0.77,0.78,2.05,0.81,2.85,0.04l0.17-0.17c0.1-0.1,0.26-0.09,0.36,0.01
				c0.1,0.1,0.09,0.26-0.01,0.36l-0.17,0.17c-1,0.95-2.59,0.92-3.55-0.06l-0.24-0.24c-1.64-1.67-4.36-1.72-6.07-0.11l-0.61,0.58
				c-1,0.95-2.6,0.92-3.56-0.09l-0.15-0.15c-0.8-0.84-1.88-1.31-3.03-1.33c-1.16-0.02-2.25,0.4-3.09,1.2l-0.15,0.15
				c-0.42,0.4-0.9,0.65-1.39,0.72c-0.79,0.11-1.54-0.15-2.08-0.71c-1.6-1.67-4.26-1.73-5.92-0.13l-0.58,0.55
				c-0.49,0.47-1.11,0.71-1.81,0.7c-0.68-0.02-1.31-0.29-1.77-0.78l-0.13-0.14c-0.8-0.83-1.87-1.3-3.03-1.33
				c-1.16-0.02-2.26,0.4-3.09,1.19l-0.21,0.2c-1,0.95-2.59,0.92-3.55-0.06l-0.24-0.24c-1.64-1.67-4.36-1.72-6.06-0.11L37.22,8.2
				c-1.01,0.95-2.61,0.92-3.56-0.09l-0.15-0.15c-0.8-0.84-1.88-1.31-3.03-1.34c-0.03,0-0.06,0-0.1,0c-1.12,0-2.18,0.42-2.99,1.2
				l-0.15,0.15c-0.42,0.4-0.9,0.65-1.39,0.72c-0.78,0.11-1.54-0.15-2.08-0.71C23,7.17,21.96,6.71,20.84,6.69c-0.03,0-0.06,0-0.1,0
				c-1.09,0-2.11,0.41-2.89,1.16L17.27,8.4C16.79,8.85,16.18,9.1,15.52,9.1z"/>
		</g>
	</g>
</g>
<g id="fondo">
</g>
<g id="detacado-foto">
</g>
<g id="bloque_1-A">
</g>
<g id="bloque_1_B">
</g>
<g id="destacado">
</g>
<g id="destacado-hidro">
</g>
<g id="destacado-camion">
</g>
<g id="cont">
</g>
<g id="EMPRESA">
</g>
<g id="SERVICIOS-terminal">
</g>
<g id="SERVICIO-lab">
</g>
<g id="SERV-transp-terrestre">
</g>
<g id="SERV-opera-solidos">
</g>
<g id="COMEX">
</g>
<g id="CONTACTO">
</g>
<g id="COMPROMISO">
</g>
<g id="Capa_19" class="st169">
</g>
<g id="TERMINAL">
</g>
<g id="servicios3">
</g>
<g id="servicios2">
</g>
<g id="servicios1">
</g>
<g id="Capa_10">
</g>
<g id="solapa-servicio">
</g>
<g id="top">
</g>
<g id="esqueletoi">
</g>
<g id="guias">
</g>
</svg>
