<?xml version="1.0" encoding="utf-8"?>
<!-- Generator: Adobe Illustrator 27.9.0, SVG Export Plug-In . SVG Version: 6.00 Build 0)  -->
<svg version="1.1" xmlns="http://www.w3.org/2000/svg" xmlns:xlink="http://www.w3.org/1999/xlink" x="0px" y="0px"
	 viewBox="0 0 169.42 91.87" style="enable-background:new 0 0 169.42 91.87;" xml:space="preserve">
<style type="text/css">
	.st0{display:none;}
	.st1{display:inline;}
	.st2{fill:#8F8F8F;}
	.st3{fill:#6E6E6E;}
	.st4{fill:#FFFFFF;}
	.st5{clip-path:url(#SVGID_00000152260599890733598260000007914868113097128365_);}
	.st6{fill:#878787;}
	.st7{fill:#4C4C4A;}
	.st8{fill:#858658;}
	.st9{fill:#1BB09D;}
	.st10{fill:#4CABCB;}
	.st11{fill:#737373;}
	.st12{fill:#4FA98B;}
	.st13{fill:#2276BB;}
	.st14{fill:none;stroke:#FFFFFF;stroke-width:0.25;stroke-miterlimit:10;}
	.st15{clip-path:url(#SVGID_00000044856550097832119260000013506915357062815387_);}
	.st16{clip-path:url(#SVGID_00000021829880099679396130000016224828956729494148_);}
	.st17{clip-path:url(#SVGID_00000178170552011024932650000006030512197694889603_);}
	.st18{clip-path:url(#SVGID_00000034049439426873488870000001835805909783244949_);}
	.st19{clip-path:url(#SVGID_00000165929170578917146470000011168864975232559532_);}
	.st20{clip-path:url(#SVGID_00000139289041932818248830000018358859752740755592_);}
	.st21{clip-path:url(#SVGID_00000121987812377085504790000015083885941117040514_);}
	.st22{clip-path:url(#SVGID_00000179627136605496370230000008699291414814275731_);}
	.st23{clip-path:url(#SVGID_00000165217570892788419770000001747289891319197374_);}
	
		.st24{clip-path:url(#SVGID_00000122719006465635179050000016187976450441457290_);fill:url(#SVGID_00000143609361566731499650000001353754574683317662_);}
	.st25{fill:#003DA6;stroke:#003DA6;stroke-width:0.25;stroke-miterlimit:10;}
	.st26{fill:none;stroke:#003DA6;stroke-width:0.3;stroke-miterlimit:10;}
	.st27{fill:#FFFFFF;stroke:#ABABAB;stroke-width:0.3093;stroke-miterlimit:10;}
	.st28{fill:none;stroke:#003DA6;stroke-width:0.5024;stroke-miterlimit:10;}
	.st29{fill:#FFFFFF;stroke:#003DA6;stroke-width:0.3467;stroke-miterlimit:10;}
	.st30{opacity:0.5;fill:url(#SVGID_00000140702598366882534030000017122195544887040189_);}
	.st31{fill:url(#SVGID_00000127752697284986607640000008265656462499024565_);}
	.st32{fill:#E4F4F9;}
	.st33{fill:#003DA6;}
	.st34{fill:#003DA6;stroke:#FFFFFF;stroke-width:0.2257;stroke-miterlimit:10;}
	.st35{fill:#FFFFFF;stroke:#003DA6;stroke-width:0.2257;stroke-miterlimit:10;}
	.st36{fill:#FFFFFF;stroke:#ABABAB;stroke-width:0.3504;stroke-miterlimit:10;}
	.st37{fill-rule:evenodd;clip-rule:evenodd;fill:#FFFFFF;stroke:#ABABAB;stroke-width:0.4053;stroke-miterlimit:10;}
	.st38{fill:#FFFFFF;stroke:#ABABAB;stroke-width:0.4053;stroke-miterlimit:10;}
	.st39{opacity:0.7;fill:url(#SVGID_00000159471285156668629520000005997194806630723518_);}
	.st40{opacity:0.5;fill:#4C4C4A;}
	.st41{opacity:0.5;fill:#858658;}
	.st42{opacity:0.5;fill:#1BB09D;}
	.st43{opacity:0.5;fill:#4CABCB;}
	.st44{opacity:0.5;fill:#737373;}
	.st45{opacity:0.5;fill:#2276BB;}
	.st46{fill:none;stroke:#003DA6;stroke-width:0.2224;stroke-miterlimit:10;}
	.st47{fill:#FFFFFF;stroke:#003DA6;stroke-width:0.2835;stroke-miterlimit:10;}
	.st48{fill:none;stroke:#003DA6;stroke-width:0.1864;stroke-linecap:round;stroke-miterlimit:1;}
	.st49{fill:#FFFFFF;stroke:#003DA6;stroke-width:0.1;stroke-miterlimit:10;}
	.st50{fill:none;stroke:#003DA6;stroke-width:0.2835;stroke-miterlimit:10;}
	.st51{fill:#575757;}
	.st52{clip-path:url(#SVGID_00000068649246873101440400000000405952212273483199_);}
	.st53{opacity:0.7;fill:url(#SVGID_00000177450168164510757300000012327832641390370980_);}
	.st54{fill:none;stroke:#003DA6;stroke-width:0.25;stroke-miterlimit:10;}
	.st55{fill:#1C3F81;}
	.st56{fill:none;stroke:#949494;stroke-width:0.25;stroke-miterlimit:10;}
	.st57{clip-path:url(#SVGID_00000078037262108331439370000014983319777901178762_);}
	.st58{fill:#43B6A5;}
	.st59{fill:#25745C;}
	.st60{clip-path:url(#SVGID_00000085224465015179312190000005163784355024576664_);}
	.st61{display:inline;fill:#1C3F81;}
	.st62{display:inline;fill:#4C4C4A;}
	.st63{fill:url(#SVGID_00000147922169848597712820000007557227344086054298_);}
	.st64{fill:url(#SVGID_00000170992004249485749830000013248449951662874516_);}
	.st65{fill:none;stroke:#FFFFFF;stroke-width:2;stroke-linecap:round;stroke-miterlimit:10;}
	.st66{clip-path:url(#SVGID_00000085963023414166304630000014518847865348896665_);}
	.st67{fill:#003DA6;stroke:#FFFFFF;stroke-width:0.1346;stroke-miterlimit:10;}
	.st68{fill:#141414;}
	.st69{stroke:#FFFFFF;stroke-width:0.1346;stroke-miterlimit:10;}
	.st70{clip-path:url(#SVGID_00000076587482697919025910000003417844771952021655_);}
	.st71{opacity:0.18;}
	.st72{fill:#089F91;}
	.st73{opacity:0.18;fill:#BADDE9;}
	.st74{fill:#F5F4EF;stroke:#FFFFFF;stroke-width:1.8244;stroke-miterlimit:10;}
	.st75{opacity:0.65;fill:#858658;}
	.st76{fill:#C3DFF5;}
	.st77{opacity:0.63;}
	.st78{fill:#9C9B9B;}
	.st79{fill:#A9A9A9;}
	.st80{fill:#35350B;}
	.st81{fill:none;stroke:#FFFFFF;stroke-width:0.1824;stroke-linecap:round;stroke-linejoin:round;stroke-miterlimit:10;}
	.st82{opacity:0.64;}
	.st83{fill:#F5F4EF;}
	.st84{clip-path:url(#SVGID_00000081640784093230319200000013611968539177931415_);}
	.st85{fill:#F5F4EF;stroke:#FFFFFF;stroke-width:1.2815;stroke-miterlimit:10;}
	.st86{opacity:0.65;}
	.st87{fill:none;stroke:#FFFFFF;stroke-width:0.1281;stroke-linecap:round;stroke-linejoin:round;stroke-miterlimit:10;}
	.st88{fill:#1D1D1B;}
	
		.st89{opacity:0.4;clip-path:url(#SVGID_00000167377388709313757740000006349013076508788627_);fill:url(#SVGID_00000000903428113437393760000009301855172234144660_);}
	.st90{fill:#45CFDA;}
	.st91{clip-path:url(#SVGID_00000080917394075173304120000013021292767842915212_);}
	.st92{clip-path:url(#SVGID_00000089552469987880065320000000566159174838919084_);}
	.st93{fill:#FFFFFF;stroke:#ABABAB;stroke-width:0.4901;stroke-miterlimit:10;}
	.st94{fill:url(#SVGID_00000108305153949917930540000017661887328346055605_);}
	.st95{fill-rule:evenodd;clip-rule:evenodd;fill:#FFFFFF;stroke:#ABABAB;stroke-width:0.2763;stroke-miterlimit:10;}
	.st96{fill:#FFFFFF;stroke:#ABABAB;stroke-width:0.2763;stroke-miterlimit:10;}
	.st97{fill:#0A0A0A;}
	.st98{opacity:0.5;}
	.st99{fill:#565630;}
	.st100{fill:#A2E3F4;}
	.st101{fill:#454545;}
	.st102{fill:none;stroke:#454545;stroke-width:0.5151;stroke-miterlimit:10;}
	.st103{clip-path:url(#SVGID_00000054266415915797611880000007114076190139323312_);}
	.st104{clip-path:url(#SVGID_00000053545897364146770460000008756193024487697296_);}
	.st105{fill:none;stroke:#787878;stroke-width:0.2794;stroke-miterlimit:10;}
	.st106{fill:none;stroke:#787878;stroke-width:0.2073;stroke-miterlimit:10;}
	.st107{fill:none;stroke:#A7B972;stroke-width:0.2557;stroke-miterlimit:10;}
	.st108{fill:none;stroke:#A7B972;stroke-width:0.1622;stroke-miterlimit:10;}
	
		.st109{clip-path:url(#SVGID_00000065767512120485467080000002785546333868638880_);fill:url(#SVGID_00000131344063902510335590000004078770894027671454_);}
	.st110{clip-path:url(#SVGID_00000019659862959560829490000002551518048334102953_);}
	.st111{clip-path:url(#SVGID_00000062173284831341265820000011831248700102742163_);}
	.st112{clip-path:url(#SVGID_00000089552471085764946650000012123748730188134016_);}
	.st113{clip-path:url(#SVGID_00000062167957358267938630000010018822940254328206_);}
	.st114{clip-path:url(#SVGID_00000118392882729609421670000015727763133928722868_);}
	.st115{fill:url(#SVGID_00000100368903927305251060000017337982748622307979_);}
	.st116{fill:none;stroke:#003DA6;stroke-width:0.3467;stroke-miterlimit:10;}
	.st117{opacity:0.27;fill:#BADDE9;}
	.st118{clip-path:url(#SVGID_00000049931037454905908680000014713982110289185172_);}
	.st119{opacity:0.29;}
	
		.st120{clip-path:url(#SVGID_00000174590778955156510260000011526450416675616137_);fill:url(#SVGID_00000007428589811046271920000016283239025351536823_);}
	.st121{opacity:0.71;}
	.st122{clip-path:url(#SVGID_00000176754021382974641230000012283276124358903215_);}
	.st123{clip-path:url(#SVGID_00000081635758859441478360000005482513597721644700_);}
	.st124{clip-path:url(#SVGID_00000047770333513105145160000000710669376128178565_);}
	.st125{fill:none;stroke:#575757;stroke-miterlimit:10;}
	.st126{fill:none;stroke:#575757;stroke-width:0.5;stroke-miterlimit:10;}
	.st127{fill:#D1D1D1;stroke:#828282;stroke-width:0.1864;stroke-linecap:round;stroke-miterlimit:1;}
	.st128{fill:#FFFFFF;stroke:#828282;stroke-width:0.1864;stroke-linecap:round;stroke-miterlimit:1;}
	.st129{fill:#828282;stroke:#424242;stroke-width:0.5;stroke-miterlimit:1;}
	.st130{fill:none;stroke:#828282;stroke-width:0.1864;stroke-linecap:round;stroke-miterlimit:1;}
	.st131{fill:none;stroke:#1C1C1C;stroke-width:0.1864;stroke-linecap:round;stroke-miterlimit:1;}
	.st132{fill:none;stroke:#828282;stroke-width:0.75;stroke-linecap:round;stroke-miterlimit:1;}
	.st133{fill:none;stroke:#292929;stroke-width:0.75;stroke-linecap:round;stroke-miterlimit:1;}
	.st134{fill:#363636;}
	.st135{fill:none;stroke:#3D3D3D;stroke-width:0.1864;stroke-linecap:round;stroke-miterlimit:1;}
	.st136{fill:none;stroke:#BDBDBD;stroke-width:0.75;stroke-miterlimit:10;}
	.st137{opacity:0.27;fill:#E8E8E8;}
	.st138{fill:none;stroke:#003DA6;stroke-width:0.1794;stroke-miterlimit:10;}
	.st139{clip-path:url(#SVGID_00000083055304570334836590000002047674433113069455_);}
	.st140{fill:#1F1F1F;}
	.st141{clip-path:url(#SVGID_00000182498168515718861650000000473614249551583366_);}
	.st142{clip-path:url(#SVGID_00000153687384080453431440000006854173739644362140_);}
	.st143{clip-path:url(#SVGID_00000045591180169407613320000016454156910423789497_);}
	.st144{clip-path:url(#SVGID_00000005985805455611981010000006149343035918434738_);}
	.st145{fill:url(#SVGID_00000109015944334288193140000011073423030948905859_);}
	.st146{fill:#C0E3EA;}
	.st147{fill:#27745C;}
	.st148{fill:#4D4D4D;}
	.st149{clip-path:url(#SVGID_00000106834910988457998770000017917188691435213475_);}
	.st150{fill:none;stroke:#4DABCB;stroke-width:2;stroke-miterlimit:10;}
	.st151{fill:none;stroke:#27745C;stroke-width:3;stroke-miterlimit:10;}
	.st152{fill:url(#SVGID_00000094616283541152973800000000873546847166544787_);}
	.st153{fill:url(#SVGID_00000147941140783245922350000004631300373072557235_);}
	.st154{fill:#706F6F;}
	.st155{fill:none;}
	.st156{fill:url(#SVGID_00000050639206461226074360000001196829552827153082_);}
	.st157{fill:none;stroke:#4DABCB;stroke-width:2;stroke-linecap:round;stroke-miterlimit:10;}
	.st158{fill:url(#SVGID_00000062157335045907551150000007704104421129175944_);}
	.st159{clip-path:url(#SVGID_00000005966677618798822010000000287534330752925876_);}
	.st160{opacity:0.35;fill:#1C3F81;}
	.st161{clip-path:url(#SVGID_00000063592448381578349870000003677902177467071890_);}
	.st162{clip-path:url(#SVGID_00000005239589736859629600000006883884648352650393_);}
	.st163{opacity:0.29;fill:#4C1608;}
	.st164{clip-path:url(#SVGID_00000171711017377117928510000016930645337630325946_);}
	.st165{opacity:0.29;fill:#054096;}
	.st166{clip-path:url(#SVGID_00000046333095574870191920000002196195759011972497_);}
	.st167{clip-path:url(#SVGID_00000152943291948294389390000016453954160004813457_);}
	.st168{opacity:0.23;fill:#95A71A;}
	.st169{fill:#799B1C;}
	.st170{opacity:0.5;fill:url(#SVGID_00000038386893680992158150000005911077478576607639_);}
	
		.st171{clip-path:url(#SVGID_00000021835394636089804450000001132475947629635002_);fill:url(#SVGID_00000165917460902510983390000001287156216757214885_);}
	
		.st172{clip-path:url(#SVGID_00000002386585319063841530000014710011874545345426_);fill:url(#SVGID_00000041987109920731550270000009095098261114789541_);}
	.st173{clip-path:url(#SVGID_00000147185507710793225810000004351487018524600241_);}
	.st174{clip-path:url(#SVGID_00000113323496954896830330000004963833315018161032_);}
	.st175{opacity:0.57;fill:#BADDE9;}
	.st176{opacity:0.54;fill:#1C3F81;}
	.st177{clip-path:url(#SVGID_00000042011065853711292430000018108112007848556930_);}
	.st178{clip-path:url(#SVGID_00000070823784657100305720000005922062682100453805_);}
	.st179{fill:url(#SVGID_00000145042602111960533500000004851188921534609836_);}
	.st180{fill:url(#SVGID_00000158742113648031474960000012507747860588743309_);}
	.st181{clip-path:url(#SVGID_00000076564617336162935320000012504141451477538485_);}
	.st182{clip-path:url(#SVGID_00000133506126637443746410000015387123558830199435_);}
	.st183{fill:none;stroke:#FFFFFF;stroke-width:0.75;stroke-miterlimit:10;}
	.st184{fill:none;stroke:#FFFFFF;stroke-width:0.7503;stroke-miterlimit:10;}
	.st185{clip-path:url(#SVGID_00000146463219096601457320000016401380211647299979_);fill:#FFFFFF;}
	.st186{fill:none;stroke:#2276BB;stroke-width:0.1;stroke-miterlimit:10;}
	.st187{fill:none;stroke:#FFFFFF;stroke-width:0.5;stroke-miterlimit:10;}
	.st188{clip-path:url(#SVGID_00000029768676112856122820000003709849335118112658_);fill:#FFFFFF;}
	.st189{clip-path:url(#SVGID_00000009581435745061409840000004115180732253436081_);fill:#FFFFFF;}
	.st190{clip-path:url(#SVGID_00000021809295243149264670000008159611511861202869_);fill:#FFFFFF;}
	.st191{fill:url(#SVGID_00000155831043799199171470000012519509329494596736_);}
	.st192{fill:none;stroke:#003DA6;stroke-width:0.2543;stroke-linecap:round;stroke-miterlimit:10;}
	.st193{fill:#BEE2E9;}
	.st194{fill:#7FA6E5;}
	.st195{opacity:0.97;fill:#71D4FF;}
</style>
<g id="iconos-fondo" class="st0">
</g>
<g id="footer">
</g>
<g id="fondo">
</g>
<g id="detacado-foto">
</g>
<g id="bloque_1-A">
</g>
<g id="bloque_1_B">
</g>
<g id="destacado" class="st0">
</g>
<g id="destacado-hidro" class="st0">
</g>
<g id="destacado-camion">
</g>
<g id="cont">
</g>
<g id="EMPRESA">
	<g>
		<path class="st10" d="M169.42,91.87H27.29C12.22,91.87,0,79.66,0,64.59l0-37.3C0,12.22,12.22,0,27.29,0l142.14,0V91.87z"/>
	</g>
	<g>
		<g>
			<g>
				<path class="st4" d="M54.67,41.91c-0.03,0-0.06,0-0.09,0c-1.04-0.02-2-0.45-2.72-1.2l-0.11-0.11c-0.62-0.65-1.65-0.67-2.3-0.05
					l-0.19,0.18c-0.71,0.68-1.63,1.04-2.61,1.04c-0.03,0-0.06,0-0.09,0c-0.96-0.02-1.87-0.4-2.56-1.07c-0.08-0.08-0.08-0.21,0-0.29
					c0.08-0.08,0.2-0.08,0.29,0c0.61,0.6,1.42,0.94,2.28,0.96c0.03,0,0.05,0,0.08,0c0.87,0,1.69-0.33,2.33-0.93l0.19-0.18
					c0.81-0.77,2.1-0.75,2.88,0.06l0.11,0.11c0.64,0.67,1.51,1.05,2.44,1.07c0.93,0.02,1.81-0.32,2.48-0.96l0.38-0.36
					c0.8-0.77,2.08-0.76,2.85,0.02c0.71,0.71,1.72,1.07,2.7,0.98c0.75-0.06,1.51-0.43,2.13-1.02L65.29,40
					c0.45-0.43,1.07-0.62,1.7-0.5c0.39,0.07,0.76,0.29,1.09,0.63l0.13,0.13c1.32,1.38,3.52,1.44,4.91,0.12l0.49-0.46
					c0.8-0.76,2.08-0.73,2.85,0.05l0.19,0.19c0.65,0.66,1.52,1.02,2.45,1.03l0.15,0c0.84-0.02,1.64-0.35,2.25-0.93l0.19-0.19
					c0.39-0.37,0.93-0.57,1.45-0.56c0.54,0.01,1.05,0.23,1.42,0.63l0.11,0.11c0.64,0.67,1.51,1.05,2.44,1.07
					c0.91,0.02,1.81-0.32,2.48-0.96l0.38-0.36c0.8-0.77,2.08-0.76,2.85,0.02c0.71,0.71,1.71,1.07,2.7,0.98
					c0.75-0.06,1.51-0.43,2.13-1.02l0.17-0.16c0.45-0.43,1.07-0.62,1.7-0.5c0.39,0.07,0.76,0.29,1.09,0.63l0.13,0.13
					c1.32,1.38,3.52,1.43,4.91,0.12l0.49-0.46c0.8-0.76,2.08-0.74,2.85,0.05l0.19,0.19c1.33,1.35,3.52,1.38,4.89,0.08l0.14-0.13
					c0.08-0.08,0.21-0.07,0.29,0.01c0.08,0.08,0.08,0.21-0.01,0.29l-0.14,0.13c-1.53,1.46-3.98,1.42-5.45-0.08l-0.19-0.19
					c-0.62-0.63-1.64-0.65-2.28-0.04l-0.49,0.46c-1.55,1.47-4.01,1.41-5.48-0.13l-0.13-0.13c-0.19-0.19-0.49-0.44-0.87-0.51
					c-0.48-0.09-0.98,0.05-1.34,0.39l-0.17,0.16c-0.69,0.66-1.53,1.06-2.38,1.14c-1.14,0.1-2.23-0.31-3.02-1.1
					c-0.6-0.61-1.65-0.62-2.28-0.01l-0.38,0.36c-0.75,0.72-1.76,1.1-2.77,1.08c-1.04-0.02-2-0.45-2.72-1.2l-0.11-0.11
					c-0.3-0.31-0.7-0.49-1.14-0.5c-0.41-0.01-0.85,0.15-1.16,0.45l-0.19,0.19c-0.71,0.68-1.63,1.04-2.6,1.04c-0.03,0-0.06,0-0.09,0
					l-0.2-0.01c-0.97-0.06-1.86-0.46-2.54-1.15l-0.19-0.19c-0.62-0.63-1.65-0.65-2.28-0.04l-0.49,0.46c-1.55,1.47-4,1.41-5.48-0.13
					l-0.13-0.13c-0.19-0.19-0.49-0.44-0.87-0.51c-0.49-0.09-0.98,0.05-1.34,0.39l-0.17,0.16c-0.69,0.66-1.53,1.06-2.38,1.13
					c-1.13,0.1-2.23-0.31-3.02-1.1c-0.6-0.61-1.65-0.62-2.28-0.01l-0.38,0.36C56.62,41.53,55.67,41.91,54.67,41.91z"/>
			</g>
		</g>
		<g>
			<g>
				<path class="st4" d="M54.67,40.06c-0.02,0-0.03,0-0.05,0c-0.54-0.01-1.05-0.23-1.42-0.63l-0.11-0.11
					c-0.64-0.67-1.5-1.05-2.44-1.07c-0.95-0.02-1.81,0.32-2.48,0.96l-0.19,0.19c-0.73,0.7-1.89,0.71-2.64,0.02
					c-0.08-0.08-0.09-0.2-0.01-0.29c0.08-0.08,0.2-0.09,0.29-0.01c0.59,0.55,1.5,0.54,2.08-0.02l0.19-0.19
					c0.73-0.69,1.67-1.07,2.68-1.07c0.03,0,0.06,0,0.09,0c1.04,0.02,2.01,0.45,2.72,1.19l0.11,0.11c0.3,0.31,0.7,0.49,1.14,0.5
					c0.01,0,0.03,0,0.04,0c0.42,0,0.82-0.16,1.13-0.45l0.47-0.45c0.73-0.7,1.67-1.07,2.69-1.04c1.01,0.02,1.95,0.44,2.64,1.16
					c0.34,0.36,0.83,0.52,1.32,0.45c0.39-0.05,0.7-0.29,0.89-0.47l0.12-0.12c0.75-0.72,1.74-1.1,2.77-1.08
					c1.04,0.02,2,0.45,2.72,1.2l0.12,0.12c0.62,0.65,1.65,0.67,2.3,0.06l0.49-0.46c1.52-1.45,3.97-1.41,5.44,0.1l0.19,0.19
					c0.63,0.63,1.65,0.65,2.29,0.04l0.14-0.13c0.78-0.74,1.75-1.12,2.8-1.1c1.04,0.02,2.01,0.45,2.72,1.19l0.11,0.11
					c0.3,0.31,0.7,0.49,1.14,0.5c0.44,0.01,0.85-0.15,1.16-0.45l0.47-0.45c1.51-1.44,3.9-1.38,5.34,0.12
					c0.34,0.36,0.82,0.52,1.32,0.45c0.39-0.05,0.7-0.29,0.89-0.47l0.12-0.12c0.75-0.72,1.72-1.1,2.77-1.08
					c1.04,0.02,2,0.45,2.72,1.2l0.12,0.12c0.62,0.65,1.65,0.67,2.3,0.06l0.49-0.46c1.53-1.45,3.97-1.4,5.44,0.1l0.19,0.19
					c0.62,0.63,1.65,0.65,2.29,0.04l0.14-0.13c0.08-0.08,0.21-0.07,0.29,0.01c0.08,0.08,0.08,0.21-0.01,0.29l-0.14,0.13
					c-0.8,0.77-2.08,0.74-2.86-0.04l-0.19-0.19c-1.32-1.34-3.51-1.38-4.88-0.09l-0.49,0.46c-0.81,0.77-2.09,0.74-2.87-0.07
					l-0.12-0.12c-0.64-0.67-1.51-1.05-2.44-1.07c-0.03,0-0.05,0-0.08,0c-0.9,0-1.75,0.34-2.4,0.96l-0.12,0.12
					c-0.34,0.32-0.73,0.52-1.12,0.58c-0.63,0.09-1.24-0.12-1.67-0.57c-1.28-1.34-3.43-1.39-4.76-0.11l-0.47,0.45
					c-0.39,0.37-0.91,0.58-1.45,0.56c-0.54-0.01-1.05-0.23-1.42-0.63l-0.11-0.11c-0.64-0.67-1.51-1.05-2.44-1.07
					c-0.03,0-0.06,0-0.08,0c-0.9,0-1.75,0.34-2.4,0.96l-0.17,0.16c-0.8,0.76-2.08,0.75-2.86-0.04l-0.19-0.19
					c-1.32-1.35-3.51-1.38-4.88-0.09l-0.49,0.46c-0.81,0.77-2.1,0.74-2.87-0.07l-0.12-0.12c-0.64-0.67-1.51-1.05-2.44-1.07
					c-0.03,0-0.05,0-0.08,0c-0.9,0-1.75,0.34-2.4,0.96l-0.12,0.12c-0.34,0.32-0.72,0.52-1.12,0.58c-0.63,0.09-1.24-0.12-1.67-0.57
					c-0.62-0.65-1.46-1.02-2.36-1.04c-0.03,0-0.05,0-0.08,0c-0.87,0-1.7,0.33-2.33,0.93l-0.47,0.45
					C55.69,39.86,55.2,40.06,54.67,40.06z"/>
			</g>
		</g>
		<g>
			<g>
				<path class="st4" d="M54.65,37.4c-0.03,0-0.06,0-0.09,0c-1.04-0.02-2-0.45-2.72-1.2l-0.11-0.11c-0.3-0.31-0.7-0.49-1.14-0.5
					c-0.46-0.01-0.85,0.15-1.16,0.45l-0.19,0.18c-0.71,0.68-1.63,1.04-2.61,1.04c-0.03,0-0.06,0-0.09,0
					c-0.96-0.02-1.87-0.4-2.56-1.07c-0.08-0.08-0.08-0.21,0-0.29c0.08-0.08,0.2-0.08,0.29,0c0.61,0.6,1.42,0.94,2.28,0.96
					c0.03,0,0.05,0,0.08,0c0.87,0,1.69-0.33,2.33-0.93l0.19-0.18c0.39-0.37,0.91-0.58,1.45-0.56c0.54,0.01,1.05,0.23,1.42,0.63
					l0.11,0.11c0.64,0.67,1.51,1.05,2.44,1.07c0.95,0.02,1.81-0.32,2.48-0.96l0.38-0.36c0.8-0.77,2.08-0.76,2.85,0.02
					c0.7,0.71,1.72,1.07,2.7,0.98c0.75-0.06,1.51-0.43,2.13-1.02l0.17-0.16c0.45-0.43,1.06-0.62,1.7-0.5
					c0.39,0.07,0.76,0.29,1.09,0.63l0.13,0.13c1.32,1.38,3.52,1.44,4.91,0.12l0.49-0.46c0.8-0.76,2.08-0.74,2.85,0.05l0.19,0.19
					c0.65,0.66,1.52,1.02,2.45,1.03l0.15,0c0.84-0.02,1.64-0.35,2.25-0.93l0.19-0.18c0.39-0.37,0.88-0.58,1.45-0.56
					c0.54,0.01,1.05,0.23,1.42,0.63l0.11,0.11c0.64,0.67,1.51,1.05,2.44,1.07c0.93,0.01,1.81-0.32,2.48-0.96l0.38-0.36
					c0.8-0.77,2.08-0.76,2.85,0.02c0.71,0.71,1.71,1.07,2.7,0.98c0.75-0.06,1.51-0.43,2.13-1.02l0.17-0.16
					c0.45-0.43,1.07-0.61,1.7-0.5c0.39,0.07,0.76,0.29,1.09,0.63l0.13,0.13c1.32,1.38,3.52,1.43,4.91,0.12l0.49-0.46
					c0.8-0.76,2.08-0.74,2.85,0.05l0.19,0.19c1.33,1.35,3.52,1.38,4.89,0.08l0.14-0.13c0.08-0.08,0.21-0.07,0.29,0.01
					c0.08,0.08,0.08,0.21-0.01,0.29l-0.14,0.13c-1.53,1.46-3.98,1.42-5.45-0.08l-0.19-0.19c-0.62-0.63-1.64-0.65-2.28-0.04
					l-0.49,0.46c-1.55,1.47-4.01,1.41-5.48-0.13l-0.13-0.13c-0.19-0.19-0.49-0.44-0.87-0.51c-0.49-0.09-0.98,0.05-1.34,0.39
					l-0.17,0.16c-0.69,0.66-1.53,1.06-2.38,1.13c-1.13,0.1-2.23-0.31-3.02-1.1c-0.6-0.61-1.65-0.62-2.28-0.01l-0.38,0.36
					c-0.75,0.72-1.74,1.1-2.77,1.08c-1.04-0.02-2-0.45-2.72-1.2l-0.11-0.11c-0.3-0.31-0.7-0.49-1.14-0.5
					c-0.45-0.01-0.85,0.15-1.16,0.45l-0.19,0.19c-0.71,0.68-1.63,1.04-2.6,1.04c-0.03,0-0.06,0-0.09,0l-0.2-0.01
					c-0.97-0.06-1.86-0.46-2.54-1.15l-0.19-0.19c-0.62-0.63-1.64-0.65-2.28-0.04l-0.49,0.46c-1.55,1.47-4,1.41-5.48-0.13l-0.13-0.13
					c-0.19-0.19-0.49-0.44-0.87-0.51c-0.5-0.09-0.98,0.05-1.34,0.39l-0.17,0.16c-0.69,0.66-1.53,1.06-2.38,1.13
					c-1.13,0.1-2.23-0.31-3.02-1.1c-0.6-0.61-1.65-0.62-2.28-0.01l-0.38,0.36C56.6,37.02,55.65,37.4,54.65,37.4z"/>
			</g>
		</g>
		<g>
			<g>
				<path class="st4" d="M54.65,35.54c-0.02,0-0.03,0-0.05,0c-0.54-0.01-1.05-0.23-1.42-0.63l-0.11-0.11
					c-0.64-0.67-1.5-1.05-2.44-1.07c-0.93-0.02-1.81,0.32-2.48,0.96l-0.19,0.19c-0.73,0.7-1.89,0.71-2.64,0.02
					c-0.08-0.08-0.09-0.2-0.01-0.29c0.07-0.08,0.2-0.09,0.29-0.01c0.59,0.55,1.5,0.54,2.08-0.02l0.19-0.19
					c0.73-0.69,1.67-1.07,2.68-1.07c0.03,0,0.06,0,0.09,0c1.04,0.02,2.01,0.45,2.72,1.19l0.11,0.11c0.3,0.31,0.7,0.49,1.14,0.5
					c0.42,0,0.85-0.15,1.16-0.45l0.47-0.45c0.73-0.7,1.69-1.07,2.69-1.04c1.01,0.02,1.95,0.44,2.64,1.16
					c0.34,0.36,0.83,0.52,1.32,0.45c0.39-0.05,0.7-0.29,0.89-0.47l0.12-0.12c0.73-0.7,1.68-1.08,2.68-1.08c0.03,0,0.06,0,0.09,0
					c1.04,0.02,2,0.45,2.72,1.2l0.12,0.12c0.62,0.65,1.65,0.67,2.3,0.06l0.49-0.46c1.52-1.45,3.97-1.41,5.44,0.1l0.19,0.19
					c0.62,0.63,1.65,0.65,2.29,0.04l0.14-0.13c0.78-0.74,1.77-1.12,2.8-1.1c1.04,0.02,2.01,0.45,2.72,1.19L86,34.47
					c0.3,0.31,0.7,0.49,1.14,0.5c0.01,0,0.03,0,0.04,0c0.42,0,0.82-0.16,1.13-0.45l0.47-0.45c1.5-1.44,3.9-1.38,5.34,0.12
					c0.34,0.36,0.83,0.52,1.32,0.45c0.39-0.05,0.7-0.29,0.89-0.47l0.12-0.12c0.75-0.72,1.74-1.1,2.77-1.08
					c1.04,0.02,2,0.45,2.72,1.2l0.12,0.12c0.62,0.65,1.65,0.67,2.3,0.06l0.49-0.46c1.52-1.45,3.96-1.41,5.44,0.1l0.19,0.19
					c0.62,0.63,1.65,0.65,2.29,0.04l0.14-0.13c0.08-0.08,0.21-0.07,0.29,0.01c0.08,0.08,0.08,0.21-0.01,0.29l-0.14,0.13
					c-0.8,0.77-2.08,0.74-2.86-0.04l-0.19-0.19c-1.32-1.34-3.51-1.38-4.88-0.09l-0.49,0.46c-0.8,0.77-2.09,0.74-2.87-0.07
					l-0.12-0.12c-0.64-0.67-1.51-1.05-2.44-1.07c-0.94-0.02-1.81,0.32-2.48,0.96l-0.12,0.12c-0.34,0.32-0.73,0.52-1.12,0.58
					c-0.63,0.09-1.24-0.12-1.67-0.57c-1.28-1.34-3.42-1.39-4.76-0.11l-0.47,0.45c-0.39,0.37-0.89,0.57-1.45,0.56
					c-0.54-0.01-1.05-0.23-1.42-0.63l-0.11-0.11c-0.64-0.67-1.51-1.05-2.44-1.07c-0.93-0.02-1.81,0.32-2.48,0.96l-0.17,0.16
					c-0.8,0.76-2.08,0.74-2.86-0.04l-0.19-0.19c-1.32-1.35-3.51-1.38-4.88-0.09l-0.49,0.46c-0.81,0.77-2.1,0.74-2.87-0.07
					l-0.12-0.12c-0.64-0.67-1.51-1.05-2.44-1.07c-0.03,0-0.05,0-0.08,0c-0.9,0-1.75,0.34-2.4,0.96l-0.12,0.12
					c-0.34,0.32-0.73,0.52-1.12,0.58c-0.63,0.09-1.24-0.12-1.67-0.57c-0.62-0.65-1.46-1.02-2.36-1.04c-0.03,0-0.05,0-0.08,0
					c-0.87,0-1.7,0.33-2.33,0.93l-0.47,0.45C55.67,35.35,55.18,35.54,54.65,35.54z"/>
			</g>
		</g>
	</g>
	<g>
		<g>
			<path class="st4" d="M51.66,52.67h1.44v2.58h2.65v-2.58h1.44v6.53h-1.44v-2.62H53.1v2.62h-1.44V52.67z"/>
			<path class="st4" d="M59.74,52.67h1.44v6.53h-1.44V52.67z"/>
			<path class="st4" d="M63.74,52.67h2.54c2.05,0,3.47,1.41,3.47,3.24v0.02c0,1.84-1.42,3.26-3.47,3.26h-2.54V52.67z M66.29,57.9
				c1.17,0,1.97-0.79,1.97-1.95v-0.02c0-1.16-0.79-1.97-1.97-1.97h-1.11v3.93H66.29z"/>
			<path class="st4" d="M71.97,52.67h2.98c0.83,0,1.47,0.23,1.9,0.66c0.36,0.36,0.56,0.88,0.56,1.49v0.02c0,1.05-0.57,1.72-1.4,2.02
				l1.59,2.33h-1.68l-1.4-2.09H73.4v2.09h-1.44V52.67z M74.86,55.84c0.7,0,1.1-0.37,1.1-0.92V54.9c0-0.62-0.43-0.93-1.13-0.93H73.4
				v1.87H74.86z"/>
			<path class="st4" d="M79.35,55.95v-0.02c0-1.85,1.46-3.38,3.48-3.38s3.46,1.5,3.46,3.36v0.02c0,1.86-1.46,3.38-3.48,3.38
				C80.79,59.31,79.35,57.81,79.35,55.95z M84.78,55.95v-0.02c0-1.12-0.82-2.05-1.98-2.05c-1.16,0-1.96,0.91-1.96,2.03v0.02
				c0,1.12,0.82,2.05,1.98,2.05S84.78,57.07,84.78,55.95z"/>
			<path class="st4" d="M87.51,52.67h1.58l1.71,4.6l1.71-4.6h1.55l-2.64,6.57h-1.27L87.51,52.67z"/>
			<path class="st4" d="M96.06,52.67h1.44v6.53h-1.44V52.67z M97.33,50.69l1.22,0.53l-1.27,0.93H96.2L97.33,50.69z"/>
			<path class="st4" d="M102.3,52.62h1.32l2.8,6.57h-1.5l-0.6-1.46h-2.76l-0.6,1.46H99.5L102.3,52.62z M103.81,56.46l-0.87-2.12
				l-0.87,2.12H103.81z"/>
		</g>
	</g>
</g>
<g id="SERVICIOS-terminal">
</g>
<g id="SERVICIO-lab">
</g>
<g id="SERV-transp-terrestre">
</g>
<g id="SERV-opera-solidos">
</g>
<g id="COMEX">
</g>
<g id="CONTACTO">
</g>
<g id="COMPROMISO">
</g>
<g id="Capa_19" class="st0">
</g>
<g id="TERMINAL">
</g>
<g id="servicios3">
</g>
<g id="servicios2">
</g>
<g id="servicios1">
</g>
<g id="Capa_10">
</g>
<g id="solapa-servicio">
</g>
<g id="top">
</g>
<g id="esqueletoi">
</g>
<g id="guias">
</g>
</svg>
