<?xml version="1.0" encoding="utf-8"?>
<!-- Generator: Adobe Illustrator 27.9.0, SVG Export Plug-In . SVG Version: 6.00 Build 0)  -->
<svg version="1.1" xmlns="http://www.w3.org/2000/svg" xmlns:xlink="http://www.w3.org/1999/xlink" x="0px" y="0px"
	 viewBox="0 0 75.39 96" style="enable-background:new 0 0 75.39 96;" xml:space="preserve">
<style type="text/css">
	.st0{fill:#8F8F8F;}
	.st1{fill:#6E6E6E;}
	.st2{fill:#FFFFFF;}
	.st3{clip-path:url(#SVGID_00000042735596984436795290000013740496759240847500_);}
	.st4{fill:#878787;}
	.st5{fill:#4C4C4A;}
	.st6{fill:#858658;}
	.st7{fill:#1BB09D;}
	.st8{fill:#4CABCB;}
	.st9{fill:#737373;}
	.st10{fill:#4FA98B;}
	.st11{fill:#2276BB;}
	.st12{fill:none;stroke:#FFFFFF;stroke-width:0.25;stroke-miterlimit:10;}
	.st13{clip-path:url(#SVGID_00000046309311786098111880000008473958539952709002_);}
	.st14{clip-path:url(#SVGID_00000023996764664659899450000016244190474616757132_);}
	.st15{clip-path:url(#SVGID_00000016782301913884375870000013894118593029234318_);}
	.st16{clip-path:url(#SVGID_00000130604989477106850930000014397036807210981032_);}
	.st17{clip-path:url(#SVGID_00000140722784425260969610000004008192760248690107_);}
	.st18{clip-path:url(#SVGID_00000135653200034483277180000012543966016326241668_);}
	.st19{clip-path:url(#SVGID_00000109028141831269822220000009447300249036384679_);}
	.st20{clip-path:url(#SVGID_00000044890528612538304010000007443185317232222375_);}
	.st21{clip-path:url(#SVGID_00000039813286773768870780000008978638583939883188_);}
	
		.st22{clip-path:url(#SVGID_00000034795319537086739910000013010829053136480138_);fill:url(#SVGID_00000043432449230300067270000002322118675530174599_);}
	.st23{fill:#003DA6;stroke:#003DA6;stroke-width:0.25;stroke-miterlimit:10;}
	.st24{fill:none;stroke:#003DA6;stroke-width:0.3;stroke-miterlimit:10;}
	.st25{fill:#FFFFFF;stroke:#ABABAB;stroke-width:0.3093;stroke-miterlimit:10;}
	.st26{fill:none;stroke:#003DA6;stroke-width:0.5024;stroke-miterlimit:10;}
	.st27{fill:#FFFFFF;stroke:#003DA6;stroke-width:0.3467;stroke-miterlimit:10;}
	.st28{opacity:0.5;fill:url(#SVGID_00000142149606809427161550000000131744224813352632_);}
	.st29{fill:url(#SVGID_00000067945037765291744990000006026564962158333075_);}
	.st30{fill:#E4F4F9;}
	.st31{fill:#003DA6;}
	.st32{fill:#003DA6;stroke:#FFFFFF;stroke-width:0.2257;stroke-miterlimit:10;}
	.st33{fill:#FFFFFF;stroke:#003DA6;stroke-width:0.2257;stroke-miterlimit:10;}
	.st34{fill:#FFFFFF;stroke:#ABABAB;stroke-width:0.3504;stroke-miterlimit:10;}
	.st35{fill-rule:evenodd;clip-rule:evenodd;fill:#FFFFFF;stroke:#ABABAB;stroke-width:0.4053;stroke-miterlimit:10;}
	.st36{fill:#FFFFFF;stroke:#ABABAB;stroke-width:0.4053;stroke-miterlimit:10;}
	.st37{opacity:0.7;fill:url(#SVGID_00000053517589004029467030000007423849482134134203_);}
	.st38{opacity:0.5;fill:#4C4C4A;}
	.st39{opacity:0.5;fill:#858658;}
	.st40{opacity:0.5;fill:#1BB09D;}
	.st41{opacity:0.5;fill:#4CABCB;}
	.st42{opacity:0.5;fill:#737373;}
	.st43{opacity:0.5;fill:#2276BB;}
	.st44{fill:none;stroke:#003DA6;stroke-width:0.2224;stroke-miterlimit:10;}
	.st45{fill:#FFFFFF;stroke:#003DA6;stroke-width:0.2835;stroke-miterlimit:10;}
	.st46{fill:none;stroke:#003DA6;stroke-width:0.1864;stroke-linecap:round;stroke-miterlimit:1;}
	.st47{fill:#FFFFFF;stroke:#003DA6;stroke-width:0.1;stroke-miterlimit:10;}
	.st48{fill:none;stroke:#003DA6;stroke-width:0.2835;stroke-miterlimit:10;}
	.st49{fill:#575757;}
	.st50{clip-path:url(#SVGID_00000178891111291912984060000009494592447099410818_);}
	.st51{opacity:0.7;fill:url(#SVGID_00000106863348849997488310000005084043515346758565_);}
	.st52{fill:none;stroke:#003DA6;stroke-width:0.25;stroke-miterlimit:10;}
	.st53{fill:#1C3F81;}
	.st54{fill:none;stroke:#949494;stroke-width:0.25;stroke-miterlimit:10;}
	.st55{clip-path:url(#SVGID_00000005241305353900748910000008994450043241994910_);}
	.st56{fill:#43B6A5;}
	.st57{fill:#25745C;}
	.st58{clip-path:url(#SVGID_00000183970030707974043700000004903124698858390927_);}
	.st59{display:none;}
	.st60{display:inline;}
	.st61{display:inline;fill:#1C3F81;}
	.st62{display:inline;fill:#4C4C4A;}
	.st63{fill:url(#SVGID_00000066503704443705613660000007708345107532386978_);}
	.st64{fill:url(#SVGID_00000145016478979387158170000011115566829534196910_);}
	.st65{fill:none;stroke:#FFFFFF;stroke-width:2;stroke-linecap:round;stroke-miterlimit:10;}
	.st66{clip-path:url(#SVGID_00000045607650080324390470000011164164155846721954_);}
	.st67{fill:#003DA6;stroke:#FFFFFF;stroke-width:0.1346;stroke-miterlimit:10;}
	.st68{fill:#141414;}
	.st69{stroke:#FFFFFF;stroke-width:0.1346;stroke-miterlimit:10;}
	.st70{clip-path:url(#SVGID_00000064315228897094052250000004815873374173237641_);}
	.st71{opacity:0.18;}
	.st72{fill:#089F91;}
	.st73{opacity:0.18;fill:#BADDE9;}
	.st74{fill:#F5F4EF;stroke:#FFFFFF;stroke-width:1.8244;stroke-miterlimit:10;}
	.st75{opacity:0.65;fill:#858658;}
	.st76{fill:#C3DFF5;}
	.st77{opacity:0.63;}
	.st78{fill:#9C9B9B;}
	.st79{fill:#A9A9A9;}
	.st80{fill:#35350B;}
	.st81{fill:none;stroke:#FFFFFF;stroke-width:0.1824;stroke-linecap:round;stroke-linejoin:round;stroke-miterlimit:10;}
	.st82{opacity:0.64;}
	.st83{fill:#F5F4EF;}
	.st84{clip-path:url(#SVGID_00000009572862919752031840000007505590231566258347_);}
	.st85{fill:#F5F4EF;stroke:#FFFFFF;stroke-width:1.2815;stroke-miterlimit:10;}
	.st86{opacity:0.65;}
	.st87{fill:none;stroke:#FFFFFF;stroke-width:0.1281;stroke-linecap:round;stroke-linejoin:round;stroke-miterlimit:10;}
	.st88{fill:#1D1D1B;}
	
		.st89{opacity:0.4;clip-path:url(#SVGID_00000080902095271044548720000011005974552078841754_);fill:url(#SVGID_00000093888114932981846610000012684182208383570845_);}
	.st90{fill:#45CFDA;}
	.st91{clip-path:url(#SVGID_00000082354683385869792980000003489719833097954725_);}
	.st92{clip-path:url(#SVGID_00000078764763165953687380000001184682646422891653_);}
	.st93{fill:#FFFFFF;stroke:#ABABAB;stroke-width:0.4901;stroke-miterlimit:10;}
	.st94{fill:url(#SVGID_00000109710010046692402460000006435964056487553724_);}
	.st95{fill-rule:evenodd;clip-rule:evenodd;fill:#FFFFFF;stroke:#ABABAB;stroke-width:0.2763;stroke-miterlimit:10;}
	.st96{fill:#FFFFFF;stroke:#ABABAB;stroke-width:0.2763;stroke-miterlimit:10;}
	.st97{fill:#0A0A0A;}
	.st98{opacity:0.5;}
	.st99{fill:#565630;}
	.st100{fill:#A2E3F4;}
	.st101{fill:#454545;}
	.st102{fill:none;stroke:#454545;stroke-width:0.5151;stroke-miterlimit:10;}
	.st103{clip-path:url(#SVGID_00000057108410721502054830000013407992648513188234_);}
	.st104{clip-path:url(#SVGID_00000065773521386054898070000002672754893938489249_);}
	.st105{fill:none;stroke:#787878;stroke-width:0.2794;stroke-miterlimit:10;}
	.st106{fill:none;stroke:#787878;stroke-width:0.2073;stroke-miterlimit:10;}
	.st107{fill:none;stroke:#A7B972;stroke-width:0.2557;stroke-miterlimit:10;}
	.st108{fill:none;stroke:#A7B972;stroke-width:0.1622;stroke-miterlimit:10;}
	
		.st109{clip-path:url(#SVGID_00000065053446458209593500000000082576055890994320_);fill:url(#SVGID_00000029022918996295609470000009428835832913430419_);}
	.st110{clip-path:url(#SVGID_00000031189799253367688120000016650471819929489331_);}
	.st111{clip-path:url(#SVGID_00000060025348778847187690000008291187508649479354_);}
	.st112{clip-path:url(#SVGID_00000129163930838347637040000004774273958100137146_);}
	.st113{clip-path:url(#SVGID_00000057106193586010217470000010839515365944077216_);}
	.st114{clip-path:url(#SVGID_00000034803681749095461210000004931261510035984312_);}
	.st115{fill:url(#SVGID_00000033340898761364115920000000474823927743018679_);}
	.st116{opacity:0.27;fill:#BADDE9;}
	.st117{clip-path:url(#SVGID_00000173119572677395793280000010064207921526038974_);}
	.st118{opacity:0.29;}
	
		.st119{clip-path:url(#SVGID_00000155140009689257561500000009673261500933504956_);fill:url(#SVGID_00000116930309880220623840000005626409944202541444_);}
	.st120{opacity:0.71;}
	.st121{clip-path:url(#SVGID_00000167383696665840118230000012539075554971815048_);}
	.st122{clip-path:url(#SVGID_00000025411863001737612860000011363982116220742811_);}
	.st123{clip-path:url(#SVGID_00000035509691143972611870000015305125420534112655_);}
	.st124{fill:none;stroke:#575757;stroke-miterlimit:10;}
	.st125{fill:none;stroke:#575757;stroke-width:0.5;stroke-miterlimit:10;}
	.st126{fill:#D1D1D1;stroke:#828282;stroke-width:0.1864;stroke-linecap:round;stroke-miterlimit:1;}
	.st127{fill:#FFFFFF;stroke:#828282;stroke-width:0.1864;stroke-linecap:round;stroke-miterlimit:1;}
	.st128{fill:#828282;stroke:#424242;stroke-width:0.5;stroke-miterlimit:1;}
	.st129{fill:none;stroke:#828282;stroke-width:0.1864;stroke-linecap:round;stroke-miterlimit:1;}
	.st130{fill:none;stroke:#1C1C1C;stroke-width:0.1864;stroke-linecap:round;stroke-miterlimit:1;}
	.st131{fill:none;stroke:#828282;stroke-width:0.75;stroke-linecap:round;stroke-miterlimit:1;}
	.st132{fill:none;stroke:#292929;stroke-width:0.75;stroke-linecap:round;stroke-miterlimit:1;}
	.st133{fill:#363636;}
	.st134{fill:none;stroke:#3D3D3D;stroke-width:0.1864;stroke-linecap:round;stroke-miterlimit:1;}
	.st135{fill:none;stroke:#BDBDBD;stroke-width:0.75;stroke-miterlimit:10;}
	.st136{opacity:0.27;fill:#E8E8E8;}
	.st137{fill:none;stroke:#003DA6;stroke-width:0.1794;stroke-miterlimit:10;}
	.st138{clip-path:url(#SVGID_00000136388778365275219740000009287355597334698940_);}
	.st139{fill:#1F1F1F;}
	.st140{clip-path:url(#SVGID_00000183206830225882105360000012918870355287688332_);}
	.st141{clip-path:url(#SVGID_00000169557123291750199060000001709618178825281675_);}
	.st142{clip-path:url(#SVGID_00000161626354142665356120000006221674550108953475_);}
	.st143{clip-path:url(#SVGID_00000124872871630388002690000008857922067469069748_);}
	.st144{fill:url(#SVGID_00000129920587365182818450000006717190252370175908_);}
	.st145{fill:#C0E3EA;}
	.st146{fill:#27745C;}
	.st147{fill:#4D4D4D;}
	.st148{clip-path:url(#SVGID_00000133503882291846176430000009137714746844512418_);}
	.st149{fill:none;stroke:#4DABCB;stroke-width:2;stroke-miterlimit:10;}
	.st150{fill:none;stroke:#27745C;stroke-width:3;stroke-miterlimit:10;}
	.st151{fill:url(#SVGID_00000140013305526001838870000017308459488390875055_);}
	.st152{fill:url(#SVGID_00000039117935895266844580000002342740171119409049_);}
	.st153{fill:#706F6F;}
	.st154{fill:none;}
	.st155{fill:url(#SVGID_00000132808248952707979520000006332341897231529621_);}
	.st156{fill:none;stroke:#4DABCB;stroke-width:2;stroke-linecap:round;stroke-miterlimit:10;}
	.st157{fill:url(#SVGID_00000134247296951424632090000004686327089502281363_);}
	.st158{clip-path:url(#SVGID_00000026852907937891798210000016010209672919310003_);}
	.st159{opacity:0.35;fill:#1C3F81;}
	.st160{clip-path:url(#SVGID_00000168109140629847240820000001764475299034935944_);}
	.st161{clip-path:url(#SVGID_00000062890461544326911360000015436669010070385598_);}
	.st162{opacity:0.29;fill:#4C1608;}
	.st163{clip-path:url(#SVGID_00000156562373006849261600000004111035506476192143_);}
	.st164{opacity:0.29;fill:#054096;}
	.st165{clip-path:url(#SVGID_00000183244223715037661440000004593035471401248139_);}
	.st166{clip-path:url(#SVGID_00000003796845994667493280000014637918400838209201_);}
	.st167{opacity:0.23;fill:#95A71A;}
	.st168{fill:#799B1C;}
	.st169{opacity:0.5;fill:url(#SVGID_00000047039155975645767160000008007391368494209971_);}
	
		.st170{clip-path:url(#SVGID_00000079469062586738250340000005450999956443206289_);fill:url(#SVGID_00000143607281754753854830000014369532219201254308_);}
	
		.st171{clip-path:url(#SVGID_00000055678509367706393900000003604833927887570339_);fill:url(#SVGID_00000106109683950205239800000001971597993962907301_);}
	.st172{clip-path:url(#SVGID_00000109739106463683325600000015943058039275026866_);}
	.st173{clip-path:url(#SVGID_00000160875479205303471720000017118530821732384408_);}
	.st174{opacity:0.57;fill:#BADDE9;}
	.st175{opacity:0.54;fill:#1C3F81;}
	.st176{clip-path:url(#SVGID_00000086677205043986705420000012453502985881185446_);}
	.st177{clip-path:url(#SVGID_00000060746059830582389160000003892870086483941766_);}
	.st178{fill:url(#SVGID_00000099623874063015547890000011867419053445470639_);}
	.st179{fill:url(#SVGID_00000151507200014551936040000015138736458184472503_);}
	.st180{clip-path:url(#SVGID_00000011733194302445760370000005170603630868884878_);}
	.st181{clip-path:url(#SVGID_00000080199402347223139030000011969619228190930062_);}
	.st182{fill:none;stroke:#FFFFFF;stroke-width:0.75;stroke-miterlimit:10;}
	.st183{fill:none;stroke:#FFFFFF;stroke-width:0.7503;stroke-miterlimit:10;}
	.st184{clip-path:url(#SVGID_00000117657276370847968380000007356179548247637433_);fill:#FFFFFF;}
	.st185{fill:none;stroke:#2276BB;stroke-width:0.1;stroke-miterlimit:10;}
	.st186{fill:none;stroke:#FFFFFF;stroke-width:0.5;stroke-miterlimit:10;}
	.st187{clip-path:url(#SVGID_00000107568816868309719170000015069972731949410977_);fill:#FFFFFF;}
	.st188{clip-path:url(#SVGID_00000006695200291276639950000010979126039270472858_);fill:#FFFFFF;}
	.st189{clip-path:url(#SVGID_00000013192882032546070840000006541863368487405976_);fill:#FFFFFF;}
	.st190{fill:url(#SVGID_00000097479860441988583470000004043091845019911056_);}
	.st191{fill:none;stroke:#003DA6;stroke-width:0.2543;stroke-linecap:round;stroke-miterlimit:10;}
	.st192{fill:#BEE2E9;}
	.st193{fill:#7FA6E5;}
	.st194{opacity:0.97;fill:#71D4FF;}
</style>
<g id="iconos-fondo">
</g>
<g id="footer">
</g>
<g id="fondo">
</g>
<g id="detacado-foto">
</g>
<g id="bloque_1-A">
</g>
<g id="bloque_1_B">
</g>
<g id="destacado" class="st59">
</g>
<g id="destacado-hidro" class="st59">
</g>
<g id="destacado-camion">
</g>
<g id="cont">
</g>
<g id="EMPRESA">
</g>
<g id="SERVICIOS-terminal">
	<g>
		<g>
			<path class="st126" d="M38.66,13.47l-0.77,0c-0.22,0-0.4,0.18-0.4,0.4v8.23c0,0.22,0.18,0.4,0.4,0.4h0.77
				c0.22,0,0.4-0.18,0.4-0.4v-8.23C39.06,13.65,38.88,13.47,38.66,13.47z"/>
			<path class="st127" d="M38.16,22.04v-8.11c0-0.25,0.2-0.45,0.45-0.45c0,0-0.01,0-0.01,0h-0.66c-0.25,0-0.46,0.2-0.46,0.46v8.11
				c0,0.25,0.2,0.46,0.46,0.46h0.66c0,0,0.01,0,0.01,0C38.36,22.48,38.16,22.28,38.16,22.04z"/>
			<path class="st128" d="M44.62,16.6H32.05c-0.37,0-0.66-0.3-0.66-0.66v-1.29c0-0.37,0.3-0.66,0.66-0.66l12.57,0
				c0.37,0,0.66,0.3,0.66,0.66v1.29C45.29,16.3,44.99,16.6,44.62,16.6z"/>
			<path class="st127" d="M43.98,15.33H32.33c-0.28,0-0.51-0.23-0.51-0.51l0,0c0-0.28,0.23-0.51,0.51-0.51h11.65
				c0.28,0,0.51,0.23,0.51,0.51l0,0C44.49,15.1,44.26,15.33,43.98,15.33z"/>
		</g>
		<path class="st129" d="M23.64,74.72h-2.28v-30.6c0-1.94,1.58-3.52,3.52-3.52h14.81v2.28H24.88c-0.68,0-1.24,0.55-1.24,1.24V74.72z
			"/>
		<g>
			<path class="st130" d="M49.72,74.72h-2.28V43.94c0-0.58-0.48-1.06-1.06-1.06H36.34V30.36h2.28V40.6h7.75
				c1.84,0,3.34,1.5,3.34,3.34V74.72z"/>
			<path class="st130" d="M38.83,42.07c-0.94,0-1.7-0.76-1.7-1.7v-5.29c0-0.28,0.18-0.52,0.44-0.61l1.05-0.35h-2.28v6.48h-0.01l0,0
				c0,0.81-0.66,1.47-1.47,1.47H24.59c-1.08,0-1.95,0.87-1.95,1.95v30.7h1v-30.6c0-0.68,0.55-1.24,1.24-1.24h11.46h3.34h6.69
				c0.58,0,1.06,0.47,1.06,1.06v30.78h0.71V43.78c0-0.95-0.77-1.71-1.71-1.71H38.83z"/>
		</g>
		<g>
			<path class="st131" d="M31.38,74.72h-6.09V60.69c0-5.07,4.12-9.19,9.19-9.19h19.16c1.71,0,3.1-1.39,3.1-3.1V36.13
				c0-1.71-1.39-3.1-3.1-3.1H22.69c-1.71,0-3.1,1.39-3.1,3.1v38.6h-6.09v-38.6c0-5.07,4.12-9.19,9.19-9.19h30.96
				c5.07,0,9.19,4.12,9.19,9.19V48.4c0,5.07-4.12,9.19-9.19,9.19H34.48c-1.71,0-3.1,1.39-3.1,3.1V74.72z"/>
			<path class="st131" d="M22.69,33.03h30.96c1.71,0,3.1,1.39,3.1,3.1V48.4c0,1.71-1.39,3.1-3.1,3.1h-1.59l0.1,1.65l1.96-0.1
				c2.79-0.14,4.98-2.44,4.98-5.24V35.69c0-2.94-2.39-5.33-5.33-5.33H22.64c-3.36,0-6.09,2.73-6.09,6.09v38.27l3.04,0v-38.6
				C19.59,34.42,20.97,33.03,22.69,33.03z"/>
			<path class="st131" d="M34.48,57.6h17.66l0.38-3.01H34.66c-3.43,0-6.21,2.78-6.21,6.21v13.93h2.94V60.69
				C31.38,58.98,32.77,57.6,34.48,57.6z"/>
		</g>
		<g>
			<path class="st127" d="M52.56,56.48h-3.38c0.01-0.13,0.02-0.27,0.02-0.42c0-2.63-2.13-4.76-4.76-4.76s-4.76,2.13-4.76,4.76
				c0,0.15,0.01,0.29,0.02,0.42h-2.59c-0.92,0-1.67-0.75-1.67-1.67v2.24c0,0.92,0.75,1.67,1.67,1.67h15.44
				c0.92,0,1.67-0.75,1.67-1.67V54.8C54.23,55.72,53.48,56.48,52.56,56.48z"/>
		</g>
		<path class="st132" d="M44.84,47.63c-3.84,0-6.95,3.11-6.95,6.95c0,3.84,3.11,6.95,6.95,6.95s6.95-3.11,6.95-6.95
			C51.79,50.74,48.68,47.63,44.84,47.63z M48.72,53.95h-2.44c-0.15-0.29-0.39-0.53-0.68-0.68v-2.52c0-0.39,0.39-0.69,0.76-0.56
			c1.39,0.48,2.49,1.61,2.93,3.02C49.4,53.57,49.11,53.95,48.72,53.95z M44.08,50.74v2.52c-0.29,0.15-0.53,0.39-0.69,0.68h-2.44
			c-0.39,0-0.68-0.37-0.57-0.75c0.44-1.41,1.53-2.54,2.93-3.02C43.69,50.05,44.08,50.34,44.08,50.74z M41.04,55.47h2.35
			c0.15,0.29,0.39,0.53,0.69,0.69v2.27c0,0.4-0.39,0.69-0.77,0.56c-1.29-0.45-2.33-1.45-2.82-2.73
			C40.34,55.88,40.64,55.47,41.04,55.47z M45.6,58.42v-2.27c0.29-0.15,0.53-0.39,0.69-0.69h2.35c0.41,0,0.7,0.41,0.55,0.79
			c-0.49,1.27-1.53,2.28-2.82,2.73C45.99,59.11,45.6,58.82,45.6,58.42z"/>
		<rect x="8.51" y="74.72" class="st133" width="57.24" height="3.81"/>
		<g class="st82">
			<path class="st128" d="M44.85,34.11H31.47c-0.96,0-1.75-0.79-1.75-1.75V27.6c0-0.96,0.79-1.75,1.75-1.75h13.38
				c0.96,0,1.75,0.79,1.75,1.75v4.76C46.6,33.33,45.82,34.11,44.85,34.11z"/>
			<path class="st128" d="M45.02,32.35H31.31c-0.87,0-1.59-0.71-1.59-1.59v1.76c0,0.87,0.71,1.59,1.59,1.59h13.71
				c0.87,0,1.59-0.71,1.59-1.59v-1.76C46.6,31.64,45.89,32.35,45.02,32.35z"/>
			<path class="st128" d="M45.12,28.29H31.36c-0.49,0-0.88-0.4-0.88-0.88l0,0c0-0.49,0.4-0.88,0.88-0.88h13.76
				c0.49,0,0.88,0.4,0.88,0.88l0,0C46.01,27.9,45.61,28.29,45.12,28.29z"/>
		</g>
		<g>
			<rect x="32.31" y="23.61" class="st129" width="11.71" height="2.23"/>
			<path class="st129" d="M32.31,23.61l0.54,0.76c0.33,0.47,0.87,0.74,1.44,0.74h9.73v0.72H32.31V23.61z"/>
		</g>
		<g>
			<rect x="34.76" y="20.43" class="st134" width="6.81" height="3.19"/>
			<path class="st134" d="M34.76,20.43l1.23,1.54c0.41,0.51,1.02,0.8,1.67,0.8h3.91v0.84h-6.81V20.43z"/>
		</g>
		<g>
			<path class="st127" d="M44.84,48.87c3.63,0,6.6,2.78,6.92,6.33c0.02-0.2,0.03-0.41,0.03-0.62c0-3.84-3.11-6.95-6.95-6.95
				s-6.95,3.11-6.95,6.95c0,0.21,0.01,0.41,0.03,0.62C38.23,51.65,41.21,48.87,44.84,48.87z"/>
		</g>
		<path class="st129" d="M45.98,54.44c0,0.63-0.51,1.14-1.14,1.14c-0.63,0-1.14-0.51-1.14-1.14c0-0.63,0.51-1.14,1.14-1.14
			C45.47,53.3,45.98,53.81,45.98,54.44z"/>
	</g>
</g>
<g id="SERVICIO-lab">
</g>
<g id="SERV-transp-terrestre">
</g>
<g id="SERV-opera-solidos">
</g>
<g id="COMEX">
</g>
<g id="CONTACTO">
</g>
<g id="COMPROMISO">
</g>
<g id="Capa_19" class="st59">
</g>
<g id="TERMINAL">
</g>
<g id="servicios3">
</g>
<g id="servicios2">
</g>
<g id="servicios1">
</g>
<g id="Capa_10">
</g>
<g id="solapa-servicio">
</g>
<g id="top">
</g>
<g id="esqueletoi">
</g>
<g id="guias">
</g>
</svg>
