<?xml version="1.0" encoding="utf-8"?>
<!-- Generator: Adobe Illustrator 27.9.0, SVG Export Plug-In . SVG Version: 6.00 Build 0)  -->
<svg version="1.1" xmlns="http://www.w3.org/2000/svg" xmlns:xlink="http://www.w3.org/1999/xlink" x="0px" y="0px"
	 viewBox="0 0 311.85 107.29" style="enable-background:new 0 0 311.85 107.29;" xml:space="preserve">
<style type="text/css">
	.st0{fill:#8F8F8F;}
	.st1{fill:#6E6E6E;}
	.st2{fill:#FFFFFF;}
	.st3{clip-path:url(#SVGID_00000142148619663607070800000017332092904132006325_);}
	.st4{fill:#878787;}
	.st5{fill:#4C4C4A;}
	.st6{fill:#858658;}
	.st7{fill:#1BB09D;}
	.st8{fill:#4CABCB;}
	.st9{fill:#737373;}
	.st10{fill:#4FA98B;}
	.st11{fill:#2276BB;}
	.st12{fill:none;stroke:#FFFFFF;stroke-width:0.25;stroke-miterlimit:10;}
	.st13{clip-path:url(#SVGID_00000066514698120908043520000001741901130840469945_);}
	.st14{clip-path:url(#SVGID_00000155145526419064836310000000840016773922635156_);}
	.st15{clip-path:url(#SVGID_00000057116616214858424790000001579396876837336499_);}
	.st16{clip-path:url(#SVGID_00000161594899820976539040000007768635189870219178_);}
	.st17{clip-path:url(#SVGID_00000009585058427072686670000001949232155846009517_);}
	.st18{clip-path:url(#SVGID_00000023985108333982378930000012698941550063903880_);}
	.st19{clip-path:url(#SVGID_00000152945438362200792380000005825585077746190998_);}
	.st20{clip-path:url(#SVGID_00000021102387437124943590000015641497087226765219_);}
	.st21{clip-path:url(#SVGID_00000128458709854641717070000018062712829781135539_);}
	
		.st22{clip-path:url(#SVGID_00000089532070866859883790000018212370515016293787_);fill:url(#SVGID_00000100361638798704689700000014656749887478695821_);}
	.st23{fill:#003DA6;stroke:#003DA6;stroke-width:0.25;stroke-miterlimit:10;}
	.st24{fill:none;stroke:#003DA6;stroke-width:0.3;stroke-miterlimit:10;}
	.st25{fill:#FFFFFF;stroke:#ABABAB;stroke-width:0.3093;stroke-miterlimit:10;}
	.st26{fill:none;stroke:#003DA6;stroke-width:0.5024;stroke-miterlimit:10;}
	.st27{fill:#FFFFFF;stroke:#003DA6;stroke-width:0.3467;stroke-miterlimit:10;}
	.st28{opacity:0.5;fill:url(#SVGID_00000163049701907648285310000004530559406284454021_);}
	.st29{fill:url(#SVGID_00000124131807462924681450000012251688126802221455_);}
	.st30{fill:#E4F4F9;}
	.st31{fill:#003DA6;}
	.st32{fill:#003DA6;stroke:#FFFFFF;stroke-width:0.2257;stroke-miterlimit:10;}
	.st33{fill:#FFFFFF;stroke:#003DA6;stroke-width:0.2257;stroke-miterlimit:10;}
	.st34{fill:#FFFFFF;stroke:#ABABAB;stroke-width:0.3504;stroke-miterlimit:10;}
	.st35{fill-rule:evenodd;clip-rule:evenodd;fill:#FFFFFF;stroke:#ABABAB;stroke-width:0.4053;stroke-miterlimit:10;}
	.st36{fill:#FFFFFF;stroke:#ABABAB;stroke-width:0.4053;stroke-miterlimit:10;}
	.st37{display:none;}
	.st38{display:inline;fill:#FFFFFF;}
	.st39{display:inline;opacity:0.7;fill:url(#SVGID_00000119815171389976469170000009899134943266319764_);}
	.st40{display:inline;opacity:0.5;fill:#4C4C4A;}
	.st41{display:inline;opacity:0.5;fill:#858658;}
	.st42{display:inline;opacity:0.5;fill:#1BB09D;}
	.st43{display:inline;opacity:0.5;fill:#4CABCB;}
	.st44{display:inline;opacity:0.5;fill:#737373;}
	.st45{display:inline;fill:#4FA98B;}
	.st46{display:inline;opacity:0.5;fill:#2276BB;}
	.st47{display:inline;}
	.st48{fill:none;stroke:#003DA6;stroke-width:0.2224;stroke-miterlimit:10;}
	.st49{display:inline;fill:#003DA6;}
	.st50{fill:#FFFFFF;stroke:#003DA6;stroke-width:0.2835;stroke-miterlimit:10;}
	.st51{fill:none;stroke:#003DA6;stroke-width:0.1864;stroke-linecap:round;stroke-miterlimit:1;}
	.st52{fill:#FFFFFF;stroke:#003DA6;stroke-width:0.1;stroke-miterlimit:10;}
	.st53{fill:none;stroke:#003DA6;stroke-width:0.2835;stroke-miterlimit:10;}
	.st54{fill:#575757;}
	.st55{clip-path:url(#SVGID_00000081640867786128995260000007920532191274189740_);}
	.st56{opacity:0.7;fill:url(#SVGID_00000049928992477511848710000005789953110034299525_);}
	.st57{opacity:0.5;fill:#4C4C4A;}
	.st58{opacity:0.5;fill:#858658;}
	.st59{opacity:0.5;fill:#1BB09D;}
	.st60{opacity:0.5;fill:#4CABCB;}
	.st61{opacity:0.5;fill:#737373;}
	.st62{opacity:0.5;fill:#2276BB;}
	.st63{fill:none;stroke:#003DA6;stroke-width:0.25;stroke-miterlimit:10;}
	.st64{fill:#1C3F81;}
	.st65{fill:none;stroke:#949494;stroke-width:0.25;stroke-miterlimit:10;}
	.st66{clip-path:url(#SVGID_00000146476077367703773680000015600470836794995131_);}
	.st67{fill:#43B6A5;}
	.st68{fill:#25745C;}
	.st69{clip-path:url(#SVGID_00000163057645047295209060000014875674065185830539_);}
	.st70{display:inline;fill:#1C3F81;}
	.st71{display:inline;fill:#4C4C4A;}
	.st72{fill:url(#SVGID_00000001646537093615606150000009214752906557654159_);}
	.st73{fill:url(#SVGID_00000065052780451095851340000002645822546108056995_);}
	.st74{fill:none;stroke:#FFFFFF;stroke-width:2;stroke-linecap:round;stroke-miterlimit:10;}
	.st75{clip-path:url(#SVGID_00000083771984691681388570000011432447571278726824_);}
	.st76{fill:#003DA6;stroke:#FFFFFF;stroke-width:0.1346;stroke-miterlimit:10;}
	.st77{fill:#141414;}
	.st78{stroke:#FFFFFF;stroke-width:0.1346;stroke-miterlimit:10;}
	.st79{clip-path:url(#SVGID_00000064350981472728311330000000332846651499738016_);}
	.st80{opacity:0.18;}
	.st81{fill:#089F91;}
	.st82{opacity:0.18;fill:#BADDE9;}
	.st83{fill:#F5F4EF;stroke:#FFFFFF;stroke-width:1.8244;stroke-miterlimit:10;}
	.st84{opacity:0.65;fill:#858658;}
	.st85{fill:#C3DFF5;}
	.st86{opacity:0.63;}
	.st87{fill:#9C9B9B;}
	.st88{fill:#A9A9A9;}
	.st89{fill:#35350B;}
	.st90{fill:none;stroke:#FFFFFF;stroke-width:0.1824;stroke-linecap:round;stroke-linejoin:round;stroke-miterlimit:10;}
	.st91{opacity:0.64;}
	.st92{fill:#F5F4EF;}
	.st93{clip-path:url(#SVGID_00000001656603884634730430000018428046254392449935_);}
	.st94{fill:#F5F4EF;stroke:#FFFFFF;stroke-width:1.2815;stroke-miterlimit:10;}
	.st95{opacity:0.65;}
	.st96{fill:none;stroke:#FFFFFF;stroke-width:0.1281;stroke-linecap:round;stroke-linejoin:round;stroke-miterlimit:10;}
	.st97{fill:#1D1D1B;}
	
		.st98{opacity:0.4;clip-path:url(#SVGID_00000114031595603376675450000005457132921894320006_);fill:url(#SVGID_00000033369172045542412800000016843181514775091107_);}
	.st99{fill:#45CFDA;}
	.st100{clip-path:url(#SVGID_00000002362701307655871550000002053854775101818242_);}
	.st101{clip-path:url(#SVGID_00000129185326363373683850000007319232117770642355_);}
	.st102{fill:#FFFFFF;stroke:#ABABAB;stroke-width:0.4901;stroke-miterlimit:10;}
	.st103{fill:url(#SVGID_00000099648690032341464990000013092579967043626649_);}
	.st104{fill-rule:evenodd;clip-rule:evenodd;fill:#FFFFFF;stroke:#ABABAB;stroke-width:0.2763;stroke-miterlimit:10;}
	.st105{fill:#FFFFFF;stroke:#ABABAB;stroke-width:0.2763;stroke-miterlimit:10;}
	.st106{fill:#0A0A0A;}
	.st107{opacity:0.5;}
	.st108{fill:#565630;}
	.st109{fill:#A2E3F4;}
	.st110{fill:#454545;}
	.st111{fill:none;stroke:#454545;stroke-width:0.5151;stroke-miterlimit:10;}
	.st112{clip-path:url(#SVGID_00000093858842330013098170000018323036055830647741_);}
	.st113{clip-path:url(#SVGID_00000173883276855104310450000004805276794989932974_);}
	.st114{fill:none;stroke:#787878;stroke-width:0.2794;stroke-miterlimit:10;}
	.st115{fill:none;stroke:#787878;stroke-width:0.2073;stroke-miterlimit:10;}
	.st116{fill:none;stroke:#A7B972;stroke-width:0.2557;stroke-miterlimit:10;}
	.st117{fill:none;stroke:#A7B972;stroke-width:0.1622;stroke-miterlimit:10;}
	
		.st118{clip-path:url(#SVGID_00000098191157993682172590000010262764689389312179_);fill:url(#SVGID_00000093164682163976421490000013479118134430379195_);}
	.st119{clip-path:url(#SVGID_00000097493803011850035830000017353883501643864252_);}
	.st120{clip-path:url(#SVGID_00000043444406415042423920000000330837823719297207_);}
	.st121{clip-path:url(#SVGID_00000168820191592828192460000004966043024970511491_);}
	.st122{clip-path:url(#SVGID_00000173865128743297526870000000768015061413595037_);}
	.st123{clip-path:url(#SVGID_00000053521243368686232790000003976753471412982971_);}
	.st124{fill:url(#SVGID_00000130606868807825407450000010880780399607684491_);}
	.st125{opacity:0.27;fill:#BADDE9;}
	.st126{clip-path:url(#SVGID_00000070812185522236043320000000632483201921679284_);}
	.st127{opacity:0.29;}
	
		.st128{clip-path:url(#SVGID_00000026879030923489401380000002026111451979678893_);fill:url(#SVGID_00000129169365995941475520000002059240997270001026_);}
	.st129{opacity:0.71;}
	.st130{clip-path:url(#SVGID_00000119837594680916502580000018307270057348936859_);}
	.st131{clip-path:url(#SVGID_00000120554835842912711430000000523261453509950349_);}
	.st132{clip-path:url(#SVGID_00000003805292837609701770000017109400380394634627_);}
	.st133{fill:none;stroke:#575757;stroke-miterlimit:10;}
	.st134{fill:none;stroke:#575757;stroke-width:0.5;stroke-miterlimit:10;}
	.st135{fill:#D1D1D1;stroke:#828282;stroke-width:0.1864;stroke-linecap:round;stroke-miterlimit:1;}
	.st136{fill:#FFFFFF;stroke:#828282;stroke-width:0.1864;stroke-linecap:round;stroke-miterlimit:1;}
	.st137{fill:#828282;stroke:#424242;stroke-width:0.5;stroke-miterlimit:1;}
	.st138{fill:none;stroke:#828282;stroke-width:0.1864;stroke-linecap:round;stroke-miterlimit:1;}
	.st139{fill:none;stroke:#1C1C1C;stroke-width:0.1864;stroke-linecap:round;stroke-miterlimit:1;}
	.st140{fill:none;stroke:#828282;stroke-width:0.75;stroke-linecap:round;stroke-miterlimit:1;}
	.st141{fill:none;stroke:#292929;stroke-width:0.75;stroke-linecap:round;stroke-miterlimit:1;}
	.st142{fill:#363636;}
	.st143{fill:none;stroke:#3D3D3D;stroke-width:0.1864;stroke-linecap:round;stroke-miterlimit:1;}
	.st144{fill:none;stroke:#BDBDBD;stroke-width:0.75;stroke-miterlimit:10;}
	.st145{opacity:0.27;fill:#E8E8E8;}
	.st146{fill:none;stroke:#003DA6;stroke-width:0.1794;stroke-miterlimit:10;}
	.st147{clip-path:url(#SVGID_00000130608508972532441890000002056470555476900768_);}
	.st148{fill:#1F1F1F;}
	.st149{clip-path:url(#SVGID_00000114786067140313711370000009907655821288091558_);}
	.st150{clip-path:url(#SVGID_00000106852130731113756140000018202114061045114022_);}
	.st151{clip-path:url(#SVGID_00000067221032479901721340000008503486194567201702_);}
	.st152{clip-path:url(#SVGID_00000170969361959482782510000013236079864159197629_);}
	.st153{fill:url(#SVGID_00000030472891669095034000000005134556021805799809_);}
	.st154{fill:#C0E3EA;}
	.st155{fill:#27745C;}
	.st156{fill:#4D4D4D;}
	.st157{clip-path:url(#SVGID_00000074439842354117112710000008839596055276592307_);}
	.st158{fill:none;stroke:#4DABCB;stroke-width:2;stroke-miterlimit:10;}
	.st159{fill:none;stroke:#27745C;stroke-width:3;stroke-miterlimit:10;}
	.st160{fill:url(#SVGID_00000052087113598165560240000007913936987579401394_);}
	.st161{fill:url(#SVGID_00000127765013739931414970000011522907966711362214_);}
	.st162{fill:#706F6F;}
	.st163{fill:none;}
	.st164{fill:url(#SVGID_00000122694084380381642830000003425685485592071552_);}
	.st165{fill:none;stroke:#4DABCB;stroke-width:2;stroke-linecap:round;stroke-miterlimit:10;}
	.st166{fill:url(#SVGID_00000146462721734553403370000016094824063896971703_);}
	.st167{clip-path:url(#SVGID_00000041260251808999224250000012085048199254619797_);}
	.st168{opacity:0.35;fill:#1C3F81;}
	.st169{clip-path:url(#SVGID_00000181791740521350912440000009153548469917591461_);}
	.st170{clip-path:url(#SVGID_00000085228410221496823730000010636437536518795905_);}
	.st171{opacity:0.29;fill:#4C1608;}
	.st172{clip-path:url(#SVGID_00000002368337261372722970000009428915086945191555_);}
	.st173{opacity:0.29;fill:#054096;}
	.st174{clip-path:url(#SVGID_00000073699395467526522120000003465472150991637891_);}
	.st175{clip-path:url(#SVGID_00000052086630271558189660000000968788483880936102_);}
	.st176{opacity:0.23;fill:#95A71A;}
	.st177{fill:#799B1C;}
	.st178{opacity:0.5;fill:url(#SVGID_00000088120077213868881440000014752648935493580728_);}
	
		.st179{clip-path:url(#SVGID_00000177475167759805801190000009860252646158520998_);fill:url(#SVGID_00000088830324225081783150000002970160707602837923_);}
	
		.st180{clip-path:url(#SVGID_00000093149367090641550410000007484441937187000471_);fill:url(#SVGID_00000180325010252324463560000002051097569853070003_);}
	.st181{clip-path:url(#SVGID_00000163031661704716593320000006883115070011333018_);}
	.st182{clip-path:url(#SVGID_00000157300872946547416320000001871019627207244677_);}
	.st183{opacity:0.57;fill:#BADDE9;}
	.st184{opacity:0.54;fill:#1C3F81;}
	.st185{clip-path:url(#SVGID_00000041264953820112438520000011551109206714633352_);}
	.st186{clip-path:url(#SVGID_00000015341591088431537710000006733635436080234382_);}
	.st187{fill:url(#SVGID_00000058567546990632580650000010754470947045326497_);}
	.st188{fill:url(#SVGID_00000127042800525319352230000008730231424630050495_);}
	.st189{clip-path:url(#SVGID_00000181781077726191123680000018325428969560392098_);}
	.st190{clip-path:url(#SVGID_00000121992289723201160620000015179487279471116725_);}
	.st191{fill:none;stroke:#FFFFFF;stroke-width:0.75;stroke-miterlimit:10;}
	.st192{fill:none;stroke:#FFFFFF;stroke-width:0.7503;stroke-miterlimit:10;}
	.st193{clip-path:url(#SVGID_00000182512204795920036450000007194021047767220882_);fill:#FFFFFF;}
	.st194{fill:none;stroke:#2276BB;stroke-width:0.1;stroke-miterlimit:10;}
	.st195{fill:none;stroke:#FFFFFF;stroke-width:0.5;stroke-miterlimit:10;}
	.st196{clip-path:url(#SVGID_00000067194855060391177450000011166577000483961737_);fill:#FFFFFF;}
	.st197{clip-path:url(#SVGID_00000083065047746520173130000003966937169588068993_);fill:#FFFFFF;}
	.st198{clip-path:url(#SVGID_00000097473884566286907820000001851041042942140035_);fill:#FFFFFF;}
	.st199{fill:url(#SVGID_00000166660740821160696120000016329093918184211382_);}
	.st200{fill:none;stroke:#003DA6;stroke-width:0.2543;stroke-linecap:round;stroke-miterlimit:10;}
	.st201{fill:#BEE2E9;}
	.st202{fill:#7FA6E5;}
	.st203{opacity:0.97;fill:#71D4FF;}
</style>
<g id="iconos-fondo">
</g>
<g id="footer">
</g>
<g id="fondo">
</g>
<g id="detacado-foto">
</g>
<g id="bloque_1-A" class="st37">
</g>
<g id="bloque_1_B">
</g>
<g id="destacado" class="st37">
</g>
<g id="destacado-hidro" class="st37">
</g>
<g id="destacado-camion">
	<g>
		<g>
			<g>
				<g>
					<circle class="st31" cx="189.2" cy="63.83" r="3.08"/>
					<circle class="st31" cx="201.21" cy="63.83" r="3.08"/>
					<circle class="st31" cx="213.22" cy="63.83" r="3.08"/>
					<circle class="st31" cx="225.22" cy="63.83" r="3.08"/>
					<circle class="st31" cx="237.23" cy="63.83" r="3.08"/>
					<circle class="st31" cx="249.24" cy="63.83" r="3.08"/>
					<circle class="st31" cx="261.25" cy="63.83" r="3.08"/>
					<circle class="st31" cx="273.26" cy="63.83" r="3.08"/>
					<circle class="st31" cx="195.2" cy="54.42" r="3.08"/>
					<circle class="st31" cx="207.21" cy="54.42" r="3.08"/>
					<circle class="st31" cx="219.22" cy="54.42" r="3.08"/>
					<circle class="st31" cx="231.23" cy="54.42" r="3.08"/>
					<circle class="st31" cx="243.24" cy="54.42" r="3.08"/>
					<circle class="st31" cx="255.25" cy="54.42" r="3.08"/>
					<circle class="st31" cx="267.25" cy="54.42" r="3.08"/>
					<circle class="st31" cx="201.21" cy="45" r="3.08"/>
					<circle class="st31" cx="213.22" cy="45" r="3.08"/>
					<circle class="st31" cx="225.22" cy="45" r="3.08"/>
					<circle class="st31" cx="237.23" cy="45" r="3.08"/>
					<circle class="st31" cx="249.24" cy="45" r="3.08"/>
					<circle class="st31" cx="261.25" cy="45" r="3.08"/>
					<circle class="st31" cx="207.21" cy="35.59" r="3.08"/>
					<circle class="st31" cx="219.22" cy="35.59" r="3.08"/>
					<circle class="st31" cx="231.23" cy="35.59" r="3.08"/>
					<circle class="st31" cx="243.24" cy="35.59" r="3.08"/>
					<circle class="st31" cx="255.25" cy="35.59" r="3.08"/>
					<circle class="st31" cx="213.22" cy="26.17" r="3.08"/>
					<circle class="st31" cx="225.22" cy="26.17" r="3.08"/>
					<circle class="st31" cx="237.23" cy="26.17" r="3.08"/>
					<circle class="st31" cx="249.24" cy="26.17" r="3.08"/>
				</g>
			</g>
			<g>
				<g>
					<path class="st31" d="M41.12,42.79c-1.98-0.04-3.95-0.81-5.46-2.29c-0.1-0.1-0.1-0.27,0-0.37l2.66-2.54
						c0.09-0.09,0.24-0.09,0.34,0c1.49,1.38,3.83,1.38,5.32-0.04l0.44-0.42c3.3-3.16,8.59-3.04,11.74,0.26l0.24,0.26
						c1.57,1.64,4.2,1.7,5.84,0.13l1.05-1.01c3.21-3.07,8.32-2.96,11.39,0.25c0.87,0.91,2.1,1.34,3.38,1.16
						c0.86-0.12,1.64-0.58,2.27-1.19l0.28-0.27c3.32-3.17,8.57-3.05,11.75,0.26l0.26,0.28c1.56,1.64,4.19,1.7,5.83,0.14l1.1-1.05
						c3.26-3.09,8.5-2.99,11.64,0.21l0.43,0.44c1.57,1.6,4.18,1.64,5.8,0.09l0.32-0.3c0.1-0.1,0.26-0.09,0.35,0.01l2.54,2.66
						c0.1,0.1,0.09,0.26-0.01,0.35l-0.32,0.3c-3.26,3.11-8.51,3.03-11.67-0.18l-0.43-0.44c-1.56-1.59-4.17-1.64-5.79-0.1l-1.1,1.05
						c-3.3,3.13-8.57,3-11.72-0.29l-0.29-0.3c-0.6-0.63-1.36-1.13-2.21-1.29c-1.27-0.24-2.52,0.14-3.43,1.01l-0.37,0.36
						c-1.39,1.33-3.17,2.27-5.09,2.44c-2.44,0.21-4.76-0.65-6.45-2.36c-1.56-1.57-4.18-1.57-5.78-0.04l-0.86,0.82
						c-3.32,3.17-8.57,3.05-11.74-0.26l-0.24-0.25c-1.57-1.64-4.2-1.7-5.84-0.13l-0.44,0.42C45.26,42.1,43.18,42.83,41.12,42.79z"/>
				</g>
				<g>
					<path class="st31" d="M41.12,30.75c-1.98-0.04-3.95-0.81-5.46-2.29c-0.1-0.1-0.1-0.27,0-0.37l2.66-2.54
						c0.09-0.09,0.24-0.09,0.34,0c1.49,1.38,3.83,1.38,5.32-0.04l0.44-0.42c3.3-3.16,8.59-3.04,11.74,0.26l0.24,0.26
						c1.57,1.64,4.2,1.7,5.84,0.13l1.05-1.01c3.21-3.07,8.32-2.96,11.39,0.25c0.87,0.91,2.1,1.34,3.38,1.16
						c0.86-0.12,1.64-0.58,2.27-1.19l0.28-0.27c3.32-3.17,8.57-3.05,11.75,0.26l0.26,0.28c1.56,1.64,4.19,1.7,5.83,0.14l1.1-1.05
						c3.26-3.09,8.5-2.99,11.64,0.21l0.43,0.44c1.57,1.6,4.18,1.64,5.8,0.09l0.32-0.3c0.1-0.1,0.26-0.09,0.35,0.01l2.54,2.66
						c0.1,0.1,0.09,0.26-0.01,0.35l-0.32,0.3c-3.26,3.11-8.51,3.03-11.67-0.18l-0.43-0.44c-1.56-1.59-4.17-1.64-5.79-0.1l-1.1,1.05
						c-3.3,3.13-8.57,3-11.72-0.29l-0.29-0.3c-0.6-0.63-1.36-1.13-2.21-1.29c-1.27-0.24-2.52,0.14-3.43,1.01l-0.37,0.36
						c-1.39,1.33-3.17,2.27-5.09,2.44c-2.44,0.21-4.76-0.65-6.45-2.36c-1.56-1.57-4.18-1.57-5.78-0.04l-0.86,0.82
						c-3.32,3.17-8.57,3.05-11.74-0.26l-0.24-0.25c-1.57-1.64-4.2-1.7-5.84-0.13l-0.44,0.42C45.26,30.06,43.18,30.79,41.12,30.75z"
						/>
				</g>
				<g>
					<path class="st31" d="M41.12,55.39c-1.98-0.04-3.95-0.81-5.46-2.29c-0.1-0.1-0.1-0.27,0-0.37l2.66-2.54
						c0.09-0.09,0.24-0.09,0.34,0c1.49,1.38,3.83,1.38,5.32-0.04l0.44-0.42c3.3-3.16,8.59-3.04,11.74,0.26l0.24,0.26
						c1.57,1.64,4.2,1.7,5.84,0.13l1.05-1.01c3.21-3.07,8.32-2.96,11.39,0.25c0.87,0.91,2.1,1.34,3.38,1.16
						c0.86-0.12,1.64-0.58,2.27-1.19l0.28-0.27c3.32-3.17,8.57-3.05,11.75,0.26l0.26,0.28c1.56,1.64,4.19,1.7,5.83,0.14l1.1-1.05
						c3.26-3.09,8.5-2.99,11.64,0.21l0.43,0.44c1.57,1.6,4.18,1.64,5.8,0.09l0.32-0.3c0.1-0.1,0.26-0.09,0.35,0.01l2.54,2.66
						c0.1,0.1,0.09,0.26-0.01,0.35l-0.32,0.3c-3.26,3.11-8.51,3.03-11.67-0.18l-0.43-0.44c-1.56-1.59-4.17-1.64-5.79-0.1l-1.1,1.05
						c-3.3,3.13-8.57,3-11.72-0.29l-0.29-0.3c-0.6-0.63-1.36-1.13-2.21-1.29c-1.27-0.24-2.52,0.14-3.43,1.01l-0.37,0.36
						c-1.39,1.33-3.17,2.27-5.09,2.44c-2.44,0.21-4.76-0.65-6.45-2.36c-1.56-1.57-4.18-1.57-5.78-0.04l-0.86,0.82
						c-3.32,3.17-8.57,3.05-11.74-0.26l-0.24-0.25c-1.57-1.64-4.2-1.7-5.84-0.13l-0.44,0.42C45.26,54.7,43.18,55.44,41.12,55.39z"/>
				</g>
				<g>
					<path class="st31" d="M41.12,67.23c-1.98-0.04-3.95-0.81-5.46-2.29c-0.1-0.1-0.1-0.27,0-0.37l2.66-2.54
						c0.09-0.09,0.24-0.09,0.34,0c1.49,1.38,3.83,1.38,5.32-0.04l0.44-0.42c3.3-3.16,8.59-3.04,11.74,0.26l0.24,0.26
						c1.57,1.64,4.2,1.7,5.84,0.13l1.05-1.01c3.21-3.07,8.32-2.96,11.39,0.25c0.87,0.91,2.1,1.34,3.38,1.16
						c0.86-0.12,1.64-0.58,2.27-1.19l0.28-0.27c3.32-3.17,8.57-3.05,11.75,0.26l0.26,0.28c1.56,1.64,4.19,1.7,5.83,0.14l1.1-1.05
						c3.26-3.09,8.5-2.99,11.64,0.21l0.43,0.44c1.57,1.6,4.18,1.64,5.8,0.09l0.32-0.3c0.1-0.1,0.26-0.09,0.35,0.01l2.54,2.66
						c0.1,0.1,0.09,0.26-0.01,0.35l-0.32,0.3c-3.26,3.11-8.51,3.03-11.67-0.18l-0.43-0.44c-1.56-1.59-4.17-1.64-5.79-0.1l-1.1,1.05
						c-3.3,3.13-8.57,3-11.72-0.29l-0.29-0.3c-0.6-0.63-1.36-1.13-2.21-1.29c-1.27-0.24-2.52,0.14-3.43,1.01l-0.37,0.36
						c-1.39,1.33-3.17,2.27-5.09,2.44c-2.44,0.21-4.76-0.65-6.45-2.36c-1.56-1.57-4.18-1.57-5.78-0.04l-0.86,0.82
						c-3.32,3.17-8.57,3.05-11.74-0.26l-0.24-0.25c-1.57-1.64-4.2-1.7-5.84-0.13L46.87,65C45.26,66.53,43.18,67.27,41.12,67.23z"/>
				</g>
			</g>
			<line class="st63" x1="2.88" y1="3.8" x2="2.88" y2="103.35"/>
			<line class="st63" x1="309.04" y1="3.8" x2="309.04" y2="103.35"/>
			<line class="st63" x1="153.42" y1="3.8" x2="153.42" y2="103.35"/>
		</g>
		<g>
			<path class="st31" d="M36.79,89.46h0.96v7.61h4.78v0.89h-5.74V89.46z"/>
			<path class="st31" d="M46.56,89.46h0.96v8.49h-0.96V89.46z M47.87,87.15l0.96,0.44l-1.4,1.13h-0.78L47.87,87.15z"/>
			<path class="st31" d="M58.81,97.19c-0.72,0.57-1.63,0.91-2.68,0.91c-2.58,0-4.32-2.03-4.32-4.37v-0.02
				c0-2.34,1.76-4.39,4.34-4.39c2.58,0,4.32,2.03,4.32,4.37v0.02c0,1.07-0.36,2.07-1.02,2.85l1.13,0.93l-0.66,0.72L58.81,97.19z
				 M58.11,96.57l-1.58-1.35l0.64-0.72l1.56,1.42c0.46-0.59,0.74-1.36,0.74-2.2v-0.02c0-1.93-1.41-3.51-3.35-3.51
				s-3.32,1.55-3.32,3.48v0.02c0,1.93,1.41,3.51,3.35,3.51C56.91,97.22,57.58,96.97,58.11,96.57z"/>
			<path class="st31" d="M64.54,94.4v-4.94h0.96v4.88c0,1.83,0.97,2.86,2.6,2.86c1.56,0,2.56-0.95,2.56-2.8v-4.94h0.96v4.86
				c0,2.47-1.42,3.76-3.54,3.76C65.97,98.09,64.54,96.8,64.54,94.4z"/>
			<path class="st31" d="M76.15,89.46h0.96v8.49h-0.96V89.46z"/>
			<path class="st31" d="M81.78,89.46h2.95c2.67,0,4.51,1.83,4.51,4.22v0.02c0,2.39-1.84,4.25-4.51,4.25h-2.95V89.46z M84.72,97.07
				c2.15,0,3.52-1.46,3.52-3.34v-0.02c0-1.88-1.37-3.36-3.52-3.36h-1.99v6.72H84.72z"/>
			<path class="st31" d="M93.07,93.73v-0.02c0-2.34,1.76-4.39,4.34-4.39c2.58,0,4.32,2.03,4.32,4.37v0.02
				c0,2.34-1.76,4.39-4.34,4.39C94.8,98.1,93.07,96.08,93.07,93.73z M100.73,93.73v-0.02c0-1.93-1.41-3.51-3.35-3.51
				s-3.32,1.55-3.32,3.48v0.02c0,1.93,1.41,3.51,3.35,3.51S100.73,95.66,100.73,93.73z"/>
			<path class="st31" d="M105.31,96.72l0.59-0.7c0.89,0.8,1.73,1.2,2.91,1.2c1.14,0,1.89-0.61,1.89-1.44v-0.02
				c0-0.79-0.42-1.24-2.21-1.61c-1.95-0.42-2.85-1.06-2.85-2.45v-0.02c0-1.33,1.18-2.32,2.79-2.32c1.24,0,2.12,0.35,2.98,1.04
				l-0.56,0.74c-0.79-0.64-1.58-0.92-2.45-0.92c-1.1,0-1.81,0.61-1.81,1.37v0.02c0,0.8,0.44,1.25,2.3,1.65
				c1.89,0.41,2.77,1.1,2.77,2.4v0.02c0,1.46-1.21,2.4-2.9,2.4C107.44,98.08,106.33,97.63,105.31,96.72z"/>
		</g>
		<g>
			<path class="st31" d="M196.97,96.72l0.59-0.7c0.89,0.8,1.73,1.2,2.91,1.2c1.14,0,1.89-0.61,1.89-1.44v-0.02
				c0-0.79-0.42-1.24-2.21-1.61c-1.95-0.42-2.85-1.06-2.85-2.45v-0.02c0-1.33,1.18-2.32,2.79-2.32c1.24,0,2.12,0.35,2.98,1.04
				l-0.56,0.74c-0.79-0.64-1.58-0.92-2.45-0.92c-1.1,0-1.81,0.61-1.81,1.37v0.02c0,0.8,0.44,1.25,2.3,1.65
				c1.89,0.41,2.77,1.1,2.77,2.4v0.02c0,1.46-1.21,2.4-2.9,2.4C199.09,98.08,197.99,97.63,196.97,96.72z"/>
			<path class="st31" d="M207.09,93.73v-0.02c0-2.34,1.76-4.39,4.34-4.39c2.58,0,4.32,2.03,4.32,4.37v0.02
				c0,2.34-1.76,4.39-4.34,4.39C208.83,98.1,207.09,96.08,207.09,93.73z M214.76,93.73v-0.02c0-1.93-1.41-3.51-3.35-3.51
				s-3.32,1.55-3.32,3.48v0.02c0,1.93,1.41,3.51,3.35,3.51S214.76,95.66,214.76,93.73z M212.25,87.03l0.96,0.44l-1.4,1.13h-0.78
				L212.25,87.03z"/>
			<path class="st31" d="M219.96,89.46h0.96v7.61h4.78v0.89h-5.74V89.46z"/>
			<path class="st31" d="M229.73,89.46h0.96v8.49h-0.96V89.46z"/>
			<path class="st31" d="M235.36,89.46h2.95c2.67,0,4.51,1.83,4.51,4.22v0.02c0,2.39-1.84,4.25-4.51,4.25h-2.95V89.46z
				 M238.31,97.07c2.15,0,3.52-1.46,3.52-3.34v-0.02c0-1.88-1.37-3.36-3.52-3.36h-1.99v6.72H238.31z"/>
			<path class="st31" d="M246.65,93.73v-0.02c0-2.34,1.76-4.39,4.34-4.39c2.58,0,4.32,2.03,4.32,4.37v0.02
				c0,2.34-1.76,4.39-4.34,4.39C248.39,98.1,246.65,96.08,246.65,93.73z M254.32,93.73v-0.02c0-1.93-1.41-3.51-3.35-3.51
				s-3.32,1.55-3.32,3.48v0.02c0,1.93,1.41,3.51,3.35,3.51S254.32,95.66,254.32,93.73z"/>
			<path class="st31" d="M258.9,96.72l0.59-0.7c0.89,0.8,1.73,1.2,2.91,1.2c1.14,0,1.89-0.61,1.89-1.44v-0.02
				c0-0.79-0.42-1.24-2.21-1.61c-1.95-0.42-2.85-1.06-2.85-2.45v-0.02c0-1.33,1.18-2.32,2.79-2.32c1.24,0,2.12,0.35,2.98,1.04
				l-0.56,0.74c-0.79-0.64-1.58-0.92-2.45-0.92c-1.1,0-1.81,0.61-1.81,1.37v0.02c0,0.8,0.44,1.25,2.3,1.65
				c1.89,0.41,2.77,1.1,2.77,2.4v0.02c0,1.46-1.21,2.4-2.9,2.4C261.02,98.08,259.92,97.63,258.9,96.72z"/>
		</g>
	</g>
</g>
<g id="cont">
</g>
<g id="EMPRESA">
</g>
<g id="SERVICIOS-terminal">
</g>
<g id="SERVICIO-lab">
</g>
<g id="SERV-transp-terrestre">
</g>
<g id="SERV-opera-solidos">
</g>
<g id="COMEX">
</g>
<g id="CONTACTO">
</g>
<g id="COMPROMISO">
</g>
<g id="Capa_19" class="st37">
</g>
<g id="TERMINAL">
</g>
<g id="servicios3">
</g>
<g id="servicios2">
</g>
<g id="servicios1">
</g>
<g id="Capa_10">
</g>
<g id="solapa-servicio">
</g>
<g id="top">
</g>
<g id="esqueletoi">
</g>
<g id="guias">
</g>
</svg>
