<?xml version="1.0" encoding="utf-8"?>
<!-- Generator: Adobe Illustrator 27.9.0, SVG Export Plug-In . SVG Version: 6.00 Build 0)  -->
<svg version="1.1" xmlns="http://www.w3.org/2000/svg" xmlns:xlink="http://www.w3.org/1999/xlink" x="0px" y="0px"
	 viewBox="0 0 152.98 95.56" style="enable-background:new 0 0 152.98 95.56;" xml:space="preserve">
<style type="text/css">
	.st0{fill:#8F8F8F;}
	.st1{fill:#6E6E6E;}
	.st2{fill:#FFFFFF;}
	.st3{clip-path:url(#SVGID_00000113346819127936050270000003753363110005213609_);}
	.st4{fill:#878787;}
	.st5{fill:#4C4C4A;}
	.st6{fill:#858658;}
	.st7{fill:#1BB09D;}
	.st8{fill:#4CABCB;}
	.st9{fill:#737373;}
	.st10{fill:#4FA98B;}
	.st11{fill:#2276BB;}
	.st12{fill:none;stroke:#FFFFFF;stroke-width:0.25;stroke-miterlimit:10;}
	.st13{clip-path:url(#SVGID_00000139985986679672197520000003196495710631923130_);}
	.st14{clip-path:url(#SVGID_00000156580544326975137220000003530875063205301147_);}
	.st15{clip-path:url(#SVGID_00000165202640720584900590000008739440208627371906_);}
	.st16{clip-path:url(#SVGID_00000160878630153454775890000001296225214980013742_);}
	.st17{clip-path:url(#SVGID_00000011727940297108526950000005241549095555428263_);}
	.st18{clip-path:url(#SVGID_00000055678372702979665890000009610720326164787090_);}
	.st19{clip-path:url(#SVGID_00000018930107872275824800000010811452890244845247_);}
	.st20{clip-path:url(#SVGID_00000037672598711578258220000011768926816012736944_);}
	.st21{clip-path:url(#SVGID_00000019677866154676365840000014822006939935077798_);}
	
		.st22{clip-path:url(#SVGID_00000165232358112574707450000009368070209954007736_);fill:url(#SVGID_00000002354566508141287630000004538612102227199137_);}
	.st23{fill:#003DA6;stroke:#003DA6;stroke-width:0.25;stroke-miterlimit:10;}
	.st24{fill:none;stroke:#003DA6;stroke-width:0.3;stroke-miterlimit:10;}
	.st25{fill:#FFFFFF;stroke:#ABABAB;stroke-width:0.3093;stroke-miterlimit:10;}
	.st26{fill:none;stroke:#003DA6;stroke-width:0.5024;stroke-miterlimit:10;}
	.st27{fill:#FFFFFF;stroke:#003DA6;stroke-width:0.3467;stroke-miterlimit:10;}
	.st28{opacity:0.5;fill:url(#SVGID_00000000929067184327725560000015226409501714615473_);}
	.st29{fill:url(#SVGID_00000072262012012729251140000001032996789896226217_);}
	.st30{fill:#E4F4F9;}
	.st31{fill:#003DA6;}
	.st32{fill:#003DA6;stroke:#FFFFFF;stroke-width:0.2257;stroke-miterlimit:10;}
	.st33{fill:#FFFFFF;stroke:#003DA6;stroke-width:0.2257;stroke-miterlimit:10;}
	.st34{fill:#FFFFFF;stroke:#ABABAB;stroke-width:0.3504;stroke-miterlimit:10;}
	.st35{fill-rule:evenodd;clip-rule:evenodd;fill:#FFFFFF;stroke:#ABABAB;stroke-width:0.4053;stroke-miterlimit:10;}
	.st36{fill:#FFFFFF;stroke:#ABABAB;stroke-width:0.4053;stroke-miterlimit:10;}
	.st37{opacity:0.7;fill:url(#SVGID_00000140721904205169911190000003008102351101407362_);}
	.st38{opacity:0.5;fill:#4C4C4A;}
	.st39{opacity:0.5;fill:#858658;}
	.st40{opacity:0.5;fill:#1BB09D;}
	.st41{opacity:0.5;fill:#4CABCB;}
	.st42{opacity:0.5;fill:#737373;}
	.st43{opacity:0.5;fill:#2276BB;}
	.st44{fill:none;stroke:#003DA6;stroke-width:0.2224;stroke-miterlimit:10;}
	.st45{fill:#FFFFFF;stroke:#003DA6;stroke-width:0.2835;stroke-miterlimit:10;}
	.st46{fill:none;stroke:#003DA6;stroke-width:0.1864;stroke-linecap:round;stroke-miterlimit:1;}
	.st47{fill:#FFFFFF;stroke:#003DA6;stroke-width:0.1;stroke-miterlimit:10;}
	.st48{fill:none;stroke:#003DA6;stroke-width:0.2835;stroke-miterlimit:10;}
	.st49{fill:#575757;}
	.st50{clip-path:url(#SVGID_00000028325937612772092430000003479554430549766282_);}
	.st51{opacity:0.7;fill:url(#SVGID_00000093144241356909016810000014038788111115290257_);}
	.st52{fill:none;stroke:#003DA6;stroke-width:0.25;stroke-miterlimit:10;}
	.st53{fill:#1C3F81;}
	.st54{fill:none;stroke:#949494;stroke-width:0.25;stroke-miterlimit:10;}
	.st55{clip-path:url(#SVGID_00000167357926570333908640000015323703957170072996_);}
	.st56{fill:#43B6A5;}
	.st57{fill:#25745C;}
	.st58{clip-path:url(#SVGID_00000105411681760667542580000016978968461873837723_);}
	.st59{fill:url(#SVGID_00000160179239367419139730000010510130130806468994_);}
	.st60{fill:url(#SVGID_00000169519341592158196300000003924679060485539456_);}
	.st61{fill:none;stroke:#FFFFFF;stroke-width:2;stroke-linecap:round;stroke-miterlimit:10;}
	.st62{clip-path:url(#SVGID_00000127747497918669462170000003982903434005603748_);}
	.st63{fill:#003DA6;stroke:#FFFFFF;stroke-width:0.1346;stroke-miterlimit:10;}
	.st64{fill:#141414;}
	.st65{stroke:#FFFFFF;stroke-width:0.1346;stroke-miterlimit:10;}
	.st66{clip-path:url(#SVGID_00000074443921238956572690000013484547159753954189_);}
	.st67{opacity:0.18;}
	.st68{fill:#089F91;}
	.st69{opacity:0.18;fill:#BADDE9;}
	.st70{fill:#F5F4EF;stroke:#FFFFFF;stroke-width:1.8244;stroke-miterlimit:10;}
	.st71{opacity:0.65;fill:#858658;}
	.st72{fill:#C3DFF5;}
	.st73{opacity:0.63;}
	.st74{fill:#9C9B9B;}
	.st75{fill:#A9A9A9;}
	.st76{fill:#35350B;}
	.st77{fill:none;stroke:#FFFFFF;stroke-width:0.1824;stroke-linecap:round;stroke-linejoin:round;stroke-miterlimit:10;}
	.st78{opacity:0.64;}
	.st79{fill:#F5F4EF;}
	.st80{clip-path:url(#SVGID_00000137119737762141123600000010223835940938703033_);}
	.st81{fill:#F5F4EF;stroke:#FFFFFF;stroke-width:1.2815;stroke-miterlimit:10;}
	.st82{opacity:0.65;}
	.st83{fill:none;stroke:#FFFFFF;stroke-width:0.1281;stroke-linecap:round;stroke-linejoin:round;stroke-miterlimit:10;}
	.st84{fill:#1D1D1B;}
	
		.st85{opacity:0.4;clip-path:url(#SVGID_00000026146562704637241690000010910249340652698043_);fill:url(#SVGID_00000021800588656383137240000011469128235253548697_);}
	.st86{fill:#45CFDA;}
	.st87{clip-path:url(#SVGID_00000158003567654921552620000012191410304534566318_);}
	.st88{clip-path:url(#SVGID_00000024723010692068936700000003992381958783796901_);}
	.st89{fill:#FFFFFF;stroke:#ABABAB;stroke-width:0.4901;stroke-miterlimit:10;}
	.st90{fill:url(#SVGID_00000059289880755031511980000014587003087076616873_);}
	.st91{fill-rule:evenodd;clip-rule:evenodd;fill:#FFFFFF;stroke:#ABABAB;stroke-width:0.2763;stroke-miterlimit:10;}
	.st92{fill:#FFFFFF;stroke:#ABABAB;stroke-width:0.2763;stroke-miterlimit:10;}
	.st93{fill:#0A0A0A;}
	.st94{opacity:0.5;}
	.st95{fill:#565630;}
	.st96{fill:#A2E3F4;}
	.st97{fill:#454545;}
	.st98{fill:none;stroke:#454545;stroke-width:0.5151;stroke-miterlimit:10;}
	.st99{clip-path:url(#SVGID_00000113331640363770171270000006826913709420647332_);}
	.st100{clip-path:url(#SVGID_00000124133229211840355720000012729928596917287359_);}
	.st101{fill:none;stroke:#787878;stroke-width:0.2794;stroke-miterlimit:10;}
	.st102{fill:none;stroke:#787878;stroke-width:0.2073;stroke-miterlimit:10;}
	.st103{fill:none;stroke:#A7B972;stroke-width:0.2557;stroke-miterlimit:10;}
	.st104{fill:none;stroke:#A7B972;stroke-width:0.1622;stroke-miterlimit:10;}
	
		.st105{clip-path:url(#SVGID_00000062908585532545443080000012145449985212180615_);fill:url(#SVGID_00000146462536333808085500000011196761181943135420_);}
	.st106{clip-path:url(#SVGID_00000142896917758196497640000011278413239771203757_);}
	.st107{clip-path:url(#SVGID_00000171686624315572723100000001926716852194501047_);}
	.st108{clip-path:url(#SVGID_00000132046332759212001710000013657154120162295484_);}
	.st109{clip-path:url(#SVGID_00000059293814813246148350000004404330777895938443_);}
	.st110{clip-path:url(#SVGID_00000010272590180528843220000000484230104767586454_);}
	.st111{fill:url(#SVGID_00000031902750140038922030000002559917354223694468_);}
	.st112{opacity:0.27;fill:#BADDE9;}
	.st113{clip-path:url(#SVGID_00000060710610547617746330000016721922527948691900_);}
	.st114{opacity:0.29;}
	
		.st115{clip-path:url(#SVGID_00000086691978113936527200000002621551610219964335_);fill:url(#SVGID_00000093883919435643841290000004440658703275622575_);}
	.st116{opacity:0.71;}
	.st117{clip-path:url(#SVGID_00000103226400019830813410000015271423743017302152_);}
	.st118{clip-path:url(#SVGID_00000117644253173084703510000015566282527746908294_);}
	.st119{clip-path:url(#SVGID_00000180364746952400893450000017725297621275543424_);}
	.st120{fill:none;stroke:#575757;stroke-miterlimit:10;}
	.st121{fill:none;stroke:#575757;stroke-width:0.5;stroke-miterlimit:10;}
	.st122{fill:#D1D1D1;stroke:#828282;stroke-width:0.1864;stroke-linecap:round;stroke-miterlimit:1;}
	.st123{fill:#FFFFFF;stroke:#828282;stroke-width:0.1864;stroke-linecap:round;stroke-miterlimit:1;}
	.st124{fill:#828282;stroke:#424242;stroke-width:0.5;stroke-miterlimit:1;}
	.st125{fill:none;stroke:#828282;stroke-width:0.1864;stroke-linecap:round;stroke-miterlimit:1;}
	.st126{fill:none;stroke:#1C1C1C;stroke-width:0.1864;stroke-linecap:round;stroke-miterlimit:1;}
	.st127{fill:none;stroke:#828282;stroke-width:0.75;stroke-linecap:round;stroke-miterlimit:1;}
	.st128{fill:none;stroke:#292929;stroke-width:0.75;stroke-linecap:round;stroke-miterlimit:1;}
	.st129{fill:#363636;}
	.st130{fill:none;stroke:#3D3D3D;stroke-width:0.1864;stroke-linecap:round;stroke-miterlimit:1;}
	.st131{fill:none;stroke:#BDBDBD;stroke-width:0.75;stroke-miterlimit:10;}
	.st132{opacity:0.27;fill:#E8E8E8;}
	.st133{fill:none;stroke:#003DA6;stroke-width:0.1794;stroke-miterlimit:10;}
	.st134{clip-path:url(#SVGID_00000011019402862348459860000006749500722018539953_);}
	.st135{fill:#1F1F1F;}
	.st136{clip-path:url(#SVGID_00000093897792004782553350000014005231777271173003_);}
	.st137{clip-path:url(#SVGID_00000152952125530213983600000015420377901477256599_);}
	.st138{clip-path:url(#SVGID_00000079469454429599358030000016101435710203011979_);}
	.st139{clip-path:url(#SVGID_00000100380208929714478320000006385703415829615519_);}
	.st140{fill:url(#SVGID_00000145775991096203270320000003454115082951698353_);}
	.st141{fill:#C0E3EA;}
	.st142{fill:#27745C;}
	.st143{fill:#4D4D4D;}
	.st144{clip-path:url(#SVGID_00000114791914098355810930000003760891640487053712_);}
	.st145{fill:none;stroke:#4DABCB;stroke-width:2;stroke-miterlimit:10;}
	.st146{fill:none;stroke:#27745C;stroke-width:3;stroke-miterlimit:10;}
	.st147{fill:url(#SVGID_00000016074439444291045160000005562008441590368655_);}
	.st148{fill:url(#SVGID_00000005238462703105490800000016691166279359630978_);}
	.st149{fill:#706F6F;}
	.st150{fill:none;}
	.st151{fill:url(#SVGID_00000144303694069307912780000017920265972706923692_);}
	.st152{fill:none;stroke:#4DABCB;stroke-width:2;stroke-linecap:round;stroke-miterlimit:10;}
	.st153{fill:url(#SVGID_00000141456569638630135390000000539769872687372729_);}
	.st154{clip-path:url(#SVGID_00000155868200129273268720000017277290122976961209_);}
	.st155{opacity:0.35;fill:#1C3F81;}
	.st156{clip-path:url(#SVGID_00000168826018390315837750000006497993122355061388_);}
	.st157{clip-path:url(#SVGID_00000183217250474448291060000011060965175962887611_);}
	.st158{opacity:0.29;fill:#4C1608;}
	.st159{clip-path:url(#SVGID_00000115496879363778603530000002406953349320011942_);}
	.st160{opacity:0.29;fill:#054096;}
	.st161{clip-path:url(#SVGID_00000182524977501184742530000003132295652851241608_);}
	.st162{clip-path:url(#SVGID_00000113347773109792502140000016151997122818256053_);}
	.st163{opacity:0.23;fill:#95A71A;}
	.st164{fill:#799B1C;}
	.st165{opacity:0.5;fill:url(#SVGID_00000037673380839109482180000018096868795668810881_);}
	
		.st166{clip-path:url(#SVGID_00000089562658872645616900000008429468876937133500_);fill:url(#SVGID_00000075133583242428417100000009592070292187918777_);}
	
		.st167{clip-path:url(#SVGID_00000143575822770884851480000007989454051524740282_);fill:url(#SVGID_00000032651060211302849460000012727944227740814251_);}
	.st168{display:none;}
	.st169{clip-path:url(#SVGID_00000076603446208557081060000011428048040273925273_);}
	.st170{clip-path:url(#SVGID_00000128471662584816472890000013485333494111302845_);}
	.st171{opacity:0.57;fill:#BADDE9;}
	.st172{opacity:0.54;fill:#1C3F81;}
	.st173{clip-path:url(#SVGID_00000039113399389499206210000000971213631533118595_);}
	.st174{clip-path:url(#SVGID_00000067925242263107777000000001583793684247047852_);}
	.st175{fill:url(#SVGID_00000013893587469496044130000008780802042083245697_);}
	.st176{fill:url(#SVGID_00000088135202992218917960000001333775146207112324_);}
	.st177{clip-path:url(#SVGID_00000015356465808478559530000016600410726028724633_);}
	.st178{clip-path:url(#SVGID_00000122700369043794480600000015738930113203032738_);}
	.st179{fill:none;stroke:#FFFFFF;stroke-width:0.75;stroke-miterlimit:10;}
	.st180{fill:none;stroke:#FFFFFF;stroke-width:0.7503;stroke-miterlimit:10;}
	.st181{clip-path:url(#SVGID_00000026136120698573513640000014148556944745897088_);fill:#FFFFFF;}
	.st182{fill:none;stroke:#2276BB;stroke-width:0.1;stroke-miterlimit:10;}
	.st183{fill:none;stroke:#FFFFFF;stroke-width:0.5;stroke-miterlimit:10;}
	.st184{clip-path:url(#SVGID_00000101094214897233659390000018210564249795459752_);fill:#FFFFFF;}
	.st185{clip-path:url(#SVGID_00000090274495935393631130000007044246844900059061_);fill:#FFFFFF;}
	.st186{clip-path:url(#SVGID_00000172401793607165064000000016757902416132014250_);fill:#FFFFFF;}
	.st187{fill:url(#SVGID_00000080923810719161649140000008077214377132189063_);}
	.st188{fill:none;stroke:#003DA6;stroke-width:0.2543;stroke-linecap:round;stroke-miterlimit:10;}
	.st189{fill:#BEE2E9;}
	.st190{fill:#7FA6E5;}
	.st191{opacity:0.97;fill:#71D4FF;}
</style>
<g id="iconos-fondo">
</g>
<g id="footer">
</g>
<g id="fondo">
</g>
<g id="detacado-foto">
</g>
<g id="bloque_1-A">
</g>
<g id="bloque_1_B">
	<g>
		<g>
			<g>
				<g>
					<path class="st31" d="M41.32,31.75c-1.86-0.04-3.71-0.76-5.14-2.16c-0.1-0.09-0.09-0.25,0-0.35l2.5-2.39
						c0.09-0.09,0.23-0.08,0.32,0c1.4,1.3,3.61,1.3,5.01-0.04l0.41-0.4c3.11-2.97,8.08-2.86,11.05,0.25l0.23,0.24
						c1.48,1.55,3.95,1.6,5.5,0.12l0.99-0.95c3.02-2.89,7.83-2.78,10.72,0.24c0.82,0.85,1.97,1.26,3.18,1.09
						c0.81-0.11,1.54-0.55,2.14-1.12l0.26-0.25c3.12-2.98,8.07-2.87,11.06,0.25l0.25,0.26c1.47,1.54,3.94,1.6,5.49,0.13l1.04-0.98
						c3.07-2.91,8-2.82,10.96,0.19l0.4,0.41c1.48,1.51,3.94,1.54,5.46,0.08l0.3-0.28c0.09-0.09,0.24-0.09,0.33,0.01l2.39,2.5
						c0.09,0.09,0.09,0.24-0.01,0.33l-0.3,0.28c-3.07,2.93-8.01,2.86-10.98-0.17l-0.4-0.41c-1.47-1.5-3.93-1.54-5.45-0.1L98,29.54
						c-3.11,2.95-8.07,2.82-11.03-0.27l-0.27-0.28c-0.57-0.59-1.28-1.06-2.08-1.21c-1.2-0.22-2.37,0.13-3.23,0.95l-0.35,0.34
						c-1.31,1.25-2.98,2.14-4.79,2.29c-2.3,0.2-4.48-0.61-6.07-2.22c-1.47-1.48-3.94-1.48-5.44-0.04l-0.81,0.77
						c-3.12,2.99-8.07,2.87-11.05-0.25l-0.23-0.24c-1.48-1.55-3.95-1.6-5.5-0.12l-0.41,0.39C45.22,31.1,43.26,31.79,41.32,31.75z"/>
				</g>
				<g>
					<path class="st31" d="M41.32,20.42c-1.86-0.04-3.71-0.76-5.14-2.16c-0.1-0.09-0.09-0.25,0-0.35l2.5-2.39
						c0.09-0.09,0.23-0.08,0.32,0c1.4,1.3,3.61,1.3,5.01-0.04l0.41-0.4c3.11-2.97,8.08-2.86,11.05,0.25l0.23,0.24
						c1.48,1.55,3.95,1.6,5.5,0.12l0.99-0.95c3.02-2.89,7.83-2.78,10.72,0.24c0.82,0.85,1.97,1.26,3.18,1.09
						c0.81-0.11,1.54-0.55,2.14-1.12l0.26-0.25c3.12-2.98,8.07-2.87,11.06,0.25l0.25,0.26c1.47,1.54,3.94,1.6,5.49,0.13l1.04-0.98
						c3.07-2.91,8-2.82,10.96,0.19l0.4,0.41c1.48,1.51,3.94,1.54,5.46,0.08l0.3-0.28c0.09-0.09,0.24-0.09,0.33,0.01l2.39,2.5
						c0.09,0.09,0.09,0.24-0.01,0.33l-0.3,0.28c-3.07,2.93-8.01,2.86-10.98-0.17l-0.4-0.41c-1.47-1.5-3.93-1.54-5.45-0.1L98,18.2
						c-3.11,2.95-8.07,2.82-11.03-0.27l-0.27-0.28c-0.57-0.59-1.28-1.06-2.08-1.21c-1.2-0.22-2.37,0.13-3.23,0.95l-0.35,0.34
						c-1.31,1.25-2.98,2.14-4.79,2.29c-2.3,0.2-4.48-0.61-6.07-2.22c-1.47-1.48-3.94-1.48-5.44-0.04l-0.81,0.77
						c-3.12,2.99-8.07,2.87-11.05-0.25l-0.23-0.24c-1.48-1.55-3.95-1.6-5.5-0.12l-0.41,0.39C45.22,19.77,43.26,20.46,41.32,20.42z"
						/>
				</g>
				<g>
					<path class="st31" d="M41.32,43.62c-1.86-0.04-3.71-0.76-5.14-2.16c-0.1-0.09-0.09-0.25,0-0.35l2.5-2.39
						c0.09-0.09,0.23-0.08,0.32,0c1.4,1.3,3.61,1.3,5.01-0.04l0.41-0.4c3.11-2.97,8.08-2.86,11.05,0.25l0.23,0.24
						c1.48,1.55,3.95,1.6,5.5,0.12l0.99-0.95c3.02-2.89,7.83-2.78,10.72,0.24c0.82,0.85,1.97,1.26,3.18,1.09
						c0.81-0.11,1.54-0.55,2.14-1.12l0.26-0.25c3.12-2.98,8.07-2.87,11.06,0.25l0.25,0.26c1.47,1.54,3.94,1.6,5.49,0.13l1.04-0.98
						c3.07-2.91,8-2.82,10.96,0.19l0.4,0.41c1.48,1.51,3.94,1.54,5.46,0.08l0.3-0.28c0.09-0.09,0.24-0.09,0.33,0.01l2.39,2.5
						c0.09,0.09,0.09,0.24-0.01,0.33l-0.3,0.28c-3.07,2.93-8.01,2.86-10.98-0.17l-0.4-0.41c-1.47-1.5-3.93-1.54-5.45-0.1L98,41.4
						c-3.11,2.95-8.07,2.82-11.03-0.27l-0.27-0.28c-0.57-0.59-1.28-1.06-2.08-1.21c-1.2-0.22-2.37,0.13-3.23,0.95l-0.35,0.34
						c-1.31,1.25-2.98,2.14-4.79,2.29c-2.3,0.2-4.48-0.61-6.07-2.22c-1.47-1.48-3.94-1.48-5.44-0.04l-0.81,0.77
						c-3.12,2.99-8.07,2.87-11.05-0.25l-0.23-0.24c-1.48-1.55-3.95-1.6-5.5-0.12l-0.41,0.39C45.22,42.96,43.26,43.66,41.32,43.62z"
						/>
				</g>
				<g>
					<path class="st31" d="M41.32,54.75c-1.86-0.04-3.71-0.76-5.14-2.16c-0.1-0.09-0.09-0.25,0-0.35l2.5-2.39
						c0.09-0.09,0.23-0.08,0.32,0c1.4,1.3,3.61,1.3,5.01-0.04l0.41-0.4c3.11-2.97,8.08-2.86,11.05,0.25l0.23,0.24
						c1.48,1.55,3.95,1.6,5.5,0.12l0.99-0.95c3.02-2.89,7.83-2.78,10.72,0.24c0.82,0.85,1.97,1.26,3.18,1.09
						c0.81-0.11,1.54-0.55,2.14-1.12l0.26-0.25c3.12-2.98,8.07-2.87,11.06,0.25l0.25,0.26c1.47,1.54,3.94,1.6,5.49,0.13l1.04-0.98
						c3.07-2.91,8-2.82,10.96,0.19l0.4,0.41c1.48,1.51,3.94,1.54,5.46,0.08l0.3-0.28c0.09-0.09,0.24-0.09,0.33,0.01l2.39,2.5
						c0.09,0.09,0.09,0.24-0.01,0.33l-0.3,0.28c-3.07,2.93-8.01,2.86-10.98-0.17l-0.4-0.41c-1.47-1.5-3.93-1.54-5.45-0.1L98,52.54
						c-3.11,2.95-8.07,2.82-11.03-0.27l-0.27-0.28c-0.57-0.59-1.28-1.06-2.08-1.21c-1.2-0.22-2.37,0.13-3.23,0.95l-0.35,0.34
						c-1.31,1.25-2.98,2.14-4.79,2.29c-2.3,0.2-4.48-0.61-6.07-2.22c-1.47-1.48-3.94-1.48-5.44-0.04l-0.81,0.77
						c-3.12,2.99-8.07,2.87-11.05-0.25l-0.23-0.24c-1.48-1.55-3.95-1.6-5.5-0.12l-0.41,0.39C45.22,54.1,43.26,54.8,41.32,54.75z"/>
				</g>
			</g>
			<line class="st52" x1="1.6" y1="4.77" x2="1.6" y2="91.53"/>
			<line class="st52" x1="150.77" y1="4.77" x2="150.77" y2="91.53"/>
		</g>
		<g>
			<path class="st53" d="M37.25,75.07h0.9v7.16h4.5v0.83h-5.4V75.07z"/>
			<path class="st53" d="M46.45,75.07h0.9v7.99h-0.9V75.07z M47.68,72.89l0.9,0.41l-1.31,1.06h-0.73L47.68,72.89z"/>
			<path class="st53" d="M57.98,82.34c-0.67,0.54-1.53,0.86-2.52,0.86c-2.43,0-4.06-1.91-4.06-4.11v-0.02c0-2.2,1.65-4.13,4.09-4.13
				s4.06,1.91,4.06,4.11v0.02c0,1-0.34,1.95-0.96,2.68l1.06,0.88l-0.62,0.67L57.98,82.34z M57.31,81.76l-1.48-1.27l0.6-0.67
				l1.47,1.34c0.43-0.56,0.7-1.28,0.7-2.07v-0.02c0-1.81-1.32-3.3-3.15-3.3s-3.13,1.46-3.13,3.28v0.02c0,1.81,1.32,3.3,3.15,3.3
				C56.18,82.36,56.82,82.14,57.31,81.76z"/>
			<path class="st53" d="M63.38,79.72v-4.65h0.9v4.59c0,1.72,0.91,2.69,2.44,2.69c1.47,0,2.41-0.89,2.41-2.64v-4.65h0.9v4.58
				c0,2.33-1.34,3.54-3.33,3.54C64.72,83.19,63.38,81.98,63.38,79.72z"/>
			<path class="st53" d="M74.3,75.07h0.9v7.99h-0.9V75.07z"/>
			<path class="st53" d="M79.6,75.07h2.77c2.51,0,4.25,1.72,4.25,3.97v0.02c0,2.25-1.73,3.99-4.25,3.99H79.6V75.07z M82.37,82.23
				c2.02,0,3.31-1.37,3.31-3.14v-0.02c0-1.77-1.29-3.16-3.31-3.16H80.5v6.32H82.37z"/>
			<path class="st53" d="M90.22,79.09v-0.02c0-2.2,1.65-4.13,4.09-4.13s4.06,1.91,4.06,4.11v0.02c0,2.2-1.66,4.13-4.09,4.13
				S90.22,81.29,90.22,79.09z M97.44,79.09v-0.02c0-1.81-1.32-3.3-3.15-3.3s-3.13,1.46-3.13,3.28v0.02c0,1.81,1.32,3.3,3.15,3.3
				S97.44,80.9,97.44,79.09z"/>
			<path class="st53" d="M101.75,81.9l0.56-0.66c0.83,0.75,1.63,1.13,2.74,1.13c1.07,0,1.78-0.57,1.78-1.36v-0.02
				c0-0.74-0.4-1.16-2.08-1.52c-1.84-0.4-2.68-0.99-2.68-2.31v-0.02c0-1.26,1.11-2.18,2.63-2.18c1.16,0,2,0.33,2.81,0.98l-0.52,0.7
				c-0.74-0.6-1.48-0.87-2.31-0.87c-1.04,0-1.7,0.57-1.7,1.29v0.02c0,0.75,0.41,1.18,2.17,1.55c1.78,0.39,2.6,1.04,2.6,2.26v0.02
				c0,1.37-1.14,2.26-2.73,2.26C103.75,83.17,102.71,82.75,101.75,81.9z"/>
		</g>
	</g>
</g>
<g id="destacado">
</g>
<g id="destacado-hidro">
</g>
<g id="destacado-camion">
</g>
<g id="cont">
</g>
<g id="EMPRESA">
</g>
<g id="SERVICIOS-terminal">
</g>
<g id="SERVICIO-lab">
</g>
<g id="SERV-transp-terrestre">
</g>
<g id="SERV-opera-solidos">
</g>
<g id="COMEX">
</g>
<g id="CONTACTO">
</g>
<g id="COMPROMISO">
</g>
<g id="Capa_19" class="st168">
</g>
<g id="TERMINAL">
</g>
<g id="servicios3">
</g>
<g id="servicios2">
</g>
<g id="servicios1">
</g>
<g id="Capa_10">
</g>
<g id="solapa-servicio">
</g>
<g id="top">
</g>
<g id="esqueletoi">
</g>
<g id="guias">
</g>
</svg>
