<?xml version="1.0" encoding="utf-8"?>
<!-- Generator: Adobe Illustrator 27.9.0, SVG Export Plug-In . SVG Version: 6.00 Build 0)  -->
<svg version="1.1" xmlns="http://www.w3.org/2000/svg" xmlns:xlink="http://www.w3.org/1999/xlink" x="0px" y="0px"
	 viewBox="0 0 152.71 93.9" style="enable-background:new 0 0 152.71 93.9;" xml:space="preserve">
<style type="text/css">
	.st0{fill:#8F8F8F;}
	.st1{fill:#6E6E6E;}
	.st2{fill:#FFFFFF;}
	.st3{clip-path:url(#SVGID_00000137845769484161958190000001058020601446335163_);}
	.st4{fill:#878787;}
	.st5{fill:#4C4C4A;}
	.st6{fill:#858658;}
	.st7{fill:#1BB09D;}
	.st8{fill:#4CABCB;}
	.st9{fill:#737373;}
	.st10{fill:#4FA98B;}
	.st11{fill:#2276BB;}
	.st12{fill:none;stroke:#FFFFFF;stroke-width:0.25;stroke-miterlimit:10;}
	.st13{clip-path:url(#SVGID_00000061449955625857466780000004029454512134766240_);}
	.st14{clip-path:url(#SVGID_00000011725478664403623770000003893229820609369757_);}
	.st15{clip-path:url(#SVGID_00000101813857569265474890000010741648973803530633_);}
	.st16{clip-path:url(#SVGID_00000155831974749556569690000007984220186124752805_);}
	.st17{clip-path:url(#SVGID_00000049188692622676921340000014340820333145195400_);}
	.st18{clip-path:url(#SVGID_00000127011702108655177830000004876585600002652861_);}
	.st19{clip-path:url(#SVGID_00000053545278048449222150000006188925878105353094_);}
	.st20{clip-path:url(#SVGID_00000171722231924652082860000000999878555523590017_);}
	.st21{clip-path:url(#SVGID_00000050631647730347188950000010948961827725939093_);}
	
		.st22{clip-path:url(#SVGID_00000001649770435829435970000005170208694024333753_);fill:url(#SVGID_00000077294223047505252640000016043763487573859975_);}
	.st23{fill:#003DA6;stroke:#003DA6;stroke-width:0.25;stroke-miterlimit:10;}
	.st24{fill:none;stroke:#003DA6;stroke-width:0.3;stroke-miterlimit:10;}
	.st25{fill:#FFFFFF;stroke:#ABABAB;stroke-width:0.3093;stroke-miterlimit:10;}
	.st26{fill:none;stroke:#003DA6;stroke-width:0.5024;stroke-miterlimit:10;}
	.st27{fill:#FFFFFF;stroke:#003DA6;stroke-width:0.3467;stroke-miterlimit:10;}
	.st28{opacity:0.5;fill:url(#SVGID_00000132774448539638303460000001161046141199260058_);}
	.st29{fill:url(#SVGID_00000134221418598179145860000013810917631458134455_);}
	.st30{fill:#E4F4F9;}
	.st31{fill:#003DA6;}
	.st32{fill:#003DA6;stroke:#FFFFFF;stroke-width:0.2257;stroke-miterlimit:10;}
	.st33{fill:#FFFFFF;stroke:#003DA6;stroke-width:0.2257;stroke-miterlimit:10;}
	.st34{fill:#FFFFFF;stroke:#ABABAB;stroke-width:0.3504;stroke-miterlimit:10;}
	.st35{fill-rule:evenodd;clip-rule:evenodd;fill:#FFFFFF;stroke:#ABABAB;stroke-width:0.4053;stroke-miterlimit:10;}
	.st36{fill:#FFFFFF;stroke:#ABABAB;stroke-width:0.4053;stroke-miterlimit:10;}
	.st37{opacity:0.7;fill:url(#SVGID_00000077301283615744117480000014385809490979899025_);}
	.st38{opacity:0.5;fill:#4C4C4A;}
	.st39{opacity:0.5;fill:#858658;}
	.st40{opacity:0.5;fill:#1BB09D;}
	.st41{opacity:0.5;fill:#4CABCB;}
	.st42{opacity:0.5;fill:#737373;}
	.st43{opacity:0.5;fill:#2276BB;}
	.st44{fill:none;stroke:#003DA6;stroke-width:0.2224;stroke-miterlimit:10;}
	.st45{fill:#FFFFFF;stroke:#003DA6;stroke-width:0.2835;stroke-miterlimit:10;}
	.st46{fill:none;stroke:#003DA6;stroke-width:0.1864;stroke-linecap:round;stroke-miterlimit:1;}
	.st47{fill:#FFFFFF;stroke:#003DA6;stroke-width:0.1;stroke-miterlimit:10;}
	.st48{fill:none;stroke:#003DA6;stroke-width:0.2835;stroke-miterlimit:10;}
	.st49{fill:#575757;}
	.st50{clip-path:url(#SVGID_00000061462060908781951290000009036919132088004759_);}
	.st51{opacity:0.7;fill:url(#SVGID_00000174590138901817568750000005261798279017657230_);}
	.st52{fill:none;stroke:#003DA6;stroke-width:0.25;stroke-miterlimit:10;}
	.st53{fill:#1C3F81;}
	.st54{fill:none;stroke:#949494;stroke-width:0.25;stroke-miterlimit:10;}
	.st55{clip-path:url(#SVGID_00000013885697847444741350000016940079564613788862_);}
	.st56{fill:#43B6A5;}
	.st57{fill:#25745C;}
	.st58{clip-path:url(#SVGID_00000014594780689089026060000000492890366657828512_);}
	.st59{fill:url(#SVGID_00000098912205124055519720000001878639894160321668_);}
	.st60{fill:url(#SVGID_00000113319644334922462410000016284071509677649296_);}
	.st61{fill:none;stroke:#FFFFFF;stroke-width:2;stroke-linecap:round;stroke-miterlimit:10;}
	.st62{clip-path:url(#SVGID_00000165224721776367236140000007296193144435654529_);}
	.st63{fill:#003DA6;stroke:#FFFFFF;stroke-width:0.1346;stroke-miterlimit:10;}
	.st64{fill:#141414;}
	.st65{stroke:#FFFFFF;stroke-width:0.1346;stroke-miterlimit:10;}
	.st66{clip-path:url(#SVGID_00000003799814610830031670000000822824333693276329_);}
	.st67{opacity:0.18;}
	.st68{fill:#089F91;}
	.st69{opacity:0.18;fill:#BADDE9;}
	.st70{fill:#F5F4EF;stroke:#FFFFFF;stroke-width:1.8244;stroke-miterlimit:10;}
	.st71{opacity:0.65;fill:#858658;}
	.st72{fill:#C3DFF5;}
	.st73{opacity:0.63;}
	.st74{fill:#9C9B9B;}
	.st75{fill:#A9A9A9;}
	.st76{fill:#35350B;}
	.st77{fill:none;stroke:#FFFFFF;stroke-width:0.1824;stroke-linecap:round;stroke-linejoin:round;stroke-miterlimit:10;}
	.st78{opacity:0.64;}
	.st79{fill:#F5F4EF;}
	.st80{clip-path:url(#SVGID_00000037657745118527813170000004927970463505407404_);}
	.st81{fill:#F5F4EF;stroke:#FFFFFF;stroke-width:1.2815;stroke-miterlimit:10;}
	.st82{opacity:0.65;}
	.st83{fill:none;stroke:#FFFFFF;stroke-width:0.1281;stroke-linecap:round;stroke-linejoin:round;stroke-miterlimit:10;}
	.st84{fill:#1D1D1B;}
	
		.st85{opacity:0.4;clip-path:url(#SVGID_00000021087700922303245590000005415088607345953720_);fill:url(#SVGID_00000152254353242267252530000005327209110036526512_);}
	.st86{fill:#45CFDA;}
	.st87{clip-path:url(#SVGID_00000079465243663981825800000009803489400519438256_);}
	.st88{clip-path:url(#SVGID_00000001644310704195251940000007668262143077053338_);}
	.st89{fill:#FFFFFF;stroke:#ABABAB;stroke-width:0.4901;stroke-miterlimit:10;}
	.st90{fill:url(#SVGID_00000140735527731673291730000009799954545922398104_);}
	.st91{fill-rule:evenodd;clip-rule:evenodd;fill:#FFFFFF;stroke:#ABABAB;stroke-width:0.2763;stroke-miterlimit:10;}
	.st92{fill:#FFFFFF;stroke:#ABABAB;stroke-width:0.2763;stroke-miterlimit:10;}
	.st93{fill:#0A0A0A;}
	.st94{opacity:0.5;}
	.st95{fill:#565630;}
	.st96{fill:#A2E3F4;}
	.st97{fill:#454545;}
	.st98{fill:none;stroke:#454545;stroke-width:0.5151;stroke-miterlimit:10;}
	.st99{clip-path:url(#SVGID_00000080923567109086996520000001379921605181869225_);}
	.st100{clip-path:url(#SVGID_00000053514507269325788880000012790305151247650702_);}
	.st101{fill:none;stroke:#787878;stroke-width:0.2794;stroke-miterlimit:10;}
	.st102{fill:none;stroke:#787878;stroke-width:0.2073;stroke-miterlimit:10;}
	.st103{fill:none;stroke:#A7B972;stroke-width:0.2557;stroke-miterlimit:10;}
	.st104{fill:none;stroke:#A7B972;stroke-width:0.1622;stroke-miterlimit:10;}
	
		.st105{clip-path:url(#SVGID_00000106831480186794847020000011322498187327629993_);fill:url(#SVGID_00000059995730320140603180000000204081628909287598_);}
	.st106{clip-path:url(#SVGID_00000137819411173756152910000006175713291631817347_);}
	.st107{clip-path:url(#SVGID_00000103980650312454238360000016855572304464645010_);}
	.st108{clip-path:url(#SVGID_00000016059237351740245500000003600511801295511961_);}
	.st109{clip-path:url(#SVGID_00000018929171463896955840000001939815933105770396_);}
	.st110{clip-path:url(#SVGID_00000135655568379268907750000013293831811139062718_);}
	.st111{fill:url(#SVGID_00000026882966910014737610000003739955139398055076_);}
	.st112{opacity:0.27;fill:#BADDE9;}
	.st113{clip-path:url(#SVGID_00000044158423760816190680000008427526244871771776_);}
	.st114{opacity:0.29;}
	
		.st115{clip-path:url(#SVGID_00000095296579336419404450000011028961360087386287_);fill:url(#SVGID_00000173150213307902688040000012797307082231763390_);}
	.st116{opacity:0.71;}
	.st117{clip-path:url(#SVGID_00000041987249442971073070000011113505561135650960_);}
	.st118{clip-path:url(#SVGID_00000081629807650052845640000016913887445240989876_);}
	.st119{clip-path:url(#SVGID_00000136387543226144809620000002963623502416655264_);}
	.st120{fill:none;stroke:#575757;stroke-miterlimit:10;}
	.st121{fill:none;stroke:#575757;stroke-width:0.5;stroke-miterlimit:10;}
	.st122{fill:#D1D1D1;stroke:#828282;stroke-width:0.1864;stroke-linecap:round;stroke-miterlimit:1;}
	.st123{fill:#FFFFFF;stroke:#828282;stroke-width:0.1864;stroke-linecap:round;stroke-miterlimit:1;}
	.st124{fill:#828282;stroke:#424242;stroke-width:0.5;stroke-miterlimit:1;}
	.st125{fill:none;stroke:#828282;stroke-width:0.1864;stroke-linecap:round;stroke-miterlimit:1;}
	.st126{fill:none;stroke:#1C1C1C;stroke-width:0.1864;stroke-linecap:round;stroke-miterlimit:1;}
	.st127{fill:none;stroke:#828282;stroke-width:0.75;stroke-linecap:round;stroke-miterlimit:1;}
	.st128{fill:none;stroke:#292929;stroke-width:0.75;stroke-linecap:round;stroke-miterlimit:1;}
	.st129{fill:#363636;}
	.st130{fill:none;stroke:#3D3D3D;stroke-width:0.1864;stroke-linecap:round;stroke-miterlimit:1;}
	.st131{fill:none;stroke:#BDBDBD;stroke-width:0.75;stroke-miterlimit:10;}
	.st132{opacity:0.27;fill:#E8E8E8;}
	.st133{fill:none;stroke:#003DA6;stroke-width:0.1794;stroke-miterlimit:10;}
	.st134{clip-path:url(#SVGID_00000145739587769459183230000011236205632436356003_);}
	.st135{fill:#1F1F1F;}
	.st136{clip-path:url(#SVGID_00000080174598897699737930000004267967238787968951_);}
	.st137{clip-path:url(#SVGID_00000117661492335208415480000001819843188968310666_);}
	.st138{clip-path:url(#SVGID_00000085219512327224764410000018293339009830016946_);}
	.st139{clip-path:url(#SVGID_00000055675297396603532230000002437786631732086459_);}
	.st140{fill:url(#SVGID_00000023961552889854568520000017781513523827236253_);}
	.st141{fill:#C0E3EA;}
	.st142{fill:#27745C;}
	.st143{fill:#4D4D4D;}
	.st144{clip-path:url(#SVGID_00000123420558086596008000000017181514341064068517_);}
	.st145{fill:none;stroke:#4DABCB;stroke-width:2;stroke-miterlimit:10;}
	.st146{fill:none;stroke:#27745C;stroke-width:3;stroke-miterlimit:10;}
	.st147{fill:url(#SVGID_00000055680183115482895040000018416301896735903133_);}
	.st148{fill:url(#SVGID_00000003819123749756360440000015022865103277391293_);}
	.st149{fill:#706F6F;}
	.st150{fill:none;}
	.st151{fill:url(#SVGID_00000020375157882766349770000000373734023856178345_);}
	.st152{fill:none;stroke:#4DABCB;stroke-width:2;stroke-linecap:round;stroke-miterlimit:10;}
	.st153{fill:url(#SVGID_00000072267494189096887720000005382580991237729212_);}
	.st154{clip-path:url(#SVGID_00000144318864396935051780000011895819190409709965_);}
	.st155{opacity:0.35;fill:#1C3F81;}
	.st156{clip-path:url(#SVGID_00000022532261593593021910000000316027227012017033_);}
	.st157{clip-path:url(#SVGID_00000133501128537140148220000015541268111215870368_);}
	.st158{opacity:0.29;fill:#4C1608;}
	.st159{clip-path:url(#SVGID_00000178200252741736758090000000208133918121359777_);}
	.st160{opacity:0.29;fill:#054096;}
	.st161{clip-path:url(#SVGID_00000062906668435309169990000017151854850718307744_);}
	.st162{clip-path:url(#SVGID_00000066517227374487898090000016166138023947663551_);}
	.st163{opacity:0.23;fill:#95A71A;}
	.st164{fill:#799B1C;}
	.st165{opacity:0.5;fill:url(#SVGID_00000114046003958811891060000005798946454297682327_);}
	
		.st166{clip-path:url(#SVGID_00000130622493921356782750000008934919841730132910_);fill:url(#SVGID_00000101793970385627091950000003394088931840521355_);}
	
		.st167{clip-path:url(#SVGID_00000094595942925469999760000003996190596860758925_);fill:url(#SVGID_00000162351200117645304800000015520263943515778944_);}
	.st168{display:none;}
	.st169{clip-path:url(#SVGID_00000017506153126606517210000009198373035140494746_);}
	.st170{clip-path:url(#SVGID_00000141414852113677849310000008753842080849133184_);}
	.st171{opacity:0.57;fill:#BADDE9;}
	.st172{opacity:0.54;fill:#1C3F81;}
	.st173{clip-path:url(#SVGID_00000036245938838469496950000003152924516726780584_);}
	.st174{clip-path:url(#SVGID_00000007400408896648855080000001849834147677842074_);}
	.st175{fill:url(#SVGID_00000024703407076196399020000005996409577333539984_);}
	.st176{fill:url(#SVGID_00000028282748524563766060000006015068408424137392_);}
	.st177{clip-path:url(#SVGID_00000163755642183502363520000015350754259388583327_);}
	.st178{clip-path:url(#SVGID_00000049915636939539366380000015912952568912147588_);}
	.st179{fill:none;stroke:#FFFFFF;stroke-width:0.75;stroke-miterlimit:10;}
	.st180{fill:none;stroke:#FFFFFF;stroke-width:0.7503;stroke-miterlimit:10;}
	.st181{clip-path:url(#SVGID_00000173131268400874993810000011278000981996679051_);fill:#FFFFFF;}
	.st182{fill:none;stroke:#2276BB;stroke-width:0.1;stroke-miterlimit:10;}
	.st183{fill:none;stroke:#FFFFFF;stroke-width:0.5;stroke-miterlimit:10;}
	.st184{clip-path:url(#SVGID_00000167398691227768576790000016282676753230962856_);fill:#FFFFFF;}
	.st185{clip-path:url(#SVGID_00000047034681923853685730000007137180070673486217_);fill:#FFFFFF;}
	.st186{clip-path:url(#SVGID_00000155131756096115872370000000197764414715055030_);fill:#FFFFFF;}
	.st187{fill:url(#SVGID_00000168112976993348575760000007865863433367905445_);}
	.st188{fill:none;stroke:#003DA6;stroke-width:0.2543;stroke-linecap:round;stroke-miterlimit:10;}
	.st189{fill:#BEE2E9;}
	.st190{fill:#7FA6E5;}
	.st191{opacity:0.97;fill:#71D4FF;}
</style>
<g id="iconos-fondo">
</g>
<g id="footer">
</g>
<g id="fondo">
</g>
<g id="detacado-foto">
</g>
<g id="bloque_1-A">
</g>
<g id="bloque_1_B">
	<g>
		<g>
			<g>
				<g>
					<path d="M40.98,31.75c-1.86-0.04-3.71-0.76-5.14-2.16c-0.1-0.09-0.09-0.25,0-0.35l2.5-2.39c0.09-0.09,0.23-0.08,0.32,0
						c1.4,1.3,3.61,1.3,5.01-0.04l0.41-0.4c3.11-2.97,8.08-2.86,11.05,0.25l0.23,0.24c1.48,1.55,3.95,1.6,5.5,0.12l0.99-0.95
						c3.02-2.89,7.83-2.78,10.72,0.24c0.82,0.85,1.97,1.26,3.18,1.09c0.81-0.11,1.54-0.55,2.14-1.12l0.26-0.25
						c3.12-2.98,8.07-2.87,11.06,0.25l0.25,0.26c1.47,1.54,3.94,1.6,5.49,0.13L96,25.7c3.07-2.91,8-2.82,10.96,0.19l0.4,0.41
						c1.48,1.51,3.94,1.54,5.46,0.08l0.3-0.28c0.09-0.09,0.24-0.09,0.33,0.01l2.39,2.5c0.09,0.09,0.09,0.24-0.01,0.33l-0.3,0.28
						c-3.07,2.93-8.01,2.86-10.98-0.17l-0.4-0.41c-1.47-1.5-3.93-1.54-5.45-0.1l-1.04,0.98c-3.11,2.95-8.07,2.82-11.03-0.27
						l-0.27-0.28c-0.57-0.59-1.28-1.06-2.08-1.21c-1.2-0.22-2.37,0.13-3.23,0.95l-0.35,0.34c-1.31,1.25-2.98,2.14-4.79,2.29
						c-2.3,0.2-4.48-0.61-6.07-2.22c-1.47-1.48-3.94-1.48-5.44-0.04l-0.81,0.77c-3.12,2.99-8.07,2.87-11.05-0.25l-0.23-0.24
						c-1.48-1.55-3.95-1.6-5.5-0.12l-0.41,0.39C44.88,31.1,42.93,31.79,40.98,31.75z"/>
				</g>
				<g>
					<path d="M40.98,20.42c-1.86-0.04-3.71-0.76-5.14-2.16c-0.1-0.09-0.09-0.25,0-0.35l2.5-2.39c0.09-0.09,0.23-0.08,0.32,0
						c1.4,1.3,3.61,1.3,5.01-0.04l0.41-0.4c3.11-2.97,8.08-2.86,11.05,0.25l0.23,0.24c1.48,1.55,3.95,1.6,5.5,0.12l0.99-0.95
						c3.02-2.89,7.83-2.78,10.72,0.24c0.82,0.85,1.97,1.26,3.18,1.09c0.81-0.11,1.54-0.55,2.14-1.12l0.26-0.25
						c3.12-2.98,8.07-2.87,11.06,0.25l0.25,0.26c1.47,1.54,3.94,1.6,5.49,0.13L96,14.37c3.07-2.91,8-2.82,10.96,0.19l0.4,0.41
						c1.48,1.51,3.94,1.54,5.46,0.08l0.3-0.28c0.09-0.09,0.24-0.09,0.33,0.01l2.39,2.5c0.09,0.09,0.09,0.24-0.01,0.33l-0.3,0.28
						c-3.07,2.93-8.01,2.86-10.98-0.17l-0.4-0.41c-1.47-1.5-3.93-1.54-5.45-0.1l-1.04,0.98c-3.11,2.95-8.07,2.82-11.03-0.27
						l-0.27-0.28c-0.57-0.59-1.28-1.06-2.08-1.21c-1.2-0.22-2.37,0.13-3.23,0.95l-0.35,0.34c-1.31,1.25-2.98,2.14-4.79,2.29
						c-2.3,0.2-4.48-0.61-6.07-2.22c-1.47-1.48-3.94-1.48-5.44-0.04l-0.81,0.77c-3.12,2.99-8.07,2.87-11.05-0.25l-0.23-0.24
						c-1.48-1.55-3.95-1.6-5.5-0.12l-0.41,0.39C44.88,19.77,42.93,20.46,40.98,20.42z"/>
				</g>
				<g>
					<path d="M40.98,43.62c-1.86-0.04-3.71-0.76-5.14-2.16c-0.1-0.09-0.09-0.25,0-0.35l2.5-2.39c0.09-0.09,0.23-0.08,0.32,0
						c1.4,1.3,3.61,1.3,5.01-0.04l0.41-0.4c3.11-2.97,8.08-2.86,11.05,0.25l0.23,0.24c1.48,1.55,3.95,1.6,5.5,0.12l0.99-0.95
						c3.02-2.89,7.83-2.78,10.72,0.24c0.82,0.85,1.97,1.26,3.18,1.09c0.81-0.11,1.54-0.55,2.14-1.12l0.26-0.25
						c3.12-2.98,8.07-2.87,11.06,0.25l0.25,0.26c1.47,1.54,3.94,1.6,5.49,0.13L96,37.57c3.07-2.91,8-2.82,10.96,0.19l0.4,0.41
						c1.48,1.51,3.94,1.54,5.46,0.08l0.3-0.28c0.09-0.09,0.24-0.09,0.33,0.01l2.39,2.5c0.09,0.09,0.09,0.24-0.01,0.33l-0.3,0.28
						c-3.07,2.93-8.01,2.86-10.98-0.17l-0.4-0.41c-1.47-1.5-3.93-1.54-5.45-0.1l-1.04,0.98c-3.11,2.95-8.07,2.82-11.03-0.27
						l-0.27-0.28c-0.57-0.59-1.28-1.06-2.08-1.21c-1.2-0.22-2.37,0.13-3.23,0.95l-0.35,0.34c-1.31,1.25-2.98,2.14-4.79,2.29
						c-2.3,0.2-4.48-0.61-6.07-2.22c-1.47-1.48-3.94-1.48-5.44-0.04l-0.81,0.77c-3.12,2.99-8.07,2.87-11.05-0.25l-0.23-0.24
						c-1.48-1.55-3.95-1.6-5.5-0.12l-0.41,0.39C44.88,42.96,42.93,43.66,40.98,43.62z"/>
				</g>
				<g>
					<path d="M40.98,54.75c-1.86-0.04-3.71-0.76-5.14-2.16c-0.1-0.09-0.09-0.25,0-0.35l2.5-2.39c0.09-0.09,0.23-0.08,0.32,0
						c1.4,1.3,3.61,1.3,5.01-0.04l0.41-0.4c3.11-2.97,8.08-2.86,11.05,0.25l0.23,0.24c1.48,1.55,3.95,1.6,5.5,0.12l0.99-0.95
						c3.02-2.89,7.83-2.78,10.72,0.24c0.82,0.85,1.97,1.26,3.18,1.09c0.81-0.11,1.54-0.55,2.14-1.12l0.26-0.25
						c3.12-2.98,8.07-2.87,11.06,0.25l0.25,0.26c1.47,1.54,3.94,1.6,5.49,0.13L96,48.71c3.07-2.91,8-2.82,10.96,0.19l0.4,0.41
						c1.48,1.51,3.94,1.54,5.46,0.08l0.3-0.28c0.09-0.09,0.24-0.09,0.33,0.01l2.39,2.5c0.09,0.09,0.09,0.24-0.01,0.33l-0.3,0.28
						c-3.07,2.93-8.01,2.86-10.98-0.17l-0.4-0.41c-1.47-1.5-3.93-1.54-5.45-0.1l-1.04,0.98c-3.11,2.95-8.07,2.82-11.03-0.27
						l-0.27-0.28c-0.57-0.59-1.28-1.06-2.08-1.21c-1.2-0.22-2.37,0.13-3.23,0.95l-0.35,0.34c-1.31,1.25-2.98,2.14-4.79,2.29
						c-2.3,0.2-4.48-0.61-6.07-2.22c-1.47-1.48-3.94-1.48-5.44-0.04l-0.81,0.77c-3.12,2.99-8.07,2.87-11.05-0.25l-0.23-0.24
						c-1.48-1.55-3.95-1.6-5.5-0.12l-0.41,0.39C44.88,54.1,42.93,54.8,40.98,54.75z"/>
				</g>
			</g>
			<line class="st54" x1="1.26" y1="4.77" x2="1.26" y2="91.53"/>
			<line class="st54" x1="150.43" y1="4.77" x2="150.43" y2="91.53"/>
		</g>
	</g>
</g>
<g id="destacado">
</g>
<g id="destacado-hidro">
</g>
<g id="destacado-camion">
</g>
<g id="cont">
</g>
<g id="EMPRESA">
</g>
<g id="SERVICIOS-terminal">
</g>
<g id="SERVICIO-lab">
</g>
<g id="SERV-transp-terrestre">
</g>
<g id="SERV-opera-solidos">
</g>
<g id="COMEX">
</g>
<g id="CONTACTO">
</g>
<g id="COMPROMISO">
</g>
<g id="Capa_19" class="st168">
</g>
<g id="TERMINAL">
</g>
<g id="servicios3">
</g>
<g id="servicios2">
</g>
<g id="servicios1">
</g>
<g id="Capa_10">
</g>
<g id="solapa-servicio">
</g>
<g id="top">
</g>
<g id="esqueletoi">
</g>
<g id="guias">
</g>
</svg>
