<?xml version="1.0" encoding="utf-8"?>
<!-- Generator: Adobe Illustrator 27.9.0, SVG Export Plug-In . SVG Version: 6.00 Build 0)  -->
<svg version="1.1" xmlns="http://www.w3.org/2000/svg" xmlns:xlink="http://www.w3.org/1999/xlink" x="0px" y="0px"
	 viewBox="0 0 91.86 63.62" style="enable-background:new 0 0 91.86 63.62;" xml:space="preserve">
<style type="text/css">
	.st0{fill:#8F8F8F;}
	.st1{fill:#6E6E6E;}
	.st2{fill:#FFFFFF;}
	.st3{clip-path:url(#SVGID_00000166653364429989446410000015322210631533546681_);}
	.st4{fill:#878787;}
	.st5{fill:#4C4C4A;}
	.st6{fill:#858658;}
	.st7{fill:#1BB09D;}
	.st8{fill:#4CABCB;}
	.st9{fill:#737373;}
	.st10{fill:#4FA98B;}
	.st11{fill:#2276BB;}
	.st12{fill:none;stroke:#FFFFFF;stroke-width:0.25;stroke-miterlimit:10;}
	.st13{clip-path:url(#SVGID_00000060750076824084501360000014378280837342968231_);}
	.st14{clip-path:url(#SVGID_00000134931245208858708200000007254646983914770571_);}
	.st15{clip-path:url(#SVGID_00000106119793397911360800000017026228277534888605_);}
	.st16{clip-path:url(#SVGID_00000060717324035378577960000012065577440831350947_);}
	.st17{clip-path:url(#SVGID_00000016767800278240046910000003488810636652755366_);}
	.st18{clip-path:url(#SVGID_00000131347087196590751850000010173000828667294123_);}
	.st19{clip-path:url(#SVGID_00000101075457179417191310000008118204883419426688_);}
	.st20{clip-path:url(#SVGID_00000168074911238774813750000010061025083031118996_);}
	.st21{clip-path:url(#SVGID_00000119085964408866822860000007620054438512045966_);}
	
		.st22{clip-path:url(#SVGID_00000039832159320580611720000003603083384122186929_);fill:url(#SVGID_00000160908232857887172040000014763562030858440606_);}
	.st23{fill:#003DA6;stroke:#003DA6;stroke-width:0.25;stroke-miterlimit:10;}
	.st24{fill:none;stroke:#003DA6;stroke-width:0.3;stroke-miterlimit:10;}
	.st25{fill:#FFFFFF;stroke:#ABABAB;stroke-width:0.3093;stroke-miterlimit:10;}
	.st26{fill:none;stroke:#003DA6;stroke-width:0.5024;stroke-miterlimit:10;}
	.st27{fill:#FFFFFF;stroke:#003DA6;stroke-width:0.3467;stroke-miterlimit:10;}
	.st28{opacity:0.5;fill:url(#SVGID_00000029747641976117779950000001420765826112336572_);}
	.st29{fill:url(#SVGID_00000037655218023374921360000011797535942488196533_);}
	.st30{fill:#E4F4F9;}
	.st31{fill:#003DA6;}
	.st32{fill:#003DA6;stroke:#FFFFFF;stroke-width:0.2257;stroke-miterlimit:10;}
	.st33{fill:#FFFFFF;stroke:#003DA6;stroke-width:0.2257;stroke-miterlimit:10;}
	.st34{fill:#FFFFFF;stroke:#ABABAB;stroke-width:0.3504;stroke-miterlimit:10;}
	.st35{fill-rule:evenodd;clip-rule:evenodd;fill:#FFFFFF;stroke:#ABABAB;stroke-width:0.4053;stroke-miterlimit:10;}
	.st36{fill:#FFFFFF;stroke:#ABABAB;stroke-width:0.4053;stroke-miterlimit:10;}
	.st37{opacity:0.7;fill:url(#SVGID_00000107572597825649794510000000236459037196410756_);}
	.st38{opacity:0.5;fill:#4C4C4A;}
	.st39{opacity:0.5;fill:#858658;}
	.st40{opacity:0.5;fill:#1BB09D;}
	.st41{opacity:0.5;fill:#4CABCB;}
	.st42{opacity:0.5;fill:#737373;}
	.st43{opacity:0.5;fill:#2276BB;}
	.st44{fill:none;stroke:#003DA6;stroke-width:0.2224;stroke-miterlimit:10;}
	.st45{fill:#FFFFFF;stroke:#003DA6;stroke-width:0.2835;stroke-miterlimit:10;}
	.st46{fill:none;stroke:#003DA6;stroke-width:0.1864;stroke-linecap:round;stroke-miterlimit:1;}
	.st47{fill:#FFFFFF;stroke:#003DA6;stroke-width:0.1;stroke-miterlimit:10;}
	.st48{fill:none;stroke:#003DA6;stroke-width:0.2835;stroke-miterlimit:10;}
	.st49{fill:#575757;}
	.st50{clip-path:url(#SVGID_00000066511296044366292770000015628911448547818122_);}
	.st51{opacity:0.7;fill:url(#SVGID_00000023268926865615366880000000604524848214575766_);}
	.st52{fill:none;stroke:#003DA6;stroke-width:0.25;stroke-miterlimit:10;}
	.st53{fill:#1C3F81;}
	.st54{fill:none;stroke:#949494;stroke-width:0.25;stroke-miterlimit:10;}
	.st55{clip-path:url(#SVGID_00000036215827191812889950000008325251870946558132_);}
	.st56{fill:#43B6A5;}
	.st57{fill:#25745C;}
	.st58{clip-path:url(#SVGID_00000139256202487272428550000016444515855261034154_);}
	.st59{fill:url(#SVGID_00000074443328030992372090000014969774789404759219_);}
	.st60{fill:url(#SVGID_00000162352213938027390470000009371119850854452922_);}
	.st61{fill:none;stroke:#FFFFFF;stroke-width:2;stroke-linecap:round;stroke-miterlimit:10;}
	.st62{clip-path:url(#SVGID_00000121967315520613868650000009714514801437911482_);}
	.st63{fill:#003DA6;stroke:#FFFFFF;stroke-width:0.1346;stroke-miterlimit:10;}
	.st64{fill:#141414;}
	.st65{stroke:#FFFFFF;stroke-width:0.1346;stroke-miterlimit:10;}
	.st66{clip-path:url(#SVGID_00000026881291426799009890000011880697657872888464_);}
	.st67{opacity:0.18;}
	.st68{fill:#089F91;}
	.st69{opacity:0.18;fill:#BADDE9;}
	.st70{fill:#F5F4EF;stroke:#FFFFFF;stroke-width:1.8244;stroke-miterlimit:10;}
	.st71{opacity:0.65;fill:#858658;}
	.st72{fill:#C3DFF5;}
	.st73{opacity:0.63;}
	.st74{fill:#9C9B9B;}
	.st75{fill:#A9A9A9;}
	.st76{fill:#35350B;}
	.st77{fill:none;stroke:#FFFFFF;stroke-width:0.1824;stroke-linecap:round;stroke-linejoin:round;stroke-miterlimit:10;}
	.st78{opacity:0.64;}
	.st79{fill:#F5F4EF;}
	.st80{clip-path:url(#SVGID_00000021083027871859041730000008446601467007115182_);}
	.st81{fill:#F5F4EF;stroke:#FFFFFF;stroke-width:1.2815;stroke-miterlimit:10;}
	.st82{opacity:0.65;}
	.st83{fill:none;stroke:#FFFFFF;stroke-width:0.1281;stroke-linecap:round;stroke-linejoin:round;stroke-miterlimit:10;}
	.st84{fill:#1D1D1B;}
	
		.st85{opacity:0.4;clip-path:url(#SVGID_00000168808769144478174260000001427086809977147062_);fill:url(#SVGID_00000003786297658268147400000008693797899199019706_);}
	.st86{fill:#45CFDA;}
	.st87{clip-path:url(#SVGID_00000131354039433765274430000017700581857942332292_);}
	.st88{clip-path:url(#SVGID_00000028327414367358841850000015758829154627178151_);}
	.st89{fill:#FFFFFF;stroke:#ABABAB;stroke-width:0.4901;stroke-miterlimit:10;}
	.st90{fill:url(#SVGID_00000107578002485762268210000005049150500075305900_);}
	.st91{fill-rule:evenodd;clip-rule:evenodd;fill:#FFFFFF;stroke:#ABABAB;stroke-width:0.2763;stroke-miterlimit:10;}
	.st92{fill:#FFFFFF;stroke:#ABABAB;stroke-width:0.2763;stroke-miterlimit:10;}
	.st93{fill:#0A0A0A;}
	.st94{opacity:0.5;}
	.st95{fill:#565630;}
	.st96{fill:#A2E3F4;}
	.st97{fill:#454545;}
	.st98{fill:none;stroke:#454545;stroke-width:0.5151;stroke-miterlimit:10;}
	.st99{clip-path:url(#SVGID_00000144327909092124068880000002441282476124718751_);}
	.st100{clip-path:url(#SVGID_00000147938182764244666700000003284733513867408012_);}
	.st101{fill:none;stroke:#787878;stroke-width:0.2794;stroke-miterlimit:10;}
	.st102{fill:none;stroke:#787878;stroke-width:0.2073;stroke-miterlimit:10;}
	.st103{fill:none;stroke:#A7B972;stroke-width:0.2557;stroke-miterlimit:10;}
	.st104{fill:none;stroke:#A7B972;stroke-width:0.1622;stroke-miterlimit:10;}
	
		.st105{clip-path:url(#SVGID_00000137097861090441065980000003768769232102372019_);fill:url(#SVGID_00000080194658042279450960000016005253281030923152_);}
	.st106{clip-path:url(#SVGID_00000134969751474782310760000009419384221518364565_);}
	.st107{clip-path:url(#SVGID_00000183951925591793327830000006229460533338799027_);}
	.st108{clip-path:url(#SVGID_00000112592339559051686120000005197793131365413790_);}
	.st109{clip-path:url(#SVGID_00000168834114265627223040000003952159234824976059_);}
	.st110{clip-path:url(#SVGID_00000054965151418281611440000003472431016543531692_);}
	.st111{fill:url(#SVGID_00000114760219060341464840000004614626217076715138_);}
	.st112{opacity:0.27;fill:#BADDE9;}
	.st113{clip-path:url(#SVGID_00000084507552520437498640000004125994910293040259_);}
	.st114{opacity:0.29;}
	
		.st115{clip-path:url(#SVGID_00000137122674069106226570000006764635647732338827_);fill:url(#SVGID_00000106828954325797404690000002620805820681997756_);}
	.st116{opacity:0.71;}
	.st117{clip-path:url(#SVGID_00000093173409855690002230000011703353556255260053_);}
	.st118{clip-path:url(#SVGID_00000029046584762915597760000005809999935591347895_);}
	.st119{clip-path:url(#SVGID_00000065070916647822858460000018229494274841486766_);}
	.st120{fill:none;stroke:#575757;stroke-miterlimit:10;}
	.st121{fill:none;stroke:#575757;stroke-width:0.5;stroke-miterlimit:10;}
	.st122{fill:#D1D1D1;stroke:#828282;stroke-width:0.1864;stroke-linecap:round;stroke-miterlimit:1;}
	.st123{fill:#FFFFFF;stroke:#828282;stroke-width:0.1864;stroke-linecap:round;stroke-miterlimit:1;}
	.st124{fill:#828282;stroke:#424242;stroke-width:0.5;stroke-miterlimit:1;}
	.st125{fill:none;stroke:#828282;stroke-width:0.1864;stroke-linecap:round;stroke-miterlimit:1;}
	.st126{fill:none;stroke:#1C1C1C;stroke-width:0.1864;stroke-linecap:round;stroke-miterlimit:1;}
	.st127{fill:none;stroke:#828282;stroke-width:0.75;stroke-linecap:round;stroke-miterlimit:1;}
	.st128{fill:none;stroke:#292929;stroke-width:0.75;stroke-linecap:round;stroke-miterlimit:1;}
	.st129{fill:#363636;}
	.st130{fill:none;stroke:#3D3D3D;stroke-width:0.1864;stroke-linecap:round;stroke-miterlimit:1;}
	.st131{fill:none;stroke:#BDBDBD;stroke-width:0.75;stroke-miterlimit:10;}
	.st132{opacity:0.27;fill:#E8E8E8;}
	.st133{fill:none;stroke:#003DA6;stroke-width:0.1794;stroke-miterlimit:10;}
	.st134{clip-path:url(#SVGID_00000048501975726706340560000005981561570545984170_);}
	.st135{fill:#1F1F1F;}
	.st136{clip-path:url(#SVGID_00000166667915334339284810000001353507654724813723_);}
	.st137{clip-path:url(#SVGID_00000119085012390953603190000009505366031756665775_);}
	.st138{clip-path:url(#SVGID_00000132048145646763875100000002264008207327460015_);}
	.st139{clip-path:url(#SVGID_00000096748732940659931590000000554544786129172135_);}
	.st140{fill:url(#SVGID_00000109721096338372899580000008275890031344075147_);}
	.st141{fill:#C0E3EA;}
	.st142{fill:#27745C;}
	.st143{fill:#4D4D4D;}
	.st144{clip-path:url(#SVGID_00000061456636752363592310000013840774910861144212_);}
	.st145{fill:none;stroke:#4DABCB;stroke-width:2;stroke-miterlimit:10;}
	.st146{fill:none;stroke:#27745C;stroke-width:3;stroke-miterlimit:10;}
	.st147{fill:url(#SVGID_00000005987354989604394550000016853797706622050489_);}
	.st148{fill:url(#SVGID_00000083075614277483657020000000282294719002672057_);}
	.st149{fill:#706F6F;}
	.st150{fill:none;}
	.st151{fill:url(#SVGID_00000173139605283582003060000013651752536226674865_);}
	.st152{fill:none;stroke:#4DABCB;stroke-width:2;stroke-linecap:round;stroke-miterlimit:10;}
	.st153{fill:url(#SVGID_00000125567949027526642080000002917774428555729845_);}
	.st154{clip-path:url(#SVGID_00000052099334440466782260000015074278372115061379_);}
	.st155{opacity:0.35;fill:#1C3F81;}
	.st156{clip-path:url(#SVGID_00000002364040011191557200000015327193880854259382_);}
	.st157{clip-path:url(#SVGID_00000109019015550890985320000008266595391116598183_);}
	.st158{opacity:0.29;fill:#4C1608;}
	.st159{clip-path:url(#SVGID_00000116208445946583156680000010415353998152237702_);}
	.st160{opacity:0.29;fill:#054096;}
	.st161{clip-path:url(#SVGID_00000120544929843383083410000008440604375751293856_);}
	.st162{clip-path:url(#SVGID_00000078018196873400676530000000057587887123922818_);}
	.st163{opacity:0.23;fill:#95A71A;}
	.st164{fill:#799B1C;}
	.st165{opacity:0.5;fill:url(#SVGID_00000123437414071390446260000015163458521971134375_);}
	
		.st166{clip-path:url(#SVGID_00000038396933083746486320000009434340293622537100_);fill:url(#SVGID_00000172400449177579311300000007478096462598719927_);}
	
		.st167{clip-path:url(#SVGID_00000112590147603172990860000012001928189474668422_);fill:url(#SVGID_00000178169138900836070520000010196811764585426845_);}
	.st168{display:none;}
	.st169{clip-path:url(#SVGID_00000023973435969226010980000012198645937840623005_);}
	.st170{clip-path:url(#SVGID_00000098921693996135044020000003622066069241538993_);}
	.st171{opacity:0.57;fill:#BADDE9;}
	.st172{opacity:0.54;fill:#1C3F81;}
	.st173{clip-path:url(#SVGID_00000008866827741311446870000006300433924906687666_);}
	.st174{clip-path:url(#SVGID_00000103968621102281675480000011136225163895862403_);}
	.st175{fill:url(#SVGID_00000117642259020524689700000017686251577791676293_);}
	.st176{fill:url(#SVGID_00000101061235513453264700000005188098303161909403_);}
	.st177{clip-path:url(#SVGID_00000114787449190222733730000017378539704602946728_);}
	.st178{clip-path:url(#SVGID_00000157270829435308059180000004117611066470611842_);}
	.st179{fill:none;stroke:#FFFFFF;stroke-width:0.75;stroke-miterlimit:10;}
	.st180{fill:none;stroke:#FFFFFF;stroke-width:0.7503;stroke-miterlimit:10;}
	.st181{clip-path:url(#SVGID_00000035519561553901016530000007531345504030409639_);fill:#FFFFFF;}
	.st182{fill:none;stroke:#2276BB;stroke-width:0.1;stroke-miterlimit:10;}
	.st183{fill:none;stroke:#FFFFFF;stroke-width:0.5;stroke-miterlimit:10;}
	.st184{clip-path:url(#SVGID_00000144325533410398151750000002658607567365145996_);fill:#FFFFFF;}
	.st185{clip-path:url(#SVGID_00000119076925245234358090000018015279141259139209_);fill:#FFFFFF;}
	.st186{clip-path:url(#SVGID_00000129886537256861889080000004770718855989563553_);fill:#FFFFFF;}
	.st187{fill:url(#SVGID_00000046301370060108211320000001423387777628591278_);}
	.st188{fill:none;stroke:#003DA6;stroke-width:0.2543;stroke-linecap:round;stroke-miterlimit:10;}
	.st189{fill:#BEE2E9;}
	.st190{fill:#7FA6E5;}
	.st191{opacity:0.97;fill:#71D4FF;}
</style>
<g id="iconos-fondo">
</g>
<g id="footer">
</g>
<g id="fondo">
</g>
<g id="detacado-foto">
</g>
<g id="bloque_1-A">
</g>
<g id="bloque_1_B">
	<g>
		<g>
			<path class="st49" d="M14.97,59.37c-0.04,0-0.07,0-0.11,0c-1.29-0.03-2.49-0.56-3.38-1.49l-0.13-0.14
				c-0.77-0.81-2.06-0.84-2.87-0.06L8.24,57.9C7.36,58.74,6.21,59.2,5,59.2c-0.04,0-0.07,0-0.11,0c-1.2-0.03-2.32-0.5-3.18-1.34
				c-0.1-0.1-0.1-0.26,0-0.36c0.09-0.1,0.25-0.1,0.36,0c0.76,0.75,1.77,1.17,2.84,1.19c0.03,0,0.06,0,0.1,0
				c1.08,0,2.11-0.41,2.89-1.16l0.24-0.23c1.01-0.96,2.61-0.93,3.58,0.08l0.13,0.14c0.8,0.84,1.88,1.31,3.03,1.34
				c1.16,0.02,2.25-0.4,3.09-1.2l0.47-0.45c1-0.95,2.59-0.94,3.54,0.03c0.88,0.89,2.13,1.33,3.35,1.22
				c0.93-0.08,1.88-0.53,2.65-1.27l0.21-0.2c0.57-0.54,1.33-0.77,2.11-0.62c0.48,0.09,0.95,0.36,1.35,0.78l0.16,0.17
				c1.64,1.72,4.37,1.79,6.1,0.15l0.61-0.58c0.99-0.94,2.58-0.91,3.54,0.06l0.24,0.24c0.8,0.82,1.89,1.27,3.05,1.28l0.19,0
				c1.05-0.02,2.04-0.43,2.8-1.16l0.24-0.23c0.49-0.47,1.15-0.71,1.81-0.7c0.68,0.02,1.31,0.29,1.77,0.78l0.13,0.14
				c0.8,0.84,1.88,1.31,3.03,1.34c1.13,0.02,2.25-0.4,3.09-1.2L58.88,57c1-0.95,2.58-0.94,3.54,0.03c0.88,0.89,2.13,1.33,3.35,1.22
				c0.94-0.08,1.88-0.53,2.65-1.27l0.21-0.2c0.56-0.54,1.33-0.77,2.11-0.62c0.48,0.09,0.95,0.36,1.35,0.78l0.16,0.17
				c1.64,1.72,4.38,1.78,6.11,0.15l0.61-0.58c0.99-0.94,2.59-0.91,3.54,0.06l0.24,0.24c1.65,1.68,4.38,1.72,6.08,0.09l0.17-0.17
				c0.1-0.1,0.26-0.09,0.36,0.01c0.1,0.1,0.09,0.26-0.01,0.36l-0.17,0.17c-1.9,1.82-4.94,1.77-6.78-0.11l-0.24-0.24
				c-0.77-0.78-2.04-0.81-2.84-0.05l-0.61,0.58c-1.92,1.82-4.98,1.75-6.81-0.17l-0.16-0.17c-0.23-0.24-0.61-0.55-1.08-0.64
				c-0.6-0.11-1.22,0.06-1.67,0.49l-0.21,0.2c-0.86,0.82-1.91,1.32-2.96,1.41c-1.41,0.12-2.77-0.38-3.75-1.37
				c-0.75-0.76-2.05-0.77-2.83-0.02l-0.47,0.45c-0.93,0.89-2.18,1.36-3.45,1.34c-1.29-0.03-2.49-0.56-3.38-1.49l-0.13-0.14
				c-0.37-0.39-0.88-0.61-1.42-0.62c-0.51-0.01-1.05,0.18-1.45,0.56l-0.24,0.23c-0.88,0.84-2.02,1.3-3.24,1.3c-0.04,0-0.07,0-0.11,0
				l-0.25-0.01c-1.2-0.07-2.32-0.57-3.16-1.42l-0.24-0.24c-0.77-0.78-2.05-0.8-2.84-0.05l-0.61,0.58c-1.92,1.82-4.98,1.75-6.81-0.17
				l-0.16-0.17c-0.23-0.24-0.61-0.55-1.09-0.64c-0.61-0.12-1.22,0.07-1.67,0.49l-0.21,0.2c-0.86,0.82-1.91,1.32-2.96,1.41
				c-1.41,0.12-2.77-0.38-3.75-1.37c-0.75-0.76-2.05-0.77-2.83-0.02l-0.47,0.45C17.4,58.9,16.22,59.37,14.97,59.37z"/>
		</g>
		<g>
			<path class="st49" d="M14.97,57.07c-0.02,0-0.04,0-0.06,0c-0.68-0.02-1.31-0.29-1.77-0.78L13,56.15c-0.8-0.83-1.87-1.3-3.03-1.33
				c-1.18-0.03-2.26,0.4-3.09,1.19l-0.24,0.23c-0.91,0.87-2.35,0.89-3.28,0.03c-0.1-0.09-0.11-0.25-0.01-0.36
				c0.09-0.1,0.25-0.11,0.36-0.01c0.73,0.68,1.87,0.67,2.59-0.02l0.24-0.23c0.9-0.86,2.08-1.33,3.33-1.33c0.04,0,0.08,0,0.11,0
				c1.29,0.03,2.49,0.56,3.38,1.49l0.13,0.14c0.37,0.39,0.88,0.61,1.42,0.62c0.02,0,0.03,0,0.05,0c0.53,0,1.02-0.2,1.4-0.56
				l0.58-0.56c0.9-0.86,2.07-1.32,3.35-1.3c1.25,0.03,2.42,0.54,3.29,1.45c0.42,0.44,1.03,0.65,1.64,0.56
				c0.48-0.07,0.87-0.36,1.11-0.59l0.15-0.15c0.93-0.89,2.17-1.37,3.45-1.34c1.29,0.03,2.49,0.56,3.38,1.49l0.15,0.15
				c0.77,0.81,2.05,0.83,2.86,0.07l0.61-0.58c1.89-1.8,4.93-1.75,6.77,0.12l0.24,0.24c0.78,0.79,2.05,0.8,2.85,0.04l0.17-0.17
				c0.97-0.92,2.17-1.39,3.48-1.37c1.29,0.03,2.49,0.56,3.38,1.49l0.13,0.14c0.37,0.39,0.88,0.61,1.42,0.62
				c0.55,0.01,1.05-0.19,1.45-0.56l0.58-0.55c1.87-1.79,4.85-1.72,6.64,0.15c0.42,0.44,1.02,0.65,1.64,0.56
				c0.48-0.07,0.87-0.36,1.11-0.59l0.15-0.15c0.93-0.89,2.14-1.37,3.45-1.34c1.29,0.03,2.49,0.56,3.38,1.49l0.15,0.15
				c0.77,0.8,2.05,0.84,2.86,0.07l0.61-0.58c1.9-1.8,4.94-1.74,6.77,0.12l0.24,0.24c0.77,0.78,2.05,0.81,2.85,0.04l0.17-0.17
				c0.1-0.1,0.26-0.09,0.36,0.01c0.1,0.1,0.09,0.26-0.01,0.36l-0.17,0.17c-0.99,0.95-2.59,0.92-3.55-0.06l-0.24-0.24
				c-1.64-1.67-4.36-1.72-6.07-0.11l-0.61,0.58c-1,0.95-2.6,0.92-3.56-0.09l-0.15-0.15c-0.8-0.84-1.88-1.31-3.03-1.33
				c-0.03,0-0.07,0-0.1,0c-1.12,0-2.17,0.42-2.99,1.2l-0.15,0.15c-0.42,0.4-0.9,0.65-1.39,0.72c-0.78,0.11-1.54-0.15-2.08-0.71
				c-1.6-1.67-4.26-1.73-5.92-0.13l-0.58,0.55c-0.48,0.47-1.14,0.72-1.81,0.7c-0.68-0.02-1.31-0.29-1.77-0.78l-0.13-0.14
				c-0.8-0.83-1.87-1.3-3.03-1.33c-0.03,0-0.07,0-0.1,0c-1.12,0-2.18,0.42-2.98,1.19l-0.21,0.2c-0.99,0.95-2.59,0.93-3.55-0.05
				l-0.24-0.24c-1.64-1.67-4.36-1.72-6.06-0.11l-0.61,0.58c-1.01,0.95-2.61,0.92-3.56-0.09l-0.15-0.15
				c-0.8-0.84-1.88-1.31-3.03-1.34c-0.03,0-0.06,0-0.1,0c-1.12,0-2.18,0.42-2.99,1.2l-0.15,0.15c-0.42,0.4-0.9,0.65-1.39,0.72
				c-0.78,0.11-1.54-0.15-2.08-0.71c-0.77-0.81-1.81-1.27-2.93-1.29c-0.03,0-0.06,0-0.1,0c-1.09,0-2.11,0.41-2.89,1.16l-0.58,0.56
				C16.24,56.82,15.62,57.07,14.97,57.07z"/>
		</g>
		<g>
			<path class="st49" d="M14.94,53.75c-0.04,0-0.07,0-0.11,0c-1.29-0.03-2.49-0.56-3.38-1.49l-0.13-0.14
				c-0.37-0.39-0.88-0.61-1.42-0.62c-0.57-0.01-1.06,0.19-1.45,0.56l-0.24,0.23c-0.88,0.84-2.03,1.3-3.24,1.3c-0.04,0-0.07,0-0.11,0
				c-1.2-0.03-2.32-0.5-3.18-1.34c-0.1-0.1-0.1-0.26,0-0.36c0.1-0.1,0.25-0.1,0.36,0c0.76,0.75,1.77,1.17,2.84,1.19
				c0.03,0,0.06,0,0.1,0c1.08,0,2.11-0.41,2.89-1.16l0.24-0.23c0.49-0.47,1.13-0.72,1.81-0.7c0.68,0.02,1.31,0.29,1.77,0.78
				l0.13,0.14c0.8,0.84,1.88,1.31,3.03,1.34c1.18,0.02,2.25-0.4,3.09-1.2l0.47-0.45c1-0.95,2.59-0.94,3.54,0.03
				c0.88,0.89,2.14,1.33,3.35,1.22c0.94-0.08,1.88-0.53,2.65-1.27l0.21-0.2c0.57-0.54,1.32-0.77,2.11-0.62
				c0.48,0.09,0.95,0.36,1.35,0.78l0.16,0.17c1.64,1.72,4.37,1.79,6.1,0.15l0.61-0.58c0.99-0.94,2.58-0.91,3.54,0.06l0.24,0.24
				c0.8,0.82,1.89,1.27,3.05,1.28l0.19,0c1.05-0.02,2.04-0.43,2.8-1.16l0.24-0.23c0.49-0.47,1.1-0.72,1.81-0.7
				c0.68,0.02,1.31,0.29,1.77,0.78l0.13,0.14c0.8,0.84,1.88,1.31,3.03,1.34c1.16,0.02,2.25-0.4,3.09-1.2l0.47-0.45
				c1-0.95,2.59-0.94,3.54,0.03c0.88,0.89,2.13,1.33,3.35,1.22c0.94-0.08,1.88-0.53,2.65-1.27l0.21-0.2
				c0.56-0.54,1.33-0.76,2.11-0.62c0.48,0.09,0.95,0.36,1.35,0.78l0.16,0.16c1.64,1.72,4.38,1.78,6.11,0.15l0.61-0.58
				c0.99-0.94,2.58-0.91,3.54,0.06l0.24,0.24c1.65,1.68,4.38,1.72,6.08,0.09l0.17-0.17c0.1-0.1,0.26-0.09,0.36,0.01
				c0.1,0.1,0.09,0.26-0.01,0.36l-0.17,0.17c-1.9,1.82-4.94,1.77-6.78-0.11l-0.24-0.24c-0.77-0.78-2.04-0.81-2.84-0.05L78.67,52
				c-1.92,1.82-4.98,1.75-6.81-0.17l-0.16-0.17c-0.23-0.24-0.6-0.55-1.08-0.64c-0.61-0.12-1.22,0.06-1.67,0.49l-0.21,0.2
				c-0.86,0.82-1.91,1.32-2.96,1.41c-1.41,0.12-2.77-0.38-3.75-1.37c-0.75-0.76-2.05-0.77-2.83-0.02l-0.47,0.45
				c-0.94,0.89-2.16,1.37-3.45,1.34c-1.29-0.03-2.49-0.56-3.38-1.49l-0.13-0.14c-0.37-0.39-0.88-0.61-1.42-0.62
				c-0.56-0.01-1.06,0.19-1.45,0.56l-0.24,0.23c-0.88,0.84-2.02,1.3-3.24,1.3c-0.04,0-0.07,0-0.11,0l-0.25-0.01
				c-1.2-0.07-2.32-0.57-3.16-1.42l-0.24-0.24c-0.77-0.78-2.04-0.8-2.84-0.05l-0.61,0.58c-1.92,1.82-4.98,1.75-6.81-0.17l-0.16-0.17
				c-0.23-0.24-0.61-0.55-1.09-0.64c-0.62-0.12-1.22,0.07-1.67,0.49l-0.21,0.2c-0.86,0.82-1.91,1.32-2.96,1.41
				c-1.41,0.12-2.77-0.38-3.75-1.37c-0.75-0.76-2.05-0.77-2.83-0.02l-0.47,0.45C17.37,53.28,16.19,53.75,14.94,53.75z"/>
		</g>
		<g>
			<path class="st49" d="M14.94,51.45c-0.02,0-0.04,0-0.06,0c-0.68-0.02-1.31-0.29-1.77-0.78l-0.13-0.14
				c-0.8-0.83-1.87-1.3-3.03-1.33c-1.16-0.02-2.26,0.4-3.09,1.19l-0.24,0.23c-0.91,0.87-2.35,0.89-3.28,0.03
				c-0.1-0.09-0.11-0.25-0.01-0.36c0.09-0.1,0.25-0.11,0.36-0.01c0.73,0.68,1.87,0.67,2.59-0.02l0.24-0.23
				c0.9-0.86,2.08-1.33,3.33-1.33c0.04,0,0.08,0,0.11,0c1.29,0.03,2.49,0.56,3.38,1.49l0.13,0.14c0.37,0.39,0.88,0.61,1.42,0.62
				c0.52,0.01,1.06-0.19,1.45-0.56l0.58-0.55c0.91-0.86,2.1-1.33,3.35-1.3c1.25,0.03,2.42,0.54,3.29,1.45
				c0.42,0.44,1.03,0.65,1.64,0.56c0.48-0.07,0.87-0.36,1.11-0.59l0.15-0.15c0.91-0.87,2.09-1.34,3.34-1.34c0.04,0,0.07,0,0.11,0
				c1.29,0.03,2.49,0.56,3.38,1.49l0.15,0.15c0.77,0.81,2.05,0.84,2.86,0.07l0.61-0.58c1.89-1.8,4.93-1.75,6.77,0.12l0.24,0.24
				c0.78,0.79,2.05,0.8,2.85,0.04l0.17-0.17c0.97-0.92,2.2-1.39,3.48-1.37c1.29,0.03,2.49,0.56,3.38,1.49l0.13,0.14
				c0.37,0.39,0.88,0.61,1.42,0.62c0.02,0,0.03,0,0.05,0c0.53,0,1.02-0.2,1.4-0.56l0.58-0.55c1.87-1.79,4.85-1.72,6.64,0.15
				c0.42,0.44,1.03,0.65,1.64,0.56c0.48-0.07,0.87-0.36,1.11-0.59l0.15-0.15c0.93-0.89,2.16-1.37,3.45-1.34
				c1.29,0.03,2.49,0.56,3.38,1.49l0.15,0.15c0.77,0.8,2.05,0.84,2.86,0.07l0.61-0.58c1.89-1.8,4.93-1.75,6.77,0.12l0.24,0.24
				c0.77,0.78,2.05,0.81,2.85,0.04l0.17-0.17c0.1-0.1,0.26-0.09,0.36,0.01c0.1,0.1,0.09,0.26-0.01,0.36l-0.17,0.17
				c-1,0.95-2.59,0.92-3.55-0.06l-0.24-0.24c-1.64-1.67-4.36-1.72-6.07-0.11l-0.61,0.58c-1,0.95-2.6,0.92-3.56-0.09l-0.15-0.15
				c-0.8-0.84-1.88-1.31-3.03-1.33c-1.16-0.02-2.25,0.4-3.09,1.2l-0.15,0.15c-0.42,0.4-0.9,0.65-1.39,0.72
				c-0.79,0.11-1.54-0.15-2.08-0.71c-1.6-1.67-4.26-1.73-5.92-0.13l-0.58,0.55c-0.49,0.47-1.11,0.71-1.81,0.7
				c-0.68-0.02-1.31-0.29-1.77-0.78l-0.13-0.14c-0.8-0.83-1.87-1.3-3.03-1.33c-1.16-0.02-2.26,0.4-3.09,1.19l-0.21,0.2
				c-1,0.95-2.59,0.92-3.55-0.06l-0.24-0.24c-1.64-1.67-4.36-1.72-6.06-0.11l-0.61,0.58c-1.01,0.95-2.61,0.92-3.56-0.09l-0.15-0.15
				c-0.8-0.84-1.88-1.31-3.03-1.34c-0.03,0-0.06,0-0.1,0c-1.12,0-2.18,0.42-2.99,1.2l-0.15,0.15c-0.42,0.4-0.9,0.65-1.39,0.72
				c-0.78,0.11-1.54-0.15-2.08-0.71c-0.77-0.81-1.81-1.27-2.93-1.29c-0.03,0-0.06,0-0.1,0c-1.09,0-2.11,0.41-2.89,1.16l-0.58,0.55
				C16.22,51.2,15.6,51.45,14.94,51.45z"/>
		</g>
	</g>
	<g>
		<path class="st8" d="M65.93,32.37l0-18.97c0-6.78-5.5-12.28-12.28-12.28l-16.79,0c-6.78,0-12.28,5.5-12.28,12.28l0,18.97
			L65.93,32.37z"/>
	</g>
</g>
<g id="destacado">
</g>
<g id="destacado-hidro">
</g>
<g id="destacado-camion">
</g>
<g id="cont">
</g>
<g id="EMPRESA">
</g>
<g id="SERVICIOS-terminal">
</g>
<g id="SERVICIO-lab">
</g>
<g id="SERV-transp-terrestre">
</g>
<g id="SERV-opera-solidos">
</g>
<g id="COMEX">
</g>
<g id="CONTACTO">
</g>
<g id="COMPROMISO">
</g>
<g id="Capa_19" class="st168">
</g>
<g id="TERMINAL">
</g>
<g id="servicios3">
</g>
<g id="servicios2">
</g>
<g id="servicios1">
</g>
<g id="Capa_10">
</g>
<g id="solapa-servicio">
</g>
<g id="top">
</g>
<g id="esqueletoi">
</g>
<g id="guias">
</g>
</svg>
