<?xml version="1.0" encoding="utf-8"?>
<!-- Generator: Adobe Illustrator 27.9.0, SVG Export Plug-In . SVG Version: 6.00 Build 0)  -->
<svg version="1.1" xmlns="http://www.w3.org/2000/svg" xmlns:xlink="http://www.w3.org/1999/xlink" x="0px" y="0px"
	 viewBox="0 0 91.86 63.62" style="enable-background:new 0 0 91.86 63.62;" xml:space="preserve">
<style type="text/css">
	.st0{fill:#8F8F8F;}
	.st1{fill:#6E6E6E;}
	.st2{fill:#FFFFFF;}
	.st3{clip-path:url(#SVGID_00000042731879750592301660000013857855732097569930_);}
	.st4{fill:#878787;}
	.st5{fill:#4C4C4A;}
	.st6{fill:#858658;}
	.st7{fill:#1BB09D;}
	.st8{fill:#4CABCB;}
	.st9{fill:#737373;}
	.st10{fill:#4FA98B;}
	.st11{fill:#2276BB;}
	.st12{fill:none;stroke:#FFFFFF;stroke-width:0.25;stroke-miterlimit:10;}
	.st13{clip-path:url(#SVGID_00000127728917264484442660000011264254350421870511_);}
	.st14{clip-path:url(#SVGID_00000138560892834894451160000002876349744789528960_);}
	.st15{clip-path:url(#SVGID_00000053526128394647694930000010229917545807941536_);}
	.st16{clip-path:url(#SVGID_00000106850091775131074380000016490767597730699418_);}
	.st17{clip-path:url(#SVGID_00000159465151318938913650000017103891683508699819_);}
	.st18{clip-path:url(#SVGID_00000114071579421293902030000009011747616429241498_);}
	.st19{clip-path:url(#SVGID_00000073709863399243178340000009392712791390275213_);}
	.st20{clip-path:url(#SVGID_00000050628789991480299610000004329619621296442543_);}
	.st21{clip-path:url(#SVGID_00000002345476999609577800000002810643360292314246_);}
	
		.st22{clip-path:url(#SVGID_00000025417737065730375540000013194831472238291135_);fill:url(#SVGID_00000181798165215718609280000003967385722798434225_);}
	.st23{fill:#003DA6;stroke:#003DA6;stroke-width:0.25;stroke-miterlimit:10;}
	.st24{fill:none;stroke:#003DA6;stroke-width:0.3;stroke-miterlimit:10;}
	.st25{fill:#FFFFFF;stroke:#ABABAB;stroke-width:0.3093;stroke-miterlimit:10;}
	.st26{fill:none;stroke:#003DA6;stroke-width:0.5024;stroke-miterlimit:10;}
	.st27{fill:#FFFFFF;stroke:#003DA6;stroke-width:0.3467;stroke-miterlimit:10;}
	.st28{opacity:0.5;fill:url(#SVGID_00000163067235598990722790000014137371965763223735_);}
	.st29{fill:url(#SVGID_00000109711215210564918070000003396073116997548460_);}
	.st30{fill:#E4F4F9;}
	.st31{fill:#003DA6;}
	.st32{fill:#003DA6;stroke:#FFFFFF;stroke-width:0.2257;stroke-miterlimit:10;}
	.st33{fill:#FFFFFF;stroke:#003DA6;stroke-width:0.2257;stroke-miterlimit:10;}
	.st34{fill:#FFFFFF;stroke:#ABABAB;stroke-width:0.3504;stroke-miterlimit:10;}
	.st35{fill-rule:evenodd;clip-rule:evenodd;fill:#FFFFFF;stroke:#ABABAB;stroke-width:0.4053;stroke-miterlimit:10;}
	.st36{fill:#FFFFFF;stroke:#ABABAB;stroke-width:0.4053;stroke-miterlimit:10;}
	.st37{opacity:0.7;fill:url(#SVGID_00000094616069767391705270000002549114795709755324_);}
	.st38{opacity:0.5;fill:#4C4C4A;}
	.st39{opacity:0.5;fill:#858658;}
	.st40{opacity:0.5;fill:#1BB09D;}
	.st41{opacity:0.5;fill:#4CABCB;}
	.st42{opacity:0.5;fill:#737373;}
	.st43{opacity:0.5;fill:#2276BB;}
	.st44{fill:none;stroke:#003DA6;stroke-width:0.2224;stroke-miterlimit:10;}
	.st45{fill:#FFFFFF;stroke:#003DA6;stroke-width:0.2835;stroke-miterlimit:10;}
	.st46{fill:none;stroke:#003DA6;stroke-width:0.1864;stroke-linecap:round;stroke-miterlimit:1;}
	.st47{fill:#FFFFFF;stroke:#003DA6;stroke-width:0.1;stroke-miterlimit:10;}
	.st48{fill:none;stroke:#003DA6;stroke-width:0.2835;stroke-miterlimit:10;}
	.st49{fill:#575757;}
	.st50{clip-path:url(#SVGID_00000064328152552904050250000007587858325448583324_);}
	.st51{opacity:0.7;fill:url(#SVGID_00000057137092160807493080000016745858521145234874_);}
	.st52{fill:none;stroke:#003DA6;stroke-width:0.25;stroke-miterlimit:10;}
	.st53{fill:#1C3F81;}
	.st54{fill:none;stroke:#949494;stroke-width:0.25;stroke-miterlimit:10;}
	.st55{clip-path:url(#SVGID_00000129910407945857979740000013396785689881925020_);}
	.st56{fill:#43B6A5;}
	.st57{fill:#25745C;}
	.st58{clip-path:url(#SVGID_00000013881585788456134690000005785878353286214027_);}
	.st59{fill:url(#SVGID_00000160187972129495052980000000946274087651451022_);}
	.st60{fill:url(#SVGID_00000166663476648724596520000016246070728583999420_);}
	.st61{fill:none;stroke:#FFFFFF;stroke-width:2;stroke-linecap:round;stroke-miterlimit:10;}
	.st62{clip-path:url(#SVGID_00000158024446357174145710000009539138222779375004_);}
	.st63{fill:#003DA6;stroke:#FFFFFF;stroke-width:0.1346;stroke-miterlimit:10;}
	.st64{fill:#141414;}
	.st65{stroke:#FFFFFF;stroke-width:0.1346;stroke-miterlimit:10;}
	.st66{clip-path:url(#SVGID_00000021097348305055842870000016508809548212957863_);}
	.st67{opacity:0.18;}
	.st68{fill:#089F91;}
	.st69{opacity:0.18;fill:#BADDE9;}
	.st70{fill:#F5F4EF;stroke:#FFFFFF;stroke-width:1.8244;stroke-miterlimit:10;}
	.st71{opacity:0.65;fill:#858658;}
	.st72{fill:#C3DFF5;}
	.st73{opacity:0.63;}
	.st74{fill:#9C9B9B;}
	.st75{fill:#A9A9A9;}
	.st76{fill:#35350B;}
	.st77{fill:none;stroke:#FFFFFF;stroke-width:0.1824;stroke-linecap:round;stroke-linejoin:round;stroke-miterlimit:10;}
	.st78{opacity:0.64;}
	.st79{fill:#F5F4EF;}
	.st80{clip-path:url(#SVGID_00000048502904476423618020000007608547236048178111_);}
	.st81{fill:#F5F4EF;stroke:#FFFFFF;stroke-width:1.2815;stroke-miterlimit:10;}
	.st82{opacity:0.65;}
	.st83{fill:none;stroke:#FFFFFF;stroke-width:0.1281;stroke-linecap:round;stroke-linejoin:round;stroke-miterlimit:10;}
	.st84{fill:#1D1D1B;}
	
		.st85{opacity:0.4;clip-path:url(#SVGID_00000183244629246555829980000000863596538899255690_);fill:url(#SVGID_00000165197683138613910210000001876188341269515694_);}
	.st86{fill:#45CFDA;}
	.st87{clip-path:url(#SVGID_00000112623248431042185740000000283384468902994850_);}
	.st88{clip-path:url(#SVGID_00000008850109500641130190000013953486811369914294_);}
	.st89{fill:#FFFFFF;stroke:#ABABAB;stroke-width:0.4901;stroke-miterlimit:10;}
	.st90{fill:url(#SVGID_00000100358385312073241770000015340338068157280432_);}
	.st91{fill-rule:evenodd;clip-rule:evenodd;fill:#FFFFFF;stroke:#ABABAB;stroke-width:0.2763;stroke-miterlimit:10;}
	.st92{fill:#FFFFFF;stroke:#ABABAB;stroke-width:0.2763;stroke-miterlimit:10;}
	.st93{fill:#0A0A0A;}
	.st94{opacity:0.5;}
	.st95{fill:#565630;}
	.st96{fill:#A2E3F4;}
	.st97{fill:#454545;}
	.st98{fill:none;stroke:#454545;stroke-width:0.5151;stroke-miterlimit:10;}
	.st99{clip-path:url(#SVGID_00000117673792540058401810000012241928087618206100_);}
	.st100{clip-path:url(#SVGID_00000148661965644779721380000001584964976471636141_);}
	.st101{fill:none;stroke:#787878;stroke-width:0.2794;stroke-miterlimit:10;}
	.st102{fill:none;stroke:#787878;stroke-width:0.2073;stroke-miterlimit:10;}
	.st103{fill:none;stroke:#A7B972;stroke-width:0.2557;stroke-miterlimit:10;}
	.st104{fill:none;stroke:#A7B972;stroke-width:0.1622;stroke-miterlimit:10;}
	
		.st105{clip-path:url(#SVGID_00000152221968847893741410000018316088495258873491_);fill:url(#SVGID_00000016784843489287545600000005510928069073344919_);}
	.st106{clip-path:url(#SVGID_00000124873857959689174190000010168466878107537310_);}
	.st107{clip-path:url(#SVGID_00000098899690732161563530000007267291159247155127_);}
	.st108{clip-path:url(#SVGID_00000158018233004955984420000007636287671893972644_);}
	.st109{clip-path:url(#SVGID_00000042695408475119741750000013131506008158104704_);}
	.st110{clip-path:url(#SVGID_00000085220856277922776090000004640594036892872858_);}
	.st111{fill:url(#SVGID_00000119078676431067594350000008076782756573206697_);}
	.st112{opacity:0.27;fill:#BADDE9;}
	.st113{clip-path:url(#SVGID_00000183959316248710442180000010941172665992893092_);}
	.st114{opacity:0.29;}
	
		.st115{clip-path:url(#SVGID_00000134213988740036103460000014787747667967428501_);fill:url(#SVGID_00000039128559631031480780000006685976365297941659_);}
	.st116{opacity:0.71;}
	.st117{clip-path:url(#SVGID_00000161592280533919119760000015239066075046244786_);}
	.st118{clip-path:url(#SVGID_00000136372043354229118200000007205237765166632118_);}
	.st119{clip-path:url(#SVGID_00000090277165580554427390000017466419639190390194_);}
	.st120{fill:none;stroke:#575757;stroke-miterlimit:10;}
	.st121{fill:none;stroke:#575757;stroke-width:0.5;stroke-miterlimit:10;}
	.st122{fill:#D1D1D1;stroke:#828282;stroke-width:0.1864;stroke-linecap:round;stroke-miterlimit:1;}
	.st123{fill:#FFFFFF;stroke:#828282;stroke-width:0.1864;stroke-linecap:round;stroke-miterlimit:1;}
	.st124{fill:#828282;stroke:#424242;stroke-width:0.5;stroke-miterlimit:1;}
	.st125{fill:none;stroke:#828282;stroke-width:0.1864;stroke-linecap:round;stroke-miterlimit:1;}
	.st126{fill:none;stroke:#1C1C1C;stroke-width:0.1864;stroke-linecap:round;stroke-miterlimit:1;}
	.st127{fill:none;stroke:#828282;stroke-width:0.75;stroke-linecap:round;stroke-miterlimit:1;}
	.st128{fill:none;stroke:#292929;stroke-width:0.75;stroke-linecap:round;stroke-miterlimit:1;}
	.st129{fill:#363636;}
	.st130{fill:none;stroke:#3D3D3D;stroke-width:0.1864;stroke-linecap:round;stroke-miterlimit:1;}
	.st131{fill:none;stroke:#BDBDBD;stroke-width:0.75;stroke-miterlimit:10;}
	.st132{opacity:0.27;fill:#E8E8E8;}
	.st133{fill:none;stroke:#003DA6;stroke-width:0.1794;stroke-miterlimit:10;}
	.st134{clip-path:url(#SVGID_00000012442144480487491450000000983279607959608225_);}
	.st135{fill:#1F1F1F;}
	.st136{clip-path:url(#SVGID_00000078766033053651197760000013045990490626934462_);}
	.st137{clip-path:url(#SVGID_00000150071170679271626090000000347042380022895007_);}
	.st138{clip-path:url(#SVGID_00000144311398583268998040000005889683431009297331_);}
	.st139{clip-path:url(#SVGID_00000029739766762481980630000004114229935244782012_);}
	.st140{fill:url(#SVGID_00000084507879190232213600000010117441579366761407_);}
	.st141{fill:#C0E3EA;}
	.st142{fill:#27745C;}
	.st143{fill:#4D4D4D;}
	.st144{clip-path:url(#SVGID_00000103240109052611933620000015068659494277208507_);}
	.st145{fill:none;stroke:#4DABCB;stroke-width:2;stroke-miterlimit:10;}
	.st146{fill:none;stroke:#27745C;stroke-width:3;stroke-miterlimit:10;}
	.st147{fill:url(#SVGID_00000001665348783929829200000013300553717386926489_);}
	.st148{fill:url(#SVGID_00000117640255616567087920000000787069566277098895_);}
	.st149{fill:#706F6F;}
	.st150{fill:none;}
	.st151{fill:url(#SVGID_00000048480903581656026470000001440917593710097820_);}
	.st152{fill:none;stroke:#4DABCB;stroke-width:2;stroke-linecap:round;stroke-miterlimit:10;}
	.st153{fill:url(#SVGID_00000041256336239324493190000005913589099772547753_);}
	.st154{clip-path:url(#SVGID_00000173143353263795283170000016441777820787266217_);}
	.st155{opacity:0.35;fill:#1C3F81;}
	.st156{clip-path:url(#SVGID_00000114766970845800207470000016273719976131564438_);}
	.st157{clip-path:url(#SVGID_00000050662741903986706490000007923344102243018402_);}
	.st158{opacity:0.29;fill:#4C1608;}
	.st159{clip-path:url(#SVGID_00000043421144966440863810000004288529554837751707_);}
	.st160{opacity:0.29;fill:#054096;}
	.st161{clip-path:url(#SVGID_00000123438376829598675540000018293348239363866036_);}
	.st162{clip-path:url(#SVGID_00000167360136508830855560000002154478037281422241_);}
	.st163{opacity:0.23;fill:#95A71A;}
	.st164{fill:#799B1C;}
	.st165{opacity:0.5;fill:url(#SVGID_00000116957185243989852200000002467542540993342646_);}
	
		.st166{clip-path:url(#SVGID_00000106127006750240405610000000611408517186449041_);fill:url(#SVGID_00000067953753505387581260000008276335429749722036_);}
	
		.st167{clip-path:url(#SVGID_00000028291071854113179300000007982329367513984419_);fill:url(#SVGID_00000016077512309872887310000015315216355083629481_);}
	.st168{display:none;}
	.st169{clip-path:url(#SVGID_00000105397064362927049600000012787595925634797491_);}
	.st170{clip-path:url(#SVGID_00000111161817119155521130000014053444750254258838_);}
	.st171{opacity:0.57;fill:#BADDE9;}
	.st172{opacity:0.54;fill:#1C3F81;}
	.st173{clip-path:url(#SVGID_00000133527208500220577560000005620218352258037410_);}
	.st174{clip-path:url(#SVGID_00000116228236824314425620000015019217175841925263_);}
	.st175{fill:url(#SVGID_00000183950190697599373660000005451393637553303742_);}
	.st176{fill:url(#SVGID_00000008118364715064158430000006103272522403697338_);}
	.st177{clip-path:url(#SVGID_00000039102973754143931580000016122340997296663213_);}
	.st178{clip-path:url(#SVGID_00000004536811152270988430000004991046823943124610_);}
	.st179{fill:none;stroke:#FFFFFF;stroke-width:0.75;stroke-miterlimit:10;}
	.st180{fill:none;stroke:#FFFFFF;stroke-width:0.7503;stroke-miterlimit:10;}
	.st181{clip-path:url(#SVGID_00000055708849446927634370000006663796590413718201_);fill:#FFFFFF;}
	.st182{fill:none;stroke:#2276BB;stroke-width:0.1;stroke-miterlimit:10;}
	.st183{fill:none;stroke:#FFFFFF;stroke-width:0.5;stroke-miterlimit:10;}
	.st184{clip-path:url(#SVGID_00000088854760871203050860000017731124798632876732_);fill:#FFFFFF;}
	.st185{clip-path:url(#SVGID_00000080907403876558583800000017202868460022525616_);fill:#FFFFFF;}
	.st186{clip-path:url(#SVGID_00000154410172275232096930000016953783759247820169_);fill:#FFFFFF;}
	.st187{fill:url(#SVGID_00000044143900974594352140000010917356840426466995_);}
	.st188{fill:none;stroke:#003DA6;stroke-width:0.2543;stroke-linecap:round;stroke-miterlimit:10;}
	.st189{fill:#BEE2E9;}
	.st190{fill:#7FA6E5;}
	.st191{opacity:0.97;fill:#71D4FF;}
</style>
<g id="iconos-fondo">
</g>
<g id="footer">
</g>
<g id="fondo">
</g>
<g id="detacado-foto">
</g>
<g id="bloque_1-A">
</g>
<g id="bloque_1_B">
	<g>
		<g>
			<g>
				<path class="st49" d="M6.56,53.84c-2.41,0-4.37-2.25-4.37-5.01H2.7c0,2.44,1.73,4.43,3.87,4.43c2.13,0,3.86-1.99,3.86-4.43h0.51
					C10.93,51.6,8.97,53.84,6.56,53.84z"/>
			</g>
			<g>
				<path class="st49" d="M14.79,53.84c-2.41,0-4.37-2.25-4.37-5.01h0.51c0,2.44,1.73,4.43,3.86,4.43s3.86-1.99,3.86-4.43h0.51
					C19.16,51.6,17.2,53.84,14.79,53.84z"/>
			</g>
			<g>
				<path class="st49" d="M23.03,53.84c-2.41,0-4.37-2.25-4.37-5.01h0.51c0,2.44,1.73,4.43,3.87,4.43c2.13,0,3.86-1.99,3.86-4.43
					h0.51C27.4,51.6,25.44,53.84,23.03,53.84z"/>
			</g>
			<g>
				<path class="st49" d="M31.26,53.84c-2.41,0-4.37-2.25-4.37-5.01h0.51c0,2.44,1.73,4.43,3.86,4.43s3.86-1.99,3.86-4.43h0.51
					C35.63,51.6,33.67,53.84,31.26,53.84z"/>
			</g>
			<g>
				<path class="st49" d="M39.49,53.84c-2.41,0-4.37-2.25-4.37-5.01h0.51c0,2.44,1.73,4.43,3.87,4.43c2.13,0,3.86-1.99,3.86-4.43
					h0.51C43.86,51.6,41.9,53.84,39.49,53.84z"/>
			</g>
			<g>
				<path class="st49" d="M47.72,53.84c-2.41,0-4.37-2.25-4.37-5.01h0.51c0,2.44,1.73,4.43,3.86,4.43c2.13,0,3.86-1.99,3.86-4.43
					h0.51C52.09,51.6,50.13,53.84,47.72,53.84z"/>
			</g>
			<g>
				<path class="st49" d="M55.96,53.84c-2.41,0-4.37-2.25-4.37-5.01h0.51c0,2.44,1.73,4.43,3.87,4.43c2.13,0,3.86-1.99,3.86-4.43
					h0.51C60.33,51.6,58.37,53.84,55.96,53.84z"/>
			</g>
			<g>
				<path class="st49" d="M64.19,53.84c-2.41,0-4.37-2.25-4.37-5.01h0.51c0,2.44,1.73,4.43,3.86,4.43c2.13,0,3.86-1.99,3.86-4.43
					h0.51C68.56,51.6,66.6,53.84,64.19,53.84z"/>
			</g>
			<g>
				<path class="st49" d="M72.42,53.84c-2.41,0-4.37-2.25-4.37-5.01h0.51c0,2.44,1.73,4.43,3.87,4.43c2.13,0,3.86-1.99,3.86-4.43
					h0.51C76.79,51.6,74.83,53.84,72.42,53.84z"/>
			</g>
			<g>
				<path class="st49" d="M80.66,53.84c-2.41,0-4.37-2.25-4.37-5.01h0.51c0,2.44,1.73,4.43,3.86,4.43s3.86-1.99,3.86-4.43h0.51
					C85.03,51.6,83.07,53.84,80.66,53.84z"/>
			</g>
		</g>
		<g>
			<g>
				<path class="st49" d="M11.37,56.36C8.96,56.36,7,54.11,7,51.35H7.5c0,2.44,1.73,4.43,3.86,4.43s3.86-1.99,3.86-4.43h0.51
					C15.74,54.11,13.78,56.36,11.37,56.36z"/>
			</g>
			<g>
				<path class="st49" d="M19.6,56.36c-2.41,0-4.37-2.25-4.37-5.01h0.51c0,2.44,1.73,4.43,3.87,4.43c2.13,0,3.86-1.99,3.86-4.43
					h0.51C23.97,54.11,22.01,56.36,19.6,56.36z"/>
			</g>
			<g>
				<path class="st49" d="M27.83,56.36c-2.41,0-4.37-2.25-4.37-5.01h0.51c0,2.44,1.73,4.43,3.86,4.43s3.86-1.99,3.86-4.43h0.51
					C32.2,54.11,30.24,56.36,27.83,56.36z"/>
			</g>
			<g>
				<path class="st49" d="M36.07,56.36c-2.41,0-4.37-2.25-4.37-5.01h0.51c0,2.44,1.73,4.43,3.87,4.43c2.13,0,3.86-1.99,3.86-4.43
					h0.51C40.44,54.11,38.48,56.36,36.07,56.36z"/>
			</g>
			<g>
				<path class="st49" d="M44.3,56.36c-2.41,0-4.37-2.25-4.37-5.01h0.51c0,2.44,1.73,4.43,3.86,4.43c2.13,0,3.86-1.99,3.86-4.43
					h0.51C48.67,54.11,46.71,56.36,44.3,56.36z"/>
			</g>
			<g>
				<path class="st49" d="M52.53,56.36c-2.41,0-4.37-2.25-4.37-5.01h0.51c0,2.44,1.73,4.43,3.87,4.43c2.13,0,3.86-1.99,3.86-4.43
					h0.51C56.9,54.11,54.94,56.36,52.53,56.36z"/>
			</g>
			<g>
				<path class="st49" d="M60.76,56.36c-2.41,0-4.37-2.25-4.37-5.01h0.51c0,2.44,1.73,4.43,3.86,4.43c2.13,0,3.86-1.99,3.86-4.43
					h0.51C65.13,54.11,63.17,56.36,60.76,56.36z"/>
			</g>
			<g>
				<path class="st49" d="M69,56.36c-2.41,0-4.37-2.25-4.37-5.01h0.51c0,2.44,1.73,4.43,3.87,4.43c2.13,0,3.86-1.99,3.86-4.43h0.51
					C73.37,54.11,71.41,56.36,69,56.36z"/>
			</g>
			<g>
				<path class="st49" d="M77.23,56.36c-2.41,0-4.37-2.25-4.37-5.01h0.51c0,2.44,1.73,4.43,3.86,4.43c2.13,0,3.86-1.99,3.86-4.43
					h0.51C81.6,54.11,79.64,56.36,77.23,56.36z"/>
			</g>
			<g>
				<path class="st49" d="M85.46,56.36c-2.41,0-4.37-2.25-4.37-5.01h0.51c0,2.44,1.73,4.43,3.87,4.43c2.13,0,3.86-1.99,3.86-4.43
					h0.51C89.83,54.11,87.87,56.36,85.46,56.36z"/>
			</g>
		</g>
		<g>
			<g>
				<path class="st49" d="M6.56,58.87c-2.41,0-4.37-2.25-4.37-5.01H2.7c0,2.44,1.73,4.43,3.87,4.43c2.13,0,3.86-1.99,3.86-4.43h0.51
					C10.93,56.63,8.97,58.87,6.56,58.87z"/>
			</g>
			<g>
				<path class="st49" d="M14.79,58.87c-2.41,0-4.37-2.25-4.37-5.01h0.51c0,2.44,1.73,4.43,3.86,4.43s3.86-1.99,3.86-4.43h0.51
					C19.16,56.63,17.2,58.87,14.79,58.87z"/>
			</g>
			<g>
				<path class="st49" d="M23.03,58.87c-2.41,0-4.37-2.25-4.37-5.01h0.51c0,2.44,1.73,4.43,3.87,4.43c2.13,0,3.86-1.99,3.86-4.43
					h0.51C27.4,56.63,25.44,58.87,23.03,58.87z"/>
			</g>
			<g>
				<path class="st49" d="M31.26,58.87c-2.41,0-4.37-2.25-4.37-5.01h0.51c0,2.44,1.73,4.43,3.86,4.43s3.86-1.99,3.86-4.43h0.51
					C35.63,56.63,33.67,58.87,31.26,58.87z"/>
			</g>
			<g>
				<path class="st49" d="M39.49,58.87c-2.41,0-4.37-2.25-4.37-5.01h0.51c0,2.44,1.73,4.43,3.87,4.43c2.13,0,3.86-1.99,3.86-4.43
					h0.51C43.86,56.63,41.9,58.87,39.49,58.87z"/>
			</g>
			<g>
				<path class="st49" d="M47.72,58.87c-2.41,0-4.37-2.25-4.37-5.01h0.51c0,2.44,1.73,4.43,3.86,4.43c2.13,0,3.86-1.99,3.86-4.43
					h0.51C52.09,56.63,50.13,58.87,47.72,58.87z"/>
			</g>
			<g>
				<path class="st49" d="M55.96,58.87c-2.41,0-4.37-2.25-4.37-5.01h0.51c0,2.44,1.73,4.43,3.87,4.43c2.13,0,3.86-1.99,3.86-4.43
					h0.51C60.33,56.63,58.37,58.87,55.96,58.87z"/>
			</g>
			<g>
				<path class="st49" d="M64.19,58.87c-2.41,0-4.37-2.25-4.37-5.01h0.51c0,2.44,1.73,4.43,3.86,4.43c2.13,0,3.86-1.99,3.86-4.43
					h0.51C68.56,56.63,66.6,58.87,64.19,58.87z"/>
			</g>
			<g>
				<path class="st49" d="M72.42,58.87c-2.41,0-4.37-2.25-4.37-5.01h0.51c0,2.44,1.73,4.43,3.87,4.43c2.13,0,3.86-1.99,3.86-4.43
					h0.51C76.79,56.63,74.83,58.87,72.42,58.87z"/>
			</g>
			<g>
				<path class="st49" d="M80.66,58.87c-2.41,0-4.37-2.25-4.37-5.01h0.51c0,2.44,1.73,4.43,3.86,4.43s3.86-1.99,3.86-4.43h0.51
					C85.03,56.63,83.07,58.87,80.66,58.87z"/>
			</g>
		</g>
	</g>
	<g>
		<path class="st56" d="M65.92,32.37l0-18.97c0-6.78-5.5-12.28-12.28-12.28l-16.79,0c-6.78,0-12.28,5.5-12.28,12.28l0,18.97
			L65.92,32.37z"/>
	</g>
</g>
<g id="destacado">
</g>
<g id="destacado-hidro">
</g>
<g id="destacado-camion">
</g>
<g id="cont">
</g>
<g id="EMPRESA">
</g>
<g id="SERVICIOS-terminal">
</g>
<g id="SERVICIO-lab">
</g>
<g id="SERV-transp-terrestre">
</g>
<g id="SERV-opera-solidos">
</g>
<g id="COMEX">
</g>
<g id="CONTACTO">
</g>
<g id="COMPROMISO">
</g>
<g id="Capa_19" class="st168">
</g>
<g id="TERMINAL">
</g>
<g id="servicios3">
</g>
<g id="servicios2">
</g>
<g id="servicios1">
</g>
<g id="Capa_10">
</g>
<g id="solapa-servicio">
</g>
<g id="top">
</g>
<g id="esqueletoi">
</g>
<g id="guias">
</g>
</svg>
