<?xml version="1.0" encoding="utf-8"?>
<!-- Generator: Adobe Illustrator 27.9.0, SVG Export Plug-In . SVG Version: 6.00 Build 0)  -->
<svg version="1.1" xmlns="http://www.w3.org/2000/svg" xmlns:xlink="http://www.w3.org/1999/xlink" x="0px" y="0px"
	 viewBox="0 0 856.1 140.84" style="enable-background:new 0 0 856.1 140.84;" xml:space="preserve">
<style type="text/css">
	.st0{display:none;}
	.st1{display:inline;}
	.st2{fill:#8F8F8F;}
	.st3{fill:#6E6E6E;}
	.st4{fill:#FFFFFF;}
	.st5{clip-path:url(#SVGID_00000039128219286917162660000000070562764956895394_);}
	.st6{fill:#878787;}
	.st7{fill:#4C4C4A;}
	.st8{fill:#858658;}
	.st9{fill:#1BB09D;}
	.st10{fill:#4CABCB;}
	.st11{fill:#737373;}
	.st12{fill:#4FA98B;}
	.st13{fill:#2276BB;}
	.st14{fill:none;stroke:#FFFFFF;stroke-width:0.25;stroke-miterlimit:10;}
	.st15{clip-path:url(#SVGID_00000077316236414184564360000017711765007850504377_);}
	.st16{clip-path:url(#SVGID_00000047038004981741528490000002475096827803364236_);}
	.st17{clip-path:url(#SVGID_00000071522524580169723420000001495520237517859751_);}
	.st18{clip-path:url(#SVGID_00000090293501341117184220000007260356573986476471_);}
	.st19{clip-path:url(#SVGID_00000176045700055713178320000004876897351670086056_);}
	.st20{clip-path:url(#SVGID_00000026885236913804001260000007960995916601632163_);}
	.st21{clip-path:url(#SVGID_00000090274968902038353100000010190687600275955590_);}
	.st22{clip-path:url(#SVGID_00000177467875338200431210000017969406614998579111_);}
	.st23{clip-path:url(#SVGID_00000033371028164918977340000008677129295274751405_);}
	
		.st24{clip-path:url(#SVGID_00000026123805121333846870000016132506256940431780_);fill:url(#SVGID_00000041295985879945698260000013337780872191537567_);}
	.st25{fill:#003DA6;stroke:#003DA6;stroke-width:0.25;stroke-miterlimit:10;}
	.st26{fill:none;stroke:#003DA6;stroke-width:0.3;stroke-miterlimit:10;}
	.st27{fill:#FFFFFF;stroke:#ABABAB;stroke-width:0.3093;stroke-miterlimit:10;}
	.st28{fill:none;stroke:#003DA6;stroke-width:0.5024;stroke-miterlimit:10;}
	.st29{fill:#FFFFFF;stroke:#003DA6;stroke-width:0.3467;stroke-miterlimit:10;}
	.st30{opacity:0.5;fill:url(#SVGID_00000134238963219892787340000001819837722783671476_);}
	.st31{fill:url(#SVGID_00000136396688308126040790000016218179500598507437_);}
	.st32{fill:#E4F4F9;}
	.st33{fill:#003DA6;}
	.st34{fill:#003DA6;stroke:#FFFFFF;stroke-width:0.2257;stroke-miterlimit:10;}
	.st35{fill:#FFFFFF;stroke:#003DA6;stroke-width:0.2257;stroke-miterlimit:10;}
	.st36{fill:#FFFFFF;stroke:#ABABAB;stroke-width:0.3504;stroke-miterlimit:10;}
	.st37{fill-rule:evenodd;clip-rule:evenodd;fill:#FFFFFF;stroke:#ABABAB;stroke-width:0.4053;stroke-miterlimit:10;}
	.st38{fill:#FFFFFF;stroke:#ABABAB;stroke-width:0.4053;stroke-miterlimit:10;}
	.st39{opacity:0.7;fill:url(#SVGID_00000098184935108834977160000000556136652968575648_);}
	.st40{opacity:0.5;fill:#4C4C4A;}
	.st41{opacity:0.5;fill:#858658;}
	.st42{opacity:0.5;fill:#1BB09D;}
	.st43{opacity:0.5;fill:#4CABCB;}
	.st44{opacity:0.5;fill:#737373;}
	.st45{opacity:0.5;fill:#2276BB;}
	.st46{fill:none;stroke:#003DA6;stroke-width:0.2224;stroke-miterlimit:10;}
	.st47{fill:#FFFFFF;stroke:#003DA6;stroke-width:0.2835;stroke-miterlimit:10;}
	.st48{fill:none;stroke:#003DA6;stroke-width:0.1864;stroke-linecap:round;stroke-miterlimit:1;}
	.st49{fill:#FFFFFF;stroke:#003DA6;stroke-width:0.1;stroke-miterlimit:10;}
	.st50{fill:none;stroke:#003DA6;stroke-width:0.2835;stroke-miterlimit:10;}
	.st51{fill:#575757;}
	.st52{clip-path:url(#SVGID_00000003788772166569766060000009538072961112235915_);}
	.st53{opacity:0.7;fill:url(#SVGID_00000083078395412282145400000007039624701332518068_);}
	.st54{fill:none;stroke:#003DA6;stroke-width:0.25;stroke-miterlimit:10;}
	.st55{fill:#1C3F81;}
	.st56{fill:none;stroke:#949494;stroke-width:0.25;stroke-miterlimit:10;}
	.st57{clip-path:url(#SVGID_00000105412102656202851350000003255473437713467068_);}
	.st58{fill:#43B6A5;}
	.st59{fill:#25745C;}
	.st60{clip-path:url(#SVGID_00000060022427514180692720000012009249927341759639_);}
	.st61{display:inline;fill:#1C3F81;}
	.st62{display:inline;fill:#4C4C4A;}
	.st63{fill:url(#SVGID_00000018941343184967325610000006794278565423973773_);}
	.st64{fill:url(#SVGID_00000034784218463320777030000004901742505737309058_);}
	.st65{fill:none;stroke:#FFFFFF;stroke-width:2;stroke-linecap:round;stroke-miterlimit:10;}
	.st66{clip-path:url(#SVGID_00000066514970032936652200000016936928203994794140_);}
	.st67{fill:#003DA6;stroke:#FFFFFF;stroke-width:0.1346;stroke-miterlimit:10;}
	.st68{fill:#141414;}
	.st69{stroke:#FFFFFF;stroke-width:0.1346;stroke-miterlimit:10;}
	.st70{clip-path:url(#SVGID_00000125602722816681772640000004333644233915608461_);}
	.st71{opacity:0.18;}
	.st72{fill:#089F91;}
	.st73{opacity:0.18;fill:#BADDE9;}
	.st74{fill:#F5F4EF;stroke:#FFFFFF;stroke-width:1.8244;stroke-miterlimit:10;}
	.st75{opacity:0.65;fill:#858658;}
	.st76{fill:#C3DFF5;}
	.st77{opacity:0.63;}
	.st78{fill:#9C9B9B;}
	.st79{fill:#A9A9A9;}
	.st80{fill:#35350B;}
	.st81{fill:none;stroke:#FFFFFF;stroke-width:0.1824;stroke-linecap:round;stroke-linejoin:round;stroke-miterlimit:10;}
	.st82{opacity:0.64;}
	.st83{fill:#F5F4EF;}
	.st84{clip-path:url(#SVGID_00000059283718338156757840000001464231527845994392_);}
	.st85{fill:#F5F4EF;stroke:#FFFFFF;stroke-width:1.2815;stroke-miterlimit:10;}
	.st86{opacity:0.65;}
	.st87{fill:none;stroke:#FFFFFF;stroke-width:0.1281;stroke-linecap:round;stroke-linejoin:round;stroke-miterlimit:10;}
	.st88{fill:#1D1D1B;}
	
		.st89{opacity:0.4;clip-path:url(#SVGID_00000126287398089539834250000000298810668111770548_);fill:url(#SVGID_00000002365720107740628480000002524940003625157549_);}
	.st90{fill:#45CFDA;}
	.st91{clip-path:url(#SVGID_00000081627693369225930180000007005199278944516536_);}
	.st92{clip-path:url(#SVGID_00000097458236258320110440000001579074654663895426_);}
	.st93{fill:#FFFFFF;stroke:#ABABAB;stroke-width:0.4901;stroke-miterlimit:10;}
	.st94{fill:url(#SVGID_00000023989754608128535070000004794104300759586473_);}
	.st95{fill-rule:evenodd;clip-rule:evenodd;fill:#FFFFFF;stroke:#ABABAB;stroke-width:0.2763;stroke-miterlimit:10;}
	.st96{fill:#FFFFFF;stroke:#ABABAB;stroke-width:0.2763;stroke-miterlimit:10;}
	.st97{fill:#0A0A0A;}
	.st98{opacity:0.5;}
	.st99{fill:#565630;}
	.st100{fill:#A2E3F4;}
	.st101{fill:#454545;}
	.st102{fill:none;stroke:#454545;stroke-width:0.5151;stroke-miterlimit:10;}
	.st103{clip-path:url(#SVGID_00000043435573808404840340000004732836781575927718_);}
	.st104{clip-path:url(#SVGID_00000082341423889133551710000009180575448610572477_);}
	.st105{fill:none;stroke:#787878;stroke-width:0.2794;stroke-miterlimit:10;}
	.st106{fill:none;stroke:#787878;stroke-width:0.2073;stroke-miterlimit:10;}
	.st107{fill:none;stroke:#A7B972;stroke-width:0.2557;stroke-miterlimit:10;}
	.st108{fill:none;stroke:#A7B972;stroke-width:0.1622;stroke-miterlimit:10;}
	
		.st109{clip-path:url(#SVGID_00000005266427803639456180000011226372147743169925_);fill:url(#SVGID_00000042703001163970014980000008109991443591116987_);}
	.st110{clip-path:url(#SVGID_00000118359883703155860380000014014774422776589218_);}
	.st111{clip-path:url(#SVGID_00000036974474471012613910000005460489179249194664_);}
	.st112{clip-path:url(#SVGID_00000153680715478217112460000011117577677217990843_);}
	.st113{clip-path:url(#SVGID_00000018215472383792274550000013365773732803296437_);}
	.st114{clip-path:url(#SVGID_00000048501117790825776060000017736823871629377469_);}
	.st115{fill:url(#SVGID_00000171702651883088167240000006118982139637888389_);}
	.st116{fill:none;stroke:#003DA6;stroke-width:0.3467;stroke-miterlimit:10;}
	.st117{opacity:0.27;fill:#BADDE9;}
	.st118{clip-path:url(#SVGID_00000168834215825158047250000011108909475657740205_);}
	.st119{opacity:0.29;}
	
		.st120{clip-path:url(#SVGID_00000161633654053396656100000008181440200489158839_);fill:url(#SVGID_00000129198647803920494860000009308631678988681917_);}
	.st121{opacity:0.71;}
	.st122{clip-path:url(#SVGID_00000165933571759575647090000001042558800586284173_);}
	.st123{clip-path:url(#SVGID_00000083073624975677884250000010994352630102793646_);}
	.st124{clip-path:url(#SVGID_00000088121254164108931390000007461923698913002413_);}
	.st125{fill:none;stroke:#575757;stroke-miterlimit:10;}
	.st126{fill:none;stroke:#575757;stroke-width:0.5;stroke-miterlimit:10;}
	.st127{fill:#D1D1D1;stroke:#828282;stroke-width:0.1864;stroke-linecap:round;stroke-miterlimit:1;}
	.st128{fill:#FFFFFF;stroke:#828282;stroke-width:0.1864;stroke-linecap:round;stroke-miterlimit:1;}
	.st129{fill:#828282;stroke:#424242;stroke-width:0.5;stroke-miterlimit:1;}
	.st130{fill:none;stroke:#828282;stroke-width:0.1864;stroke-linecap:round;stroke-miterlimit:1;}
	.st131{fill:none;stroke:#1C1C1C;stroke-width:0.1864;stroke-linecap:round;stroke-miterlimit:1;}
	.st132{fill:none;stroke:#828282;stroke-width:0.75;stroke-linecap:round;stroke-miterlimit:1;}
	.st133{fill:none;stroke:#292929;stroke-width:0.75;stroke-linecap:round;stroke-miterlimit:1;}
	.st134{fill:#363636;}
	.st135{fill:none;stroke:#3D3D3D;stroke-width:0.1864;stroke-linecap:round;stroke-miterlimit:1;}
	.st136{fill:none;stroke:#BDBDBD;stroke-width:0.75;stroke-miterlimit:10;}
	.st137{opacity:0.27;fill:#E8E8E8;}
	.st138{fill:none;stroke:#003DA6;stroke-width:0.1794;stroke-miterlimit:10;}
	.st139{clip-path:url(#SVGID_00000168809448074580322400000003832428198453851795_);}
	.st140{fill:#1F1F1F;}
	.st141{clip-path:url(#SVGID_00000072249269296266441380000008276565174560800388_);}
	.st142{clip-path:url(#SVGID_00000139995691271126761040000012709180313450368694_);}
	.st143{clip-path:url(#SVGID_00000005980527175749323930000016314810011232299696_);}
	.st144{clip-path:url(#SVGID_00000040552420190399087700000008049483534847333008_);}
	.st145{fill:url(#SVGID_00000000198314808662500080000005296594876732833436_);}
	.st146{fill:#C0E3EA;}
	.st147{fill:#27745C;}
	.st148{fill:#4D4D4D;}
	.st149{clip-path:url(#SVGID_00000176735887828975475730000015839482256894327460_);}
	.st150{fill:none;stroke:#4DABCB;stroke-width:2;stroke-miterlimit:10;}
	.st151{fill:none;stroke:#27745C;stroke-width:3;stroke-miterlimit:10;}
	.st152{fill:url(#SVGID_00000141454906171041440670000007465237780664930707_);}
	.st153{fill:url(#SVGID_00000105428339236409723630000001843881712950054301_);}
	.st154{fill:#706F6F;}
	.st155{fill:none;}
	.st156{fill:url(#SVGID_00000133487524827987182030000014091985493786347425_);}
	.st157{fill:none;stroke:#4DABCB;stroke-width:2;stroke-linecap:round;stroke-miterlimit:10;}
	.st158{fill:url(#SVGID_00000139260702497061500160000011692990901930184112_);}
	.st159{clip-path:url(#SVGID_00000039129780104954465280000008099082443846796719_);}
	.st160{opacity:0.35;fill:#1C3F81;}
	.st161{clip-path:url(#SVGID_00000057828253038437119050000017323869065268420995_);}
	.st162{clip-path:url(#SVGID_00000052785531436704294160000001212108759689608851_);}
	.st163{opacity:0.29;fill:#4C1608;}
	.st164{clip-path:url(#SVGID_00000064318926528177377710000017862362132032235420_);}
	.st165{opacity:0.29;fill:#054096;}
	.st166{clip-path:url(#SVGID_00000134223986480924653650000018209951341606341807_);}
	.st167{clip-path:url(#SVGID_00000026877131211566341140000014092731569601960839_);}
	.st168{opacity:0.23;fill:#95A71A;}
	.st169{fill:#799B1C;}
	.st170{opacity:0.5;fill:url(#SVGID_00000090984599396573353550000012482982077344625577_);}
	
		.st171{clip-path:url(#SVGID_00000139263119998775304900000002857191693908233892_);fill:url(#SVGID_00000100368061414249888210000000507582417417791136_);}
	
		.st172{clip-path:url(#SVGID_00000176734397823122087930000012285976011100538041_);fill:url(#SVGID_00000094586032667846498080000014716619566368035975_);}
	.st173{clip-path:url(#SVGID_00000092415268321939516540000014619341754817499578_);}
	.st174{clip-path:url(#SVGID_00000124136900842278796460000017782023767169997736_);}
	.st175{opacity:0.57;fill:#BADDE9;}
	.st176{opacity:0.54;fill:#1C3F81;}
	.st177{clip-path:url(#SVGID_00000136412444944696654900000003025928576563739812_);}
	.st178{clip-path:url(#SVGID_00000058552282239949763850000015635098713705453701_);}
	.st179{fill:url(#SVGID_00000084512727251898069570000015937218207279874211_);}
	.st180{fill:url(#SVGID_00000139282500536160574820000000545755260600737709_);}
	.st181{clip-path:url(#SVGID_00000059309542524655798810000006838835506212993929_);}
	.st182{clip-path:url(#SVGID_00000103240126182517609540000011456363423918010549_);}
	.st183{fill:none;stroke:#FFFFFF;stroke-width:0.75;stroke-miterlimit:10;}
	.st184{fill:none;stroke:#FFFFFF;stroke-width:0.7503;stroke-miterlimit:10;}
	.st185{clip-path:url(#SVGID_00000068662851325930313270000005781465104479974560_);fill:#FFFFFF;}
	.st186{fill:none;stroke:#2276BB;stroke-width:0.1;stroke-miterlimit:10;}
	.st187{fill:none;stroke:#FFFFFF;stroke-width:0.5;stroke-miterlimit:10;}
	.st188{clip-path:url(#SVGID_00000121267667831167137120000000082531060078036136_);fill:#FFFFFF;}
	.st189{clip-path:url(#SVGID_00000169551343666836643150000012426968036868933268_);fill:#FFFFFF;}
	.st190{clip-path:url(#SVGID_00000089532371548585178660000006541728316237193123_);fill:#FFFFFF;}
	.st191{fill:url(#SVGID_00000155104034961627825700000004723774028395490964_);}
	.st192{fill:none;stroke:#003DA6;stroke-width:0.2543;stroke-linecap:round;stroke-miterlimit:10;}
	.st193{fill:#BEE2E9;}
	.st194{fill:#7FA6E5;}
	.st195{opacity:0.97;fill:#71D4FF;}
</style>
<g id="iconos-fondo" class="st0">
</g>
<g id="footer">
</g>
<g id="fondo">
</g>
<g id="detacado-foto">
</g>
<g id="bloque_1-A">
</g>
<g id="bloque_1_B">
</g>
<g id="destacado" class="st0">
</g>
<g id="destacado-hidro" class="st0">
</g>
<g id="destacado-camion">
</g>
<g id="cont">
</g>
<g id="EMPRESA">
	<g>
		<g>
			<path class="st33" d="M407.15,94.02v0.75h-6.34v-0.75l3.03-0.34h0.39L407.15,94.02z M404.44,73.35l0.4,0.23l-0.08,4.08v11.07
				c0,1.88,0.03,4.45,0.09,6.04h-1.59c0.06-1.59,0.09-4.16,0.09-6.04V74.96l-2.52-0.12v-0.75L404.44,73.35z M412.95,81.21
				l-8.88,8.95V89l7.62-7.79H412.95z M412.23,93.69l3.01,0.34v0.75h-3.29l-5.01-8.01l1.01-1.04l5.41,8.59L412.23,93.69z
				 M410.92,82.37L408.13,82v-0.79h6.47V82l-3.18,0.3L410.92,82.37z"/>
			<path class="st33" d="M418.92,94.78c0.06-1.29,0.09-4.26,0.09-6.04v-1.39c0-1.84-0.03-3.33-0.09-4.66l-2.52-0.11v-0.75l3.5-0.91
				l0.35,0.22l0.17,3.17v4.43c0,1.78,0.03,4.75,0.09,6.04H418.92z M422.69,94.02v0.75h-6.16v-0.75l2.99-0.34h0.39L422.69,94.02z
				 M429.1,85.88v2.85c0,1.84,0.03,4.75,0.09,6.04h-1.59c0.06-1.29,0.09-4.2,0.09-6.04v-2.77c0-2.81-1-3.83-2.54-3.83
				c-1.36,0-2.87,0.58-4.94,2.82h-0.5v-0.89h0.9l-0.67,0.28c1.86-2.32,3.79-3.51,5.68-3.51C427.8,80.84,429.1,82.21,429.1,85.88z
				 M428.6,93.69l2.77,0.34v0.75h-6.16v-0.75l2.99-0.34H428.6z M437.78,85.76v2.98c0,1.84,0.03,4.75,0.09,6.04h-1.59
				c0.06-1.29,0.09-4.2,0.09-6.04v-2.8c0-2.84-1-3.8-2.65-3.8c-1.33,0-2.93,0.55-4.85,2.63h-0.54v-0.75h0.92l-0.71,0.15
				c1.77-2.26,3.73-3.32,5.65-3.32C436.44,80.84,437.78,82.19,437.78,85.76z M437.28,93.69l2.77,0.34v0.75h-6.16v-0.75l2.99-0.34
				H437.28z"/>
			<path class="st33" d="M453.86,84.49c2.69,0,4.63-1.53,4.63-4.2c0-2.3-1.38-3.75-3.82-3.75c-1.08,0-2,0.21-3.09,0.78l0.95-0.84
				l-0.79,2.24c-0.24,0.76-0.49,1.06-1.07,1.06c-0.41,0-0.75-0.19-0.89-0.67c0.63-2.41,2.82-3.43,5.12-3.43
				c3.12,0,5.11,1.89,5.11,4.58c0,2.38-1.82,4.38-4.89,4.86v-0.27c3.58,0.2,5.5,2.07,5.5,4.97c0,3.22-2.54,5.34-6.02,5.34
				c-2.66,0-4.62-1.13-5.29-3.49c0.14-0.45,0.46-0.7,0.93-0.7c0.54,0,0.79,0.34,1.04,1.1l0.86,2.36l-0.95-0.95
				c0.96,0.54,1.91,0.81,3.13,0.81c3.1,0,4.76-1.77,4.76-4.45c0-2.83-1.67-4.42-5.08-4.42h-1.29v-0.93H453.86z"/>
			<path class="st33" d="M463.04,88.73v-0.93l8.66-11.99h0.95v18.96h-1.42V77.16h0.46l-7.83,10.89l0.04-0.47h12.03v1.15H463.04z"/>
			<path class="st33" d="M482.22,84.49c2.69,0,4.63-1.53,4.63-4.2c0-2.3-1.38-3.75-3.82-3.75c-1.08,0-2,0.21-3.09,0.78l0.95-0.84
				l-0.79,2.24c-0.24,0.76-0.49,1.06-1.07,1.06c-0.41,0-0.75-0.19-0.89-0.67c0.63-2.41,2.82-3.43,5.12-3.43
				c3.12,0,5.11,1.89,5.11,4.58c0,2.38-1.82,4.38-4.9,4.86v-0.27c3.58,0.2,5.5,2.07,5.5,4.97c0,3.22-2.54,5.34-6.02,5.34
				c-2.66,0-4.62-1.13-5.29-3.49c0.14-0.45,0.46-0.7,0.93-0.7c0.54,0,0.79,0.34,1.04,1.1l0.86,2.36l-0.95-0.95
				c0.96,0.54,1.91,0.81,3.13,0.81c3.1,0,4.76-1.77,4.76-4.45c0-2.83-1.67-4.42-5.08-4.42h-1.29v-0.93H482.22z"/>
		</g>
	</g>
	<g>
		<g>
			<path class="st116" d="M193.41,117.31L193.41,117.31c4.64,0.11,9.32-1.55,12.93-5.01l0.98-0.94c3.7-3.54,9.62-3.4,13.15,0.3
				l0.55,0.57c7.13,7.46,18.97,7.73,26.43,0.59l1.94-1.85c3.6-3.45,9.51-3.45,13.01,0.09c3.79,3.83,9.02,5.77,14.51,5.3
				c4.32-0.37,8.32-2.48,11.45-5.48l0.84-0.8c2.04-1.95,4.85-2.8,7.71-2.27c1.92,0.36,3.63,1.48,4.98,2.89l0.65,0.68
				c7.07,7.4,18.94,7.69,26.37,0.65l2.48-2.35c3.65-3.46,9.51-3.35,13.03,0.23l0.97,0.98c7.11,7.23,18.92,7.42,26.25,0.41l0.71-0.68
				"/>
			<path class="st116" d="M365.85,103.83l-0.71,0.68c-3.65,3.49-9.52,3.4-13.06-0.2l-0.97-0.98c-7.08-7.2-18.87-7.41-26.19-0.46
				l-2.48,2.35c-3.7,3.5-9.6,3.36-13.12-0.32l-0.59-0.62c-7.14-7.46-18.97-7.73-26.43-0.59l-0.63,0.6c-1.42,1.35-3.17,2.4-5.1,2.67
				c-2.88,0.4-5.65-0.57-7.6-2.61c-6.91-7.23-18.41-7.48-25.64-0.57l-2.37,2.26c-3.7,3.54-9.62,3.4-13.15-0.3l-0.55-0.57
				c-7.1-7.43-18.99-7.7-26.42-0.6l-0.15,0.14c0,0,0,0,0,0l-0.71,0.68"/>
			<path class="st116" d="M193.31,94.37L193.31,94.37c4.64,0.11,9.32-1.55,12.93-5.01l0.98-0.94c3.7-3.54,9.62-3.4,13.15,0.3
				l0.55,0.57c7.13,7.46,18.97,7.73,26.43,0.59l1.94-1.85c3.6-3.45,9.51-3.45,13.01,0.09c3.79,3.83,9.02,5.77,14.51,5.3
				c4.32-0.37,8.32-2.48,11.45-5.48l0.84-0.8c2.04-1.95,4.85-2.8,7.71-2.27c1.92,0.36,3.63,1.48,4.98,2.89l0.65,0.68
				c7.07,7.4,18.94,7.69,26.37,0.65l2.48-2.35c3.65-3.46,9.51-3.35,13.03,0.23l0.97,0.98c7.11,7.23,18.92,7.42,26.25,0.41l0.71-0.68
				"/>
			<path class="st116" d="M365.75,80.89l-0.71,0.68c-3.65,3.49-9.52,3.4-13.06-0.2l-0.97-0.98c-7.08-7.2-18.87-7.41-26.19-0.46
				l-2.48,2.35c-3.7,3.5-9.6,3.36-13.12-0.32l-0.59-0.62c-7.14-7.46-18.97-7.73-26.43-0.59l-0.63,0.6c-1.41,1.35-3.17,2.4-5.1,2.67
				c-2.88,0.4-5.65-0.57-7.6-2.61c-6.91-7.23-18.41-7.48-25.64-0.57l-2.37,2.26c-3.7,3.54-9.62,3.4-13.15-0.3l-0.55-0.57
				c-7.1-7.43-18.99-7.7-26.42-0.6l-0.15,0.14c0,0,0,0,0,0l-0.71,0.68"/>
		</g>
	</g>
	<g>
		<g>
			<path class="st29" d="M774.04,111.36l-0.49,0.47c-2.51,2.4-6.55,2.33-8.98-0.14l-0.66-0.68c-4.87-4.95-12.97-5.1-18.01-0.32
				l-1.71,1.62c-2.54,2.41-6.6,2.31-9.02-0.22l-0.41-0.43c-4.91-5.13-13.04-5.31-18.17-0.41l-0.43,0.42
				c-0.97,0.93-2.18,1.65-3.51,1.83c-1.98,0.28-3.88-0.39-5.23-1.79c-4.75-4.97-12.66-5.14-17.63-0.39l-1.63,1.56
				c-2.54,2.43-6.61,2.34-9.04-0.2l-0.38-0.39c-4.88-5.11-13.06-5.3-18.17-0.41l-0.1,0.1c0,0,0,0,0,0l-0.49,0.47
				c-2.51,2.4-6.55,2.33-8.98-0.14l-0.66-0.68c-4.87-4.95-12.97-5.1-18.01-0.32l-1.71,1.62c-2.54,2.41-6.6,2.31-9.02-0.22
				l-0.41-0.43c-4.91-5.13-13.04-5.31-18.17-0.41l-0.43,0.42c-0.97,0.93-2.18,1.65-3.51,1.83c-1.98,0.28-3.88-0.39-5.23-1.79
				c-4.75-4.97-12.66-5.14-17.63-0.39l-1.63,1.56c-2.54,2.43-6.61,2.34-9.04-0.2l-0.38-0.39c-4.88-5.11-13.06-5.3-18.17-0.41
				l-0.68,0.65c-2.31,2.21-5.93,2.21-8.24,0.07l-4.64,4.5c2.34,2.29,5.38,3.48,8.44,3.55c3.19,0.07,6.41-1.07,8.9-3.45l0.67-0.65
				c2.54-2.43,6.61-2.34,9.04,0.2l0.38,0.39c4.9,5.13,13.04,5.31,18.17,0.41l1.33-1.27c2.48-2.37,6.54-2.37,8.95,0.06
				c2.61,2.64,6.2,3.97,9.97,3.65c2.97-0.25,5.72-1.71,7.87-3.77l0.58-0.55c1.4-1.34,3.33-1.92,5.3-1.56
				c1.32,0.25,2.49,1.02,3.42,1.99l0.44,0.46c4.86,5.09,13.02,5.29,18.13,0.44l1.71-1.62c2.51-2.38,6.54-2.3,8.96,0.16l0.66,0.68
				c2.47,2.51,5.76,3.78,9.07,3.81l0,0c3.19,0.07,6.41-1.07,8.9-3.45l0.67-0.65c2.54-2.43,6.61-2.34,9.04,0.2l0.38,0.39
				c4.9,5.13,13.04,5.31,18.17,0.41l1.33-1.27c2.48-2.37,6.54-2.37,8.95,0.06c2.61,2.64,6.2,3.97,9.97,3.65
				c2.97-0.25,5.72-1.71,7.87-3.77l0.58-0.55c1.4-1.34,3.33-1.92,5.3-1.56c1.32,0.25,2.49,1.02,3.42,1.99l0.44,0.46
				c4.86,5.09,13.02,5.29,18.13,0.44l1.71-1.62c2.51-2.38,6.54-2.3,8.96,0.16l0.66,0.68c4.89,4.97,13.01,5.1,18.05,0.28l0.49-0.47"
				/>
			<path class="st29" d="M773.97,95.59l-0.49,0.47c-2.51,2.4-6.55,2.33-8.98-0.14l-0.66-0.68c-4.87-4.95-12.97-5.1-18.01-0.32
				l-1.71,1.62c-2.54,2.41-6.6,2.31-9.02-0.22l-0.41-0.43c-4.91-5.13-13.04-5.31-18.17-0.41l-0.43,0.42
				c-0.97,0.93-2.18,1.65-3.51,1.83c-1.98,0.28-3.88-0.39-5.23-1.79c-4.75-4.97-12.66-5.14-17.63-0.39l-1.63,1.56
				c-2.54,2.43-6.61,2.34-9.04-0.2l-0.38-0.39c-4.88-5.11-13.06-5.3-18.17-0.41l-0.1,0.1c0,0,0,0,0,0l-0.49,0.47
				c-2.51,2.4-6.55,2.33-8.98-0.14l-0.66-0.68c-4.87-4.95-12.97-5.1-18.01-0.32l-1.71,1.62c-2.54,2.41-6.6,2.31-9.02-0.22
				l-0.41-0.43c-4.91-5.13-13.04-5.31-18.17-0.41l-0.43,0.42c-0.97,0.93-2.18,1.65-3.51,1.83c-1.98,0.28-3.88-0.39-5.23-1.79
				c-4.75-4.97-12.66-5.14-17.63-0.39l-1.63,1.56c-2.54,2.43-6.61,2.34-9.04-0.2l-0.38-0.39c-4.88-5.11-13.06-5.3-18.17-0.41
				l-0.68,0.65c-2.31,2.21-5.93,2.21-8.23,0.07l-4.64,4.5c2.34,2.29,5.38,3.48,8.44,3.55c3.19,0.07,6.41-1.07,8.9-3.45l0.67-0.65
				c2.54-2.43,6.61-2.34,9.04,0.2l0.38,0.39c4.9,5.13,13.04,5.31,18.17,0.41l1.33-1.27c2.48-2.37,6.54-2.37,8.95,0.06
				c2.61,2.64,6.2,3.97,9.97,3.65c2.97-0.25,5.72-1.71,7.87-3.77l0.58-0.55c1.4-1.34,3.33-1.92,5.3-1.56
				c1.32,0.25,2.49,1.02,3.42,1.99l0.44,0.46c4.86,5.09,13.02,5.29,18.13,0.44l1.71-1.62c2.51-2.38,6.54-2.3,8.96,0.16l0.66,0.68
				c2.47,2.51,5.76,3.78,9.07,3.81l0,0c3.19,0.07,6.41-1.07,8.9-3.45l0.67-0.65c2.54-2.43,6.61-2.34,9.04,0.2l0.38,0.39
				c4.9,5.13,13.04,5.31,18.17,0.41l1.33-1.27c2.48-2.37,6.54-2.37,8.95,0.06c2.61,2.64,6.2,3.97,9.97,3.65
				c2.97-0.25,5.72-1.71,7.87-3.77l0.58-0.55c1.4-1.34,3.33-1.92,5.3-1.56c1.32,0.25,2.49,1.02,3.42,1.99l0.44,0.46
				c4.86,5.09,13.02,5.29,18.13,0.44l1.71-1.62c2.51-2.38,6.54-2.3,8.96,0.16l0.66,0.68c4.89,4.97,13.01,5.1,18.05,0.28l0.49-0.47"
				/>
		</g>
	</g>
	<g>
		<g>
			<path class="st33" d="M401.22,44.89v-0.81h3.75v1.1h-0.24L401.22,44.89z M405.21,62.37l3.52,0.29v0.81h-7.51v-0.81l3.52-0.29
				H405.21z M404.19,53c0-2.98,0-5.97-0.07-8.92h1.71c-0.07,2.96-0.07,5.88-0.07,9.72v0.47c0,3.27,0,6.26,0.07,9.2h-1.71
				c0.07-2.92,0.07-5.91,0.07-8.92V53z M404.97,53.58h3.94c3.02,0,4.98-1.91,4.98-4.42c0-2.57-1.57-4.17-5.04-4.17h-3.88v-0.91h3.92
				c4.2,0,6.58,1.82,6.58,5.08c0,2.72-2.08,4.85-5.56,5.13l-0.1-0.25c2.14,0.25,2.94,1.12,3.67,3.28l1.87,5.52l-0.62-0.41l3.1,0.23
				v0.81c-0.42,0.1-1.11,0.2-1.93,0.2c-1.56,0-2.08-0.43-2.38-1.39l-1.54-4.93c-0.68-2.21-1.44-2.9-3.96-2.9h-3.06V53.58z"/>
			<path class="st33" d="M422.05,57.43v-1.39c0-1.84-0.03-3.33-0.09-4.66l-2.52-0.11v-0.75l3.75-0.91l0.35,0.22l-0.07,3.56v4.04
				c0,1.78,0.03,4.75,0.09,6.04h-1.59C422.02,62.18,422.05,59.21,422.05,57.43z M419.57,62.72l2.99-0.34h0.39l2.77,0.34v0.75h-6.16
				V62.72z M424.81,43.02c0.51-0.74,0.81-1,1.18-1c0.38,0,0.72,0.24,0.72,0.72c0,0.32-0.21,0.65-0.87,1.3
				c-0.96,0.96-2.13,2.13-3.34,3.3l-0.48-0.38C423,45.59,423.97,44.18,424.81,43.02z"/>
			<path class="st33" d="M428.43,56.75c0-4.86,3.2-7.21,6.37-7.21c3.15,0,6.37,2.35,6.37,7.21c0,4.86-3.22,7.1-6.37,7.1
				C431.62,63.84,428.43,61.6,428.43,56.75z M439.57,56.75c0-3.97-1.86-6.35-4.77-6.35c-2.94,0-4.77,2.37-4.77,6.35
				c0,3.97,1.83,6.23,4.77,6.23C437.71,62.98,439.57,60.72,439.57,56.75z"/>
			<path class="st33" d="M451.07,44.89v-0.81h3.75v1.1h-0.24L451.07,44.89z M455.06,62.37l3.69,0.29v0.81h-7.68v-0.81l3.52-0.29
				H455.06z M454.04,53c0-2.98,0-5.97-0.07-8.92h1.71c-0.07,2.92-0.07,5.91-0.07,8.92v1.86c0,2.8,0,5.67,0.07,8.62h-1.71
				c0.07-2.92,0.07-5.91,0.07-8.92V53z M457.45,55.51h-2.63v-0.88h2.6c4.44,0,6.16-2.04,6.16-4.93c0-3.05-1.62-4.71-5.37-4.71h-3.39
				v-0.91h3.69c4.47,0,6.69,2.21,6.69,5.62C465.21,52.99,462.82,55.51,457.45,55.51z"/>
			<path class="st33" d="M471.92,56.07c1.45-0.48,3.14-0.88,4.59-1.19v0.73c-1.4,0.31-3.11,0.79-4.33,1.25
				c-2.44,0.92-3.22,2.03-3.22,3.26c0,1.66,1.08,2.52,2.67,2.52c1.38,0,2.43-0.68,4.25-2.38l0.42-0.38l0.16,0.67l-0.49,0.51
				c-1.76,1.88-2.96,2.79-4.85,2.79c-2.07,0-3.67-1.21-3.67-3.46C467.46,58.5,468.68,57.19,471.92,56.07z M475.81,60.7V54.2
				c0-3.04-1.03-3.8-3.16-3.8c-1.07,0-2.1,0.27-3.22,1.03l0.91-0.81l-0.61,2.17c-0.17,0.61-0.49,0.9-1.01,0.9s-0.83-0.3-0.9-0.79
				c0.58-2.15,2.5-3.37,5.11-3.37c2.86,0,4.3,1.28,4.3,4.48v6.35c0,1.87,0.47,2.44,1.29,2.44c0.42,0,0.75-0.17,1.19-0.55l0.41,0.5
				c-0.55,0.72-1.25,1.06-2.04,1.06C476.61,63.81,475.88,62.66,475.81,60.7z"/>
			<path class="st33" d="M484.13,57.43v-1.39c0-1.84-0.03-3.33-0.09-4.66l-2.52-0.11v-0.75l3.5-0.91l0.35,0.22l0.17,3.73v3.86
				c0,1.78,0.03,4.75,0.09,6.04h-1.59C484.1,62.18,484.13,59.21,484.13,57.43z M481.69,62.72l2.99-0.34h0.39l3.11,0.34v0.75h-6.49
				V62.72z M484.82,53.55h1.06l-0.5,0.29c0.85-2.56,2.76-4.3,4.71-4.3c0.92,0,1.71,0.39,1.96,0.86c0,0.89-0.38,1.33-1.19,1.33
				c-0.58,0-1-0.28-1.56-0.74l-0.66-0.56l1.41-0.03c-2.06,0.38-3.48,1.83-4.55,4.57h-0.68V53.55z"/>
			<path class="st33" d="M497.96,56.07c1.45-0.48,3.14-0.88,4.59-1.19v0.73c-1.4,0.31-3.11,0.79-4.33,1.25
				c-2.44,0.92-3.22,2.03-3.22,3.26c0,1.66,1.08,2.52,2.67,2.52c1.38,0,2.43-0.68,4.25-2.38l0.42-0.38l0.16,0.67l-0.49,0.51
				c-1.76,1.88-2.96,2.79-4.85,2.79c-2.07,0-3.67-1.21-3.67-3.46C493.5,58.5,494.72,57.19,497.96,56.07z M501.84,60.7V54.2
				c0-3.04-1.03-3.8-3.16-3.8c-1.07,0-2.1,0.27-3.22,1.03l0.91-0.81l-0.61,2.17c-0.17,0.61-0.49,0.9-1.01,0.9s-0.83-0.3-0.9-0.79
				c0.58-2.15,2.5-3.37,5.11-3.37c2.86,0,4.3,1.28,4.3,4.48v6.35c0,1.87,0.47,2.44,1.29,2.44c0.42,0,0.75-0.17,1.19-0.55l0.41,0.5
				c-0.55,0.72-1.25,1.06-2.04,1.06C502.64,63.81,501.91,62.66,501.84,60.7z"/>
			<path class="st33" d="M510.08,63.47c0.06-1.29,0.09-4.26,0.09-6.04v-1.39c0-1.84-0.03-3.33-0.09-4.66l-2.52-0.11v-0.75l3.5-0.91
				l0.35,0.22l0.17,3.2v4.39c0,1.78,0.03,4.75,0.09,6.04H510.08z M513.85,62.72v0.75h-6.16v-0.75l2.99-0.34h0.39L513.85,62.72z
				 M520.62,54.58v2.85c0,1.84,0.03,4.75,0.09,6.04h-1.59c0.06-1.29,0.09-4.2,0.09-6.04v-2.77c0-2.83-0.98-3.83-2.69-3.83
				c-1.32,0-3.04,0.58-5.14,2.82h-0.5v-0.89h0.9l-0.67,0.28c1.9-2.39,4.06-3.51,5.97-3.51C519.34,49.53,520.62,50.9,520.62,54.58z
				 M520.11,62.38l2.77,0.34v0.75h-6.16v-0.75l2.99-0.34H520.11z"/>
			<path class="st33" d="M529.83,56.07c1.45-0.48,3.14-0.88,4.59-1.19v0.73c-1.4,0.31-3.11,0.79-4.33,1.25
				c-2.44,0.92-3.22,2.03-3.22,3.26c0,1.66,1.08,2.52,2.67,2.52c1.38,0,2.43-0.68,4.25-2.38l0.42-0.38l0.16,0.67l-0.49,0.51
				c-1.76,1.88-2.96,2.79-4.85,2.79c-2.07,0-3.67-1.21-3.67-3.46C525.37,58.5,526.59,57.19,529.83,56.07z M533.72,60.7V54.2
				c0-3.04-1.03-3.8-3.16-3.8c-1.07,0-2.1,0.27-3.22,1.03l0.91-0.81l-0.61,2.17c-0.17,0.61-0.49,0.9-1.01,0.9s-0.83-0.3-0.9-0.79
				c0.58-2.15,2.5-3.37,5.11-3.37c2.86,0,4.3,1.28,4.3,4.48v6.35c0,1.87,0.47,2.44,1.29,2.44c0.42,0,0.75-0.17,1.19-0.55l0.41,0.5
				c-0.55,0.72-1.25,1.06-2.04,1.06C534.52,63.81,533.79,62.66,533.72,60.7z M532.75,43.02c0.51-0.74,0.81-1,1.18-1
				c0.38,0,0.72,0.24,0.72,0.72c0,0.32-0.21,0.65-0.87,1.3c-0.96,0.96-2.13,2.13-3.34,3.3l-0.48-0.38
				C530.94,45.59,531.91,44.18,532.75,43.02z"/>
		</g>
	</g>
	<g>
		<path class="st34" d="M377.62,51.09L377.62,51.09c1.03-1.9,1.61-4.08,1.61-6.39c0-7.44-6.03-13.48-13.48-13.48
			c-7.44,0-13.48,6.03-13.48,13.48c0,2.32,0.59,4.5,1.62,6.41h0l0.01,0.01c0.11,0.2,0.22,0.39,0.34,0.59l10.16,17.66
			c0.6,1.04,2.11,1.04,2.71,0l10.16-17.65c0.12-0.2,0.24-0.4,0.35-0.6L377.62,51.09z"/>
		<circle class="st35" cx="365.75" cy="44.05" r="4.45"/>
	</g>
	<g>
		<path class="st95" d="M672.5,42.81l1.47,6.99l2.89,5.97l5.35,5.82l5.2,4.03l97.49,58.08c19.64,5.63,33.87,4.26,40.27,3.41
			c-4.07-5.25,8.86-1.2,22.76-5.67L672.5,42.81z"/>
		<path class="st95" d="M672.5,42.81l0.42,0.18l0.64,1.51c1.14,7.17,9.98,16.05,13.85,21.12l-5.2-4.03l-5.36-5.83l-2.88-5.96
			L672.5,42.81L672.5,42.81z"/>
		<path class="st95" d="M672.5,42.81l1.47,7l5.66,7.65l106.45,63.24c16.44,5.19,35.23,7,45.75,7.51c-0.59-3.18,4.75-3.13,16.1-6.77
			L672.5,42.81z"/>
		<path class="st95" d="M672.5,42.81l0.42,0.18l0.64,1.51c1.21,5.29,5.47,11.54,8.5,14.39l-5.17-3.09l-2.91-5.97L672.5,42.81
			L672.5,42.81z"/>
		<path class="st95" d="M677.28,48.35l119.3,63.6c15.41,6.48,35.62,12.08,51.35,9.48c0.36-9.64-13.48-22.72-21.31-27.45
			L706.86,31.48C691.95,23.69,660.44,38.87,677.28,48.35z"/>
		<path class="st95" d="M678.21,47.82C718.17,69,758.13,90.2,798.09,111.38c13.32,5.61,28.47,10.01,42.46,9.35
			c2.32-0.03,4.4-0.22,6.13-0.64c0.33-5.42-6.18-14.4-12.13-20.06c-0.51-0.48-1.54-0.3-2.3-0.43c-2.49-2.2-4.84-3.88-6.57-4.66
			L705.83,32.06C692.45,25.05,662.61,39,678.21,47.82z"/>
		<path class="st95" d="M678.21,47.82l119.76,63.5l0.31,0.14c10.84,5.26,34.09,11.11,46.25,8.82c-0.18-8.22-12.41-20.79-19.77-24.6
			l-117.32-62.2c-12.97-6.55-34.15,2.5-32.75,9.73C674.92,44.37,676.46,46.89,678.21,47.82z"/>
		<path class="st95" d="M805.81,114.58l4.51-0.72c13.15,3.69,23.05,5.8,36.18,4.03l1.47,0.9l-0.04,1.99
			c-9.97,2.89-31.74-0.71-43.07-5.66L805.81,114.58z"/>
		<path class="st95" d="M804.76,115.13c1.45-0.18,2.9-0.37,4.34-0.55c13.15,3.77,25.62,6.3,38.88,4.21l-0.04,2.64
			C837.47,124.4,815.86,120.5,804.76,115.13z"/>
		<path class="st95" d="M836.01,99.23c6.65,6.73,11.28,14.89,11.97,19.56c-0.66,0.08-0.81-0.98-1.47-0.9
			c-2.68-7.54-7.4-12.99-11.91-17.85C835.06,99.77,835.53,99.5,836.01,99.23z"/>
		<polygon class="st95" points="834.59,100.04 832.23,99.58 833.35,98.95 836.01,99.23 		"/>
		<polygon class="st95" points="805.81,114.58 804.81,115.15 809.1,114.58 810.25,113.87 		"/>
		<g>
			<path class="st95" d="M834.87,109.61l-10.49,6.28l-0.2,0.62c3.51,1.28,13.33,2.46,17.55,1.49l0.2-0.62
				C841.43,114.53,836.98,110.6,834.87,109.61z"/>
			<path class="st95" d="M835.08,108.99l-10.69,6.9c3.51,1.28,13.33,2.46,17.55,1.49C841.88,114.53,837.3,110.04,835.08,108.99z"/>
		</g>
		<g>
			<polygon class="st95" points="676.42,38.77 676.42,42.6 675.22,41.82 675.22,37.99 			"/>
			<polygon class="st95" points="676.41,42.6 678.21,41.72 678.21,37.89 676.41,38.77 			"/>
			<polygon class="st95" points="678.21,37.89 676.41,38.77 675.21,37.99 677.01,37.11 			"/>
			<polygon class="st95" points="676.52,33.93 676.52,38.48 675.71,37.97 675.71,33.42 			"/>
			<polygon class="st95" points="676.52,33.99 676.52,36.64 675.71,35.29 675.71,33.45 			"/>
			<polygon class="st95" points="676.51,38.48 677.71,37.9 677.71,33.35 676.51,33.93 			"/>
			<g>
				<polygon class="st95" points="675,34.51 675,35.84 688.04,28.64 688.04,28 678,32.46 				"/>
				<polygon class="st95" points="675.01,35.84 674.11,35.28 674.11,33.95 675.01,34.51 				"/>
				<polygon class="st95" points="674.11,33.95 675.01,34.51 677.96,32.49 688.05,28 687.15,27.44 677.07,31.93 				"/>
			</g>
		</g>
		<path class="st95" d="M717.41,25.16l3.65,2.11l10.71-6.05l-3.68-1.87C720.58,23.65,722.93,22.38,717.41,25.16z"/>
		<polygon class="st95" points="723.92,31.72 720.81,27.51 731.77,21.22 731.8,24.63 		"/>
		<polygon class="st95" points="702.69,26.34 702.72,26.1 712.96,32.01 711.37,36.13 700.5,29.71 		"/>
		<path class="st95" d="M680.95,28.63l18.93,10.62l26.49-14.9l-18.98-10.6C696.82,19.82,688.72,24.71,680.95,28.63z"/>
		<polygon class="st95" points="698.67,59.6 699.89,39.25 726.37,24.35 728.72,42.67 727.57,43.27 727.61,44.04 700.26,59.5 
			699.55,59.13 		"/>
		<path class="st95" d="M680.91,28.97l0.04-0.34l18.93,10.63c-0.37,6.71-0.8,13.6-1.21,20.35l-19.95-10.49L680.91,28.97z"/>
		<g>
			<path class="st95" d="M703.74,39.99l-0.76,0.44c-0.2,0.11-0.36,0.36-0.36,0.54v2.75c0,0.18,0.16,0.24,0.36,0.13l0.76-0.44
				c0.2-0.11,0.36-0.36,0.36-0.54v-2.75C704.1,39.93,703.94,39.87,703.74,39.99z"/>
			<path class="st95" d="M706.26,38.53l-0.76,0.44c-0.2,0.11-0.36,0.36-0.36,0.54v2.75c0,0.18,0.16,0.24,0.36,0.13l0.76-0.44
				c0.2-0.11,0.36-0.36,0.36-0.54v-2.75C706.62,38.47,706.46,38.41,706.26,38.53z"/>
			<path class="st95" d="M708.78,37.06l-0.76,0.44c-0.2,0.11-0.36,0.36-0.36,0.54v2.75c0,0.19,0.16,0.24,0.36,0.13l0.76-0.44
				c0.2-0.11,0.36-0.36,0.36-0.54v-2.75C709.14,37.01,708.98,36.95,708.78,37.06z"/>
			<path class="st95" d="M711.31,35.6l-0.76,0.44c-0.2,0.11-0.36,0.36-0.36,0.54v2.75c0,0.18,0.16,0.24,0.36,0.13l0.76-0.44
				c0.2-0.11,0.36-0.36,0.36-0.54v-2.75C711.67,35.55,711.5,35.49,711.31,35.6z"/>
			<path class="st95" d="M713.83,34.14l-0.76,0.44c-0.2,0.11-0.36,0.36-0.36,0.54v2.75c0,0.18,0.16,0.24,0.36,0.13l0.76-0.44
				c0.2-0.11,0.36-0.36,0.36-0.54v-2.75C714.19,34.09,714.03,34.03,713.83,34.14z"/>
			<path class="st95" d="M716.35,32.68l-0.76,0.44c-0.2,0.11-0.36,0.36-0.36,0.54v2.75c0,0.19,0.16,0.24,0.36,0.13l0.76-0.44
				c0.2-0.11,0.36-0.36,0.36-0.54v-2.75C716.71,32.63,716.55,32.57,716.35,32.68z"/>
			<path class="st95" d="M718.87,31.22l-0.76,0.44c-0.2,0.11-0.36,0.36-0.36,0.54v2.75c0,0.18,0.16,0.24,0.36,0.13l0.76-0.44
				c0.2-0.11,0.36-0.36,0.36-0.54v-2.75C719.23,31.16,719.07,31.11,718.87,31.22z"/>
			<path class="st95" d="M721.39,29.76l-0.76,0.44c-0.2,0.11-0.36,0.36-0.36,0.54v2.75c0,0.18,0.16,0.24,0.36,0.13l0.76-0.44
				c0.2-0.11,0.36-0.36,0.36-0.54v-2.75C721.75,29.7,721.59,29.65,721.39,29.76z"/>
			<path class="st95" d="M723.92,28.3l-0.76,0.44c-0.2,0.11-0.36,0.36-0.36,0.54v2.75c0,0.18,0.16,0.24,0.36,0.13l0.76-0.44
				c0.2-0.11,0.36-0.36,0.36-0.54v-2.75C724.28,28.24,724.11,28.19,723.92,28.3z"/>
		</g>
		<g>
			<path class="st95" d="M703.74,46.26l-0.76,0.43c-0.2,0.11-0.36,0.36-0.36,0.54v2.75c0,0.18,0.16,0.24,0.36,0.13l0.76-0.43
				c0.2-0.11,0.36-0.36,0.36-0.54v-2.75C704.1,46.21,703.94,46.15,703.74,46.26z"/>
			<path class="st95" d="M706.26,44.82l-0.76,0.43c-0.2,0.11-0.36,0.36-0.36,0.54v2.75c0,0.18,0.16,0.24,0.36,0.13l0.76-0.43
				c0.2-0.11,0.36-0.36,0.36-0.54v-2.75C706.62,44.76,706.46,44.71,706.26,44.82z"/>
			<path class="st95" d="M708.78,43.38l-0.76,0.43c-0.2,0.11-0.36,0.36-0.36,0.54v2.75c0,0.19,0.16,0.24,0.36,0.13l0.76-0.43
				c0.2-0.11,0.36-0.36,0.36-0.54v-2.75C709.14,43.32,708.98,43.26,708.78,43.38z"/>
			<path class="st95" d="M711.31,41.93l-0.76,0.43c-0.2,0.11-0.36,0.36-0.36,0.54v2.75c0,0.18,0.16,0.24,0.36,0.13l0.76-0.43
				c0.2-0.11,0.36-0.36,0.36-0.54v-2.75C711.67,41.88,711.5,41.82,711.31,41.93z"/>
			<path class="st95" d="M713.83,40.49l-0.76,0.43c-0.2,0.11-0.36,0.36-0.36,0.54v2.75c0,0.18,0.16,0.24,0.36,0.13l0.76-0.43
				c0.2-0.11,0.36-0.36,0.36-0.54v-2.75C714.19,40.43,714.03,40.38,713.83,40.49z"/>
			<path class="st95" d="M716.35,39.04l-0.76,0.43c-0.2,0.11-0.36,0.36-0.36,0.54v2.75c0,0.18,0.16,0.24,0.36,0.13l0.76-0.43
				c0.2-0.11,0.36-0.36,0.36-0.54v-2.75C716.71,38.99,716.55,38.93,716.35,39.04z"/>
			<path class="st95" d="M718.87,37.6l-0.76,0.43c-0.2,0.11-0.36,0.36-0.36,0.54v2.75c0,0.18,0.16,0.24,0.36,0.13l0.76-0.43
				c0.2-0.11,0.36-0.36,0.36-0.54v-2.75C719.23,37.55,719.07,37.49,718.87,37.6z"/>
			<path class="st95" d="M721.39,36.16l-0.76,0.43c-0.2,0.11-0.36,0.36-0.36,0.54v2.75c0,0.18,0.16,0.24,0.36,0.13l0.76-0.43
				c0.2-0.11,0.36-0.36,0.36-0.54v-2.75C721.75,36.1,721.59,36.04,721.39,36.16z"/>
			<path class="st95" d="M723.92,34.71l-0.76,0.43c-0.2,0.11-0.36,0.36-0.36,0.54v2.75c0,0.18,0.16,0.24,0.36,0.13l0.76-0.43
				c0.2-0.11,0.36-0.36,0.36-0.54v-2.75C724.28,34.66,724.11,34.6,723.92,34.71z"/>
		</g>
		<g>
			<path class="st95" d="M693.9,44.45l0.76,0.44c0.2,0.11,0.36,0.36,0.36,0.54v2.75c0,0.18-0.16,0.24-0.36,0.13l-0.76-0.44
				c-0.2-0.11-0.36-0.36-0.36-0.54v-2.75C693.54,44.39,693.7,44.33,693.9,44.45z"/>
			<path class="st95" d="M691.37,42.99l0.76,0.44c0.2,0.11,0.36,0.36,0.36,0.54v2.75c0,0.19-0.16,0.24-0.36,0.13l-0.76-0.44
				c-0.2-0.11-0.36-0.36-0.36-0.54v-2.75C691.01,42.93,691.17,42.87,691.37,42.99z"/>
		</g>
		<g>
			<path class="st95" d="M695.41,52.05l0.76,0.44c0.2,0.11,0.36,0.36,0.36,0.54v2.75c0,0.19-0.16,0.24-0.36,0.13l-0.76-0.44
				c-0.2-0.11-0.36-0.36-0.36-0.54v-2.75C695.05,51.99,695.21,51.94,695.41,52.05z"/>
			<path class="st95" d="M690.37,49.13l0.76,0.44c0.2,0.11,0.36,0.36,0.36,0.54v2.75c0,0.18-0.16,0.24-0.36,0.13l-0.76-0.44
				c-0.2-0.11-0.36-0.36-0.36-0.54v-2.75C690.01,49.07,690.17,49.01,690.37,49.13z"/>
			<path class="st95" d="M687.85,47.67l0.76,0.44c0.2,0.11,0.36,0.36,0.36,0.54v2.75c0,0.19-0.16,0.24-0.36,0.13l-0.76-0.44
				c-0.2-0.11-0.36-0.36-0.36-0.54V47.8C687.49,47.61,687.65,47.55,687.85,47.67z"/>
		</g>
		<g>
			<path class="st95" d="M690.37,49.13l0.76,0.44c0.2,0.11,0.36,0.36,0.36,0.54v2.75c0,0.18-0.16,0.24-0.36,0.13l-0.76-0.44
				c-0.2-0.11-0.36-0.36-0.36-0.54v-2.75C690.01,49.07,690.17,49.01,690.37,49.13z"/>
			<path class="st95" d="M685.32,46.21l0.76,0.44c0.2,0.11,0.36,0.36,0.36,0.54v2.75c0,0.18-0.16,0.24-0.36,0.13l-0.76-0.44
				c-0.2-0.11-0.36-0.36-0.36-0.54v-2.75C684.96,46.15,685.13,46.09,685.32,46.21z"/>
			<path class="st95" d="M682.8,44.75l0.76,0.44c0.2,0.11,0.36,0.36,0.36,0.54v2.75c0,0.18-0.16,0.24-0.36,0.13l-0.76-0.44
				c-0.2-0.11-0.36-0.36-0.36-0.54v-2.75C682.44,44.69,682.6,44.63,682.8,44.75z"/>
		</g>
		<g>
			<path class="st95" d="M688.58,34l0.76,0.44c0.2,0.11,0.36,0.36,0.36,0.54v2.75c0,0.18-0.16,0.24-0.36,0.13l-0.76-0.44
				c-0.2-0.11-0.36-0.36-0.36-0.54v-2.75C688.22,33.95,688.38,33.89,688.58,34z"/>
			<path class="st95" d="M683.54,31.08l0.76,0.44c0.2,0.11,0.36,0.36,0.36,0.54v2.75c0,0.18-0.16,0.24-0.36,0.13l-0.76-0.44
				c-0.2-0.11-0.36-0.36-0.36-0.54v-2.75C683.18,31.03,683.34,30.97,683.54,31.08z"/>
		</g>
		<g>
			<g>
				<path class="st95" d="M695.52,10.29l7.25,1.51l3.49,9.29c-0.77,3.03-5.34,4.02-7.78-0.15L695.52,10.29z"/>
				<path class="st95" d="M696.72,10.54l6.05,1.26l3.49,9.29c-0.61,2.42-3.67,3.55-6.11,1.76L696.72,10.54z"/>
				<path class="st95" d="M695.52,10.29l7.25,1.51l1.44,3.83c0.2,1.22-1.09,1.87-3.07,1.46c-1.9-0.4-3.8-1.64-4.54-2.91
					L695.52,10.29z"/>
				<path class="st95" d="M696.72,10.54l6.05,1.26l1.44,3.83c0.2,1.22-1.09,1.87-3.07,1.46c-1.05-0.22-2.1-0.7-2.95-1.29
					L696.72,10.54z"/>
				<path class="st95" d="M698.32,8.64c2,0.42,4,1.84,4.45,3.17c0.45,1.33-0.8,2.07-2.8,1.65c-2-0.42-4-1.84-4.45-3.17
					C695.06,8.96,696.32,8.22,698.32,8.64z"/>
				<path class="st95" d="M698.51,9.18c1.55,0.32,3.09,1.42,3.45,2.45c0.35,1.03-0.62,1.6-2.17,1.28c-1.55-0.32-3.09-1.42-3.45-2.45
					C695.98,9.43,696.96,8.86,698.51,9.18z"/>
			</g>
			<g>
				<path class="st95" d="M689.71,13.3l7.25,1.51l3.49,9.29c-0.77,3.03-5.34,4.02-7.78-0.15L689.71,13.3z"/>
				<path class="st95" d="M690.92,13.55l6.05,1.26l3.49,9.29c-0.61,2.42-3.67,3.55-6.11,1.76L690.92,13.55z"/>
				<path class="st95" d="M689.71,13.3l7.25,1.51l1.44,3.83c0.2,1.22-1.09,1.87-3.07,1.46c-1.9-0.4-3.8-1.64-4.54-2.91L689.71,13.3z
					"/>
				<path class="st95" d="M690.92,13.55l6.05,1.26l1.44,3.83c0.2,1.22-1.09,1.87-3.07,1.46c-1.05-0.22-2.1-0.7-2.95-1.29
					L690.92,13.55z"/>
				<path class="st95" d="M692.52,11.65c2,0.42,4,1.84,4.45,3.17c0.45,1.33-0.8,2.07-2.8,1.65c-2-0.42-4-1.84-4.45-3.17
					C689.26,11.97,690.51,11.23,692.52,11.65z"/>
				<path class="st95" d="M692.7,12.19c1.55,0.32,3.09,1.42,3.45,2.45c0.35,1.03-0.62,1.6-2.17,1.28c-1.55-0.32-3.09-1.42-3.45-2.45
					C690.18,12.44,691.15,11.87,692.7,12.19z"/>
			</g>
		</g>
		<path class="st95" d="M692.86,25.37l10.24,5.91l18.81-10.8l-10.27-5.67C704.14,19.12,698.38,22.59,692.86,25.37z"/>
		<polygon class="st95" points="702.09,38.02 703.1,31.28 721.91,20.49 723.57,26.09 		"/>
		<polygon class="st95" points="692.84,25.61 692.86,25.37 703.1,31.28 702.09,38.02 691.37,31.69 		"/>
		<g>
			<path class="st95" d="M704.58,24.68l2.04,1.23c2.51-0.39,4.1-1.3,4.76-2.74l-1.89-10.49l-1.15-0.69l-2.68,1.54L704.58,24.68z"/>
			<path class="st95" d="M709.73,13.97l-0.23-1.29l-1.15-0.69l-2.68,1.54l-0.11,1.12l1.24,0.76
				C708.33,15.15,709.18,14.75,709.73,13.97z"/>
			<path class="st95" d="M705.67,13.52l1.15,0.69c1.41-0.22,2.31-0.73,2.68-1.54l-1.15-0.69L705.67,13.52z"/>
			<path class="st95" d="M707.22,9.6L707.22,9.6l0.02,0.03l0,0.01l0.03,0.03l0.02,0.02l0.03,0.01l0.07,0.03l0.03,0.01l0.04,0.01
				l0.04,0l0.01,0l0.05,0h0.01l0.06,0l0.01,0l0.05-0.01l0.01,0l0.05-0.02l0.01,0l0.05-0.03c0.07-0.04,0.11-0.09,0.11-0.14l0.03,3.56
				c0,0.05-0.03,0.1-0.11,0.15l-0.05,0.02l0,0l-0.01,0l-0.03,0.01l-0.02,0l-0.01,0h-0.01l-0.04,0.01h-0.01h-0.01l-0.01,0l-0.03,0
				h-0.01h-0.01h-0.01l-0.04,0l0,0h-0.01l-0.03-0.01h-0.01l-0.04-0.01l-0.02,0l-0.01,0c-0.02-0.01-0.04-0.02-0.07-0.03l0-0.01
				l-0.02-0.01l-0.03-0.02l0,0l-0.02-0.02v-0.01l-0.01,0l-0.01-0.01l-0.01-0.02v0l0-0.01l0-0.01v-0.03l-0.03-3.56v0L707.22,9.6z"/>
			<path class="st95" d="M707.62,9.77L707.62,9.77l0.06-0.01l0.01,0l0.05-0.02l0.01,0l0.05-0.03c0.07-0.04,0.11-0.09,0.11-0.14
				l0.03,3.56c0,0.05-0.03,0.1-0.11,0.15l-0.05,0.02l0,0l-0.01,0l-0.03,0.01l-0.02,0l-0.01,0h-0.01l-0.04,0.01h-0.01h-0.01l-0.01,0
				l-0.03,0V9.77H707.62z"/>
			<g>
				<path class="st95" d="M709.23,8.45c0,0.93-0.75,1.69-1.67,1.69c-0.92,0-1.67-0.75-1.67-1.69c0-0.93,0.75-1.69,1.67-1.69
					C708.49,6.76,709.23,7.52,709.23,8.45z"/>
				<path class="st95" d="M707.35,9.49c0.77,0,1.4-0.63,1.4-1.42c0-0.54-0.3-1-0.73-1.24c-0.14-0.04-0.3-0.06-0.45-0.06
					c-0.77,0-1.42,0.53-1.61,1.26l0,0.05C705.95,8.86,706.58,9.49,707.35,9.49z"/>
				<path class="st95" d="M707.57,7.78c0,0.27-0.21,0.48-0.48,0.48c-0.26,0-0.48-0.21-0.48-0.48c0-0.27,0.22-0.48,0.48-0.48
					C707.35,7.3,707.57,7.52,707.57,7.78z"/>
			</g>
			<polygon class="st95" points="706.82,14.21 706.62,25.9 704.58,24.68 705.67,13.52 			"/>
			<polygon class="st95" points="706.82,14.21 706.8,15.41 706.8,15.41 705.56,14.65 705.67,13.52 			"/>
		</g>
		<polygon class="st95" points="690.24,40.54 693.89,42.65 699.96,39.23 696.4,37.3 		"/>
		<polygon class="st95" points="693.9,46.06 693.87,42.64 702.09,38.02 701.98,43.05 		"/>
		<polygon class="st95" points="693.89,42.65 693.9,46.06 690.24,43.98 690.24,40.54 		"/>
		<g>
			<path class="st95" d="M688.13,41.28l0.76,0.44c0.2,0.11,0.36,0.36,0.36,0.54v2.75c0,0.18-0.16,0.24-0.36,0.13l-0.76-0.44
				c-0.2-0.11-0.36-0.36-0.36-0.54v-2.75C687.77,41.23,687.93,41.17,688.13,41.28z"/>
			<path class="st95" d="M685.61,39.82l0.76,0.44c0.2,0.11,0.36,0.36,0.36,0.54v2.75c0,0.18-0.16,0.24-0.36,0.13l-0.76-0.44
				c-0.2-0.11-0.36-0.36-0.36-0.54v-2.75C685.25,39.77,685.41,39.71,685.61,39.82z"/>
		</g>
		<polygon class="st95" points="704.05,36.97 704.15,32.26 721.31,22.35 721.34,27.04 		"/>
		<g>
			<g>
				<path class="st96" d="M709.22,34.11L709.22,34.11c0.06,0,0.12-0.05,0.11-0.11l0-4.79c0-0.06-0.05-0.11-0.11-0.11l0,0
					c-0.06,0-0.12,0.05-0.11,0.11l0,4.79C709.11,34.06,709.16,34.11,709.22,34.11z"/>
			</g>
			<g>
				<path class="st96" d="M711.72,32.71L711.72,32.71c0.06,0,0.12-0.05,0.11-0.11l0-4.69c0-0.06-0.05-0.11-0.11-0.11l0,0
					c-0.06,0-0.12,0.05-0.11,0.11l0,4.69C711.6,32.66,711.65,32.71,711.72,32.71z"/>
			</g>
			<g>
				<path class="st96" d="M706.72,35.64L706.72,35.64c0.06,0,0.12-0.05,0.11-0.11l0-4.79c0-0.06-0.05-0.11-0.11-0.11l0,0
					c-0.06,0-0.12,0.05-0.11,0.11l0,4.79C706.61,35.59,706.66,35.64,706.72,35.64z"/>
			</g>
			<g>
				<path class="st96" d="M714.21,31.26L714.21,31.26c0.06,0,0.12-0.05,0.11-0.11l0-4.98c0-0.06-0.05-0.11-0.11-0.11l0,0
					c-0.06,0-0.12,0.05-0.11,0.11l0,4.98C714.1,31.21,714.15,31.26,714.21,31.26z"/>
			</g>
			<g>
				<path class="st96" d="M716.71,29.79L716.71,29.79c0.06,0,0.12-0.05,0.11-0.11l0-4.87c0-0.06-0.05-0.11-0.11-0.11l0,0
					c-0.06,0-0.12,0.05-0.11,0.11l0,4.87C716.6,29.73,716.65,29.79,716.71,29.79z"/>
			</g>
			<g>
				<path class="st96" d="M719.21,28.37L719.21,28.37c0.06,0,0.12-0.05,0.11-0.11l0-4.89c0-0.06-0.05-0.11-0.11-0.11l0,0
					c-0.06,0-0.12,0.05-0.11,0.11l0,4.89C719.09,28.32,719.14,28.37,719.21,28.37z"/>
			</g>
		</g>
		<g>
			<polygon class="st95" points="725.07,69.76 746.63,56.8 746.63,55.21 725.07,68.16 			"/>
			<polygon class="st95" points="725.07,69.76 703.52,58.08 703.52,56.48 725.07,68.16 			"/>
			<polygon class="st95" points="746.63,55.21 725.07,68.16 703.52,56.48 725.12,43.57 			"/>
		</g>
		<g>
			<polygon class="st95" points="747.51,81.89 769.07,68.94 769.07,67.34 747.51,80.29 			"/>
			<polygon class="st95" points="747.51,81.89 725.95,70.21 725.95,68.61 747.51,80.29 			"/>
			<polygon class="st95" points="769.07,67.34 747.51,80.29 725.95,68.61 747.55,55.7 			"/>
		</g>
		<g>
			<polygon class="st95" points="769.95,94.02 791.5,81.07 791.5,79.47 769.95,92.43 			"/>
			<polygon class="st95" points="769.95,94.02 748.39,82.34 748.39,80.74 769.95,92.43 			"/>
			<polygon class="st95" points="791.5,79.47 769.95,92.43 748.39,80.74 769.99,67.83 			"/>
		</g>
		<g>
			<polygon class="st95" points="792.38,106.16 813.94,93.2 813.94,91.6 792.38,104.56 			"/>
			<polygon class="st95" points="792.38,106.16 770.83,94.47 770.83,92.88 792.38,104.56 			"/>
			<polygon class="st95" points="813.94,91.6 792.38,104.56 770.83,92.88 792.43,79.97 			"/>
		</g>
		<polygon class="st95" points="818.97,115.9 834.07,106.66 834.07,105.07 818.97,114.3 		"/>
		<polygon class="st95" points="818.96,115.9 793.26,106.61 793.26,105.01 818.96,114.3 		"/>
		<polygon class="st95" points="834.07,105.07 818.97,114.3 793.26,105.01 814.86,92.1 		"/>
		<g>
			<path class="st95" d="M835.79,110.2c-0.26,0.15-0.26,0.39,0,0.53c0.25,0.15,0.66,0.15,0.91,0c0.25-0.15,0.25-0.39,0-0.53
				C836.45,110.05,836.04,110.05,835.79,110.2z"/>
			<path class="st95" d="M835.39,114.93l0.01,0.03l0,0.02l0.01,0.02l0.01,0.02l0.01,0.03l0.01,0.02l0.02,0.03l0.02,0.02l0.04,0.04
				l0.01,0.01l0.02,0.02l0.02,0.02l0.03,0.02l0.03,0.02c0.02,0.02,0.05,0.03,0.08,0.04l0.02,0.01c0.02,0.01,0.04,0.02,0.07,0.03
				l0.03,0.01l0.04,0.01l0.04,0.01l0.04,0.01l0.03,0.01c0.03,0.01,0.07,0.01,0.1,0.01l0.03,0l0.05,0l0.04,0h0.05h0.04l0.04,0l0.04,0
				l0.04-0.01l0.04-0.01l0.05-0.01l0.03-0.01l0.06-0.01l0.03-0.01c0.03-0.01,0.06-0.02,0.09-0.03l0.04-0.02l0.02-0.01
				c0.02-0.01,0.04-0.02,0.06-0.04c0.16-0.09,0.25-0.23,0.25-0.35v0.28c0,0.12-0.08,0.26-0.25,0.35c-0.02,0.01-0.04,0.02-0.06,0.03
				l-0.03,0.01l-0.03,0.02l0,0c-0.03,0.01-0.06,0.02-0.09,0.03l-0.01,0l-0.02,0l-0.05,0.01l-0.02,0l-0.02,0l-0.05,0.01l-0.02,0
				l-0.02,0l-0.04,0h-0.02h-0.02l-0.05,0.01h-0.02h-0.02h-0.05h-0.02h-0.02c-0.02,0-0.04-0.01-0.06-0.01h-0.02l-0.01,0
				c-0.03,0-0.07-0.01-0.1-0.01h0l-0.03-0.01l-0.04-0.01l-0.04-0.01l-0.04-0.01l-0.01,0l-0.02-0.01c-0.02-0.01-0.05-0.02-0.07-0.02
				l-0.02-0.01c-0.03-0.01-0.05-0.03-0.08-0.04l-0.01,0l-0.02-0.02l-0.03-0.02l-0.02-0.02l-0.03-0.02l-0.01,0l-0.01-0.01l-0.03-0.04
				l-0.01-0.01l-0.01-0.01l-0.02-0.03l-0.01-0.01l0-0.01l-0.01-0.03l-0.01-0.01l0-0.01l-0.01-0.03l-0.01-0.02v0l0-0.03l0-0.02v-0.01
				v-0.27V114.93z"/>
			<path class="st95" d="M835.64,114.55c-0.34,0.19-0.34,0.51,0,0.7c0.33,0.2,0.86,0.19,1.2,0c0.33-0.19,0.33-0.51,0-0.7
				C836.51,114.35,835.98,114.35,835.64,114.55z"/>
			<path class="st95" d="M835.59,110.46v0.02l0.01,0.02l0.01,0.02l0.01,0.01l0.01,0.02l0.01,0.01l0.02,0.02l0.01,0.01l0.02,0.03
				l0.02,0.01l0.02,0.02l0.02,0.01l0.02,0.02l0.03,0.02c0.03,0.01,0.06,0.03,0.09,0.04l0.02,0.01c0.03,0.01,0.06,0.02,0.1,0.03
				l0.01,0c0.03,0.01,0.06,0.01,0.1,0.02l0.02,0c0.04,0,0.07,0.01,0.11,0.01h0.02c0.04,0,0.07,0,0.11,0l0.02,0
				c0.03-0.01,0.07-0.01,0.1-0.02l0.02,0c0.03-0.01,0.06-0.02,0.09-0.03l0.01,0c0.04-0.02,0.07-0.03,0.1-0.05
				c0.13-0.08,0.19-0.18,0.19-0.28l0.01,4.39c0,0.1-0.06,0.2-0.19,0.27c-0.03,0.02-0.06,0.03-0.09,0.05l0,0l-0.02,0.01l-0.06,0.02
				l-0.03,0.01l-0.02,0l-0.01,0c-0.02,0-0.04,0.01-0.07,0.01l-0.02,0l-0.02,0l-0.02,0c-0.02,0-0.04,0-0.06,0h-0.02h-0.02l-0.03,0
				c-0.02,0-0.05,0-0.07,0h-0.01l-0.02,0l-0.06-0.01l-0.04-0.01l-0.01,0c-0.02-0.01-0.05-0.02-0.07-0.02l-0.02-0.01l-0.03-0.01
				c-0.03-0.01-0.06-0.03-0.09-0.04l-0.01,0l-0.01-0.01l-0.03-0.02l-0.02-0.01l-0.02-0.02l-0.01,0l-0.01-0.01l-0.03-0.03l-0.01,0
				l0-0.01l-0.02-0.02l0-0.01l0,0l-0.01-0.02l-0.01-0.01v-0.01l-0.01-0.02l0-0.01v-0.01v-0.02l-0.01-0.01v0l-0.01-4.39V110.46z"/>
			<path class="st95" d="M836.49,110.78c0.03-0.01,0.06-0.02,0.09-0.03l0.01,0c0.04-0.02,0.07-0.03,0.1-0.05
				c0.13-0.08,0.19-0.18,0.19-0.28l0.01,4.39c0,0.1-0.06,0.2-0.19,0.27c-0.03,0.02-0.06,0.03-0.09,0.05l0,0l-0.02,0.01l-0.06,0.02
				l-0.03,0.01l-0.02,0l-0.01,0l-0.01,0v-4.39l0.02,0L836.49,110.78z"/>
			<path class="st95" d="M835.93,106.5L835.93,106.5l0.01,0.03l0,0.01l0.03,0.02l0.02,0.02l0.02,0.01l0.06,0.03l0.02,0.01l0.03,0.01
				l0.03,0l0.01,0l0.05,0h0.01l0.05,0l0.01,0l0.05-0.01l0.01,0l0.04-0.01l0.01,0l0.04-0.02c0.06-0.03,0.09-0.08,0.09-0.12l0.03,3.92
				c0,0.04-0.03,0.09-0.09,0.13l-0.04,0.02h0l-0.01,0l-0.03,0.01l-0.01,0l-0.01,0h-0.01l-0.03,0.01h-0.01h-0.01l-0.01,0l-0.03,0
				h-0.01h-0.01h-0.01l-0.04,0l0,0h-0.01l-0.02-0.01h-0.01l-0.03-0.01l-0.01,0l-0.01,0c-0.02-0.01-0.04-0.02-0.06-0.03l0,0
				l-0.01-0.01l-0.02-0.01l0,0l-0.02-0.02v-0.01l0,0l-0.01-0.01l-0.01-0.02v0l0,0l0-0.01v-0.02l-0.03-3.92v0L835.93,106.5z"/>
			<path class="st95" d="M836.27,106.64L836.27,106.64l0.05-0.01l0.01,0l0.04-0.01l0.01,0l0.04-0.02c0.06-0.03,0.09-0.08,0.09-0.12
				l0.03,3.92c0,0.04-0.03,0.09-0.09,0.13l-0.04,0.02h0l-0.01,0l-0.03,0.01l-0.01,0l-0.01,0h-0.01l-0.03,0.01h-0.01h-0.01l-0.01,0
				l-0.03,0v-3.92H836.27z"/>
			<path class="st95" d="M833.66,115.97l1.75,1.05c2.15-0.33,3.52-1.11,4.09-2.35l-1.62-9.01l-0.98-0.59l-2.3,1.32L833.66,115.97z"
				/>
			<path class="st95" d="M838.09,106.78l-0.2-1.11l-0.98-0.59l-2.3,1.32l-0.09,0.96l1.06,0.65
				C836.88,107.8,837.61,107.45,838.09,106.78z"/>
			<path class="st95" d="M834.6,106.4l0.98,0.59c1.21-0.19,1.98-0.63,2.3-1.32l-0.98-0.59L834.6,106.4z"/>
			<path class="st95" d="M835.93,99.13L835.93,99.13l0.01,0.03l0,0.01l0.03,0.02l0.02,0.02l0.02,0.01l0.06,0.03l0.02,0.01l0.03,0.01
				l0.03,0l0.01,0l0.05,0h0.01l0.05,0l0.01,0l0.05-0.01l0.01,0l0.04-0.01l0.01,0l0.04-0.02c0.06-0.03,0.09-0.08,0.09-0.12l0.03,6.96
				c0,0.04-0.03,0.09-0.09,0.13l-0.04,0.02h0l-0.01,0l-0.03,0.01l-0.01,0l-0.01,0h-0.01l-0.03,0.01h-0.01h-0.01l-0.01,0l-0.03,0
				h-0.01h-0.01h-0.01l-0.04,0l0,0h-0.01l-0.02-0.01h-0.01l-0.03-0.01l-0.01,0l-0.01,0c-0.02-0.01-0.04-0.02-0.06-0.03l0,0
				l-0.01-0.01l-0.02-0.01l0,0l-0.02-0.02v-0.01l0,0l-0.01-0.01l-0.01-0.02v0l0,0l0-0.01v-0.02l-0.03-6.96v0L835.93,99.13z"/>
			<path class="st95" d="M836.27,99.27L836.27,99.27l0.05-0.01l0.01,0l0.04-0.01l0.01,0l0.04-0.02c0.06-0.03,0.09-0.08,0.09-0.12
				l0.03,6.96c0,0.04-0.03,0.09-0.09,0.13l-0.04,0.02h0l-0.01,0l-0.03,0.01l-0.01,0l-0.01,0h-0.01l-0.03,0.01h-0.01h-0.01l-0.01,0
				l-0.03,0v-6.97L836.27,99.27z"/>
			<g>
				<path class="st95" d="M837.23,98.48c0,0.56-0.45,1.02-1.01,1.02c-0.56,0-1.01-0.46-1.01-1.02c0-0.56,0.45-1.02,1.01-1.02
					C836.78,97.46,837.23,97.92,837.23,98.48z"/>
				<path class="st95" d="M836.1,99.11c0.47,0,0.85-0.38,0.85-0.86c0-0.32-0.18-0.61-0.44-0.75c-0.09-0.02-0.18-0.04-0.27-0.04
					c-0.47,0-0.86,0.32-0.97,0.76l0,0.03C835.25,98.73,835.63,99.11,836.1,99.11z"/>
				<path class="st95" d="M836.23,98.08c0,0.16-0.13,0.29-0.29,0.29c-0.16,0-0.29-0.13-0.29-0.29c0-0.16,0.13-0.29,0.29-0.29
					C836.1,97.79,836.23,97.92,836.23,98.08z"/>
			</g>
			<polygon class="st95" points="835.58,106.99 835.41,117.03 833.66,115.97 834.6,106.4 			"/>
			<polygon class="st95" points="835.58,106.99 835.57,108.02 835.57,108.02 834.51,107.36 834.6,106.4 			"/>
		</g>
		<polygon class="st95" points="826.66,109.59 827.95,108.81 827.95,108.06 826.66,108.84 		"/>
		<polygon class="st95" points="826.66,109.59 714.71,49.85 714.71,49.1 826.66,108.84 		"/>
		<polygon class="st95" points="827.95,108.06 826.66,108.84 714.72,49.1 716.04,48.36 		"/>
	</g>
	<g>
		<path class="st10" d="M176.79,130.15H34.66c-15.07,0-27.29-12.22-27.29-27.29v-37.3c0-15.07,12.22-27.29,27.29-27.29h142.14
			V130.15z"/>
	</g>
	<g>
		<g>
			<g>
				<path class="st4" d="M62.04,80.19c-0.03,0-0.06,0-0.09,0c-1.04-0.02-2-0.45-2.72-1.2l-0.11-0.11c-0.62-0.65-1.65-0.67-2.3-0.05
					l-0.19,0.18c-0.71,0.68-1.63,1.04-2.61,1.04c-0.03,0-0.06,0-0.09,0c-0.96-0.02-1.87-0.4-2.56-1.07c-0.08-0.08-0.08-0.21,0-0.29
					c0.08-0.08,0.2-0.08,0.29,0c0.61,0.6,1.42,0.94,2.28,0.96c0.03,0,0.05,0,0.08,0c0.87,0,1.69-0.33,2.33-0.93l0.19-0.18
					c0.81-0.77,2.1-0.75,2.88,0.06l0.11,0.11c0.64,0.67,1.51,1.05,2.44,1.07c0.93,0.02,1.81-0.32,2.48-0.96l0.38-0.36
					c0.8-0.77,2.08-0.76,2.85,0.02c0.71,0.71,1.72,1.07,2.7,0.98c0.75-0.06,1.51-0.43,2.13-1.02l0.17-0.16
					c0.45-0.43,1.07-0.62,1.7-0.5c0.39,0.07,0.76,0.29,1.09,0.63l0.13,0.13c1.32,1.38,3.52,1.44,4.91,0.12l0.49-0.46
					c0.8-0.76,2.08-0.73,2.85,0.05l0.19,0.19c0.65,0.66,1.52,1.02,2.45,1.03l0.15,0c0.84-0.02,1.64-0.35,2.25-0.93l0.19-0.19
					c0.39-0.37,0.93-0.57,1.45-0.56c0.54,0.01,1.05,0.23,1.42,0.63l0.11,0.11c0.64,0.67,1.51,1.05,2.44,1.07
					c0.91,0.02,1.81-0.32,2.48-0.96l0.38-0.36c0.8-0.77,2.08-0.76,2.85,0.02c0.71,0.71,1.71,1.07,2.7,0.98
					c0.75-0.06,1.51-0.43,2.13-1.02l0.17-0.16c0.45-0.43,1.07-0.62,1.7-0.5c0.39,0.07,0.76,0.29,1.09,0.63l0.13,0.13
					c1.32,1.38,3.52,1.43,4.91,0.12l0.49-0.46c0.8-0.76,2.08-0.74,2.85,0.05l0.19,0.19c1.33,1.35,3.52,1.38,4.89,0.08l0.14-0.13
					c0.08-0.08,0.21-0.07,0.29,0.01c0.08,0.08,0.08,0.21-0.01,0.29l-0.14,0.13c-1.53,1.46-3.98,1.42-5.45-0.08l-0.19-0.19
					c-0.62-0.63-1.64-0.65-2.28-0.04l-0.49,0.46c-1.55,1.47-4.01,1.41-5.48-0.13l-0.13-0.13c-0.19-0.19-0.49-0.44-0.87-0.51
					c-0.48-0.09-0.98,0.05-1.34,0.39l-0.17,0.16c-0.69,0.66-1.53,1.06-2.38,1.14c-1.14,0.1-2.23-0.31-3.02-1.1
					c-0.6-0.61-1.65-0.62-2.28-0.01l-0.38,0.36c-0.75,0.72-1.76,1.1-2.77,1.08c-1.04-0.02-2-0.45-2.72-1.2l-0.11-0.11
					c-0.3-0.31-0.7-0.49-1.14-0.5c-0.41-0.01-0.85,0.15-1.16,0.45l-0.19,0.19c-0.71,0.68-1.63,1.04-2.6,1.04c-0.03,0-0.06,0-0.09,0
					l-0.2-0.01c-0.97-0.06-1.86-0.46-2.54-1.15l-0.19-0.19c-0.62-0.63-1.65-0.65-2.28-0.04l-0.49,0.46c-1.55,1.47-4,1.41-5.48-0.13
					l-0.13-0.13c-0.19-0.19-0.49-0.44-0.87-0.51c-0.49-0.09-0.98,0.05-1.34,0.39l-0.17,0.16c-0.69,0.66-1.53,1.06-2.38,1.13
					c-1.13,0.1-2.23-0.31-3.02-1.1c-0.6-0.61-1.65-0.62-2.28-0.01l-0.38,0.36C63.99,79.81,63.04,80.19,62.04,80.19z"/>
			</g>
		</g>
		<g>
			<g>
				<path class="st4" d="M62.04,78.34c-0.02,0-0.03,0-0.05,0c-0.54-0.01-1.05-0.23-1.42-0.63l-0.11-0.11
					c-0.64-0.67-1.5-1.05-2.44-1.07c-0.95-0.02-1.81,0.32-2.48,0.96l-0.19,0.19c-0.73,0.7-1.89,0.71-2.64,0.02
					c-0.08-0.08-0.09-0.2-0.01-0.29c0.08-0.08,0.2-0.09,0.29-0.01c0.59,0.55,1.5,0.54,2.08-0.02l0.19-0.19
					c0.73-0.69,1.67-1.07,2.68-1.07c0.03,0,0.06,0,0.09,0c1.04,0.02,2.01,0.45,2.72,1.19l0.11,0.11c0.3,0.31,0.7,0.49,1.14,0.5
					c0.01,0,0.03,0,0.04,0c0.42,0,0.82-0.16,1.13-0.45l0.47-0.45c0.73-0.7,1.67-1.07,2.69-1.04c1.01,0.02,1.95,0.44,2.64,1.16
					c0.34,0.36,0.83,0.52,1.32,0.45c0.39-0.05,0.7-0.29,0.89-0.47l0.12-0.12c0.75-0.72,1.74-1.1,2.77-1.08
					c1.04,0.02,2,0.45,2.72,1.2l0.12,0.12c0.62,0.65,1.65,0.67,2.3,0.06l0.49-0.46c1.52-1.45,3.97-1.41,5.44,0.1l0.19,0.19
					c0.63,0.63,1.65,0.65,2.29,0.04l0.14-0.13c0.78-0.74,1.75-1.12,2.8-1.1c1.04,0.02,2.01,0.45,2.72,1.19l0.11,0.11
					c0.3,0.31,0.7,0.49,1.14,0.5c0.44,0.01,0.85-0.15,1.16-0.45l0.47-0.45c1.51-1.44,3.9-1.38,5.34,0.12
					c0.34,0.36,0.82,0.52,1.32,0.45c0.39-0.05,0.7-0.29,0.89-0.47l0.12-0.12c0.75-0.72,1.72-1.1,2.77-1.08
					c1.04,0.02,2,0.45,2.72,1.2l0.12,0.12c0.62,0.65,1.65,0.67,2.3,0.06l0.49-0.46c1.53-1.45,3.97-1.4,5.44,0.1l0.19,0.19
					c0.62,0.63,1.65,0.65,2.29,0.04l0.14-0.13c0.08-0.08,0.21-0.07,0.29,0.01c0.08,0.08,0.08,0.21-0.01,0.29l-0.14,0.13
					c-0.8,0.77-2.08,0.74-2.86-0.04l-0.19-0.19c-1.32-1.34-3.51-1.38-4.88-0.09l-0.49,0.46c-0.81,0.77-2.09,0.74-2.87-0.07
					l-0.12-0.12c-0.64-0.67-1.51-1.05-2.44-1.07c-0.03,0-0.05,0-0.08,0c-0.9,0-1.75,0.34-2.4,0.96l-0.12,0.12
					c-0.34,0.32-0.73,0.52-1.12,0.58c-0.63,0.09-1.24-0.12-1.67-0.57c-1.28-1.34-3.43-1.39-4.76-0.11l-0.47,0.45
					c-0.39,0.37-0.91,0.58-1.45,0.56c-0.54-0.01-1.05-0.23-1.42-0.63l-0.11-0.11c-0.64-0.67-1.51-1.05-2.44-1.07
					c-0.03,0-0.06,0-0.08,0c-0.9,0-1.75,0.34-2.4,0.96l-0.17,0.16c-0.8,0.76-2.08,0.75-2.86-0.04l-0.19-0.19
					c-1.32-1.35-3.51-1.38-4.88-0.09l-0.49,0.46c-0.81,0.77-2.1,0.74-2.87-0.07l-0.12-0.12c-0.64-0.67-1.51-1.05-2.44-1.07
					c-0.03,0-0.05,0-0.08,0c-0.9,0-1.75,0.34-2.4,0.96l-0.12,0.12c-0.34,0.32-0.72,0.52-1.12,0.58c-0.63,0.09-1.24-0.12-1.67-0.57
					c-0.62-0.65-1.46-1.02-2.36-1.04c-0.03,0-0.05,0-0.08,0c-0.87,0-1.7,0.33-2.33,0.93l-0.47,0.45
					C63.06,78.14,62.57,78.34,62.04,78.34z"/>
			</g>
		</g>
		<g>
			<g>
				<path class="st4" d="M62.02,75.67c-0.03,0-0.06,0-0.09,0c-1.04-0.02-2-0.45-2.72-1.2l-0.11-0.11c-0.3-0.31-0.7-0.49-1.14-0.5
					c-0.46-0.01-0.85,0.15-1.16,0.45l-0.19,0.18c-0.71,0.68-1.63,1.04-2.61,1.04c-0.03,0-0.06,0-0.09,0
					c-0.96-0.02-1.87-0.4-2.56-1.07c-0.08-0.08-0.08-0.21,0-0.29c0.08-0.08,0.2-0.08,0.29,0c0.61,0.6,1.42,0.94,2.28,0.96
					c0.03,0,0.05,0,0.08,0c0.87,0,1.69-0.33,2.33-0.93l0.19-0.18c0.39-0.37,0.91-0.58,1.45-0.56c0.54,0.01,1.05,0.23,1.42,0.63
					l0.11,0.11c0.64,0.67,1.51,1.05,2.44,1.07c0.95,0.02,1.81-0.32,2.48-0.96l0.38-0.36c0.8-0.77,2.08-0.76,2.85,0.02
					c0.7,0.71,1.72,1.07,2.7,0.98c0.75-0.06,1.51-0.43,2.13-1.02l0.17-0.16c0.45-0.43,1.06-0.62,1.7-0.5
					c0.39,0.07,0.76,0.29,1.09,0.63l0.13,0.13c1.32,1.38,3.52,1.44,4.91,0.12l0.49-0.46c0.8-0.76,2.08-0.74,2.85,0.05l0.19,0.19
					c0.65,0.66,1.52,1.02,2.45,1.03l0.15,0c0.84-0.02,1.64-0.35,2.25-0.93l0.19-0.18c0.39-0.37,0.88-0.58,1.45-0.56
					c0.54,0.01,1.05,0.23,1.42,0.63l0.11,0.11c0.64,0.67,1.51,1.05,2.44,1.07c0.93,0.01,1.81-0.32,2.48-0.96l0.38-0.36
					c0.8-0.77,2.08-0.76,2.85,0.02c0.71,0.71,1.71,1.07,2.7,0.98c0.75-0.06,1.51-0.43,2.13-1.02l0.17-0.16
					c0.45-0.43,1.07-0.61,1.7-0.5c0.39,0.07,0.76,0.29,1.09,0.63l0.13,0.13c1.32,1.38,3.52,1.43,4.91,0.12l0.49-0.46
					c0.8-0.76,2.08-0.74,2.85,0.05l0.19,0.19c1.33,1.35,3.52,1.38,4.89,0.08l0.14-0.13c0.08-0.08,0.21-0.07,0.29,0.01
					c0.08,0.08,0.08,0.21-0.01,0.29l-0.14,0.13c-1.53,1.46-3.98,1.42-5.45-0.08l-0.19-0.19c-0.62-0.63-1.64-0.65-2.28-0.04
					l-0.49,0.46c-1.55,1.47-4.01,1.41-5.48-0.13L107.66,74c-0.19-0.19-0.49-0.44-0.87-0.51c-0.49-0.09-0.98,0.05-1.34,0.39
					l-0.17,0.16c-0.69,0.66-1.53,1.06-2.38,1.13c-1.13,0.1-2.23-0.31-3.02-1.1c-0.6-0.61-1.65-0.62-2.28-0.01l-0.38,0.36
					c-0.75,0.72-1.74,1.1-2.77,1.08c-1.04-0.02-2-0.45-2.72-1.2l-0.11-0.11c-0.3-0.31-0.7-0.49-1.14-0.5
					c-0.45-0.01-0.85,0.15-1.16,0.45l-0.19,0.19c-0.71,0.68-1.63,1.04-2.6,1.04c-0.03,0-0.06,0-0.09,0l-0.2-0.01
					c-0.97-0.06-1.86-0.46-2.54-1.15l-0.19-0.19c-0.62-0.63-1.64-0.65-2.28-0.04l-0.49,0.46c-1.55,1.47-4,1.41-5.48-0.13l-0.13-0.13
					c-0.19-0.19-0.49-0.44-0.87-0.51c-0.5-0.09-0.98,0.05-1.34,0.39l-0.17,0.16c-0.69,0.66-1.53,1.06-2.38,1.13
					c-1.13,0.1-2.23-0.31-3.02-1.1c-0.6-0.61-1.65-0.62-2.28-0.01L64.7,74.6C63.97,75.29,63.02,75.67,62.02,75.67z"/>
			</g>
		</g>
		<g>
			<g>
				<path class="st4" d="M62.02,73.82c-0.02,0-0.03,0-0.05,0c-0.54-0.01-1.05-0.23-1.42-0.63l-0.11-0.11
					c-0.64-0.67-1.5-1.05-2.44-1.07c-0.93-0.02-1.81,0.32-2.48,0.96l-0.19,0.19c-0.73,0.7-1.89,0.71-2.64,0.02
					c-0.08-0.08-0.09-0.2-0.01-0.29c0.07-0.08,0.2-0.09,0.29-0.01c0.59,0.55,1.5,0.54,2.08-0.02l0.19-0.19
					c0.73-0.69,1.67-1.07,2.68-1.07c0.03,0,0.06,0,0.09,0c1.04,0.02,2.01,0.45,2.72,1.19l0.11,0.11c0.3,0.31,0.7,0.49,1.14,0.5
					c0.42,0,0.85-0.15,1.16-0.45l0.47-0.45c0.73-0.7,1.69-1.07,2.69-1.04c1.01,0.02,1.95,0.44,2.64,1.16
					c0.34,0.36,0.83,0.52,1.32,0.45c0.39-0.05,0.7-0.29,0.89-0.47l0.12-0.12c0.73-0.7,1.68-1.08,2.68-1.08c0.03,0,0.06,0,0.09,0
					c1.04,0.02,2,0.45,2.72,1.2l0.12,0.12c0.62,0.65,1.65,0.67,2.3,0.06l0.49-0.46c1.52-1.45,3.97-1.41,5.44,0.1l0.19,0.19
					c0.62,0.63,1.65,0.65,2.29,0.04l0.14-0.13c0.78-0.74,1.77-1.12,2.8-1.1c1.04,0.02,2.01,0.45,2.72,1.19l0.11,0.11
					c0.3,0.31,0.7,0.49,1.14,0.5c0.01,0,0.03,0,0.04,0c0.42,0,0.82-0.16,1.13-0.45l0.47-0.45c1.5-1.44,3.9-1.38,5.34,0.12
					c0.34,0.36,0.83,0.52,1.32,0.45c0.39-0.05,0.7-0.29,0.89-0.47l0.12-0.12c0.75-0.72,1.74-1.1,2.77-1.08
					c1.04,0.02,2,0.45,2.72,1.2l0.12,0.12c0.62,0.65,1.65,0.67,2.3,0.06l0.49-0.46c1.52-1.45,3.96-1.41,5.44,0.1l0.19,0.19
					c0.62,0.63,1.65,0.65,2.29,0.04l0.14-0.13c0.08-0.08,0.21-0.07,0.29,0.01c0.08,0.08,0.08,0.21-0.01,0.29l-0.14,0.13
					c-0.8,0.77-2.08,0.74-2.86-0.04l-0.19-0.19c-1.32-1.34-3.51-1.38-4.88-0.09l-0.49,0.46c-0.8,0.77-2.09,0.74-2.87-0.07
					l-0.12-0.12c-0.64-0.67-1.51-1.05-2.44-1.07c-0.94-0.02-1.81,0.32-2.48,0.96l-0.12,0.12c-0.34,0.32-0.73,0.52-1.12,0.58
					c-0.63,0.09-1.24-0.12-1.67-0.57c-1.28-1.34-3.42-1.39-4.76-0.11l-0.47,0.45c-0.39,0.37-0.89,0.57-1.45,0.56
					c-0.54-0.01-1.05-0.23-1.42-0.63l-0.11-0.11c-0.64-0.67-1.51-1.05-2.44-1.07c-0.93-0.02-1.81,0.32-2.48,0.96l-0.17,0.16
					c-0.8,0.76-2.08,0.74-2.86-0.04l-0.19-0.19c-1.32-1.35-3.51-1.38-4.88-0.09l-0.49,0.46c-0.81,0.77-2.1,0.74-2.87-0.07
					l-0.12-0.12c-0.64-0.67-1.51-1.05-2.44-1.07c-0.03,0-0.05,0-0.08,0c-0.9,0-1.75,0.34-2.4,0.96l-0.12,0.12
					c-0.34,0.32-0.73,0.52-1.12,0.58c-0.63,0.09-1.24-0.12-1.67-0.57c-0.62-0.65-1.46-1.02-2.36-1.04c-0.03,0-0.05,0-0.08,0
					c-0.87,0-1.7,0.33-2.33,0.93l-0.47,0.45C63.04,73.62,62.55,73.82,62.02,73.82z"/>
			</g>
		</g>
	</g>
	<g>
		<g>
			<path class="st4" d="M59.03,90.95h1.44v2.58h2.65v-2.58h1.44v6.53h-1.44v-2.62h-2.65v2.62h-1.44V90.95z"/>
			<path class="st4" d="M67.11,90.95h1.44v6.53h-1.44V90.95z"/>
			<path class="st4" d="M71.11,90.95h2.54c2.05,0,3.47,1.41,3.47,3.24v0.02c0,1.84-1.42,3.26-3.47,3.26h-2.54V90.95z M73.66,96.18
				c1.17,0,1.97-0.79,1.97-1.95v-0.02c0-1.16-0.79-1.97-1.97-1.97h-1.11v3.93H73.66z"/>
			<path class="st4" d="M79.33,90.95h2.98c0.83,0,1.47,0.23,1.9,0.66c0.36,0.36,0.56,0.88,0.56,1.49v0.02c0,1.05-0.57,1.72-1.4,2.02
				l1.59,2.33H83.3l-1.4-2.09h-1.13v2.09h-1.44V90.95z M82.23,94.12c0.7,0,1.1-0.37,1.1-0.92v-0.02c0-0.62-0.43-0.93-1.13-0.93
				h-1.43v1.87H82.23z"/>
			<path class="st4" d="M86.72,94.23v-0.02c0-1.85,1.46-3.38,3.48-3.38s3.46,1.5,3.46,3.36v0.02c0,1.86-1.46,3.38-3.48,3.38
				C88.16,97.58,86.72,96.08,86.72,94.23z M92.15,94.23v-0.02c0-1.12-0.82-2.05-1.98-2.05c-1.16,0-1.96,0.91-1.96,2.03v0.02
				c0,1.12,0.82,2.05,1.98,2.05S92.15,95.35,92.15,94.23z"/>
			<path class="st4" d="M94.88,90.95h1.58l1.71,4.6l1.71-4.6h1.55l-2.64,6.57h-1.27L94.88,90.95z"/>
			<path class="st4" d="M103.43,90.95h1.44v6.53h-1.44V90.95z M104.7,88.97l1.22,0.53l-1.27,0.93h-1.08L104.7,88.97z"/>
			<path class="st4" d="M109.67,90.9h1.32l2.8,6.57h-1.5l-0.6-1.46h-2.76l-0.6,1.46h-1.46L109.67,90.9z M111.18,94.74l-0.87-2.12
				l-0.87,2.12H111.18z"/>
		</g>
	</g>
</g>
<g id="SERVICIOS-terminal">
</g>
<g id="SERVICIO-lab">
</g>
<g id="SERV-transp-terrestre">
</g>
<g id="SERV-opera-solidos">
</g>
<g id="COMEX">
</g>
<g id="CONTACTO">
</g>
<g id="COMPROMISO">
</g>
<g id="Capa_19" class="st0">
</g>
<g id="TERMINAL">
</g>
<g id="servicios3">
</g>
<g id="servicios2">
</g>
<g id="servicios1">
</g>
<g id="Capa_10">
</g>
<g id="solapa-servicio">
</g>
<g id="top">
</g>
<g id="esqueletoi">
</g>
<g id="guias">
</g>
</svg>
