<?xml version="1.0" encoding="utf-8"?>
<!-- Generator: Adobe Illustrator 27.9.0, SVG Export Plug-In . SVG Version: 6.00 Build 0)  -->
<svg version="1.1" xmlns="http://www.w3.org/2000/svg" xmlns:xlink="http://www.w3.org/1999/xlink" x="0px" y="0px"
	 viewBox="0 0 109.27 96" style="enable-background:new 0 0 109.27 96;" xml:space="preserve">
<style type="text/css">
	.st0{fill:#8F8F8F;}
	.st1{fill:#6E6E6E;}
	.st2{fill:#FFFFFF;}
	.st3{clip-path:url(#SVGID_00000030464839043905575640000017379557695737607331_);}
	.st4{fill:#878787;}
	.st5{fill:#4C4C4A;}
	.st6{fill:#858658;}
	.st7{fill:#1BB09D;}
	.st8{fill:#4CABCB;}
	.st9{fill:#737373;}
	.st10{fill:#4FA98B;}
	.st11{fill:#2276BB;}
	.st12{fill:none;stroke:#FFFFFF;stroke-width:0.25;stroke-miterlimit:10;}
	.st13{clip-path:url(#SVGID_00000102510052009675173030000008546883525797513397_);}
	.st14{clip-path:url(#SVGID_00000129903134277415816750000007152418952685200533_);}
	.st15{clip-path:url(#SVGID_00000083084629494258898360000014339894495380808858_);}
	.st16{clip-path:url(#SVGID_00000098223191216713562700000011373860272778656655_);}
	.st17{clip-path:url(#SVGID_00000177465940100462890680000009254187924540053659_);}
	.st18{clip-path:url(#SVGID_00000145042486871127029780000012129233366667604409_);}
	.st19{clip-path:url(#SVGID_00000049908044953016643140000005022834576340625849_);}
	.st20{clip-path:url(#SVGID_00000013882883557501023510000011688190951582259076_);}
	.st21{clip-path:url(#SVGID_00000142868735422696832460000001298121187846739099_);}
	
		.st22{clip-path:url(#SVGID_00000142159114658103682760000015783556966896478398_);fill:url(#SVGID_00000145778656807584212030000010058080304591229093_);}
	.st23{fill:#003DA6;stroke:#003DA6;stroke-width:0.25;stroke-miterlimit:10;}
	.st24{fill:none;stroke:#003DA6;stroke-width:0.3;stroke-miterlimit:10;}
	.st25{fill:#FFFFFF;stroke:#ABABAB;stroke-width:0.3093;stroke-miterlimit:10;}
	.st26{fill:none;stroke:#003DA6;stroke-width:0.5024;stroke-miterlimit:10;}
	.st27{fill:#FFFFFF;stroke:#003DA6;stroke-width:0.3467;stroke-miterlimit:10;}
	.st28{opacity:0.5;fill:url(#SVGID_00000103944692946871404980000009669069486915383694_);}
	.st29{fill:url(#SVGID_00000076582059843346772070000000236091293457730746_);}
	.st30{fill:#E4F4F9;}
	.st31{fill:#003DA6;}
	.st32{fill:#003DA6;stroke:#FFFFFF;stroke-width:0.2257;stroke-miterlimit:10;}
	.st33{fill:#FFFFFF;stroke:#003DA6;stroke-width:0.2257;stroke-miterlimit:10;}
	.st34{fill:#FFFFFF;stroke:#ABABAB;stroke-width:0.3504;stroke-miterlimit:10;}
	.st35{fill-rule:evenodd;clip-rule:evenodd;fill:#FFFFFF;stroke:#ABABAB;stroke-width:0.4053;stroke-miterlimit:10;}
	.st36{fill:#FFFFFF;stroke:#ABABAB;stroke-width:0.4053;stroke-miterlimit:10;}
	.st37{opacity:0.7;fill:url(#SVGID_00000119832477595790532740000007975622258603428782_);}
	.st38{opacity:0.5;fill:#4C4C4A;}
	.st39{opacity:0.5;fill:#858658;}
	.st40{opacity:0.5;fill:#1BB09D;}
	.st41{opacity:0.5;fill:#4CABCB;}
	.st42{opacity:0.5;fill:#737373;}
	.st43{opacity:0.5;fill:#2276BB;}
	.st44{fill:none;stroke:#003DA6;stroke-width:0.2224;stroke-miterlimit:10;}
	.st45{fill:#FFFFFF;stroke:#003DA6;stroke-width:0.2835;stroke-miterlimit:10;}
	.st46{fill:none;stroke:#003DA6;stroke-width:0.1864;stroke-linecap:round;stroke-miterlimit:1;}
	.st47{fill:#FFFFFF;stroke:#003DA6;stroke-width:0.1;stroke-miterlimit:10;}
	.st48{fill:none;stroke:#003DA6;stroke-width:0.2835;stroke-miterlimit:10;}
	.st49{fill:#575757;}
	.st50{clip-path:url(#SVGID_00000032641757861471801790000010072811143432722580_);}
	.st51{opacity:0.7;fill:url(#SVGID_00000145756913187414951100000009489863230259997586_);}
	.st52{fill:none;stroke:#003DA6;stroke-width:0.25;stroke-miterlimit:10;}
	.st53{fill:#1C3F81;}
	.st54{fill:none;stroke:#949494;stroke-width:0.25;stroke-miterlimit:10;}
	.st55{clip-path:url(#SVGID_00000103964814823107394030000007344041158503253898_);}
	.st56{fill:#43B6A5;}
	.st57{fill:#25745C;}
	.st58{clip-path:url(#SVGID_00000144332217307606597010000007403358098635083654_);}
	.st59{display:none;}
	.st60{display:inline;}
	.st61{display:inline;fill:#1C3F81;}
	.st62{display:inline;fill:#4C4C4A;}
	.st63{fill:url(#SVGID_00000150090382391285766140000011197096196002354819_);}
	.st64{fill:url(#SVGID_00000107590892123873812520000017933859611996681917_);}
	.st65{fill:none;stroke:#FFFFFF;stroke-width:2;stroke-linecap:round;stroke-miterlimit:10;}
	.st66{clip-path:url(#SVGID_00000179624121145769959070000015191183096250985907_);}
	.st67{fill:#003DA6;stroke:#FFFFFF;stroke-width:0.1346;stroke-miterlimit:10;}
	.st68{fill:#141414;}
	.st69{stroke:#FFFFFF;stroke-width:0.1346;stroke-miterlimit:10;}
	.st70{clip-path:url(#SVGID_00000163790118983303530470000011600498108060917176_);}
	.st71{opacity:0.18;}
	.st72{fill:#089F91;}
	.st73{opacity:0.18;fill:#BADDE9;}
	.st74{fill:#F5F4EF;stroke:#FFFFFF;stroke-width:1.8244;stroke-miterlimit:10;}
	.st75{opacity:0.65;fill:#858658;}
	.st76{fill:#C3DFF5;}
	.st77{opacity:0.63;}
	.st78{fill:#9C9B9B;}
	.st79{fill:#A9A9A9;}
	.st80{fill:#35350B;}
	.st81{fill:none;stroke:#FFFFFF;stroke-width:0.1824;stroke-linecap:round;stroke-linejoin:round;stroke-miterlimit:10;}
	.st82{opacity:0.64;}
	.st83{fill:#F5F4EF;}
	.st84{clip-path:url(#SVGID_00000017497335316618481750000005335672217339686289_);}
	.st85{fill:#F5F4EF;stroke:#FFFFFF;stroke-width:1.2815;stroke-miterlimit:10;}
	.st86{opacity:0.65;}
	.st87{fill:none;stroke:#FFFFFF;stroke-width:0.1281;stroke-linecap:round;stroke-linejoin:round;stroke-miterlimit:10;}
	.st88{fill:#1D1D1B;}
	
		.st89{opacity:0.4;clip-path:url(#SVGID_00000010268665144639801760000012620581636718503585_);fill:url(#SVGID_00000088819789440392974890000013938902192649626755_);}
	.st90{fill:#45CFDA;}
	.st91{clip-path:url(#SVGID_00000139279158513255959710000000478579468554056834_);}
	.st92{clip-path:url(#SVGID_00000052817862983382848570000008013355825460937105_);}
	.st93{fill:#FFFFFF;stroke:#ABABAB;stroke-width:0.4901;stroke-miterlimit:10;}
	.st94{fill:url(#SVGID_00000021099840729368034420000011234855488147313083_);}
	.st95{fill-rule:evenodd;clip-rule:evenodd;fill:#FFFFFF;stroke:#ABABAB;stroke-width:0.2763;stroke-miterlimit:10;}
	.st96{fill:#FFFFFF;stroke:#ABABAB;stroke-width:0.2763;stroke-miterlimit:10;}
	.st97{fill:#0A0A0A;}
	.st98{opacity:0.5;}
	.st99{fill:#565630;}
	.st100{fill:#A2E3F4;}
	.st101{fill:#454545;}
	.st102{fill:none;stroke:#454545;stroke-width:0.5151;stroke-miterlimit:10;}
	.st103{clip-path:url(#SVGID_00000105411044439835057010000016240724546191162258_);}
	.st104{clip-path:url(#SVGID_00000013176990706744512070000001993332475101905554_);}
	.st105{fill:none;stroke:#787878;stroke-width:0.2794;stroke-miterlimit:10;}
	.st106{fill:none;stroke:#787878;stroke-width:0.2073;stroke-miterlimit:10;}
	.st107{fill:none;stroke:#A7B972;stroke-width:0.2557;stroke-miterlimit:10;}
	.st108{fill:none;stroke:#A7B972;stroke-width:0.1622;stroke-miterlimit:10;}
	
		.st109{clip-path:url(#SVGID_00000011031905617948167380000014740693624863152288_);fill:url(#SVGID_00000048486337149661198520000003920319207361082268_);}
	.st110{clip-path:url(#SVGID_00000134965570976169524550000012297435379491589530_);}
	.st111{clip-path:url(#SVGID_00000074407590360664444680000001557507117211461529_);}
	.st112{clip-path:url(#SVGID_00000065788858300305698360000001862410522905511049_);}
	.st113{clip-path:url(#SVGID_00000108281084128865863730000007489553702477437575_);}
	.st114{clip-path:url(#SVGID_00000131362305761871393970000004592998029896537270_);}
	.st115{fill:url(#SVGID_00000159451765212426135470000012230177472489356168_);}
	.st116{opacity:0.27;fill:#BADDE9;}
	.st117{clip-path:url(#SVGID_00000085218875886106650510000011906612781918649527_);}
	.st118{opacity:0.29;}
	
		.st119{clip-path:url(#SVGID_00000122700078543379237800000002711474195708392382_);fill:url(#SVGID_00000130624002073795358730000000883809230261661600_);}
	.st120{opacity:0.71;}
	.st121{clip-path:url(#SVGID_00000071549375347269624070000007508879277604069281_);}
	.st122{clip-path:url(#SVGID_00000075142042060748029670000008089070367221221783_);}
	.st123{clip-path:url(#SVGID_00000130648898895002488750000000340362362799389879_);}
	.st124{fill:none;stroke:#575757;stroke-miterlimit:10;}
	.st125{fill:none;stroke:#575757;stroke-width:0.5;stroke-miterlimit:10;}
	.st126{fill:#D1D1D1;stroke:#828282;stroke-width:0.1864;stroke-linecap:round;stroke-miterlimit:1;}
	.st127{fill:#FFFFFF;stroke:#828282;stroke-width:0.1864;stroke-linecap:round;stroke-miterlimit:1;}
	.st128{fill:#828282;stroke:#424242;stroke-width:0.5;stroke-miterlimit:1;}
	.st129{fill:none;stroke:#828282;stroke-width:0.1864;stroke-linecap:round;stroke-miterlimit:1;}
	.st130{fill:none;stroke:#1C1C1C;stroke-width:0.1864;stroke-linecap:round;stroke-miterlimit:1;}
	.st131{fill:none;stroke:#828282;stroke-width:0.75;stroke-linecap:round;stroke-miterlimit:1;}
	.st132{fill:none;stroke:#292929;stroke-width:0.75;stroke-linecap:round;stroke-miterlimit:1;}
	.st133{fill:#363636;}
	.st134{fill:none;stroke:#3D3D3D;stroke-width:0.1864;stroke-linecap:round;stroke-miterlimit:1;}
	.st135{fill:none;stroke:#BDBDBD;stroke-width:0.75;stroke-miterlimit:10;}
	.st136{opacity:0.27;fill:#E8E8E8;}
	.st137{fill:none;stroke:#003DA6;stroke-width:0.1794;stroke-miterlimit:10;}
	.st138{clip-path:url(#SVGID_00000004534162029964811810000017593008394519600565_);}
	.st139{fill:#1F1F1F;}
	.st140{clip-path:url(#SVGID_00000000911167868660497650000000038095557558891709_);}
	.st141{clip-path:url(#SVGID_00000060016214335792784310000013401163975177192613_);}
	.st142{clip-path:url(#SVGID_00000127739822206303884640000015469214196274360745_);}
	.st143{clip-path:url(#SVGID_00000085236738813335779380000002108928909033156229_);}
	.st144{fill:url(#SVGID_00000096041338428742772480000010296645694722327692_);}
	.st145{fill:#C0E3EA;}
	.st146{fill:#27745C;}
	.st147{fill:#4D4D4D;}
	.st148{clip-path:url(#SVGID_00000154400833022059761010000017180434475476403365_);}
	.st149{fill:none;stroke:#4DABCB;stroke-width:2;stroke-miterlimit:10;}
	.st150{fill:none;stroke:#27745C;stroke-width:3;stroke-miterlimit:10;}
	.st151{fill:url(#SVGID_00000142873452842068617710000001318983177984138639_);}
	.st152{fill:url(#SVGID_00000155853247878227248410000005628376082299622582_);}
	.st153{fill:#706F6F;}
	.st154{fill:none;}
	.st155{fill:url(#SVGID_00000111891535000862720620000007774974436582590628_);}
	.st156{fill:none;stroke:#4DABCB;stroke-width:2;stroke-linecap:round;stroke-miterlimit:10;}
	.st157{fill:url(#SVGID_00000061473739499484646870000005867594946911357335_);}
	.st158{clip-path:url(#SVGID_00000164505515647554919780000005859971026761052299_);}
	.st159{opacity:0.35;fill:#1C3F81;}
	.st160{clip-path:url(#SVGID_00000095309970363500443560000008423324010705307034_);}
	.st161{clip-path:url(#SVGID_00000142864985713327190840000000658792225958841743_);}
	.st162{opacity:0.29;fill:#4C1608;}
	.st163{clip-path:url(#SVGID_00000178189448879339084580000000556101364624083608_);}
	.st164{opacity:0.29;fill:#054096;}
	.st165{clip-path:url(#SVGID_00000111873790755776743000000013327231827294940590_);}
	.st166{clip-path:url(#SVGID_00000074429714952522112860000017009604622885025161_);}
	.st167{opacity:0.23;fill:#95A71A;}
	.st168{fill:#799B1C;}
	.st169{opacity:0.5;fill:url(#SVGID_00000127021419652936706050000014144153716480926904_);}
	
		.st170{clip-path:url(#SVGID_00000076596997521462479850000006071263575058775698_);fill:url(#SVGID_00000081637455402242283750000004560400141299300233_);}
	
		.st171{clip-path:url(#SVGID_00000147191304923204927230000002982716332863879068_);fill:url(#SVGID_00000045587389986959546110000008621362527771257768_);}
	.st172{clip-path:url(#SVGID_00000026124982691648399710000013869206593535659702_);}
	.st173{clip-path:url(#SVGID_00000072991655996509702860000014658551231904443025_);}
	.st174{opacity:0.57;fill:#BADDE9;}
	.st175{opacity:0.54;fill:#1C3F81;}
	.st176{clip-path:url(#SVGID_00000049941189248731353340000007768332777148630411_);}
	.st177{clip-path:url(#SVGID_00000128469034111661774340000002691092598119425963_);}
	.st178{fill:url(#SVGID_00000063602928366102999980000001257863093005712787_);}
	.st179{fill:url(#SVGID_00000086682703237950175300000004451299724590369408_);}
	.st180{clip-path:url(#SVGID_00000142163342942145875580000000965792362942958782_);}
	.st181{clip-path:url(#SVGID_00000075873070046279333080000012302050211692492219_);}
	.st182{fill:none;stroke:#FFFFFF;stroke-width:0.75;stroke-miterlimit:10;}
	.st183{fill:none;stroke:#FFFFFF;stroke-width:0.7503;stroke-miterlimit:10;}
	.st184{clip-path:url(#SVGID_00000092452698279033236220000007932165070399815299_);fill:#FFFFFF;}
	.st185{fill:none;stroke:#2276BB;stroke-width:0.1;stroke-miterlimit:10;}
	.st186{fill:none;stroke:#FFFFFF;stroke-width:0.5;stroke-miterlimit:10;}
	.st187{clip-path:url(#SVGID_00000001638047136114764530000004213360001826772898_);fill:#FFFFFF;}
	.st188{clip-path:url(#SVGID_00000045611241497770694390000012251469415932367039_);fill:#FFFFFF;}
	.st189{clip-path:url(#SVGID_00000081644471658444965570000008457433870557483664_);fill:#FFFFFF;}
	.st190{fill:url(#SVGID_00000180325062664519767870000017118347046262947219_);}
	.st191{fill:none;stroke:#003DA6;stroke-width:0.2543;stroke-linecap:round;stroke-miterlimit:10;}
	.st192{fill:#BEE2E9;}
	.st193{fill:#7FA6E5;}
	.st194{opacity:0.97;fill:#71D4FF;}
</style>
<g id="iconos-fondo">
</g>
<g id="footer">
</g>
<g id="fondo">
</g>
<g id="detacado-foto">
</g>
<g id="bloque_1-A">
</g>
<g id="bloque_1_B">
</g>
<g id="destacado" class="st59">
</g>
<g id="destacado-hidro" class="st59">
</g>
<g id="destacado-camion">
</g>
<g id="cont">
</g>
<g id="EMPRESA">
</g>
<g id="SERVICIOS-terminal">
	<g>
		<g>
			<defs>
				<rect id="SVGID_00000168088821259831232350000009064612863647256195_" x="53.01" y="39.1" width="48.71" height="45.91"/>
			</defs>
			<clipPath id="SVGID_00000034777772586853061450000002545759974213588379_">
				<use xlink:href="#SVGID_00000168088821259831232350000009064612863647256195_"  style="overflow:visible;"/>
			</clipPath>
			<g style="clip-path:url(#SVGID_00000034777772586853061450000002545759974213588379_);">
				<path class="st49" d="M84.97,59.97h3.86v-6.56h-3.86V59.97z M85.79,54.23h2.23v4.93h-2.23V54.23z"/>
				<path class="st49" d="M90.18,59.97h6.25v-6.56h-6.25V59.97z M91,54.23h4.62v4.93H91V54.23z"/>
				<path class="st49" d="M87.88,68.1c-2.96,0-5.38,2.41-5.38,5.38c0,2.96,2.41,5.38,5.38,5.38c2.96,0,5.38-2.41,5.38-5.38
					C93.25,70.51,90.84,68.1,87.88,68.1z M87.88,78.04c-2.52,0-4.56-2.04-4.56-4.56c0-2.52,2.04-4.56,4.56-4.56s4.56,2.04,4.56,4.56
					C92.44,76,90.4,78.04,87.88,78.04z"/>
				<path class="st49" d="M98.31,70.56V51.93l-1.82-1.79H78.23v3.27l-2.66,5.65v11.51h-7.08c-1.15-2.4-3.59-4.03-6.48-4.03
					c-2.14,0-4.16,0.92-5.53,2.5c-1.36-1.57-3.39-2.5-5.53-2.5c-2.89,0-5.33,1.63-6.48,4.03h-2.73v3.18h2.01h0.47h0.4
					c0-3.57,2.78-6.36,6.33-6.36c2.04,0,3.97,0.96,5.16,2.57c0.01,0.02,0.02,0.03,0.04,0.05c0.13,0.15,0.35,0.19,0.53,0.1
					c0.07-0.03,0.13-0.09,0.17-0.15c1.19-1.61,3.11-2.57,5.16-2.57c3.55,0,6.33,2.79,6.33,6.36h0.4c0.18,0,0.34,0,0.47,0
					c0.9,0,0.96,0,0.96,0v1.38h10.17v-1.38h1.42c0-0.09-0.01-0.18-0.01-0.28c0-3.38,2.74-6.12,6.12-6.12c3.38,0,6.12,2.74,6.12,6.12
					c0,0.09,0,0.19-0.01,0.28h5.42v-3.18H98.31z M42.56,72.92v-1.55h1.59c-0.17,0.49-0.29,1.01-0.34,1.55H42.56z M98.6,72.92h-3.81
					c-0.27-3.57-3.27-6.4-6.91-6.4s-6.64,2.82-6.91,6.4h-1.43v1.38h-8.55v-1.38h-1.82c-0.06-0.54-0.18-1.06-0.34-1.55h7.56V59.24
					l2.58-5.48l0.08-0.16v-2.64h17.11l1.34,1.32v19.1h1.1V72.92z"/>
				<path class="st49" d="M87.88,70.47c-1.66,0-3.01,1.35-3.01,3.01c0,1.66,1.35,3.01,3.01,3.01s3.01-1.35,3.01-3.01
					C90.89,71.82,89.54,70.47,87.88,70.47z M87.88,75.67c-1.21,0-2.2-0.98-2.2-2.2c0-1.21,0.98-2.2,2.2-2.2c1.21,0,2.2,0.98,2.2,2.2
					C90.07,74.69,89.09,75.67,87.88,75.67z"/>
				<path class="st49" d="M16.62,68.1c-2.96,0-5.38,2.41-5.38,5.38c0,2.96,2.41,5.38,5.38,5.38c2.96,0,5.38-2.41,5.38-5.38
					C21.99,70.51,19.58,68.1,16.62,68.1z M16.62,78.04c-2.52,0-4.56-2.04-4.56-4.56c0-2.52,2.04-4.56,4.56-4.56
					c2.52,0,4.56,2.04,4.56,4.56C21.18,76,19.14,78.04,16.62,78.04z"/>
				<path class="st49" d="M16.62,70.47c-1.66,0-3.01,1.35-3.01,3.01c0,1.66,1.35,3.01,3.01,3.01c1.66,0,3.01-1.35,3.01-3.01
					C19.63,71.82,18.28,70.47,16.62,70.47z M16.62,75.67c-1.21,0-2.2-0.98-2.2-2.2c0-1.21,0.98-2.2,2.2-2.2c1.21,0,2.2,0.98,2.2,2.2
					C18.81,74.69,17.83,75.67,16.62,75.67z"/>
				<path class="st49" d="M5.57,68.1c-2.96,0-5.38,2.41-5.38,5.38c0,2.96,2.41,5.38,5.38,5.38c2.96,0,5.38-2.41,5.38-5.38
					C10.94,70.51,8.53,68.1,5.57,68.1z M5.57,78.04c-2.52,0-4.56-2.04-4.56-4.56c0-2.52,2.04-4.56,4.56-4.56s4.56,2.04,4.56,4.56
					C10.13,76,8.09,78.04,5.57,78.04z"/>
				<path class="st49" d="M5.57,70.47c-1.66,0-3.01,1.35-3.01,3.01c0,1.66,1.35,3.01,3.01,3.01c1.66,0,3.01-1.35,3.01-3.01
					C8.58,71.82,7.23,70.47,5.57,70.47z M5.57,75.67c-1.21,0-2.2-0.98-2.2-2.2c0-1.21,0.98-2.2,2.2-2.2c1.21,0,2.2,0.98,2.2,2.2
					C7.76,74.69,6.78,75.67,5.57,75.67z"/>
				<path class="st49" d="M61.86,68.1c-2.96,0-5.38,2.41-5.38,5.38c0,2.96,2.41,5.38,5.38,5.38c2.96,0,5.38-2.41,5.38-5.38
					C67.24,70.51,64.83,68.1,61.86,68.1z M61.86,78.04c-2.52,0-4.56-2.04-4.56-4.56c0-2.52,2.04-4.56,4.56-4.56
					c2.52,0,4.56,2.04,4.56,4.56C66.43,76,64.38,78.04,61.86,78.04z"/>
				<path class="st49" d="M61.86,70.47c-1.66,0-3.01,1.35-3.01,3.01c0,1.66,1.35,3.01,3.01,3.01c1.66,0,3.01-1.35,3.01-3.01
					C64.87,71.82,63.52,70.47,61.86,70.47z M61.86,75.67c-1.21,0-2.2-0.98-2.2-2.2c0-1.21,0.98-2.2,2.2-2.2c1.21,0,2.2,0.98,2.2,2.2
					C64.06,74.69,63.08,75.67,61.86,75.67z"/>
				<path class="st49" d="M50.81,68.1c-2.96,0-5.38,2.41-5.38,5.38c0,2.96,2.41,5.38,5.38,5.38c2.96,0,5.38-2.41,5.38-5.38
					C56.19,70.51,53.78,68.1,50.81,68.1z M50.81,78.04c-2.52,0-4.56-2.04-4.56-4.56c0-2.52,2.04-4.56,4.56-4.56
					c2.52,0,4.56,2.04,4.56,4.56C55.37,76,53.33,78.04,50.81,78.04z"/>
				<path class="st49" d="M50.81,70.47c-1.66,0-3.01,1.35-3.01,3.01c0,1.66,1.35,3.01,3.01,3.01c1.66,0,3.01-1.35,3.01-3.01
					C53.82,71.82,52.47,70.47,50.81,70.47z M50.81,75.67c-1.21,0-2.2-0.98-2.2-2.2c0-1.21,0.98-2.2,2.2-2.2c1.21,0,2.2,0.98,2.2,2.2
					C53.01,74.69,52.02,75.67,50.81,75.67z"/>
				<rect x="6.61" y="50.96" class="st49" width="5.05" height="0.81"/>
				<rect x="-1.56" y="50.96" class="st49" width="5.05" height="0.81"/>
				<rect x="-1.56" y="49.04" class="st49" width="5.05" height="0.81"/>
				<rect x="55.91" y="60.12" class="st49" width="5.05" height="0.81"/>
				<rect x="64.08" y="60.12" class="st49" width="5.05" height="0.81"/>
				<rect x="64.08" y="62.05" class="st49" width="5.05" height="0.81"/>
				<rect x="36.97" y="49.04" class="st49" width="5.05" height="0.81"/>
				<rect x="45.14" y="49.04" class="st49" width="5.05" height="0.81"/>
				<rect x="45.14" y="50.96" class="st49" width="5.05" height="0.81"/>
				<rect x="25.15" y="62.05" class="st49" width="5.05" height="0.81"/>
				<rect x="16.97" y="62.05" class="st49" width="5.05" height="0.81"/>
				<rect x="16.97" y="60.12" class="st49" width="5.05" height="0.81"/>
				<rect x="14.73" y="48.85" class="st49" width="0.81" height="14.11"/>
				<rect x="33.38" y="48.85" class="st49" width="0.81" height="14.11"/>
				<rect x="52.04" y="48.85" class="st49" width="0.81" height="14.11"/>
				<path class="st49" d="M37.4,66.89h-7.08c-3.89,0-3.89,6.84,0,6.84h7.08C41.37,73.74,41.37,66.89,37.4,66.89z M37.4,72.86h-0.19
					v-3.45h-0.81v3.45h-6.08c-0.63,0-1.13-0.24-1.49-0.72c-0.35-0.46-0.55-1.13-0.55-1.82c0-0.7,0.2-1.36,0.55-1.82
					c0.36-0.48,0.87-0.72,1.49-0.72h0.11v3.6h0.81v-3.6h6.16c1.66,0,2.1,1.6,2.1,2.55C39.5,71.26,39.05,72.86,37.4,72.86z"/>
				<path class="st49" d="M-4.08,65.65h75.5V49.28h1.31V46.7H72v-1.86h-0.41h-0.41H70.5h-0.67h-0.15v1.86H53.6v-1.86h-0.41h-0.41
					H52.1h-0.67h-0.15v1.86H34.94v-1.86h-0.41h-0.41h-0.68h-0.67h-0.15v1.86H16.29v-1.86h-0.41h-0.41h-0.68h-0.67h-0.15v1.86H-1.56
					v-1.86h-0.41h-0.41h-0.68h-0.67h-0.15v1.86h-1.21v2.59h1.01V65.65z M-4.21,48.41v-0.83h0.79v0h0.36v-1.92h0.68v1.92h0.57v0
					h16.28v0h0.32v-1.92h0.68v1.92h0.56v0h16.89v0h0.52v-1.92h0.68v1.92h0.6v0h17.2v0h0.18v-1.92h0.68v1.92h0.37v0h17.06v0h0.28
					v-1.92h0.68v1.92h0.46v0h0.22v0.83h-1.31v16.37H-3.2V48.41H-4.21z"/>
				<path class="st49" d="M16.62,66.28c-2.14,0-4.16,0.96-5.53,2.58c-1.36-1.63-3.39-2.58-5.53-2.58c-2.93,0-5.4,1.73-6.53,4.28
					h-4.43v3.18h3.76h0.44h0.44c0-3.69,2.78-6.59,6.33-6.59c2.04,0,3.97,0.99,5.16,2.66c0.01,0.02,0.02,0.03,0.04,0.05
					c0.13,0.15,0.35,0.2,0.53,0.11c0.07-0.04,0.13-0.09,0.17-0.15c1.19-1.67,3.11-2.66,5.16-2.66c3.55,0,6.33,2.89,6.33,6.59h0.48
					h0.4H26v-3.18h-2.85C22.02,68.01,19.55,66.28,16.62,66.28z M-1.83,72.92h-2.75v-1.55h3.31c-0.15,0.48-0.26,0.99-0.31,1.51
					C-1.82,72.9-1.83,72.91-1.83,72.92z M25.18,71.37v1.55h-1.41c-0.05-0.54-0.16-1.06-0.32-1.55H25.18z"/>
			</g>
		</g>
		<rect x="10.13" y="33.71" class="st49" width="48.71" height="45.91"/>
		<rect x="10.13" y="28.23" class="st49" width="89.02" height="4.05"/>
	</g>
</g>
<g id="SERVICIO-lab">
</g>
<g id="SERV-transp-terrestre">
</g>
<g id="SERV-opera-solidos">
</g>
<g id="COMEX">
</g>
<g id="CONTACTO">
</g>
<g id="COMPROMISO">
</g>
<g id="Capa_19" class="st59">
</g>
<g id="TERMINAL">
</g>
<g id="servicios3">
</g>
<g id="servicios2">
</g>
<g id="servicios1">
</g>
<g id="Capa_10">
</g>
<g id="solapa-servicio">
</g>
<g id="top">
</g>
<g id="esqueletoi">
</g>
<g id="guias">
</g>
</svg>
