<?xml version="1.0" encoding="utf-8"?>
<!-- Generator: Adobe Illustrator 27.9.0, SVG Export Plug-In . SVG Version: 6.00 Build 0)  -->
<svg version="1.1" xmlns="http://www.w3.org/2000/svg" xmlns:xlink="http://www.w3.org/1999/xlink" x="0px" y="0px"
	 viewBox="0 0 146.7 96" style="enable-background:new 0 0 146.7 96;" xml:space="preserve">
<style type="text/css">
	.st0{fill:#8F8F8F;}
	.st1{fill:#6E6E6E;}
	.st2{fill:#FFFFFF;}
	.st3{clip-path:url(#SVGID_00000010312715622672290120000008746141837880419715_);}
	.st4{fill:#878787;}
	.st5{fill:#4C4C4A;}
	.st6{fill:#858658;}
	.st7{fill:#1BB09D;}
	.st8{fill:#4CABCB;}
	.st9{fill:#737373;}
	.st10{fill:#4FA98B;}
	.st11{fill:#2276BB;}
	.st12{fill:none;stroke:#FFFFFF;stroke-width:0.25;stroke-miterlimit:10;}
	.st13{clip-path:url(#SVGID_00000152262138694860237280000007618399187600687804_);}
	.st14{clip-path:url(#SVGID_00000178916172780310444740000012798454574355530685_);}
	.st15{clip-path:url(#SVGID_00000132808099557597088690000012187197788080072105_);}
	.st16{clip-path:url(#SVGID_00000110451051514295285900000011011424353066328764_);}
	.st17{clip-path:url(#SVGID_00000086687846732815632300000005387307510097146792_);}
	.st18{clip-path:url(#SVGID_00000034065131265223774330000008936193461644295095_);}
	.st19{clip-path:url(#SVGID_00000003065992326985399560000011997663727210582950_);}
	.st20{clip-path:url(#SVGID_00000052819675564182843120000006664692541055121289_);}
	.st21{clip-path:url(#SVGID_00000129891662701060336400000002472529426451649683_);}
	
		.st22{clip-path:url(#SVGID_00000126309373611666580460000016362050890606973070_);fill:url(#SVGID_00000008863921773055876570000005351200754824196244_);}
	.st23{fill:#003DA6;stroke:#003DA6;stroke-width:0.25;stroke-miterlimit:10;}
	.st24{fill:none;stroke:#003DA6;stroke-width:0.3;stroke-miterlimit:10;}
	.st25{fill:#FFFFFF;stroke:#ABABAB;stroke-width:0.3093;stroke-miterlimit:10;}
	.st26{fill:none;stroke:#003DA6;stroke-width:0.5024;stroke-miterlimit:10;}
	.st27{fill:#FFFFFF;stroke:#003DA6;stroke-width:0.3467;stroke-miterlimit:10;}
	.st28{opacity:0.5;fill:url(#SVGID_00000137124900475413925300000005438442930665395843_);}
	.st29{fill:url(#SVGID_00000149374579302603428240000007129621011451145143_);}
	.st30{fill:#E4F4F9;}
	.st31{fill:#003DA6;}
	.st32{fill:#003DA6;stroke:#FFFFFF;stroke-width:0.2257;stroke-miterlimit:10;}
	.st33{fill:#FFFFFF;stroke:#003DA6;stroke-width:0.2257;stroke-miterlimit:10;}
	.st34{fill:#FFFFFF;stroke:#ABABAB;stroke-width:0.3504;stroke-miterlimit:10;}
	.st35{fill-rule:evenodd;clip-rule:evenodd;fill:#FFFFFF;stroke:#ABABAB;stroke-width:0.4053;stroke-miterlimit:10;}
	.st36{fill:#FFFFFF;stroke:#ABABAB;stroke-width:0.4053;stroke-miterlimit:10;}
	.st37{opacity:0.7;fill:url(#SVGID_00000170960409419975507720000000070993760245614253_);}
	.st38{opacity:0.5;fill:#4C4C4A;}
	.st39{opacity:0.5;fill:#858658;}
	.st40{opacity:0.5;fill:#1BB09D;}
	.st41{opacity:0.5;fill:#4CABCB;}
	.st42{opacity:0.5;fill:#737373;}
	.st43{opacity:0.5;fill:#2276BB;}
	.st44{fill:none;stroke:#003DA6;stroke-width:0.2224;stroke-miterlimit:10;}
	.st45{fill:#FFFFFF;stroke:#003DA6;stroke-width:0.2835;stroke-miterlimit:10;}
	.st46{fill:none;stroke:#003DA6;stroke-width:0.1864;stroke-linecap:round;stroke-miterlimit:1;}
	.st47{fill:#FFFFFF;stroke:#003DA6;stroke-width:0.1;stroke-miterlimit:10;}
	.st48{fill:none;stroke:#003DA6;stroke-width:0.2835;stroke-miterlimit:10;}
	.st49{fill:#575757;}
	.st50{clip-path:url(#SVGID_00000073679259196888592590000003726629018752339845_);}
	.st51{opacity:0.7;fill:url(#SVGID_00000050629711817761398780000008078584083354217097_);}
	.st52{fill:none;stroke:#003DA6;stroke-width:0.25;stroke-miterlimit:10;}
	.st53{fill:#1C3F81;}
	.st54{fill:none;stroke:#949494;stroke-width:0.25;stroke-miterlimit:10;}
	.st55{clip-path:url(#SVGID_00000033350953880412149010000014393003394303630506_);}
	.st56{fill:#43B6A5;}
	.st57{fill:#25745C;}
	.st58{clip-path:url(#SVGID_00000155111417419032530690000001594002888765968043_);}
	.st59{display:none;}
	.st60{display:inline;}
	.st61{display:inline;fill:#1C3F81;}
	.st62{display:inline;fill:#4C4C4A;}
	.st63{fill:url(#SVGID_00000031191609546464335780000011973537510858724762_);}
	.st64{fill:url(#SVGID_00000115480262031335524650000010176885272255358859_);}
	.st65{fill:none;stroke:#FFFFFF;stroke-width:2;stroke-linecap:round;stroke-miterlimit:10;}
	.st66{clip-path:url(#SVGID_00000129925462676664405880000013871957277757345446_);}
	.st67{fill:#003DA6;stroke:#FFFFFF;stroke-width:0.1346;stroke-miterlimit:10;}
	.st68{fill:#141414;}
	.st69{stroke:#FFFFFF;stroke-width:0.1346;stroke-miterlimit:10;}
	.st70{clip-path:url(#SVGID_00000023265793585086074170000004685554151266451377_);}
	.st71{opacity:0.18;}
	.st72{fill:#089F91;}
	.st73{opacity:0.18;fill:#BADDE9;}
	.st74{fill:#F5F4EF;stroke:#FFFFFF;stroke-width:1.8244;stroke-miterlimit:10;}
	.st75{opacity:0.65;fill:#858658;}
	.st76{fill:#C3DFF5;}
	.st77{opacity:0.63;}
	.st78{fill:#9C9B9B;}
	.st79{fill:#A9A9A9;}
	.st80{fill:#35350B;}
	.st81{fill:none;stroke:#FFFFFF;stroke-width:0.1824;stroke-linecap:round;stroke-linejoin:round;stroke-miterlimit:10;}
	.st82{opacity:0.64;}
	.st83{fill:#F5F4EF;}
	.st84{clip-path:url(#SVGID_00000044859297906258044430000005067713458023444394_);}
	.st85{fill:#F5F4EF;stroke:#FFFFFF;stroke-width:1.2815;stroke-miterlimit:10;}
	.st86{opacity:0.65;}
	.st87{fill:none;stroke:#FFFFFF;stroke-width:0.1281;stroke-linecap:round;stroke-linejoin:round;stroke-miterlimit:10;}
	.st88{fill:#1D1D1B;}
	
		.st89{opacity:0.4;clip-path:url(#SVGID_00000018929888700809974870000014196661596662280837_);fill:url(#SVGID_00000000186617603266473240000005855553477177619376_);}
	.st90{fill:#45CFDA;}
	.st91{clip-path:url(#SVGID_00000068667543353270618130000005100836155702324149_);}
	.st92{clip-path:url(#SVGID_00000168084400994912719870000013924082904324633782_);}
	.st93{fill:#FFFFFF;stroke:#ABABAB;stroke-width:0.4901;stroke-miterlimit:10;}
	.st94{fill:url(#SVGID_00000087403495096337071240000001657412790211667341_);}
	.st95{fill-rule:evenodd;clip-rule:evenodd;fill:#FFFFFF;stroke:#ABABAB;stroke-width:0.2763;stroke-miterlimit:10;}
	.st96{fill:#FFFFFF;stroke:#ABABAB;stroke-width:0.2763;stroke-miterlimit:10;}
	.st97{fill:#0A0A0A;}
	.st98{opacity:0.5;}
	.st99{fill:#565630;}
	.st100{fill:#A2E3F4;}
	.st101{fill:#454545;}
	.st102{fill:none;stroke:#454545;stroke-width:0.5151;stroke-miterlimit:10;}
	.st103{clip-path:url(#SVGID_00000086684960777920322480000003377762371464366244_);}
	.st104{clip-path:url(#SVGID_00000154415417841477720390000006194934883822368934_);}
	.st105{fill:none;stroke:#787878;stroke-width:0.2794;stroke-miterlimit:10;}
	.st106{fill:none;stroke:#787878;stroke-width:0.2073;stroke-miterlimit:10;}
	.st107{fill:none;stroke:#A7B972;stroke-width:0.2557;stroke-miterlimit:10;}
	.st108{fill:none;stroke:#A7B972;stroke-width:0.1622;stroke-miterlimit:10;}
	
		.st109{clip-path:url(#SVGID_00000103229031270587536410000003335947907881414283_);fill:url(#SVGID_00000013177450663127461160000004127044744661839285_);}
	.st110{clip-path:url(#SVGID_00000060014002358707931070000013157143393904667269_);}
	.st111{clip-path:url(#SVGID_00000066509931283623229220000009988470227367717763_);}
	.st112{clip-path:url(#SVGID_00000089536201352531378410000003735934992920570784_);}
	.st113{clip-path:url(#SVGID_00000098196303298487556680000001904752250217754005_);}
	.st114{clip-path:url(#SVGID_00000125565183734378374390000013358403260381366949_);}
	.st115{fill:url(#SVGID_00000168106270133117303460000001505432314929725582_);}
	.st116{opacity:0.27;fill:#BADDE9;}
	.st117{clip-path:url(#SVGID_00000142891198011126847100000002613875256238688672_);}
	.st118{opacity:0.29;}
	
		.st119{clip-path:url(#SVGID_00000072961873736370962220000016289421476967005371_);fill:url(#SVGID_00000052816458773393838620000002788569034791282856_);}
	.st120{opacity:0.71;}
	.st121{clip-path:url(#SVGID_00000116933125689100662670000006008198452421711522_);}
	.st122{clip-path:url(#SVGID_00000152226015579866958430000010729460349560580281_);}
	.st123{clip-path:url(#SVGID_00000028311489477375644910000012384022054608459693_);}
	.st124{fill:none;stroke:#575757;stroke-miterlimit:10;}
	.st125{fill:none;stroke:#575757;stroke-width:0.5;stroke-miterlimit:10;}
	.st126{fill:#D1D1D1;stroke:#828282;stroke-width:0.1864;stroke-linecap:round;stroke-miterlimit:1;}
	.st127{fill:#FFFFFF;stroke:#828282;stroke-width:0.1864;stroke-linecap:round;stroke-miterlimit:1;}
	.st128{fill:#828282;stroke:#424242;stroke-width:0.5;stroke-miterlimit:1;}
	.st129{fill:none;stroke:#828282;stroke-width:0.1864;stroke-linecap:round;stroke-miterlimit:1;}
	.st130{fill:none;stroke:#1C1C1C;stroke-width:0.1864;stroke-linecap:round;stroke-miterlimit:1;}
	.st131{fill:none;stroke:#828282;stroke-width:0.75;stroke-linecap:round;stroke-miterlimit:1;}
	.st132{fill:none;stroke:#292929;stroke-width:0.75;stroke-linecap:round;stroke-miterlimit:1;}
	.st133{fill:#363636;}
	.st134{fill:none;stroke:#3D3D3D;stroke-width:0.1864;stroke-linecap:round;stroke-miterlimit:1;}
	.st135{fill:none;stroke:#BDBDBD;stroke-width:0.75;stroke-miterlimit:10;}
	.st136{opacity:0.27;fill:#E8E8E8;}
	.st137{fill:none;stroke:#003DA6;stroke-width:0.1794;stroke-miterlimit:10;}
	.st138{clip-path:url(#SVGID_00000032608031917770061290000004892554135922968759_);}
	.st139{fill:#1F1F1F;}
	.st140{clip-path:url(#SVGID_00000049188912258254047930000004794210361527663275_);}
	.st141{clip-path:url(#SVGID_00000075159404453673600420000017677921310446526359_);}
	.st142{clip-path:url(#SVGID_00000077313816457966922110000015174650155547770801_);}
	.st143{clip-path:url(#SVGID_00000098925884537605162720000004661497705825451194_);}
	.st144{fill:url(#SVGID_00000061429322360559897390000012230644680021283213_);}
	.st145{fill:#C0E3EA;}
	.st146{fill:#27745C;}
	.st147{fill:#4D4D4D;}
	.st148{clip-path:url(#SVGID_00000056390253234315922830000010286937180342694312_);}
	.st149{fill:none;stroke:#4DABCB;stroke-width:2;stroke-miterlimit:10;}
	.st150{fill:none;stroke:#27745C;stroke-width:3;stroke-miterlimit:10;}
	.st151{fill:url(#SVGID_00000079468419481114835060000003967442172760024508_);}
	.st152{fill:url(#SVGID_00000034061613766176345200000012553082673418786485_);}
	.st153{fill:#706F6F;}
	.st154{fill:none;}
	.st155{fill:url(#SVGID_00000150099342111587571020000007625357555879673261_);}
	.st156{fill:none;stroke:#4DABCB;stroke-width:2;stroke-linecap:round;stroke-miterlimit:10;}
	.st157{fill:url(#SVGID_00000183965716373360267610000006471918210800927877_);}
	.st158{clip-path:url(#SVGID_00000005984654381969586290000004142435405869119134_);}
	.st159{opacity:0.35;fill:#1C3F81;}
	.st160{clip-path:url(#SVGID_00000063629462194351552440000002403014225420398738_);}
	.st161{clip-path:url(#SVGID_00000052099509558934214550000003249977802437594249_);}
	.st162{opacity:0.29;fill:#4C1608;}
	.st163{clip-path:url(#SVGID_00000117651456078288876380000015635285006286205832_);}
	.st164{opacity:0.29;fill:#054096;}
	.st165{clip-path:url(#SVGID_00000018231528529855366180000001944329482825073329_);}
	.st166{clip-path:url(#SVGID_00000063635219652949892120000013516297193431487874_);}
	.st167{opacity:0.23;fill:#95A71A;}
	.st168{fill:#799B1C;}
	.st169{opacity:0.5;fill:url(#SVGID_00000128469855219493430440000002397178210842395579_);}
	
		.st170{clip-path:url(#SVGID_00000182523879692277983380000017395476847334437822_);fill:url(#SVGID_00000047047358804245536390000005727498859383523466_);}
	
		.st171{clip-path:url(#SVGID_00000041265998774228158940000000208639685907412113_);fill:url(#SVGID_00000132076425655102482540000005376126293873835935_);}
	.st172{clip-path:url(#SVGID_00000079451103108230971890000005095413016648473785_);}
	.st173{clip-path:url(#SVGID_00000132061776196044515910000009509722629887777933_);}
	.st174{opacity:0.57;fill:#BADDE9;}
	.st175{opacity:0.54;fill:#1C3F81;}
	.st176{clip-path:url(#SVGID_00000100344383747426434230000008300918743984178363_);}
	.st177{clip-path:url(#SVGID_00000026154451532883070180000012562490322698606997_);}
	.st178{fill:url(#SVGID_00000046316706127990727610000004834141048144864158_);}
	.st179{fill:url(#SVGID_00000108992563588402232810000004029604779453652919_);}
	.st180{clip-path:url(#SVGID_00000065765744761007613130000017176755716235313083_);}
	.st181{clip-path:url(#SVGID_00000108269069397538657350000012683096774689556623_);}
	.st182{fill:none;stroke:#FFFFFF;stroke-width:0.75;stroke-miterlimit:10;}
	.st183{fill:none;stroke:#FFFFFF;stroke-width:0.7503;stroke-miterlimit:10;}
	.st184{clip-path:url(#SVGID_00000029736288197599927380000009286002328815165323_);fill:#FFFFFF;}
	.st185{fill:none;stroke:#2276BB;stroke-width:0.1;stroke-miterlimit:10;}
	.st186{fill:none;stroke:#FFFFFF;stroke-width:0.5;stroke-miterlimit:10;}
	.st187{clip-path:url(#SVGID_00000098908102922773784930000010763812847106439572_);fill:#FFFFFF;}
	.st188{clip-path:url(#SVGID_00000173863004359765043120000000986621307388071578_);fill:#FFFFFF;}
	.st189{clip-path:url(#SVGID_00000155112510566837635270000013803782442042369666_);fill:#FFFFFF;}
	.st190{fill:url(#SVGID_00000060016344658037148180000012385091426523820177_);}
	.st191{fill:none;stroke:#003DA6;stroke-width:0.2543;stroke-linecap:round;stroke-miterlimit:10;}
	.st192{fill:#BEE2E9;}
	.st193{fill:#7FA6E5;}
	.st194{opacity:0.97;fill:#71D4FF;}
</style>
<g id="iconos-fondo">
</g>
<g id="footer">
</g>
<g id="fondo">
</g>
<g id="detacado-foto">
</g>
<g id="bloque_1-A">
</g>
<g id="bloque_1_B">
</g>
<g id="destacado" class="st59">
</g>
<g id="destacado-hidro" class="st59">
</g>
<g id="destacado-camion">
</g>
<g id="cont">
</g>
<g id="EMPRESA">
</g>
<g id="SERVICIOS-terminal">
	<g>
		<g>
			<g>
				<path class="st124" d="M112.05,63.88l9.51-20.27c0.33-0.71-0.11-1.6-0.74-1.51L102,44.85c-0.32,0.05-0.58,0.35-0.66,0.75
					l-1.02,5.42c0,0,0,0.01,0,0.01c-0.02,0-0.03,0-0.05,0H50.06c-0.42,0-0.76-0.45-0.76-1v-2.36c0-1.8-1.13-3.27-2.51-3.27h-0.52
					c-0.32,0-0.61-0.26-0.71-0.65c-0.72-2.69-2.83-6.69-6.92-6.69c-4.1,0-6.2,4-6.93,6.69c-0.11,0.39-0.39,0.65-0.71,0.65h-5.73
					c-0.92,0-1.66,0.9-1.74,2.09l0,1.36c0,0.55-0.34,0.99-0.76,0.99l-5.83-0.01c-0.6,0-0.96,0.85-0.65,1.51l4.22,12.46 M38.63,39.62
					c1.86,0,3.1,1.1,3.9,2.32c0.43,0.66,0.1,1.67-0.57,1.67h-6.68c-0.66,0-1-1.01-0.57-1.67C35.51,40.72,36.75,39.62,38.63,39.62"/>
			</g>
		</g>
		<g>
			<path class="st125" d="M9.4,75.34c1.2,1.17,2.75,1.78,4.32,1.82c1.63,0.04,3.28-0.55,4.55-1.76l0.35-0.33
				c1.3-1.24,3.38-1.2,4.63,0.1l0.19,0.2c2.51,2.63,6.67,2.72,9.3,0.21l0.68-0.65c1.27-1.21,3.34-1.22,4.58,0.03
				c1.33,1.35,3.17,2.03,5.1,1.87c1.52-0.13,2.93-0.87,4.03-1.93l0.3-0.28c0.72-0.69,1.71-0.98,2.71-0.8
				c0.68,0.13,1.28,0.52,1.75,1.02l0.23,0.24c2.49,2.6,6.66,2.7,9.28,0.23l0.87-0.83c1.28-1.22,3.35-1.18,4.58,0.08l0.34,0.35
				c1.26,1.29,2.95,1.94,4.64,1.95l0,0c1.63,0.04,3.28-0.55,4.55-1.76l0.35-0.33c1.3-1.24,3.38-1.2,4.63,0.1l0.19,0.2
				c2.51,2.63,6.67,2.72,9.3,0.21l0.68-0.65c1.27-1.21,3.34-1.21,4.58,0.03c1.33,1.35,3.17,2.03,5.1,1.87
				c1.52-0.13,2.93-0.87,4.03-1.93l0.3-0.28c0.72-0.69,1.71-0.98,2.71-0.8c0.68,0.13,1.28,0.52,1.75,1.02l0.23,0.24
				c2.49,2.6,6.66,2.7,9.28,0.23l0.87-0.83c1.28-1.22,3.35-1.18,4.58,0.08l0.34,0.35c2.5,2.54,6.66,2.61,9.24,0.14l0.25-0.24"/>
			<path class="st125" d="M132.49,72.1l-0.25,0.24c-1.28,1.23-3.35,1.19-4.59-0.07l-0.34-0.35c-2.49-2.53-6.64-2.61-9.22-0.16
				l-0.87,0.83c-1.3,1.23-3.38,1.18-4.61-0.11l-0.21-0.22c-2.51-2.62-6.67-2.72-9.3-0.21l-0.22,0.21c-0.5,0.48-1.11,0.84-1.8,0.94
				c-1.01,0.14-1.99-0.2-2.67-0.92c-2.43-2.54-6.48-2.63-9.02-0.2l-0.83,0.8c-1.3,1.24-3.38,1.2-4.63-0.1l-0.19-0.2
				c-2.5-2.62-6.68-2.71-9.3-0.21l-0.05,0.05c0,0,0,0,0,0l-0.25,0.24c-1.28,1.23-3.35,1.19-4.59-0.07l-0.34-0.35
				c-2.49-2.53-6.64-2.61-9.22-0.16l-0.87,0.83c-1.3,1.23-3.38,1.18-4.61-0.11l-0.21-0.22c-2.51-2.62-6.67-2.72-9.3-0.21l-0.22,0.21
				c-0.5,0.48-1.11,0.84-1.8,0.94c-1.01,0.14-1.99-0.2-2.67-0.92c-2.43-2.54-6.48-2.63-9.02-0.2l-0.83,0.8
				c-1.3,1.24-3.38,1.2-4.63-0.1l-0.19-0.2c-2.5-2.62-6.68-2.71-9.3-0.21l-0.35,0.33c-1.18,1.13-3.03,1.13-4.21,0.03"/>
			<path class="st125" d="M9.36,67.27c1.2,1.17,2.75,1.78,4.32,1.82c1.63,0.04,3.28-0.55,4.55-1.76l0.35-0.33
				c1.3-1.24,3.38-1.2,4.63,0.1l0.19,0.2c2.51,2.63,6.67,2.72,9.3,0.21l0.68-0.65c1.27-1.21,3.34-1.22,4.58,0.03
				c1.33,1.35,3.17,2.03,5.1,1.87c1.52-0.13,2.93-0.87,4.03-1.93l0.3-0.28c0.72-0.69,1.71-0.98,2.71-0.8
				c0.68,0.13,1.28,0.52,1.75,1.02L52.07,67c2.49,2.6,6.66,2.7,9.28,0.23l0.87-0.83c1.28-1.22,3.35-1.18,4.58,0.08l0.34,0.35
				c1.26,1.29,2.95,1.94,4.64,1.95l0,0c1.63,0.04,3.28-0.55,4.55-1.76l0.35-0.33c1.3-1.24,3.38-1.2,4.63,0.1l0.19,0.2
				c2.51,2.63,6.67,2.72,9.3,0.21l0.68-0.65c1.27-1.21,3.34-1.21,4.58,0.03c1.33,1.35,3.17,2.03,5.1,1.87
				c1.52-0.13,2.93-0.87,4.03-1.93l0.3-0.28c0.72-0.69,1.71-0.98,2.71-0.8c0.68,0.13,1.28,0.52,1.75,1.02l0.23,0.24
				c2.49,2.6,6.66,2.7,9.28,0.23l0.87-0.83c1.28-1.22,3.35-1.18,4.58,0.08l0.34,0.35c2.5,2.54,6.66,2.61,9.24,0.14l0.25-0.24"/>
			<path class="st125" d="M132.45,64.03l-0.25,0.24c-1.28,1.23-3.35,1.19-4.59-0.07l-0.34-0.35c-2.49-2.53-6.64-2.61-9.22-0.16
				l-0.87,0.83c-1.3,1.23-3.38,1.18-4.61-0.11l-0.21-0.22c-2.51-2.62-6.67-2.72-9.3-0.21l-0.22,0.21c-0.5,0.48-1.11,0.84-1.8,0.94
				c-1.01,0.14-1.99-0.2-2.67-0.92c-2.43-2.54-6.48-2.63-9.02-0.2l-0.83,0.8c-1.3,1.24-3.38,1.2-4.63-0.1l-0.19-0.2
				c-2.5-2.62-6.68-2.71-9.3-0.21l-0.05,0.05c0,0,0,0,0,0l-0.25,0.24c-1.28,1.23-3.35,1.19-4.59-0.07l-0.34-0.35
				c-2.49-2.53-6.64-2.61-9.22-0.16l-0.87,0.83c-1.3,1.23-3.38,1.18-4.61-0.11l-0.21-0.22c-2.51-2.62-6.67-2.72-9.3-0.21l-0.22,0.21
				c-0.5,0.48-1.11,0.84-1.8,0.94c-1.01,0.14-1.99-0.2-2.67-0.92c-2.43-2.54-6.48-2.63-9.02-0.2l-0.83,0.8
				c-1.3,1.24-3.38,1.2-4.63-0.1l-0.19-0.2c-2.5-2.62-6.68-2.71-9.3-0.21l-0.35,0.33c-1.18,1.13-3.03,1.13-4.21,0.03"/>
		</g>
	</g>
</g>
<g id="SERVICIO-lab">
</g>
<g id="SERV-transp-terrestre">
</g>
<g id="SERV-opera-solidos">
</g>
<g id="COMEX">
</g>
<g id="CONTACTO">
</g>
<g id="COMPROMISO">
</g>
<g id="Capa_19" class="st59">
</g>
<g id="TERMINAL">
</g>
<g id="servicios3">
</g>
<g id="servicios2">
</g>
<g id="servicios1">
</g>
<g id="Capa_10">
</g>
<g id="solapa-servicio">
</g>
<g id="top">
</g>
<g id="esqueletoi">
</g>
<g id="guias">
</g>
</svg>
