<?xml version="1.0" encoding="utf-8"?>
<!-- Generator: Adobe Illustrator 27.9.0, SVG Export Plug-In . SVG Version: 6.00 Build 0)  -->
<svg version="1.1" xmlns="http://www.w3.org/2000/svg" xmlns:xlink="http://www.w3.org/1999/xlink" x="0px" y="0px"
	 viewBox="0 0 348.54 94.75" style="enable-background:new 0 0 348.54 94.75;" xml:space="preserve">
<style type="text/css">
	.st0{display:none;}
	.st1{display:inline;}
	.st2{fill:#8F8F8F;}
	.st3{fill:#6E6E6E;}
	.st4{fill:#FFFFFF;}
	.st5{clip-path:url(#SVGID_00000044146484943831264390000018423161785769173417_);}
	.st6{fill:#878787;}
	.st7{fill:#4C4C4A;}
	.st8{fill:#858658;}
	.st9{fill:#1BB09D;}
	.st10{fill:#4CABCB;}
	.st11{fill:#737373;}
	.st12{fill:#4FA98B;}
	.st13{fill:#2276BB;}
	.st14{fill:none;stroke:#FFFFFF;stroke-width:0.25;stroke-miterlimit:10;}
	.st15{clip-path:url(#SVGID_00000016060814204542611200000010840115115164905389_);}
	.st16{clip-path:url(#SVGID_00000052096824351636523980000009008067790852975263_);}
	.st17{clip-path:url(#SVGID_00000117660016275622360100000006358712147989690524_);}
	.st18{clip-path:url(#SVGID_00000063601579695041717140000004789993252717397147_);}
	.st19{clip-path:url(#SVGID_00000101787928682164862350000013501633225888250810_);}
	.st20{clip-path:url(#SVGID_00000040560775570754148290000008751684888552881796_);}
	.st21{clip-path:url(#SVGID_00000034811508585917547480000004124225092971203236_);}
	.st22{clip-path:url(#SVGID_00000177450000876123411850000018127724804031022509_);}
	.st23{clip-path:url(#SVGID_00000111905417150578282360000004207511924092997544_);}
	
		.st24{clip-path:url(#SVGID_00000012455015999418298760000014230438558054281654_);fill:url(#SVGID_00000029739842329774016540000011132028675133832347_);}
	.st25{fill:#003DA6;stroke:#003DA6;stroke-width:0.25;stroke-miterlimit:10;}
	.st26{fill:none;stroke:#003DA6;stroke-width:0.3;stroke-miterlimit:10;}
	.st27{fill:#FFFFFF;stroke:#ABABAB;stroke-width:0.3093;stroke-miterlimit:10;}
	.st28{fill:none;stroke:#003DA6;stroke-width:0.5024;stroke-miterlimit:10;}
	.st29{fill:#FFFFFF;stroke:#003DA6;stroke-width:0.3467;stroke-miterlimit:10;}
	.st30{opacity:0.5;fill:url(#SVGID_00000103978426496208715330000014025832053824753807_);}
	.st31{fill:url(#SVGID_00000148656925609103746780000013244873938083279292_);}
	.st32{fill:#E4F4F9;}
	.st33{fill:#003DA6;}
	.st34{fill:#003DA6;stroke:#FFFFFF;stroke-width:0.2257;stroke-miterlimit:10;}
	.st35{fill:#FFFFFF;stroke:#003DA6;stroke-width:0.2257;stroke-miterlimit:10;}
	.st36{fill:#FFFFFF;stroke:#ABABAB;stroke-width:0.3504;stroke-miterlimit:10;}
	.st37{fill-rule:evenodd;clip-rule:evenodd;fill:#FFFFFF;stroke:#ABABAB;stroke-width:0.4053;stroke-miterlimit:10;}
	.st38{fill:#FFFFFF;stroke:#ABABAB;stroke-width:0.4053;stroke-miterlimit:10;}
	.st39{opacity:0.7;fill:url(#SVGID_00000150818570588342370930000008610736091509640873_);}
	.st40{opacity:0.5;fill:#4C4C4A;}
	.st41{opacity:0.5;fill:#858658;}
	.st42{opacity:0.5;fill:#1BB09D;}
	.st43{opacity:0.5;fill:#4CABCB;}
	.st44{opacity:0.5;fill:#737373;}
	.st45{opacity:0.5;fill:#2276BB;}
	.st46{fill:none;stroke:#003DA6;stroke-width:0.2224;stroke-miterlimit:10;}
	.st47{fill:#FFFFFF;stroke:#003DA6;stroke-width:0.2835;stroke-miterlimit:10;}
	.st48{fill:none;stroke:#003DA6;stroke-width:0.1864;stroke-linecap:round;stroke-miterlimit:1;}
	.st49{fill:#FFFFFF;stroke:#003DA6;stroke-width:0.1;stroke-miterlimit:10;}
	.st50{fill:none;stroke:#003DA6;stroke-width:0.2835;stroke-miterlimit:10;}
	.st51{fill:#575757;}
	.st52{clip-path:url(#SVGID_00000043448889577498337890000016151448356944254368_);}
	.st53{opacity:0.7;fill:url(#SVGID_00000178927733959245295240000015283371091484263327_);}
	.st54{fill:none;stroke:#003DA6;stroke-width:0.25;stroke-miterlimit:10;}
	.st55{fill:#1C3F81;}
	.st56{fill:none;stroke:#949494;stroke-width:0.25;stroke-miterlimit:10;}
	.st57{clip-path:url(#SVGID_00000135664871343085707770000013811446653019017612_);}
	.st58{fill:#43B6A5;}
	.st59{fill:#25745C;}
	.st60{clip-path:url(#SVGID_00000036960034372934987390000005471854085033601722_);}
	.st61{display:inline;fill:#1C3F81;}
	.st62{display:inline;fill:#4C4C4A;}
	.st63{fill:url(#SVGID_00000150824528232129439680000007479535461967893423_);}
	.st64{fill:url(#SVGID_00000023249223995373434140000000727857301922609319_);}
	.st65{fill:none;stroke:#FFFFFF;stroke-width:2;stroke-linecap:round;stroke-miterlimit:10;}
	.st66{clip-path:url(#SVGID_00000014630641117359933450000001108044993085479852_);}
	.st67{fill:#003DA6;stroke:#FFFFFF;stroke-width:0.1346;stroke-miterlimit:10;}
	.st68{fill:#141414;}
	.st69{stroke:#FFFFFF;stroke-width:0.1346;stroke-miterlimit:10;}
	.st70{clip-path:url(#SVGID_00000035531716988316042140000000338931641532177792_);}
	.st71{opacity:0.18;}
	.st72{fill:#089F91;}
	.st73{opacity:0.18;fill:#BADDE9;}
	.st74{fill:#F5F4EF;stroke:#FFFFFF;stroke-width:1.8244;stroke-miterlimit:10;}
	.st75{opacity:0.65;fill:#858658;}
	.st76{fill:#C3DFF5;}
	.st77{opacity:0.63;}
	.st78{fill:#9C9B9B;}
	.st79{fill:#A9A9A9;}
	.st80{fill:#35350B;}
	.st81{fill:none;stroke:#FFFFFF;stroke-width:0.1824;stroke-linecap:round;stroke-linejoin:round;stroke-miterlimit:10;}
	.st82{opacity:0.64;}
	.st83{fill:#F5F4EF;}
	.st84{clip-path:url(#SVGID_00000083051322995605060710000000979674018237349767_);}
	.st85{fill:#F5F4EF;stroke:#FFFFFF;stroke-width:1.2815;stroke-miterlimit:10;}
	.st86{opacity:0.65;}
	.st87{fill:none;stroke:#FFFFFF;stroke-width:0.1281;stroke-linecap:round;stroke-linejoin:round;stroke-miterlimit:10;}
	.st88{fill:#1D1D1B;}
	
		.st89{opacity:0.4;clip-path:url(#SVGID_00000121990316242822685120000001468756007339665031_);fill:url(#SVGID_00000146471914488598683920000005208001753221712555_);}
	.st90{fill:#45CFDA;}
	.st91{clip-path:url(#SVGID_00000055685272055955412480000011114184380094836864_);}
	.st92{clip-path:url(#SVGID_00000052808765246449115220000000990901529319630232_);}
	.st93{fill:#FFFFFF;stroke:#ABABAB;stroke-width:0.4901;stroke-miterlimit:10;}
	.st94{fill:url(#SVGID_00000038400967422941322840000010120018852531235261_);}
	.st95{fill-rule:evenodd;clip-rule:evenodd;fill:#FFFFFF;stroke:#ABABAB;stroke-width:0.2763;stroke-miterlimit:10;}
	.st96{fill:#FFFFFF;stroke:#ABABAB;stroke-width:0.2763;stroke-miterlimit:10;}
	.st97{fill:#0A0A0A;}
	.st98{opacity:0.5;}
	.st99{fill:#565630;}
	.st100{fill:#A2E3F4;}
	.st101{fill:#454545;}
	.st102{fill:none;stroke:#454545;stroke-width:0.5151;stroke-miterlimit:10;}
	.st103{clip-path:url(#SVGID_00000054948321814351761600000013609525465159385230_);}
	.st104{clip-path:url(#SVGID_00000119839000104042879900000003779680480875108267_);}
	.st105{fill:none;stroke:#787878;stroke-width:0.2794;stroke-miterlimit:10;}
	.st106{fill:none;stroke:#787878;stroke-width:0.2073;stroke-miterlimit:10;}
	.st107{fill:none;stroke:#A7B972;stroke-width:0.2557;stroke-miterlimit:10;}
	.st108{fill:none;stroke:#A7B972;stroke-width:0.1622;stroke-miterlimit:10;}
	
		.st109{clip-path:url(#SVGID_00000127722343780792125140000005264851560026047420_);fill:url(#SVGID_00000015344189553105283180000003666477423487015593_);}
	.st110{clip-path:url(#SVGID_00000034798369603740711070000004568570145511959214_);}
	.st111{clip-path:url(#SVGID_00000167369260928451227400000016628080071535956908_);}
	.st112{clip-path:url(#SVGID_00000119085235677348018640000007331850551445921409_);}
	.st113{clip-path:url(#SVGID_00000073705787920441841100000007944445507455762324_);}
	.st114{clip-path:url(#SVGID_00000039091977342571374260000008796315564249940890_);}
	.st115{fill:url(#SVGID_00000067938045528661896440000004145482756896346754_);}
	.st116{fill:none;stroke:#003DA6;stroke-width:0.3467;stroke-miterlimit:10;}
	.st117{opacity:0.27;fill:#BADDE9;}
	.st118{clip-path:url(#SVGID_00000071545824982220189570000004513763094447521210_);}
	.st119{opacity:0.29;}
	
		.st120{clip-path:url(#SVGID_00000162321276693855552360000002803358456076999608_);fill:url(#SVGID_00000153669934872488145970000004166901398401097627_);}
	.st121{opacity:0.71;}
	.st122{clip-path:url(#SVGID_00000012440934778524344990000016731860973277974662_);}
	.st123{clip-path:url(#SVGID_00000137130581465724517980000010201605832124144769_);}
	.st124{clip-path:url(#SVGID_00000086693690211440431490000007341143964788438410_);}
	.st125{fill:none;stroke:#575757;stroke-miterlimit:10;}
	.st126{fill:none;stroke:#575757;stroke-width:0.5;stroke-miterlimit:10;}
	.st127{fill:#D1D1D1;stroke:#828282;stroke-width:0.1864;stroke-linecap:round;stroke-miterlimit:1;}
	.st128{fill:#FFFFFF;stroke:#828282;stroke-width:0.1864;stroke-linecap:round;stroke-miterlimit:1;}
	.st129{fill:#828282;stroke:#424242;stroke-width:0.5;stroke-miterlimit:1;}
	.st130{fill:none;stroke:#828282;stroke-width:0.1864;stroke-linecap:round;stroke-miterlimit:1;}
	.st131{fill:none;stroke:#1C1C1C;stroke-width:0.1864;stroke-linecap:round;stroke-miterlimit:1;}
	.st132{fill:none;stroke:#828282;stroke-width:0.75;stroke-linecap:round;stroke-miterlimit:1;}
	.st133{fill:none;stroke:#292929;stroke-width:0.75;stroke-linecap:round;stroke-miterlimit:1;}
	.st134{fill:#363636;}
	.st135{fill:none;stroke:#3D3D3D;stroke-width:0.1864;stroke-linecap:round;stroke-miterlimit:1;}
	.st136{fill:none;stroke:#BDBDBD;stroke-width:0.75;stroke-miterlimit:10;}
	.st137{opacity:0.27;fill:#E8E8E8;}
	.st138{fill:none;stroke:#003DA6;stroke-width:0.1794;stroke-miterlimit:10;}
	.st139{clip-path:url(#SVGID_00000175323822451252547420000008388640984847396023_);}
	.st140{fill:#1F1F1F;}
	.st141{clip-path:url(#SVGID_00000180359986068946144440000007423415017860067492_);}
	.st142{clip-path:url(#SVGID_00000129885470411414085380000003475437395076987829_);}
	.st143{clip-path:url(#SVGID_00000165197803266127602820000016149739082837726886_);}
	.st144{clip-path:url(#SVGID_00000170265325104366753680000012104847971223505340_);}
	.st145{fill:url(#SVGID_00000042006456871227906060000018438132327639061402_);}
	.st146{fill:#C0E3EA;}
	.st147{fill:#27745C;}
	.st148{fill:#4D4D4D;}
	.st149{clip-path:url(#SVGID_00000163779554379579709240000000078079807180925865_);}
	.st150{fill:none;stroke:#4DABCB;stroke-width:2;stroke-miterlimit:10;}
	.st151{fill:none;stroke:#27745C;stroke-width:3;stroke-miterlimit:10;}
	.st152{fill:url(#SVGID_00000082344278320104300090000012448778425772960927_);}
	.st153{fill:url(#SVGID_00000006679058262615789220000006608981733199254675_);}
	.st154{fill:#706F6F;}
	.st155{fill:none;}
	.st156{fill:url(#SVGID_00000182512068099724627560000007022581381733106107_);}
	.st157{fill:none;stroke:#4DABCB;stroke-width:2;stroke-linecap:round;stroke-miterlimit:10;}
	.st158{fill:url(#SVGID_00000060007159200268716310000004076979422703162519_);}
	.st159{clip-path:url(#SVGID_00000096766590755055627680000000299350062773603210_);}
	.st160{opacity:0.35;fill:#1C3F81;}
	.st161{clip-path:url(#SVGID_00000138561015423329641470000014733021401961809569_);}
	.st162{clip-path:url(#SVGID_00000160157813993637997640000014404132415081531310_);}
	.st163{opacity:0.29;fill:#4C1608;}
	.st164{clip-path:url(#SVGID_00000031911170688556370540000013593725536657049523_);}
	.st165{opacity:0.29;fill:#054096;}
	.st166{clip-path:url(#SVGID_00000145753741727301924750000012130166027324379814_);}
	.st167{clip-path:url(#SVGID_00000075843837446164385750000007466486132009922441_);}
	.st168{opacity:0.23;fill:#95A71A;}
	.st169{fill:#799B1C;}
	.st170{opacity:0.5;fill:url(#SVGID_00000068649055111948015560000007546124272774999172_);}
	
		.st171{clip-path:url(#SVGID_00000052791482547417366220000004554009393410177203_);fill:url(#SVGID_00000062156476534593444810000009046211951656295332_);}
	
		.st172{clip-path:url(#SVGID_00000088127639005789101480000017773333124081333682_);fill:url(#SVGID_00000019650807181097723360000009448761933859395727_);}
	.st173{clip-path:url(#SVGID_00000101085770287215840580000012957343543797026468_);}
	.st174{clip-path:url(#SVGID_00000005257206850176745280000006949525382121418669_);}
	.st175{opacity:0.57;fill:#BADDE9;}
	.st176{opacity:0.54;fill:#1C3F81;}
	.st177{clip-path:url(#SVGID_00000130607139606817196640000017121608738004733354_);}
	.st178{clip-path:url(#SVGID_00000036228266065865101090000012862643409495426471_);}
	.st179{fill:url(#SVGID_00000120522898259213580410000009749846196256943774_);}
	.st180{fill:url(#SVGID_00000174568691497303344610000015124064332469739648_);}
	.st181{clip-path:url(#SVGID_00000145033828754133003900000009332949633119439529_);}
	.st182{clip-path:url(#SVGID_00000024717914644970502710000004527698757521915582_);}
	.st183{fill:none;stroke:#FFFFFF;stroke-width:0.75;stroke-miterlimit:10;}
	.st184{fill:none;stroke:#FFFFFF;stroke-width:0.7503;stroke-miterlimit:10;}
	.st185{clip-path:url(#SVGID_00000061465848713184590000000006175932205439583671_);fill:#FFFFFF;}
	.st186{fill:none;stroke:#2276BB;stroke-width:0.1;stroke-miterlimit:10;}
	.st187{fill:none;stroke:#FFFFFF;stroke-width:0.5;stroke-miterlimit:10;}
	.st188{clip-path:url(#SVGID_00000067200096524187031050000010952355199838620042_);fill:#FFFFFF;}
	.st189{clip-path:url(#SVGID_00000003066088072750982110000018325846118836348829_);fill:#FFFFFF;}
	.st190{clip-path:url(#SVGID_00000003805800179258504520000003871210204057010314_);fill:#FFFFFF;}
	.st191{fill:url(#SVGID_00000035493264835335789200000002363050294005942936_);}
	.st192{fill:none;stroke:#003DA6;stroke-width:0.2543;stroke-linecap:round;stroke-miterlimit:10;}
	.st193{fill:#BEE2E9;}
	.st194{fill:#7FA6E5;}
	.st195{opacity:0.97;fill:#71D4FF;}
</style>
<g id="iconos-fondo" class="st0">
</g>
<g id="footer">
</g>
<g id="fondo">
</g>
<g id="detacado-foto">
</g>
<g id="bloque_1-A">
</g>
<g id="bloque_1_B">
</g>
<g id="destacado" class="st0">
</g>
<g id="destacado-hidro" class="st0">
</g>
<g id="destacado-camion">
</g>
<g id="cont">
</g>
<g id="EMPRESA">
	<g>
		<g>
			<path class="st33" d="M215.1,64.89v0.75h-6.34v-0.75l3.03-0.34h0.39L215.1,64.89z M212.39,44.22l0.4,0.23l-0.08,4.08V59.6
				c0,1.88,0.03,4.45,0.09,6.04h-1.59c0.06-1.59,0.09-4.16,0.09-6.04V45.82l-2.52-0.12v-0.75L212.39,44.22z M220.9,52.07l-8.88,8.95
				v-1.16l7.62-7.79H220.9z M220.18,64.55l3.01,0.34v0.75h-3.29l-5.01-8.01l1.01-1.04l5.41,8.59L220.18,64.55z M218.87,53.23
				l-2.79-0.37v-0.79h6.47v0.79l-3.18,0.3L218.87,53.23z"/>
			<path class="st33" d="M226.87,65.64c0.06-1.29,0.09-4.26,0.09-6.04v-1.39c0-1.84-0.03-3.33-0.09-4.66l-2.52-0.11v-0.75l3.5-0.91
				l0.35,0.22l0.17,3.17v4.43c0,1.78,0.03,4.75,0.09,6.04H226.87z M230.64,64.89v0.75h-6.16v-0.75l2.99-0.34h0.39L230.64,64.89z
				 M237.05,56.75v2.85c0,1.84,0.03,4.75,0.09,6.04h-1.59c0.06-1.29,0.09-4.2,0.09-6.04v-2.77c0-2.81-1-3.83-2.54-3.83
				c-1.36,0-2.87,0.58-4.94,2.82h-0.5v-0.89h0.9l-0.67,0.28c1.86-2.32,3.79-3.51,5.68-3.51C235.75,51.7,237.05,53.07,237.05,56.75z
				 M236.54,64.55l2.77,0.34v0.75h-6.16v-0.75l2.99-0.34H236.54z M245.73,56.62v2.98c0,1.84,0.03,4.75,0.09,6.04h-1.59
				c0.06-1.29,0.09-4.2,0.09-6.04v-2.8c0-2.84-1-3.8-2.65-3.8c-1.33,0-2.93,0.55-4.85,2.63h-0.54v-0.75h0.92l-0.71,0.15
				c1.77-2.26,3.73-3.32,5.65-3.32C244.39,51.7,245.73,53.05,245.73,56.62z M245.22,64.55l2.77,0.34v0.75h-6.16v-0.75l2.99-0.34
				H245.22z"/>
			<path class="st33" d="M261.81,55.35c2.69,0,4.63-1.53,4.63-4.2c0-2.3-1.38-3.75-3.82-3.75c-1.08,0-2,0.21-3.09,0.78l0.95-0.84
				l-0.79,2.24c-0.24,0.76-0.49,1.06-1.07,1.06c-0.41,0-0.75-0.19-0.89-0.67c0.63-2.41,2.82-3.43,5.12-3.43
				c3.12,0,5.11,1.89,5.11,4.58c0,2.38-1.82,4.38-4.89,4.86v-0.27c3.58,0.2,5.5,2.07,5.5,4.97c0,3.22-2.54,5.34-6.02,5.34
				c-2.66,0-4.62-1.13-5.29-3.49c0.14-0.45,0.46-0.7,0.93-0.7c0.54,0,0.79,0.34,1.04,1.1l0.86,2.36l-0.95-0.95
				c0.96,0.54,1.91,0.81,3.13,0.81c3.1,0,4.76-1.77,4.76-4.45c0-2.83-1.67-4.42-5.08-4.42h-1.29v-0.93H261.81z"/>
			<path class="st33" d="M270.99,59.6v-0.93l8.66-11.99h0.95v18.96h-1.42V48.03h0.46l-7.83,10.89l0.04-0.47h12.03v1.15H270.99z"/>
			<path class="st33" d="M290.17,55.35c2.69,0,4.63-1.53,4.63-4.2c0-2.3-1.38-3.75-3.82-3.75c-1.08,0-2,0.21-3.09,0.78l0.95-0.84
				l-0.79,2.24c-0.24,0.76-0.49,1.06-1.07,1.06c-0.41,0-0.75-0.19-0.89-0.67c0.63-2.41,2.82-3.43,5.12-3.43
				c3.12,0,5.11,1.89,5.11,4.58c0,2.38-1.82,4.38-4.9,4.86v-0.27c3.58,0.2,5.5,2.07,5.5,4.97c0,3.22-2.54,5.34-6.02,5.34
				c-2.66,0-4.62-1.13-5.29-3.49c0.14-0.45,0.46-0.7,0.93-0.7c0.54,0,0.79,0.34,1.04,1.1l0.86,2.36l-0.95-0.95
				c0.96,0.54,1.91,0.81,3.13,0.81c3.1,0,4.76-1.77,4.76-4.45c0-2.83-1.67-4.42-5.08-4.42h-1.29v-0.93H290.17z"/>
		</g>
	</g>
	<g>
		<g>
			<path class="st116" d="M1.36,88.17L1.36,88.17c4.64,0.11,9.32-1.55,12.93-5.01l0.98-0.94c3.7-3.54,9.62-3.4,13.15,0.3l0.55,0.57
				c7.13,7.46,18.97,7.73,26.43,0.59l1.94-1.85c3.6-3.45,9.51-3.45,13.01,0.09c3.79,3.83,9.02,5.77,14.51,5.3
				c4.32-0.37,8.32-2.48,11.45-5.48l0.84-0.8c2.04-1.95,4.85-2.8,7.71-2.27c1.92,0.36,3.63,1.48,4.98,2.89l0.65,0.68
				c7.07,7.4,18.94,7.69,26.37,0.65l2.48-2.35c3.65-3.46,9.51-3.35,13.03,0.23l0.97,0.98c7.11,7.23,18.92,7.42,26.25,0.41l0.71-0.68
				"/>
			<path class="st116" d="M173.8,74.69l-0.71,0.68c-3.65,3.49-9.52,3.4-13.06-0.2l-0.97-0.98c-7.08-7.2-18.87-7.41-26.19-0.46
				l-2.48,2.35c-3.7,3.5-9.6,3.36-13.12-0.32l-0.59-0.62c-7.14-7.46-18.97-7.73-26.43-0.59l-0.63,0.6c-1.41,1.35-3.17,2.4-5.1,2.67
				c-2.88,0.4-5.65-0.57-7.6-2.61C70,67.98,58.5,67.72,51.28,74.63l-2.37,2.26c-3.7,3.54-9.62,3.4-13.15-0.3l-0.55-0.57
				c-7.1-7.43-18.99-7.7-26.42-0.6l-0.15,0.14c0,0,0,0,0,0l-0.71,0.68"/>
			<path class="st116" d="M1.26,65.24L1.26,65.24c4.64,0.11,9.32-1.55,12.93-5.01l0.98-0.94c3.7-3.54,9.62-3.4,13.15,0.3l0.55,0.57
				c7.13,7.46,18.97,7.73,26.43,0.59l1.94-1.85c3.6-3.45,9.51-3.45,13.01,0.09c3.79,3.83,9.02,5.77,14.51,5.3
				c4.32-0.37,8.32-2.48,11.45-5.48l0.84-0.8c2.04-1.95,4.85-2.8,7.71-2.27c1.92,0.36,3.63,1.48,4.98,2.89l0.65,0.68
				c7.07,7.4,18.94,7.69,26.37,0.65l2.48-2.35c3.65-3.46,9.51-3.35,13.03,0.23l0.97,0.98c7.11,7.23,18.92,7.42,26.25,0.41l0.71-0.68
				"/>
			<path class="st116" d="M173.7,51.75l-0.71,0.68c-3.65,3.49-9.52,3.4-13.06-0.2l-0.97-0.98c-7.08-7.2-18.87-7.41-26.19-0.46
				l-2.48,2.35c-3.7,3.5-9.6,3.36-13.12-0.32l-0.59-0.62c-7.14-7.46-18.97-7.73-26.43-0.59l-0.63,0.6c-1.41,1.35-3.17,2.4-5.1,2.67
				c-2.88,0.4-5.65-0.57-7.6-2.61c-6.91-7.23-18.41-7.48-25.64-0.57l-2.37,2.26c-3.7,3.54-9.62,3.4-13.15-0.3l-0.55-0.57
				c-7.1-7.43-18.99-7.7-26.42-0.6l-0.15,0.14c0,0,0,0,0,0l-0.71,0.68"/>
		</g>
	</g>
	<g>
		<g>
			<path class="st33" d="M209.16,15.75v-0.81h3.75v1.1h-0.24L209.16,15.75z M213.16,33.23l3.52,0.29v0.81h-7.51v-0.81l3.52-0.29
				H213.16z M212.14,23.86c0-2.98,0-5.97-0.07-8.92h1.71c-0.07,2.96-0.07,5.88-0.07,9.72v0.47c0,3.27,0,6.26,0.07,9.2h-1.71
				c0.07-2.92,0.07-5.91,0.07-8.92V23.86z M212.92,24.45h3.94c3.02,0,4.98-1.91,4.98-4.42c0-2.57-1.57-4.17-5.04-4.17h-3.88v-0.91
				h3.92c4.2,0,6.58,1.82,6.58,5.08c0,2.72-2.08,4.85-5.56,5.13l-0.1-0.25c2.14,0.25,2.94,1.12,3.67,3.28l1.87,5.52l-0.62-0.41
				l3.1,0.23v0.81c-0.42,0.1-1.11,0.2-1.93,0.2c-1.56,0-2.08-0.43-2.38-1.39l-1.54-4.93c-0.68-2.21-1.44-2.9-3.96-2.9h-3.06V24.45z"
				/>
			<path class="st33" d="M230,28.29v-1.39c0-1.84-0.03-3.33-0.09-4.66l-2.52-0.11v-0.75l3.75-0.91l0.35,0.22l-0.07,3.56v4.04
				c0,1.78,0.03,4.75,0.09,6.04h-1.59C229.97,33.04,230,30.08,230,28.29z M227.52,33.58l2.99-0.34h0.39l2.77,0.34v0.75h-6.16V33.58z
				 M232.76,13.88c0.51-0.74,0.81-1,1.18-1c0.38,0,0.72,0.24,0.72,0.72c0,0.32-0.21,0.65-0.87,1.3c-0.96,0.96-2.13,2.13-3.34,3.3
				l-0.48-0.38C230.95,16.45,231.92,15.04,232.76,13.88z"/>
			<path class="st33" d="M236.37,27.61c0-4.86,3.2-7.21,6.37-7.21c3.15,0,6.37,2.35,6.37,7.21c0,4.86-3.22,7.1-6.37,7.1
				C239.57,34.71,236.37,32.47,236.37,27.61z M247.52,27.61c0-3.97-1.86-6.35-4.77-6.35c-2.94,0-4.77,2.37-4.77,6.35
				c0,3.97,1.83,6.23,4.77,6.23C245.66,33.84,247.52,31.58,247.52,27.61z"/>
			<path class="st33" d="M259.02,15.75v-0.81h3.75v1.1h-0.24L259.02,15.75z M263.01,33.23l3.69,0.29v0.81h-7.68v-0.81l3.52-0.29
				H263.01z M261.99,23.86c0-2.98,0-5.97-0.07-8.92h1.71c-0.07,2.92-0.07,5.91-0.07,8.92v1.86c0,2.8,0,5.67,0.07,8.62h-1.71
				c0.07-2.92,0.07-5.91,0.07-8.92V23.86z M265.4,26.37h-2.63v-0.88h2.6c4.44,0,6.16-2.04,6.16-4.93c0-3.05-1.62-4.71-5.37-4.71
				h-3.39v-0.91h3.69c4.47,0,6.69,2.21,6.69,5.62C273.16,23.85,270.77,26.37,265.4,26.37z"/>
			<path class="st33" d="M279.87,26.93c1.45-0.48,3.14-0.88,4.59-1.19v0.73c-1.4,0.31-3.11,0.79-4.33,1.25
				c-2.44,0.92-3.22,2.03-3.22,3.26c0,1.66,1.08,2.52,2.67,2.52c1.38,0,2.43-0.68,4.25-2.38l0.42-0.38l0.16,0.67l-0.49,0.51
				c-1.76,1.88-2.96,2.79-4.85,2.79c-2.07,0-3.67-1.21-3.67-3.46C275.41,29.36,276.63,28.05,279.87,26.93z M283.76,31.57v-6.51
				c0-3.04-1.03-3.8-3.16-3.8c-1.07,0-2.1,0.27-3.22,1.03l0.91-0.81l-0.61,2.17c-0.17,0.61-0.49,0.9-1.01,0.9s-0.83-0.3-0.9-0.79
				c0.58-2.15,2.5-3.37,5.11-3.37c2.86,0,4.3,1.28,4.3,4.48v6.35c0,1.87,0.47,2.44,1.29,2.44c0.42,0,0.75-0.17,1.19-0.55l0.41,0.5
				c-0.55,0.72-1.25,1.06-2.04,1.06C284.56,34.67,283.83,33.52,283.76,31.57z"/>
			<path class="st33" d="M292.08,28.29v-1.39c0-1.84-0.03-3.33-0.09-4.66l-2.52-0.11v-0.75l3.5-0.91l0.35,0.22l0.17,3.73v3.86
				c0,1.78,0.03,4.75,0.09,6.04H292C292.05,33.04,292.08,30.08,292.08,28.29z M289.64,33.58l2.99-0.34h0.39l3.11,0.34v0.75h-6.49
				V33.58z M292.77,24.41h1.06l-0.5,0.29c0.85-2.56,2.76-4.3,4.71-4.3c0.92,0,1.71,0.39,1.96,0.86c0,0.89-0.38,1.33-1.19,1.33
				c-0.58,0-1-0.28-1.56-0.74l-0.66-0.56l1.41-0.03c-2.06,0.38-3.48,1.83-4.55,4.57h-0.68V24.41z"/>
			<path class="st33" d="M305.91,26.93c1.45-0.48,3.14-0.88,4.59-1.19v0.73c-1.4,0.31-3.11,0.79-4.33,1.25
				c-2.44,0.92-3.22,2.03-3.22,3.26c0,1.66,1.08,2.52,2.67,2.52c1.38,0,2.43-0.68,4.25-2.38l0.42-0.38l0.16,0.67l-0.49,0.51
				c-1.76,1.88-2.96,2.79-4.85,2.79c-2.07,0-3.67-1.21-3.67-3.46C301.45,29.36,302.67,28.05,305.91,26.93z M309.79,31.57v-6.51
				c0-3.04-1.03-3.8-3.16-3.8c-1.07,0-2.1,0.27-3.22,1.03l0.91-0.81l-0.61,2.17c-0.17,0.61-0.49,0.9-1.01,0.9s-0.83-0.3-0.9-0.79
				c0.58-2.15,2.5-3.37,5.11-3.37c2.86,0,4.3,1.28,4.3,4.48v6.35c0,1.87,0.47,2.44,1.29,2.44c0.42,0,0.75-0.17,1.19-0.55l0.41,0.5
				c-0.55,0.72-1.25,1.06-2.04,1.06C310.59,34.67,309.86,33.52,309.79,31.57z"/>
			<path class="st33" d="M318.03,34.33c0.06-1.29,0.09-4.26,0.09-6.04v-1.39c0-1.84-0.03-3.33-0.09-4.66l-2.52-0.11v-0.75l3.5-0.91
				l0.35,0.22l0.17,3.2v4.39c0,1.78,0.03,4.75,0.09,6.04H318.03z M321.8,33.58v0.75h-6.16v-0.75l2.99-0.34h0.39L321.8,33.58z
				 M328.57,25.44v2.85c0,1.84,0.03,4.75,0.09,6.04h-1.59c0.06-1.29,0.09-4.2,0.09-6.04v-2.77c0-2.83-0.98-3.83-2.69-3.83
				c-1.32,0-3.04,0.58-5.14,2.82h-0.5v-0.89h0.9l-0.67,0.28c1.9-2.39,4.06-3.51,5.97-3.51C327.28,20.39,328.57,21.76,328.57,25.44z
				 M328.06,33.25l2.77,0.34v0.75h-6.16v-0.75l2.99-0.34H328.06z"/>
			<path class="st33" d="M337.78,26.93c1.45-0.48,3.14-0.88,4.59-1.19v0.73c-1.4,0.31-3.11,0.79-4.33,1.25
				c-2.44,0.92-3.22,2.03-3.22,3.26c0,1.66,1.08,2.52,2.67,2.52c1.38,0,2.43-0.68,4.25-2.38l0.42-0.38l0.16,0.67l-0.49,0.51
				c-1.76,1.88-2.96,2.79-4.85,2.79c-2.07,0-3.67-1.21-3.67-3.46C333.32,29.36,334.54,28.05,337.78,26.93z M341.67,31.57v-6.51
				c0-3.04-1.03-3.8-3.16-3.8c-1.07,0-2.1,0.27-3.22,1.03l0.91-0.81l-0.61,2.17c-0.17,0.61-0.49,0.9-1.01,0.9s-0.83-0.3-0.9-0.79
				c0.58-2.15,2.5-3.37,5.11-3.37c2.86,0,4.3,1.28,4.3,4.48v6.35c0,1.87,0.47,2.44,1.29,2.44c0.42,0,0.75-0.17,1.19-0.55l0.41,0.5
				c-0.55,0.72-1.25,1.06-2.04,1.06C342.47,34.67,341.74,33.52,341.67,31.57z M340.7,13.88c0.51-0.74,0.81-1,1.18-1
				c0.38,0,0.72,0.24,0.72,0.72c0,0.32-0.21,0.65-0.87,1.3c-0.96,0.96-2.13,2.13-3.34,3.3l-0.48-0.38
				C338.89,16.45,339.86,15.04,340.7,13.88z"/>
		</g>
	</g>
	<g>
		<path class="st34" d="M185.57,21.95L185.57,21.95c1.03-1.9,1.61-4.08,1.61-6.39c0-7.44-6.03-13.48-13.48-13.48
			c-7.44,0-13.48,6.03-13.48,13.48c0,2.32,0.59,4.5,1.62,6.41h0l0.01,0.01c0.11,0.2,0.22,0.39,0.34,0.59l10.16,17.66
			c0.6,1.04,2.11,1.04,2.71,0l10.16-17.65c0.12-0.2,0.24-0.4,0.35-0.6L185.57,21.95z"/>
		<circle class="st35" cx="173.7" cy="14.91" r="4.45"/>
	</g>
</g>
<g id="SERVICIOS-terminal">
</g>
<g id="SERVICIO-lab">
</g>
<g id="SERV-transp-terrestre">
</g>
<g id="SERV-opera-solidos">
</g>
<g id="COMEX">
</g>
<g id="CONTACTO">
</g>
<g id="COMPROMISO">
</g>
<g id="Capa_19" class="st0">
</g>
<g id="TERMINAL">
</g>
<g id="servicios3">
</g>
<g id="servicios2">
</g>
<g id="servicios1">
</g>
<g id="Capa_10">
</g>
<g id="solapa-servicio">
</g>
<g id="top">
</g>
<g id="esqueletoi">
</g>
<g id="guias">
</g>
</svg>
