<?xml version="1.0" encoding="utf-8"?>
<!-- Generator: Adobe Illustrator 27.9.0, SVG Export Plug-In . SVG Version: 6.00 Build 0)  -->
<svg version="1.1" xmlns="http://www.w3.org/2000/svg" xmlns:xlink="http://www.w3.org/1999/xlink" x="0px" y="0px"
	 viewBox="0 0 347.89 272.03" style="enable-background:new 0 0 347.89 272.03;" xml:space="preserve">
<style type="text/css">
	.st0{display:none;}
	.st1{display:inline;}
	.st2{fill:#8F8F8F;}
	.st3{fill:#6E6E6E;}
	.st4{fill:#FFFFFF;}
	.st5{clip-path:url(#SVGID_00000014621374003323887240000015420054910598778515_);}
	.st6{fill:#878787;}
	.st7{fill:#4C4C4A;}
	.st8{fill:#858658;}
	.st9{fill:#1BB09D;}
	.st10{fill:#4CABCB;}
	.st11{fill:#737373;}
	.st12{fill:#4FA98B;}
	.st13{fill:#2276BB;}
	.st14{fill:none;stroke:#FFFFFF;stroke-width:0.25;stroke-miterlimit:10;}
	.st15{clip-path:url(#SVGID_00000101094330550023543300000001200230817359257269_);}
	.st16{clip-path:url(#SVGID_00000085237593867560312020000010912021982844191108_);}
	.st17{clip-path:url(#SVGID_00000080178773952271847490000008480982697470808251_);}
	.st18{clip-path:url(#SVGID_00000013194070957417591950000012711543095976021937_);}
	.st19{clip-path:url(#SVGID_00000050640856953579811760000005348913278282520711_);}
	.st20{clip-path:url(#SVGID_00000163036027346236986060000001113815610706480815_);}
	.st21{clip-path:url(#SVGID_00000079467718450745883760000017831327838911958716_);}
	.st22{clip-path:url(#SVGID_00000116943556280589620110000004707994266081873572_);}
	.st23{clip-path:url(#SVGID_00000135663970457453481560000017856599906617881014_);}
	
		.st24{clip-path:url(#SVGID_00000159436253724876731270000015645671488198213505_);fill:url(#SVGID_00000101082152878197478600000016108802500563688894_);}
	.st25{fill:#003DA6;stroke:#003DA6;stroke-width:0.25;stroke-miterlimit:10;}
	.st26{fill:none;stroke:#003DA6;stroke-width:0.3;stroke-miterlimit:10;}
	.st27{fill:#FFFFFF;stroke:#ABABAB;stroke-width:0.3093;stroke-miterlimit:10;}
	.st28{fill:none;stroke:#003DA6;stroke-width:0.5024;stroke-miterlimit:10;}
	.st29{fill:#FFFFFF;stroke:#003DA6;stroke-width:0.3467;stroke-miterlimit:10;}
	.st30{opacity:0.5;fill:url(#SVGID_00000003072185255738298900000003363401459652918927_);}
	.st31{fill:url(#SVGID_00000131329096803698407910000013777848545854756243_);}
	.st32{fill:#E4F4F9;}
	.st33{fill:#003DA6;}
	.st34{fill:#003DA6;stroke:#FFFFFF;stroke-width:0.2257;stroke-miterlimit:10;}
	.st35{fill:#FFFFFF;stroke:#003DA6;stroke-width:0.2257;stroke-miterlimit:10;}
	.st36{fill:#FFFFFF;stroke:#ABABAB;stroke-width:0.3504;stroke-miterlimit:10;}
	.st37{fill-rule:evenodd;clip-rule:evenodd;fill:#FFFFFF;stroke:#ABABAB;stroke-width:0.4053;stroke-miterlimit:10;}
	.st38{fill:#FFFFFF;stroke:#ABABAB;stroke-width:0.4053;stroke-miterlimit:10;}
	.st39{opacity:0.7;fill:url(#SVGID_00000159435562014932639480000006657773853572297895_);}
	.st40{opacity:0.5;fill:#4C4C4A;}
	.st41{opacity:0.5;fill:#858658;}
	.st42{opacity:0.5;fill:#1BB09D;}
	.st43{opacity:0.5;fill:#4CABCB;}
	.st44{opacity:0.5;fill:#737373;}
	.st45{opacity:0.5;fill:#2276BB;}
	.st46{fill:none;stroke:#003DA6;stroke-width:0.2224;stroke-miterlimit:10;}
	.st47{fill:#FFFFFF;stroke:#003DA6;stroke-width:0.2835;stroke-miterlimit:10;}
	.st48{fill:none;stroke:#003DA6;stroke-width:0.1864;stroke-linecap:round;stroke-miterlimit:1;}
	.st49{fill:#FFFFFF;stroke:#003DA6;stroke-width:0.1;stroke-miterlimit:10;}
	.st50{fill:none;stroke:#003DA6;stroke-width:0.2835;stroke-miterlimit:10;}
	.st51{fill:#575757;}
	.st52{clip-path:url(#SVGID_00000134959723039633674840000014117358571594784918_);}
	.st53{opacity:0.7;fill:url(#SVGID_00000016051513717416489300000011153534631925562254_);}
	.st54{fill:none;stroke:#003DA6;stroke-width:0.25;stroke-miterlimit:10;}
	.st55{fill:#1C3F81;}
	.st56{fill:none;stroke:#949494;stroke-width:0.25;stroke-miterlimit:10;}
	.st57{clip-path:url(#SVGID_00000026135335659739530280000004562980669031468935_);}
	.st58{fill:#43B6A5;}
	.st59{fill:#25745C;}
	.st60{clip-path:url(#SVGID_00000124877463083338000040000002875814492703411359_);}
	.st61{display:inline;fill:#1C3F81;}
	.st62{display:inline;fill:#4C4C4A;}
	.st63{fill:url(#SVGID_00000044879652255883111870000001332812771276498064_);}
	.st64{fill:url(#SVGID_00000062872199774343604980000000267370379802365367_);}
	.st65{fill:none;stroke:#FFFFFF;stroke-width:2;stroke-linecap:round;stroke-miterlimit:10;}
	.st66{clip-path:url(#SVGID_00000154424773097519920370000004703726209829007035_);}
	.st67{fill:#003DA6;stroke:#FFFFFF;stroke-width:0.1346;stroke-miterlimit:10;}
	.st68{fill:#141414;}
	.st69{stroke:#FFFFFF;stroke-width:0.1346;stroke-miterlimit:10;}
	.st70{clip-path:url(#SVGID_00000168093608719513648330000017347704514558956690_);}
	.st71{opacity:0.18;}
	.st72{fill:#089F91;}
	.st73{opacity:0.18;fill:#BADDE9;}
	.st74{fill:#F5F4EF;stroke:#FFFFFF;stroke-width:1.8244;stroke-miterlimit:10;}
	.st75{opacity:0.65;fill:#858658;}
	.st76{fill:#C3DFF5;}
	.st77{opacity:0.63;}
	.st78{fill:#9C9B9B;}
	.st79{fill:#A9A9A9;}
	.st80{fill:#35350B;}
	.st81{fill:none;stroke:#FFFFFF;stroke-width:0.1824;stroke-linecap:round;stroke-linejoin:round;stroke-miterlimit:10;}
	.st82{opacity:0.64;}
	.st83{fill:#F5F4EF;}
	.st84{clip-path:url(#SVGID_00000145737789033145343910000007526894027981521323_);}
	.st85{fill:#F5F4EF;stroke:#FFFFFF;stroke-width:1.2815;stroke-miterlimit:10;}
	.st86{opacity:0.65;}
	.st87{fill:none;stroke:#FFFFFF;stroke-width:0.1281;stroke-linecap:round;stroke-linejoin:round;stroke-miterlimit:10;}
	.st88{fill:#1D1D1B;}
	
		.st89{opacity:0.4;clip-path:url(#SVGID_00000072279506071394943620000001170980718543290503_);fill:url(#SVGID_00000120546691999834745680000002239332068660452740_);}
	.st90{fill:#45CFDA;}
	.st91{clip-path:url(#SVGID_00000099648180175587782610000007642613525337425822_);}
	.st92{clip-path:url(#SVGID_00000105405569303157374590000007308563151618258349_);}
	.st93{fill:#FFFFFF;stroke:#ABABAB;stroke-width:0.4901;stroke-miterlimit:10;}
	.st94{fill:url(#SVGID_00000109708090403002383690000015104724817636330157_);}
	.st95{fill-rule:evenodd;clip-rule:evenodd;fill:#FFFFFF;stroke:#ABABAB;stroke-width:0.2763;stroke-miterlimit:10;}
	.st96{fill:#FFFFFF;stroke:#ABABAB;stroke-width:0.2763;stroke-miterlimit:10;}
	.st97{fill:#0A0A0A;}
	.st98{opacity:0.5;}
	.st99{fill:#565630;}
	.st100{fill:#A2E3F4;}
	.st101{fill:#454545;}
	.st102{fill:none;stroke:#454545;stroke-width:0.5151;stroke-miterlimit:10;}
	.st103{clip-path:url(#SVGID_00000160170785005072856310000010622969740459700899_);}
	.st104{clip-path:url(#SVGID_00000134937187530283737570000009414477363595122068_);}
	.st105{fill:none;stroke:#787878;stroke-width:0.2794;stroke-miterlimit:10;}
	.st106{fill:none;stroke:#787878;stroke-width:0.2073;stroke-miterlimit:10;}
	.st107{fill:none;stroke:#A7B972;stroke-width:0.2557;stroke-miterlimit:10;}
	.st108{fill:none;stroke:#A7B972;stroke-width:0.1622;stroke-miterlimit:10;}
	
		.st109{clip-path:url(#SVGID_00000049904836547345546450000005394650307682753412_);fill:url(#SVGID_00000048458866698350593300000013603188949497338256_);}
	.st110{clip-path:url(#SVGID_00000105420195571339597630000011466695026696555702_);}
	.st111{clip-path:url(#SVGID_00000148657004110560582040000013301793959830124715_);}
	.st112{clip-path:url(#SVGID_00000114784985840476101140000004787895740126051763_);}
	.st113{clip-path:url(#SVGID_00000117658022982208155610000002141770796916624265_);}
	.st114{clip-path:url(#SVGID_00000111171106117981799800000003573945330057026957_);}
	.st115{fill:url(#SVGID_00000067939668318079435490000009055357430798665099_);}
	.st116{fill:none;stroke:#003DA6;stroke-width:0.3467;stroke-miterlimit:10;}
	.st117{opacity:0.27;fill:#BADDE9;}
	.st118{clip-path:url(#SVGID_00000059994643266245152650000003360344236861481623_);}
	.st119{opacity:0.29;}
	
		.st120{clip-path:url(#SVGID_00000109009702571406790240000014573293517486999218_);fill:url(#SVGID_00000182517811306002107200000007113001910490979985_);}
	.st121{opacity:0.71;}
	.st122{clip-path:url(#SVGID_00000026844406481553240290000015603959846630042808_);}
	.st123{clip-path:url(#SVGID_00000060734737371029054300000014713609162314434493_);}
	.st124{clip-path:url(#SVGID_00000016068224695626109220000015460770648032132769_);}
	.st125{fill:none;stroke:#575757;stroke-miterlimit:10;}
	.st126{fill:none;stroke:#575757;stroke-width:0.5;stroke-miterlimit:10;}
	.st127{fill:#D1D1D1;stroke:#828282;stroke-width:0.1864;stroke-linecap:round;stroke-miterlimit:1;}
	.st128{fill:#FFFFFF;stroke:#828282;stroke-width:0.1864;stroke-linecap:round;stroke-miterlimit:1;}
	.st129{fill:#828282;stroke:#424242;stroke-width:0.5;stroke-miterlimit:1;}
	.st130{fill:none;stroke:#828282;stroke-width:0.1864;stroke-linecap:round;stroke-miterlimit:1;}
	.st131{fill:none;stroke:#1C1C1C;stroke-width:0.1864;stroke-linecap:round;stroke-miterlimit:1;}
	.st132{fill:none;stroke:#828282;stroke-width:0.75;stroke-linecap:round;stroke-miterlimit:1;}
	.st133{fill:none;stroke:#292929;stroke-width:0.75;stroke-linecap:round;stroke-miterlimit:1;}
	.st134{fill:#363636;}
	.st135{fill:none;stroke:#3D3D3D;stroke-width:0.1864;stroke-linecap:round;stroke-miterlimit:1;}
	.st136{fill:none;stroke:#BDBDBD;stroke-width:0.75;stroke-miterlimit:10;}
	.st137{opacity:0.27;fill:#E8E8E8;}
	.st138{fill:none;stroke:#003DA6;stroke-width:0.1794;stroke-miterlimit:10;}
	.st139{clip-path:url(#SVGID_00000142152287618729274990000012315785963148880519_);}
	.st140{fill:#1F1F1F;}
	.st141{clip-path:url(#SVGID_00000159447364955893106630000009167850976850463117_);}
	.st142{clip-path:url(#SVGID_00000036964086500519171010000011988499490501008062_);}
	.st143{clip-path:url(#SVGID_00000161633919944281649590000005073772544708007826_);}
	.st144{clip-path:url(#SVGID_00000088119815344041807320000014296121240809460373_);}
	.st145{fill:url(#SVGID_00000031186231315372191310000002400412066705408396_);}
	.st146{fill:#C0E3EA;}
	.st147{fill:#27745C;}
	.st148{fill:#4D4D4D;}
	.st149{clip-path:url(#SVGID_00000174572747233900644740000011042974220711635619_);}
	.st150{fill:none;stroke:#4DABCB;stroke-width:2;stroke-miterlimit:10;}
	.st151{fill:none;stroke:#27745C;stroke-width:3;stroke-miterlimit:10;}
	.st152{fill:url(#SVGID_00000141427022552571708940000010454080093219112084_);}
	.st153{fill:url(#SVGID_00000171713047179608871250000016754510013210798476_);}
	.st154{fill:#706F6F;}
	.st155{fill:none;}
	.st156{fill:url(#SVGID_00000124120843894951255130000015449998223223964038_);}
	.st157{fill:none;stroke:#4DABCB;stroke-width:2;stroke-linecap:round;stroke-miterlimit:10;}
	.st158{fill:url(#SVGID_00000129176693865835515310000013779857333608301699_);}
	.st159{clip-path:url(#SVGID_00000161592391911435064680000003406990542870289317_);}
	.st160{opacity:0.35;fill:#1C3F81;}
	.st161{clip-path:url(#SVGID_00000036235134729773649870000013939679013202829210_);}
	.st162{clip-path:url(#SVGID_00000029037944461151146060000010587689599035339928_);}
	.st163{opacity:0.29;fill:#4C1608;}
	.st164{clip-path:url(#SVGID_00000031189765490166204170000012372296397030927785_);}
	.st165{opacity:0.29;fill:#054096;}
	.st166{clip-path:url(#SVGID_00000050633541170894639030000006765156976009932980_);}
	.st167{clip-path:url(#SVGID_00000132051364367910101020000017148348759108737155_);}
	.st168{opacity:0.23;fill:#95A71A;}
	.st169{fill:#799B1C;}
	.st170{opacity:0.5;fill:url(#SVGID_00000127727154917439954800000013906358970369207990_);}
	
		.st171{clip-path:url(#SVGID_00000075847980223789269100000015416305683725418404_);fill:url(#SVGID_00000116954116607747247840000012887899256940350125_);}
	
		.st172{clip-path:url(#SVGID_00000111187868445070716340000014364174718459360187_);fill:url(#SVGID_00000053540407969644679150000000866948191277126816_);}
	.st173{clip-path:url(#SVGID_00000031930335255744481570000012672509938303222961_);}
	.st174{clip-path:url(#SVGID_00000119799716056494841740000005458053266353285556_);}
	.st175{opacity:0.57;fill:#BADDE9;}
	.st176{opacity:0.54;fill:#1C3F81;}
	.st177{clip-path:url(#SVGID_00000062872637211911947030000003806089164593218469_);}
	.st178{clip-path:url(#SVGID_00000152970509152808159840000008317297276798569903_);}
	.st179{fill:url(#SVGID_00000049185692870463677620000016338458858955399075_);}
	.st180{fill:url(#SVGID_00000089562748779219586380000000753823322746268334_);}
	.st181{clip-path:url(#SVGID_00000109031876547746013130000012337769562767871888_);}
	.st182{clip-path:url(#SVGID_00000074421696401017635600000017879943084172123799_);}
	.st183{fill:none;stroke:#FFFFFF;stroke-width:0.75;stroke-miterlimit:10;}
	.st184{fill:none;stroke:#FFFFFF;stroke-width:0.7503;stroke-miterlimit:10;}
	.st185{clip-path:url(#SVGID_00000011752448924490487070000014093947955088357248_);fill:#FFFFFF;}
	.st186{fill:none;stroke:#2276BB;stroke-width:0.1;stroke-miterlimit:10;}
	.st187{fill:none;stroke:#FFFFFF;stroke-width:0.5;stroke-miterlimit:10;}
	.st188{clip-path:url(#SVGID_00000070812326521610053620000011685015823671361924_);fill:#FFFFFF;}
	.st189{clip-path:url(#SVGID_00000113344923989464255780000006949043085472649092_);fill:#FFFFFF;}
	.st190{clip-path:url(#SVGID_00000130636442383062009730000005543842627054248346_);fill:#FFFFFF;}
	.st191{fill:url(#SVGID_00000116236098964331645860000004327984185602770615_);}
	.st192{fill:none;stroke:#003DA6;stroke-width:0.2543;stroke-linecap:round;stroke-miterlimit:10;}
	.st193{fill:#BEE2E9;}
	.st194{fill:#7FA6E5;}
	.st195{opacity:0.97;fill:#71D4FF;}
</style>
<g id="iconos-fondo" class="st0">
</g>
<g id="footer">
</g>
<g id="fondo">
</g>
<g id="detacado-foto">
</g>
<g id="bloque_1-A">
</g>
<g id="bloque_1_B">
</g>
<g id="destacado" class="st0">
</g>
<g id="destacado-hidro" class="st0">
</g>
<g id="destacado-camion">
</g>
<g id="cont">
</g>
<g id="EMPRESA">
</g>
<g id="SERVICIOS-terminal">
</g>
<g id="SERVICIO-lab">
	
		<linearGradient id="SVGID_00000121994130570357712270000012302533612300385454_" gradientUnits="userSpaceOnUse" x1="28.9757" y1="214.9661" x2="235.6878" y2="59.1973">
		<stop  offset="0.3659" style="stop-color:#F5F5F5"/>
		<stop  offset="0.9162" style="stop-color:#E0EEF1"/>
	</linearGradient>
	<circle style="fill:url(#SVGID_00000121994130570357712270000012302533612300385454_);" cx="132.33" cy="137.08" r="129.41"/>
	<g>
		<path class="st146" d="M177.89,190.36h-32.25c-3.62,0-6.56-2.94-6.56-6.56v-29.3h45.37v29.3
			C184.45,187.42,181.52,190.36,177.89,190.36z"/>
		<path class="st147" d="M77.25,190.7c0.53-0.68,1.25-0.18,1.99-0.53c-2.36-1.77-1.98-4.3-1.98-6.73c0-29.59,0.03-59.18-0.04-88.77
			c-0.01-3.48,2.56-5.75,5.66-5.71C90.12,89.08,97.35,89,104.58,89c0.43,0,0.86,0,1.37,0c0.42-1.83,1.75-2.16,3.38-2.1
			c1.44,0.06,2.89,0.01,4.31,0.01c1.18-3,2.66-4.16,5.06-4c2.03,0.13,3.53,1.54,4.16,4.01c1.59,0,3.22,0,4.85,0
			c1.72,0,2.31,0.4,2.93,1.96c0.44,0.22,0.91,0.12,1.37,0.12c7.27,0.01,14.54,0,21.81,0.01c3.47,0,5.5,2.06,5.51,5.54
			c0.01,8.76,0.01,17.51,0,26.27c0,0.71,0.07,1.35,0.47,2c0.52,0.85,0.34,1.8-0.05,2.61c0.19,0.7,1.04,0.87,0.99,1.62
			c-0.53,0.65-0.85-0.08-1.29-0.22c-0.22,0.53-0.11,1.06-0.1,1.64c0.57-0.01,0.62-0.86,1.45-0.65c1.02,1.49,2.55,2.91,2.31,5.16
			c0.5,0.27,0.97,0.18,1.43,0.18c5.24,0,10.48,0,15.71,0c3.35,0,5.11,1.77,5.11,5.14c0,16.03,0,32.05,0.02,48.08
			c0,1.48-0.49,2.71-1.7,3.95c1.25,0,2.24,0,3.21,0c0.29,0.87-0.18,0.91-0.69,0.91c-1.25,0-2.5,0.01-3.75,0.01
			c-34.55,0-69.11,0-103.66-0.01C78.27,191.24,77.58,191.55,77.25,190.7z M139.12,171c-0.51,0-0.93,0-1.35,0
			c-9.34,0-18.68,0-28.02,0c-0.51,0-1.12,0.18-1.4-1c5.2-0.04,10.26-0.02,15.33-0.02c5.14,0,10.29,0,15.41,0c0-6.29,0-12.44,0-18.63
			c-0.45,0-0.8,0-1.15,0c-9.26,0-18.53,0-27.79,0c-0.35,0-0.7,0.01-1.06-0.01c-0.49-0.02-0.72-0.25-0.53-0.91
			c10.14,0,20.31,0,30.61,0c0-1.47-0.04-2.79,0.01-4.1c0.03-0.76-0.2-1.31-0.74-1.85c-2.57-2.56-5.09-5.18-7.66-7.75
			c-0.73-0.73-1.41-1.46-0.94-2.54c0.45-1.02,1.43-1.04,2.4-1.04c6.76,0.01,13.52,0,20.29-0.01c0.41,0,0.86,0.14,1.32-0.24
			c0-2.71,0-5.48,0-8.24c0-0.54-0.37-0.84-0.7-1.17c-1.57-1.58-3.16-3.14-4.73-4.73c-1.59-1.6-3.16-3.22-4.65-4.75
			c-0.78,0.22-0.93,1.05-1.6,0.94c-0.57-0.42,0.06-0.8-0.04-1.29c-1.91-1.9-3.87-3.86-5.84-5.81c-0.86-0.84-1.33-1.83-1.19-3.03
			c0.18-1.49,0.98-2.52,2.42-3c1.45-0.48,2.7-0.04,3.74,0.99c1.97,1.95,3.9,3.94,5.88,5.93c0.24-0.1,0.4-0.19,0.57-0.25
			c0.19-0.07,0.38-0.09,0.54,0.08c-0.02,0.6-0.02,0.6-0.63,1.42c2.06,2.06,4.11,4.11,6.15,6.15c0-7.11,0-14.28,0-21.52
			c-7.76,0-15.44,0-23.18,0c-0.35,1.72-1.57,2.05-3.08,2.05c-6.14-0.02-12.27-0.03-18.41,0c-1.56,0.01-2.76-0.41-3.15-2.02
			c-7.74,0-15.38,0-23.08,0c0,30.36,0,60.63,0,90.98c18.77,0,37.46,0,56.22,0C139.12,180.78,139.12,175.99,139.12,171z
			 M177.66,182.97c-2.11-0.11-2.11-0.11-2.32-0.78c0.7-0.53,1.62,0.06,2.4-0.45c-0.18-0.63,0.13-1.29-0.18-1.9
			c-1.35-0.39-2.86,0.33-4.1-0.42c0.01-0.18,0.02-0.36,0.03-0.53c1.39,0,2.79,0,4.14,0c0-0.9,0-1.55,0-2.16
			c-0.76-0.43-1.62,0.12-2.4-0.47c0.52-1.18,1.73-0.22,2.42-0.82c0-0.61,0-1.25,0-1.87c-1.39-0.5-2.93,0.37-4.19-0.51
			c0-0.14,0-0.28,0.01-0.42c1.4,0,2.79,0,4.19,0c0-0.92,0-1.61,0-2.28c-2.14-0.24-2.14-0.24-2.28-0.84
			c0.69-0.45,1.53,0.01,2.33-0.36c-0.05-0.66,0.12-1.35-0.19-2.06c-0.53,0-1.04,0-1.54,0c-0.47,0-0.94,0.01-1.41,0
			c-0.46-0.02-1.06,0.15-1.09-0.84c1.4,0,2.77,0,4.15,0c0-0.87,0-1.55,0-2.23c-0.79-0.3-1.63,0.13-2.41-0.39
			c0.52-1.25,1.76-0.24,2.42-0.87c0-0.62,0-1.26,0-1.87c-1.39-0.46-2.92,0.33-4.15-0.7c1.37-0.57,2.82-0.16,4.17-0.41
			c0-0.75,0-1.44,0-2.01c-0.8-0.46-1.86,0.27-2.44-0.77c0.8-0.65,1.71-0.09,2.43-0.49c0-0.67,0-1.31,0-2c-12.53,0-24.97,0-37.47,0
			c-0.02,0.41-0.05,0.76-0.05,1.1c0,10.24,0,20.48,0,30.72c0,2.69,1.33,4.01,4.04,4.01c12,0,24,0,36,0c2.99,0,4.28-1.29,4.28-4.26
			c0-10.01,0.01-20.01,0-30.02c0-0.49,0.11-1.01-0.14-1.53c-1.85,0-3.69,0-5.64,0c0,5.59,0.01,11.09,0,16.59
			c-0.01,5.45,0.04,10.9-0.03,16.42c-1.18-0.21-0.71-1.03-1.06-1.37c-1.35-0.33-2.83,0.29-4.06-0.61c1.38-0.64,2.84-0.16,4.17-0.48
			C177.66,184.35,177.66,183.69,177.66,182.97z M184.43,153.47c0-0.45,0-0.75,0-1.06c0-4.69,0.01-9.38,0.01-14.07
			c0-2.91-1.29-4.21-4.22-4.21c-16.02,0-32.05,0.01-48.07,0.01c-0.46,0-0.95-0.09-1.31,0.28c-0.39,0.71,0.09,1.11,0.5,1.53
			c2.54,2.6,5.04,5.24,7.65,7.77c0.86,0.84,1.19,1.68,1.15,2.86c-0.08,2.28-0.02,4.57-0.02,6.86c12.61,0,25.06,0,37.5,0
			c0-0.76,0-1.44,0-2.08c-0.79-0.34-1.58,0.1-2.43-0.42c0.54-1.14,1.7-0.33,2.44-0.81c0.11-0.63,0.13-1.3,0-1.94
			c-1.4-0.38-2.89,0.31-4.12-0.65c1.38-0.62,2.83-0.16,4.24-0.48c-0.12-0.74,0.12-1.45-0.15-2.1c-0.75-0.17-1.52,0.12-2.35-0.33
			c0.51-1.21,1.66-0.37,2.39-0.79c0.29-0.33-0.22-1.31,1.01-1.1c0,3.54,0,7.11,0,10.72C180.62,153.47,182.44,153.47,184.43,153.47z
			 M105.92,89.93c-0.39,0-0.69,0-1,0c-7.35,0-14.7,0-22.04,0c-2.98,0-4.69,1.73-4.69,4.74c0,30.29,0,60.58,0,90.87
			c0,3.09,1.68,4.78,4.76,4.78c18.88,0,37.75,0,56.63-0.01c0.32,0,0.69,0.17,1.04-0.2c-0.89-0.91-1.45-1.98-1.49-3.43
			c-19.07,0-38.08,0-57.19,0c0-31.09,0-62.02,0-93.09c8.03,0,15.98,0,24,0C105.92,92.34,105.92,91.22,105.92,89.93z M158.36,121.07
			c0.03-0.57,0.05-0.91,0.05-1.25c0-8.37,0-16.73,0-25.1c0-3.2-1.62-4.8-4.84-4.8c-7.19,0-14.39,0-21.58,0.01
			c-0.41,0-0.86-0.14-1.25,0.17c0,1.12,0,2.23,0,3.53c8.03,0,15.97,0,23.78,0c0.44,0.61,0.3,1.1,0.3,1.55
			c0.01,7.11,0,14.23,0.01,21.34c0,0.49-0.12,0.99,0.33,1.42C156.2,118.9,157.18,119.91,158.36,121.07z M107,92.15
			c0,0.73,0.02,1.39,0,2.05c-0.04,1.07,0.55,1.48,1.52,1.48c6.49,0,12.97-0.01,19.46,0.01c1.18,0,1.72-0.55,1.72-1.71
			c0-1.25,0.01-2.5,0-3.75c-0.02-2.07-0.3-2.34-2.38-2.34c-1.74,0-3.49,0-5.31,0c-0.2-2.43-1.33-4.02-3.69-4.01
			c-2.37,0-3.46,1.62-3.68,3.78c-0.35,0.27-0.67,0.24-0.98,0.24c-1.68,0-3.36,0.01-5.04,0.01c-1.09,0-1.72,0.46-1.6,1.64
			c0.05,0.49-0.15,1.01,0.24,1.66c1.39,0,2.87,0,4.35,0c0.01,0.19,0.03,0.37,0.04,0.56C110.23,92.38,108.59,91.77,107,92.15z
			 M142.89,113.07c1.28-1.21,2.49-2.36,3.71-3.53c-2.12-2.15-4.16-4.29-6.3-6.34c-0.82-0.79-1.92-0.87-2.94-0.3
			c-1.01,0.57-1.4,1.49-1.28,2.66c0.13,1.18,0.98,1.76,1.72,2.41c0.64-0.2,0.84-1.52,1.82-0.54c-0.37,0.47-0.72,0.91-1.03,1.3
			C140.09,110.23,141.51,111.67,142.89,113.07z M150.08,116.24c-0.87-0.85,0.24-1.15,0.27-1.36c-0.44-0.64-0.76-1.12-1.02-1.51
			c-0.68,0.09-0.97,1.27-1.69,0.39c-0.01-0.61,0.7-0.7,0.71-1.05c-0.59-0.66-1.1-1.23-1.66-1.85c-0.8,0.81-1.59,1.61-2.24,2.27
			c2.57,2.62,5.09,5.2,7.66,7.81c0.85-0.72,1.65-1.48,2.36-2.36c-0.42-0.51-0.76-0.98-1.29-1.2c-0.51,0.25-0.81,1.13-1.53,0.46
			c0.01-0.63,0.72-0.77,0.76-1.28c-0.39-0.44-0.77-0.87-1.15-1.29C150.84,115.62,150.51,115.88,150.08,116.24z M154.92,125.24
			c0,2.76,0,5.3,0,7.85c1.03,0,1.95,0,2.72,0c0.38-2.19,1.21-4.26,0.66-6.49C156.96,126.99,155.94,126.37,154.92,125.24z
			 M152.77,121.75c1.16,1.18,2.28,2.37,3.47,3.48c0.75,0.71,1.66,0.75,2.4,0c0.77-0.78,0.72-1.67,0-2.51
			c-0.43-0.5-0.86-0.99-1.28-1.46c-1.17,0.98-1.17,0.98-1.71,0.38c0.29-0.35,0.57-0.69,0.79-0.95c-0.42-0.51-0.78-0.96-1.22-1.5
			C154.33,120.11,153.56,120.92,152.77,121.75z M159.07,133.15c1.01-0.06,1.97,0.19,2.98-0.18c0.44-1.71-0.78-2.72-1.48-3.97
			C158.96,130.5,158.45,131.89,159.07,133.15z"/>
		<path class="st147" d="M189.79,190.65c-0.69,0.82-0.84,0.81-1.37-0.03C188.9,190.17,189.33,190.25,189.79,190.65z"/>
		<path class="st147" d="M76.03,190.48c-0.24,0.95-0.35,0.98-1.06,0.3C75.14,190.23,75.52,190.27,76.03,190.48z"/>
		<path class="st147" d="M130.06,112.61c0.05,6.34-5.21,11.72-11.5,11.78c-6.36,0.06-11.82-5.14-12.02-11.17
			c-0.23-6.63,4.85-12.38,11.7-12.41C125.36,100.79,130.18,106.62,130.06,112.61z M118.3,101.78c-6.04,0.03-10.82,4.85-10.8,10.89
			c0.02,5.91,4.95,10.81,10.84,10.78c5.98-0.03,10.79-4.91,10.76-10.93C129.08,106.52,124.27,101.75,118.3,101.78z"/>
		<path class="st147" d="M102.58,172.7c0,1.4,0,2.81,0,4.21c0,1.69-0.82,2.69-2.5,2.74c-2.92,0.08-5.85,0.08-8.78,0.01
			c-1.66-0.04-2.54-1.07-2.55-2.71c-0.01-2.81-0.01-5.62,0-8.43c0.01-1.75,0.96-2.76,2.74-2.78c2.77-0.03,5.54-0.03,8.31,0
			c1.83,0.02,2.77,1.03,2.78,2.86C102.58,169.97,102.58,171.33,102.58,172.7z M95.66,178.67c1.41,0,2.81,0.02,4.22-0.01
			c1.28-0.03,1.77-0.53,1.77-1.79c0.01-2.81-0.01-5.62,0-8.43c0.01-1.06-0.53-1.67-1.53-1.68c-2.97-0.04-5.93-0.02-8.9,0.02
			c-1.05,0.01-1.54,0.65-1.54,1.67c-0.01,2.85-0.01,5.7,0,8.55c0,1.08,0.55,1.67,1.65,1.67C92.77,178.68,94.22,178.67,95.66,178.67z
			"/>
		<path class="st147" d="M102.58,153.04c0,1.44,0.01,2.89,0,4.33c-0.01,1.58-0.92,2.63-2.48,2.65c-2.96,0.05-5.93,0.05-8.9,0
			c-1.47-0.03-2.45-1.11-2.46-2.58c-0.01-2.93-0.02-5.85,0.01-8.78c0.01-1.51,0.87-2.45,2.36-2.47c3.04-0.04,6.09-0.04,9.13,0.01
			c1.47,0.02,2.3,1,2.33,2.51c0,0.04,0,0.08,0,0.12C102.58,150.23,102.58,151.64,102.58,153.04z M95.71,147.14
			C95.71,147.13,95.71,147.13,95.71,147.14c-1.41,0-2.81-0.02-4.22,0c-1.26,0.01-1.8,0.52-1.8,1.75c-0.02,2.81,0,5.63,0,8.44
			c0,1.16,0.63,1.75,1.74,1.76c2.85,0.03,5.7,0.04,8.56-0.01c1.03-0.02,1.68-0.57,1.68-1.69c0-2.89,0-5.78-0.01-8.67
			c0-1.04-0.54-1.58-1.6-1.58C98.6,147.14,97.15,147.14,95.71,147.14z"/>
		<path class="st147" d="M95.65,126.53c1.48,0,2.97-0.01,4.45,0c1.51,0.01,2.47,0.96,2.48,2.49c0.01,2.97,0.02,5.93,0,8.9
			c-0.01,1.38-0.96,2.41-2.31,2.43c-3.04,0.04-6.09,0.03-9.13,0c-1.34-0.01-2.36-1.04-2.37-2.39c-0.03-3.01-0.02-6.01,0-9.02
			c0.01-1.45,0.99-2.39,2.44-2.41C92.68,126.51,94.16,126.53,95.65,126.53z M101.65,133.43
			C101.65,133.43,101.65,133.43,101.65,133.43c-0.01-1.37,0-2.74-0.01-4.1c-0.01-1.34-0.51-1.87-1.8-1.88
			c-2.77-0.01-5.55-0.02-8.32,0c-1.28,0.01-1.83,0.57-1.84,1.87c-0.01,2.74-0.01,5.47,0,8.21c0.01,1.31,0.56,1.88,1.82,1.89
			c2.77,0.02,5.55,0.02,8.32,0c1.27-0.01,1.82-0.59,1.83-1.88C101.66,136.17,101.65,134.8,101.65,133.43z"/>
		<path class="st147" d="M108.55,131.5c-0.16-0.37-0.08-0.64,0.32-0.72c0.26-0.05,0.54-0.03,0.82-0.03c13.08,0,26.16,0,39.24,0.01
			c0.38,0,0.76,0.03,1.1,0.05c0.27,0.51,0.15,0.78-0.31,0.84c-0.35,0.05-0.7,0.03-1.05,0.03c-12.92,0-25.85,0.01-38.77,0
			C109.44,131.67,108.95,131.82,108.55,131.5z"/>
		<path class="st147" d="M108.47,175.21c0.01-0.82,0.49-0.8,0.91-0.8c6.17-0.01,12.33,0,18.5,0c0.45,0,0.86,0.06,0.99,0.8
			C122.04,175.21,115.28,175.21,108.47,175.21z"/>
		<path class="st147" d="M108.5,155c6.78,0,13.54,0,20.33,0c-0.08,0.85-0.6,0.8-1.05,0.8c-6.09,0-12.18,0-18.27,0
			C109.01,155.8,108.43,155.88,108.5,155z"/>
		<path class="st147" d="M128.83,135.38c-0.08,0.82-0.56,0.74-0.98,0.74c-6.17,0-12.34,0-18.51,0c-0.49,0-0.99,0.03-0.82-0.74
			C115.29,135.38,122.05,135.38,128.83,135.38z"/>
		<path class="st147" d="M88.45,96.39c0.69,1.18-0.33,1.5-0.77,1.96c-2.39,2.45-2.41,2.43-3.24,2.06
			C85.64,98.92,86.94,97.63,88.45,96.39z"/>
		<path class="st147" d="M86.36,101.11c0.93-0.94,1.8-1.82,2.68-2.71c0.66,0.26,0.58,0.59,0.21,1.05
			C87.87,101.13,87.08,101.63,86.36,101.11z"/>
		<path class="st147" d="M153.02,179.69c0.02-1.25,1-2.25,2.2-2.26c1.27,0,2.32,1.02,2.33,2.29c0.01,1.22-1.09,2.35-2.3,2.35
			C154.06,182.07,153,180.95,153.02,179.69z M156.6,179.77c0.01-0.91-0.5-1.41-1.36-1.41c-0.81,0-1.29,0.5-1.33,1.33
			c-0.04,0.87,0.5,1.35,1.25,1.41C156,181.17,156.56,180.69,156.6,179.77z"/>
		<path class="st147" d="M168.64,174.53c-1.04-0.07-1.89-1.1-1.81-2.21c0.07-1.06,1-1.85,2.07-1.77c1.07,0.08,1.93,1.01,1.88,2.03
			C170.73,173.61,169.64,174.6,168.64,174.53z M168.58,171.49c-0.51,0.03-0.8,0.4-0.83,1.04c-0.03,0.69,0.38,1.01,0.98,1.02
			c0.69,0.01,1.09-0.42,1.07-1.1C169.78,171.83,169.38,171.49,168.58,171.49z"/>
		<path class="st147" d="M156.68,161.32c-0.04,1.02-1.1,2.03-2.09,1.98c-1.02-0.05-1.93-1.08-1.89-2.14
			c0.04-1.06,0.91-1.87,1.98-1.85C155.78,159.33,156.72,160.28,156.68,161.32z M155.72,161.22c-0.08-0.59-0.38-0.97-1.05-0.97
			c-0.74,0.01-1.01,0.44-1,1.12c0.01,0.7,0.49,0.96,1.06,0.94C155.35,162.3,155.69,161.87,155.72,161.22z"/>
		<path class="st147" d="M149.8,168.98c1.08-0.02,2.03,0.92,2.03,1.98c-0.01,1.11-0.91,1.99-2.01,1.98
			c-1.03-0.01-1.93-0.88-1.96-1.92C147.82,169.92,148.7,169,149.8,168.98z M149.91,172.05c0.53-0.13,0.98-0.43,0.98-1.07
			c0-0.71-0.47-1.08-1.13-1.05c-0.63,0.03-0.98,0.48-0.97,1.1C148.79,171.69,149.24,171.97,149.91,172.05z"/>
		<path class="st147" d="M163.82,166.4c0.54,0.01,0.86,0.26,0.87,0.77c0.01,0.49-0.3,0.83-0.8,0.82c-0.42-0.01-0.73-0.27-0.77-0.73
			C163.08,166.75,163.33,166.46,163.82,166.4z"/>
		<path class="st147" d="M146.98,175.97c0.49,0.01,0.8,0.22,0.84,0.73c0.04,0.54-0.32,0.81-0.75,0.83
			c-0.45,0.03-0.79-0.26-0.84-0.76C146.18,176.22,146.5,176.02,146.98,175.97z"/>
		<path class="st147" d="M169.77,178.07c0.5,0.04,0.82,0.29,0.8,0.8c-0.03,0.49-0.36,0.79-0.85,0.76c-0.4-0.03-0.74-0.28-0.74-0.75
			C168.98,178.37,169.26,178.1,169.77,178.07z"/>
		<path class="st147" d="M156.79,167.36c-0.01,0.47-0.29,0.7-0.81,0.7c-0.48,0-0.72-0.3-0.75-0.72c-0.04-0.5,0.32-0.83,0.77-0.86
			C156.47,166.46,156.76,166.79,156.79,167.36z"/>
		<path class="st147" d="M149.45,148.55c-1.05-0.01-1.99-0.99-1.95-2.06c0.04-1.05,0.92-1.91,1.97-1.91
			c1.11,0.01,2.04,0.91,2.05,1.98C151.51,147.59,150.51,148.56,149.45,148.55z M149.48,145.5c-0.62,0.05-1.01,0.39-1.02,1.01
			c-0.01,0.66,0.36,1.12,1.05,1.1c0.62-0.02,0.97-0.42,0.97-1.06C150.48,145.91,150.12,145.58,149.48,145.5z"/>
		<path class="st147" d="M159.81,141.11c-0.01,0.89-0.78,1.65-1.66,1.57c-0.91-0.08-1.38-0.68-1.44-1.55
			c-0.07-0.86,0.79-1.71,1.6-1.66C159.11,139.52,159.82,140.28,159.81,141.11z M158.17,141.77c0.41-0.07,0.71-0.26,0.7-0.73
			c-0.01-0.32-0.23-0.47-0.52-0.53c-0.29-0.05-0.54,0.05-0.64,0.35C157.58,141.28,157.7,141.61,158.17,141.77z"/>
		<path class="st147" d="M164.52,148.06c0.53-0.01,0.86,0.24,0.88,0.74c0.02,0.51-0.35,0.81-0.8,0.83
			c-0.41,0.02-0.73-0.25-0.78-0.71C163.78,148.41,164.02,148.12,164.52,148.06z"/>
		<path class="st147" d="M118.33,89.41c-0.96,0.02-1.92-0.92-1.98-1.94c-0.06-1.14,0.77-2.03,1.9-2.06
			c1.12-0.02,2.05,0.84,2.09,1.92C120.37,88.32,119.34,89.38,118.33,89.41z M119.32,87.33c-0.04-0.6-0.34-0.95-0.96-0.95
			c-0.64,0-1.04,0.3-1.05,0.98c-0.02,0.69,0.39,1.01,1.01,1.02C118.99,88.39,119.3,87.97,119.32,87.33z"/>
		<path class="st147" d="M112.46,91.55c0.01-0.27,0.16-0.41,0.42-0.43c0.26-0.01,0.45,0.11,0.47,0.37c0.03,0.31-0.14,0.52-0.46,0.5
			C112.63,91.98,112.49,91.8,112.46,91.55z"/>
		<path class="st147" d="M140.25,105.64c0.69,0.4,0.45,0.74,0.13,1.08c-0.36,0.37-0.65,0.34-0.93-0.19
			C139.55,106.12,139.88,105.89,140.25,105.64z"/>
		<path class="st147" d="M116.66,109.69c0-1.05-0.02-1.83,0-2.61c0.03-1.05,0.68-1.61,1.63-1.62c0.95-0.01,1.62,0.54,1.64,1.59
			c0.02,0.78,0,1.55,0,2.39c0.87-0.01,1.39-0.61,2.02-0.92c0.95-0.47,1.81-0.52,2.46,0.43c0.6,0.86,0.29,1.83-0.72,2.47
			c-0.3,0.19-0.61,0.35-0.91,0.53c-0.3,0.18-0.59,0.36-1.05,0.64c0.72,0.42,1.34,0.76,1.94,1.14c1.02,0.65,1.33,1.63,0.75,2.46
			c-0.66,0.96-1.55,0.91-2.48,0.43c-0.61-0.31-1.2-0.66-2.02-1.11c0,1.01,0.02,1.77,0,2.53c-0.03,1.02-0.58,1.63-1.59,1.64
			c-1.06,0.01-1.66-0.59-1.7-1.67c-0.03-0.77-0.01-1.54-0.01-2.48c-0.83,0.46-1.49,0.85-2.18,1.18c-0.91,0.43-1.8,0.38-2.32-0.59
			c-0.49-0.92-0.23-1.74,0.68-2.3c0.62-0.39,1.26-0.75,1.98-1.18c-0.45-0.55-1.06-0.71-1.56-1.03c-1.28-0.81-1.66-1.73-1.08-2.66
			c0.56-0.89,1.51-0.98,2.77-0.26C115.45,108.99,115.95,109.28,116.66,109.69z M119.02,111.28c0-1.33,0.01-2.44,0-3.56
			c-0.01-0.56,0.15-1.34-0.72-1.3c-0.78,0.04-0.72,0.77-0.72,1.37c0,1.11,0,2.22,0,3.53c-1.13-0.66-2.05-1.23-3-1.75
			c-0.51-0.28-1.15-0.86-1.59-0.02c-0.39,0.73,0.32,0.99,0.82,1.28c0.95,0.56,1.9,1.13,2.99,1.77c-1.16,0.67-2.17,1.26-3.18,1.84
			c-0.45,0.26-0.97,0.57-0.64,1.17c0.35,0.63,0.9,0.41,1.42,0.1c1-0.59,2.01-1.15,3.19-1.82c0,1.35,0.01,2.5,0,3.66
			c-0.01,0.58,0.01,1.21,0.75,1.2c0.77-0.01,0.69-0.69,0.69-1.24c0-1.14,0-2.28,0-3.5c1.7,0.47,2.77,2.03,4.79,1.93
			c-0.53-2.21-2.81-2.13-3.86-3.46c1.06-0.6,2.07-1.18,3.09-1.75c0.48-0.27,0.9-0.62,0.58-1.2c-0.33-0.61-0.83-0.39-1.3-0.12
			C121.29,110.02,120.25,110.59,119.02,111.28z"/>
		<path class="st147" d="M99.99,169.7c0.61,0.39,0.56,0.69,0.27,1c-0.19,0.2-0.39,0.38-0.59,0.57c-1.41,1.28-2.81,2.56-4.2,3.82
			c-1.54-0.98-2.58-2.14-2.66-3.05c1.27,0.06,1.61,1.42,2.67,1.78C96.96,172.46,98.48,171.08,99.99,169.7z"/>
		<path class="st147" d="M95.41,154.17c1.69-1.23,2.96-3,4.87-4.17c0.13,1-3.07,4.29-5.06,5.43c-0.81-0.95-2.1-1.53-2.63-3.2
			C94.04,152.57,94.45,153.73,95.41,154.17z"/>
		<path class="st147" d="M100.19,130.39c0.5,0.68,0.16,0.98-0.16,1.27c-1.32,1.22-2.65,2.43-3.96,3.66c-0.48,0.45-0.9,0.54-1.4,0.01
			c-0.51-0.54-1.06-1.03-1.59-1.56c-0.32-0.32-0.6-0.67-0.01-1.1c0.93,0.33,1.39,1.28,2.32,1.87
			C97.05,133.29,98.38,131.54,100.19,130.39z"/>
	</g>
	<g>
		<g>
			<g>
				<path class="st146" d="M310.74,157.96c0-0.64,0.22-0.88,0.84-1c0.22-0.04,0.43-0.04,0.65-0.02c0.93,0.08,1.8,0.42,2.7,0.67
					c0.74,0.21,1.52,0.42,2.24,0.02c0.91-0.51,1.51,0.02,1.49,0.99c-0.05,2.69-0.02,5.39-0.02,8.09c0,0.46-0.03,0.91-0.1,1.37
					c-0.29,1.72-1.96,3.2-3.67,3.23c-2.3,0.04-4.1-1.69-4.14-3.99c-0.02-1.54,0-3.08,0-4.62
					C310.74,161.12,310.74,159.54,310.74,157.96z"/>
			</g>
			<g>
				<path class="st147" d="M311.71,188.22c-1.32,0-2.12-0.63-2.45-1.9c-0.23-0.88-0.45-1.76-0.67-2.64
					c-2.08-0.52-4.08-1.36-5.96-2.47c-0.83,0.51-1.68,1-2.47,1.45c-1.08,0.61-1.99,0.49-2.86-0.38c-1.46-1.45-2.91-2.91-4.36-4.37
					c-0.87-0.88-0.99-1.79-0.37-2.87c0.42-0.73,0.9-1.57,1.42-2.39c0.01-0.02,0.02-0.04,0.03-0.05c-0.01-0.01-0.02-0.03-0.03-0.05
					c-1.07-1.77-1.89-3.74-2.45-5.91c-0.97-0.24-1.94-0.51-2.84-0.76c-1.07-0.3-1.69-1.1-1.7-2.19c-0.01-2.08-0.01-4.2,0-6.29
					c0.01-1.11,0.6-1.89,1.68-2.2c0.83-0.24,1.67-0.46,2.49-0.68l0.39-0.1c0.49-2,1.3-3.94,2.47-5.95c-0.55-0.9-1.04-1.74-1.5-2.56
					c-0.53-0.94-0.43-1.87,0.29-2.6c1.58-1.61,3.14-3.18,4.64-4.65c0.79-0.77,1.67-0.86,2.69-0.27l0.52,0.3
					c0.61,0.34,1.23,0.7,1.83,1.09c0.1,0.07,0.15,0.08,0.15,0.08c0,0,0.05-0.01,0.15-0.07c1.7-1.02,3.61-1.82,5.69-2.37
					c0.05-0.01,0.09-0.02,0.11-0.03c0-0.01,0.01-0.03,0.01-0.05c0.13-0.65,0.31-1.29,0.48-1.91c0.06-0.22,0.12-0.44,0.18-0.66
					c0.34-1.27,1.14-1.92,2.38-1.92c1.97-0.01,4.05-0.01,6.17,0c1.16,0,1.95,0.61,2.27,1.74c0.29,1.01,0.53,1.93,0.74,2.81
					c2.06,0.52,4.06,1.35,5.94,2.46c0.48-0.29,0.96-0.57,1.44-0.85c0.33-0.19,0.66-0.38,0.99-0.58c0.38-0.22,0.76-0.33,1.08-0.4
					l0.13-0.03l0.13,0.02c0.63,0.08,1.14,0.33,1.56,0.75c0.66,0.66,1.32,1.32,1.97,1.98c0.81,0.81,1.62,1.62,2.42,2.43
					c0.86,0.87,0.97,1.73,0.36,2.82c-0.46,0.82-0.94,1.67-1.45,2.49c0,0,0,0.01,0.01,0.01c1.09,1.81,1.92,3.79,2.46,5.89
					c0.01,0.03,0.01,0.05,0.02,0.06c0,0,0,0,0.01,0c0.97,0.23,1.94,0.5,2.83,0.76c1.1,0.32,1.69,1.1,1.69,2.24
					c0.01,1.97,0.01,4.04,0,6.17c0,1.17-0.61,1.96-1.74,2.27c-0.77,0.22-1.78,0.5-2.81,0.75c-0.53,2.07-1.36,4.07-2.48,5.96
					c0,0,0,0,0,0c0.48,0.8,0.99,1.66,1.48,2.53c0.56,1,0.43,1.92-0.37,2.73c-1.46,1.47-2.92,2.94-4.39,4.41
					c-0.87,0.87-1.81,1-2.87,0.39c-0.75-0.43-1.61-0.92-2.47-1.45c-1.92,1.13-3.93,1.97-5.95,2.47c-0.27,1.1-0.49,1.94-0.7,2.72
					c-0.33,1.22-1.11,1.82-2.38,1.82c-0.98,0-1.96,0-2.94,0C313.76,188.22,312.73,188.22,311.71,188.22z M327.52,179.92
					c0.84,0.52,1.7,1.01,2.44,1.43c0.48,0.27,0.68,0.25,1.08-0.15c1.47-1.47,2.93-2.93,4.39-4.41c0.33-0.34,0.36-0.54,0.13-0.95
					c-0.48-0.86-0.98-1.7-1.46-2.5c-0.31-0.51-0.31-1.01-0.01-1.51c1.06-1.79,1.85-3.69,2.34-5.66c0.13-0.53,0.46-0.85,1.01-0.99
					c1.03-0.26,2.05-0.54,2.82-0.76c0.49-0.14,0.65-0.34,0.65-0.84c0.01-2.12,0.01-4.2,0-6.16c0-0.48-0.15-0.68-0.62-0.82
					c-0.88-0.25-1.81-0.52-2.75-0.74c-0.78-0.18-1.01-0.7-1.13-1.14c-0.51-1.96-1.28-3.81-2.3-5.49c-0.32-0.53-0.32-1.04,0-1.56
					c0.49-0.79,0.96-1.63,1.42-2.44c0.28-0.5,0.26-0.66-0.12-1.04c-0.8-0.81-1.61-1.62-2.42-2.42c-0.66-0.66-1.32-1.32-1.98-1.98
					c-0.16-0.16-0.34-0.26-0.57-0.31c-0.17,0.04-0.35,0.1-0.5,0.19c-0.33,0.2-0.67,0.39-1,0.58c-0.49,0.28-0.97,0.56-1.45,0.86
					c-0.49,0.3-0.96,0.3-1.46,0c-1.77-1.05-3.66-1.83-5.6-2.32c-0.58-0.14-0.92-0.5-1.06-1.09c-0.2-0.86-0.44-1.76-0.72-2.75
					c-0.14-0.5-0.35-0.66-0.84-0.66c-2.12-0.01-4.19-0.01-6.16,0c-0.5,0-0.76,0.12-0.94,0.82c-0.06,0.23-0.12,0.45-0.18,0.67
					c-0.17,0.62-0.33,1.21-0.45,1.81c-0.17,0.85-0.73,1.1-1.2,1.23c-1.94,0.51-3.73,1.25-5.3,2.2c-0.64,0.39-1.23,0.38-1.87-0.03
					c-0.57-0.37-1.18-0.71-1.76-1.05l-0.53-0.3c-0.5-0.28-0.64-0.21-0.91,0.05c-1.49,1.46-3.05,3.02-4.62,4.62
					c-0.22,0.22-0.29,0.42-0.06,0.83c0.47,0.83,0.96,1.68,1.52,2.59c0.29,0.47,0.29,0.93,0.01,1.4c-1.14,1.93-1.92,3.81-2.38,5.75
					c-0.17,0.72-0.77,0.88-1.05,0.95l-0.37,0.1c-0.81,0.21-1.65,0.44-2.46,0.67c-0.44,0.13-0.6,0.33-0.6,0.78
					c-0.01,2.08-0.01,4.19,0,6.27c0,0.42,0.18,0.64,0.61,0.76c0.9,0.25,1.87,0.52,2.83,0.76c0.57,0.14,0.91,0.47,1.05,1.02
					c0.52,2.02,1.29,3.89,2.3,5.56c0.34,0.56,0.34,1.11-0.01,1.67c-0.5,0.79-0.98,1.62-1.39,2.34c-0.29,0.5-0.26,0.68,0.14,1.08
					c1.45,1.46,2.89,2.91,4.35,4.36c0.41,0.4,0.58,0.43,1.08,0.14c0.78-0.45,1.62-0.93,2.45-1.43c0.51-0.31,0.99-0.32,1.5-0.01
					c1.78,1.06,3.68,1.85,5.65,2.34c0.53,0.13,0.86,0.46,1,1.01c0.22,0.9,0.45,1.79,0.68,2.69c0.16,0.62,0.38,0.78,1.01,0.79
					c2,0,4,0,6,0c0.61,0,0.79-0.14,0.95-0.72c0.21-0.78,0.43-1.63,0.71-2.74c0.14-0.56,0.48-0.89,1.04-1.03
					c1.9-0.47,3.79-1.25,5.6-2.32c0.25-0.15,0.5-0.23,0.75-0.23C327.01,179.69,327.26,179.77,327.52,179.92z M335.36,172.53
					L335.36,172.53L335.36,172.53z M337.81,154.41L337.81,154.41L337.81,154.41z M337.81,154.41L337.81,154.41L337.81,154.41z
					 M335.35,148.41L335.35,148.41L335.35,148.41z"/>
			</g>
			<g>
				<path class="st147" d="M314.69,177.86c-9.58-0.08-17.34-7.87-17.31-17.36c0.01-4.67,1.83-9.03,5.11-12.28
					c3.26-3.24,7.61-5.02,12.24-5.02c0,0,0,0,0,0c4.61,0,8.96,1.81,12.24,5.1c3.27,3.28,5.07,7.62,5.06,12.21
					c-0.03,9.51-7.8,17.3-17.33,17.35H314.69L314.69,177.86z M314.73,144.69c-4.24,0-8.21,1.63-11.2,4.59
					c-3,2.97-4.66,6.96-4.67,11.23c-0.03,8.68,7.07,15.79,15.83,15.87c8.71-0.05,15.82-7.17,15.84-15.87
					c0.01-4.19-1.63-8.15-4.62-11.15C322.92,146.34,318.95,144.69,314.73,144.69C314.73,144.69,314.73,144.69,314.73,144.69z"/>
			</g>
			<g>
				<path class="st154" d="M313.3,174.3c-3.46-0.77-5.7-3.61-5.71-7.23c-0.01-4.16,0-8.93,0-13.15c-0.97-0.29-1.75-1.04-2.02-2.02
					c-0.1-0.34-0.13-0.69-0.1-1.03c0.14-1.67,1.47-2.8,3.3-2.8c3.52,0,7.05,0,10.57,0c0.15-0.01,0.3,0,0.45,0
					c0.43,0,0.87-0.01,1.32,0.03c1.49,0.11,2.67,1.28,2.8,2.77c0.03,0.34,0,0.69-0.09,1.03c-0.27,0.98-1.05,1.74-2.02,2.03
					c0.01,1.52,0,3.31,0,5.14l0,2.13c-0.02,0.73-0.01,1.55,0,2.43c0.02,1.37,0.04,2.92-0.07,4.45c-0.14,1.93-1.17,3.74-2.81,4.97
					c-1.25,0.93-2.73,1.43-4.2,1.42C314.24,174.45,313.77,174.4,313.3,174.3z M309.09,154.04c-0.01,4.19-0.01,8.91,0,13.03
					c0,2.94,1.74,5.16,4.54,5.78c1.48,0.33,3.08-0.04,4.39-1.01c1.3-0.97,2.11-2.38,2.22-3.88c0.11-1.47,0.09-2.99,0.07-4.32
					c-0.01-0.89-0.02-1.74,0-2.47l0-2.11c0-1.78,0-3.51,0-5.01L309.09,154.04z M319.81,149.55c-0.15,0-0.31-0.01-0.46,0
					c-3.52,0-7.05,0-10.57,0c-1.04,0-1.74,0.55-1.81,1.44c-0.01,0.17,0,0.34,0.05,0.51c0.17,0.62,0.77,1.05,1.46,1.05c0,0,0,0,0,0
					l12.44,0c0.69,0,1.29-0.44,1.47-1.06c0.05-0.17,0.06-0.34,0.05-0.5c-0.07-0.76-0.67-1.36-1.44-1.42
					c-0.24-0.02-0.49-0.02-0.75-0.02C320.1,149.55,319.96,149.55,319.81,149.55z"/>
			</g>
			<g>
				<path class="st154" d="M311.44,170.72c-0.91-0.88-1.42-2.09-1.44-3.4c-0.01-1.07-0.01-2.16-0.01-3.21c0-0.48,0-0.95,0-1.43
					l0-1.77c0-0.99,0-1.98,0-2.97c0-0.99,0.46-1.54,1.45-1.73c0.32-0.06,0.61-0.05,0.86-0.03c0.77,0.07,1.47,0.28,2.15,0.49
					c0.23,0.07,0.46,0.14,0.69,0.2c0.74,0.2,1.26,0.32,1.68,0.09c0.87-0.48,1.49-0.26,1.79-0.08c0.53,0.32,0.83,0.95,0.81,1.74
					c-0.04,2.01-0.03,4.06-0.02,6.04c0,0.68,0,1.35,0.01,2.03c0,0.54-0.04,1.03-0.11,1.49c-0.35,2.08-2.32,3.81-4.39,3.85
					c-0.03,0-0.06,0-0.1,0C313.52,172.06,312.33,171.58,311.44,170.72z M317.54,158.29c-0.99,0.55-1.99,0.27-2.8,0.05
					c-0.24-0.07-0.48-0.14-0.72-0.21c-0.63-0.19-1.23-0.38-1.84-0.43c-0.2-0.02-0.33-0.02-0.45,0.01c-0.12,0.02-0.19,0.05-0.22,0.06
					c-0.01,0.03-0.02,0.09-0.02,0.21c0,0.99,0,1.98,0,2.96l0,1.77c0,0.48,0,0.95,0,1.43c0,1.04-0.01,2.12,0.01,3.18
					c0.01,0.91,0.36,1.74,0.98,2.35c0.63,0.61,1.48,0.93,2.39,0.91c1.34-0.02,2.72-1.24,2.95-2.61c0.06-0.37,0.09-0.78,0.09-1.24
					c0-0.68,0-1.35-0.01-2.03c-0.01-1.99-0.01-4.05,0.02-6.07c0.01-0.29-0.07-0.42-0.08-0.43c0,0-0.01,0-0.02,0
					C317.79,158.18,317.69,158.2,317.54,158.29z"/>
			</g>
			<g>
				<path class="st154" d="M311.73,167.51c0-1.03,0.83-1.86,1.86-1.86c1.03,0,1.86,0.83,1.86,1.86c0,1.03-0.83,1.86-1.86,1.86
					C312.56,169.37,311.73,168.53,311.73,167.51z M313.22,167.51c0,0.2,0.17,0.37,0.37,0.37s0.37-0.17,0.37-0.37
					c0-0.2-0.17-0.37-0.37-0.37S313.22,167.3,313.22,167.51z"/>
			</g>
			<g>
				<path class="st154" d="M312.84,163.16c0-1.39,1.13-2.53,2.53-2.53s2.53,1.13,2.53,2.53c0,1.39-1.13,2.53-2.53,2.53
					S312.84,164.55,312.84,163.16z M314.33,163.16c0,0.57,0.47,1.04,1.04,1.04s1.04-0.47,1.04-1.04c0-0.57-0.47-1.04-1.04-1.04
					S314.33,162.59,314.33,163.16z"/>
			</g>
			<g>
				<path class="st154" d="M311.32,159.57c0-0.83,0.68-1.51,1.51-1.51c0.83,0,1.51,0.68,1.51,1.51c0,0.83-0.68,1.51-1.51,1.51
					C312,161.08,311.32,160.4,311.32,159.57z M312.81,159.57l0.02-0.02C312.82,159.56,312.81,159.56,312.81,159.57z"/>
			</g>
		</g>
		<g>
			<g>
				<path class="st146" d="M244,191.87c0,4.87,3.95,8.82,8.82,8.82c4.87,0,8.82-3.95,8.82-8.82s-8.82-15.82-8.82-15.82
					S244,186.99,244,191.87z"/>
			</g>
			<g>
				<path class="st154" d="M243.26,191.87c0-5.08,8.62-15.83,8.99-16.28l0.58-0.72l0.58,0.72c0.37,0.46,8.99,11.21,8.99,16.28
					c0,5.28-4.29,9.57-9.57,9.57S243.26,197.14,243.26,191.87z M244.75,191.87c0,4.46,3.62,8.08,8.08,8.08
					c4.46,0,8.08-3.62,8.08-8.08c0-3.51-5.38-11.14-8.08-14.62C250.13,180.72,244.75,188.36,244.75,191.87z"/>
			</g>
			<g>
				<path class="st147" d="M228.92,190.42c0-13.18,10.72-23.91,23.91-23.91c13.18,0,23.91,10.72,23.91,23.91
					s-10.72,23.91-23.91,23.91C239.64,214.33,228.92,203.6,228.92,190.42z M230.41,190.42c0,12.36,10.06,22.42,22.42,22.42
					s22.42-10.06,22.42-22.42S265.19,168,252.83,168S230.41,178.06,230.41,190.42z"/>
			</g>
			<g>
				<path class="st147" d="M233.88,190.42c0-10.45,8.5-18.95,18.95-18.95c10.45,0,18.95,8.5,18.95,18.95
					c0,10.45-8.5,18.95-18.95,18.95C242.38,209.37,233.88,200.87,233.88,190.42z M235.37,190.42c0,9.63,7.83,17.46,17.46,17.46
					s17.46-7.83,17.46-17.46s-7.83-17.46-17.46-17.46S235.37,180.79,235.37,190.42z"/>
			</g>
			<g>
				<g>
					<polygon class="st147" points="260.95,227.8 266.16,218.92 277.05,218.88 270.08,206.2 268.77,206.91 274.54,217.4 
						265.31,217.44 260.99,224.79 254.62,213.2 253.31,213.92 					"/>
				</g>
				<g>
					<polygon class="st147" points="244.7,227.8 252.32,213.94 251.02,213.23 244.66,224.79 240.34,217.44 231.11,217.4 
						236.94,206.8 235.64,206.08 228.6,218.88 239.49,218.92 					"/>
				</g>
			</g>
			<g>
				<g>
					<rect x="252.08" y="176.05" class="st154" width="1.49" height="28.75"/>
				</g>
				<g>
					
						<rect x="251.14" y="192.21" transform="matrix(0.7071 -0.7071 0.7071 0.7071 -61.1995 238.1612)" class="st154" width="11.5" height="1.49"/>
				</g>
				<g>
					
						<rect x="251.72" y="185.51" transform="matrix(0.7071 -0.7071 0.7071 0.7071 -56.8646 235.2179)" class="st154" width="7.55" height="1.49"/>
				</g>
				<g>
					
						<rect x="248.02" y="187.21" transform="matrix(0.7072 -0.707 0.707 0.7072 -63.5832 232.39)" class="st154" width="1.49" height="11.5"/>
				</g>
				<g>
					
						<rect x="249.41" y="182.47" transform="matrix(0.7072 -0.707 0.707 0.7072 -58.4334 231.4115)" class="st154" width="1.49" height="7.55"/>
				</g>
			</g>
		</g>
		<g>
			<g>
				<path class="st154" d="M278.98,202.63c8.6-3.66,16.55-8.64,23.65-14.79l-0.49-0.56c-7.04,6.1-14.93,11.03-23.45,14.66
					L278.98,202.63z"/>
			</g>
			<g>
				<path class="st154" d="M229.64,208.78l0.11-0.74c-18.87-2.92-36-11.63-49.54-25.17c-16.92-16.92-26.24-39.41-26.24-63.34
					c0-23.93,9.32-46.42,26.24-63.34s39.41-26.24,63.34-26.24s46.42,9.32,63.34,26.24c10.13,10.13,17.49,22.13,21.87,35.66
					c4.18,12.91,5.38,26.86,3.47,40.33l0.74,0.1c1.93-13.58,0.72-27.64-3.5-40.66c-4.42-13.65-11.84-25.75-22.06-35.96
					c-17.06-17.06-39.74-26.45-63.86-26.45s-46.81,9.39-63.86,26.45c-17.06,17.06-26.45,39.74-26.45,63.86
					c0,24.12,9.39,46.8,26.45,63.86C193.34,197.05,210.62,205.83,229.64,208.78z"/>
			</g>
		</g>
		<g>
			<polygon class="st154" points="332.44,132.96 338.77,128.45 338.34,127.85 332.62,131.92 328.28,125.84 327.67,126.27 			"/>
		</g>
		<g>
			<polygon class="st154" points="285.06,206.16 285.42,205.51 279.25,202.15 282.82,195.59 282.16,195.23 278.24,202.45 			"/>
		</g>
		<g>
			
				<rect x="208.75" y="117.33" transform="matrix(-1 -4.486468e-11 4.486468e-11 -1 576.397 393.555)" class="st155" width="158.89" height="158.89"/>
		</g>
	</g>
</g>
<g id="SERV-transp-terrestre">
</g>
<g id="SERV-opera-solidos">
</g>
<g id="COMEX">
</g>
<g id="CONTACTO">
</g>
<g id="COMPROMISO">
</g>
<g id="Capa_19" class="st0">
</g>
<g id="TERMINAL">
</g>
<g id="servicios3">
</g>
<g id="servicios2">
</g>
<g id="servicios1">
</g>
<g id="Capa_10">
</g>
<g id="solapa-servicio">
</g>
<g id="top">
</g>
<g id="esqueletoi">
</g>
<g id="guias">
</g>
</svg>
