<?xml version="1.0" encoding="utf-8"?>
<!-- Generator: Adobe Illustrator 27.9.0, SVG Export Plug-In . SVG Version: 6.00 Build 0)  -->
<svg version="1.1" xmlns="http://www.w3.org/2000/svg" xmlns:xlink="http://www.w3.org/1999/xlink" x="0px" y="0px"
	 viewBox="0 0 322.45 135.3" style="enable-background:new 0 0 322.45 135.3;" xml:space="preserve">
<style type="text/css">
	.st0{display:none;}
	.st1{display:inline;}
	.st2{fill:#8F8F8F;}
	.st3{fill:#6E6E6E;}
	.st4{fill:#FFFFFF;}
	.st5{clip-path:url(#SVGID_00000143602891636243644240000014992447781022718853_);}
	.st6{fill:#878787;}
	.st7{fill:#4C4C4A;}
	.st8{fill:#858658;}
	.st9{fill:#1BB09D;}
	.st10{fill:#4CABCB;}
	.st11{fill:#737373;}
	.st12{fill:#4FA98B;}
	.st13{fill:#2276BB;}
	.st14{fill:none;stroke:#FFFFFF;stroke-width:0.25;stroke-miterlimit:10;}
	.st15{clip-path:url(#SVGID_00000000938835650560092100000017396745287071447482_);}
	.st16{clip-path:url(#SVGID_00000077286721511234018860000000978334248166004372_);}
	.st17{clip-path:url(#SVGID_00000159453228176294215260000011927673102041183163_);}
	.st18{clip-path:url(#SVGID_00000070833734947572581370000017522627261518340533_);}
	.st19{clip-path:url(#SVGID_00000047775515434227299490000012028841871078378890_);}
	.st20{clip-path:url(#SVGID_00000173849674364933935530000008849548039270967170_);}
	.st21{clip-path:url(#SVGID_00000132063747391220119340000007261115865791671729_);}
	.st22{clip-path:url(#SVGID_00000066484299690256661880000011713811490586748830_);}
	.st23{clip-path:url(#SVGID_00000116208305426670006930000017029973712501728442_);}
	
		.st24{clip-path:url(#SVGID_00000057122545718492531140000000371120578174083217_);fill:url(#SVGID_00000100350173942566022290000014222500144396291760_);}
	.st25{fill:#003DA6;stroke:#003DA6;stroke-width:0.25;stroke-miterlimit:10;}
	.st26{fill:none;stroke:#003DA6;stroke-width:0.3;stroke-miterlimit:10;}
	.st27{fill:#FFFFFF;stroke:#ABABAB;stroke-width:0.3093;stroke-miterlimit:10;}
	.st28{fill:none;stroke:#003DA6;stroke-width:0.5024;stroke-miterlimit:10;}
	.st29{fill:#FFFFFF;stroke:#003DA6;stroke-width:0.3467;stroke-miterlimit:10;}
	.st30{opacity:0.5;fill:url(#SVGID_00000029036795028819909020000004243799733727619497_);}
	.st31{fill:url(#SVGID_00000139265945298359147350000001069486483858715313_);}
	.st32{fill:#E4F4F9;}
	.st33{fill:#003DA6;}
	.st34{fill:#003DA6;stroke:#FFFFFF;stroke-width:0.2257;stroke-miterlimit:10;}
	.st35{fill:#FFFFFF;stroke:#003DA6;stroke-width:0.2257;stroke-miterlimit:10;}
	.st36{fill:#FFFFFF;stroke:#ABABAB;stroke-width:0.3504;stroke-miterlimit:10;}
	.st37{fill-rule:evenodd;clip-rule:evenodd;fill:#FFFFFF;stroke:#ABABAB;stroke-width:0.4053;stroke-miterlimit:10;}
	.st38{fill:#FFFFFF;stroke:#ABABAB;stroke-width:0.4053;stroke-miterlimit:10;}
	.st39{opacity:0.7;fill:url(#SVGID_00000114041647979303320180000010181355199602374837_);}
	.st40{opacity:0.5;fill:#4C4C4A;}
	.st41{opacity:0.5;fill:#858658;}
	.st42{opacity:0.5;fill:#1BB09D;}
	.st43{opacity:0.5;fill:#4CABCB;}
	.st44{opacity:0.5;fill:#737373;}
	.st45{opacity:0.5;fill:#2276BB;}
	.st46{fill:none;stroke:#003DA6;stroke-width:0.2224;stroke-miterlimit:10;}
	.st47{fill:#FFFFFF;stroke:#003DA6;stroke-width:0.2835;stroke-miterlimit:10;}
	.st48{fill:none;stroke:#003DA6;stroke-width:0.1864;stroke-linecap:round;stroke-miterlimit:1;}
	.st49{fill:#FFFFFF;stroke:#003DA6;stroke-width:0.1;stroke-miterlimit:10;}
	.st50{fill:none;stroke:#003DA6;stroke-width:0.2835;stroke-miterlimit:10;}
	.st51{fill:#575757;}
	.st52{clip-path:url(#SVGID_00000176754125386307015650000016398477117167987074_);}
	.st53{opacity:0.7;fill:url(#SVGID_00000171697423839806664900000012756752455869755579_);}
	.st54{fill:none;stroke:#003DA6;stroke-width:0.25;stroke-miterlimit:10;}
	.st55{fill:#1C3F81;}
	.st56{fill:none;stroke:#949494;stroke-width:0.25;stroke-miterlimit:10;}
	.st57{clip-path:url(#SVGID_00000113321247749779001870000005560046769959920790_);}
	.st58{fill:#43B6A5;}
	.st59{fill:#25745C;}
	.st60{clip-path:url(#SVGID_00000155119240005212956540000010158395443827394965_);}
	.st61{display:inline;fill:#1C3F81;}
	.st62{display:inline;fill:#4C4C4A;}
	.st63{fill:url(#SVGID_00000149344693118382513290000004031054565218159035_);}
	.st64{fill:url(#SVGID_00000052809143254683364520000017555290123182583740_);}
	.st65{fill:none;stroke:#FFFFFF;stroke-width:2;stroke-linecap:round;stroke-miterlimit:10;}
	.st66{clip-path:url(#SVGID_00000178197463713018774230000007491338590502210468_);}
	.st67{fill:#003DA6;stroke:#FFFFFF;stroke-width:0.1346;stroke-miterlimit:10;}
	.st68{fill:#141414;}
	.st69{stroke:#FFFFFF;stroke-width:0.1346;stroke-miterlimit:10;}
	.st70{clip-path:url(#SVGID_00000010303384222326295270000015353025063705520312_);}
	.st71{opacity:0.18;}
	.st72{fill:#089F91;}
	.st73{opacity:0.18;fill:#BADDE9;}
	.st74{fill:#F5F4EF;stroke:#FFFFFF;stroke-width:1.8244;stroke-miterlimit:10;}
	.st75{opacity:0.65;fill:#858658;}
	.st76{fill:#C3DFF5;}
	.st77{opacity:0.63;}
	.st78{fill:#9C9B9B;}
	.st79{fill:#A9A9A9;}
	.st80{fill:#35350B;}
	.st81{fill:none;stroke:#FFFFFF;stroke-width:0.1824;stroke-linecap:round;stroke-linejoin:round;stroke-miterlimit:10;}
	.st82{opacity:0.64;}
	.st83{fill:#F5F4EF;}
	.st84{clip-path:url(#SVGID_00000075161616072665223920000008932622378331809710_);}
	.st85{fill:#F5F4EF;stroke:#FFFFFF;stroke-width:1.2815;stroke-miterlimit:10;}
	.st86{opacity:0.65;}
	.st87{fill:none;stroke:#FFFFFF;stroke-width:0.1281;stroke-linecap:round;stroke-linejoin:round;stroke-miterlimit:10;}
	.st88{fill:#1D1D1B;}
	
		.st89{opacity:0.4;clip-path:url(#SVGID_00000112616809218783724700000008127438945229246894_);fill:url(#SVGID_00000085239283160046526310000007750770971599613850_);}
	.st90{fill:#45CFDA;}
	.st91{clip-path:url(#SVGID_00000171719637836882281780000009988859019078878619_);}
	.st92{clip-path:url(#SVGID_00000080186980200665083810000017439548001862442152_);}
	.st93{fill:#FFFFFF;stroke:#ABABAB;stroke-width:0.4901;stroke-miterlimit:10;}
	.st94{fill:url(#SVGID_00000164495304653249729840000017569511501420507309_);}
	.st95{fill-rule:evenodd;clip-rule:evenodd;fill:#FFFFFF;stroke:#ABABAB;stroke-width:0.2763;stroke-miterlimit:10;}
	.st96{fill:#FFFFFF;stroke:#ABABAB;stroke-width:0.2763;stroke-miterlimit:10;}
	.st97{fill:#0A0A0A;}
	.st98{opacity:0.5;}
	.st99{fill:#565630;}
	.st100{fill:#A2E3F4;}
	.st101{fill:#454545;}
	.st102{fill:none;stroke:#454545;stroke-width:0.5151;stroke-miterlimit:10;}
	.st103{clip-path:url(#SVGID_00000040555031700970520120000010869781899736748183_);}
	.st104{clip-path:url(#SVGID_00000059270202130074449060000017451494985167137664_);}
	.st105{fill:none;stroke:#787878;stroke-width:0.2794;stroke-miterlimit:10;}
	.st106{fill:none;stroke:#787878;stroke-width:0.2073;stroke-miterlimit:10;}
	.st107{fill:none;stroke:#A7B972;stroke-width:0.2557;stroke-miterlimit:10;}
	.st108{fill:none;stroke:#A7B972;stroke-width:0.1622;stroke-miterlimit:10;}
	
		.st109{clip-path:url(#SVGID_00000119824318351568865550000016885168069034955935_);fill:url(#SVGID_00000026878469573268029240000011214271056399300008_);}
	.st110{clip-path:url(#SVGID_00000157309136718694457330000003437256491315745417_);}
	.st111{clip-path:url(#SVGID_00000021079812796369575810000004697353173276832137_);}
	.st112{clip-path:url(#SVGID_00000127007116510693743830000010730319366692667777_);}
	.st113{clip-path:url(#SVGID_00000083792627260893374160000018267884730846260923_);}
	.st114{clip-path:url(#SVGID_00000081616173815528140020000004925849111093576350_);}
	.st115{fill:url(#SVGID_00000025429622316684908270000015579625572045461939_);}
	.st116{fill:none;stroke:#003DA6;stroke-width:0.3467;stroke-miterlimit:10;}
	.st117{opacity:0.27;fill:#BADDE9;}
	.st118{clip-path:url(#SVGID_00000047030262412587001510000012976338716002061233_);}
	.st119{opacity:0.29;}
	
		.st120{clip-path:url(#SVGID_00000123399243634071581330000001742387283669666210_);fill:url(#SVGID_00000104698598024634785100000002403524066402459524_);}
	.st121{opacity:0.71;}
	.st122{clip-path:url(#SVGID_00000056390906609162248610000007604870570078285464_);}
	.st123{clip-path:url(#SVGID_00000030465706027652175080000016677846373337998464_);}
	.st124{clip-path:url(#SVGID_00000075874049135241711810000015883998373259712941_);}
	.st125{fill:none;stroke:#575757;stroke-miterlimit:10;}
	.st126{fill:none;stroke:#575757;stroke-width:0.5;stroke-miterlimit:10;}
	.st127{fill:#D1D1D1;stroke:#828282;stroke-width:0.1864;stroke-linecap:round;stroke-miterlimit:1;}
	.st128{fill:#FFFFFF;stroke:#828282;stroke-width:0.1864;stroke-linecap:round;stroke-miterlimit:1;}
	.st129{fill:#828282;stroke:#424242;stroke-width:0.5;stroke-miterlimit:1;}
	.st130{fill:none;stroke:#828282;stroke-width:0.1864;stroke-linecap:round;stroke-miterlimit:1;}
	.st131{fill:none;stroke:#1C1C1C;stroke-width:0.1864;stroke-linecap:round;stroke-miterlimit:1;}
	.st132{fill:none;stroke:#828282;stroke-width:0.75;stroke-linecap:round;stroke-miterlimit:1;}
	.st133{fill:none;stroke:#292929;stroke-width:0.75;stroke-linecap:round;stroke-miterlimit:1;}
	.st134{fill:#363636;}
	.st135{fill:none;stroke:#3D3D3D;stroke-width:0.1864;stroke-linecap:round;stroke-miterlimit:1;}
	.st136{fill:none;stroke:#BDBDBD;stroke-width:0.75;stroke-miterlimit:10;}
	.st137{opacity:0.27;fill:#E8E8E8;}
	.st138{fill:none;stroke:#003DA6;stroke-width:0.1794;stroke-miterlimit:10;}
	.st139{clip-path:url(#SVGID_00000088830447174328973990000010275157011475114899_);}
	.st140{fill:#1F1F1F;}
	.st141{clip-path:url(#SVGID_00000163752904791378834850000012852647062081570718_);}
	.st142{clip-path:url(#SVGID_00000183927450013909805230000012136518807284813965_);}
	.st143{clip-path:url(#SVGID_00000134964103140237002620000014670462783335914371_);}
	.st144{clip-path:url(#SVGID_00000000904245015482457860000011902941043061749380_);}
	.st145{fill:url(#SVGID_00000000184443998617581730000000222554042448638104_);}
	.st146{fill:#C0E3EA;}
	.st147{fill:#27745C;}
	.st148{fill:#4D4D4D;}
	.st149{clip-path:url(#SVGID_00000013903260584826400900000011152531467568109988_);}
	.st150{fill:none;stroke:#4DABCB;stroke-width:2;stroke-miterlimit:10;}
	.st151{fill:none;stroke:#27745C;stroke-width:3;stroke-miterlimit:10;}
	.st152{fill:url(#SVGID_00000165203875312204982050000006912209165706593158_);}
	.st153{fill:url(#SVGID_00000110446765124144255980000012537469962655205548_);}
	.st154{fill:#706F6F;}
	.st155{fill:none;}
	.st156{fill:url(#SVGID_00000034052591372757622680000012682142384637651586_);}
	.st157{fill:none;stroke:#4DABCB;stroke-width:2;stroke-linecap:round;stroke-miterlimit:10;}
	.st158{fill:url(#SVGID_00000044139355458775784740000011827418791840157360_);}
	.st159{clip-path:url(#SVGID_00000054249884549971437240000003702165294416440211_);}
	.st160{opacity:0.35;fill:#1C3F81;}
	.st161{clip-path:url(#SVGID_00000014599972525575861850000010268395987037940665_);}
	.st162{clip-path:url(#SVGID_00000121274398817050681980000000636602968176116411_);}
	.st163{opacity:0.29;fill:#4C1608;}
	.st164{clip-path:url(#SVGID_00000098215910327328571990000005743046058406489506_);}
	.st165{opacity:0.29;fill:#054096;}
	.st166{clip-path:url(#SVGID_00000062174956456035220680000018425564458104358829_);}
	.st167{clip-path:url(#SVGID_00000106840971792925997600000007035821097845377665_);}
	.st168{opacity:0.23;fill:#95A71A;}
	.st169{fill:#799B1C;}
	.st170{opacity:0.5;fill:url(#SVGID_00000120533890027884209970000014588503744164628111_);}
	
		.st171{clip-path:url(#SVGID_00000165951621385676073690000002690868730719108024_);fill:url(#SVGID_00000057145088986141490360000013255397250741982387_);}
	
		.st172{clip-path:url(#SVGID_00000034071273272653735960000015252630432015077019_);fill:url(#SVGID_00000171708194028952816290000000098968734436852411_);}
	.st173{clip-path:url(#SVGID_00000116951370341121966740000018305900562828466876_);}
	.st174{clip-path:url(#SVGID_00000067947779011632420470000016646224315349769661_);}
	.st175{opacity:0.57;fill:#BADDE9;}
	.st176{opacity:0.54;fill:#1C3F81;}
	.st177{clip-path:url(#SVGID_00000104696596832452723700000017010335238724511388_);}
	.st178{clip-path:url(#SVGID_00000102543617302760146230000002194039313164995207_);}
	.st179{fill:url(#SVGID_00000061444764358033739450000013301422145623174583_);}
	.st180{fill:url(#SVGID_00000165206573812594422650000006171777538133508505_);}
	.st181{clip-path:url(#SVGID_00000078766879421280749090000012769371712813376906_);}
	.st182{clip-path:url(#SVGID_00000083054774655285564780000003560607404346619807_);}
	.st183{fill:none;stroke:#FFFFFF;stroke-width:0.75;stroke-miterlimit:10;}
	.st184{fill:none;stroke:#FFFFFF;stroke-width:0.7503;stroke-miterlimit:10;}
	.st185{clip-path:url(#SVGID_00000152253796828506260290000008572645381771394179_);fill:#FFFFFF;}
	.st186{fill:none;stroke:#2276BB;stroke-width:0.1;stroke-miterlimit:10;}
	.st187{fill:none;stroke:#FFFFFF;stroke-width:0.5;stroke-miterlimit:10;}
	.st188{clip-path:url(#SVGID_00000150076322620145937210000011507642287957131661_);fill:#FFFFFF;}
	.st189{clip-path:url(#SVGID_00000011032682547354299880000007531126887475936168_);fill:#FFFFFF;}
	.st190{clip-path:url(#SVGID_00000182507262705880276330000011962777549677075333_);fill:#FFFFFF;}
	.st191{fill:url(#SVGID_00000134954074995818181660000004367237211378139830_);}
	.st192{fill:none;stroke:#003DA6;stroke-width:0.2543;stroke-linecap:round;stroke-miterlimit:10;}
	.st193{fill:#BEE2E9;}
	.st194{fill:#7FA6E5;}
	.st195{opacity:0.97;fill:#71D4FF;}
</style>
<g id="iconos-fondo" class="st0">
</g>
<g id="footer">
</g>
<g id="fondo">
</g>
<g id="detacado-foto">
</g>
<g id="bloque_1-A">
</g>
<g id="bloque_1_B">
</g>
<g id="destacado" class="st0">
</g>
<g id="destacado-hidro" class="st0">
</g>
<g id="destacado-camion">
</g>
<g id="cont">
</g>
<g id="EMPRESA">
	<g>
		<path class="st29" d="M243.54,113.82l-0.49,0.47c-2.51,2.4-6.55,2.33-8.98-0.14l-0.66-0.68c-4.87-4.95-12.97-5.1-18.01-0.32
			l-1.71,1.62c-2.54,2.41-6.6,2.31-9.02-0.22l-0.41-0.43c-4.91-5.13-13.04-5.31-18.17-0.41l-0.43,0.42
			c-0.97,0.93-2.18,1.65-3.51,1.83c-1.98,0.28-3.88-0.39-5.23-1.79c-4.75-4.97-12.66-5.14-17.63-0.39l-1.63,1.56
			c-2.54,2.43-6.61,2.34-9.04-0.2l-0.38-0.39c-4.88-5.11-13.06-5.3-18.17-0.41l-0.1,0.1c0,0,0,0,0,0l-0.49,0.47
			c-2.51,2.4-6.55,2.33-8.98-0.14l-0.66-0.68c-4.87-4.95-12.97-5.1-18.01-0.32l-1.71,1.62c-2.54,2.41-6.6,2.31-9.02-0.22l-0.41-0.43
			c-4.91-5.13-13.04-5.31-18.17-0.41l-0.43,0.42c-0.97,0.93-2.18,1.65-3.51,1.83c-1.98,0.28-3.88-0.39-5.23-1.79
			c-4.75-4.97-12.66-5.14-17.63-0.39l-1.63,1.56c-2.54,2.43-6.61,2.34-9.04-0.2l-0.38-0.39c-4.88-5.11-13.06-5.3-18.17-0.41
			l-0.68,0.65c-2.31,2.21-5.93,2.21-8.24,0.07l-4.64,4.5c2.34,2.29,5.38,3.48,8.44,3.55c3.19,0.07,6.41-1.07,8.9-3.45l0.67-0.65
			c2.54-2.43,6.61-2.34,9.04,0.2l0.38,0.39c4.9,5.13,13.04,5.31,18.17,0.41l1.33-1.27c2.48-2.37,6.54-2.37,8.95,0.06
			c2.61,2.64,6.2,3.97,9.97,3.65c2.97-0.25,5.72-1.71,7.87-3.77l0.58-0.55c1.4-1.34,3.33-1.92,5.3-1.56
			c1.32,0.25,2.49,1.02,3.42,1.99l0.44,0.46c4.86,5.09,13.02,5.29,18.13,0.44l1.71-1.62c2.51-2.38,6.54-2.3,8.96,0.16l0.66,0.68
			c2.47,2.51,5.76,3.78,9.07,3.81l0,0c3.19,0.07,6.41-1.07,8.9-3.45l0.67-0.65c2.54-2.43,6.61-2.34,9.04,0.2l0.38,0.39
			c4.9,5.13,13.04,5.31,18.17,0.41l1.33-1.27c2.48-2.37,6.54-2.37,8.95,0.06c2.61,2.64,6.2,3.97,9.97,3.65
			c2.97-0.25,5.72-1.71,7.87-3.77l0.58-0.55c1.4-1.34,3.33-1.92,5.3-1.56c1.32,0.25,2.49,1.02,3.42,1.99l0.44,0.46
			c4.86,5.09,13.02,5.29,18.13,0.44l1.71-1.62c2.51-2.38,6.54-2.3,8.96,0.16l0.66,0.68c4.89,4.97,13.01,5.1,18.05,0.28l0.49-0.47"/>
		<path class="st29" d="M243.47,98.05l-0.49,0.47c-2.51,2.4-6.55,2.33-8.98-0.14l-0.66-0.68c-4.87-4.95-12.97-5.1-18.01-0.32
			L213.62,99c-2.54,2.41-6.6,2.31-9.02-0.22l-0.41-0.43c-4.91-5.13-13.04-5.31-18.17-0.41l-0.43,0.42
			c-0.97,0.93-2.18,1.65-3.51,1.83c-1.98,0.28-3.88-0.39-5.23-1.79c-4.75-4.97-12.66-5.14-17.63-0.39l-1.63,1.56
			c-2.54,2.43-6.61,2.34-9.04-0.2l-0.38-0.39c-4.88-5.11-13.06-5.3-18.17-0.41l-0.1,0.1c0,0,0,0,0,0l-0.49,0.47
			c-2.51,2.4-6.55,2.33-8.98-0.14l-0.66-0.68c-4.87-4.95-12.97-5.1-18.01-0.32l-1.71,1.62c-2.54,2.41-6.6,2.31-9.02-0.22l-0.41-0.43
			c-4.91-5.13-13.04-5.31-18.17-0.41l-0.43,0.42c-0.97,0.93-2.18,1.65-3.51,1.83c-1.98,0.28-3.88-0.39-5.23-1.79
			c-4.75-4.97-12.66-5.14-17.63-0.39l-1.63,1.56c-2.54,2.43-6.61,2.34-9.04-0.2l-0.38-0.39c-4.88-5.11-13.06-5.3-18.17-0.41
			l-0.68,0.65c-2.31,2.21-5.93,2.21-8.24,0.07l-4.64,4.5c2.34,2.29,5.38,3.48,8.44,3.55c3.19,0.07,6.41-1.07,8.9-3.45l0.67-0.65
			c2.54-2.43,6.61-2.34,9.04,0.2l0.38,0.39c4.9,5.13,13.04,5.31,18.17,0.41l1.33-1.27c2.48-2.37,6.54-2.37,8.95,0.06
			c2.61,2.64,6.2,3.97,9.97,3.65c2.97-0.25,5.72-1.71,7.87-3.77l0.58-0.55c1.4-1.34,3.33-1.92,5.3-1.56
			c1.32,0.25,2.49,1.02,3.42,1.99l0.44,0.46c4.86,5.09,13.02,5.29,18.13,0.44l1.71-1.62c2.51-2.38,6.54-2.3,8.96,0.16l0.66,0.68
			c2.47,2.51,5.76,3.78,9.07,3.81l0,0c3.19,0.07,6.41-1.07,8.9-3.45l0.67-0.65c2.54-2.43,6.61-2.34,9.04,0.2l0.38,0.39
			c4.9,5.13,13.04,5.31,18.17,0.41l1.33-1.27c2.48-2.37,6.54-2.37,8.95,0.06c2.61,2.64,6.2,3.97,9.97,3.65
			c2.97-0.25,5.72-1.71,7.87-3.77l0.58-0.55c1.4-1.34,3.33-1.92,5.3-1.56c1.32,0.25,2.49,1.02,3.42,1.99l0.44,0.46
			c4.86,5.09,13.02,5.29,18.13,0.44l1.71-1.62c2.51-2.38,6.54-2.3,8.96,0.16l0.66,0.68c4.89,4.97,13.01,5.1,18.05,0.28l0.49-0.47"/>
		<path class="st95" d="M142,45.28l1.47,6.99l2.89,5.97l5.35,5.82l5.2,4.03l97.49,58.08c19.64,5.63,33.87,4.26,40.27,3.41
			c-4.07-5.25,8.86-1.2,22.76-5.67L142,45.28z"/>
		<path class="st95" d="M142,45.28l0.42,0.18l0.64,1.51c1.14,7.17,9.98,16.05,13.85,21.12l-5.2-4.03l-5.36-5.83l-2.88-5.96
			L142,45.28L142,45.28z"/>
		<path class="st95" d="M142,45.28l1.47,7l5.66,7.65l106.45,63.24c16.44,5.19,35.23,7,45.75,7.51c-0.59-3.18,4.75-3.13,16.1-6.77
			L142,45.28z"/>
		<path class="st95" d="M142,45.28l0.42,0.18l0.64,1.51c1.21,5.29,5.47,11.54,8.5,14.39l-5.17-3.09l-2.91-5.97L142,45.28L142,45.28z
			"/>
		<path class="st95" d="M146.78,50.82l119.3,63.6c15.41,6.48,35.62,12.08,51.35,9.48c0.36-9.64-13.48-22.72-21.31-27.45
			L176.36,33.94C161.45,26.16,129.93,41.34,146.78,50.82z"/>
		<path class="st95" d="M147.71,50.28c39.96,21.19,79.91,42.39,119.88,63.57c13.32,5.61,28.47,10.01,42.46,9.35
			c2.32-0.03,4.4-0.22,6.13-0.64c0.33-5.42-6.18-14.4-12.13-20.06c-0.51-0.48-1.54-0.3-2.3-0.43c-2.49-2.2-4.84-3.88-6.57-4.66
			L175.32,34.53C161.95,27.52,132.11,41.47,147.71,50.28z"/>
		<path class="st95" d="M147.71,50.28l119.76,63.5l0.31,0.14c10.84,5.26,34.09,11.11,46.25,8.82c-0.18-8.22-12.41-20.79-19.77-24.6
			l-117.32-62.2c-12.97-6.55-34.15,2.5-32.75,9.73C144.42,46.84,145.96,49.35,147.71,50.28z"/>
		<path class="st95" d="M275.31,117.04l4.51-0.72c13.15,3.69,23.05,5.8,36.18,4.03l1.47,0.9l-0.04,1.99
			c-9.97,2.89-31.74-0.71-43.07-5.66L275.31,117.04z"/>
		<path class="st95" d="M274.25,117.59c1.45-0.18,2.9-0.37,4.34-0.55c13.15,3.77,25.62,6.3,38.88,4.21l-0.04,2.64
			C306.97,126.87,285.36,122.97,274.25,117.59z"/>
		<path class="st95" d="M305.5,101.7c6.65,6.73,11.28,14.89,11.97,19.56c-0.66,0.08-0.81-0.98-1.47-0.9
			c-2.68-7.54-7.4-12.99-11.91-17.85C304.56,102.24,305.03,101.97,305.5,101.7z"/>
		<polygon class="st95" points="304.09,102.5 301.72,102.05 302.84,101.42 305.5,101.7 		"/>
		<polygon class="st95" points="275.31,117.04 274.3,117.62 278.6,117.04 279.74,116.33 		"/>
		<g>
			<path class="st95" d="M304.37,112.07l-10.49,6.28l-0.2,0.62c3.51,1.28,13.33,2.46,17.55,1.49l0.2-0.62
				C310.93,117,306.47,113.07,304.37,112.07z"/>
			<path class="st95" d="M304.57,111.45l-10.69,6.9c3.51,1.28,13.33,2.46,17.55,1.49C311.37,117,306.8,112.51,304.57,111.45z"/>
		</g>
		<g>
			<polygon class="st95" points="145.92,41.23 145.92,45.06 144.72,44.29 144.72,40.46 			"/>
			<polygon class="st95" points="145.91,45.06 147.71,44.18 147.71,40.35 145.91,41.23 			"/>
			<polygon class="st95" points="147.71,40.35 145.91,41.23 144.71,40.46 146.51,39.58 			"/>
			<polygon class="st95" points="146.01,36.4 146.01,40.95 145.21,40.43 145.21,35.88 			"/>
			<polygon class="st95" points="146.01,36.46 146.01,39.11 145.21,37.75 145.21,35.91 			"/>
			<polygon class="st95" points="146.01,40.95 147.21,40.36 147.21,35.81 146.01,36.4 			"/>
			<g>
				<polygon class="st95" points="144.5,36.98 144.5,38.31 157.54,31.11 157.54,30.46 147.49,34.93 				"/>
				<polygon class="st95" points="144.5,38.31 143.61,37.75 143.61,36.42 144.5,36.98 				"/>
				<polygon class="st95" points="143.61,36.42 144.5,36.98 147.45,34.96 157.55,30.47 156.65,29.91 146.57,34.4 				"/>
			</g>
		</g>
		<path class="st95" d="M186.91,27.62l3.65,2.11l10.71-6.05l-3.68-1.87C190.08,26.12,192.43,24.84,186.91,27.62z"/>
		<polygon class="st95" points="193.41,34.19 190.31,29.97 201.26,23.68 201.3,27.09 		"/>
		<polygon class="st95" points="172.19,28.81 172.22,28.57 182.45,34.48 180.87,38.6 170,32.17 		"/>
		<path class="st95" d="M150.44,31.1l18.93,10.62l26.49-14.9l-18.98-10.6C166.32,22.28,158.22,27.18,150.44,31.1z"/>
		<polygon class="st95" points="168.17,62.07 169.39,41.72 195.87,26.82 198.21,45.13 197.07,45.73 197.11,46.51 169.75,61.97 
			169.05,61.6 		"/>
		<path class="st95" d="M150.41,31.44l0.04-0.34l18.93,10.63c-0.37,6.71-0.8,13.6-1.21,20.35l-19.95-10.49L150.41,31.44z"/>
		<g>
			<path class="st95" d="M173.24,42.45l-0.76,0.44c-0.2,0.11-0.36,0.36-0.36,0.54v2.75c0,0.18,0.16,0.24,0.36,0.13l0.76-0.44
				c0.2-0.11,0.36-0.36,0.36-0.54v-2.75C173.6,42.4,173.43,42.34,173.24,42.45z"/>
			<path class="st95" d="M175.76,40.99L175,41.43c-0.2,0.11-0.36,0.36-0.36,0.54v2.75c0,0.18,0.16,0.24,0.36,0.13l0.76-0.44
				c0.2-0.11,0.36-0.36,0.36-0.54v-2.75C176.12,40.94,175.96,40.88,175.76,40.99z"/>
			<path class="st95" d="M178.28,39.53l-0.76,0.44c-0.2,0.11-0.36,0.36-0.36,0.54v2.75c0,0.19,0.16,0.24,0.36,0.13l0.76-0.44
				c0.2-0.11,0.36-0.36,0.36-0.54v-2.75C178.64,39.47,178.48,39.42,178.28,39.53z"/>
			<path class="st95" d="M180.8,38.07l-0.76,0.44c-0.2,0.11-0.36,0.36-0.36,0.54v2.75c0,0.18,0.16,0.24,0.36,0.13l0.76-0.44
				c0.2-0.11,0.36-0.36,0.36-0.54V38.2C181.16,38.01,181,37.96,180.8,38.07z"/>
			<path class="st95" d="M183.33,36.61l-0.76,0.44c-0.2,0.11-0.36,0.36-0.36,0.54v2.75c0,0.18,0.16,0.24,0.36,0.13l0.76-0.44
				c0.2-0.11,0.36-0.36,0.36-0.54v-2.75C183.69,36.55,183.52,36.5,183.33,36.61z"/>
			<path class="st95" d="M185.85,35.15l-0.76,0.44c-0.2,0.11-0.36,0.36-0.36,0.54v2.75c0,0.19,0.16,0.24,0.36,0.13l0.76-0.44
				c0.2-0.11,0.36-0.36,0.36-0.54v-2.75C186.21,35.09,186.05,35.03,185.85,35.15z"/>
			<path class="st95" d="M188.37,33.69l-0.76,0.44c-0.2,0.11-0.36,0.36-0.36,0.54v2.75c0,0.18,0.16,0.24,0.36,0.13l0.76-0.44
				c0.2-0.11,0.36-0.36,0.36-0.54v-2.75C188.73,33.63,188.57,33.57,188.37,33.69z"/>
			<path class="st95" d="M190.89,32.23l-0.76,0.44c-0.2,0.11-0.36,0.36-0.36,0.54v2.75c0,0.18,0.16,0.24,0.36,0.13l0.76-0.44
				c0.2-0.11,0.36-0.36,0.36-0.54v-2.75C191.25,32.17,191.09,32.11,190.89,32.23z"/>
			<path class="st95" d="M193.41,30.77l-0.76,0.44c-0.2,0.11-0.36,0.36-0.36,0.54v2.75c0,0.18,0.16,0.24,0.36,0.13l0.76-0.44
				c0.2-0.11,0.36-0.36,0.36-0.54v-2.75C193.77,30.71,193.61,30.65,193.41,30.77z"/>
		</g>
		<g>
			<path class="st95" d="M173.24,48.73l-0.76,0.43c-0.2,0.11-0.36,0.36-0.36,0.54v2.75c0,0.18,0.16,0.24,0.36,0.13l0.76-0.43
				c0.2-0.11,0.36-0.36,0.36-0.54v-2.75C173.6,48.68,173.43,48.62,173.24,48.73z"/>
			<path class="st95" d="M175.76,47.29L175,47.72c-0.2,0.11-0.36,0.36-0.36,0.54v2.75c0,0.18,0.16,0.24,0.36,0.13l0.76-0.43
				c0.2-0.11,0.36-0.36,0.36-0.54v-2.75C176.12,47.23,175.96,47.17,175.76,47.29z"/>
			<path class="st95" d="M178.28,45.84l-0.76,0.43c-0.2,0.11-0.36,0.36-0.36,0.54v2.75c0,0.19,0.16,0.24,0.36,0.13l0.76-0.43
				c0.2-0.11,0.36-0.36,0.36-0.54v-2.75C178.64,45.79,178.48,45.73,178.28,45.84z"/>
			<path class="st95" d="M180.8,44.4l-0.76,0.43c-0.2,0.11-0.36,0.36-0.36,0.54v2.75c0,0.18,0.16,0.24,0.36,0.13l0.76-0.43
				c0.2-0.11,0.36-0.36,0.36-0.54v-2.75C181.16,44.34,181,44.29,180.8,44.4z"/>
			<path class="st95" d="M183.33,42.96l-0.76,0.43c-0.2,0.11-0.36,0.36-0.36,0.54v2.75c0,0.18,0.16,0.24,0.36,0.13l0.76-0.43
				c0.2-0.11,0.36-0.36,0.36-0.54v-2.75C183.69,42.9,183.52,42.84,183.33,42.96z"/>
			<path class="st95" d="M185.85,41.51l-0.76,0.43c-0.2,0.11-0.36,0.36-0.36,0.54v2.75c0,0.18,0.16,0.24,0.36,0.13l0.76-0.43
				c0.2-0.11,0.36-0.36,0.36-0.54v-2.75C186.21,41.46,186.05,41.4,185.85,41.51z"/>
			<path class="st95" d="M188.37,40.07l-0.76,0.43c-0.2,0.11-0.36,0.36-0.36,0.54v2.75c0,0.18,0.16,0.24,0.36,0.13l0.76-0.43
				c0.2-0.11,0.36-0.36,0.36-0.54V40.2C188.73,40.01,188.57,39.95,188.37,40.07z"/>
			<path class="st95" d="M190.89,38.62l-0.76,0.43c-0.2,0.11-0.36,0.36-0.36,0.54v2.75c0,0.18,0.16,0.24,0.36,0.13l0.76-0.43
				c0.2-0.11,0.36-0.36,0.36-0.54v-2.75C191.25,38.57,191.09,38.51,190.89,38.62z"/>
			<path class="st95" d="M193.41,37.18l-0.76,0.43c-0.2,0.11-0.36,0.36-0.36,0.54v2.75c0,0.18,0.16,0.24,0.36,0.13l0.76-0.43
				c0.2-0.11,0.36-0.36,0.36-0.54v-2.75C193.77,37.13,193.61,37.07,193.41,37.18z"/>
		</g>
		<g>
			<path class="st95" d="M163.39,46.91l0.76,0.44c0.2,0.11,0.36,0.36,0.36,0.54v2.75c0,0.18-0.16,0.24-0.36,0.13l-0.76-0.44
				c-0.2-0.11-0.36-0.36-0.36-0.54v-2.75C163.03,46.86,163.2,46.8,163.39,46.91z"/>
			<path class="st95" d="M160.87,45.45l0.76,0.44c0.2,0.11,0.36,0.36,0.36,0.54v2.75c0,0.19-0.16,0.24-0.36,0.13l-0.76-0.44
				c-0.2-0.11-0.36-0.36-0.36-0.54v-2.75C160.51,45.4,160.67,45.34,160.87,45.45z"/>
		</g>
		<g>
			<path class="st95" d="M164.91,54.52l0.76,0.44c0.2,0.11,0.36,0.36,0.36,0.54v2.75c0,0.19-0.16,0.24-0.36,0.13l-0.76-0.44
				c-0.2-0.11-0.36-0.36-0.36-0.54v-2.75C164.55,54.46,164.71,54.4,164.91,54.52z"/>
			<path class="st95" d="M159.87,51.6l0.76,0.44c0.2,0.11,0.36,0.36,0.36,0.54v2.75c0,0.18-0.16,0.24-0.36,0.13l-0.76-0.44
				c-0.2-0.11-0.36-0.36-0.36-0.54v-2.75C159.51,51.54,159.67,51.48,159.87,51.6z"/>
			<path class="st95" d="M157.34,50.13l0.76,0.44c0.2,0.11,0.36,0.36,0.36,0.54v2.75c0,0.19-0.16,0.24-0.36,0.13l-0.76-0.44
				c-0.2-0.11-0.36-0.36-0.36-0.54v-2.75C156.98,50.08,157.14,50.02,157.34,50.13z"/>
		</g>
		<g>
			<path class="st95" d="M159.87,51.59l0.76,0.44c0.2,0.11,0.36,0.36,0.36,0.54v2.75c0,0.18-0.16,0.24-0.36,0.13l-0.76-0.44
				c-0.2-0.11-0.36-0.36-0.36-0.54v-2.75C159.51,51.54,159.67,51.48,159.87,51.59z"/>
			<path class="st95" d="M154.82,48.67l0.76,0.44c0.2,0.11,0.36,0.36,0.36,0.54v2.75c0,0.18-0.16,0.24-0.36,0.13l-0.76-0.44
				c-0.2-0.11-0.36-0.36-0.36-0.54V48.8C154.46,48.62,154.62,48.56,154.82,48.67z"/>
			<path class="st95" d="M152.3,47.21l0.76,0.44c0.2,0.11,0.36,0.36,0.36,0.54v2.75c0,0.18-0.16,0.24-0.36,0.13l-0.76-0.44
				c-0.2-0.11-0.36-0.36-0.36-0.54v-2.75C151.94,47.16,152.1,47.1,152.3,47.21z"/>
		</g>
		<g>
			<path class="st95" d="M158.08,36.47l0.76,0.44c0.2,0.11,0.36,0.36,0.36,0.54v2.75c0,0.18-0.16,0.24-0.36,0.13l-0.76-0.44
				c-0.2-0.11-0.36-0.36-0.36-0.54V36.6C157.72,36.41,157.88,36.36,158.08,36.47z"/>
			<path class="st95" d="M153.03,33.55l0.76,0.44c0.2,0.11,0.36,0.36,0.36,0.54v2.75c0,0.18-0.16,0.24-0.36,0.13l-0.76-0.44
				c-0.2-0.11-0.36-0.36-0.36-0.54v-2.75C152.67,33.49,152.84,33.43,153.03,33.55z"/>
		</g>
		<path class="st95" d="M165.02,12.75l7.25,1.51l3.49,9.29c-0.77,3.03-5.34,4.02-7.78-0.15L165.02,12.75z"/>
		<path class="st95" d="M166.22,13.01l6.05,1.26l3.49,9.29c-0.61,2.42-3.67,3.55-6.11,1.76L166.22,13.01z"/>
		<path class="st95" d="M165.02,12.75l7.25,1.51l1.44,3.83c0.2,1.22-1.09,1.87-3.07,1.46c-1.9-0.4-3.8-1.64-4.54-2.91L165.02,12.75z
			"/>
		<path class="st95" d="M166.22,13.01l6.05,1.26l1.44,3.83c0.2,1.22-1.09,1.87-3.07,1.46c-1.05-0.22-2.1-0.7-2.95-1.29L166.22,13.01
			z"/>
		<path class="st95" d="M167.82,11.1c2,0.42,4,1.84,4.45,3.17c0.45,1.33-0.8,2.07-2.8,1.65c-2-0.42-4-1.84-4.45-3.17
			C164.56,11.42,165.82,10.69,167.82,11.1z"/>
		<path class="st95" d="M168.01,11.65c1.55,0.32,3.09,1.42,3.45,2.45c0.35,1.03-0.62,1.6-2.17,1.28c-1.55-0.32-3.09-1.42-3.45-2.45
			C165.48,11.9,166.45,11.32,168.01,11.65z"/>
		<g>
			<path class="st95" d="M159.21,15.76l7.25,1.51l3.49,9.29c-0.77,3.03-5.34,4.02-7.78-0.15L159.21,15.76z"/>
			<path class="st95" d="M160.42,16.01l6.05,1.26l3.49,9.29c-0.61,2.42-3.67,3.55-6.11,1.76L160.42,16.01z"/>
			<path class="st95" d="M159.21,15.76l7.25,1.51l1.44,3.83c0.2,1.22-1.09,1.87-3.07,1.46c-1.9-0.4-3.8-1.64-4.54-2.91L159.21,15.76
				z"/>
			<path class="st95" d="M160.42,16.01l6.05,1.26l1.44,3.83c0.2,1.22-1.09,1.87-3.07,1.46c-1.05-0.22-2.1-0.7-2.95-1.29
				L160.42,16.01z"/>
			<path class="st95" d="M162.01,14.11c2,0.42,4,1.84,4.45,3.17c0.45,1.33-0.8,2.07-2.8,1.65c-2-0.42-4-1.84-4.45-3.17
				C158.76,14.43,160.01,13.69,162.01,14.11z"/>
			<path class="st95" d="M162.2,14.66c1.55,0.32,3.09,1.42,3.45,2.45c0.35,1.03-0.62,1.6-2.17,1.28c-1.55-0.32-3.09-1.42-3.45-2.45
				C159.68,14.9,160.65,14.33,162.2,14.66z"/>
		</g>
		<path class="st95" d="M162.36,27.84l10.24,5.91l18.81-10.8l-10.27-5.67C173.63,21.58,167.88,25.06,162.36,27.84z"/>
		<polygon class="st95" points="171.58,40.48 172.6,33.75 191.41,22.95 193.07,28.55 		"/>
		<polygon class="st95" points="162.34,28.08 162.36,27.84 172.6,33.75 171.58,40.48 160.87,34.16 		"/>
		<path class="st95" d="M174.08,27.14l2.04,1.23c2.51-0.39,4.1-1.3,4.76-2.74L179,15.14l-1.15-0.69l-2.68,1.54L174.08,27.14z"/>
		<path class="st95" d="M179.23,16.43L179,15.14l-1.15-0.69l-2.68,1.54l-0.11,1.12l1.24,0.76
			C177.83,17.62,178.68,17.22,179.23,16.43z"/>
		<path class="st95" d="M175.17,15.99l1.15,0.69c1.41-0.22,2.31-0.73,2.68-1.54l-1.15-0.69L175.17,15.99z"/>
		<path class="st95" d="M176.71,12.07L176.71,12.07l0.02,0.03l0,0.01l0.03,0.03l0.02,0.02l0.03,0.01l0.07,0.03l0.03,0.01l0.04,0.01
			l0.04,0l0.01,0l0.05,0h0.01l0.06,0l0.01,0l0.05-0.01l0.01,0l0.05-0.02l0.01,0l0.05-0.03c0.07-0.04,0.11-0.09,0.11-0.14l0.03,3.56
			c0,0.05-0.03,0.1-0.11,0.15l-0.05,0.02l0,0l-0.01,0l-0.03,0.01l-0.02,0l-0.01,0h-0.01l-0.04,0.01h-0.01h-0.01l-0.01,0l-0.03,0
			h-0.01h-0.01h-0.01l-0.04,0l0,0h-0.01l-0.03-0.01h-0.01l-0.04-0.01l-0.02,0l-0.01,0c-0.02-0.01-0.04-0.02-0.07-0.03l0-0.01
			l-0.02-0.01l-0.03-0.02l0,0l-0.02-0.02v-0.01l-0.01,0l-0.01-0.01l-0.01-0.02v0l0-0.01l0-0.01V15.6l-0.03-3.56v0L176.71,12.07z"/>
		<path class="st95" d="M177.12,12.23L177.12,12.23l0.06-0.01l0.01,0l0.05-0.02l0.01,0l0.05-0.03c0.07-0.04,0.11-0.09,0.11-0.14
			l0.03,3.56c0,0.05-0.03,0.1-0.11,0.15l-0.05,0.02l0,0l-0.01,0l-0.03,0.01l-0.02,0l-0.01,0h-0.01l-0.04,0.01h-0.01h-0.01l-0.01,0
			l-0.03,0v-3.57H177.12z"/>
		<path class="st95" d="M178.73,10.92c0,0.93-0.75,1.69-1.67,1.69c-0.92,0-1.67-0.75-1.67-1.69c0-0.93,0.75-1.69,1.67-1.69
			C177.99,9.23,178.73,9.99,178.73,10.92z"/>
		<polygon class="st95" points="176.31,16.68 176.12,28.37 174.08,27.14 175.17,15.99 		"/>
		<polygon class="st95" points="176.31,16.68 176.29,17.87 176.29,17.87 175.06,17.11 175.17,15.99 		"/>
		<polygon class="st95" points="159.74,43.01 163.39,45.11 169.45,41.7 165.9,39.77 		"/>
		<polygon class="st95" points="163.4,48.52 163.37,45.1 171.59,40.48 171.47,45.52 		"/>
		<polygon class="st95" points="163.39,45.11 163.4,48.52 159.74,46.45 159.74,43.01 		"/>
		<g>
			<path class="st95" d="M157.63,43.75l0.76,0.44c0.2,0.11,0.36,0.36,0.36,0.54v2.75c0,0.18-0.16,0.24-0.36,0.13l-0.76-0.44
				c-0.2-0.11-0.36-0.36-0.36-0.54v-2.75C157.27,43.69,157.43,43.64,157.63,43.75z"/>
			<path class="st95" d="M155.11,42.29l0.76,0.44c0.2,0.11,0.36,0.36,0.36,0.54v2.75c0,0.18-0.16,0.24-0.36,0.13l-0.76-0.44
				c-0.2-0.11-0.36-0.36-0.36-0.54v-2.75C154.75,42.23,154.91,42.17,155.11,42.29z"/>
		</g>
		<polygon class="st95" points="173.55,39.44 173.65,34.73 190.81,24.81 190.83,29.5 		"/>
		<g>
			<g>
				<path class="st96" d="M178.72,36.58L178.72,36.58c0.06,0,0.12-0.05,0.11-0.11l0-4.79c0-0.06-0.05-0.11-0.11-0.11l0,0
					c-0.06,0-0.12,0.05-0.11,0.11l0,4.79C178.6,36.53,178.65,36.58,178.72,36.58z"/>
			</g>
			<g>
				<path class="st96" d="M181.22,35.18L181.22,35.18c0.06,0,0.12-0.05,0.11-0.11l0-4.69c0-0.06-0.05-0.11-0.11-0.11l0,0
					c-0.06,0-0.12,0.05-0.11,0.11l0,4.69C181.1,35.12,181.15,35.18,181.22,35.18z"/>
			</g>
			<g>
				<path class="st96" d="M176.22,38.11L176.22,38.11c0.06,0,0.12-0.05,0.11-0.11l0-4.79c0-0.06-0.05-0.11-0.11-0.11l0,0
					c-0.06,0-0.12,0.05-0.11,0.11l0,4.79C176.11,38.06,176.16,38.11,176.22,38.11z"/>
			</g>
			<g>
				<path class="st96" d="M183.71,33.73L183.71,33.73c0.06,0,0.12-0.05,0.11-0.11l0-4.98c0-0.06-0.05-0.11-0.11-0.11l0,0
					c-0.06,0-0.12,0.05-0.11,0.11l0,4.98C183.6,33.68,183.65,33.73,183.71,33.73z"/>
			</g>
			<g>
				<path class="st96" d="M186.21,32.25L186.21,32.25c0.06,0,0.12-0.05,0.11-0.11l0-4.87c0-0.06-0.05-0.11-0.11-0.11l0,0
					c-0.06,0-0.12,0.05-0.11,0.11l0,4.87C186.09,32.2,186.14,32.25,186.21,32.25z"/>
			</g>
			<g>
				<path class="st96" d="M188.7,30.84L188.7,30.84c0.06,0,0.12-0.05,0.11-0.11l0-4.89c0-0.06-0.05-0.11-0.11-0.11l0,0
					c-0.06,0-0.12,0.05-0.11,0.11l0,4.89C188.59,30.78,188.64,30.84,188.7,30.84z"/>
			</g>
		</g>
		<g>
			<polygon class="st95" points="194.57,72.23 216.13,59.27 216.13,57.67 194.57,70.63 			"/>
			<polygon class="st95" points="194.57,72.23 173.01,60.54 173.01,58.95 194.57,70.63 			"/>
			<polygon class="st95" points="216.13,57.67 194.57,70.63 173.02,58.95 194.61,46.04 			"/>
		</g>
		<g>
			<polygon class="st95" points="217.01,84.36 238.56,71.4 238.56,69.81 217.01,82.76 			"/>
			<polygon class="st95" points="217.01,84.36 195.45,72.68 195.45,71.08 217.01,82.76 			"/>
			<polygon class="st95" points="238.56,69.81 217.01,82.76 195.45,71.08 217.05,58.17 			"/>
		</g>
		<g>
			<polygon class="st95" points="239.44,96.49 261,83.54 261,81.94 239.44,94.89 			"/>
			<polygon class="st95" points="239.44,96.49 217.89,84.81 217.89,83.21 239.44,94.89 			"/>
			<polygon class="st95" points="261,81.94 239.44,94.89 217.89,83.21 239.49,70.3 			"/>
		</g>
		<g>
			<polygon class="st95" points="261.88,108.62 283.44,95.67 283.44,94.07 261.88,107.03 			"/>
			<polygon class="st95" points="261.88,108.62 240.32,96.94 240.32,95.34 261.88,107.03 			"/>
			<polygon class="st95" points="283.44,94.07 261.88,107.03 240.32,95.34 261.92,82.43 			"/>
		</g>
		<polygon class="st95" points="288.46,118.36 303.57,109.13 303.57,107.53 288.46,116.76 		"/>
		<polygon class="st95" points="288.46,118.36 262.76,109.07 262.76,107.47 288.46,116.76 		"/>
		<polygon class="st95" points="303.57,107.53 288.46,116.76 262.76,107.47 284.36,94.57 		"/>
		<g>
			<path class="st95" d="M305.28,112.66c-0.26,0.15-0.26,0.39,0,0.53c0.25,0.15,0.66,0.15,0.91,0c0.25-0.15,0.25-0.39,0-0.53
				C305.94,112.51,305.54,112.51,305.28,112.66z"/>
			<path class="st95" d="M304.89,117.39l0.01,0.03l0,0.02l0.01,0.02l0.01,0.02l0.01,0.03l0.01,0.02l0.02,0.03l0.02,0.02l0.04,0.04
				l0.01,0.01l0.02,0.02l0.02,0.02l0.03,0.02l0.03,0.02c0.02,0.02,0.05,0.03,0.08,0.04l0.02,0.01c0.02,0.01,0.04,0.02,0.07,0.03
				l0.03,0.01l0.04,0.01l0.04,0.01l0.04,0.01l0.03,0.01c0.04,0.01,0.07,0.01,0.1,0.01l0.03,0l0.05,0l0.04,0h0.05h0.04l0.04,0l0.04,0
				l0.04-0.01l0.04-0.01l0.05-0.01l0.03-0.01l0.06-0.01l0.03-0.01c0.03-0.01,0.06-0.02,0.09-0.03l0.04-0.02l0.02-0.01
				c0.02-0.01,0.04-0.02,0.06-0.04c0.16-0.09,0.25-0.23,0.25-0.35v0.28c0,0.12-0.08,0.26-0.25,0.35c-0.02,0.01-0.04,0.02-0.06,0.03
				l-0.03,0.01l-0.03,0.02l0,0c-0.03,0.01-0.06,0.02-0.09,0.03l-0.01,0l-0.02,0l-0.05,0.01l-0.02,0l-0.02,0l-0.05,0.01l-0.02,0
				l-0.02,0l-0.04,0h-0.02h-0.02l-0.05,0.01h-0.02h-0.02h-0.05h-0.02h-0.02c-0.02,0-0.04-0.01-0.06-0.01h-0.02l-0.01,0
				c-0.03,0-0.07-0.01-0.1-0.01h0l-0.03-0.01l-0.04-0.01l-0.04-0.01l-0.04-0.01l-0.01,0l-0.02-0.01c-0.02-0.01-0.05-0.02-0.07-0.02
				l-0.02-0.01c-0.03-0.01-0.05-0.03-0.08-0.04l-0.01,0l-0.02-0.02l-0.03-0.02l-0.02-0.02l-0.03-0.02l-0.01,0l-0.01-0.01l-0.03-0.04
				l-0.01-0.01l-0.01-0.01l-0.02-0.03l-0.01-0.01l0-0.01l-0.01-0.03l-0.01-0.01l0-0.01l-0.01-0.03l-0.01-0.02v0l0-0.03l0-0.02v-0.01
				v-0.27V117.39z"/>
			<path class="st95" d="M305.14,117.01c-0.34,0.19-0.34,0.51,0,0.7c0.33,0.2,0.86,0.19,1.2,0c0.33-0.19,0.33-0.51,0-0.7
				C306.01,116.82,305.47,116.82,305.14,117.01z"/>
			<path class="st95" d="M305.08,112.92v0.02l0.01,0.02l0.01,0.02l0.01,0.01l0.01,0.02l0.01,0.01l0.02,0.02l0.01,0.01l0.02,0.03
				l0.02,0.01l0.02,0.02l0.02,0.01l0.02,0.02l0.03,0.02c0.03,0.01,0.06,0.03,0.09,0.04l0.02,0.01c0.03,0.01,0.06,0.02,0.1,0.03
				l0.01,0c0.03,0.01,0.06,0.01,0.1,0.02l0.02,0c0.04,0,0.07,0.01,0.11,0.01h0.02c0.04,0,0.07,0,0.11,0l0.02,0
				c0.03-0.01,0.07-0.01,0.1-0.02l0.02,0c0.03-0.01,0.06-0.02,0.09-0.03l0.01,0c0.04-0.02,0.07-0.03,0.1-0.05
				c0.13-0.08,0.19-0.18,0.19-0.28l0.01,4.39c0,0.1-0.06,0.2-0.19,0.27c-0.03,0.02-0.06,0.03-0.09,0.05l0,0l-0.02,0.01l-0.06,0.02
				l-0.03,0.01l-0.02,0l-0.01,0c-0.02,0-0.04,0.01-0.07,0.01l-0.02,0l-0.02,0l-0.02,0c-0.02,0-0.04,0-0.06,0h-0.02h-0.02l-0.03,0
				c-0.02,0-0.05,0-0.07,0h-0.01l-0.02,0l-0.06-0.01l-0.04-0.01l-0.01,0c-0.02-0.01-0.05-0.02-0.07-0.02l-0.02-0.01l-0.03-0.01
				c-0.03-0.01-0.06-0.03-0.09-0.04l-0.01,0l-0.01-0.01l-0.03-0.02l-0.02-0.01l-0.02-0.02l-0.01,0l-0.01-0.01l-0.03-0.03l-0.01,0
				l0-0.01l-0.02-0.02l0-0.01l0,0l-0.01-0.02l-0.01-0.01v-0.01l-0.01-0.02l0-0.01v-0.01v-0.02l-0.01-0.01v0l-0.01-4.39V112.92z"/>
			<path class="st95" d="M305.99,113.25c0.03-0.01,0.06-0.02,0.09-0.03l0.01,0c0.04-0.02,0.07-0.03,0.1-0.05
				c0.13-0.08,0.19-0.18,0.19-0.28l0.01,4.39c0,0.1-0.06,0.2-0.19,0.27c-0.03,0.02-0.06,0.03-0.09,0.05l0,0l-0.02,0.01l-0.06,0.02
				l-0.03,0.01l-0.02,0l-0.01,0l-0.01,0v-4.39l0.02,0L305.99,113.25z"/>
			<path class="st95" d="M305.42,108.97L305.42,108.97l0.01,0.03l0,0.01l0.03,0.02l0.02,0.02l0.02,0.01l0.06,0.03l0.02,0.01
				l0.03,0.01l0.03,0l0.01,0l0.05,0h0.01l0.05,0l0.01,0l0.05-0.01l0.01,0l0.04-0.01l0.01,0l0.04-0.02c0.06-0.03,0.09-0.08,0.09-0.12
				l0.03,3.92c0,0.04-0.03,0.09-0.09,0.13l-0.04,0.02h0l-0.01,0l-0.03,0.01l-0.01,0l-0.01,0h-0.01l-0.03,0.01h-0.01h-0.01l-0.01,0
				l-0.03,0h-0.01h-0.01h-0.01l-0.04,0l0,0h-0.01l-0.02-0.01h-0.01l-0.03-0.01l-0.01,0l-0.01,0c-0.02-0.01-0.04-0.02-0.06-0.03l0,0
				l-0.01-0.01l-0.02-0.01l0,0l-0.02-0.02v-0.01l0,0l-0.01-0.01l-0.01-0.02v0l0,0l0-0.01v-0.02l-0.03-3.92v0L305.42,108.97z"/>
			<path class="st95" d="M305.77,109.11L305.77,109.11l0.05-0.01l0.01,0l0.04-0.01l0.01,0l0.04-0.02c0.06-0.03,0.09-0.08,0.09-0.12
				l0.03,3.92c0,0.04-0.03,0.09-0.09,0.13l-0.04,0.02h0l-0.01,0l-0.03,0.01l-0.01,0l-0.01,0h-0.01l-0.03,0.01h-0.01h-0.01l-0.01,0
				l-0.03,0v-3.92H305.77z"/>
			<path class="st95" d="M303.16,118.44l1.75,1.05c2.15-0.33,3.52-1.11,4.09-2.35l-1.62-9.01l-0.98-0.59l-2.3,1.32L303.16,118.44z"
				/>
			<path class="st95" d="M307.58,109.25l-0.2-1.11l-0.98-0.59l-2.3,1.32l-0.09,0.96l1.06,0.65
				C306.38,110.26,307.11,109.92,307.58,109.25z"/>
			<path class="st95" d="M304.1,108.87l0.98,0.59c1.21-0.19,1.98-0.63,2.3-1.32l-0.98-0.59L304.1,108.87z"/>
			<path class="st95" d="M305.42,101.6L305.42,101.6l0.01,0.03l0,0.01l0.03,0.02l0.02,0.02l0.02,0.01l0.06,0.03l0.02,0.01l0.03,0.01
				l0.03,0l0.01,0l0.05,0h0.01l0.05,0l0.01,0l0.05-0.01l0.01,0l0.04-0.01l0.01,0l0.04-0.02c0.06-0.03,0.09-0.08,0.09-0.12l0.03,6.96
				c0,0.04-0.03,0.09-0.09,0.13l-0.04,0.02h0l-0.01,0l-0.03,0.01l-0.01,0l-0.01,0h-0.01l-0.03,0.01h-0.01h-0.01l-0.01,0l-0.03,0
				h-0.01h-0.01h-0.01l-0.04,0l0,0h-0.01l-0.02-0.01h-0.01l-0.03-0.01l-0.01,0l-0.01,0c-0.02-0.01-0.04-0.02-0.06-0.03l0,0
				l-0.01-0.01l-0.02-0.01l0,0l-0.02-0.02v-0.01l0,0l-0.01-0.01l-0.01-0.02v0l0,0l0-0.01v-0.02l-0.03-6.96v0L305.42,101.6z"/>
			<path class="st95" d="M305.77,101.74L305.77,101.74l0.05-0.01l0.01,0l0.04-0.01l0.01,0l0.04-0.02c0.06-0.03,0.09-0.08,0.09-0.12
				l0.03,6.96c0,0.04-0.03,0.09-0.09,0.13l-0.04,0.02h0l-0.01,0l-0.03,0.01l-0.01,0l-0.01,0h-0.01l-0.03,0.01h-0.01h-0.01l-0.01,0
				l-0.03,0v-6.97L305.77,101.74z"/>
			<g>
				<path class="st95" d="M306.73,100.95c0,0.56-0.45,1.02-1.01,1.02c-0.56,0-1.01-0.46-1.01-1.02c0-0.56,0.45-1.02,1.01-1.02
					C306.28,99.93,306.73,100.39,306.73,100.95z"/>
				<path class="st95" d="M305.59,101.58c0.47,0,0.85-0.38,0.85-0.86c0-0.32-0.18-0.61-0.44-0.75c-0.09-0.02-0.18-0.04-0.27-0.04
					c-0.47,0-0.86,0.32-0.97,0.76l0,0.03C304.75,101.2,305.13,101.58,305.59,101.58z"/>
				<path class="st95" d="M305.72,100.55c0,0.16-0.13,0.29-0.29,0.29c-0.16,0-0.29-0.13-0.29-0.29c0-0.16,0.13-0.29,0.29-0.29
					C305.6,100.26,305.72,100.39,305.72,100.55z"/>
			</g>
			<polygon class="st95" points="305.08,109.46 304.91,119.5 303.16,118.44 304.1,108.87 			"/>
			<polygon class="st95" points="305.08,109.46 305.06,110.48 305.06,110.48 304,109.83 304.1,108.87 			"/>
		</g>
		<polygon class="st95" points="296.16,112.05 297.45,111.28 297.45,110.53 296.16,111.3 		"/>
		<polygon class="st95" points="296.16,112.05 184.21,52.31 184.21,51.56 296.16,111.3 		"/>
		<polygon class="st95" points="297.45,110.53 296.16,111.3 184.21,51.56 185.54,50.83 		"/>
	</g>
</g>
<g id="SERVICIOS-terminal">
</g>
<g id="SERVICIO-lab">
</g>
<g id="SERV-transp-terrestre">
</g>
<g id="SERV-opera-solidos">
</g>
<g id="COMEX">
</g>
<g id="CONTACTO">
</g>
<g id="COMPROMISO">
</g>
<g id="Capa_19" class="st0">
</g>
<g id="TERMINAL">
</g>
<g id="servicios3">
</g>
<g id="servicios2">
</g>
<g id="servicios1">
</g>
<g id="Capa_10">
</g>
<g id="solapa-servicio">
</g>
<g id="top">
</g>
<g id="esqueletoi">
</g>
<g id="guias">
</g>
</svg>
