<?xml version="1.0" encoding="utf-8"?>
<!-- Generator: Adobe Illustrator 27.9.0, SVG Export Plug-In . SVG Version: 6.00 Build 0)  -->
<svg version="1.1" xmlns="http://www.w3.org/2000/svg" xmlns:xlink="http://www.w3.org/1999/xlink" x="0px" y="0px"
	 viewBox="0 0 92.81 22.55" style="enable-background:new 0 0 92.81 22.55;" xml:space="preserve">
<style type="text/css">
	.st0{fill:#8F8F8F;}
	.st1{fill:#6E6E6E;}
	.st2{fill:#FFFFFF;}
	.st3{clip-path:url(#SVGID_00000058570064819167801750000009602847016042121891_);}
	.st4{fill:#878787;}
	.st5{fill:#4C4C4A;}
	.st6{fill:#858658;}
	.st7{fill:#1BB09D;}
	.st8{fill:#4CABCB;}
	.st9{fill:#737373;}
	.st10{fill:#4FA98B;}
	.st11{fill:#2276BB;}
	.st12{fill:none;stroke:#FFFFFF;stroke-width:0.25;stroke-miterlimit:10;}
	.st13{clip-path:url(#SVGID_00000065041552420110945310000009064075720891359890_);}
	.st14{clip-path:url(#SVGID_00000173156938184185930720000015661189156289365664_);}
	.st15{clip-path:url(#SVGID_00000165934764669135970840000002537917173492701584_);}
	.st16{clip-path:url(#SVGID_00000013888100545124433250000012893937687406081408_);}
	.st17{clip-path:url(#SVGID_00000060002837373229315220000013304336665503169972_);}
	.st18{clip-path:url(#SVGID_00000137831303537164619490000007099637079469513148_);}
	.st19{clip-path:url(#SVGID_00000132069274642039007630000012018402855385979793_);}
	.st20{clip-path:url(#SVGID_00000018947029295053191000000013057944021478319766_);}
	.st21{display:none;fill:#8F8F8F;}
	.st22{clip-path:url(#SVGID_00000098913112868607733420000012209087978370704801_);}
	
		.st23{clip-path:url(#SVGID_00000022541214306135524970000004437487008673654411_);fill:url(#SVGID_00000161605605748837684430000016855382731396146344_);}
	.st24{fill:#003DA6;stroke:#003DA6;stroke-width:0.25;stroke-miterlimit:10;}
	.st25{fill:none;stroke:#003DA6;stroke-width:0.3;stroke-miterlimit:10;}
	.st26{fill:#FFFFFF;stroke:#ABABAB;stroke-width:0.3093;stroke-miterlimit:10;}
	.st27{fill:none;stroke:#003DA6;stroke-width:0.5024;stroke-miterlimit:10;}
	.st28{fill:#FFFFFF;stroke:#003DA6;stroke-width:0.3467;stroke-miterlimit:10;}
	.st29{opacity:0.5;fill:url(#SVGID_00000119811619134793010110000001815349637201759893_);}
	.st30{fill:url(#SVGID_00000010990578245444932590000016349241114503104137_);}
	.st31{fill:#E4F4F9;}
	.st32{fill:#003DA6;}
	.st33{fill:#003DA6;stroke:#FFFFFF;stroke-width:0.2257;stroke-miterlimit:10;}
	.st34{fill:#FFFFFF;stroke:#003DA6;stroke-width:0.2257;stroke-miterlimit:10;}
	.st35{fill:#FFFFFF;stroke:#ABABAB;stroke-width:0.3504;stroke-miterlimit:10;}
	.st36{fill-rule:evenodd;clip-rule:evenodd;fill:#FFFFFF;stroke:#ABABAB;stroke-width:0.4053;stroke-miterlimit:10;}
	.st37{fill:#FFFFFF;stroke:#ABABAB;stroke-width:0.4053;stroke-miterlimit:10;}
	.st38{opacity:0.7;fill:url(#SVGID_00000031904538732523902220000001169790873211646882_);}
	.st39{opacity:0.5;fill:#4C4C4A;}
	.st40{opacity:0.5;fill:#858658;}
	.st41{opacity:0.5;fill:#1BB09D;}
	.st42{opacity:0.5;fill:#4CABCB;}
	.st43{opacity:0.5;fill:#737373;}
	.st44{opacity:0.5;fill:#2276BB;}
	.st45{fill:none;stroke:#003DA6;stroke-width:0.2224;stroke-miterlimit:10;}
	.st46{fill:#FFFFFF;stroke:#003DA6;stroke-width:0.2835;stroke-miterlimit:10;}
	.st47{fill:none;stroke:#003DA6;stroke-width:0.1864;stroke-linecap:round;stroke-miterlimit:1;}
	.st48{fill:#FFFFFF;stroke:#003DA6;stroke-width:0.1;stroke-miterlimit:10;}
	.st49{fill:none;stroke:#003DA6;stroke-width:0.2835;stroke-miterlimit:10;}
	.st50{fill:#575757;}
	.st51{clip-path:url(#SVGID_00000181069114259459840040000018001954723088032149_);}
	.st52{opacity:0.7;fill:url(#SVGID_00000124136255402845156400000000465896290853346226_);}
	.st53{fill:none;stroke:#003DA6;stroke-width:0.25;stroke-miterlimit:10;}
	.st54{fill:#1C3F81;}
	.st55{fill:none;stroke:#949494;stroke-width:0.25;stroke-miterlimit:10;}
	.st56{clip-path:url(#SVGID_00000080178653937980093550000007765022798590646964_);}
	.st57{fill:#43B6A5;}
	.st58{fill:#25745C;}
	.st59{clip-path:url(#SVGID_00000056406067122626462730000003594736593658370456_);}
	.st60{fill:url(#SVGID_00000119101680794881760510000003991400229920178839_);}
	.st61{fill:url(#SVGID_00000171721548178624564690000003120702983372589481_);}
	.st62{fill:none;stroke:#FFFFFF;stroke-width:2;stroke-linecap:round;stroke-miterlimit:10;}
	.st63{clip-path:url(#SVGID_00000105394840403576464710000001817043505497587584_);}
	.st64{fill:#003DA6;stroke:#FFFFFF;stroke-width:0.1346;stroke-miterlimit:10;}
	.st65{fill:#141414;}
	.st66{stroke:#FFFFFF;stroke-width:0.1346;stroke-miterlimit:10;}
	.st67{clip-path:url(#SVGID_00000065063094787718779400000017091578863900518557_);}
	.st68{opacity:0.18;}
	.st69{fill:#089F91;}
	.st70{opacity:0.18;fill:#BADDE9;}
	.st71{fill:#F5F4EF;stroke:#FFFFFF;stroke-width:1.8244;stroke-miterlimit:10;}
	.st72{opacity:0.65;fill:#858658;}
	.st73{fill:#C3DFF5;}
	.st74{opacity:0.63;}
	.st75{fill:#9C9B9B;}
	.st76{fill:#A9A9A9;}
	.st77{fill:#35350B;}
	.st78{fill:none;stroke:#FFFFFF;stroke-width:0.1824;stroke-linecap:round;stroke-linejoin:round;stroke-miterlimit:10;}
	.st79{opacity:0.64;}
	.st80{fill:#F5F4EF;}
	.st81{clip-path:url(#SVGID_00000012439449998525539070000014491523049082993564_);}
	.st82{fill:#F5F4EF;stroke:#FFFFFF;stroke-width:1.2815;stroke-miterlimit:10;}
	.st83{opacity:0.65;}
	.st84{fill:none;stroke:#FFFFFF;stroke-width:0.1281;stroke-linecap:round;stroke-linejoin:round;stroke-miterlimit:10;}
	.st85{fill:#1D1D1B;}
	
		.st86{opacity:0.4;clip-path:url(#SVGID_00000106135607256633433460000015808974241445121944_);fill:url(#SVGID_00000145021682271137334650000012571598884665207463_);}
	.st87{fill:#45CFDA;}
	.st88{clip-path:url(#SVGID_00000082340949399192505490000000541372623150777239_);}
	.st89{clip-path:url(#SVGID_00000084515214539174347120000004815072547064528000_);}
	.st90{fill:#FFFFFF;stroke:#ABABAB;stroke-width:0.4901;stroke-miterlimit:10;}
	.st91{fill:url(#SVGID_00000045612247369292992360000017099684104451879089_);}
	.st92{fill-rule:evenodd;clip-rule:evenodd;fill:#FFFFFF;stroke:#ABABAB;stroke-width:0.2763;stroke-miterlimit:10;}
	.st93{fill:#FFFFFF;stroke:#ABABAB;stroke-width:0.2763;stroke-miterlimit:10;}
	.st94{fill:#0A0A0A;}
	.st95{opacity:0.5;}
	.st96{fill:#565630;}
	.st97{fill:#A2E3F4;}
	.st98{fill:#454545;}
	.st99{fill:none;stroke:#454545;stroke-width:0.5151;stroke-miterlimit:10;}
	.st100{clip-path:url(#SVGID_00000162333036725532655680000017314874644555925946_);}
	.st101{clip-path:url(#SVGID_00000168079201905254403610000017893226506483161495_);}
	.st102{fill:none;stroke:#787878;stroke-width:0.2794;stroke-miterlimit:10;}
	.st103{fill:none;stroke:#787878;stroke-width:0.2073;stroke-miterlimit:10;}
	.st104{fill:none;stroke:#A7B972;stroke-width:0.2557;stroke-miterlimit:10;}
	.st105{fill:none;stroke:#A7B972;stroke-width:0.1622;stroke-miterlimit:10;}
	
		.st106{clip-path:url(#SVGID_00000003825609426456052530000000973368480087508146_);fill:url(#SVGID_00000154384920767852316580000013256515922825561489_);}
	.st107{clip-path:url(#SVGID_00000139270416044795691000000003548560245684312965_);}
	.st108{clip-path:url(#SVGID_00000114790238143035409160000003045941857447866295_);}
	.st109{clip-path:url(#SVGID_00000146479036790232716970000004583377524479516582_);}
	.st110{clip-path:url(#SVGID_00000054248327607440578840000004816992273649240754_);}
	.st111{clip-path:url(#SVGID_00000091732331531909847370000014552915997127595157_);}
	.st112{fill:url(#SVGID_00000023241080200274986400000010578441822944095649_);}
	.st113{opacity:0.27;fill:#BADDE9;}
	.st114{clip-path:url(#SVGID_00000021837308642233911030000017921523497585917070_);}
	.st115{opacity:0.29;}
	
		.st116{clip-path:url(#SVGID_00000039832428369982085610000003765814879795718042_);fill:url(#SVGID_00000160899439404168818810000000497840177550769281_);}
	.st117{opacity:0.71;}
	.st118{clip-path:url(#SVGID_00000104665133106204479880000015229491322489675194_);}
	.st119{clip-path:url(#SVGID_00000181782340273917199510000006634975156990644656_);}
	.st120{clip-path:url(#SVGID_00000168111919107543987450000004001577540124199057_);}
	.st121{fill:none;stroke:#575757;stroke-miterlimit:10;}
	.st122{fill:none;stroke:#575757;stroke-width:0.5;stroke-miterlimit:10;}
	.st123{fill:#D1D1D1;stroke:#828282;stroke-width:0.1864;stroke-linecap:round;stroke-miterlimit:1;}
	.st124{fill:#FFFFFF;stroke:#828282;stroke-width:0.1864;stroke-linecap:round;stroke-miterlimit:1;}
	.st125{fill:#828282;stroke:#424242;stroke-width:0.5;stroke-miterlimit:1;}
	.st126{fill:none;stroke:#828282;stroke-width:0.1864;stroke-linecap:round;stroke-miterlimit:1;}
	.st127{fill:none;stroke:#1C1C1C;stroke-width:0.1864;stroke-linecap:round;stroke-miterlimit:1;}
	.st128{fill:none;stroke:#828282;stroke-width:0.75;stroke-linecap:round;stroke-miterlimit:1;}
	.st129{fill:none;stroke:#292929;stroke-width:0.75;stroke-linecap:round;stroke-miterlimit:1;}
	.st130{fill:#363636;}
	.st131{fill:none;stroke:#3D3D3D;stroke-width:0.1864;stroke-linecap:round;stroke-miterlimit:1;}
	.st132{fill:none;stroke:#BDBDBD;stroke-width:0.75;stroke-miterlimit:10;}
	.st133{opacity:0.27;fill:#E8E8E8;}
	.st134{fill:none;stroke:#003DA6;stroke-width:0.1794;stroke-miterlimit:10;}
	.st135{clip-path:url(#SVGID_00000171700298623035763480000006722105938504574368_);}
	.st136{fill:#1F1F1F;}
	.st137{clip-path:url(#SVGID_00000000221407516483638390000006030613547513340813_);}
	.st138{clip-path:url(#SVGID_00000156552417025805626050000012891163313935392417_);}
	.st139{clip-path:url(#SVGID_00000165917268535185281090000016808642085683490715_);}
	.st140{clip-path:url(#SVGID_00000157299376013005487480000013257161621774732988_);}
	.st141{fill:url(#SVGID_00000030451954197610241270000003535312285674887303_);}
	.st142{fill:#C0E3EA;}
	.st143{fill:#27745C;}
	.st144{fill:#4D4D4D;}
	.st145{clip-path:url(#SVGID_00000106845645397931794470000004322086174638548391_);}
	.st146{fill:none;stroke:#4DABCB;stroke-width:2;stroke-miterlimit:10;}
	.st147{fill:none;stroke:#27745C;stroke-width:3;stroke-miterlimit:10;}
	.st148{fill:url(#SVGID_00000159447957110948968690000000969201259613293494_);}
	.st149{fill:url(#SVGID_00000102529319474184680600000002945843850975995777_);}
	.st150{fill:#706F6F;}
	.st151{fill:none;}
	.st152{fill:url(#SVGID_00000103265017975887441940000008429983251969871545_);}
	.st153{fill:none;stroke:#4DABCB;stroke-width:2;stroke-linecap:round;stroke-miterlimit:10;}
	.st154{fill:url(#SVGID_00000036952528448653099550000013317698087603446676_);}
	.st155{clip-path:url(#SVGID_00000018234674282350360530000015935846305571860398_);}
	.st156{opacity:0.35;fill:#1C3F81;}
	.st157{clip-path:url(#SVGID_00000059277864610071103180000007608122777461236104_);}
	.st158{clip-path:url(#SVGID_00000077282027347086793710000001292669074037593480_);}
	.st159{opacity:0.29;fill:#4C1608;}
	.st160{clip-path:url(#SVGID_00000090975027862718668650000003938285419194987143_);}
	.st161{opacity:0.29;fill:#054096;}
	.st162{clip-path:url(#SVGID_00000173867262661037572780000012558484325871690131_);}
	.st163{clip-path:url(#SVGID_00000147182693652296758420000007031704458244897671_);}
	.st164{opacity:0.23;fill:#95A71A;}
	.st165{fill:#799B1C;}
	.st166{opacity:0.5;fill:url(#SVGID_00000109727336670367273540000002249566719536435347_);}
	
		.st167{clip-path:url(#SVGID_00000071553656013442946470000018247868160902676140_);fill:url(#SVGID_00000090281237796677001020000002484241162188087466_);}
	
		.st168{clip-path:url(#SVGID_00000019654853951830400680000017622557572677835665_);fill:url(#SVGID_00000051350732015936249450000005867888618796991622_);}
	.st169{display:none;}
	.st170{clip-path:url(#SVGID_00000069389369263992266040000004844546668654767033_);}
	.st171{clip-path:url(#SVGID_00000044153425324676446550000008301539148699007663_);}
	.st172{opacity:0.57;fill:#BADDE9;}
	.st173{opacity:0.54;fill:#1C3F81;}
	.st174{clip-path:url(#SVGID_00000080183965544772241180000008245266211996037272_);}
	.st175{clip-path:url(#SVGID_00000029743037461397377500000012326324077330622388_);}
	.st176{fill:url(#SVGID_00000107547256732185341480000006739063365200084640_);}
	.st177{fill:url(#SVGID_00000015330942153824606820000005176597191204844420_);}
	.st178{clip-path:url(#SVGID_00000169552255364876037530000018119728139474329226_);}
	.st179{clip-path:url(#SVGID_00000069388078763659716840000007995439112438285976_);}
	.st180{fill:none;stroke:#FFFFFF;stroke-width:0.75;stroke-miterlimit:10;}
	.st181{fill:none;stroke:#FFFFFF;stroke-width:0.7503;stroke-miterlimit:10;}
	.st182{clip-path:url(#SVGID_00000070834831820598076390000012527175093270780319_);fill:#FFFFFF;}
	.st183{fill:none;stroke:#2276BB;stroke-width:0.1;stroke-miterlimit:10;}
	.st184{fill:none;stroke:#FFFFFF;stroke-width:0.5;stroke-miterlimit:10;}
	.st185{clip-path:url(#SVGID_00000163753764171733071610000006748971861598869938_);fill:#FFFFFF;}
	.st186{clip-path:url(#SVGID_00000069366901907691196340000018049896758243164819_);fill:#FFFFFF;}
	.st187{clip-path:url(#SVGID_00000083075865796736525460000006909604011743982984_);fill:#FFFFFF;}
	.st188{fill:url(#SVGID_00000051346871299710185380000008009602666031110062_);}
	.st189{fill:none;stroke:#003DA6;stroke-width:0.2543;stroke-linecap:round;stroke-miterlimit:10;}
	.st190{fill:#BEE2E9;}
	.st191{fill:#7FA6E5;}
	.st192{opacity:0.97;fill:#71D4FF;}
</style>
<g id="iconos-fondo">
</g>
<g id="footer">
	<rect x="-1064.35" y="-26.8" class="st21" width="1188.37" height="105.21"/>
	<g>
		<g>
			<g>
				<g>
					<g>
						<path class="st2" d="M3.9,10.09c1.72-1.73,3.79-3.48,6.53-3.8c2.83-0.33,5.64,1.03,7.39,2.88c0.6,0.64,1.65-0.27,1.05-0.9
							c-2-2.12-5.27-3.58-8.49-3.25C7.24,5.34,4.83,7.19,2.84,9.19C2.23,9.81,3.27,10.72,3.9,10.09L3.9,10.09z"/>
					</g>
				</g>
			</g>
			<g>
				<g>
					<g>
						<path class="st2" d="M3.78,12.55c2.07,2,4.94,3.34,8.13,3.11c2.88-0.21,5.24-1.76,7.11-3.55c1.99-1.9,3.69-4.2,6.52-5.26
							c3.38-1.28,7.02,0.1,9.28,2.42c0.61,0.63,1.66-0.28,1.05-0.9c-1.92-1.97-4.95-3.48-8.02-3.29C25,5.24,22.7,6.63,20.78,8.37
							c-1.93,1.76-3.43,3.87-5.91,5.13c-3.54,1.8-7.45,0.65-10.04-1.85C4.2,11.03,3.15,11.94,3.78,12.55L3.78,12.55z"/>
					</g>
				</g>
			</g>
			<g>
				<g>
					<g>
						<path class="st2" d="M20.94,12.55c2.07,2,4.94,3.34,8.13,3.11c2.88-0.21,5.24-1.76,7.11-3.55c1.99-1.9,3.69-4.2,6.52-5.26
							c3.38-1.28,7.02,0.1,9.28,2.42c0.61,0.63,1.66-0.28,1.05-0.9c-1.92-1.97-4.95-3.48-8.02-3.29c-2.85,0.18-5.15,1.56-7.07,3.3
							c-1.93,1.76-3.43,3.87-5.91,5.13c-3.54,1.8-7.45,0.65-10.04-1.85C21.36,11.03,20.31,11.94,20.94,12.55L20.94,12.55z"/>
					</g>
				</g>
			</g>
			<g>
				<g>
					<g>
						<path class="st2" d="M38.1,12.55c2.07,2,4.94,3.34,8.13,3.11c2.88-0.21,5.24-1.76,7.11-3.55c1.99-1.9,3.69-4.2,6.52-5.26
							c3.38-1.28,7.02,0.1,9.28,2.42c0.61,0.63,1.66-0.28,1.05-0.9c-1.92-1.97-4.95-3.48-8.02-3.29c-2.85,0.18-5.15,1.56-7.07,3.3
							c-1.93,1.76-3.43,3.87-5.91,5.13c-3.54,1.8-7.45,0.65-10.04-1.85C38.51,11.03,37.46,11.94,38.1,12.55L38.1,12.55z"/>
					</g>
				</g>
			</g>
			<g>
				<g>
					<g>
						<path class="st2" d="M55.26,12.55c2.07,2,4.94,3.34,8.13,3.11c2.88-0.21,5.24-1.76,7.11-3.55c1.99-1.9,3.69-4.2,6.52-5.26
							c3.38-1.28,7.02,0.1,9.28,2.42c0.61,0.63,1.66-0.28,1.05-0.9c-1.92-1.97-4.95-3.48-8.02-3.29c-2.85,0.18-5.15,1.56-7.07,3.3
							c-1.93,1.76-3.43,3.87-5.91,5.13c-3.54,1.8-7.45,0.65-10.04-1.85C55.67,11.03,54.62,11.94,55.26,12.55L55.26,12.55z"/>
					</g>
				</g>
			</g>
			<g>
				<g>
					<path class="st2" d="M79.76,14.05L79.76,14.05c-0.08,0-0.15-0.06-0.15-0.13l0.02-7.11c0-0.07,0.07-0.13,0.15-0.13l0,0
						c0.08,0,0.15,0.06,0.15,0.13l-0.02,7.11C79.91,13.99,79.85,14.05,79.76,14.05z"/>
				</g>
			</g>
			<g>
				<g>
					<path class="st2" d="M77.2,13.24L77.2,13.24c-0.08,0-0.15-0.06-0.15-0.13l0.02-5.5c0-0.07,0.07-0.13,0.15-0.13l0,0
						c0.08,0,0.15,0.06,0.15,0.13l-0.02,5.5C77.35,13.19,77.28,13.24,77.2,13.24z"/>
				</g>
			</g>
			<g>
				<g>
					<path class="st2" d="M74.71,12.12C74.71,12.12,74.71,12.12,74.71,12.12c-0.08,0-0.15-0.06-0.15-0.13l0.02-3.06
						c0-0.07,0.07-0.13,0.15-0.13c0,0,0,0,0,0c0.08,0,0.15,0.06,0.15,0.13l-0.02,3.06C74.86,12.06,74.79,12.12,74.71,12.12z"/>
				</g>
			</g>
			<g>
				<g>
					<path class="st2" d="M82.33,13.24c-0.08,0-0.15-0.06-0.15-0.13l-0.02-5.5c0-0.07,0.07-0.13,0.15-0.13l0,0
						c0.08,0,0.15,0.06,0.15,0.13l0.02,5.5C82.48,13.19,82.41,13.24,82.33,13.24L82.33,13.24z"/>
				</g>
			</g>
			<g>
				<g>
					<path class="st2" d="M84.82,12.12c-0.08,0-0.15-0.06-0.15-0.13l-0.02-3.06c0-0.07,0.07-0.13,0.15-0.13c0,0,0,0,0,0
						c0.08,0,0.15,0.06,0.15,0.13l0.02,3.06C84.97,12.06,84.9,12.12,84.82,12.12C84.82,12.12,84.82,12.12,84.82,12.12z"/>
				</g>
			</g>
			<g>
				<g>
					<path class="st2" d="M62.52,14.05L62.52,14.05c-0.08,0-0.15-0.06-0.15-0.13l0.03-7.11c0-0.07,0.07-0.13,0.15-0.13l0,0
						c0.08,0,0.15,0.06,0.15,0.13l-0.03,7.11C62.67,13.99,62.6,14.05,62.52,14.05z"/>
				</g>
			</g>
			<g>
				<g>
					<path class="st2" d="M59.96,13.24L59.96,13.24c-0.08,0-0.15-0.06-0.15-0.13l0.02-5.5c0-0.07,0.07-0.13,0.15-0.13l0,0
						c0.08,0,0.15,0.06,0.15,0.13l-0.02,5.5C60.11,13.19,60.04,13.24,59.96,13.24z"/>
				</g>
			</g>
			<g>
				<g>
					<path class="st2" d="M57.46,12.12C57.46,12.12,57.46,12.12,57.46,12.12c-0.08,0-0.15-0.06-0.15-0.13l0.02-3.06
						c0-0.07,0.07-0.13,0.15-0.13c0,0,0,0,0,0c0.08,0,0.15,0.06,0.15,0.13l-0.02,3.06C57.61,12.06,57.55,12.12,57.46,12.12z"/>
				</g>
			</g>
			<g>
				<g>
					<path class="st2" d="M65.08,13.24c-0.08,0-0.15-0.06-0.15-0.13c0-1.83-0.01-3.67-0.02-5.5c0-0.07,0.07-0.13,0.15-0.13l0,0
						c0.08,0,0.15,0.06,0.15,0.13c0.01,1.83,0.01,3.67,0.02,5.5C65.23,13.19,65.16,13.24,65.08,13.24L65.08,13.24z"/>
				</g>
			</g>
			<g>
				<g>
					<path class="st2" d="M67.57,12.12c-0.08,0-0.15-0.06-0.15-0.13L67.4,8.93c0-0.07,0.07-0.13,0.15-0.13c0,0,0,0,0,0
						c0.08,0,0.15,0.06,0.15,0.13l0.02,3.06C67.72,12.06,67.66,12.12,67.57,12.12C67.57,12.12,67.57,12.12,67.57,12.12z"/>
				</g>
			</g>
			<g>
				<g>
					<path class="st2" d="M45.43,14.05L45.43,14.05c-0.08,0-0.15-0.06-0.15-0.13l0.02-7.11c0-0.07,0.07-0.13,0.15-0.13l0,0
						c0.08,0,0.15,0.06,0.15,0.13l-0.02,7.11C45.58,13.99,45.52,14.05,45.43,14.05z"/>
				</g>
			</g>
			<g>
				<g>
					<path class="st2" d="M42.87,13.24L42.87,13.24c-0.08,0-0.15-0.06-0.15-0.13c0.01-1.83,0.01-3.67,0.02-5.5
						c0-0.07,0.07-0.13,0.15-0.13l0,0c0.08,0,0.15,0.06,0.15,0.13c0,1.83-0.01,3.67-0.02,5.5C43.02,13.19,42.95,13.24,42.87,13.24z"
						/>
				</g>
			</g>
			<g>
				<g>
					<path class="st2" d="M40.38,12.12C40.38,12.12,40.38,12.12,40.38,12.12c-0.08,0-0.15-0.06-0.15-0.13l0.02-3.06
						c0-0.07,0.07-0.13,0.15-0.13c0,0,0,0,0,0c0.08,0,0.15,0.06,0.15,0.13l-0.02,3.06C40.53,12.06,40.46,12.12,40.38,12.12z"/>
				</g>
			</g>
			<g>
				<g>
					<path class="st2" d="M48,13.24c-0.08,0-0.15-0.06-0.15-0.13l-0.02-5.5c0-0.07,0.07-0.13,0.15-0.13l0,0
						c0.08,0,0.15,0.06,0.15,0.13l0.02,5.5C48.14,13.19,48.08,13.24,48,13.24L48,13.24z"/>
				</g>
			</g>
			<g>
				<g>
					<path class="st2" d="M50.49,12.12c-0.08,0-0.15-0.06-0.15-0.13l-0.02-3.06c0-0.07,0.07-0.13,0.15-0.13c0,0,0,0,0,0
						c0.08,0,0.15,0.06,0.15,0.13l0.02,3.06C50.64,12.06,50.57,12.12,50.49,12.12C50.49,12.12,50.49,12.12,50.49,12.12z"/>
				</g>
			</g>
			<g>
				<g>
					<path class="st2" d="M28.35,14.05L28.35,14.05c-0.08,0-0.15-0.06-0.15-0.13l0.02-7.11c0-0.07,0.07-0.13,0.15-0.13l0,0
						c0.08,0,0.15,0.06,0.15,0.13l-0.02,7.11C28.5,13.99,28.43,14.05,28.35,14.05z"/>
				</g>
			</g>
			<g>
				<g>
					<path class="st2" d="M25.78,13.24L25.78,13.24c-0.08,0-0.15-0.06-0.15-0.13l0.02-5.5c0-0.07,0.07-0.13,0.15-0.13l0,0
						c0.08,0,0.15,0.06,0.15,0.13l-0.02,5.5C25.93,13.19,25.87,13.24,25.78,13.24z"/>
				</g>
			</g>
			<g>
				<g>
					<path class="st2" d="M23.29,12.12C23.29,12.12,23.29,12.12,23.29,12.12c-0.08,0-0.15-0.06-0.15-0.13l0.02-3.06
						c0-0.07,0.07-0.13,0.15-0.13c0,0,0,0,0,0c0.08,0,0.15,0.06,0.15,0.13l-0.02,3.06C23.44,12.06,23.38,12.12,23.29,12.12z"/>
				</g>
			</g>
			<g>
				<g>
					<path class="st2" d="M30.91,13.24c-0.08,0-0.15-0.06-0.15-0.13l-0.02-5.5c0-0.07,0.07-0.13,0.15-0.13l0,0
						c0.08,0,0.15,0.06,0.15,0.13l0.02,5.5C31.06,13.19,30.99,13.24,30.91,13.24L30.91,13.24z"/>
				</g>
			</g>
			<g>
				<g>
					<path class="st2" d="M33.4,12.12c-0.08,0-0.15-0.06-0.15-0.13l-0.02-3.06c0-0.07,0.07-0.13,0.15-0.13c0,0,0,0,0,0
						c0.08,0,0.15,0.06,0.15,0.13l0.02,3.06C33.55,12.06,33.48,12.12,33.4,12.12C33.4,12.12,33.4,12.12,33.4,12.12z"/>
				</g>
			</g>
			<g>
				<g>
					<path class="st2" d="M11.05,14.05L11.05,14.05c-0.08,0-0.15-0.06-0.15-0.13c0.01-2.37,0.02-4.74,0.03-7.11
						c0-0.07,0.07-0.13,0.15-0.13l0,0c0.08,0,0.15,0.06,0.15,0.13c-0.01,2.37-0.02,4.74-0.03,7.11
						C11.2,13.99,11.14,14.05,11.05,14.05z"/>
				</g>
			</g>
			<g>
				<g>
					<path class="st2" d="M8.49,13.24L8.49,13.24c-0.08,0-0.15-0.06-0.15-0.13c0.01-1.83,0.01-3.67,0.02-5.5
						c0-0.07,0.07-0.13,0.15-0.13l0,0c0.08,0,0.15,0.06,0.15,0.13c0,1.83-0.01,3.67-0.02,5.5C8.64,13.19,8.57,13.24,8.49,13.24z"/>
				</g>
			</g>
			<g>
				<g>
					<path class="st2" d="M6,12.12C6,12.12,6,12.12,6,12.12c-0.08,0-0.15-0.06-0.15-0.13l0.02-3.06c0-0.07,0.07-0.13,0.15-0.13
						c0,0,0,0,0,0c0.08,0,0.15,0.06,0.15,0.13l-0.02,3.06C6.15,12.06,6.08,12.12,6,12.12z"/>
				</g>
			</g>
			<g>
				<g>
					<path class="st2" d="M13.62,13.24c-0.08,0-0.15-0.06-0.15-0.13l-0.02-5.5c0-0.07,0.07-0.13,0.15-0.13l0,0
						c0.08,0,0.15,0.06,0.15,0.13l0.02,5.5C13.77,13.19,13.7,13.24,13.62,13.24L13.62,13.24z"/>
				</g>
			</g>
			<g>
				<g>
					<path class="st2" d="M16.11,12.12c-0.08,0-0.15-0.06-0.15-0.13l-0.02-3.06c0-0.07,0.07-0.13,0.15-0.13c0,0,0,0,0,0
						c0.08,0,0.15,0.06,0.15,0.13l0.02,3.06C16.26,12.06,16.19,12.12,16.11,12.12C16.11,12.12,16.11,12.12,16.11,12.12z"/>
				</g>
			</g>
			<g>
				<g>
					<g>
						<path class="st2" d="M72.42,12.55c2.5,2.46,6.45,3.89,10.18,2.73c3.01-0.94,4.95-3.07,6.93-5.1c0.61-0.63-0.44-1.53-1.05-0.9
							c-1.71,1.75-3.35,3.66-5.85,4.62c-3.34,1.29-6.89-0.01-9.16-2.25C72.84,11.02,71.79,11.93,72.42,12.55L72.42,12.55z"/>
					</g>
				</g>
			</g>
		</g>
	</g>
</g>
<g id="fondo">
</g>
<g id="detacado-foto">
</g>
<g id="bloque_1-A">
</g>
<g id="bloque_1_B">
</g>
<g id="destacado">
</g>
<g id="destacado-hidro">
</g>
<g id="destacado-camion">
</g>
<g id="cont">
</g>
<g id="EMPRESA">
</g>
<g id="SERVICIOS-terminal">
</g>
<g id="SERVICIO-lab">
</g>
<g id="SERV-transp-terrestre">
</g>
<g id="SERV-opera-solidos">
</g>
<g id="COMEX">
</g>
<g id="CONTACTO">
</g>
<g id="COMPROMISO">
</g>
<g id="Capa_19" class="st169">
</g>
<g id="TERMINAL">
</g>
<g id="servicios3">
</g>
<g id="servicios2">
</g>
<g id="servicios1">
</g>
<g id="Capa_10">
</g>
<g id="solapa-servicio">
</g>
<g id="top">
</g>
<g id="esqueletoi">
</g>
<g id="guias">
</g>
</svg>
