<?xml version="1.0" encoding="utf-8"?>
<!-- Generator: Adobe Illustrator 27.9.0, SVG Export Plug-In . SVG Version: 6.00 Build 0)  -->
<svg version="1.1" xmlns="http://www.w3.org/2000/svg" xmlns:xlink="http://www.w3.org/1999/xlink" x="0px" y="0px"
	 viewBox="0 0 311.85 107.29" style="enable-background:new 0 0 311.85 107.29;" xml:space="preserve">
<style type="text/css">
	.st0{fill:#8F8F8F;}
	.st1{fill:#6E6E6E;}
	.st2{fill:#FFFFFF;}
	.st3{clip-path:url(#SVGID_00000129884228355424662060000004194945437380447635_);}
	.st4{fill:#878787;}
	.st5{fill:#4C4C4A;}
	.st6{fill:#858658;}
	.st7{fill:#1BB09D;}
	.st8{fill:#4CABCB;}
	.st9{fill:#737373;}
	.st10{fill:#4FA98B;}
	.st11{fill:#2276BB;}
	.st12{fill:none;stroke:#FFFFFF;stroke-width:0.25;stroke-miterlimit:10;}
	.st13{clip-path:url(#SVGID_00000106847742606901690090000006840678664468171710_);}
	.st14{clip-path:url(#SVGID_00000121987804923166024630000004151142277665145255_);}
	.st15{clip-path:url(#SVGID_00000170968797583682762180000014000638920475913381_);}
	.st16{clip-path:url(#SVGID_00000051345144904184482970000012217734507072377735_);}
	.st17{clip-path:url(#SVGID_00000141418409753125960880000001144105827244165309_);}
	.st18{clip-path:url(#SVGID_00000178926479925239019760000006525737613190103217_);}
	.st19{clip-path:url(#SVGID_00000083795251105087937420000016528132594703240621_);}
	.st20{clip-path:url(#SVGID_00000042715973466618573900000006536562371537675935_);}
	.st21{clip-path:url(#SVGID_00000039100125850767327180000012311923206006078390_);}
	
		.st22{clip-path:url(#SVGID_00000085951238705955519150000012627260604114405546_);fill:url(#SVGID_00000011711322195611697620000015414750877576189592_);}
	.st23{fill:#003DA6;stroke:#003DA6;stroke-width:0.25;stroke-miterlimit:10;}
	.st24{fill:none;stroke:#003DA6;stroke-width:0.3;stroke-miterlimit:10;}
	.st25{fill:#FFFFFF;stroke:#ABABAB;stroke-width:0.3093;stroke-miterlimit:10;}
	.st26{fill:none;stroke:#003DA6;stroke-width:0.5024;stroke-miterlimit:10;}
	.st27{fill:#FFFFFF;stroke:#003DA6;stroke-width:0.3467;stroke-miterlimit:10;}
	.st28{opacity:0.5;fill:url(#SVGID_00000157994264622947557140000010498653436664273542_);}
	.st29{fill:url(#SVGID_00000088102758629002200040000000274220623831151025_);}
	.st30{fill:#E4F4F9;}
	.st31{fill:#003DA6;}
	.st32{fill:#003DA6;stroke:#FFFFFF;stroke-width:0.2257;stroke-miterlimit:10;}
	.st33{fill:#FFFFFF;stroke:#003DA6;stroke-width:0.2257;stroke-miterlimit:10;}
	.st34{fill:#FFFFFF;stroke:#ABABAB;stroke-width:0.3504;stroke-miterlimit:10;}
	.st35{fill-rule:evenodd;clip-rule:evenodd;fill:#FFFFFF;stroke:#ABABAB;stroke-width:0.4053;stroke-miterlimit:10;}
	.st36{fill:#FFFFFF;stroke:#ABABAB;stroke-width:0.4053;stroke-miterlimit:10;}
	.st37{display:none;}
	.st38{display:inline;fill:#FFFFFF;}
	.st39{display:inline;opacity:0.7;fill:url(#SVGID_00000025430749907430168360000010452700297545011117_);}
	.st40{display:inline;opacity:0.5;fill:#4C4C4A;}
	.st41{display:inline;opacity:0.5;fill:#858658;}
	.st42{display:inline;opacity:0.5;fill:#1BB09D;}
	.st43{display:inline;opacity:0.5;fill:#4CABCB;}
	.st44{display:inline;opacity:0.5;fill:#737373;}
	.st45{display:inline;fill:#4FA98B;}
	.st46{display:inline;opacity:0.5;fill:#2276BB;}
	.st47{display:inline;}
	.st48{fill:none;stroke:#003DA6;stroke-width:0.2224;stroke-miterlimit:10;}
	.st49{display:inline;fill:#003DA6;}
	.st50{fill:#FFFFFF;stroke:#003DA6;stroke-width:0.2835;stroke-miterlimit:10;}
	.st51{fill:none;stroke:#003DA6;stroke-width:0.1864;stroke-linecap:round;stroke-miterlimit:1;}
	.st52{fill:#FFFFFF;stroke:#003DA6;stroke-width:0.1;stroke-miterlimit:10;}
	.st53{fill:none;stroke:#003DA6;stroke-width:0.2835;stroke-miterlimit:10;}
	.st54{fill:#575757;}
	.st55{clip-path:url(#SVGID_00000103264660295135714840000009543417863714568585_);}
	.st56{opacity:0.7;fill:url(#SVGID_00000163071689271809036910000004596925612289697712_);}
	.st57{opacity:0.5;fill:#4C4C4A;}
	.st58{opacity:0.5;fill:#858658;}
	.st59{opacity:0.5;fill:#1BB09D;}
	.st60{opacity:0.5;fill:#4CABCB;}
	.st61{opacity:0.5;fill:#737373;}
	.st62{opacity:0.5;fill:#2276BB;}
	.st63{fill:none;stroke:#003DA6;stroke-width:0.25;stroke-miterlimit:10;}
	.st64{fill:#1C3F81;}
	.st65{fill:none;stroke:#949494;stroke-width:0.25;stroke-miterlimit:10;}
	.st66{clip-path:url(#SVGID_00000008859797951994285270000015908376520066001319_);}
	.st67{fill:#43B6A5;}
	.st68{fill:#25745C;}
	.st69{clip-path:url(#SVGID_00000152953720019680741730000015342599903835213237_);}
	.st70{display:inline;fill:#1C3F81;}
	.st71{display:inline;fill:#4C4C4A;}
	.st72{fill:url(#SVGID_00000027585251974026705040000011586031496505571240_);}
	.st73{fill:url(#SVGID_00000174595709632180421310000017790207740230271409_);}
	.st74{fill:none;stroke:#FFFFFF;stroke-width:2;stroke-linecap:round;stroke-miterlimit:10;}
	.st75{clip-path:url(#SVGID_00000029755777427206587090000000398347660586394005_);}
	.st76{fill:#003DA6;stroke:#FFFFFF;stroke-width:0.1346;stroke-miterlimit:10;}
	.st77{fill:#141414;}
	.st78{stroke:#FFFFFF;stroke-width:0.1346;stroke-miterlimit:10;}
	.st79{clip-path:url(#SVGID_00000100379088447262941950000009812915519151921826_);}
	.st80{opacity:0.18;}
	.st81{fill:#089F91;}
	.st82{opacity:0.18;fill:#BADDE9;}
	.st83{fill:#F5F4EF;stroke:#FFFFFF;stroke-width:1.8244;stroke-miterlimit:10;}
	.st84{opacity:0.65;fill:#858658;}
	.st85{fill:#C3DFF5;}
	.st86{opacity:0.63;}
	.st87{fill:#9C9B9B;}
	.st88{fill:#A9A9A9;}
	.st89{fill:#35350B;}
	.st90{fill:none;stroke:#FFFFFF;stroke-width:0.1824;stroke-linecap:round;stroke-linejoin:round;stroke-miterlimit:10;}
	.st91{opacity:0.64;}
	.st92{fill:#F5F4EF;}
	.st93{clip-path:url(#SVGID_00000108292142672423640850000012409576532490094492_);}
	.st94{fill:#F5F4EF;stroke:#FFFFFF;stroke-width:1.2815;stroke-miterlimit:10;}
	.st95{opacity:0.65;}
	.st96{fill:none;stroke:#FFFFFF;stroke-width:0.1281;stroke-linecap:round;stroke-linejoin:round;stroke-miterlimit:10;}
	.st97{fill:#1D1D1B;}
	
		.st98{opacity:0.4;clip-path:url(#SVGID_00000148636247090632255020000015694245926882102419_);fill:url(#SVGID_00000124122940044747072510000017172610099814420639_);}
	.st99{fill:#45CFDA;}
	.st100{clip-path:url(#SVGID_00000005976633537515474260000008292839711739489157_);}
	.st101{clip-path:url(#SVGID_00000028291798610866877700000012790197858550183092_);}
	.st102{fill:#FFFFFF;stroke:#ABABAB;stroke-width:0.4901;stroke-miterlimit:10;}
	.st103{fill:url(#SVGID_00000031191663341462485370000001950026304878938543_);}
	.st104{fill-rule:evenodd;clip-rule:evenodd;fill:#FFFFFF;stroke:#ABABAB;stroke-width:0.2763;stroke-miterlimit:10;}
	.st105{fill:#FFFFFF;stroke:#ABABAB;stroke-width:0.2763;stroke-miterlimit:10;}
	.st106{fill:#0A0A0A;}
	.st107{opacity:0.5;}
	.st108{fill:#565630;}
	.st109{fill:#A2E3F4;}
	.st110{fill:#454545;}
	.st111{fill:none;stroke:#454545;stroke-width:0.5151;stroke-miterlimit:10;}
	.st112{clip-path:url(#SVGID_00000142157861952084029870000007895147044977835924_);}
	.st113{clip-path:url(#SVGID_00000114069862801704971170000005454434007081199268_);}
	.st114{fill:none;stroke:#787878;stroke-width:0.2794;stroke-miterlimit:10;}
	.st115{fill:none;stroke:#787878;stroke-width:0.2073;stroke-miterlimit:10;}
	.st116{fill:none;stroke:#A7B972;stroke-width:0.2557;stroke-miterlimit:10;}
	.st117{fill:none;stroke:#A7B972;stroke-width:0.1622;stroke-miterlimit:10;}
	
		.st118{clip-path:url(#SVGID_00000121245126263008474990000001632895615030326168_);fill:url(#SVGID_00000073680002304533424980000014889819261397222794_);}
	.st119{clip-path:url(#SVGID_00000064353791513554237870000018262302050628907161_);}
	.st120{clip-path:url(#SVGID_00000150082686595245072630000000532687311970639016_);}
	.st121{clip-path:url(#SVGID_00000168099823723435938690000016983276195388727680_);}
	.st122{clip-path:url(#SVGID_00000135653848859884266230000009069045150075135657_);}
	.st123{clip-path:url(#SVGID_00000160179389065462891380000006694897199046321335_);}
	.st124{fill:url(#SVGID_00000001623859206198335350000015043916534741926581_);}
	.st125{opacity:0.27;fill:#BADDE9;}
	.st126{clip-path:url(#SVGID_00000183236821606307358750000003520917472580185769_);}
	.st127{opacity:0.29;}
	
		.st128{clip-path:url(#SVGID_00000127028261440384031030000016540599200790077838_);fill:url(#SVGID_00000178175898137971294840000018185305754927424411_);}
	.st129{opacity:0.71;}
	.st130{clip-path:url(#SVGID_00000013167784884330527890000012687299418024431504_);}
	.st131{clip-path:url(#SVGID_00000030479336001257356480000011721083105903793317_);}
	.st132{clip-path:url(#SVGID_00000178898852498841355990000010875889163822888120_);}
	.st133{fill:none;stroke:#575757;stroke-miterlimit:10;}
	.st134{fill:none;stroke:#575757;stroke-width:0.5;stroke-miterlimit:10;}
	.st135{fill:#D1D1D1;stroke:#828282;stroke-width:0.1864;stroke-linecap:round;stroke-miterlimit:1;}
	.st136{fill:#FFFFFF;stroke:#828282;stroke-width:0.1864;stroke-linecap:round;stroke-miterlimit:1;}
	.st137{fill:#828282;stroke:#424242;stroke-width:0.5;stroke-miterlimit:1;}
	.st138{fill:none;stroke:#828282;stroke-width:0.1864;stroke-linecap:round;stroke-miterlimit:1;}
	.st139{fill:none;stroke:#1C1C1C;stroke-width:0.1864;stroke-linecap:round;stroke-miterlimit:1;}
	.st140{fill:none;stroke:#828282;stroke-width:0.75;stroke-linecap:round;stroke-miterlimit:1;}
	.st141{fill:none;stroke:#292929;stroke-width:0.75;stroke-linecap:round;stroke-miterlimit:1;}
	.st142{fill:#363636;}
	.st143{fill:none;stroke:#3D3D3D;stroke-width:0.1864;stroke-linecap:round;stroke-miterlimit:1;}
	.st144{fill:none;stroke:#BDBDBD;stroke-width:0.75;stroke-miterlimit:10;}
	.st145{opacity:0.27;fill:#E8E8E8;}
	.st146{fill:none;stroke:#003DA6;stroke-width:0.1794;stroke-miterlimit:10;}
	.st147{clip-path:url(#SVGID_00000161631890182824979730000009917189028806909833_);}
	.st148{fill:#1F1F1F;}
	.st149{clip-path:url(#SVGID_00000178178357857956202730000014198612476689934255_);}
	.st150{clip-path:url(#SVGID_00000069374414960397472220000007872765617999694223_);}
	.st151{clip-path:url(#SVGID_00000142871513576872425110000010545054689192264113_);}
	.st152{clip-path:url(#SVGID_00000017510334032766865310000011326450514583082640_);}
	.st153{fill:url(#SVGID_00000047776835072835355370000004735576473392275875_);}
	.st154{fill:#C0E3EA;}
	.st155{fill:#27745C;}
	.st156{fill:#4D4D4D;}
	.st157{clip-path:url(#SVGID_00000087414024168295408710000018353062154560445614_);}
	.st158{fill:none;stroke:#4DABCB;stroke-width:2;stroke-miterlimit:10;}
	.st159{fill:none;stroke:#27745C;stroke-width:3;stroke-miterlimit:10;}
	.st160{fill:url(#SVGID_00000129197767123772675640000003237092385333108376_);}
	.st161{fill:url(#SVGID_00000089547473713824458430000000915307579937021602_);}
	.st162{fill:#706F6F;}
	.st163{fill:none;}
	.st164{fill:url(#SVGID_00000021112385741242531840000014237883669328428968_);}
	.st165{fill:none;stroke:#4DABCB;stroke-width:2;stroke-linecap:round;stroke-miterlimit:10;}
	.st166{fill:url(#SVGID_00000151542748593261367650000007861794275740400809_);}
	.st167{clip-path:url(#SVGID_00000123407127285166635620000011949203670863767695_);}
	.st168{opacity:0.35;fill:#1C3F81;}
	.st169{clip-path:url(#SVGID_00000094617581695394684870000013996972506076431261_);}
	.st170{clip-path:url(#SVGID_00000178899685345662826580000010170936691990827140_);}
	.st171{opacity:0.29;fill:#4C1608;}
	.st172{clip-path:url(#SVGID_00000146487122805887451950000010033264382921024664_);}
	.st173{opacity:0.29;fill:#054096;}
	.st174{clip-path:url(#SVGID_00000044896719085776809010000015197246826329460136_);}
	.st175{clip-path:url(#SVGID_00000165932588903784387500000017698978572305364887_);}
	.st176{opacity:0.23;fill:#95A71A;}
	.st177{fill:#799B1C;}
	.st178{opacity:0.5;fill:url(#SVGID_00000042732357935552639420000010925609039295524255_);}
	
		.st179{clip-path:url(#SVGID_00000173129936465922828610000001073997667275665281_);fill:url(#SVGID_00000114781871547221369360000012794226726460862357_);}
	
		.st180{clip-path:url(#SVGID_00000098181680847106723920000012067070943516898217_);fill:url(#SVGID_00000176731420109409649660000012913738976738531757_);}
	.st181{clip-path:url(#SVGID_00000087370948287482584980000017470245388872605884_);}
	.st182{clip-path:url(#SVGID_00000028292747450741131950000006742884212145617806_);}
	.st183{opacity:0.57;fill:#BADDE9;}
	.st184{opacity:0.54;fill:#1C3F81;}
	.st185{clip-path:url(#SVGID_00000101073315305847627520000005784472740981623228_);}
	.st186{clip-path:url(#SVGID_00000136400962438017176820000005472586484047628974_);}
	.st187{fill:url(#SVGID_00000081613199962691652420000015843895691319579575_);}
	.st188{fill:url(#SVGID_00000018229028382217830730000010941034876671733381_);}
	.st189{clip-path:url(#SVGID_00000152244287595552485990000016376359525746089662_);}
	.st190{clip-path:url(#SVGID_00000181050491154388316450000009011637549921850806_);}
	.st191{fill:none;stroke:#FFFFFF;stroke-width:0.75;stroke-miterlimit:10;}
	.st192{fill:none;stroke:#FFFFFF;stroke-width:0.7503;stroke-miterlimit:10;}
	.st193{clip-path:url(#SVGID_00000054247583861014695730000011162999887421190073_);fill:#FFFFFF;}
	.st194{fill:none;stroke:#2276BB;stroke-width:0.1;stroke-miterlimit:10;}
	.st195{fill:none;stroke:#FFFFFF;stroke-width:0.5;stroke-miterlimit:10;}
	.st196{clip-path:url(#SVGID_00000098218145824452214680000011161880119269488567_);fill:#FFFFFF;}
	.st197{clip-path:url(#SVGID_00000121277463320452218940000007951051849550954172_);fill:#FFFFFF;}
	.st198{clip-path:url(#SVGID_00000115510990410837933990000005895188942113639091_);fill:#FFFFFF;}
	.st199{fill:url(#SVGID_00000099637395022856985210000004486215111767382412_);}
	.st200{fill:none;stroke:#003DA6;stroke-width:0.2543;stroke-linecap:round;stroke-miterlimit:10;}
	.st201{fill:#BEE2E9;}
	.st202{fill:#7FA6E5;}
	.st203{opacity:0.97;fill:#71D4FF;}
</style>
<g id="iconos-fondo">
</g>
<g id="footer">
</g>
<g id="fondo">
</g>
<g id="detacado-foto">
</g>
<g id="bloque_1-A" class="st37">
</g>
<g id="bloque_1_B">
</g>
<g id="destacado" class="st37">
</g>
<g id="destacado-hidro" class="st37">
</g>
<g id="destacado-camion">
	<g>
		<g>
			<g>
				<g>
					<circle class="st2" cx="189.26" cy="63.85" r="3.08"/>
					<circle class="st2" cx="201.26" cy="63.85" r="3.08"/>
					<circle class="st2" cx="213.27" cy="63.85" r="3.08"/>
					<circle class="st2" cx="225.28" cy="63.85" r="3.08"/>
					<circle class="st2" cx="237.29" cy="63.85" r="3.08"/>
					<circle class="st2" cx="249.3" cy="63.85" r="3.08"/>
					<circle class="st2" cx="261.31" cy="63.85" r="3.08"/>
					<circle class="st2" cx="273.31" cy="63.85" r="3.08"/>
					<circle class="st2" cx="195.26" cy="54.44" r="3.08"/>
					<circle class="st2" cx="207.27" cy="54.44" r="3.08"/>
					<circle class="st2" cx="219.28" cy="54.44" r="3.08"/>
					<circle class="st2" cx="231.29" cy="54.44" r="3.08"/>
					<circle class="st2" cx="243.29" cy="54.44" r="3.08"/>
					<circle class="st2" cx="255.3" cy="54.44" r="3.08"/>
					<circle class="st2" cx="267.31" cy="54.44" r="3.08"/>
					<circle class="st2" cx="201.26" cy="45.02" r="3.08"/>
					<circle class="st2" cx="213.27" cy="45.02" r="3.08"/>
					<circle class="st2" cx="225.28" cy="45.02" r="3.08"/>
					<circle class="st2" cx="237.29" cy="45.02" r="3.08"/>
					<circle class="st2" cx="249.3" cy="45.02" r="3.08"/>
					<circle class="st2" cx="261.31" cy="45.02" r="3.08"/>
					<circle class="st2" cx="207.27" cy="35.61" r="3.08"/>
					<circle class="st2" cx="219.28" cy="35.61" r="3.08"/>
					<circle class="st2" cx="231.29" cy="35.61" r="3.08"/>
					<circle class="st2" cx="243.29" cy="35.61" r="3.08"/>
					<circle class="st2" cx="255.3" cy="35.61" r="3.08"/>
					<circle class="st2" cx="213.27" cy="26.19" r="3.08"/>
					<circle class="st2" cx="225.28" cy="26.19" r="3.08"/>
					<circle class="st2" cx="237.29" cy="26.19" r="3.08"/>
					<circle class="st2" cx="249.3" cy="26.19" r="3.08"/>
				</g>
			</g>
			<g>
				<g>
					<path class="st2" d="M41.17,42.81c-1.98-0.04-3.95-0.81-5.46-2.29c-0.1-0.1-0.1-0.27,0-0.37l2.66-2.54
						c0.09-0.09,0.24-0.09,0.34,0c1.49,1.38,3.83,1.38,5.32-0.04l0.44-0.42c3.3-3.16,8.59-3.04,11.74,0.26l0.24,0.26
						c1.57,1.64,4.2,1.7,5.84,0.13l1.05-1.01c3.21-3.07,8.32-2.96,11.39,0.25c0.87,0.91,2.1,1.34,3.38,1.16
						c0.86-0.12,1.64-0.58,2.27-1.19l0.28-0.27c3.32-3.17,8.57-3.05,11.75,0.26l0.26,0.28c1.56,1.64,4.19,1.7,5.83,0.14l1.1-1.05
						c3.26-3.09,8.5-2.99,11.64,0.21l0.43,0.44c1.57,1.6,4.18,1.64,5.8,0.09l0.32-0.3c0.1-0.1,0.26-0.09,0.35,0.01l2.54,2.66
						c0.1,0.1,0.09,0.26-0.01,0.35l-0.32,0.3c-3.26,3.11-8.51,3.03-11.67-0.18l-0.43-0.44c-1.56-1.59-4.17-1.64-5.79-0.1l-1.1,1.05
						c-3.3,3.13-8.57,3-11.72-0.29l-0.29-0.3c-0.6-0.63-1.36-1.13-2.21-1.29c-1.27-0.24-2.52,0.14-3.43,1.01l-0.37,0.36
						c-1.39,1.33-3.17,2.27-5.09,2.44c-2.44,0.21-4.76-0.65-6.45-2.36c-1.56-1.57-4.18-1.57-5.78-0.04l-0.86,0.82
						c-3.32,3.17-8.57,3.05-11.74-0.26l-0.24-0.25c-1.57-1.64-4.2-1.7-5.84-0.13l-0.44,0.42C45.32,42.12,43.24,42.85,41.17,42.81z"
						/>
				</g>
				<g>
					<path class="st2" d="M41.17,30.77c-1.98-0.04-3.95-0.81-5.46-2.29c-0.1-0.1-0.1-0.27,0-0.37l2.66-2.54
						c0.09-0.09,0.24-0.09,0.34,0c1.49,1.38,3.83,1.38,5.32-0.04l0.44-0.42c3.3-3.16,8.59-3.04,11.74,0.26l0.24,0.26
						c1.57,1.64,4.2,1.7,5.84,0.13l1.05-1.01c3.21-3.07,8.32-2.96,11.39,0.25c0.87,0.91,2.1,1.34,3.38,1.16
						c0.86-0.12,1.64-0.58,2.27-1.19l0.28-0.27c3.32-3.17,8.57-3.05,11.75,0.26l0.26,0.28c1.56,1.64,4.19,1.7,5.83,0.14l1.1-1.05
						c3.26-3.09,8.5-2.99,11.64,0.21l0.43,0.44c1.57,1.6,4.18,1.64,5.8,0.09l0.32-0.3c0.1-0.1,0.26-0.09,0.35,0.01l2.54,2.66
						c0.1,0.1,0.09,0.26-0.01,0.35l-0.32,0.3c-3.26,3.11-8.51,3.03-11.67-0.18l-0.43-0.44c-1.56-1.59-4.17-1.64-5.79-0.1l-1.1,1.05
						c-3.3,3.13-8.57,3-11.72-0.29l-0.29-0.3c-0.6-0.63-1.36-1.13-2.21-1.29c-1.27-0.24-2.52,0.14-3.43,1.01l-0.37,0.36
						c-1.39,1.33-3.17,2.27-5.09,2.44c-2.44,0.21-4.76-0.65-6.45-2.36c-1.56-1.57-4.18-1.57-5.78-0.04l-0.86,0.82
						c-3.32,3.17-8.57,3.05-11.74-0.26l-0.24-0.25c-1.57-1.64-4.2-1.7-5.84-0.13l-0.44,0.42C45.32,30.08,43.24,30.81,41.17,30.77z"
						/>
				</g>
				<g>
					<path class="st2" d="M41.17,55.41c-1.98-0.04-3.95-0.81-5.46-2.29c-0.1-0.1-0.1-0.27,0-0.37l2.66-2.54
						c0.09-0.09,0.24-0.09,0.34,0c1.49,1.38,3.83,1.38,5.32-0.04l0.44-0.42c3.3-3.16,8.59-3.04,11.74,0.26l0.24,0.26
						c1.57,1.64,4.2,1.7,5.84,0.13l1.05-1.01c3.21-3.07,8.32-2.96,11.39,0.25c0.87,0.91,2.1,1.34,3.38,1.16
						c0.86-0.12,1.64-0.58,2.27-1.19l0.28-0.27c3.32-3.17,8.57-3.05,11.75,0.26l0.26,0.28c1.56,1.64,4.19,1.7,5.83,0.14l1.1-1.05
						c3.26-3.09,8.5-2.99,11.64,0.21l0.43,0.44c1.57,1.6,4.18,1.64,5.8,0.09l0.32-0.3c0.1-0.1,0.26-0.09,0.35,0.01l2.54,2.66
						c0.1,0.1,0.09,0.26-0.01,0.35l-0.32,0.3c-3.26,3.11-8.51,3.03-11.67-0.18l-0.43-0.44c-1.56-1.59-4.17-1.64-5.79-0.1l-1.1,1.05
						c-3.3,3.13-8.57,3-11.72-0.29l-0.29-0.3c-0.6-0.63-1.36-1.13-2.21-1.29c-1.27-0.24-2.52,0.14-3.43,1.01l-0.37,0.36
						c-1.39,1.33-3.17,2.27-5.09,2.44c-2.44,0.21-4.76-0.65-6.45-2.36c-1.56-1.57-4.18-1.57-5.78-0.04l-0.86,0.82
						c-3.32,3.17-8.57,3.05-11.74-0.26L53.2,52.9c-1.57-1.64-4.2-1.7-5.84-0.13l-0.44,0.42C45.32,54.72,43.24,55.46,41.17,55.41z"/>
				</g>
				<g>
					<path class="st2" d="M41.17,67.25c-1.98-0.04-3.95-0.81-5.46-2.29c-0.1-0.1-0.1-0.27,0-0.37l2.66-2.54
						c0.09-0.09,0.24-0.09,0.34,0c1.49,1.38,3.83,1.38,5.32-0.04l0.44-0.42c3.3-3.16,8.59-3.04,11.74,0.26l0.24,0.26
						c1.57,1.64,4.2,1.7,5.84,0.13l1.05-1.01c3.21-3.07,8.32-2.96,11.39,0.25c0.87,0.91,2.1,1.34,3.38,1.16
						c0.86-0.12,1.64-0.58,2.27-1.19l0.28-0.27c3.32-3.17,8.57-3.05,11.75,0.26l0.26,0.28c1.56,1.64,4.19,1.7,5.83,0.14l1.1-1.05
						c3.26-3.09,8.5-2.99,11.64,0.21l0.43,0.44c1.57,1.6,4.18,1.64,5.8,0.09l0.32-0.3c0.1-0.1,0.26-0.09,0.35,0.01l2.54,2.66
						c0.1,0.1,0.09,0.26-0.01,0.35l-0.32,0.3c-3.26,3.11-8.51,3.03-11.67-0.18l-0.43-0.44c-1.56-1.59-4.17-1.64-5.79-0.1l-1.1,1.05
						c-3.3,3.13-8.57,3-11.72-0.29l-0.29-0.3c-0.6-0.63-1.36-1.13-2.21-1.29c-1.27-0.24-2.52,0.14-3.43,1.01l-0.37,0.36
						c-1.39,1.33-3.17,2.27-5.09,2.44c-2.44,0.21-4.76-0.65-6.45-2.36c-1.56-1.57-4.18-1.57-5.78-0.04l-0.86,0.82
						c-3.32,3.17-8.57,3.05-11.74-0.26l-0.24-0.25c-1.57-1.64-4.2-1.7-5.84-0.13l-0.44,0.42C45.32,66.55,43.24,67.29,41.17,67.25z"
						/>
				</g>
			</g>
			<line class="st12" x1="2.94" y1="3.82" x2="2.94" y2="103.37"/>
			<line class="st12" x1="309.1" y1="3.82" x2="309.1" y2="103.37"/>
			<line class="st12" x1="153.47" y1="3.82" x2="153.47" y2="103.37"/>
		</g>
		<g>
			<path class="st2" d="M36.84,89.48h0.96v7.61h4.78v0.89h-5.74V89.48z"/>
			<path class="st2" d="M46.62,89.48h0.96v8.49h-0.96V89.48z M47.93,87.17l0.96,0.44l-1.4,1.13h-0.78L47.93,87.17z"/>
			<path class="st2" d="M58.87,97.21c-0.72,0.57-1.63,0.91-2.68,0.91c-2.58,0-4.32-2.03-4.32-4.37v-0.02c0-2.34,1.76-4.39,4.34-4.39
				c2.58,0,4.32,2.03,4.32,4.37v0.02c0,1.07-0.36,2.07-1.02,2.85l1.13,0.93l-0.66,0.72L58.87,97.21z M58.16,96.59l-1.58-1.35
				l0.64-0.72l1.56,1.42c0.46-0.59,0.74-1.36,0.74-2.2v-0.02c0-1.93-1.41-3.51-3.35-3.51s-3.32,1.55-3.32,3.48v0.02
				c0,1.93,1.41,3.51,3.35,3.51C56.96,97.24,57.64,96.99,58.16,96.59z"/>
			<path class="st2" d="M64.6,94.42v-4.94h0.96v4.88c0,1.83,0.97,2.86,2.6,2.86c1.56,0,2.56-0.95,2.56-2.8v-4.94h0.96v4.86
				c0,2.47-1.42,3.76-3.54,3.76C66.03,98.11,64.6,96.82,64.6,94.42z"/>
			<path class="st2" d="M76.21,89.48h0.96v8.49h-0.96V89.48z"/>
			<path class="st2" d="M81.83,89.48h2.95c2.67,0,4.51,1.83,4.51,4.22v0.02c0,2.39-1.84,4.25-4.51,4.25h-2.95V89.48z M84.78,97.09
				c2.15,0,3.52-1.46,3.52-3.34v-0.02c0-1.88-1.37-3.36-3.52-3.36h-1.99v6.72H84.78z"/>
			<path class="st2" d="M93.12,93.75v-0.02c0-2.34,1.76-4.39,4.34-4.39c2.58,0,4.32,2.03,4.32,4.37v0.02c0,2.34-1.76,4.39-4.34,4.39
				C94.86,98.12,93.12,96.1,93.12,93.75z M100.79,93.75v-0.02c0-1.93-1.41-3.51-3.35-3.51s-3.32,1.55-3.32,3.48v0.02
				c0,1.93,1.41,3.51,3.35,3.51S100.79,95.68,100.79,93.75z"/>
			<path class="st2" d="M105.37,96.74l0.59-0.7c0.89,0.8,1.73,1.2,2.91,1.2c1.14,0,1.89-0.61,1.89-1.44v-0.02
				c0-0.79-0.42-1.24-2.21-1.61c-1.95-0.42-2.85-1.06-2.85-2.45v-0.02c0-1.33,1.18-2.32,2.79-2.32c1.24,0,2.12,0.35,2.98,1.04
				l-0.56,0.74c-0.79-0.64-1.58-0.92-2.45-0.92c-1.1,0-1.81,0.61-1.81,1.37v0.02c0,0.8,0.44,1.25,2.3,1.65
				c1.89,0.41,2.77,1.1,2.77,2.4v0.02c0,1.46-1.21,2.4-2.9,2.4C107.49,98.1,106.39,97.65,105.37,96.74z"/>
		</g>
		<g>
			<path class="st2" d="M197.02,96.74l0.59-0.7c0.89,0.8,1.73,1.2,2.91,1.2c1.14,0,1.89-0.61,1.89-1.44v-0.02
				c0-0.79-0.42-1.24-2.21-1.61c-1.95-0.42-2.85-1.06-2.85-2.45v-0.02c0-1.33,1.18-2.32,2.79-2.32c1.24,0,2.12,0.35,2.98,1.04
				l-0.56,0.74c-0.79-0.64-1.58-0.92-2.45-0.92c-1.1,0-1.81,0.61-1.81,1.37v0.02c0,0.8,0.44,1.25,2.3,1.65
				c1.89,0.41,2.77,1.1,2.77,2.4v0.02c0,1.46-1.21,2.4-2.9,2.4C199.15,98.1,198.04,97.65,197.02,96.74z"/>
			<path class="st2" d="M207.15,93.75v-0.02c0-2.34,1.76-4.39,4.34-4.39c2.58,0,4.32,2.03,4.32,4.37v0.02
				c0,2.34-1.76,4.39-4.34,4.39C208.88,98.12,207.15,96.1,207.15,93.75z M214.82,93.75v-0.02c0-1.93-1.41-3.51-3.35-3.51
				s-3.32,1.55-3.32,3.48v0.02c0,1.93,1.41,3.51,3.35,3.51S214.82,95.68,214.82,93.75z M212.3,87.05l0.96,0.44l-1.4,1.13h-0.78
				L212.3,87.05z"/>
			<path class="st2" d="M220.02,89.48h0.96v7.61h4.78v0.89h-5.74V89.48z"/>
			<path class="st2" d="M229.79,89.48h0.96v8.49h-0.96V89.48z"/>
			<path class="st2" d="M235.42,89.48h2.95c2.67,0,4.51,1.83,4.51,4.22v0.02c0,2.39-1.84,4.25-4.51,4.25h-2.95V89.48z M238.36,97.09
				c2.15,0,3.52-1.46,3.52-3.34v-0.02c0-1.88-1.37-3.36-3.52-3.36h-1.99v6.72H238.36z"/>
			<path class="st2" d="M246.71,93.75v-0.02c0-2.34,1.76-4.39,4.34-4.39c2.58,0,4.32,2.03,4.32,4.37v0.02
				c0,2.34-1.76,4.39-4.34,4.39C248.44,98.12,246.71,96.1,246.71,93.75z M254.37,93.75v-0.02c0-1.93-1.41-3.51-3.35-3.51
				s-3.32,1.55-3.32,3.48v0.02c0,1.93,1.41,3.51,3.35,3.51S254.37,95.68,254.37,93.75z"/>
			<path class="st2" d="M258.96,96.74l0.59-0.7c0.89,0.8,1.73,1.2,2.91,1.2c1.14,0,1.89-0.61,1.89-1.44v-0.02
				c0-0.79-0.42-1.24-2.21-1.61c-1.95-0.42-2.85-1.06-2.85-2.45v-0.02c0-1.33,1.18-2.32,2.79-2.32c1.24,0,2.12,0.35,2.98,1.04
				l-0.56,0.74c-0.79-0.64-1.58-0.92-2.45-0.92c-1.1,0-1.81,0.61-1.81,1.37v0.02c0,0.8,0.44,1.25,2.3,1.65
				c1.89,0.41,2.77,1.1,2.77,2.4v0.02c0,1.46-1.21,2.4-2.9,2.4C261.08,98.1,259.97,97.65,258.96,96.74z"/>
		</g>
	</g>
</g>
<g id="cont">
</g>
<g id="EMPRESA">
</g>
<g id="SERVICIOS-terminal">
</g>
<g id="SERVICIO-lab">
</g>
<g id="SERV-transp-terrestre">
</g>
<g id="SERV-opera-solidos">
</g>
<g id="COMEX">
</g>
<g id="CONTACTO">
</g>
<g id="COMPROMISO">
</g>
<g id="Capa_19" class="st37">
</g>
<g id="TERMINAL">
</g>
<g id="servicios3">
</g>
<g id="servicios2">
</g>
<g id="servicios1">
</g>
<g id="Capa_10">
</g>
<g id="solapa-servicio">
</g>
<g id="top">
</g>
<g id="esqueletoi">
</g>
<g id="guias">
</g>
</svg>
