<?xml version="1.0" encoding="utf-8"?>
<!-- Generator: Adobe Illustrator 27.9.0, SVG Export Plug-In . SVG Version: 6.00 Build 0)  -->
<svg version="1.1" xmlns="http://www.w3.org/2000/svg" xmlns:xlink="http://www.w3.org/1999/xlink" x="0px" y="0px"
	 viewBox="0 0 175.76 198.8" style="enable-background:new 0 0 175.76 198.8;" xml:space="preserve">
<style type="text/css">
	.st0{fill:#8F8F8F;}
	.st1{fill:#6E6E6E;}
	.st2{fill:#FFFFFF;}
	.st3{clip-path:url(#SVGID_00000147902265332113482660000017263208811609650095_);}
	.st4{fill:#878787;}
	.st5{fill:#4C4C4A;}
	.st6{fill:#858658;}
	.st7{fill:#1BB09D;}
	.st8{fill:#4CABCB;}
	.st9{fill:#737373;}
	.st10{fill:#4FA98B;}
	.st11{fill:#2276BB;}
	.st12{fill:none;stroke:#FFFFFF;stroke-width:0.25;stroke-miterlimit:10;}
	.st13{clip-path:url(#SVGID_00000101791472691059800600000003625891098025108889_);}
	.st14{clip-path:url(#SVGID_00000068653565274661103620000011764355260596837029_);}
	.st15{clip-path:url(#SVGID_00000052093852510922288090000002865084894115346315_);}
	.st16{clip-path:url(#SVGID_00000008139719736195289750000000288329859370756273_);}
	.st17{clip-path:url(#SVGID_00000167394539530255276860000011593414158281107338_);}
	.st18{clip-path:url(#SVGID_00000108281935871139609920000015442929617360469386_);}
	.st19{clip-path:url(#SVGID_00000132075532259159670690000011067718085103443365_);}
	.st20{clip-path:url(#SVGID_00000052088049254048145870000007327987774030286262_);}
	.st21{clip-path:url(#SVGID_00000168108652678305401390000013214702775828057255_);}
	
		.st22{clip-path:url(#SVGID_00000079468777593319266290000013172311723517255063_);fill:url(#SVGID_00000136379637455044453740000001437684461360079024_);}
	.st23{fill:#003DA6;stroke:#003DA6;stroke-width:0.25;stroke-miterlimit:10;}
	.st24{fill:none;stroke:#003DA6;stroke-width:0.3;stroke-miterlimit:10;}
	.st25{fill:#FFFFFF;stroke:#ABABAB;stroke-width:0.3093;stroke-miterlimit:10;}
	.st26{fill:none;stroke:#003DA6;stroke-width:0.5024;stroke-miterlimit:10;}
	.st27{fill:#FFFFFF;stroke:#003DA6;stroke-width:0.3467;stroke-miterlimit:10;}
	.st28{opacity:0.5;fill:url(#SVGID_00000096033159448722664320000011541366136019140524_);}
	.st29{fill:url(#SVGID_00000017494946358476559670000002503733399377447568_);}
	.st30{fill:#E4F4F9;}
	.st31{fill:#003DA6;}
	.st32{fill:#003DA6;stroke:#FFFFFF;stroke-width:0.2257;stroke-miterlimit:10;}
	.st33{fill:#FFFFFF;stroke:#003DA6;stroke-width:0.2257;stroke-miterlimit:10;}
	.st34{fill:#FFFFFF;stroke:#ABABAB;stroke-width:0.3504;stroke-miterlimit:10;}
	.st35{fill-rule:evenodd;clip-rule:evenodd;fill:#FFFFFF;stroke:#ABABAB;stroke-width:0.4053;stroke-miterlimit:10;}
	.st36{fill:#FFFFFF;stroke:#ABABAB;stroke-width:0.4053;stroke-miterlimit:10;}
	.st37{opacity:0.7;fill:url(#SVGID_00000153707670828402388780000017085426620518557353_);}
	.st38{opacity:0.5;fill:#4C4C4A;}
	.st39{opacity:0.5;fill:#858658;}
	.st40{opacity:0.5;fill:#1BB09D;}
	.st41{opacity:0.5;fill:#4CABCB;}
	.st42{opacity:0.5;fill:#737373;}
	.st43{opacity:0.5;fill:#2276BB;}
	.st44{fill:none;stroke:#003DA6;stroke-width:0.2224;stroke-miterlimit:10;}
	.st45{fill:#FFFFFF;stroke:#003DA6;stroke-width:0.2835;stroke-miterlimit:10;}
	.st46{fill:none;stroke:#003DA6;stroke-width:0.1864;stroke-linecap:round;stroke-miterlimit:1;}
	.st47{fill:#FFFFFF;stroke:#003DA6;stroke-width:0.1;stroke-miterlimit:10;}
	.st48{fill:none;stroke:#003DA6;stroke-width:0.2835;stroke-miterlimit:10;}
	.st49{fill:#575757;}
	.st50{clip-path:url(#SVGID_00000098215872759899020860000013560810926913967764_);}
	.st51{opacity:0.7;fill:url(#SVGID_00000029009517938114732560000004416719254312185784_);}
	.st52{fill:none;stroke:#003DA6;stroke-width:0.25;stroke-miterlimit:10;}
	.st53{fill:#1C3F81;}
	.st54{fill:none;stroke:#949494;stroke-width:0.25;stroke-miterlimit:10;}
	.st55{clip-path:url(#SVGID_00000178886623634954284030000015390028187773901990_);}
	.st56{fill:#43B6A5;}
	.st57{fill:#25745C;}
	.st58{clip-path:url(#SVGID_00000062153939821291877420000003063853528834723731_);}
	.st59{fill:url(#SVGID_00000059279126746158290500000018030961471254320262_);}
	.st60{fill:url(#SVGID_00000079482492745241792440000015886429924659905941_);}
	.st61{fill:none;stroke:#FFFFFF;stroke-width:2;stroke-linecap:round;stroke-miterlimit:10;}
	.st62{clip-path:url(#SVGID_00000181057527147943596650000009043681194690060452_);}
	.st63{fill:#003DA6;stroke:#FFFFFF;stroke-width:0.1346;stroke-miterlimit:10;}
	.st64{fill:#141414;}
	.st65{stroke:#FFFFFF;stroke-width:0.1346;stroke-miterlimit:10;}
	.st66{clip-path:url(#SVGID_00000165912916105855910200000012560977790955864501_);}
	.st67{opacity:0.18;}
	.st68{fill:#089F91;}
	.st69{opacity:0.18;fill:#BADDE9;}
	.st70{fill:#F5F4EF;stroke:#FFFFFF;stroke-width:1.8244;stroke-miterlimit:10;}
	.st71{opacity:0.65;fill:#858658;}
	.st72{fill:#C3DFF5;}
	.st73{opacity:0.63;}
	.st74{fill:#9C9B9B;}
	.st75{fill:#A9A9A9;}
	.st76{fill:#35350B;}
	.st77{fill:none;stroke:#FFFFFF;stroke-width:0.1824;stroke-linecap:round;stroke-linejoin:round;stroke-miterlimit:10;}
	.st78{opacity:0.64;}
	.st79{fill:#F5F4EF;}
	.st80{clip-path:url(#SVGID_00000055672615944626856760000013131036999874750879_);}
	.st81{fill:#F5F4EF;stroke:#FFFFFF;stroke-width:1.2815;stroke-miterlimit:10;}
	.st82{opacity:0.65;}
	.st83{fill:none;stroke:#FFFFFF;stroke-width:0.1281;stroke-linecap:round;stroke-linejoin:round;stroke-miterlimit:10;}
	.st84{fill:#1D1D1B;}
	
		.st85{opacity:0.4;clip-path:url(#SVGID_00000140016226638948883890000007893546460159725195_);fill:url(#SVGID_00000116938648245243768390000001119809364718474895_);}
	.st86{fill:#45CFDA;}
	.st87{clip-path:url(#SVGID_00000181784320388080868090000008416139929015995024_);}
	.st88{clip-path:url(#SVGID_00000125571726685869041130000011340379009088546722_);}
	.st89{fill:#FFFFFF;stroke:#ABABAB;stroke-width:0.4901;stroke-miterlimit:10;}
	.st90{fill:url(#SVGID_00000096760618182438293150000006522911368398623396_);}
	.st91{fill-rule:evenodd;clip-rule:evenodd;fill:#FFFFFF;stroke:#ABABAB;stroke-width:0.2763;stroke-miterlimit:10;}
	.st92{fill:#FFFFFF;stroke:#ABABAB;stroke-width:0.2763;stroke-miterlimit:10;}
	.st93{fill:#0A0A0A;}
	.st94{opacity:0.5;}
	.st95{fill:#565630;}
	.st96{fill:#A2E3F4;}
	.st97{fill:#454545;}
	.st98{fill:none;stroke:#454545;stroke-width:0.5151;stroke-miterlimit:10;}
	.st99{clip-path:url(#SVGID_00000019661936966647075300000015833708622361155712_);}
	.st100{clip-path:url(#SVGID_00000089565281414008249680000003643294441473413294_);}
	.st101{fill:none;stroke:#787878;stroke-width:0.2794;stroke-miterlimit:10;}
	.st102{fill:none;stroke:#787878;stroke-width:0.2073;stroke-miterlimit:10;}
	.st103{fill:none;stroke:#A7B972;stroke-width:0.2557;stroke-miterlimit:10;}
	.st104{fill:none;stroke:#A7B972;stroke-width:0.1622;stroke-miterlimit:10;}
	
		.st105{clip-path:url(#SVGID_00000124155551821478196640000006458694074320344490_);fill:url(#SVGID_00000126309647797991772040000012721964803768342186_);}
	.st106{clip-path:url(#SVGID_00000105416351430467371460000013851713249113488286_);}
	.st107{clip-path:url(#SVGID_00000008836405770250044110000015209309984001673869_);}
	.st108{clip-path:url(#SVGID_00000106132974757220556470000015185022235302351785_);}
	.st109{clip-path:url(#SVGID_00000103237481700754809800000017633929106122280099_);}
	.st110{clip-path:url(#SVGID_00000072256546618653273280000007216677539627560864_);}
	.st111{fill:url(#SVGID_00000147182124907964939590000010256087012287232434_);}
	.st112{opacity:0.27;fill:#BADDE9;}
	.st113{clip-path:url(#SVGID_00000100340994637375319590000000328058914857239704_);}
	.st114{opacity:0.29;}
	
		.st115{clip-path:url(#SVGID_00000134932180444164437930000007036573256973370263_);fill:url(#SVGID_00000104683431062319707300000002708744488380374715_);}
	.st116{opacity:0.71;}
	.st117{clip-path:url(#SVGID_00000144337679477283078960000006914312448572026294_);}
	.st118{clip-path:url(#SVGID_00000178915922443401952680000008652673988219285653_);}
	.st119{clip-path:url(#SVGID_00000020368869849555843050000013628097504938536352_);}
	.st120{fill:none;stroke:#575757;stroke-miterlimit:10;}
	.st121{fill:none;stroke:#575757;stroke-width:0.5;stroke-miterlimit:10;}
	.st122{fill:#D1D1D1;stroke:#828282;stroke-width:0.1864;stroke-linecap:round;stroke-miterlimit:1;}
	.st123{fill:#FFFFFF;stroke:#828282;stroke-width:0.1864;stroke-linecap:round;stroke-miterlimit:1;}
	.st124{fill:#828282;stroke:#424242;stroke-width:0.5;stroke-miterlimit:1;}
	.st125{fill:none;stroke:#828282;stroke-width:0.1864;stroke-linecap:round;stroke-miterlimit:1;}
	.st126{fill:none;stroke:#1C1C1C;stroke-width:0.1864;stroke-linecap:round;stroke-miterlimit:1;}
	.st127{fill:none;stroke:#828282;stroke-width:0.75;stroke-linecap:round;stroke-miterlimit:1;}
	.st128{fill:none;stroke:#292929;stroke-width:0.75;stroke-linecap:round;stroke-miterlimit:1;}
	.st129{fill:#363636;}
	.st130{fill:none;stroke:#3D3D3D;stroke-width:0.1864;stroke-linecap:round;stroke-miterlimit:1;}
	.st131{fill:none;stroke:#BDBDBD;stroke-width:0.75;stroke-miterlimit:10;}
	.st132{opacity:0.27;fill:#E8E8E8;}
	.st133{fill:none;stroke:#003DA6;stroke-width:0.1794;stroke-miterlimit:10;}
	.st134{clip-path:url(#SVGID_00000110436060923129898250000015485736041788193720_);}
	.st135{fill:#1F1F1F;}
	.st136{clip-path:url(#SVGID_00000073694701199708686940000016643371864506593684_);}
	.st137{clip-path:url(#SVGID_00000135664570554765176760000013750226332393408904_);}
	.st138{clip-path:url(#SVGID_00000095336109720272718840000010191417180110497946_);}
	.st139{clip-path:url(#SVGID_00000070832987003091687800000014542385811231325349_);}
	.st140{fill:url(#SVGID_00000077283956770523756840000002311481070394708380_);}
	.st141{fill:#C0E3EA;}
	.st142{fill:#27745C;}
	.st143{fill:#4D4D4D;}
	.st144{clip-path:url(#SVGID_00000119078099783526572010000001588121427690046902_);}
	.st145{fill:none;stroke:#4DABCB;stroke-width:2;stroke-miterlimit:10;}
	.st146{fill:none;stroke:#27745C;stroke-width:3;stroke-miterlimit:10;}
	.st147{fill:url(#SVGID_00000145034201592997172900000017602509292374716321_);}
	.st148{fill:url(#SVGID_00000068645859239344464640000014997514417835509395_);}
	.st149{fill:#706F6F;}
	.st150{fill:none;}
	.st151{fill:url(#SVGID_00000179642153023065092940000011977983697418629510_);}
	.st152{fill:none;stroke:#4DABCB;stroke-width:2;stroke-linecap:round;stroke-miterlimit:10;}
	.st153{fill:url(#SVGID_00000176752186245147044960000006210866841174598277_);}
	.st154{clip-path:url(#SVGID_00000080176972507782878830000013365558706685521336_);}
	.st155{opacity:0.35;fill:#1C3F81;}
	.st156{clip-path:url(#SVGID_00000166651246232688189010000009491012439564697513_);}
	.st157{clip-path:url(#SVGID_00000170278072791388867870000016867033765301206403_);}
	.st158{opacity:0.29;fill:#4C1608;}
	.st159{clip-path:url(#SVGID_00000058564207865726139960000015234358862123020944_);}
	.st160{opacity:0.29;fill:#054096;}
	.st161{clip-path:url(#SVGID_00000040570115802618526390000006338567304841194131_);}
	.st162{clip-path:url(#SVGID_00000111902471058618846190000013901761921032907196_);}
	.st163{opacity:0.23;fill:#95A71A;}
	.st164{fill:#799B1C;}
	.st165{opacity:0.5;fill:url(#SVGID_00000003076891938152007170000001517512531124972965_);}
	
		.st166{clip-path:url(#SVGID_00000175308569161472869600000016299259550382737554_);fill:url(#SVGID_00000123426695170782033070000006500200008451031999_);}
	
		.st167{clip-path:url(#SVGID_00000171690827438538808290000016080312670164490389_);fill:url(#SVGID_00000053506506612801212260000008197593530183052416_);}
	.st168{display:none;}
	.st169{clip-path:url(#SVGID_00000013907466275482239470000018234258087774657189_);}
	.st170{clip-path:url(#SVGID_00000083071577863637086910000011465103419140938139_);}
	.st171{opacity:0.57;fill:#BADDE9;}
	.st172{opacity:0.54;fill:#1C3F81;}
	.st173{clip-path:url(#SVGID_00000145029025803230027140000011971071365286378114_);}
	.st174{clip-path:url(#SVGID_00000005245299463636002100000012006134913995666623_);}
	.st175{fill:url(#SVGID_00000086678874718002057390000008497840950561247165_);}
	.st176{fill:url(#SVGID_00000171696195795027495950000017742792481191525795_);}
	.st177{clip-path:url(#SVGID_00000065782250705904651700000018028754039335677600_);}
	.st178{clip-path:url(#SVGID_00000153673175344064762240000010904721143154655657_);}
	.st179{fill:none;stroke:#FFFFFF;stroke-width:0.75;stroke-miterlimit:10;}
	.st180{fill:none;stroke:#FFFFFF;stroke-width:0.7503;stroke-miterlimit:10;}
	.st181{clip-path:url(#SVGID_00000109023159708181264920000000265205990253824387_);fill:#FFFFFF;}
	.st182{fill:none;stroke:#2276BB;stroke-width:0.1;stroke-miterlimit:10;}
	.st183{fill:none;stroke:#FFFFFF;stroke-width:0.5;stroke-miterlimit:10;}
	.st184{clip-path:url(#SVGID_00000080178258432815692010000008526808551788528554_);fill:#FFFFFF;}
	.st185{clip-path:url(#SVGID_00000038406452646453819730000010736923225851266470_);fill:#FFFFFF;}
	.st186{clip-path:url(#SVGID_00000004515697948811455550000001120978631572597406_);fill:#FFFFFF;}
	.st187{fill:url(#SVGID_00000124126451899767177130000014696117958344279737_);}
	.st188{fill:none;stroke:#003DA6;stroke-width:0.2543;stroke-linecap:round;stroke-miterlimit:10;}
	.st189{fill:#BEE2E9;}
	.st190{fill:#7FA6E5;}
	.st191{opacity:0.97;fill:#71D4FF;}
</style>
<g id="iconos-fondo">
</g>
<g id="footer">
</g>
<g id="fondo">
</g>
<g id="detacado-foto">
</g>
<g id="bloque_1-A">
</g>
<g id="bloque_1_B">
</g>
<g id="destacado">
</g>
<g id="destacado-hidro">
</g>
<g id="destacado-camion">
</g>
<g id="cont">
</g>
<g id="EMPRESA">
</g>
<g id="SERVICIOS-terminal">
</g>
<g id="SERVICIO-lab">
</g>
<g id="SERV-transp-terrestre">
</g>
<g id="SERV-opera-solidos">
</g>
<g id="COMEX">
</g>
<g id="CONTACTO">
</g>
<g id="COMPROMISO">
</g>
<g id="Capa_19" class="st168">
</g>
<g id="TERMINAL">
</g>
<g id="servicios3">
</g>
<g id="servicios2">
</g>
<g id="servicios1">
</g>
<g id="Capa_10">
</g>
<g id="solapa-servicio">
</g>
<g id="top">
	<g>
		<g>
			<path class="st122" d="M93.16,7.59h-3.59c-0.28,0-0.5,0.23-0.5,0.5v25.38c0,0.28,0.23,0.5,0.5,0.5h3.59c0.28,0,0.5-0.23,0.5-0.5
				V8.09C93.66,7.81,93.44,7.59,93.16,7.59z"/>
			<path class="st123" d="M91.05,32.64V8.92c0-0.73,0.58-1.31,1.3-1.33c-0.01,0-0.02-0.01-0.03-0.01H90.4
				c-0.74,0-1.33,0.6-1.33,1.33v23.72c0,0.74,0.6,1.33,1.33,1.33h1.93c0.01,0,0.02-0.01,0.03-0.01
				C91.63,33.95,91.05,33.37,91.05,32.64z"/>
			<path class="st124" d="M110.76,16.74h-38.4c-0.62,0-1.12-0.5-1.12-1.12V10.2c0-0.62,0.5-1.12,1.12-1.12h38.4
				c0.62,0,1.12,0.5,1.12,1.12v5.41C111.88,16.23,111.38,16.74,110.76,16.74z"/>
			<path class="st123" d="M108.06,13.04H73.99c-0.81,0-1.48-0.67-1.48-1.48l0,0c0-0.81,0.66-1.48,1.48-1.48h34.07
				c0.81,0,1.48,0.67,1.48,1.48l0,0C109.54,12.37,108.87,13.04,108.06,13.04z"/>
		</g>
		<path class="st125" d="M48.59,186.71h-6.68V97.22c0-5.68,4.62-10.3,10.3-10.3h43.3v6.68h-43.3c-2,0-3.62,1.62-3.62,3.62V186.71z"
			/>
		<g>
			<path class="st125" d="M124.85,186.71h-6.68V96.69c0-1.71-1.39-3.1-3.1-3.1H85.73v-36.6h6.68v29.92h22.66
				c5.39,0,9.78,4.39,9.78,9.78V186.71z"/>
			<path class="st125" d="M93.01,91.22c-2.75,0-4.97-2.23-4.97-4.97V70.77c0-0.81,0.52-1.53,1.29-1.79l3.08-1.02h-6.68v18.95H85.7
				l0,0c0,2.38-1.93,4.31-4.31,4.31H51.36c-3.15,0-5.71,2.55-5.71,5.71v89.78h2.94V97.22c0-2,1.62-3.62,3.62-3.62h33.52h9.78h19.57
				c1.71,0,3.1,1.39,3.1,3.1v90.01h2.09V96.23c0-2.77-2.24-5.01-5.01-5.01H93.01z"/>
		</g>
		<g>
			<path class="st125" d="M71.23,186.71H53.41v-41.02c0-14.82,12.06-26.88,26.88-26.88h56.02c5,0,9.06-4.06,9.06-9.06v-35.9
				c0-5-4.06-9.06-9.06-9.06H45.79c-5,0-9.06,4.06-9.06,9.06v112.86H18.91V73.85c0-14.82,12.06-26.88,26.88-26.88h90.52
				c14.82,0,26.88,12.06,26.88,26.88v35.9c0,14.82-12.06,26.88-26.88,26.88H80.29c-5,0-9.06,4.06-9.06,9.06V186.71z"/>
			<path class="st125" d="M45.79,64.79h90.52c5,0,9.06,4.06,9.06,9.06v35.9c0,5-4.06,9.06-9.06,9.06h-4.65l0.29,4.82l5.74-0.29
				c8.16-0.41,14.57-7.15,14.57-15.32V72.58c0-8.61-6.98-15.58-15.58-15.58H45.65c-9.84,0-17.81,7.97-17.81,17.81V186.7l8.89,0.01
				V73.85C36.73,68.84,40.79,64.79,45.79,64.79z"/>
			<path class="st125" d="M80.29,136.63h51.65l1.11-8.81H80.8c-10.03,0-18.17,8.13-18.17,18.17v40.73h8.6v-41.02
				C71.23,140.68,75.29,136.63,80.29,136.63z"/>
		</g>
		<g>
			<path class="st123" d="M133.14,133.36h-9.89c0.04-0.38,0.07-0.79,0.07-1.23c0-7.68-6.23-13.91-13.9-13.91s-13.9,6.23-13.9,13.91
				c0,0.44,0.03,0.85,0.07,1.23H88c-2.69,0-4.89-2.2-4.89-4.89V135c0,2.69,2.2,4.89,4.89,4.89h45.14c2.69,0,4.89-2.2,4.89-4.89
				v-6.54C138.04,131.15,135.83,133.36,133.14,133.36z"/>
		</g>
		<path class="st125" d="M110.57,107.49c-11.22,0-20.32,9.1-20.32,20.32c0,11.22,9.1,20.32,20.32,20.32s20.32-9.1,20.32-20.32
			C130.89,116.59,121.79,107.49,110.57,107.49z M121.93,125.96h-7.13c-0.45-0.86-1.15-1.55-2-2v-7.38c0-1.15,1.13-2.02,2.22-1.64
			c4.08,1.41,7.28,4.71,8.56,8.84C123.92,124.86,123.06,125.96,121.93,125.96z M108.34,116.57v7.38c-0.86,0.45-1.55,1.15-2,2h-7.13
			c-1.13,0-1.99-1.1-1.65-2.18c1.28-4.14,4.49-7.43,8.56-8.84C107.21,114.56,108.34,115.42,108.34,116.57z M99.47,130.41h6.87
			c0.45,0.86,1.15,1.55,2,2v6.63c0,1.16-1.15,2.02-2.25,1.64c-3.78-1.32-6.81-4.25-8.25-7.97C97.42,131.6,98.28,130.41,99.47,130.41
			z M112.8,139.04v-6.63c0.86-0.45,1.55-1.15,2-2h6.87c1.18,0,2.05,1.19,1.62,2.3c-1.44,3.72-4.46,6.66-8.24,7.97
			C113.95,141.06,112.8,140.21,112.8,139.04z"/>
		<rect x="4.35" y="186.71" class="st125" width="167.38" height="11.14"/>
		<g class="st78">
			<path class="st124" d="M113.98,67.96H68.12c-0.96,0-1.75-0.79-1.75-1.75V45.54c0-0.96,0.79-1.75,1.75-1.75h45.86
				c0.96,0,1.75,0.79,1.75,1.75v20.67C115.73,67.18,114.95,67.96,113.98,67.96z"/>
			<path class="st124" d="M111.09,62.82H71.01c-2.55,0-4.64-2.09-4.64-4.64v5.15c0,2.55,2.09,4.64,4.64,4.64h40.08
				c2.55,0,4.64-2.09,4.64-4.64v-5.15C115.73,60.73,113.65,62.82,111.09,62.82z"/>
			<path class="st124" d="M111.4,50.94H71.16c-1.42,0-2.59-1.16-2.59-2.59l0,0c0-1.42,1.16-2.59,2.59-2.59h40.25
				c1.42,0,2.59,1.16,2.59,2.59l0,0C113.99,49.78,112.83,50.94,111.4,50.94z"/>
		</g>
		<g>
			<rect x="73.93" y="37.26" class="st125" width="34.24" height="6.53"/>
			<path class="st125" d="M73.93,37.26l1.58,2.24c0.96,1.36,2.53,2.18,4.2,2.18h28.45v2.12H73.93V37.26z"/>
		</g>
		<g>
			<rect x="81.1" y="27.94" class="st125" width="19.9" height="9.32"/>
			<path class="st125" d="M81.1,27.94l3.6,4.51c1.18,1.49,2.98,2.35,4.88,2.35H101v2.45H81.1V27.94z"/>
		</g>
		<g>
			<path class="st123" d="M110.57,111.11c10.61,0,19.31,8.14,20.23,18.51c0.05-0.6,0.09-1.2,0.09-1.81
				c0-11.22-9.1-20.32-20.32-20.32s-20.32,9.1-20.32,20.32c0,0.61,0.04,1.21,0.09,1.81C91.26,119.25,99.96,111.11,110.57,111.11z"/>
		</g>
		<path class="st125" d="M113.91,127.41c0,1.84-1.5,3.34-3.34,3.34c-1.84,0-3.34-1.5-3.34-3.34c0-1.84,1.5-3.34,3.34-3.34
			C112.42,124.07,113.91,125.56,113.91,127.41z"/>
	</g>
</g>
<g id="esqueletoi">
</g>
<g id="guias">
</g>
</svg>
