<?xml version="1.0" encoding="utf-8"?>
<!-- Generator: Adobe Illustrator 27.9.0, SVG Export Plug-In . SVG Version: 6.00 Build 0)  -->
<svg version="1.1" xmlns="http://www.w3.org/2000/svg" xmlns:xlink="http://www.w3.org/1999/xlink" x="0px" y="0px"
	 viewBox="0 0 611.5 106.16" style="enable-background:new 0 0 611.5 106.16;" xml:space="preserve">
<style type="text/css">
	.st0{fill:#8F8F8F;}
	.st1{fill:#6E6E6E;}
	.st2{fill:#FFFFFF;}
	.st3{clip-path:url(#SVGID_00000098194439237338328550000008140375195207063969_);}
	.st4{fill:#878787;}
	.st5{fill:#4C4C4A;}
	.st6{fill:#858658;}
	.st7{fill:#1BB09D;}
	.st8{fill:#4CABCB;}
	.st9{fill:#737373;}
	.st10{fill:#4FA98B;}
	.st11{fill:#2276BB;}
	.st12{fill:none;stroke:#FFFFFF;stroke-width:0.25;stroke-miterlimit:10;}
	.st13{clip-path:url(#SVGID_00000182506762599262948020000007419577145048611758_);}
	.st14{clip-path:url(#SVGID_00000165925821194194119600000011857155894753496744_);}
	.st15{clip-path:url(#SVGID_00000014628228382634713110000004193085271078255232_);}
	.st16{clip-path:url(#SVGID_00000118381367437277798730000008020589467953165726_);}
	.st17{clip-path:url(#SVGID_00000166672216702624304770000008412011473784215694_);}
	.st18{clip-path:url(#SVGID_00000052079150246208447370000014527096153476694699_);}
	.st19{clip-path:url(#SVGID_00000109719192208844834000000013938842391331142306_);}
	.st20{clip-path:url(#SVGID_00000167398405173640099540000017631978508408935056_);}
	.st21{clip-path:url(#SVGID_00000160887006116024842080000006413930194542878374_);}
	
		.st22{clip-path:url(#SVGID_00000144337544302325062060000001572577647878932890_);fill:url(#SVGID_00000154413840750859069900000008492418541406172571_);}
	.st23{fill:#003DA6;stroke:#003DA6;stroke-width:0.25;stroke-miterlimit:10;}
	.st24{fill:none;stroke:#003DA6;stroke-width:0.3;stroke-miterlimit:10;}
	.st25{fill:#FFFFFF;stroke:#ABABAB;stroke-width:0.3093;stroke-miterlimit:10;}
	.st26{fill:none;stroke:#003DA6;stroke-width:0.5024;stroke-miterlimit:10;}
	.st27{fill:#FFFFFF;stroke:#003DA6;stroke-width:0.3467;stroke-miterlimit:10;}
	.st28{opacity:0.5;fill:url(#SVGID_00000034052125043333783880000017399346561289337514_);}
	.st29{fill:url(#SVGID_00000168803291862265452420000009653227390282237342_);}
	.st30{fill:#E4F4F9;}
	.st31{fill:#003DA6;}
	.st32{fill:#003DA6;stroke:#FFFFFF;stroke-width:0.2257;stroke-miterlimit:10;}
	.st33{fill:#FFFFFF;stroke:#003DA6;stroke-width:0.2257;stroke-miterlimit:10;}
	.st34{fill:#FFFFFF;stroke:#ABABAB;stroke-width:0.3504;stroke-miterlimit:10;}
	.st35{fill-rule:evenodd;clip-rule:evenodd;fill:#FFFFFF;stroke:#ABABAB;stroke-width:0.4053;stroke-miterlimit:10;}
	.st36{fill:#FFFFFF;stroke:#ABABAB;stroke-width:0.4053;stroke-miterlimit:10;}
	.st37{opacity:0.7;fill:url(#SVGID_00000145030515753162551540000006236889289052769683_);}
	.st38{opacity:0.5;fill:#4C4C4A;}
	.st39{opacity:0.5;fill:#858658;}
	.st40{opacity:0.5;fill:#1BB09D;}
	.st41{opacity:0.5;fill:#4CABCB;}
	.st42{opacity:0.5;fill:#737373;}
	.st43{opacity:0.5;fill:#2276BB;}
	.st44{fill:none;stroke:#003DA6;stroke-width:0.2224;stroke-miterlimit:10;}
	.st45{fill:#FFFFFF;stroke:#003DA6;stroke-width:0.2835;stroke-miterlimit:10;}
	.st46{fill:none;stroke:#003DA6;stroke-width:0.1864;stroke-linecap:round;stroke-miterlimit:1;}
	.st47{fill:#FFFFFF;stroke:#003DA6;stroke-width:0.1;stroke-miterlimit:10;}
	.st48{fill:none;stroke:#003DA6;stroke-width:0.2835;stroke-miterlimit:10;}
	.st49{fill:#575757;}
	.st50{clip-path:url(#SVGID_00000126302610927062694340000004707938481065661576_);}
	.st51{opacity:0.7;fill:url(#SVGID_00000099643314123742530980000017900236561630166920_);}
	.st52{fill:none;stroke:#003DA6;stroke-width:0.25;stroke-miterlimit:10;}
	.st53{fill:#1C3F81;}
	.st54{fill:none;stroke:#949494;stroke-width:0.25;stroke-miterlimit:10;}
	.st55{clip-path:url(#SVGID_00000069364118678409285270000004784245778490120624_);}
	.st56{fill:#43B6A5;}
	.st57{fill:#25745C;}
	.st58{clip-path:url(#SVGID_00000015346870177601073330000007808817025505217920_);}
	.st59{fill:url(#SVGID_00000019664284110373322760000011976807346049964714_);}
	.st60{fill:url(#SVGID_00000132057079791300930110000009524074485846525887_);}
	.st61{fill:none;stroke:#FFFFFF;stroke-width:2;stroke-linecap:round;stroke-miterlimit:10;}
	.st62{clip-path:url(#SVGID_00000085245752052836449360000006314183556513848204_);}
	.st63{fill:#003DA6;stroke:#FFFFFF;stroke-width:0.1346;stroke-miterlimit:10;}
	.st64{fill:#141414;}
	.st65{stroke:#FFFFFF;stroke-width:0.1346;stroke-miterlimit:10;}
	.st66{clip-path:url(#SVGID_00000165196303661706047520000018230879990788689342_);}
	.st67{opacity:0.18;}
	.st68{fill:#089F91;}
	.st69{opacity:0.18;fill:#BADDE9;}
	.st70{fill:#F5F4EF;stroke:#FFFFFF;stroke-width:1.8244;stroke-miterlimit:10;}
	.st71{opacity:0.65;fill:#858658;}
	.st72{fill:#C3DFF5;}
	.st73{opacity:0.63;}
	.st74{fill:#9C9B9B;}
	.st75{fill:#A9A9A9;}
	.st76{fill:#35350B;}
	.st77{fill:none;stroke:#FFFFFF;stroke-width:0.1824;stroke-linecap:round;stroke-linejoin:round;stroke-miterlimit:10;}
	.st78{opacity:0.64;}
	.st79{fill:#F5F4EF;}
	.st80{clip-path:url(#SVGID_00000093175494324279045210000005959454119756783784_);}
	.st81{fill:#F5F4EF;stroke:#FFFFFF;stroke-width:1.2815;stroke-miterlimit:10;}
	.st82{opacity:0.65;}
	.st83{fill:none;stroke:#FFFFFF;stroke-width:0.1281;stroke-linecap:round;stroke-linejoin:round;stroke-miterlimit:10;}
	.st84{fill:#1D1D1B;}
	
		.st85{opacity:0.4;clip-path:url(#SVGID_00000178927653425929766030000000929825975256165295_);fill:url(#SVGID_00000171717646430712253580000011210637325728377535_);}
	.st86{fill:#45CFDA;}
	.st87{clip-path:url(#SVGID_00000136369745541358034690000010266964586034494600_);}
	.st88{clip-path:url(#SVGID_00000111882033299097530400000015889503733427634847_);}
	.st89{fill:#FFFFFF;stroke:#ABABAB;stroke-width:0.4901;stroke-miterlimit:10;}
	.st90{fill:url(#SVGID_00000131349182025963988240000004650597509188323245_);}
	.st91{fill-rule:evenodd;clip-rule:evenodd;fill:#FFFFFF;stroke:#ABABAB;stroke-width:0.2763;stroke-miterlimit:10;}
	.st92{fill:#FFFFFF;stroke:#ABABAB;stroke-width:0.2763;stroke-miterlimit:10;}
	.st93{fill:#0A0A0A;}
	.st94{opacity:0.5;}
	.st95{fill:#565630;}
	.st96{fill:#A2E3F4;}
	.st97{fill:#454545;}
	.st98{fill:none;stroke:#454545;stroke-width:0.5151;stroke-miterlimit:10;}
	.st99{clip-path:url(#SVGID_00000148656666535109542260000011709920163618568368_);}
	.st100{clip-path:url(#SVGID_00000158733088498637934690000010087768985125342080_);}
	.st101{fill:none;stroke:#787878;stroke-width:0.2794;stroke-miterlimit:10;}
	.st102{fill:none;stroke:#787878;stroke-width:0.2073;stroke-miterlimit:10;}
	.st103{fill:none;stroke:#A7B972;stroke-width:0.2557;stroke-miterlimit:10;}
	.st104{fill:none;stroke:#A7B972;stroke-width:0.1622;stroke-miterlimit:10;}
	
		.st105{clip-path:url(#SVGID_00000118378400042861327010000006638829418136403854_);fill:url(#SVGID_00000070817487646983567280000017154956326360062603_);}
	.st106{clip-path:url(#SVGID_00000091009276304205478640000003851905122133366425_);}
	.st107{clip-path:url(#SVGID_00000097488125706971281100000002248153916091910318_);}
	.st108{clip-path:url(#SVGID_00000114796152682740524250000010330104996780157085_);}
	.st109{clip-path:url(#SVGID_00000147209645723100606430000018093223490674024586_);}
	.st110{clip-path:url(#SVGID_00000057861347163089517480000009405472839547009469_);}
	.st111{fill:url(#SVGID_00000103259546623123969720000003198828530254736289_);}
	.st112{opacity:0.27;fill:#BADDE9;}
	.st113{clip-path:url(#SVGID_00000174587348396817181620000005951986385646891951_);}
	.st114{opacity:0.29;}
	
		.st115{clip-path:url(#SVGID_00000046322031300856949940000004308646703657351328_);fill:url(#SVGID_00000154411275325312145310000008428309797490495666_);}
	.st116{opacity:0.71;}
	.st117{clip-path:url(#SVGID_00000016781866652844286890000006670721965191439243_);}
	.st118{clip-path:url(#SVGID_00000079448882053683877760000009804071685416942524_);}
	.st119{clip-path:url(#SVGID_00000062880567505640356590000004602642641228404649_);}
	.st120{fill:none;stroke:#575757;stroke-miterlimit:10;}
	.st121{fill:none;stroke:#575757;stroke-width:0.5;stroke-miterlimit:10;}
	.st122{fill:#D1D1D1;stroke:#828282;stroke-width:0.1864;stroke-linecap:round;stroke-miterlimit:1;}
	.st123{fill:#FFFFFF;stroke:#828282;stroke-width:0.1864;stroke-linecap:round;stroke-miterlimit:1;}
	.st124{fill:#828282;stroke:#424242;stroke-width:0.5;stroke-miterlimit:1;}
	.st125{fill:none;stroke:#828282;stroke-width:0.1864;stroke-linecap:round;stroke-miterlimit:1;}
	.st126{fill:none;stroke:#1C1C1C;stroke-width:0.1864;stroke-linecap:round;stroke-miterlimit:1;}
	.st127{fill:none;stroke:#828282;stroke-width:0.75;stroke-linecap:round;stroke-miterlimit:1;}
	.st128{fill:none;stroke:#292929;stroke-width:0.75;stroke-linecap:round;stroke-miterlimit:1;}
	.st129{fill:#363636;}
	.st130{fill:none;stroke:#3D3D3D;stroke-width:0.1864;stroke-linecap:round;stroke-miterlimit:1;}
	.st131{fill:none;stroke:#BDBDBD;stroke-width:0.75;stroke-miterlimit:10;}
	.st132{opacity:0.27;fill:#E8E8E8;}
	.st133{fill:none;stroke:#003DA6;stroke-width:0.1794;stroke-miterlimit:10;}
	.st134{clip-path:url(#SVGID_00000039107123769404041710000004989680324494544812_);}
	.st135{fill:#1F1F1F;}
	.st136{clip-path:url(#SVGID_00000090980606608970672100000008879039430197904772_);}
	.st137{clip-path:url(#SVGID_00000080181777255817468320000013441260887497988517_);}
	.st138{clip-path:url(#SVGID_00000144312751244001387260000003651203061802021003_);}
	.st139{clip-path:url(#SVGID_00000070825006162536962740000004646188659008924583_);}
	.st140{fill:url(#SVGID_00000173862686208382853880000018062452187450093464_);}
	.st141{fill:#C0E3EA;}
	.st142{fill:#27745C;}
	.st143{fill:#4D4D4D;}
	.st144{clip-path:url(#SVGID_00000150101960851249019370000014754867960063225022_);}
	.st145{fill:none;stroke:#4DABCB;stroke-width:2;stroke-miterlimit:10;}
	.st146{fill:none;stroke:#27745C;stroke-width:3;stroke-miterlimit:10;}
	.st147{fill:url(#SVGID_00000043420538347958492680000004511643078568058801_);}
	.st148{fill:url(#SVGID_00000011013143023792093820000007250163079768923530_);}
	.st149{fill:#706F6F;}
	.st150{fill:none;}
	.st151{fill:url(#SVGID_00000055696933865036725710000015705957090900703393_);}
	.st152{fill:none;stroke:#4DABCB;stroke-width:2;stroke-linecap:round;stroke-miterlimit:10;}
	.st153{fill:url(#SVGID_00000158728136889308423100000007525317657124955034_);}
	.st154{clip-path:url(#SVGID_00000029013245731344494980000007937956381062064797_);}
	.st155{opacity:0.35;fill:#1C3F81;}
	.st156{clip-path:url(#SVGID_00000027606332996228045150000012904757278075981245_);}
	.st157{clip-path:url(#SVGID_00000164479023935419653560000009601476374632273300_);}
	.st158{opacity:0.29;fill:#4C1608;}
	.st159{clip-path:url(#SVGID_00000122679202384028473670000012663327233445683111_);}
	.st160{opacity:0.29;fill:#054096;}
	.st161{clip-path:url(#SVGID_00000163048472408795540750000005961025247022175652_);}
	.st162{clip-path:url(#SVGID_00000163757323102302631620000004178488733609937042_);}
	.st163{opacity:0.23;fill:#95A71A;}
	.st164{fill:#799B1C;}
	.st165{opacity:0.5;fill:url(#SVGID_00000051355905696881393830000013361529934337942201_);}
	
		.st166{clip-path:url(#SVGID_00000110447646882269881900000013904319711652182423_);fill:url(#SVGID_00000095325291108237822880000005055314321062177449_);}
	
		.st167{clip-path:url(#SVGID_00000174568059721206395960000002257917361003684243_);fill:url(#SVGID_00000072279836086400357140000005628191095792903076_);}
	.st168{display:none;}
	.st169{clip-path:url(#SVGID_00000122697156645369060090000010740569715078629276_);}
	.st170{clip-path:url(#SVGID_00000016770535005304884770000002785123444350946234_);}
	.st171{opacity:0.57;fill:#BADDE9;}
	.st172{opacity:0.54;fill:#1C3F81;}
	.st173{clip-path:url(#SVGID_00000040537931275812223830000012755381862043178166_);}
	.st174{clip-path:url(#SVGID_00000021815653210907182220000008867523124008151943_);}
	.st175{fill:url(#SVGID_00000181785294211506650690000016852483511807531935_);}
	.st176{fill:url(#SVGID_00000055681995631178441420000006328798964133960850_);}
	.st177{clip-path:url(#SVGID_00000051357844574213293140000004851435663247560089_);}
	.st178{clip-path:url(#SVGID_00000073689255510490991140000004443040962687283367_);}
	.st179{fill:none;stroke:#FFFFFF;stroke-width:0.75;stroke-miterlimit:10;}
	.st180{fill:none;stroke:#FFFFFF;stroke-width:0.7503;stroke-miterlimit:10;}
	.st181{clip-path:url(#SVGID_00000164476325881169417220000006841625701555087518_);fill:#FFFFFF;}
	.st182{fill:none;stroke:#2276BB;stroke-width:0.1;stroke-miterlimit:10;}
	.st183{fill:none;stroke:#FFFFFF;stroke-width:0.5;stroke-miterlimit:10;}
	.st184{clip-path:url(#SVGID_00000093860415100862675630000017001837317885572779_);fill:#FFFFFF;}
	.st185{clip-path:url(#SVGID_00000112613631535435403570000002737438897289984437_);fill:#FFFFFF;}
	.st186{clip-path:url(#SVGID_00000153669089378798711190000000563239509535117239_);fill:#FFFFFF;}
	.st187{fill:url(#SVGID_00000131354140701056362500000005004722372624915373_);}
	.st188{fill:none;stroke:#003DA6;stroke-width:0.2543;stroke-linecap:round;stroke-miterlimit:10;}
	.st189{fill:#BEE2E9;}
	.st190{fill:#7FA6E5;}
	.st191{opacity:0.97;fill:#71D4FF;}
</style>
<g id="iconos-fondo">
</g>
<g id="footer">
</g>
<g id="fondo">
</g>
<g id="detacado-foto">
</g>
<g id="bloque_1-A">
</g>
<g id="bloque_1_B">
</g>
<g id="destacado">
</g>
<g id="destacado-hidro">
</g>
<g id="destacado-camion">
</g>
<g id="cont">
</g>
<g id="EMPRESA">
</g>
<g id="SERVICIOS-terminal">
</g>
<g id="SERVICIO-lab">
</g>
<g id="SERV-transp-terrestre">
</g>
<g id="SERV-opera-solidos">
</g>
<g id="COMEX">
</g>
<g id="CONTACTO">
</g>
<g id="COMPROMISO">
</g>
<g id="Capa_19" class="st168">
</g>
<g id="TERMINAL">
</g>
<g id="servicios3">
</g>
<g id="servicios2">
</g>
<g id="servicios1">
</g>
<g id="Capa_10">
	<g>
		<g>
			<g>
				<rect x="3.98" y="52.98" class="st101" width="438.8" height="1.95"/>
			</g>
			<g>
				<rect x="3.98" y="71.2" class="st101" width="440.86" height="1.95"/>
			</g>
			<g>
				<g>
					<rect x="4.27" y="61.78" class="st101" width="21.42" height="1.95"/>
				</g>
				<g>
					<path class="st101" d="M119.77,63.73H96.25v-1.95h23.52V63.73z M72.73,63.73H49.21v-1.95h23.52V63.73z"/>
				</g>
				<g>
					<rect x="143.28" y="61.78" class="st101" width="21.42" height="1.95"/>
				</g>
			</g>
			<g>
				<g>
					<rect x="191.25" y="61.78" class="st101" width="21.42" height="1.95"/>
				</g>
				<g>
					<path class="st101" d="M306.75,63.73h-23.52v-1.95h23.52V63.73z M259.72,63.73H236.2v-1.95h23.52V63.73z"/>
				</g>
				<g>
					<rect x="330.27" y="61.78" class="st101" width="21.42" height="1.95"/>
				</g>
			</g>
			<g>
				<g>
					<rect x="378.24" y="61.78" class="st101" width="21.42" height="1.95"/>
				</g>
				<g>
					<path class="st101" d="M446.7,63.73h-23.52v-1.95h23.52V63.73z"/>
				</g>
			</g>
		</g>
		<g>
			<path class="st102" d="M315.64,26.04h5.76v-9.79h-5.76V26.04z M316.86,17.47h3.33v7.36h-3.33V17.47z"/>
			<path class="st102" d="M323.42,26.04h9.33v-9.79h-9.33V26.04z M324.64,17.47h6.9v7.36h-6.9V17.47z"/>
			<path class="st102" d="M319.98,38.18c-4.43,0-8.03,3.6-8.03,8.03c0,4.43,3.6,8.03,8.03,8.03c4.43,0,8.03-3.6,8.03-8.03
				C328.01,41.78,324.4,38.18,319.98,38.18z M319.98,53.02c-3.76,0-6.81-3.05-6.81-6.81c0-3.76,3.05-6.81,6.81-6.81
				s6.81,3.05,6.81,6.81C326.79,49.97,323.74,53.02,319.98,53.02z"/>
			<path class="st102" d="M335.56,41.85V14.03l-2.72-2.67h-27.27v4.88l-3.97,8.43v17.18h-10.57c-1.72-3.59-5.36-6.02-9.68-6.02
				c-3.19,0-6.22,1.38-8.25,3.73c-2.03-2.35-5.06-3.73-8.25-3.73c-4.32,0-7.95,2.43-9.68,6.02h-4.08v4.75h3.01h0.71h0.6
				c0-5.33,4.15-9.5,9.44-9.5c3.05,0,5.93,1.43,7.7,3.84c0.02,0.02,0.03,0.05,0.05,0.07c0.2,0.22,0.52,0.28,0.79,0.15
				c0.11-0.05,0.19-0.13,0.26-0.22c1.77-2.41,4.65-3.84,7.7-3.84c5.3,0,9.44,4.17,9.44,9.5h0.6c0.27,0,0.5,0,0.71,0
				c1.35,0,1.43,0,1.43,0v2.06h15.19V46.6h2.12c-0.01-0.14-0.01-0.28-0.01-0.41c0-5.05,4.09-9.14,9.14-9.14
				c5.05,0,9.14,4.09,9.14,9.14c0,0.14,0,0.28-0.01,0.41h8.1v-4.75H335.56z M252.32,45.38v-2.32h2.37
				c-0.25,0.74-0.43,1.51-0.51,2.32H252.32z M335.99,45.38h-5.69c-0.41-5.34-4.88-9.55-10.32-9.55c-5.44,0-9.91,4.22-10.32,9.55
				h-2.14v2.06h-12.76v-2.06h-2.71c-0.09-0.81-0.26-1.58-0.51-2.32h11.28V24.94l3.86-8.19l0.12-0.25v-3.94h25.55l2,1.97v28.52h1.65
				V45.38z"/>
			<path class="st102" d="M319.98,41.72c-2.48,0-4.49,2.02-4.49,4.49c0,2.48,2.02,4.49,4.49,4.49c2.48,0,4.49-2.02,4.49-4.49
				C324.47,43.73,322.46,41.72,319.98,41.72z M319.98,49.49c-1.81,0-3.28-1.47-3.28-3.28c0-1.81,1.47-3.28,3.28-3.28
				c1.81,0,3.28,1.47,3.28,3.28C323.26,48.02,321.79,49.49,319.98,49.49z"/>
			<path class="st102" d="M213.58,38.18c-4.43,0-8.03,3.6-8.03,8.03c0,4.43,3.6,8.03,8.03,8.03c4.43,0,8.03-3.6,8.03-8.03
				C221.61,41.78,218.01,38.18,213.58,38.18z M213.58,53.02c-3.76,0-6.81-3.05-6.81-6.81c0-3.76,3.05-6.81,6.81-6.81
				c3.76,0,6.81,3.05,6.81,6.81C220.39,49.97,217.34,53.02,213.58,53.02z"/>
			<path class="st102" d="M213.58,41.72c-2.48,0-4.49,2.02-4.49,4.49c0,2.48,2.02,4.49,4.49,4.49c2.48,0,4.49-2.02,4.49-4.49
				C218.07,43.73,216.06,41.72,213.58,41.72z M213.58,49.49c-1.81,0-3.28-1.47-3.28-3.28c0-1.81,1.47-3.28,3.28-3.28
				c1.81,0,3.28,1.47,3.28,3.28C216.86,48.02,215.39,49.49,213.58,49.49z"/>
			<path class="st102" d="M197.08,38.18c-4.43,0-8.03,3.6-8.03,8.03c0,4.43,3.6,8.03,8.03,8.03c4.43,0,8.03-3.6,8.03-8.03
				C205.1,41.78,201.5,38.18,197.08,38.18z M197.08,53.02c-3.76,0-6.81-3.05-6.81-6.81c0-3.76,3.05-6.81,6.81-6.81
				s6.81,3.05,6.81,6.81C203.89,49.97,200.84,53.02,197.08,53.02z"/>
			<path class="st102" d="M197.08,41.72c-2.48,0-4.49,2.02-4.49,4.49c0,2.48,2.02,4.49,4.49,4.49c2.48,0,4.49-2.02,4.49-4.49
				C201.57,43.73,199.56,41.72,197.08,41.72z M197.08,49.49c-1.81,0-3.28-1.47-3.28-3.28c0-1.81,1.47-3.28,3.28-3.28
				c1.81,0,3.28,1.47,3.28,3.28C200.36,48.02,198.89,49.49,197.08,49.49z"/>
			<path class="st102" d="M281.14,38.18c-4.43,0-8.03,3.6-8.03,8.03c0,4.43,3.6,8.03,8.03,8.03c4.43,0,8.03-3.6,8.03-8.03
				C289.16,41.78,285.56,38.18,281.14,38.18z M281.14,53.02c-3.76,0-6.81-3.05-6.81-6.81c0-3.76,3.05-6.81,6.81-6.81
				s6.81,3.05,6.81,6.81C287.95,49.97,284.9,53.02,281.14,53.02z"/>
			<path class="st102" d="M281.14,41.72c-2.48,0-4.49,2.02-4.49,4.49c0,2.48,2.02,4.49,4.49,4.49c2.48,0,4.49-2.02,4.49-4.49
				C285.63,43.73,283.61,41.72,281.14,41.72z M281.14,49.49c-1.81,0-3.28-1.47-3.28-3.28c0-1.81,1.47-3.28,3.28-3.28
				c1.81,0,3.28,1.47,3.28,3.28C284.41,48.02,282.95,49.49,281.14,49.49z"/>
			<path class="st102" d="M264.63,38.18c-4.43,0-8.03,3.6-8.03,8.03c0,4.43,3.6,8.03,8.03,8.03c4.43,0,8.03-3.6,8.03-8.03
				C272.66,41.78,269.06,38.18,264.63,38.18z M264.63,53.02c-3.76,0-6.81-3.05-6.81-6.81c0-3.76,3.05-6.81,6.81-6.81
				c3.76,0,6.81,3.05,6.81,6.81C271.45,49.97,268.4,53.02,264.63,53.02z"/>
			<path class="st102" d="M264.63,41.72c-2.48,0-4.49,2.02-4.49,4.49c0,2.48,2.02,4.49,4.49,4.49c2.48,0,4.49-2.02,4.49-4.49
				C269.13,43.73,267.11,41.72,264.63,41.72z M264.63,49.49c-1.81,0-3.28-1.47-3.28-3.28c0-1.81,1.47-3.28,3.28-3.28
				c1.81,0,3.28,1.47,3.28,3.28C267.91,48.02,266.45,49.49,264.63,49.49z"/>
			<rect x="198.64" y="12.59" class="st102" width="7.54" height="1.21"/>
			<rect x="186.43" y="12.59" class="st102" width="7.54" height="1.21"/>
			<rect x="186.43" y="9.71" class="st102" width="7.54" height="1.21"/>
			<rect x="272.24" y="26.27" class="st102" width="7.54" height="1.21"/>
			<rect x="284.45" y="26.27" class="st102" width="7.54" height="1.21"/>
			<rect x="284.45" y="29.15" class="st102" width="7.54" height="1.21"/>
			<rect x="243.96" y="9.71" class="st102" width="7.54" height="1.21"/>
			<rect x="256.17" y="9.71" class="st102" width="7.54" height="1.21"/>
			<rect x="256.17" y="12.59" class="st102" width="7.54" height="1.21"/>
			<rect x="226.32" y="29.15" class="st102" width="7.54" height="1.21"/>
			<rect x="214.11" y="29.15" class="st102" width="7.54" height="1.21"/>
			<rect x="214.11" y="26.27" class="st102" width="7.54" height="1.21"/>
			<rect x="210.75" y="9.43" class="st102" width="1.21" height="21.06"/>
			<rect x="238.61" y="9.43" class="st102" width="1.22" height="21.06"/>
			<rect x="266.47" y="9.43" class="st102" width="1.21" height="21.06"/>
			<path class="st102" d="M244.61,36.38h-10.58c-5.81,0-5.81,10.22,0,10.22h10.58C250.53,46.6,250.53,36.38,244.61,36.38z
				 M244.61,45.29h-0.28v-5.14h-1.22v5.14h-9.08c-0.94,0-1.69-0.36-2.23-1.08c-0.52-0.69-0.82-1.68-0.82-2.72
				c0-1.04,0.3-2.03,0.82-2.72c0.54-0.72,1.29-1.08,2.23-1.08h0.16v5.38h1.22v-5.38h9.2c2.47,0,3.13,2.39,3.13,3.8
				C247.74,42.9,247.08,45.29,244.61,45.29z"/>
			<path class="st102" d="M182.68,34.52h112.73V10.08h1.96V6.22h-1.1V3.45h-0.61h-0.61h-1.02h-1h-0.22v2.77H268.8V3.45h-0.61h-0.61
				h-1.02h-1h-0.22v2.77h-24.41V3.45h-0.61h-0.61h-1.02h-1h-0.22v2.77h-24.41V3.45h-0.61h-0.61h-1.02h-1h-0.22v2.77h-23.2V3.45
				h-0.61h-0.61h-1.02h-1h-0.22v2.77h-1.81v3.86h1.5V34.52z M182.49,8.78V7.53h1.18v0h0.53V4.67h1.02v2.86h0.85v0h24.3v0h0.48V4.67
				h1.02v2.86h0.83v0h25.23v0h0.78V4.67h1.02v2.86h0.9v0h25.68v0h0.26V4.67h1.02v2.86h0.56v0h25.47v0h0.42V4.67h1.02v2.86h0.68v0
				h0.33v1.24h-1.96v24.44H183.99V8.78H182.49z"/>
			<path class="st102" d="M213.58,35.46c-3.19,0-6.22,1.43-8.25,3.86c-2.03-2.43-5.06-3.86-8.25-3.86c-4.38,0-8.06,2.59-9.75,6.4
				h-6.61v4.75h5.61h0.66h0.65c0-5.51,4.15-9.83,9.44-9.83c3.05,0,5.93,1.48,7.7,3.97c0.02,0.03,0.03,0.05,0.06,0.07
				c0.2,0.23,0.52,0.29,0.79,0.16c0.11-0.05,0.19-0.13,0.26-0.23c1.77-2.49,4.65-3.97,7.7-3.97c5.3,0,9.44,4.32,9.44,9.83h0.72h0.59
				h3.25v-4.75h-4.25C221.64,38.04,217.96,35.46,213.58,35.46z M186.03,45.38h-4.11v-2.32h4.93c-0.23,0.72-0.39,1.48-0.47,2.26
				C186.04,45.35,186.04,45.36,186.03,45.38z M226.37,43.07v2.32h-2.1c-0.08-0.8-0.24-1.58-0.48-2.32H226.37z"/>
		</g>
		<g>
			<g>
				<rect x="164.71" y="81.62" class="st101" width="438.8" height="1.95"/>
			</g>
			<g>
				<rect x="164.71" y="99.84" class="st101" width="440.86" height="1.95"/>
			</g>
			<g>
				<g>
					<rect x="165" y="90.42" class="st101" width="21.42" height="1.95"/>
				</g>
				<g>
					<path class="st101" d="M280.5,92.37h-23.52v-1.95h23.52V92.37z M233.46,92.37h-23.52v-1.95h23.52V92.37z"/>
				</g>
				<g>
					<rect x="304.01" y="90.42" class="st101" width="21.42" height="1.95"/>
				</g>
			</g>
			<g>
				<g>
					<rect x="351.98" y="90.42" class="st101" width="21.42" height="1.95"/>
				</g>
				<g>
					<path class="st101" d="M467.48,92.37h-23.52v-1.95h23.52V92.37z M420.44,92.37h-23.52v-1.95h23.52V92.37z"/>
				</g>
				<g>
					<rect x="490.99" y="90.42" class="st101" width="21.42" height="1.95"/>
				</g>
			</g>
			<g>
				<g>
					<rect x="538.96" y="90.42" class="st101" width="21.42" height="1.95"/>
				</g>
				<g>
					<path class="st101" d="M607.43,92.37h-23.52v-1.95h23.52V92.37z"/>
				</g>
			</g>
		</g>
	</g>
</g>
<g id="solapa-servicio">
</g>
<g id="top">
</g>
<g id="esqueletoi">
</g>
<g id="guias">
</g>
</svg>
