<?xml version="1.0" encoding="utf-8"?>
<!-- Generator: Adobe Illustrator 27.9.0, SVG Export Plug-In . SVG Version: 6.00 Build 0)  -->
<svg version="1.1" xmlns="http://www.w3.org/2000/svg" xmlns:xlink="http://www.w3.org/1999/xlink" x="0px" y="0px"
	 viewBox="0 0 86.22 121.99" style="enable-background:new 0 0 86.22 121.99;" xml:space="preserve">
<style type="text/css">
	.st0{fill:#8F8F8F;}
	.st1{fill:#6E6E6E;}
	.st2{fill:#FFFFFF;}
	.st3{clip-path:url(#SVGID_00000101074758515704936150000012343378722988766653_);}
	.st4{fill:#878787;}
	.st5{fill:#4C4C4A;}
	.st6{fill:#858658;}
	.st7{fill:#1BB09D;}
	.st8{fill:#4CABCB;}
	.st9{fill:#737373;}
	.st10{fill:#4FA98B;}
	.st11{fill:#2276BB;}
	.st12{fill:none;stroke:#FFFFFF;stroke-width:0.25;stroke-miterlimit:10;}
	.st13{clip-path:url(#SVGID_00000096048784990129943700000001647244848030629783_);}
	.st14{clip-path:url(#SVGID_00000091704518741177659780000016153824112862469794_);}
	.st15{clip-path:url(#SVGID_00000106131969004683309950000006381283671240405915_);}
	.st16{clip-path:url(#SVGID_00000058549697705423218890000009485986894453503158_);}
	.st17{clip-path:url(#SVGID_00000011720495477864855280000008485034010487846794_);}
	.st18{clip-path:url(#SVGID_00000093146443270746116010000008774764422491537313_);}
	.st19{clip-path:url(#SVGID_00000048480462065066104510000000393240590952465078_);}
	.st20{clip-path:url(#SVGID_00000017497894275298477660000004400505848996480695_);}
	.st21{clip-path:url(#SVGID_00000050642570631424072410000002638588600983446657_);}
	
		.st22{clip-path:url(#SVGID_00000150807668619717332560000007725930425899503505_);fill:url(#SVGID_00000054245385171158518140000000938835705664337830_);}
	.st23{fill:#003DA6;stroke:#003DA6;stroke-width:0.25;stroke-miterlimit:10;}
	.st24{fill:none;stroke:#003DA6;stroke-width:0.3;stroke-miterlimit:10;}
	.st25{fill:#FFFFFF;stroke:#ABABAB;stroke-width:0.3093;stroke-miterlimit:10;}
	.st26{fill:none;stroke:#003DA6;stroke-width:0.5024;stroke-miterlimit:10;}
	.st27{fill:#FFFFFF;stroke:#003DA6;stroke-width:0.3467;stroke-miterlimit:10;}
	.st28{opacity:0.5;fill:url(#SVGID_00000090294148286843799790000010533734068058293687_);}
	.st29{fill:url(#SVGID_00000090276015166953766420000014986451044025719707_);}
	.st30{fill:#E4F4F9;}
	.st31{fill:#003DA6;}
	.st32{fill:#003DA6;stroke:#FFFFFF;stroke-width:0.2257;stroke-miterlimit:10;}
	.st33{fill:#FFFFFF;stroke:#003DA6;stroke-width:0.2257;stroke-miterlimit:10;}
	.st34{fill:#FFFFFF;stroke:#ABABAB;stroke-width:0.3504;stroke-miterlimit:10;}
	.st35{fill-rule:evenodd;clip-rule:evenodd;fill:#FFFFFF;stroke:#ABABAB;stroke-width:0.4053;stroke-miterlimit:10;}
	.st36{fill:#FFFFFF;stroke:#ABABAB;stroke-width:0.4053;stroke-miterlimit:10;}
	.st37{opacity:0.7;fill:url(#SVGID_00000021090542910165341410000011277253050562236045_);}
	.st38{opacity:0.5;fill:#4C4C4A;}
	.st39{opacity:0.5;fill:#858658;}
	.st40{opacity:0.5;fill:#1BB09D;}
	.st41{opacity:0.5;fill:#4CABCB;}
	.st42{opacity:0.5;fill:#737373;}
	.st43{opacity:0.5;fill:#2276BB;}
	.st44{fill:none;stroke:#003DA6;stroke-width:0.2224;stroke-miterlimit:10;}
	.st45{fill:#FFFFFF;stroke:#003DA6;stroke-width:0.2835;stroke-miterlimit:10;}
	.st46{fill:none;stroke:#003DA6;stroke-width:0.1864;stroke-linecap:round;stroke-miterlimit:1;}
	.st47{fill:#FFFFFF;stroke:#003DA6;stroke-width:0.1;stroke-miterlimit:10;}
	.st48{fill:none;stroke:#003DA6;stroke-width:0.2835;stroke-miterlimit:10;}
	.st49{fill:#575757;}
	.st50{clip-path:url(#SVGID_00000129908739507758767940000001345755951918580667_);}
	.st51{opacity:0.7;fill:url(#SVGID_00000055667360089762046440000015784190595353174400_);}
	.st52{fill:none;stroke:#003DA6;stroke-width:0.25;stroke-miterlimit:10;}
	.st53{fill:#1C3F81;}
	.st54{fill:none;stroke:#949494;stroke-width:0.25;stroke-miterlimit:10;}
	.st55{clip-path:url(#SVGID_00000072243801876861052660000014199567732993873068_);}
	.st56{fill:#43B6A5;}
	.st57{fill:#25745C;}
	.st58{clip-path:url(#SVGID_00000029742041194663699470000015375007318400651446_);}
	.st59{fill:url(#SVGID_00000112594414410513557340000006187702018843532929_);}
	.st60{fill:url(#SVGID_00000122721002411258846480000009163400243290681523_);}
	.st61{fill:none;stroke:#FFFFFF;stroke-width:2;stroke-linecap:round;stroke-miterlimit:10;}
	.st62{clip-path:url(#SVGID_00000165232563305400956360000004389599688444321944_);}
	.st63{fill:#003DA6;stroke:#FFFFFF;stroke-width:0.1346;stroke-miterlimit:10;}
	.st64{fill:#141414;}
	.st65{stroke:#FFFFFF;stroke-width:0.1346;stroke-miterlimit:10;}
	.st66{clip-path:url(#SVGID_00000165192277527381475640000003121329388001063102_);}
	.st67{opacity:0.18;}
	.st68{fill:#089F91;}
	.st69{opacity:0.18;fill:#BADDE9;}
	.st70{fill:#F5F4EF;stroke:#FFFFFF;stroke-width:1.8244;stroke-miterlimit:10;}
	.st71{opacity:0.65;fill:#858658;}
	.st72{fill:#C3DFF5;}
	.st73{opacity:0.63;}
	.st74{fill:#9C9B9B;}
	.st75{fill:#A9A9A9;}
	.st76{fill:#35350B;}
	.st77{fill:none;stroke:#FFFFFF;stroke-width:0.1824;stroke-linecap:round;stroke-linejoin:round;stroke-miterlimit:10;}
	.st78{opacity:0.64;}
	.st79{fill:#F5F4EF;}
	.st80{clip-path:url(#SVGID_00000055693568388898743430000005799870091329793420_);}
	.st81{fill:#F5F4EF;stroke:#FFFFFF;stroke-width:1.2815;stroke-miterlimit:10;}
	.st82{opacity:0.65;}
	.st83{fill:none;stroke:#FFFFFF;stroke-width:0.1281;stroke-linecap:round;stroke-linejoin:round;stroke-miterlimit:10;}
	.st84{fill:#1D1D1B;}
	
		.st85{opacity:0.4;clip-path:url(#SVGID_00000005968344281151900170000011935024528132830370_);fill:url(#SVGID_00000169525437910277019360000006802222947893208975_);}
	.st86{fill:#45CFDA;}
	.st87{clip-path:url(#SVGID_00000031206346126980628020000006035866786207832978_);}
	.st88{clip-path:url(#SVGID_00000072997847804532013250000011512392370444559237_);}
	.st89{fill:#FFFFFF;stroke:#ABABAB;stroke-width:0.4901;stroke-miterlimit:10;}
	.st90{fill:url(#SVGID_00000152956060409041840600000004884252194535509662_);}
	.st91{fill-rule:evenodd;clip-rule:evenodd;fill:#FFFFFF;stroke:#ABABAB;stroke-width:0.2763;stroke-miterlimit:10;}
	.st92{fill:#FFFFFF;stroke:#ABABAB;stroke-width:0.2763;stroke-miterlimit:10;}
	.st93{fill:#0A0A0A;}
	.st94{opacity:0.5;}
	.st95{fill:#565630;}
	.st96{fill:#A2E3F4;}
	.st97{fill:#454545;}
	.st98{fill:none;stroke:#454545;stroke-width:0.5151;stroke-miterlimit:10;}
	.st99{clip-path:url(#SVGID_00000016058665300515283330000016396868613905295792_);}
	.st100{clip-path:url(#SVGID_00000023239161550272066140000012769499926613771154_);}
	.st101{fill:none;stroke:#787878;stroke-width:0.2794;stroke-miterlimit:10;}
	.st102{fill:none;stroke:#787878;stroke-width:0.2073;stroke-miterlimit:10;}
	.st103{fill:none;stroke:#A7B972;stroke-width:0.2557;stroke-miterlimit:10;}
	.st104{fill:none;stroke:#A7B972;stroke-width:0.1622;stroke-miterlimit:10;}
	
		.st105{clip-path:url(#SVGID_00000111902299195984457050000017814994065769534106_);fill:url(#SVGID_00000163777416563079655620000004386728742278943111_);}
	.st106{clip-path:url(#SVGID_00000169529316819300431290000006988407650750055573_);}
	.st107{clip-path:url(#SVGID_00000075871514036740089780000004559352681434623164_);}
	.st108{clip-path:url(#SVGID_00000127756313090415399010000009389066125077882502_);}
	.st109{clip-path:url(#SVGID_00000098192638349389223860000005712461699907262143_);}
	.st110{clip-path:url(#SVGID_00000171718954645886843770000016224454219710777771_);}
	.st111{fill:url(#SVGID_00000150822214342470535300000014268784307227047354_);}
	.st112{opacity:0.27;fill:#BADDE9;}
	.st113{clip-path:url(#SVGID_00000157302425126284581510000002732608335119674008_);}
	.st114{opacity:0.29;}
	
		.st115{clip-path:url(#SVGID_00000111154423267099148730000018434419457458890411_);fill:url(#SVGID_00000044868768839632943280000006114091073233811360_);}
	.st116{opacity:0.71;}
	.st117{clip-path:url(#SVGID_00000074440723525374985220000006113478533404253835_);}
	.st118{clip-path:url(#SVGID_00000044162176554885700420000010553001533126330520_);}
	.st119{clip-path:url(#SVGID_00000124857524709868217730000016056814962605874596_);}
	.st120{fill:none;stroke:#575757;stroke-miterlimit:10;}
	.st121{fill:none;stroke:#575757;stroke-width:0.5;stroke-miterlimit:10;}
	.st122{fill:#D1D1D1;stroke:#828282;stroke-width:0.1864;stroke-linecap:round;stroke-miterlimit:1;}
	.st123{fill:#FFFFFF;stroke:#828282;stroke-width:0.1864;stroke-linecap:round;stroke-miterlimit:1;}
	.st124{fill:#828282;stroke:#424242;stroke-width:0.5;stroke-miterlimit:1;}
	.st125{fill:none;stroke:#828282;stroke-width:0.1864;stroke-linecap:round;stroke-miterlimit:1;}
	.st126{fill:none;stroke:#1C1C1C;stroke-width:0.1864;stroke-linecap:round;stroke-miterlimit:1;}
	.st127{fill:none;stroke:#828282;stroke-width:0.75;stroke-linecap:round;stroke-miterlimit:1;}
	.st128{fill:none;stroke:#292929;stroke-width:0.75;stroke-linecap:round;stroke-miterlimit:1;}
	.st129{fill:#363636;}
	.st130{fill:none;stroke:#3D3D3D;stroke-width:0.1864;stroke-linecap:round;stroke-miterlimit:1;}
	.st131{fill:none;stroke:#BDBDBD;stroke-width:0.75;stroke-miterlimit:10;}
	.st132{opacity:0.27;fill:#E8E8E8;}
	.st133{fill:none;stroke:#003DA6;stroke-width:0.1794;stroke-miterlimit:10;}
	.st134{clip-path:url(#SVGID_00000016033077977784350490000010927382232825278888_);}
	.st135{fill:#1F1F1F;}
	.st136{clip-path:url(#SVGID_00000137838210099385879080000006959447285058744712_);}
	.st137{clip-path:url(#SVGID_00000056425605526085295390000016840292329160802439_);}
	.st138{clip-path:url(#SVGID_00000021800826184261032840000010053181791809331853_);}
	.st139{clip-path:url(#SVGID_00000170961202749429935520000005305780004784908941_);}
	.st140{fill:url(#SVGID_00000176740971833197754980000010307583958892854151_);}
	.st141{fill:#C0E3EA;}
	.st142{fill:#27745C;}
	.st143{fill:#4D4D4D;}
	.st144{clip-path:url(#SVGID_00000139289216777787485700000000741586761582092418_);}
	.st145{fill:none;stroke:#4DABCB;stroke-width:2;stroke-miterlimit:10;}
	.st146{fill:none;stroke:#27745C;stroke-width:3;stroke-miterlimit:10;}
	.st147{fill:url(#SVGID_00000137825266371951422090000008110144570186181767_);}
	.st148{fill:url(#SVGID_00000122700240318714399310000000744444454231148210_);}
	.st149{fill:#706F6F;}
	.st150{fill:none;}
	.st151{fill:url(#SVGID_00000129202063165383408480000005836287461519813784_);}
	.st152{fill:none;stroke:#4DABCB;stroke-width:2;stroke-linecap:round;stroke-miterlimit:10;}
	.st153{fill:url(#SVGID_00000070817883467762350560000012310082405991731337_);}
	.st154{clip-path:url(#SVGID_00000152243354398717128450000006444745184814892722_);}
	.st155{opacity:0.35;fill:#1C3F81;}
	.st156{clip-path:url(#SVGID_00000018232376395096843780000006436485839506461852_);}
	.st157{clip-path:url(#SVGID_00000157992502903644273330000014792779595643070137_);}
	.st158{opacity:0.29;fill:#4C1608;}
	.st159{clip-path:url(#SVGID_00000150812334803097767420000012920089753872668071_);}
	.st160{opacity:0.29;fill:#054096;}
	.st161{clip-path:url(#SVGID_00000164478107765537750200000014954013884865064856_);}
	.st162{clip-path:url(#SVGID_00000088123194383831686670000007905918952914472591_);}
	.st163{opacity:0.23;fill:#95A71A;}
	.st164{fill:#799B1C;}
	.st165{opacity:0.5;fill:url(#SVGID_00000145022283288452720440000003923830316962318265_);}
	
		.st166{clip-path:url(#SVGID_00000036940697719512505580000018048043273549592478_);fill:url(#SVGID_00000091703236063461099190000006599534195598828192_);}
	
		.st167{clip-path:url(#SVGID_00000024702080322408579240000002484483393488108698_);fill:url(#SVGID_00000029044870134588800010000005462422573880189348_);}
	.st168{display:none;}
	.st169{clip-path:url(#SVGID_00000005977231634354004530000015477400189730681761_);}
	.st170{clip-path:url(#SVGID_00000062871496286761892270000016357132019546928772_);}
	.st171{opacity:0.57;fill:#BADDE9;}
	.st172{opacity:0.54;fill:#1C3F81;}
	.st173{clip-path:url(#SVGID_00000111190574355068193300000009671858830750492051_);}
	.st174{clip-path:url(#SVGID_00000008149590538284502940000014620611130802248115_);}
	.st175{fill:url(#SVGID_00000098206280154065034390000005391668870413091977_);}
	.st176{fill:url(#SVGID_00000181779484254728690390000003683405781921451964_);}
	.st177{clip-path:url(#SVGID_00000162315718902646444340000000291009688376321708_);}
	.st178{clip-path:url(#SVGID_00000109017212289414783830000015524359299732403077_);}
	.st179{fill:none;stroke:#FFFFFF;stroke-width:0.75;stroke-miterlimit:10;}
	.st180{fill:none;stroke:#FFFFFF;stroke-width:0.7503;stroke-miterlimit:10;}
	.st181{clip-path:url(#SVGID_00000070095695196712489270000008563954215017034883_);fill:#FFFFFF;}
	.st182{fill:none;stroke:#2276BB;stroke-width:0.1;stroke-miterlimit:10;}
	.st183{fill:none;stroke:#FFFFFF;stroke-width:0.5;stroke-miterlimit:10;}
	.st184{clip-path:url(#SVGID_00000122710924416544080400000008080102137231311245_);fill:#FFFFFF;}
	.st185{clip-path:url(#SVGID_00000076585605864573739310000009604605600845538437_);fill:#FFFFFF;}
	.st186{clip-path:url(#SVGID_00000053541959861294086090000004905596649932635817_);fill:#FFFFFF;}
	.st187{fill:url(#SVGID_00000181796314429127611170000003689034371065176249_);}
	.st188{fill:none;stroke:#003DA6;stroke-width:0.2543;stroke-linecap:round;stroke-miterlimit:10;}
	.st189{fill:#BEE2E9;}
	.st190{fill:#7FA6E5;}
	.st191{opacity:0.97;fill:#71D4FF;}
</style>
<g id="iconos-fondo">
</g>
<g id="footer">
</g>
<g id="fondo">
</g>
<g id="detacado-foto">
</g>
<g id="bloque_1-A">
</g>
<g id="bloque_1_B">
</g>
<g id="destacado">
</g>
<g id="destacado-hidro">
</g>
<g id="destacado-camion">
</g>
<g id="cont">
</g>
<g id="EMPRESA">
</g>
<g id="SERVICIOS-terminal">
</g>
<g id="SERVICIO-lab">
</g>
<g id="SERV-transp-terrestre">
</g>
<g id="SERV-opera-solidos">
</g>
<g id="COMEX">
</g>
<g id="CONTACTO">
</g>
<g id="COMPROMISO">
</g>
<g id="Capa_19" class="st168">
</g>
<g id="TERMINAL">
</g>
<g id="servicios3">
</g>
<g id="servicios2">
</g>
<g id="servicios1">
</g>
<g id="Capa_10">
	<g>
		<g>
			<path class="st53" d="M43.32,118.35c-2.17,0-4.11-1.12-5.19-3L8.95,64.65c-0.33-0.54-0.67-1.13-0.99-1.72
				C4.79,57.08,3.12,50.47,3.12,43.8c0-22.16,18.03-40.2,40.19-40.2s40.19,18.03,40.19,40.2c0,6.09-1.39,12.13-4.04,17.58l0.09,0.04
				l-0.88,1.5c-0.33,0.6-0.67,1.2-1.03,1.79l-29.15,50.64C47.42,117.23,45.48,118.35,43.32,118.35z"/>
			<path class="st190" d="M43.32,5.11c21.37,0,38.7,17.32,38.7,38.69c0,6.64-1.68,12.89-4.63,18.36l0,0l-0.02,0.04
				c-0.32,0.58-0.65,1.16-0.99,1.73L47.21,114.6c-0.86,1.5-2.38,2.25-3.89,2.25s-3.03-0.75-3.89-2.25L10.25,63.91
				c-0.34-0.55-0.66-1.12-0.97-1.69l-0.01-0.03h0C6.3,56.72,4.62,50.46,4.62,43.8C4.62,22.43,21.95,5.11,43.32,5.11 M43.32,2.11
				c-22.99,0-41.69,18.7-41.69,41.69c0,5.28,1.01,10.52,2.94,15.39H4.1l2.56,4.49c0.31,0.57,0.65,1.17,1.01,1.75l29.16,50.66
				c1.36,2.35,3.78,3.75,6.49,3.75s5.13-1.4,6.49-3.75l29.15-50.65c0.36-0.59,0.71-1.19,1.03-1.79l1.6-2.78l-0.19-0.09
				c2.37-5.32,3.61-11.13,3.61-16.99C85.01,20.81,66.31,2.11,43.32,2.11L43.32,2.11z"/>
		</g>
	</g>
	<g>
		<g>
			<g>
				<path class="st2" d="M24.39,45.27h2.38c1.43,0,2.38,0.76,2.38,2.01v0.02c0,1.37-1.14,2.08-2.49,2.08H25.1v2.24h-0.72V45.27z
					 M26.67,48.73c1.05,0,1.74-0.56,1.74-1.4v-0.02c0-0.91-0.68-1.38-1.7-1.38h-1.6v2.79H26.67z"/>
				<path class="st2" d="M33.88,45.23h0.67l2.89,6.39h-0.77l-0.74-1.68h-3.45l-0.75,1.68h-0.73L33.88,45.23z M35.65,49.3l-1.44-3.24
					l-1.45,3.24H35.65z"/>
				<path class="st2" d="M39.78,45.27h0.73l2.31,3.46l2.31-3.46h0.73v6.35h-0.72v-5.14l-2.31,3.4h-0.04l-2.31-3.39v5.13h-0.7V45.27z
					"/>
				<path class="st2" d="M48.51,50.7l0.44-0.53c0.66,0.6,1.3,0.9,2.18,0.9c0.85,0,1.41-0.45,1.41-1.08v-0.02
					c0-0.59-0.32-0.93-1.65-1.21c-1.46-0.32-2.13-0.79-2.13-1.83v-0.02c0-1,0.88-1.73,2.09-1.73c0.93,0,1.59,0.26,2.23,0.78
					l-0.42,0.55c-0.59-0.48-1.18-0.69-1.83-0.69c-0.83,0-1.35,0.45-1.35,1.02v0.02c0,0.6,0.33,0.93,1.72,1.23
					c1.41,0.31,2.07,0.83,2.07,1.8v0.02c0,1.09-0.91,1.8-2.17,1.8C50.09,51.71,49.27,51.38,48.51,50.7z"/>
				<path class="st2" d="M58.34,45.23h0.67l2.89,6.39h-0.77l-0.74-1.68h-3.45l-0.75,1.68h-0.73L58.34,45.23z M60.11,49.3l-1.44-3.24
					l-1.45,3.24H60.11z"/>
			</g>
		</g>
		<g>
			<g>
				<path class="st2" d="M56.77,38.51C56.77,38.51,56.77,38.51,56.77,38.51c-0.01,0-0.01,0-0.02,0h-1.07c-0.17,0-0.3-0.13-0.3-0.3
					V37.5c0-0.54-0.44-0.98-0.98-0.98h-0.2c-0.13,0-0.24-0.08-0.28-0.2c-0.28-0.81-1.11-2.01-2.72-2.01c-1.61,0-2.44,1.2-2.72,2.01
					c-0.04,0.12-0.15,0.2-0.28,0.2h-2.25c-0.36,0-0.65,0.27-0.68,0.63l0,0.41c0,0.17-0.13,0.3-0.3,0.3l-2.29,0
					c-0.23,0-0.38,0.26-0.26,0.46l1.89,3.12c0.05,0.09,0.15,0.14,0.26,0.14h17.17c0.1,0,0.2-0.05,0.26-0.14l3.13-5.14
					c0.13-0.21-0.04-0.48-0.29-0.45l-7.39,0.83c-0.12,0.01-0.23,0.1-0.26,0.23L56.77,38.51z M51.2,35.08c0.73,0,1.22,0.33,1.53,0.7
					c0.17,0.2,0.04,0.5-0.22,0.5h-2.62c-0.26,0-0.39-0.3-0.22-0.5C49.97,35.41,50.46,35.08,51.2,35.08"/>
			</g>
		</g>
		<path class="st2" d="M43.32,70.14c-16.59,0-29.6-15.57-25.19-32.87c2.13-8.35,8.34-15.14,16.52-17.84
			c12.01-3.96,24.22,0.66,30.59,10.54c0.05,0.07,0.02,0.16-0.05,0.21l-1.73,1.1c-0.07,0.04-0.16,0.02-0.2-0.04
			c-4.59-7.11-12.49-11.23-21.01-10.85C29.67,20.94,19.63,31.43,19.6,44.02c-0.03,13.1,10.62,23.77,23.71,23.77
			c13.07,0,23.71-10.64,23.71-23.71c0-0.69-0.03-1.38-0.09-2.06c-0.01-0.14,0.09-0.27,0.23-0.28l1.81-0.18
			c0.15-0.01,0.28,0.09,0.29,0.24c0.07,0.75,0.1,1.52,0.1,2.28C69.38,58.45,57.69,70.14,43.32,70.14z"/>
	</g>
</g>
<g id="solapa-servicio">
</g>
<g id="top">
</g>
<g id="esqueletoi">
</g>
<g id="guias">
</g>
</svg>
