<?xml version="1.0" encoding="utf-8"?>
<!-- Generator: Adobe Illustrator 27.9.0, SVG Export Plug-In . SVG Version: 6.00 Build 0)  -->
<svg version="1.1" xmlns="http://www.w3.org/2000/svg" xmlns:xlink="http://www.w3.org/1999/xlink" x="0px" y="0px"
	 viewBox="0 0 1032.07 107.58" style="enable-background:new 0 0 1032.07 107.58;" xml:space="preserve">
<style type="text/css">
	.st0{fill:#8F8F8F;}
	.st1{fill:#6E6E6E;}
	.st2{fill:#FFFFFF;}
	.st3{clip-path:url(#SVGID_00000173840611934831828840000018366612949754037928_);}
	.st4{fill:#878787;}
	.st5{fill:#4C4C4A;}
	.st6{fill:#858658;}
	.st7{fill:#1BB09D;}
	.st8{fill:#4CABCB;}
	.st9{fill:#737373;}
	.st10{fill:#4FA98B;}
	.st11{fill:#2276BB;}
	.st12{fill:none;stroke:#FFFFFF;stroke-width:0.25;stroke-miterlimit:10;}
	.st13{clip-path:url(#SVGID_00000098926369207807216720000017163296063427083155_);}
	.st14{clip-path:url(#SVGID_00000034791932378897450070000002761332963300828307_);}
	.st15{clip-path:url(#SVGID_00000014611217915562314580000009618511285316298132_);}
	.st16{clip-path:url(#SVGID_00000079474504971131733580000013790932905960669599_);}
	.st17{clip-path:url(#SVGID_00000003105520192373056360000001912355247698073013_);}
	.st18{clip-path:url(#SVGID_00000039831627162478387980000009807680324549594808_);}
	.st19{clip-path:url(#SVGID_00000042722002202673347730000008508169394002209457_);}
	.st20{clip-path:url(#SVGID_00000042705798433117565530000017723755702057348500_);}
	.st21{clip-path:url(#SVGID_00000077289529587089208800000005970264356959748255_);}
	
		.st22{clip-path:url(#SVGID_00000104682053586804358640000006963253467238075288_);fill:url(#SVGID_00000041984781090036755670000017079516880872155821_);}
	.st23{fill:#003DA6;stroke:#003DA6;stroke-width:0.25;stroke-miterlimit:10;}
	.st24{fill:none;stroke:#003DA6;stroke-width:0.3;stroke-miterlimit:10;}
	.st25{fill:#FFFFFF;stroke:#ABABAB;stroke-width:0.3093;stroke-miterlimit:10;}
	.st26{fill:none;stroke:#003DA6;stroke-width:0.5024;stroke-miterlimit:10;}
	.st27{fill:#FFFFFF;stroke:#003DA6;stroke-width:0.3467;stroke-miterlimit:10;}
	.st28{opacity:0.5;fill:url(#SVGID_00000140002066864951833210000009583931144065131140_);}
	.st29{fill:url(#SVGID_00000003827662011654369230000004121007890299656365_);}
	.st30{fill:#E4F4F9;}
	.st31{fill:#003DA6;}
	.st32{fill:#003DA6;stroke:#FFFFFF;stroke-width:0.2257;stroke-miterlimit:10;}
	.st33{fill:#FFFFFF;stroke:#003DA6;stroke-width:0.2257;stroke-miterlimit:10;}
	.st34{fill:#FFFFFF;stroke:#ABABAB;stroke-width:0.3504;stroke-miterlimit:10;}
	.st35{fill-rule:evenodd;clip-rule:evenodd;fill:#FFFFFF;stroke:#ABABAB;stroke-width:0.4053;stroke-miterlimit:10;}
	.st36{fill:#FFFFFF;stroke:#ABABAB;stroke-width:0.4053;stroke-miterlimit:10;}
	.st37{opacity:0.7;fill:url(#SVGID_00000163763093929215681400000011035550039695559868_);}
	.st38{opacity:0.5;fill:#4C4C4A;}
	.st39{opacity:0.5;fill:#858658;}
	.st40{opacity:0.5;fill:#1BB09D;}
	.st41{opacity:0.5;fill:#4CABCB;}
	.st42{opacity:0.5;fill:#737373;}
	.st43{opacity:0.5;fill:#2276BB;}
	.st44{fill:none;stroke:#003DA6;stroke-width:0.2224;stroke-miterlimit:10;}
	.st45{fill:#FFFFFF;stroke:#003DA6;stroke-width:0.2835;stroke-miterlimit:10;}
	.st46{fill:none;stroke:#003DA6;stroke-width:0.1864;stroke-linecap:round;stroke-miterlimit:1;}
	.st47{fill:#FFFFFF;stroke:#003DA6;stroke-width:0.1;stroke-miterlimit:10;}
	.st48{fill:none;stroke:#003DA6;stroke-width:0.2835;stroke-miterlimit:10;}
	.st49{fill:#575757;}
	.st50{clip-path:url(#SVGID_00000086671264499728437730000009918628349350961336_);}
	.st51{opacity:0.7;fill:url(#SVGID_00000055707913218457852290000001239058923817151125_);}
	.st52{fill:none;stroke:#003DA6;stroke-width:0.25;stroke-miterlimit:10;}
	.st53{fill:#1C3F81;}
	.st54{fill:none;stroke:#949494;stroke-width:0.25;stroke-miterlimit:10;}
	.st55{clip-path:url(#SVGID_00000102540426027063712870000002112345034038609293_);}
	.st56{fill:#43B6A5;}
	.st57{fill:#25745C;}
	.st58{clip-path:url(#SVGID_00000065068184163895521950000004147397433263089570_);}
	.st59{fill:url(#SVGID_00000111158980648435464180000000939377516044537271_);}
	.st60{fill:url(#SVGID_00000153666776352630962180000008396062173570478976_);}
	.st61{fill:none;stroke:#FFFFFF;stroke-width:2;stroke-linecap:round;stroke-miterlimit:10;}
	.st62{clip-path:url(#SVGID_00000181065023324805745440000001931957934330347921_);}
	.st63{fill:#003DA6;stroke:#FFFFFF;stroke-width:0.1346;stroke-miterlimit:10;}
	.st64{fill:#141414;}
	.st65{stroke:#FFFFFF;stroke-width:0.1346;stroke-miterlimit:10;}
	.st66{clip-path:url(#SVGID_00000086653738139735668940000010924986688375255966_);}
	.st67{opacity:0.18;}
	.st68{fill:#089F91;}
	.st69{opacity:0.18;fill:#BADDE9;}
	.st70{fill:#F5F4EF;stroke:#FFFFFF;stroke-width:1.8244;stroke-miterlimit:10;}
	.st71{opacity:0.65;fill:#858658;}
	.st72{fill:#C3DFF5;}
	.st73{opacity:0.63;}
	.st74{fill:#9C9B9B;}
	.st75{fill:#A9A9A9;}
	.st76{fill:#35350B;}
	.st77{fill:none;stroke:#FFFFFF;stroke-width:0.1824;stroke-linecap:round;stroke-linejoin:round;stroke-miterlimit:10;}
	.st78{opacity:0.64;}
	.st79{fill:#F5F4EF;}
	.st80{clip-path:url(#SVGID_00000000181784452852865510000017774916774546793875_);}
	.st81{fill:#F5F4EF;stroke:#FFFFFF;stroke-width:1.2815;stroke-miterlimit:10;}
	.st82{opacity:0.65;}
	.st83{fill:none;stroke:#FFFFFF;stroke-width:0.1281;stroke-linecap:round;stroke-linejoin:round;stroke-miterlimit:10;}
	.st84{fill:#1D1D1B;}
	
		.st85{opacity:0.4;clip-path:url(#SVGID_00000139984503170374308940000002618048342868816314_);fill:url(#SVGID_00000095315432034232075330000001324394598260778665_);}
	.st86{fill:#45CFDA;}
	.st87{clip-path:url(#SVGID_00000005226554874185214280000010080030529850293665_);}
	.st88{clip-path:url(#SVGID_00000103228443368338255520000018389514014621939642_);}
	.st89{fill:#FFFFFF;stroke:#ABABAB;stroke-width:0.4901;stroke-miterlimit:10;}
	.st90{fill:url(#SVGID_00000082333727733438729850000001330364530199833533_);}
	.st91{fill-rule:evenodd;clip-rule:evenodd;fill:#FFFFFF;stroke:#ABABAB;stroke-width:0.2763;stroke-miterlimit:10;}
	.st92{fill:#FFFFFF;stroke:#ABABAB;stroke-width:0.2763;stroke-miterlimit:10;}
	.st93{fill:#0A0A0A;}
	.st94{opacity:0.5;}
	.st95{fill:#565630;}
	.st96{fill:#A2E3F4;}
	.st97{fill:#454545;}
	.st98{fill:none;stroke:#454545;stroke-width:0.5151;stroke-miterlimit:10;}
	.st99{clip-path:url(#SVGID_00000068653258071516246370000004193567281588124809_);}
	.st100{clip-path:url(#SVGID_00000010282135033410171720000012273363572664874668_);}
	.st101{fill:none;stroke:#787878;stroke-width:0.2794;stroke-miterlimit:10;}
	.st102{fill:none;stroke:#787878;stroke-width:0.2073;stroke-miterlimit:10;}
	.st103{fill:none;stroke:#A7B972;stroke-width:0.2557;stroke-miterlimit:10;}
	.st104{fill:none;stroke:#A7B972;stroke-width:0.1622;stroke-miterlimit:10;}
	
		.st105{clip-path:url(#SVGID_00000105405899234599140950000013483270173341165480_);fill:url(#SVGID_00000148636433086223646300000004321770018285125566_);}
	.st106{clip-path:url(#SVGID_00000092416919757302863330000003943061548599403923_);}
	.st107{clip-path:url(#SVGID_00000137113499653805278860000006290842276519534490_);}
	.st108{clip-path:url(#SVGID_00000160909796507779707130000008219620017199324596_);}
	.st109{clip-path:url(#SVGID_00000089553385401839509210000007025455832125721739_);}
	.st110{clip-path:url(#SVGID_00000119111452715988146980000012375488081755093634_);}
	.st111{fill:url(#SVGID_00000059299074375346987060000002814555389116018061_);}
	.st112{opacity:0.27;fill:#BADDE9;}
	.st113{clip-path:url(#SVGID_00000121985384858003116790000012159896340385642158_);}
	.st114{opacity:0.29;}
	
		.st115{clip-path:url(#SVGID_00000009557006378230421060000013405136202699343027_);fill:url(#SVGID_00000015325946236471001650000011267004617359946657_);}
	.st116{opacity:0.71;}
	.st117{clip-path:url(#SVGID_00000069387935305445894430000005357359455837405576_);}
	.st118{clip-path:url(#SVGID_00000085956784315300678590000014081577684402888122_);}
	.st119{clip-path:url(#SVGID_00000134933454729010931650000008651275648369920933_);}
	.st120{fill:none;stroke:#575757;stroke-miterlimit:10;}
	.st121{fill:none;stroke:#575757;stroke-width:0.5;stroke-miterlimit:10;}
	.st122{fill:#D1D1D1;stroke:#828282;stroke-width:0.1864;stroke-linecap:round;stroke-miterlimit:1;}
	.st123{fill:#FFFFFF;stroke:#828282;stroke-width:0.1864;stroke-linecap:round;stroke-miterlimit:1;}
	.st124{fill:#828282;stroke:#424242;stroke-width:0.5;stroke-miterlimit:1;}
	.st125{fill:none;stroke:#828282;stroke-width:0.1864;stroke-linecap:round;stroke-miterlimit:1;}
	.st126{fill:none;stroke:#1C1C1C;stroke-width:0.1864;stroke-linecap:round;stroke-miterlimit:1;}
	.st127{fill:none;stroke:#828282;stroke-width:0.75;stroke-linecap:round;stroke-miterlimit:1;}
	.st128{fill:none;stroke:#292929;stroke-width:0.75;stroke-linecap:round;stroke-miterlimit:1;}
	.st129{fill:#363636;}
	.st130{fill:none;stroke:#3D3D3D;stroke-width:0.1864;stroke-linecap:round;stroke-miterlimit:1;}
	.st131{fill:none;stroke:#BDBDBD;stroke-width:0.75;stroke-miterlimit:10;}
	.st132{opacity:0.27;fill:#E8E8E8;}
	.st133{fill:none;stroke:#003DA6;stroke-width:0.1794;stroke-miterlimit:10;}
	.st134{clip-path:url(#SVGID_00000070829578158282472950000006073706502515287702_);}
	.st135{fill:#1F1F1F;}
	.st136{clip-path:url(#SVGID_00000155104579001998131920000001720392034785920656_);}
	.st137{clip-path:url(#SVGID_00000093870649738936599220000010784137341582573491_);}
	.st138{clip-path:url(#SVGID_00000044174996226433849340000001226557914448919188_);}
	.st139{clip-path:url(#SVGID_00000053508007721127002220000013189990373440908982_);}
	.st140{fill:url(#SVGID_00000006674048504467083110000011532855059135513477_);}
	.st141{fill:#C0E3EA;}
	.st142{fill:#27745C;}
	.st143{fill:#4D4D4D;}
	.st144{clip-path:url(#SVGID_00000041282941381483506320000001067800967367016846_);}
	.st145{fill:none;stroke:#4DABCB;stroke-width:2;stroke-miterlimit:10;}
	.st146{fill:none;stroke:#27745C;stroke-width:3;stroke-miterlimit:10;}
	.st147{fill:url(#SVGID_00000047757058405083695800000002055016046556631989_);}
	.st148{fill:url(#SVGID_00000183226855968524079160000002877439404584961972_);}
	.st149{fill:#706F6F;}
	.st150{fill:none;}
	.st151{fill:url(#SVGID_00000087414703325941931670000018171519711119725953_);}
	.st152{fill:none;stroke:#4DABCB;stroke-width:2;stroke-linecap:round;stroke-miterlimit:10;}
	.st153{fill:url(#SVGID_00000081635139094067909780000008474527008201766316_);}
	.st154{clip-path:url(#SVGID_00000155126540393714660630000015856661836259674251_);}
	.st155{opacity:0.35;fill:#1C3F81;}
	.st156{clip-path:url(#SVGID_00000021110945520938322730000008463688091758617230_);}
	.st157{clip-path:url(#SVGID_00000075130726224127927230000000848966784312082562_);}
	.st158{opacity:0.29;fill:#4C1608;}
	.st159{clip-path:url(#SVGID_00000127724947605205489200000009328703926311142046_);}
	.st160{opacity:0.29;fill:#054096;}
	.st161{clip-path:url(#SVGID_00000173873694268320513440000018235292095512542600_);}
	.st162{clip-path:url(#SVGID_00000059273884626745944670000005088610157775761317_);}
	.st163{opacity:0.23;fill:#95A71A;}
	.st164{fill:#799B1C;}
	.st165{opacity:0.5;fill:url(#SVGID_00000147186470193449118040000016935612324467765428_);}
	
		.st166{clip-path:url(#SVGID_00000105425057481399950610000009330335863802263482_);fill:url(#SVGID_00000007403341911560572570000006498588149114910910_);}
	
		.st167{clip-path:url(#SVGID_00000109737017857910519900000010591916686466433457_);fill:url(#SVGID_00000097464086009327243700000004439835709808164486_);}
	.st168{display:none;}
	.st169{clip-path:url(#SVGID_00000044899015919576437800000003555443396629245080_);}
	.st170{clip-path:url(#SVGID_00000119113017383018334860000009991457970621277077_);}
	.st171{opacity:0.57;fill:#BADDE9;}
	.st172{opacity:0.54;fill:#1C3F81;}
	.st173{clip-path:url(#SVGID_00000028324264327712445590000003792306638735852442_);}
	.st174{clip-path:url(#SVGID_00000180355074097395343830000006954759322504410249_);}
	.st175{fill:url(#SVGID_00000071541286268156896460000007542519921762260353_);}
	.st176{fill:url(#SVGID_00000124853592589857638510000007477472993060875685_);}
	.st177{clip-path:url(#SVGID_00000099620025086230320500000013297164124099979659_);}
	.st178{clip-path:url(#SVGID_00000036961860044922535320000004856759512480051331_);}
	.st179{fill:none;stroke:#FFFFFF;stroke-width:0.75;stroke-miterlimit:10;}
	.st180{fill:none;stroke:#FFFFFF;stroke-width:0.7503;stroke-miterlimit:10;}
	.st181{clip-path:url(#SVGID_00000119795986453533419210000009175898624935287468_);fill:#FFFFFF;}
	.st182{fill:none;stroke:#2276BB;stroke-width:0.1;stroke-miterlimit:10;}
	.st183{fill:none;stroke:#FFFFFF;stroke-width:0.5;stroke-miterlimit:10;}
	.st184{clip-path:url(#SVGID_00000174580533873617635620000004267265665245373873_);fill:#FFFFFF;}
	.st185{clip-path:url(#SVGID_00000067206846303035379480000002586711124745483392_);fill:#FFFFFF;}
	.st186{clip-path:url(#SVGID_00000069373397449399894470000017443027098785792143_);fill:#FFFFFF;}
	.st187{fill:url(#SVGID_00000063601381178043292360000002611750108804180407_);}
	.st188{fill:none;stroke:#003DA6;stroke-width:0.2543;stroke-linecap:round;stroke-miterlimit:10;}
	.st189{fill:#BEE2E9;}
	.st190{fill:#7FA6E5;}
	.st191{opacity:0.97;fill:#71D4FF;}
</style>
<g id="iconos-fondo">
</g>
<g id="footer">
</g>
<g id="fondo">
</g>
<g id="detacado-foto">
</g>
<g id="bloque_1-A">
</g>
<g id="bloque_1_B">
	<g>
		<g>
			<path class="st45" d="M111.96,48.47l4.19-7.43l14.45-1.37c0,0,2.62,0.08,2.83,2.36v6.44H111.96z"/>
			<path class="st45" d="M114.4,43.97l1.75-3.1l14.45-1.37c0,0,2.62,0.08,2.83,2.36v2.04L114.4,43.97z"/>
			<path class="st45" d="M4.19,47.71l34.73,6.11l1.23,2.22l4.47-0.59l-4.61-4.09c0,0-31.03-3.69-35.82-4.39V47.71z"/>
			<path class="st45" d="M107.55,54.31h67.95c0.43,0,0.77-0.35,0.77-0.77V42.13c0-0.43-0.35-0.77-0.77-0.77h-38l-1.32,7.05h-13.72
				l-14.92,0.11c-0.43,0-0.77,0.35-0.77,0.77v4.26C106.78,53.97,107.12,54.31,107.55,54.31z"/>
			<path class="st45" d="M151.58,65.56h25.89c0.47,0,0.84-0.38,0.84-0.84v-5.14c0-0.47-0.38-0.84-0.84-0.84h-25.89
				c-0.47,0-0.84,0.38-0.84,0.84v5.14C150.73,65.18,151.11,65.56,151.58,65.56z"/>
			<path class="st45" d="M151.3,41.03h25.41c0.88,0,1.6-0.71,1.6-1.6l2.04-9.77c0-0.88-0.71-1.6-1.6-1.6h-29.5
				c-0.88,0-1.6,0.71-1.6,1.6l2.04,9.77C149.71,40.31,150.42,41.03,151.3,41.03z"/>
			<path class="st45" d="M33.95,58.4h143.59c0.43,0,0.77-0.35,0.77-0.77v-4.26c0-0.43-0.35-0.77-0.77-0.77h-66.62l-1.32,1.94H82.6
				l-1.37-1.94l-47.28,2.04c-0.43,0-0.77,0.35-0.77,0.77v2.22C33.18,58.06,33.53,58.4,33.95,58.4z"/>
			<path class="st45" d="M110.33,65.56h36.33c0.47,0,0.85-0.38,0.85-0.85v-5.12c0-0.47-0.38-0.85-0.85-0.85h-36.33
				c-0.47,0-0.85,0.38-0.85,0.85v5.12C109.48,65.18,109.86,65.56,110.33,65.56z"/>
			<path class="st45" d="M30.72,65.56h75.3c0.37,0,0.67-0.3,0.67-0.67v-5.48c0-0.37-0.3-0.67-0.67-0.67h-75.3
				c-0.37,0-0.67,0.3-0.67,0.67v5.48C30.05,65.26,30.35,65.56,30.72,65.56z"/>
			<rect x="6.35" y="65.56" class="st45" width="186.91" height="8.65"/>
			<path class="st45" d="M6.35,65.56l6.98-6.66c0,0,23.04,2.32,36.99,1.07l1.79,5.59H6.35z"/>
			<g>
				<rect x="11.46" y="66.58" class="st45" width="172.6" height="7.62"/>
			</g>
			<rect x="100.93" y="60.04" class="st45" width="2.63" height="5.37"/>
			<rect x="140.5" y="44.69" class="st45" width="3.72" height="7.58"/>
			<rect x="161.46" y="29.88" class="st45" width="4.72" height="11.15"/>
			<rect x="166.72" y="29.88" class="st45" width="1.8" height="4.67"/>
			<polygon class="st45" points="160.47,29.88 150.43,29.88 151.3,34.55 160.47,34.55 			"/>
			<polygon class="st45" points="178.04,29.88 169.25,29.88 169.25,34.55 176.72,34.55 			"/>
			<rect x="162.29" y="30.79" class="st45" width="3.19" height="5.91"/>
			
				<rect x="150.07" y="44.1" transform="matrix(6.123234e-17 -1 1 6.123234e-17 104.6956 197.9073)" class="st45" width="2.46" height="5.02"/>
			
				<rect x="171" y="59.12" transform="matrix(6.123234e-17 -1 1 6.123234e-17 110.4972 233.1509)" class="st45" width="1.64" height="4.42"/>
			
				<rect x="158.15" y="59.12" transform="matrix(6.123234e-17 -1 1 6.123234e-17 97.6434 220.2972)" class="st45" width="1.64" height="4.42"/>
			
				<rect x="139.13" y="59.12" transform="matrix(6.123234e-17 -1 1 6.123234e-17 78.624 201.2777)" class="st45" width="1.64" height="4.42"/>
			
				<rect x="116.29" y="59.12" transform="matrix(6.123234e-17 -1 1 6.123234e-17 55.7806 178.4344)" class="st45" width="1.64" height="4.42"/>
			
				<rect x="164.26" y="44.1" transform="matrix(6.123234e-17 -1 1 6.123234e-17 118.8798 212.0915)" class="st45" width="2.46" height="5.02"/>
			<g>
				<g>
					<g>
						<line class="st46" x1="139.15" y1="40.77" x2="174.73" y2="40.77"/>
					</g>
					<g>
						<g>
							<g>
								
									<rect x="139.15" y="36.72" transform="matrix(-1 -1.224647e-16 1.224647e-16 -1 278.5544 77.4878)" class="st46" width="0.26" height="4.04"/>
								<path class="st46" d="M139.51,40.85h-0.46v-4.22h0.46V40.85z M139.25,40.68h0.06v-3.87h-0.06V40.68z"/>
							</g>
							<g>
								
									<rect x="141.85" y="36.72" transform="matrix(-1 -1.224647e-16 1.224647e-16 -1 283.9604 77.4878)" class="st46" width="0.26" height="4.04"/>
								<path class="st46" d="M142.21,40.85h-0.46v-4.22h0.46V40.85z M141.95,40.68h0.06v-3.87h-0.06V40.68z"/>
							</g>
							<g>
								
									<rect x="144.55" y="36.72" transform="matrix(-1 -1.224647e-16 1.224647e-16 -1 289.3666 77.4878)" class="st46" width="0.26" height="4.04"/>
								<path class="st46" d="M144.91,40.85h-0.46v-4.22h0.46V40.85z M144.66,40.68h0.06v-3.87h-0.06V40.68z"/>
							</g>
							<g>
								
									<rect x="147.26" y="36.72" transform="matrix(-1 -1.224647e-16 1.224647e-16 -1 294.7729 77.4878)" class="st46" width="0.26" height="4.04"/>
								<path class="st46" d="M147.62,40.85h-0.46v-4.22h0.46V40.85z M147.36,40.68h0.06v-3.87h-0.06V40.68z"/>
							</g>
							<g>
								
									<rect x="149.96" y="36.72" transform="matrix(-1 -1.224647e-16 1.224647e-16 -1 300.179 77.4878)" class="st46" width="0.26" height="4.04"/>
								<path class="st46" d="M150.32,40.85h-0.46v-4.22h0.46V40.85z M150.06,40.68h0.06v-3.87h-0.06V40.68z"/>
							</g>
							<g>
								
									<rect x="152.66" y="36.72" transform="matrix(-1 -1.224647e-16 1.224647e-16 -1 305.5852 77.4878)" class="st46" width="0.26" height="4.04"/>
								<path class="st46" d="M153.02,40.85h-0.46v-4.22h0.46V40.85z M152.76,40.68h0.06v-3.87h-0.06V40.68z"/>
							</g>
							<g>
								
									<rect x="155.37" y="36.72" transform="matrix(-1 -1.224647e-16 1.224647e-16 -1 310.9915 77.4878)" class="st46" width="0.26" height="4.04"/>
								<path class="st46" d="M155.73,40.85h-0.46v-4.22h0.46V40.85z M155.47,40.68h0.06v-3.87h-0.06V40.68z"/>
							</g>
							<g>
								
									<rect x="158.07" y="36.72" transform="matrix(-1 -1.224647e-16 1.224647e-16 -1 316.3977 77.4878)" class="st46" width="0.26" height="4.04"/>
								<path class="st46" d="M158.43,40.85h-0.46v-4.22h0.46V40.85z M158.17,40.68h0.06v-3.87h-0.06V40.68z"/>
							</g>
							<g>
								
									<rect x="160.77" y="36.72" transform="matrix(-1 -1.224647e-16 1.224647e-16 -1 321.804 77.4878)" class="st46" width="0.26" height="4.04"/>
								<path class="st46" d="M161.13,40.85h-0.46v-4.22h0.46V40.85z M160.87,40.68h0.06v-3.87h-0.06V40.68z"/>
							</g>
							<g>
								
									<rect x="163.48" y="36.72" transform="matrix(-1 -1.224647e-16 1.224647e-16 -1 327.2101 77.4878)" class="st46" width="0.26" height="4.04"/>
								<path class="st46" d="M163.83,40.85h-0.46v-4.22h0.46V40.85z M163.58,40.68h0.06v-3.87h-0.06V40.68z"/>
							</g>
							<g>
								
									<rect x="166.18" y="36.72" transform="matrix(-1 -1.224647e-16 1.224647e-16 -1 332.6163 77.4878)" class="st46" width="0.26" height="4.04"/>
								<path class="st46" d="M166.54,40.85h-0.46v-4.22h0.46V40.85z M166.28,40.68h0.06v-3.87h-0.06V40.68z"/>
							</g>
							<g>
								
									<rect x="168.88" y="36.72" transform="matrix(-1 -1.224647e-16 1.224647e-16 -1 338.0225 77.4878)" class="st46" width="0.26" height="4.04"/>
								<path class="st46" d="M169.24,40.85h-0.46v-4.22h0.46V40.85z M168.98,40.68h0.06v-3.87h-0.06V40.68z"/>
							</g>
							<g>
								
									<rect x="171.59" y="36.72" transform="matrix(-1 -1.224647e-16 1.224647e-16 -1 343.4286 77.4878)" class="st46" width="0.26" height="4.04"/>
								<path class="st46" d="M171.94,40.85h-0.46v-4.22h0.46V40.85z M171.69,40.68h0.06v-3.87h-0.06V40.68z"/>
							</g>
							<g>
								
									<rect x="174.29" y="36.72" transform="matrix(-1 -1.224647e-16 1.224647e-16 -1 348.8348 77.4878)" class="st46" width="0.26" height="4.04"/>
								<path class="st46" d="M174.65,40.85h-0.46v-4.22h0.46V40.85z M174.39,40.68h0.06v-3.87h-0.06V40.68z"/>
							</g>
						</g>
						<rect x="139.07" y="40.26" class="st46" width="35.68" height="0.77"/>
						<rect x="139.02" y="36.17" class="st46" width="35.73" height="0.55"/>
					</g>
				</g>
			</g>
			<g>
				<g>
					<g>
						<line class="st46" x1="81.71" y1="54.4" x2="110.13" y2="54.4"/>
					</g>
					<g>
						<rect x="81.63" y="53.89" class="st46" width="28.52" height="0.77"/>
						<rect x="81.58" y="49.8" class="st46" width="28.58" height="0.55"/>
					</g>
				</g>
			</g>
			<g>
				<g>
					
						<rect x="106.99" y="50.35" transform="matrix(-1 -1.224647e-16 1.224647e-16 -1 214.2421 104.7543)" class="st46" width="0.26" height="4.04"/>
				</g>
				<g>
					
						<rect x="109.69" y="50.35" transform="matrix(-1 -1.224647e-16 1.224647e-16 -1 219.6484 104.7543)" class="st46" width="0.26" height="4.04"/>
					<path class="st46" d="M110.05,54.49h-0.46v-4.22h0.46V54.49z M109.8,54.31h0.06v-3.87h-0.06V54.31z"/>
				</g>
			</g>
			<g>
				
					<rect x="101.18" y="50.35" transform="matrix(-1 -1.224647e-16 1.224647e-16 -1 202.6112 104.7543)" class="st46" width="0.26" height="4.04"/>
			</g>
			<g>
				
					<rect x="103.9" y="50.35" transform="matrix(-1 -1.224647e-16 1.224647e-16 -1 208.0522 104.7543)" class="st46" width="0.26" height="4.04"/>
			</g>
			<g>
				
					<rect x="95.74" y="50.35" transform="matrix(-1 -1.224647e-16 1.224647e-16 -1 191.7291 104.7543)" class="st46" width="0.26" height="4.04"/>
			</g>
			<g>
				
					<rect x="98.46" y="50.35" transform="matrix(-1 -1.224647e-16 1.224647e-16 -1 197.1702 104.7543)" class="st46" width="0.26" height="4.04"/>
			</g>
			<g>
				
					<rect x="90.29" y="50.35" transform="matrix(-1 -1.224647e-16 1.224647e-16 -1 180.847 104.7543)" class="st46" width="0.26" height="4.04"/>
			</g>
			<g>
				
					<rect x="93.01" y="50.35" transform="matrix(-1 -1.224647e-16 1.224647e-16 -1 186.2881 104.7543)" class="st46" width="0.26" height="4.04"/>
			</g>
			<g>
				
					<rect x="84.85" y="50.35" transform="matrix(-1 -1.224647e-16 1.224647e-16 -1 169.965 104.7543)" class="st46" width="0.26" height="4.04"/>
			</g>
			<g>
				
					<rect x="82.13" y="50.35" transform="matrix(-1 -1.224647e-16 1.224647e-16 -1 164.5239 104.7543)" class="st46" width="0.26" height="4.04"/>
			</g>
			<g>
				
					<rect x="87.57" y="50.35" transform="matrix(-1 -1.224647e-16 1.224647e-16 -1 175.406 104.7543)" class="st46" width="0.26" height="4.04"/>
			</g>
			<polygon class="st47" points="130.19,39.44 129.16,39.56 128.22,37.97 129.04,37.49 			"/>
			<polygon class="st47" points="128.42,39.66 127.36,39.73 126.56,38.38 127.37,37.9 			"/>
			<rect x="159.24" y="23.46" class="st45" width="2.22" height="4.67"/>
			<polygon class="st45" points="178.04,24.61 174.63,25.47 174.63,28.44 178.04,27.58 			"/>
			<polygon class="st45" points="170.23,24.61 173.64,25.47 173.64,28.44 170.23,27.58 			"/>
			<rect x="159.98" y="8.38" class="st45" width="0.73" height="14.89"/>
		</g>
		<g>
			<path class="st48" d="M206.09,63.23v-2.57c0-1.59,1.29-2.87,2.87-2.87h175.08c1.59,0,2.87,1.29,2.87,2.87v2.57"/>
			<path class="st48" d="M193.88,69.38v-3.81h208.06v3.82h-3.34c0,0-2.44,4.81-12.01,4.81l-188.31,0l-0.01-3.08L193.88,69.38z"/>
			<rect x="195.64" y="65" class="st48" width="1.75" height="0.56"/>
			<rect x="198.7" y="65" class="st48" width="1.75" height="0.56"/>
			<rect x="204.5" y="63.22" class="st48" width="186.22" height="2.15"/>
			<path class="st48" d="M237.1,57.78c0,0.4-0.32,0.73-0.73,0.73h-8.82c-0.4,0-0.73-0.32-0.73-0.73"/>
			<path class="st48" d="M267.77,57.78c0,0.4-0.32,0.73-0.73,0.73h-8.82c-0.4,0-0.73-0.32-0.73-0.73"/>
			<path class="st48" d="M298.43,57.78c0,0.4-0.32,0.73-0.73,0.73h-8.82c-0.4,0-0.73-0.32-0.73-0.73"/>
			<path class="st48" d="M329.09,57.78c0,0.4-0.32,0.73-0.73,0.73h-8.82c-0.4,0-0.73-0.32-0.73-0.73"/>
			<path class="st48" d="M359.76,57.78c0,0.4-0.32,0.73-0.73,0.73h-8.82c-0.4,0-0.73-0.32-0.73-0.73"/>
			<rect x="396.36" y="64.81" class="st48" width="1.75" height="0.56"/>
			<rect x="399.43" y="64.81" class="st48" width="1.75" height="0.56"/>
		</g>
		<g>
			<path class="st48" d="M414.78,63.23v-2.57c0-1.59,1.29-2.87,2.87-2.87h175.08c1.59,0,2.87,1.29,2.87,2.87v2.57"/>
			<path class="st48" d="M402.56,69.38v-3.81h208.06v3.82h-3.34c0,0-2.44,4.81-12.01,4.81l-188.31,0l-0.01-3.08L402.56,69.38z"/>
			<rect x="404.32" y="65" class="st48" width="1.75" height="0.56"/>
			<rect x="407.39" y="65" class="st48" width="1.75" height="0.56"/>
			<rect x="413.18" y="63.22" class="st48" width="186.22" height="2.15"/>
			<path class="st48" d="M445.78,57.78c0,0.4-0.32,0.73-0.73,0.73h-8.82c-0.4,0-0.73-0.32-0.73-0.73"/>
			<path class="st48" d="M476.45,57.78c0,0.4-0.32,0.73-0.73,0.73h-8.82c-0.4,0-0.73-0.32-0.73-0.73"/>
			<path class="st48" d="M507.11,57.78c0,0.4-0.32,0.73-0.73,0.73h-8.82c-0.4,0-0.73-0.32-0.73-0.73"/>
			<path class="st48" d="M537.78,57.78c0,0.4-0.32,0.73-0.73,0.73h-8.82c-0.4,0-0.73-0.32-0.73-0.73"/>
			<path class="st48" d="M568.44,57.78c0,0.4-0.32,0.73-0.73,0.73h-8.82c-0.4,0-0.73-0.32-0.73-0.73"/>
			<rect x="605.04" y="64.81" class="st48" width="1.75" height="0.56"/>
			<rect x="608.11" y="64.81" class="st48" width="1.75" height="0.56"/>
		</g>
		<g>
			<path class="st48" d="M623.29,63.23v-2.57c0-1.59,1.29-2.87,2.87-2.87h175.08c1.59,0,2.87,1.29,2.87,2.87v2.57"/>
			<path class="st48" d="M611.08,69.38v-3.81h208.06v3.82h-3.34c0,0-2.44,4.81-12.01,4.81l-188.31,0l-0.01-3.08L611.08,69.38z"/>
			<rect x="612.84" y="65" class="st48" width="1.75" height="0.56"/>
			<rect x="615.91" y="65" class="st48" width="1.75" height="0.56"/>
			<rect x="621.7" y="63.22" class="st48" width="186.22" height="2.15"/>
			<path class="st48" d="M654.3,57.78c0,0.4-0.32,0.73-0.73,0.73h-8.82c-0.4,0-0.73-0.32-0.73-0.73"/>
			<path class="st48" d="M684.97,57.78c0,0.4-0.32,0.73-0.73,0.73h-8.82c-0.4,0-0.73-0.32-0.73-0.73"/>
			<path class="st48" d="M715.63,57.78c0,0.4-0.32,0.73-0.73,0.73h-8.82c-0.4,0-0.73-0.32-0.73-0.73"/>
			<path class="st48" d="M746.3,57.78c0,0.4-0.32,0.73-0.73,0.73h-8.82c-0.4,0-0.73-0.32-0.73-0.73"/>
			<path class="st48" d="M776.96,57.78c0,0.4-0.32,0.73-0.73,0.73h-8.82c-0.4,0-0.73-0.32-0.73-0.73"/>
			<rect x="813.56" y="64.81" class="st48" width="1.75" height="0.56"/>
			<rect x="816.63" y="64.81" class="st48" width="1.75" height="0.56"/>
		</g>
		<path class="st45" d="M102.58,77.95L101,76.44c-0.06-0.05-0.14-0.05-0.2,0c-0.89,0.82-2.28,0.82-3.16-0.03l-0.26-0.25
			c-1.96-1.88-5.1-1.81-6.98,0.16l-0.14,0.15c-0.93,0.98-2.5,1.01-3.47,0.08l-0.63-0.6c-1.91-1.83-4.95-1.76-6.77,0.15
			c-0.51,0.54-1.25,0.8-2.01,0.69c-0.51-0.07-0.97-0.35-1.35-0.7l-0.17-0.16c-1.97-1.88-5.1-1.81-6.98,0.16l-0.16,0.16
			c-0.93,0.97-2.49,1.01-3.46,0.09l-0.66-0.62c-1.94-1.83-5.05-1.78-6.92,0.12l-0.26,0.26c-0.93,0.95-2.49,0.97-3.45,0.05
			l-0.19-0.18c-0.02-0.02-0.05-0.02-0.07-0.03c-0.01,0-0.02-0.01-0.03-0.01c-0.01,0-0.02,0.01-0.03,0.01
			c-0.03,0.01-0.05,0.01-0.07,0.03l-0.19,0.18c-0.96,0.92-2.51,0.9-3.45-0.05l-0.26-0.26c-1.87-1.9-4.98-1.96-6.92-0.12l-0.66,0.62
			c-0.98,0.92-2.53,0.89-3.46-0.09l-0.16-0.16c-1.88-1.97-5.01-2.04-6.98-0.16l-0.17,0.16c-0.37,0.36-0.84,0.63-1.35,0.7
			c-0.76,0.11-1.49-0.15-2.01-0.69c-1.82-1.91-4.86-1.98-6.77-0.15l-0.63,0.6c-0.98,0.93-2.54,0.9-3.47-0.08l-0.14-0.15
			c-1.88-1.96-5.02-2.03-6.98-0.16l-0.26,0.25c-0.89,0.85-2.28,0.85-3.16,0.03c-0.06-0.05-0.14-0.06-0.2,0L4.8,77.95
			c-0.06,0.06-0.06,0.16,0,0.22c0.9,0.88,2.07,1.34,3.24,1.36c1.23,0.03,2.46-0.41,3.42-1.32l0.26-0.25
			c0.98-0.93,2.54-0.9,3.47,0.08l0.14,0.15c1.88,1.97,5.01,2.04,6.98,0.16l0.51-0.49c0.95-0.91,2.51-0.91,3.44,0.02
			c1,1.01,2.38,1.52,3.83,1.4c1.14-0.1,2.2-0.66,3.02-1.45l0.22-0.21c0.54-0.51,1.28-0.74,2.04-0.6c0.51,0.09,0.96,0.39,1.32,0.76
			l0.17,0.18c1.87,1.95,5,2.03,6.96,0.17l0.66-0.62c0.96-0.91,2.51-0.89,3.44,0.06l0.26,0.26c1.47,1.49,3.68,1.83,5.51,1.03
			c1.83,0.8,4.04,0.46,5.51-1.03l0.26-0.26c0.93-0.95,2.48-0.97,3.44-0.06l0.66,0.62c1.96,1.86,5.1,1.78,6.96-0.17l0.17-0.18
			c0.36-0.37,0.81-0.67,1.32-0.76c0.76-0.14,1.5,0.08,2.04,0.6l0.22,0.21c0.83,0.79,1.88,1.35,3.02,1.45
			c1.45,0.12,2.83-0.39,3.83-1.4c0.93-0.94,2.49-0.93,3.44-0.02l0.51,0.49c1.97,1.88,5.1,1.81,6.98-0.16l0.14-0.15
			c0.93-0.98,2.5-1.01,3.47-0.08l0.26,0.25c0.95,0.91,2.19,1.35,3.42,1.32c1.18-0.03,2.34-0.48,3.24-1.36
			C102.64,78.11,102.64,78.01,102.58,77.95z"/>
		<path class="st45" d="M197.02,77.95l-1.58-1.51c-0.06-0.05-0.14-0.05-0.2,0c-0.89,0.82-2.28,0.82-3.16-0.03l-0.26-0.25
			c-1.96-1.88-5.1-1.81-6.98,0.16l-0.14,0.15c-0.93,0.98-2.5,1.01-3.47,0.08l-0.63-0.6c-1.91-1.83-4.95-1.76-6.77,0.15
			c-0.51,0.54-1.25,0.8-2.01,0.69c-0.51-0.07-0.97-0.35-1.35-0.7l-0.17-0.16c-1.97-1.88-5.1-1.81-6.98,0.16l-0.16,0.16
			c-0.93,0.97-2.49,1.01-3.46,0.09l-0.66-0.62c-1.94-1.83-5.05-1.78-6.92,0.12l-0.26,0.26c-0.93,0.95-2.49,0.97-3.45,0.05
			l-0.19-0.18c-0.02-0.02-0.05-0.02-0.07-0.03c-0.01,0-0.02-0.01-0.03-0.01c-0.01,0-0.02,0.01-0.03,0.01
			c-0.03,0.01-0.05,0.01-0.07,0.03l-0.19,0.18c-0.96,0.92-2.51,0.9-3.45-0.05l-0.26-0.26c-1.87-1.9-4.98-1.96-6.92-0.12l-0.66,0.62
			c-0.98,0.92-2.53,0.89-3.46-0.09l-0.16-0.16c-1.88-1.97-5.01-2.04-6.98-0.16l-0.17,0.16c-0.37,0.36-0.84,0.63-1.35,0.7
			c-0.76,0.11-1.49-0.15-2.01-0.69c-1.82-1.91-4.86-1.98-6.77-0.15l-0.63,0.6c-0.98,0.93-2.54,0.9-3.47-0.08l-0.14-0.15
			c-1.88-1.96-5.02-2.03-6.98-0.16l-0.26,0.25c-0.89,0.85-2.28,0.85-3.16,0.03c-0.06-0.05-0.14-0.06-0.2,0l-1.58,1.51
			c-0.06,0.06-0.06,0.16,0,0.22c0.9,0.88,2.07,1.34,3.24,1.36c1.23,0.03,2.46-0.41,3.42-1.32l0.26-0.25
			c0.98-0.93,2.54-0.9,3.47,0.08l0.14,0.15c1.88,1.97,5.01,2.04,6.98,0.16l0.51-0.49c0.95-0.91,2.51-0.91,3.44,0.02
			c1,1.01,2.38,1.52,3.83,1.4c1.14-0.1,2.2-0.66,3.02-1.45l0.22-0.21c0.54-0.51,1.28-0.74,2.04-0.6c0.51,0.09,0.96,0.39,1.32,0.76
			l0.17,0.18c1.87,1.95,5,2.03,6.96,0.17l0.66-0.62c0.96-0.91,2.51-0.89,3.44,0.06l0.26,0.26c1.47,1.49,3.68,1.83,5.51,1.03
			c1.83,0.8,4.04,0.46,5.51-1.03l0.26-0.26c0.93-0.95,2.48-0.97,3.44-0.06l0.66,0.62c1.96,1.86,5.1,1.78,6.96-0.17l0.17-0.18
			c0.36-0.37,0.81-0.67,1.32-0.76c0.76-0.14,1.5,0.08,2.04,0.6l0.22,0.21c0.83,0.79,1.88,1.35,3.02,1.45
			c1.45,0.12,2.83-0.39,3.83-1.4c0.93-0.94,2.49-0.93,3.44-0.02l0.51,0.49c1.97,1.88,5.1,1.81,6.98-0.16l0.14-0.15
			c0.93-0.98,2.5-1.01,3.47-0.08l0.26,0.25c0.95,0.91,2.19,1.35,3.42,1.32c1.18-0.03,2.34-0.48,3.24-1.36
			C197.09,78.11,197.08,78.01,197.02,77.95z"/>
		<path class="st45" d="M291.48,77.95l-1.58-1.51c-0.06-0.05-0.14-0.05-0.2,0c-0.89,0.82-2.28,0.82-3.16-0.03l-0.26-0.25
			c-1.96-1.88-5.1-1.81-6.98,0.16l-0.14,0.15c-0.93,0.98-2.5,1.01-3.47,0.08l-0.63-0.6c-1.91-1.83-4.95-1.76-6.77,0.15
			c-0.51,0.54-1.25,0.8-2.01,0.69c-0.51-0.07-0.97-0.35-1.35-0.7l-0.17-0.16c-1.97-1.88-5.1-1.81-6.98,0.16l-0.16,0.16
			c-0.93,0.97-2.49,1.01-3.46,0.09l-0.66-0.62c-1.94-1.83-5.05-1.78-6.92,0.12l-0.26,0.26c-0.93,0.95-2.49,0.97-3.45,0.05
			l-0.19-0.18c-0.02-0.02-0.05-0.02-0.07-0.03c-0.01,0-0.02-0.01-0.03-0.01c-0.01,0-0.02,0.01-0.03,0.01
			c-0.03,0.01-0.05,0.01-0.07,0.03l-0.19,0.18c-0.96,0.92-2.51,0.9-3.45-0.05l-0.26-0.26c-1.87-1.9-4.98-1.96-6.92-0.12l-0.66,0.62
			c-0.98,0.92-2.53,0.89-3.46-0.09l-0.16-0.16c-1.88-1.97-5.01-2.04-6.98-0.16l-0.17,0.16c-0.37,0.36-0.84,0.63-1.35,0.7
			c-0.76,0.11-1.49-0.15-2.01-0.69c-1.82-1.91-4.86-1.98-6.77-0.15l-0.63,0.6c-0.98,0.93-2.54,0.9-3.47-0.08l-0.14-0.15
			c-1.88-1.96-5.02-2.03-6.98-0.16l-0.26,0.25c-0.89,0.85-2.28,0.85-3.16,0.03c-0.06-0.05-0.14-0.06-0.2,0l-1.58,1.51
			c-0.06,0.06-0.06,0.16,0,0.22c0.9,0.88,2.07,1.34,3.24,1.36c1.23,0.03,2.46-0.41,3.42-1.32l0.26-0.25
			c0.98-0.93,2.54-0.9,3.47,0.08l0.14,0.15c1.88,1.97,5.01,2.04,6.98,0.16l0.51-0.49c0.95-0.91,2.51-0.91,3.44,0.02
			c1,1.01,2.38,1.52,3.83,1.4c1.14-0.1,2.2-0.66,3.02-1.45l0.22-0.21c0.54-0.51,1.28-0.74,2.04-0.6c0.51,0.09,0.96,0.39,1.32,0.76
			l0.17,0.18c1.87,1.95,5,2.03,6.96,0.17l0.66-0.62c0.96-0.91,2.51-0.89,3.44,0.06l0.26,0.26c1.47,1.49,3.68,1.83,5.51,1.03
			c1.83,0.8,4.04,0.46,5.51-1.03l0.26-0.26c0.93-0.95,2.48-0.97,3.44-0.06l0.66,0.62c1.96,1.86,5.1,1.78,6.96-0.17l0.17-0.18
			c0.36-0.37,0.81-0.67,1.32-0.76c0.76-0.14,1.5,0.08,2.04,0.6l0.22,0.21c0.83,0.79,1.88,1.35,3.02,1.45
			c1.45,0.12,2.83-0.39,3.83-1.4c0.93-0.94,2.49-0.93,3.44-0.02l0.51,0.49c1.97,1.88,5.1,1.81,6.98-0.16l0.14-0.15
			c0.93-0.98,2.5-1.01,3.47-0.08l0.26,0.25c0.95,0.91,2.19,1.35,3.42,1.32c1.18-0.03,2.34-0.48,3.24-1.36
			C291.54,78.11,291.54,78.01,291.48,77.95z"/>
		<path class="st45" d="M385.92,77.95l-1.58-1.51c-0.06-0.05-0.14-0.05-0.2,0c-0.89,0.82-2.28,0.82-3.16-0.03l-0.26-0.25
			c-1.96-1.88-5.1-1.81-6.98,0.16l-0.14,0.15c-0.93,0.98-2.5,1.01-3.47,0.08l-0.63-0.6c-1.91-1.83-4.95-1.76-6.77,0.15
			c-0.52,0.54-1.25,0.8-2.01,0.69c-0.51-0.07-0.97-0.35-1.35-0.7l-0.17-0.16c-1.97-1.88-5.1-1.81-6.98,0.16l-0.16,0.16
			c-0.93,0.97-2.49,1.01-3.46,0.09l-0.66-0.62c-1.94-1.83-5.05-1.78-6.92,0.12l-0.26,0.26c-0.93,0.95-2.49,0.97-3.45,0.05
			l-0.19-0.18c-0.02-0.02-0.05-0.02-0.07-0.03c-0.01,0-0.02-0.01-0.03-0.01c-0.01,0-0.02,0.01-0.03,0.01
			c-0.03,0.01-0.05,0.01-0.07,0.03l-0.19,0.18c-0.96,0.92-2.51,0.9-3.45-0.05l-0.26-0.26c-1.87-1.9-4.98-1.96-6.92-0.12l-0.66,0.62
			c-0.98,0.92-2.53,0.89-3.46-0.09l-0.16-0.16c-1.88-1.97-5.01-2.04-6.98-0.16l-0.17,0.16c-0.37,0.36-0.84,0.63-1.35,0.7
			c-0.76,0.11-1.49-0.15-2.01-0.69c-1.82-1.91-4.86-1.98-6.77-0.15l-0.63,0.6c-0.98,0.93-2.54,0.9-3.47-0.08l-0.14-0.15
			c-1.88-1.96-5.02-2.03-6.98-0.16l-0.26,0.25c-0.89,0.85-2.28,0.85-3.16,0.03c-0.06-0.05-0.14-0.06-0.2,0l-1.58,1.51
			c-0.06,0.06-0.06,0.16,0,0.22c0.9,0.88,2.07,1.34,3.24,1.36c1.23,0.03,2.46-0.41,3.42-1.32l0.26-0.25
			c0.98-0.93,2.54-0.9,3.47,0.08l0.14,0.15c1.88,1.97,5.01,2.04,6.98,0.16l0.51-0.49c0.95-0.91,2.51-0.91,3.44,0.02
			c1,1.01,2.38,1.52,3.83,1.4c1.14-0.1,2.2-0.66,3.02-1.45l0.22-0.21c0.54-0.51,1.28-0.74,2.04-0.6c0.51,0.09,0.96,0.39,1.32,0.76
			l0.17,0.18c1.87,1.95,5,2.03,6.96,0.17l0.66-0.62c0.96-0.91,2.51-0.89,3.44,0.06l0.26,0.26c1.47,1.49,3.68,1.83,5.51,1.03
			c1.83,0.8,4.04,0.46,5.51-1.03l0.26-0.26c0.93-0.95,2.48-0.97,3.44-0.06l0.66,0.62c1.96,1.86,5.1,1.78,6.96-0.17l0.17-0.18
			c0.36-0.37,0.81-0.67,1.32-0.76c0.76-0.14,1.5,0.08,2.04,0.6l0.22,0.21c0.83,0.79,1.88,1.35,3.02,1.45
			c1.45,0.12,2.83-0.39,3.83-1.4c0.93-0.94,2.49-0.93,3.44-0.02l0.51,0.49c1.97,1.88,5.1,1.81,6.98-0.16l0.14-0.15
			c0.93-0.98,2.5-1.01,3.47-0.08l0.26,0.25c0.95,0.91,2.19,1.35,3.42,1.32c1.18-0.03,2.34-0.48,3.24-1.36
			C385.98,78.11,385.98,78.01,385.92,77.95z"/>
		<path class="st45" d="M480.41,77.95l-1.58-1.51c-0.06-0.05-0.14-0.05-0.2,0c-0.89,0.82-2.28,0.82-3.16-0.03l-0.26-0.25
			c-1.96-1.88-5.1-1.81-6.98,0.16l-0.14,0.15c-0.93,0.98-2.5,1.01-3.47,0.08l-0.63-0.6c-1.91-1.83-4.95-1.76-6.77,0.15
			c-0.51,0.54-1.25,0.8-2.01,0.69c-0.51-0.07-0.97-0.35-1.35-0.7l-0.17-0.16c-1.97-1.88-5.1-1.81-6.98,0.16l-0.16,0.16
			c-0.93,0.97-2.49,1.01-3.46,0.09l-0.66-0.62c-1.94-1.83-5.05-1.78-6.92,0.12l-0.26,0.26c-0.93,0.95-2.49,0.97-3.45,0.05
			l-0.19-0.18c-0.02-0.02-0.05-0.02-0.07-0.03c-0.01,0-0.02-0.01-0.03-0.01c-0.01,0-0.02,0.01-0.03,0.01
			c-0.03,0.01-0.05,0.01-0.07,0.03l-0.19,0.18c-0.96,0.92-2.51,0.9-3.45-0.05l-0.26-0.26c-1.87-1.9-4.98-1.96-6.92-0.12l-0.66,0.62
			c-0.98,0.92-2.53,0.89-3.46-0.09l-0.16-0.16c-1.88-1.97-5.01-2.04-6.98-0.16l-0.17,0.16c-0.37,0.36-0.84,0.63-1.35,0.7
			c-0.76,0.11-1.49-0.15-2.01-0.69c-1.82-1.91-4.86-1.98-6.77-0.15l-0.63,0.6c-0.98,0.93-2.54,0.9-3.47-0.08l-0.14-0.15
			c-1.88-1.96-5.02-2.03-6.98-0.16l-0.26,0.25c-0.89,0.85-2.28,0.85-3.16,0.03c-0.06-0.05-0.14-0.06-0.2,0l-1.58,1.51
			c-0.06,0.06-0.06,0.16,0,0.22c0.9,0.88,2.07,1.34,3.24,1.36c1.23,0.03,2.46-0.41,3.42-1.32l0.26-0.25
			c0.98-0.93,2.54-0.9,3.47,0.08l0.14,0.15c1.88,1.97,5.01,2.04,6.98,0.16l0.51-0.49c0.95-0.91,2.51-0.91,3.44,0.02
			c1,1.01,2.38,1.52,3.83,1.4c1.14-0.1,2.2-0.66,3.02-1.45l0.22-0.21c0.54-0.51,1.28-0.74,2.04-0.6c0.51,0.09,0.96,0.39,1.32,0.76
			l0.17,0.18c1.87,1.95,5,2.03,6.96,0.17l0.66-0.62c0.96-0.91,2.51-0.89,3.44,0.06l0.26,0.26c1.47,1.49,3.68,1.83,5.51,1.03
			c1.83,0.8,4.04,0.46,5.51-1.03l0.26-0.26c0.93-0.95,2.48-0.97,3.44-0.06l0.66,0.62c1.96,1.86,5.1,1.78,6.96-0.17l0.17-0.18
			c0.36-0.37,0.81-0.67,1.32-0.76c0.76-0.14,1.5,0.08,2.04,0.6l0.22,0.21c0.83,0.79,1.88,1.35,3.02,1.45
			c1.45,0.12,2.83-0.39,3.83-1.4c0.93-0.94,2.49-0.93,3.44-0.02l0.51,0.49c1.97,1.88,5.1,1.81,6.98-0.16l0.14-0.15
			c0.93-0.98,2.5-1.01,3.47-0.08l0.26,0.25c0.95,0.91,2.19,1.35,3.42,1.32c1.18-0.03,2.34-0.48,3.24-1.36
			C480.47,78.11,480.47,78.01,480.41,77.95z"/>
		<path class="st45" d="M574.85,77.95l-1.58-1.51c-0.06-0.05-0.14-0.05-0.2,0c-0.89,0.82-2.28,0.82-3.16-0.03l-0.26-0.25
			c-1.96-1.88-5.1-1.81-6.98,0.16l-0.14,0.15c-0.93,0.98-2.5,1.01-3.47,0.08l-0.63-0.6c-1.91-1.83-4.95-1.76-6.77,0.15
			c-0.51,0.54-1.25,0.8-2.01,0.69c-0.51-0.07-0.97-0.35-1.35-0.7l-0.17-0.16c-1.97-1.88-5.1-1.81-6.98,0.16L541,76.25
			c-0.93,0.97-2.49,1.01-3.46,0.09l-0.66-0.62c-1.94-1.83-5.05-1.78-6.92,0.12l-0.26,0.26c-0.93,0.95-2.49,0.97-3.45,0.05
			l-0.19-0.18c-0.02-0.02-0.05-0.02-0.07-0.03c-0.01,0-0.02-0.01-0.03-0.01c-0.01,0-0.02,0.01-0.03,0.01
			c-0.03,0.01-0.05,0.01-0.07,0.03l-0.19,0.18c-0.96,0.92-2.51,0.9-3.45-0.05l-0.26-0.26c-1.87-1.9-4.98-1.96-6.92-0.12l-0.66,0.62
			c-0.98,0.92-2.53,0.89-3.46-0.09l-0.16-0.16c-1.88-1.97-5.01-2.04-6.98-0.16l-0.17,0.16c-0.37,0.36-0.84,0.63-1.35,0.7
			c-0.76,0.11-1.49-0.15-2.01-0.69c-1.82-1.91-4.86-1.98-6.77-0.15l-0.63,0.6c-0.98,0.93-2.54,0.9-3.47-0.08l-0.14-0.15
			c-1.88-1.96-5.02-2.03-6.98-0.16l-0.26,0.25c-0.89,0.85-2.28,0.85-3.16,0.03c-0.06-0.05-0.14-0.06-0.2,0l-1.58,1.51
			c-0.06,0.06-0.06,0.16,0,0.22c0.9,0.88,2.07,1.34,3.24,1.36c1.23,0.03,2.46-0.41,3.42-1.32l0.26-0.25
			c0.98-0.93,2.54-0.9,3.47,0.08l0.14,0.15c1.88,1.97,5.01,2.04,6.98,0.16l0.51-0.49c0.95-0.91,2.51-0.91,3.44,0.02
			c1,1.01,2.38,1.52,3.83,1.4c1.14-0.1,2.2-0.66,3.02-1.45l0.22-0.21c0.54-0.51,1.28-0.74,2.04-0.6c0.51,0.09,0.96,0.39,1.32,0.76
			l0.17,0.18c1.87,1.95,5,2.03,6.96,0.17l0.66-0.62c0.96-0.91,2.51-0.89,3.44,0.06l0.26,0.26c1.47,1.49,3.68,1.83,5.51,1.03
			c1.83,0.8,4.04,0.46,5.51-1.03l0.26-0.26c0.93-0.95,2.48-0.97,3.44-0.06l0.66,0.62c1.96,1.86,5.1,1.78,6.96-0.17l0.17-0.18
			c0.36-0.37,0.81-0.67,1.32-0.76c0.76-0.14,1.5,0.08,2.04,0.6l0.22,0.21c0.83,0.79,1.88,1.35,3.02,1.45
			c1.45,0.12,2.83-0.39,3.83-1.4c0.93-0.94,2.49-0.93,3.44-0.02l0.51,0.49c1.97,1.88,5.1,1.81,6.98-0.16l0.14-0.15
			c0.93-0.98,2.5-1.01,3.47-0.08l0.26,0.25c0.95,0.91,2.19,1.35,3.42,1.32c1.18-0.03,2.34-0.48,3.24-1.36
			C574.92,78.11,574.92,78.01,574.85,77.95z"/>
		<path class="st45" d="M669.31,77.95l-1.58-1.51c-0.06-0.05-0.14-0.05-0.2,0c-0.89,0.82-2.28,0.82-3.16-0.03l-0.26-0.25
			c-1.96-1.88-5.1-1.81-6.98,0.16l-0.14,0.15c-0.93,0.98-2.5,1.01-3.47,0.08l-0.63-0.6c-1.91-1.83-4.95-1.76-6.77,0.15
			c-0.52,0.54-1.25,0.8-2.01,0.69c-0.51-0.07-0.97-0.35-1.35-0.7l-0.17-0.16c-1.97-1.88-5.1-1.81-6.98,0.16l-0.16,0.16
			c-0.93,0.97-2.49,1.01-3.46,0.09l-0.66-0.62c-1.94-1.83-5.05-1.78-6.92,0.12l-0.26,0.26c-0.93,0.95-2.49,0.97-3.45,0.05
			l-0.19-0.18c-0.02-0.02-0.05-0.02-0.07-0.03c-0.01,0-0.02-0.01-0.03-0.01c-0.01,0-0.02,0.01-0.03,0.01
			c-0.03,0.01-0.05,0.01-0.07,0.03l-0.19,0.18c-0.96,0.92-2.51,0.9-3.45-0.05l-0.26-0.26c-1.87-1.9-4.98-1.96-6.92-0.12l-0.66,0.62
			c-0.98,0.92-2.53,0.89-3.46-0.09l-0.16-0.16c-1.88-1.97-5.01-2.04-6.98-0.16l-0.17,0.16c-0.37,0.36-0.84,0.63-1.35,0.7
			c-0.76,0.11-1.49-0.15-2.01-0.69c-1.82-1.91-4.86-1.98-6.77-0.15l-0.63,0.6c-0.98,0.93-2.54,0.9-3.47-0.08l-0.14-0.15
			c-1.88-1.96-5.02-2.03-6.98-0.16l-0.26,0.25c-0.89,0.85-2.28,0.85-3.16,0.03c-0.06-0.05-0.14-0.06-0.2,0l-1.58,1.51
			c-0.06,0.06-0.06,0.16,0,0.22c0.9,0.88,2.07,1.34,3.24,1.36c1.23,0.03,2.46-0.41,3.42-1.32l0.26-0.25
			c0.98-0.93,2.54-0.9,3.47,0.08l0.14,0.15c1.88,1.97,5.01,2.04,6.98,0.16l0.51-0.49c0.95-0.91,2.51-0.91,3.44,0.02
			c1,1.01,2.38,1.52,3.83,1.4c1.14-0.1,2.2-0.66,3.02-1.45l0.22-0.21c0.54-0.51,1.28-0.74,2.04-0.6c0.51,0.09,0.96,0.39,1.32,0.76
			l0.17,0.18c1.87,1.95,5,2.03,6.96,0.17l0.66-0.62c0.96-0.91,2.51-0.89,3.44,0.06l0.26,0.26c1.47,1.49,3.68,1.83,5.51,1.03
			c1.83,0.8,4.04,0.46,5.51-1.03l0.26-0.26c0.93-0.95,2.48-0.97,3.44-0.06l0.66,0.62c1.96,1.86,5.1,1.78,6.96-0.17l0.17-0.18
			c0.36-0.37,0.81-0.67,1.32-0.76c0.76-0.14,1.5,0.08,2.04,0.6l0.22,0.21c0.83,0.79,1.88,1.35,3.02,1.45
			c1.45,0.12,2.83-0.39,3.83-1.4c0.93-0.94,2.49-0.93,3.44-0.02l0.51,0.49c1.97,1.88,5.1,1.81,6.98-0.16l0.14-0.15
			c0.93-0.98,2.5-1.01,3.47-0.08l0.26,0.25c0.95,0.91,2.19,1.35,3.42,1.32c1.18-0.03,2.34-0.48,3.24-1.36
			C669.37,78.11,669.37,78.01,669.31,77.95z"/>
		<path class="st45" d="M763.75,77.95l-1.58-1.51c-0.06-0.05-0.14-0.05-0.2,0c-0.89,0.82-2.28,0.82-3.16-0.03l-0.26-0.25
			c-1.96-1.88-5.1-1.81-6.98,0.16l-0.14,0.15c-0.93,0.98-2.5,1.01-3.47,0.08l-0.63-0.6c-1.91-1.83-4.95-1.76-6.77,0.15
			c-0.52,0.54-1.25,0.8-2.01,0.69c-0.51-0.07-0.97-0.35-1.35-0.7l-0.17-0.16c-1.97-1.88-5.1-1.81-6.98,0.16l-0.16,0.16
			c-0.93,0.97-2.49,1.01-3.46,0.09l-0.66-0.62c-1.94-1.83-5.05-1.78-6.92,0.12l-0.26,0.26c-0.93,0.95-2.49,0.97-3.45,0.05
			l-0.19-0.18c-0.02-0.02-0.05-0.02-0.07-0.03c-0.01,0-0.02-0.01-0.03-0.01c-0.01,0-0.02,0.01-0.03,0.01
			c-0.03,0.01-0.05,0.01-0.07,0.03l-0.19,0.18c-0.96,0.92-2.51,0.9-3.45-0.05l-0.26-0.26c-1.87-1.9-4.98-1.96-6.92-0.12l-0.66,0.62
			c-0.98,0.92-2.53,0.89-3.46-0.09l-0.16-0.16c-1.88-1.97-5.01-2.04-6.98-0.16l-0.17,0.16c-0.37,0.36-0.84,0.63-1.35,0.7
			c-0.76,0.11-1.49-0.15-2.01-0.69c-1.82-1.91-4.86-1.98-6.77-0.15l-0.63,0.6c-0.98,0.93-2.54,0.9-3.47-0.08l-0.14-0.15
			c-1.88-1.96-5.02-2.03-6.98-0.16l-0.26,0.25c-0.89,0.85-2.28,0.85-3.16,0.03c-0.06-0.05-0.14-0.06-0.2,0l-1.58,1.51
			c-0.06,0.06-0.06,0.16,0,0.22c0.9,0.88,2.07,1.34,3.24,1.36c1.23,0.03,2.46-0.41,3.42-1.32l0.26-0.25
			c0.98-0.93,2.54-0.9,3.47,0.08l0.14,0.15c1.88,1.97,5.01,2.04,6.98,0.16l0.51-0.49c0.95-0.91,2.51-0.91,3.44,0.02
			c1,1.01,2.38,1.52,3.83,1.4c1.14-0.1,2.2-0.66,3.02-1.45l0.22-0.21c0.54-0.51,1.28-0.74,2.04-0.6c0.51,0.09,0.96,0.39,1.32,0.76
			l0.17,0.18c1.87,1.95,5,2.03,6.96,0.17l0.66-0.62c0.96-0.91,2.51-0.89,3.44,0.06l0.26,0.26c1.47,1.49,3.68,1.83,5.51,1.03
			c1.83,0.8,4.04,0.46,5.51-1.03l0.26-0.26c0.93-0.95,2.48-0.97,3.44-0.06l0.66,0.62c1.96,1.86,5.1,1.78,6.96-0.17l0.17-0.18
			c0.36-0.37,0.81-0.67,1.32-0.76c0.76-0.14,1.5,0.08,2.04,0.6l0.22,0.21c0.83,0.79,1.88,1.35,3.02,1.45
			c1.45,0.12,2.83-0.39,3.83-1.4c0.93-0.94,2.49-0.93,3.44-0.02l0.51,0.49c1.97,1.88,5.1,1.81,6.98-0.16l0.14-0.15
			c0.93-0.98,2.5-1.01,3.47-0.08l0.26,0.25c0.95,0.91,2.19,1.35,3.42,1.32c1.18-0.03,2.34-0.48,3.24-1.36
			C763.81,78.11,763.81,78.01,763.75,77.95z"/>
		<path class="st45" d="M819.16,78.14c0.12,0.11,0.26,0.2,0.39,0.3l1.16-2.25l-0.5-0.47c-1.94-1.83-5.05-1.78-6.92,0.12l-0.26,0.26
			c-0.93,0.95-2.49,0.97-3.45,0.05l-0.19-0.18c-0.02-0.02-0.05-0.02-0.07-0.03c-0.01,0-0.02-0.01-0.03-0.01s-0.02,0.01-0.03,0.01
			c-0.03,0.01-0.05,0.01-0.07,0.03l-0.19,0.18c-0.96,0.92-2.51,0.9-3.45-0.05l-0.26-0.26c-1.87-1.9-4.98-1.96-6.92-0.12l-0.66,0.62
			c-0.98,0.92-2.53,0.89-3.46-0.09l-0.16-0.16c-1.88-1.97-5.01-2.04-6.98-0.16l-0.17,0.16c-0.37,0.36-0.84,0.63-1.35,0.7
			c-0.76,0.11-1.49-0.15-2.01-0.69c-1.82-1.91-4.86-1.98-6.77-0.15l-0.63,0.6c-0.98,0.93-2.54,0.9-3.47-0.08l-0.14-0.15
			c-1.88-1.96-5.02-2.03-6.98-0.16l-0.26,0.25c-0.89,0.85-2.28,0.85-3.16,0.03c-0.06-0.05-0.14-0.06-0.2,0l-1.58,1.51
			c-0.06,0.06-0.06,0.16,0,0.22c0.9,0.88,2.07,1.34,3.24,1.36c1.23,0.03,2.46-0.41,3.42-1.32l0.26-0.25
			c0.98-0.93,2.54-0.9,3.47,0.08l0.14,0.15c1.88,1.97,5.01,2.04,6.98,0.16l0.51-0.49c0.95-0.91,2.51-0.91,3.44,0.02
			c1,1.01,2.38,1.52,3.83,1.4c1.14-0.1,2.2-0.66,3.02-1.45l0.22-0.21c0.54-0.51,1.28-0.74,2.04-0.6c0.51,0.09,0.96,0.39,1.32,0.76
			l0.17,0.18c1.87,1.95,5,2.03,6.96,0.17l0.66-0.62c0.96-0.91,2.51-0.89,3.44,0.06l0.26,0.26c1.47,1.49,3.68,1.83,5.51,1.03
			c1.83,0.8,4.04,0.46,5.51-1.03l0.26-0.26c0.93-0.95,2.48-0.97,3.44-0.06L819.16,78.14z"/>
		<path class="st48" d="M5.4,90.66c1.2,1.18,2.77,1.79,4.34,1.82c1.64,0.04,3.29-0.55,4.57-1.77l0.35-0.33
			c1.31-1.25,3.4-1.2,4.65,0.1l0.19,0.2c2.52,2.64,6.7,2.73,9.34,0.21l0.68-0.65c1.27-1.22,3.36-1.22,4.6,0.03
			c1.34,1.35,3.19,2.04,5.13,1.87c1.53-0.13,2.94-0.88,4.05-1.94l0.3-0.28c0.72-0.69,1.71-0.99,2.72-0.8
			c0.68,0.13,1.28,0.52,1.76,1.02l0.23,0.24c2.5,2.61,6.69,2.72,9.32,0.23l0.88-0.83c1.29-1.22,3.36-1.18,4.6,0.08l0.34,0.35
			c1.27,1.29,2.96,1.94,4.66,1.96l0,0c1.64,0.04,3.29-0.55,4.57-1.77l0.35-0.33c1.31-1.25,3.4-1.2,4.65,0.1l0.19,0.2
			c2.52,2.64,6.7,2.73,9.34,0.21l0.68-0.65c1.27-1.22,3.36-1.22,4.6,0.03c1.34,1.35,3.19,2.04,5.13,1.87
			c1.53-0.13,2.94-0.88,4.05-1.94l0.3-0.28c0.72-0.69,1.71-0.99,2.72-0.8c0.68,0.13,1.28,0.52,1.76,1.02l0.23,0.24
			c2.5,2.61,6.69,2.72,9.32,0.23l0.88-0.83c1.29-1.22,3.36-1.18,4.6,0.08l0.34,0.35c2.51,2.56,6.69,2.62,9.28,0.14l0.25-0.24"/>
		<path class="st48" d="M166.38,84.01l-0.25,0.24c-1.29,1.23-3.37,1.2-4.61-0.07l-0.34-0.35c-2.5-2.55-6.67-2.62-9.26-0.16
			l-0.88,0.83c-1.31,1.24-3.39,1.19-4.63-0.11l-0.21-0.22c-2.52-2.64-6.7-2.73-9.34-0.21l-0.22,0.21c-0.5,0.48-1.12,0.85-1.8,0.94
			c-1.02,0.14-2-0.2-2.69-0.92c-2.44-2.55-6.51-2.64-9.06-0.2l-0.84,0.8c-1.31,1.25-3.4,1.2-4.65-0.1l-0.19-0.2
			c-2.51-2.63-6.71-2.72-9.34-0.21l-0.05,0.05c0,0,0,0,0,0l-0.25,0.24c-1.29,1.23-3.37,1.2-4.61-0.07l-0.34-0.35
			c-2.5-2.55-6.67-2.62-9.26-0.16l-0.88,0.83c-1.31,1.24-3.39,1.19-4.63-0.11l-0.21-0.22c-2.52-2.64-6.7-2.73-9.34-0.21l-0.22,0.21
			c-0.5,0.48-1.12,0.85-1.8,0.94c-1.02,0.14-2-0.2-2.69-0.92c-2.44-2.55-6.51-2.64-9.06-0.2l-0.84,0.8c-1.31,1.25-3.4,1.2-4.65-0.1
			l-0.19-0.2c-2.51-2.63-6.71-2.72-9.34-0.21l-0.35,0.33c-1.19,1.13-3.05,1.13-4.23,0.03"/>
		<path class="st48" d="M159.24,89.41c1.2,1.18,2.77,1.79,4.34,1.82c1.64,0.04,3.29-0.55,4.57-1.77l0.35-0.33
			c1.31-1.25,3.4-1.2,4.65,0.1l0.19,0.2c2.52,2.64,6.7,2.73,9.34,0.21l0.68-0.65c1.27-1.22,3.36-1.22,4.6,0.03
			c1.34,1.35,3.19,2.04,5.13,1.87c1.53-0.13,2.94-0.88,4.05-1.94l0.3-0.28c0.72-0.69,1.71-0.99,2.72-0.8
			c0.68,0.13,1.28,0.52,1.76,1.02l0.23,0.24c2.5,2.61,6.69,2.72,9.32,0.23l0.88-0.83c1.29-1.22,3.36-1.18,4.6,0.08l0.34,0.35
			c1.27,1.29,2.96,1.94,4.66,1.96l0,0c1.64,0.04,3.29-0.55,4.57-1.77l0.35-0.33c1.31-1.25,3.4-1.2,4.65,0.1l0.19,0.2
			c2.52,2.64,6.7,2.73,9.34,0.21l0.68-0.65c1.27-1.22,3.36-1.22,4.6,0.03c1.34,1.35,3.19,2.04,5.13,1.87
			c1.53-0.13,2.94-0.88,4.05-1.94l0.3-0.28c0.72-0.69,1.71-0.99,2.72-0.8c0.68,0.13,1.28,0.52,1.76,1.02l0.23,0.24
			c2.5,2.61,6.69,2.72,9.32,0.23l0.88-0.83c1.29-1.22,3.36-1.18,4.6,0.08l0.34,0.35c2.51,2.56,6.69,2.62,9.28,0.14l0.25-0.24"/>
		<path class="st48" d="M297.53,84.01l-0.25,0.24c-1.29,1.23-3.37,1.2-4.61-0.07l-0.34-0.35c-2.5-2.55-6.67-2.62-9.26-0.16
			l-0.88,0.83c-1.31,1.24-3.39,1.19-4.63-0.11l-0.21-0.22c-2.52-2.64-6.7-2.73-9.34-0.21l-0.22,0.21c-0.5,0.48-1.12,0.85-1.8,0.94
			c-1.02,0.14-2-0.2-2.69-0.92c-2.44-2.55-6.51-2.64-9.06-0.2l-0.84,0.8c-1.31,1.25-3.4,1.2-4.65-0.1l-0.19-0.2
			c-2.51-2.63-6.71-2.72-9.34-0.21l-0.05,0.05c0,0,0,0,0,0l-0.25,0.24c-1.29,1.23-3.37,1.2-4.61-0.07l-0.34-0.35
			c-2.5-2.55-6.67-2.62-9.26-0.16l-0.88,0.83c-1.31,1.24-3.39,1.19-4.63-0.11l-0.21-0.22c-2.52-2.64-6.7-2.73-9.34-0.21l-0.22,0.21
			c-0.5,0.48-1.12,0.85-1.8,0.94c-1.02,0.14-2-0.2-2.69-0.92c-2.44-2.55-6.51-2.64-9.06-0.2l-0.84,0.8c-1.31,1.25-3.4,1.2-4.65-0.1
			l-0.19-0.2c-2.51-2.63-6.71-2.72-9.34-0.21l-0.35,0.33c-1.19,1.13-3.05,1.13-4.23,0.03"/>
		<path class="st48" d="M325.23,89.41c1.2,1.18,2.77,1.79,4.34,1.82c1.64,0.04,3.29-0.55,4.57-1.77l0.35-0.33
			c1.31-1.25,3.4-1.2,4.65,0.1l0.19,0.2c2.52,2.64,6.7,2.73,9.34,0.21l0.68-0.65c1.27-1.22,3.36-1.22,4.6,0.03
			c1.34,1.35,3.19,2.04,5.13,1.87c1.53-0.13,2.94-0.88,4.05-1.94l0.3-0.28c0.72-0.69,1.71-0.99,2.72-0.8
			c0.68,0.13,1.28,0.52,1.76,1.02l0.23,0.24c2.5,2.61,6.69,2.72,9.32,0.23l0.88-0.83c1.29-1.22,3.36-1.18,4.6,0.08l0.34,0.35
			c1.27,1.29,2.96,1.94,4.66,1.96l0,0c1.64,0.04,3.29-0.55,4.57-1.77l0.35-0.33c1.31-1.25,3.4-1.2,4.65,0.1l0.19,0.2
			c2.52,2.64,6.7,2.73,9.34,0.21l0.68-0.65c1.27-1.22,3.36-1.22,4.6,0.03c1.34,1.35,3.19,2.04,5.13,1.87
			c1.53-0.13,2.94-0.88,4.05-1.94l0.3-0.28c0.72-0.69,1.71-0.99,2.72-0.8c0.68,0.13,1.28,0.52,1.76,1.02l0.23,0.24
			c2.5,2.61,6.69,2.72,9.32,0.23l0.88-0.83c1.29-1.22,3.36-1.18,4.6,0.08l0.34,0.35c2.51,2.56,6.69,2.62,9.28,0.14l0.25-0.24"/>
		<path class="st48" d="M425.84,84.01l-0.25,0.24c-1.29,1.23-3.37,1.2-4.61-0.07l-0.34-0.35c-2.5-2.55-6.67-2.62-9.26-0.16
			l-0.88,0.83c-1.31,1.24-3.39,1.19-4.63-0.11l-0.21-0.22c-2.52-2.64-6.7-2.73-9.34-0.21l-0.22,0.21c-0.5,0.48-1.12,0.85-1.8,0.94
			c-1.02,0.14-2-0.2-2.69-0.92c-2.44-2.55-6.51-2.64-9.06-0.2l-0.84,0.8c-1.31,1.25-3.4,1.2-4.65-0.1l-0.19-0.2
			c-2.51-2.63-6.71-2.72-9.34-0.21l-0.05,0.05c0,0,0,0,0,0l-0.25,0.24c-1.29,1.23-3.37,1.2-4.61-0.07l-0.34-0.35
			c-2.5-2.55-6.67-2.62-9.26-0.16l-0.88,0.83c-1.31,1.24-3.39,1.19-4.64-0.11l-0.21-0.22c-2.52-2.64-6.7-2.73-9.34-0.21l-0.22,0.21
			c-0.5,0.48-1.12,0.85-1.8,0.94c-1.02,0.14-2-0.2-2.69-0.92c-2.44-2.55-6.51-2.64-9.06-0.2l-0.84,0.8c-1.31,1.25-3.4,1.2-4.65-0.1
			l-0.19-0.2c-2.51-2.63-6.71-2.72-9.34-0.21l-0.35,0.33c-1.19,1.13-3.05,1.13-4.23,0.03"/>
		<path class="st48" d="M487.78,87.34c1.2,1.18,2.77,1.79,4.34,1.82c1.64,0.04,3.29-0.55,4.57-1.77l0.35-0.33
			c1.31-1.25,3.4-1.2,4.65,0.1l0.19,0.2c2.52,2.64,6.7,2.73,9.34,0.21l0.68-0.65c1.27-1.22,3.36-1.22,4.6,0.03
			c1.34,1.35,3.19,2.04,5.13,1.87c1.53-0.13,2.94-0.88,4.05-1.94l0.3-0.28c0.72-0.69,1.71-0.99,2.72-0.8
			c0.68,0.13,1.28,0.52,1.76,1.02l0.23,0.24c2.5,2.61,6.69,2.72,9.32,0.23l0.88-0.83c1.29-1.22,3.36-1.18,4.6,0.08l0.34,0.35
			c1.27,1.29,2.96,1.94,4.66,1.96l0,0c1.64,0.04,3.29-0.55,4.57-1.77l0.35-0.33c1.31-1.25,3.4-1.2,4.65,0.1l0.19,0.2
			c2.52,2.64,6.7,2.73,9.34,0.21l0.68-0.65c1.27-1.22,3.36-1.22,4.6,0.03c1.34,1.35,3.19,2.04,5.13,1.87
			c1.53-0.13,2.94-0.88,4.05-1.94l0.3-0.28c0.72-0.69,1.71-0.99,2.72-0.8c0.68,0.13,1.28,0.52,1.76,1.02l0.23,0.24
			c2.5,2.61,6.69,2.72,9.32,0.23l0.88-0.83c1.29-1.22,3.36-1.18,4.6,0.08l0.34,0.35c2.51,2.56,6.69,2.62,9.28,0.14l0.25-0.24"/>
		<path class="st48" d="M589.8,83.08l-0.25,0.24c-1.29,1.23-3.36,1.2-4.61-0.07l-0.34-0.35c-2.5-2.55-6.67-2.62-9.26-0.16
			l-0.88,0.83c-1.31,1.24-3.39,1.19-4.63-0.11l-0.21-0.22c-2.52-2.64-6.7-2.73-9.34-0.21l-0.22,0.21c-0.5,0.48-1.12,0.85-1.8,0.94
			c-1.02,0.14-2-0.2-2.69-0.92c-2.44-2.55-6.51-2.64-9.06-0.2l-0.84,0.8c-1.31,1.25-3.4,1.2-4.65-0.1l-0.19-0.2
			c-2.51-2.63-6.71-2.72-9.34-0.21l-0.05,0.05c0,0,0,0,0,0l-0.25,0.24c-1.29,1.23-3.37,1.2-4.61-0.07l-0.34-0.35
			c-2.5-2.55-6.67-2.62-9.26-0.16l-0.88,0.83c-1.31,1.24-3.39,1.19-4.64-0.11l-0.21-0.22c-2.52-2.64-6.7-2.73-9.34-0.21l-0.22,0.21
			c-0.5,0.48-1.12,0.85-1.8,0.94c-1.02,0.14-2-0.2-2.69-0.92c-2.44-2.55-6.51-2.64-9.06-0.2l-0.84,0.8c-1.31,1.25-3.4,1.2-4.65-0.1
			l-0.19-0.2c-2.51-2.63-6.71-2.72-9.34-0.21l-0.35,0.33c-1.19,1.13-3.05,1.13-4.23,0.03"/>
		<path class="st48" d="M616.86,83.95c1.2,1.18,2.77,1.79,4.34,1.82c1.64,0.04,3.29-0.55,4.57-1.77l0.35-0.33
			c1.31-1.25,3.4-1.2,4.65,0.1l0.19,0.2c2.52,2.64,6.7,2.73,9.34,0.21l0.68-0.65c1.27-1.22,3.36-1.22,4.6,0.03
			c1.34,1.35,3.19,2.04,5.13,1.87c1.53-0.13,2.94-0.88,4.05-1.94l0.3-0.28c0.72-0.69,1.71-0.99,2.72-0.8
			c0.68,0.13,1.28,0.52,1.76,1.02l0.23,0.24c2.5,2.61,6.69,2.72,9.32,0.23l0.88-0.83c1.29-1.22,3.36-1.18,4.6,0.08l0.34,0.35
			c1.27,1.29,2.96,1.94,4.66,1.96l0,0c1.64,0.04,3.29-0.55,4.57-1.77l0.35-0.33c1.31-1.25,3.4-1.2,4.65,0.1l0.19,0.2
			c2.52,2.64,6.7,2.73,9.34,0.21l0.68-0.65c1.27-1.22,3.36-1.22,4.6,0.03c1.34,1.35,3.19,2.04,5.13,1.87
			c1.53-0.13,2.94-0.88,4.05-1.94l0.3-0.28c0.72-0.69,1.71-0.99,2.72-0.8c0.68,0.13,1.28,0.52,1.76,1.02l0.23,0.24
			c2.5,2.61,6.69,2.72,9.32,0.23l0.88-0.83c1.29-1.22,3.36-1.18,4.6,0.08l0.34,0.35c2.51,2.56,6.69,2.62,9.28,0.14l0.25-0.24"/>
		<path class="st48" d="M800.29,84.94l-0.25,0.24c-1.29,1.23-3.36,1.2-4.61-0.07l-0.34-0.35c-2.5-2.55-6.67-2.62-9.26-0.16
			l-0.88,0.83c-1.31,1.24-3.39,1.19-4.63-0.11l-0.21-0.22c-2.52-2.64-6.7-2.73-9.34-0.21l-0.22,0.21c-0.5,0.48-1.12,0.85-1.8,0.94
			c-1.02,0.14-2-0.2-2.69-0.92c-2.44-2.55-6.51-2.64-9.06-0.2l-0.84,0.8c-1.31,1.25-3.4,1.2-4.65-0.1l-0.19-0.2
			c-2.51-2.63-6.71-2.72-9.34-0.21l-0.05,0.05c0,0,0,0,0,0l-0.25,0.24c-1.29,1.23-3.36,1.2-4.61-0.07l-0.34-0.35
			c-2.5-2.55-6.67-2.62-9.26-0.16l-0.88,0.83c-1.31,1.24-3.39,1.19-4.63-0.11l-0.21-0.22c-2.52-2.64-6.7-2.73-9.34-0.21l-0.22,0.21
			c-0.5,0.48-1.12,0.85-1.8,0.94c-1.02,0.14-2-0.2-2.69-0.92c-2.44-2.55-6.51-2.64-9.06-0.2l-0.84,0.8c-1.31,1.25-3.4,1.2-4.65-0.1
			l-0.19-0.2c-2.51-2.63-6.71-2.72-9.34-0.21l-0.35,0.33c-1.19,1.13-3.05,1.13-4.23,0.03"/>
		<g>
			<path class="st48" d="M831.84,63.23v-2.57c0-1.59,1.29-2.87,2.87-2.87h175.08c1.59,0,2.87,1.29,2.87,2.87v2.57"/>
			<path class="st48" d="M819.62,69.38v-3.81h208.06v3.82h-3.34c0,0-2.44,4.81-12.01,4.81l-188.31,0l-0.01-3.08L819.62,69.38z"/>
			<rect x="821.38" y="65" class="st48" width="1.75" height="0.56"/>
			<rect x="824.45" y="65" class="st48" width="1.75" height="0.56"/>
			<rect x="830.24" y="63.22" class="st48" width="186.22" height="2.15"/>
			<path class="st48" d="M862.84,57.78c0,0.4-0.32,0.73-0.73,0.73h-8.82c-0.4,0-0.73-0.32-0.73-0.73"/>
			<path class="st48" d="M893.51,57.78c0,0.4-0.32,0.73-0.73,0.73h-8.82c-0.4,0-0.73-0.32-0.73-0.73"/>
			<path class="st48" d="M924.17,57.78c0,0.4-0.32,0.73-0.73,0.73h-8.82c-0.4,0-0.73-0.32-0.73-0.73"/>
			<path class="st48" d="M954.84,57.78c0,0.4-0.32,0.73-0.73,0.73h-8.82c-0.4,0-0.73-0.32-0.73-0.73"/>
			<path class="st48" d="M985.5,57.78c0,0.4-0.32,0.73-0.73,0.73h-8.82c-0.4,0-0.73-0.32-0.73-0.73"/>
			<rect x="1022.1" y="64.81" class="st48" width="1.75" height="0.56"/>
			<rect x="1025.17" y="64.81" class="st48" width="1.75" height="0.56"/>
		</g>
		<path class="st45" d="M913.14,77.95l-1.58-1.51c-0.06-0.05-0.14-0.05-0.2,0c-0.89,0.82-2.28,0.82-3.16-0.03l-0.26-0.25
			c-1.96-1.88-5.1-1.81-6.98,0.16l-0.14,0.15c-0.93,0.98-2.5,1.01-3.47,0.08l-0.63-0.6c-1.91-1.83-4.95-1.76-6.77,0.15
			c-0.52,0.54-1.25,0.8-2.01,0.69c-0.51-0.07-0.97-0.35-1.35-0.7l-0.17-0.16c-1.97-1.88-5.1-1.81-6.98,0.16l-0.16,0.16
			c-0.93,0.97-2.49,1.01-3.46,0.09l-0.66-0.62c-1.94-1.83-5.05-1.78-6.92,0.12l-0.26,0.26c-0.93,0.95-2.49,0.97-3.45,0.05
			l-0.19-0.18c-0.02-0.02-0.05-0.02-0.07-0.03c-0.01,0-0.02-0.01-0.03-0.01c-0.01,0-0.02,0.01-0.03,0.01
			c-0.03,0.01-0.05,0.01-0.07,0.03l-0.19,0.18c-0.96,0.92-2.51,0.9-3.45-0.05l-0.26-0.26c-1.87-1.9-4.98-1.96-6.92-0.12l-0.66,0.62
			c-0.98,0.92-2.53,0.89-3.46-0.09l-0.16-0.16c-1.88-1.97-5.01-2.04-6.98-0.16l-0.17,0.16c-0.37,0.36-0.84,0.63-1.35,0.7
			c-0.76,0.11-1.49-0.15-2.01-0.69c-1.82-1.91-4.86-1.98-6.77-0.15l-0.63,0.6c-0.98,0.93-2.54,0.9-3.47-0.08l-0.14-0.15
			c-1.88-1.96-5.02-2.03-6.98-0.16l-0.26,0.25c-0.89,0.85-2.28,0.85-3.16,0.03c-0.06-0.05-0.14-0.06-0.2,0l-1.58,1.51
			c-0.06,0.06-0.06,0.16,0,0.22c0.9,0.88,2.07,1.34,3.24,1.36c1.23,0.03,2.46-0.41,3.42-1.32l0.26-0.25
			c0.98-0.93,2.54-0.9,3.47,0.08l0.14,0.15c1.88,1.97,5.01,2.04,6.98,0.16l0.51-0.49c0.95-0.91,2.51-0.91,3.44,0.02
			c1,1.01,2.38,1.52,3.83,1.4c1.14-0.1,2.2-0.66,3.02-1.45l0.22-0.21c0.54-0.51,1.28-0.74,2.04-0.6c0.51,0.09,0.96,0.39,1.32,0.76
			l0.17,0.18c1.87,1.95,5,2.03,6.96,0.17l0.66-0.62c0.96-0.91,2.51-0.89,3.44,0.06l0.26,0.26c1.47,1.49,3.68,1.83,5.51,1.03
			c1.83,0.8,4.04,0.46,5.51-1.03l0.26-0.26c0.93-0.95,2.48-0.97,3.44-0.06l0.66,0.62c1.96,1.86,5.1,1.78,6.96-0.17l0.17-0.18
			c0.36-0.37,0.81-0.67,1.32-0.76c0.76-0.14,1.5,0.08,2.04,0.6l0.22,0.21c0.83,0.79,1.88,1.35,3.02,1.45
			c1.45,0.12,2.83-0.39,3.83-1.4c0.93-0.94,2.49-0.93,3.44-0.02l0.51,0.49c1.97,1.88,5.1,1.81,6.98-0.16l0.14-0.15
			c0.93-0.98,2.5-1.01,3.47-0.08l0.26,0.25c0.95,0.91,2.19,1.35,3.42,1.32c1.18-0.03,2.34-0.48,3.24-1.36
			C913.2,78.11,913.2,78.01,913.14,77.95z"/>
		<path class="st45" d="M1007.59,77.95l-1.58-1.51c-0.06-0.05-0.14-0.05-0.2,0c-0.89,0.82-2.28,0.82-3.16-0.03l-0.26-0.25
			c-1.96-1.88-5.1-1.81-6.98,0.16l-0.14,0.15c-0.93,0.98-2.5,1.01-3.47,0.08l-0.63-0.6c-1.91-1.83-4.95-1.76-6.77,0.15
			c-0.52,0.54-1.25,0.8-2.01,0.69c-0.51-0.07-0.97-0.35-1.35-0.7l-0.17-0.16c-1.97-1.88-5.1-1.81-6.98,0.16l-0.16,0.16
			c-0.93,0.97-2.49,1.01-3.46,0.09l-0.66-0.62c-1.94-1.83-5.05-1.78-6.92,0.12l-0.26,0.26c-0.93,0.95-2.49,0.97-3.45,0.05
			l-0.19-0.18c-0.02-0.02-0.05-0.02-0.07-0.03c-0.01,0-0.02-0.01-0.03-0.01c-0.01,0-0.02,0.01-0.03,0.01
			c-0.03,0.01-0.05,0.01-0.07,0.03l-0.19,0.18c-0.96,0.92-2.51,0.9-3.45-0.05l-0.26-0.26c-1.87-1.9-4.98-1.96-6.92-0.12l-0.66,0.62
			c-0.98,0.92-2.53,0.89-3.46-0.09l-0.16-0.16c-1.88-1.97-5.01-2.04-6.98-0.16l-0.17,0.16c-0.37,0.36-0.84,0.63-1.35,0.7
			c-0.76,0.11-1.49-0.15-2.01-0.69c-1.83-1.91-4.86-1.98-6.77-0.15l-0.63,0.6c-0.98,0.93-2.54,0.9-3.47-0.08l-0.14-0.15
			c-1.88-1.96-5.02-2.03-6.98-0.16l-0.26,0.25c-0.89,0.85-2.28,0.85-3.16,0.03c-0.06-0.05-0.14-0.06-0.2,0l-1.58,1.51
			c-0.06,0.06-0.06,0.16,0,0.22c0.9,0.88,2.07,1.34,3.24,1.36c1.23,0.03,2.46-0.41,3.42-1.32l0.26-0.25
			c0.98-0.93,2.54-0.9,3.47,0.08l0.14,0.15c1.88,1.97,5.01,2.04,6.98,0.16l0.51-0.49c0.95-0.91,2.51-0.91,3.44,0.02
			c1,1.01,2.38,1.52,3.83,1.4c1.14-0.1,2.2-0.66,3.02-1.45l0.22-0.21c0.54-0.51,1.28-0.74,2.04-0.6c0.51,0.09,0.96,0.39,1.32,0.76
			l0.17,0.18c1.87,1.95,5,2.03,6.96,0.17l0.66-0.62c0.96-0.91,2.51-0.89,3.44,0.06l0.26,0.26c1.47,1.49,3.68,1.83,5.51,1.03
			c1.83,0.8,4.04,0.46,5.51-1.03l0.26-0.26c0.93-0.95,2.48-0.97,3.44-0.06l0.66,0.62c1.96,1.86,5.1,1.78,6.96-0.17l0.17-0.18
			c0.36-0.37,0.81-0.67,1.32-0.76c0.76-0.14,1.5,0.08,2.04,0.6l0.22,0.21c0.83,0.79,1.88,1.35,3.02,1.45
			c1.45,0.12,2.83-0.39,3.83-1.4c0.93-0.94,2.49-0.93,3.44-0.02l0.51,0.49c1.97,1.88,5.1,1.81,6.98-0.16l0.14-0.15
			c0.93-0.98,2.5-1.01,3.47-0.08l0.26,0.25c0.95,0.91,2.19,1.35,3.42,1.32c1.18-0.03,2.34-0.48,3.24-1.36
			C1007.65,78.11,1007.65,78.01,1007.59,77.95z"/>
		<path class="st48" d="M813.45,87.34c1.2,1.18,2.77,1.79,4.34,1.82c1.64,0.04,3.29-0.55,4.57-1.77l0.35-0.33
			c1.31-1.25,3.4-1.2,4.65,0.1l0.19,0.2c2.52,2.64,6.7,2.73,9.34,0.21l0.68-0.65c1.27-1.22,3.36-1.22,4.6,0.03
			c1.34,1.35,3.19,2.04,5.13,1.87c1.53-0.13,2.94-0.88,4.05-1.94l0.3-0.28c0.72-0.69,1.71-0.99,2.72-0.8
			c0.68,0.13,1.28,0.52,1.76,1.02l0.23,0.24c2.5,2.61,6.69,2.72,9.32,0.23l0.88-0.83c1.29-1.22,3.36-1.18,4.6,0.08l0.34,0.35
			c1.27,1.29,2.96,1.94,4.66,1.96l0,0c1.64,0.04,3.29-0.55,4.57-1.77l0.35-0.33c1.31-1.25,3.4-1.2,4.65,0.1l0.19,0.2
			c2.52,2.64,6.7,2.73,9.34,0.21l0.68-0.65c1.27-1.22,3.36-1.22,4.6,0.03c1.34,1.35,3.19,2.04,5.13,1.87
			c1.53-0.13,2.94-0.88,4.05-1.94l0.3-0.28c0.72-0.69,1.71-0.99,2.72-0.8c0.68,0.13,1.28,0.52,1.76,1.02l0.23,0.24
			c2.5,2.61,6.69,2.72,9.32,0.23l0.88-0.83c1.29-1.22,3.36-1.18,4.6,0.08l0.34,0.35c2.51,2.56,6.69,2.62,9.28,0.14l0.25-0.24"/>
		<path class="st48" d="M876.42,83.95c1.2,1.18,2.77,1.79,4.34,1.82c1.64,0.04,3.29-0.55,4.57-1.77l0.35-0.33
			c1.31-1.25,3.4-1.2,4.65,0.1l0.19,0.2c2.52,2.64,6.7,2.73,9.34,0.21l0.68-0.65c1.27-1.22,3.36-1.22,4.6,0.03
			c1.34,1.35,3.19,2.04,5.13,1.87c1.53-0.13,2.94-0.88,4.05-1.94l0.3-0.28c0.72-0.69,1.71-0.99,2.72-0.8
			c0.68,0.13,1.28,0.52,1.76,1.02l0.23,0.24c2.5,2.61,6.69,2.72,9.32,0.23l0.88-0.83c1.29-1.22,3.36-1.18,4.6,0.08l0.34,0.35
			c1.27,1.29,2.96,1.94,4.66,1.96l0,0c1.64,0.04,3.29-0.55,4.57-1.77l0.35-0.33c1.31-1.25,3.4-1.2,4.65,0.1l0.19,0.2
			c2.52,2.64,6.7,2.73,9.34,0.21l0.68-0.65c1.27-1.22,3.36-1.22,4.6,0.03c1.34,1.35,3.19,2.04,5.13,1.87
			c1.53-0.13,2.94-0.88,4.05-1.94l0.3-0.28c0.72-0.69,1.71-0.99,2.72-0.8c0.68,0.13,1.28,0.52,1.76,1.02l0.23,0.24
			c2.5,2.61,6.69,2.72,9.32,0.23l0.88-0.83c1.29-1.22,3.36-1.18,4.6,0.08l0.34,0.35c2.51,2.56,6.69,2.62,9.28,0.14l0.25-0.24"/>
		<path class="st48" d="M923.58,83.3l-0.25,0.24c-1.29,1.23-3.37,1.2-4.61-0.07l-0.34-0.35c-2.5-2.55-6.67-2.62-9.26-0.16
			l-0.88,0.83c-1.31,1.24-3.39,1.19-4.64-0.11l-0.21-0.22c-2.52-2.64-6.7-2.73-9.34-0.21l-0.22,0.21c-0.5,0.48-1.12,0.85-1.8,0.94
			c-1.02,0.14-2-0.2-2.69-0.92c-2.44-2.55-6.51-2.64-9.06-0.2l-0.84,0.8c-1.31,1.25-3.4,1.2-4.65-0.1l-0.19-0.2
			c-2.51-2.63-6.71-2.72-9.34-0.21l-0.05,0.05c0,0,0,0,0,0l-0.25,0.24c-1.29,1.23-3.37,1.2-4.61-0.07l-0.34-0.35
			c-2.5-2.55-6.67-2.62-9.26-0.16l-0.88,0.83c-1.31,1.24-3.39,1.19-4.64-0.11l-0.21-0.22c-2.52-2.64-6.7-2.73-9.34-0.21l-0.22,0.21
			c-0.5,0.48-1.12,0.85-1.8,0.94c-1.02,0.14-2-0.2-2.69-0.92c-2.44-2.55-6.51-2.64-9.06-0.2l-0.84,0.8c-1.31,1.25-3.4,1.2-4.65-0.1
			l-0.19-0.2c-2.51-2.63-6.71-2.72-9.34-0.21l-0.35,0.33c-1.19,1.13-3.05,1.13-4.23,0.03"/>
	</g>
</g>
<g id="destacado">
</g>
<g id="destacado-hidro">
</g>
<g id="destacado-camion">
</g>
<g id="cont">
</g>
<g id="EMPRESA">
</g>
<g id="SERVICIOS-terminal">
</g>
<g id="SERVICIO-lab">
</g>
<g id="SERV-transp-terrestre">
</g>
<g id="SERV-opera-solidos">
</g>
<g id="COMEX">
</g>
<g id="CONTACTO">
</g>
<g id="COMPROMISO">
</g>
<g id="Capa_19" class="st168">
</g>
<g id="TERMINAL">
</g>
<g id="servicios3">
</g>
<g id="servicios2">
</g>
<g id="servicios1">
</g>
<g id="Capa_10">
</g>
<g id="solapa-servicio">
</g>
<g id="top">
</g>
<g id="esqueletoi">
</g>
<g id="guias">
</g>
</svg>
