<?xml version="1.0" encoding="utf-8"?>
<!-- Generator: Adobe Illustrator 27.9.0, SVG Export Plug-In . SVG Version: 6.00 Build 0)  -->
<svg version="1.1" xmlns="http://www.w3.org/2000/svg" xmlns:xlink="http://www.w3.org/1999/xlink" x="0px" y="0px"
	 viewBox="0 0 78.66 60.15" style="enable-background:new 0 0 78.66 60.15;" xml:space="preserve">
<style type="text/css">
	.st0{display:none;}
	.st1{display:inline;}
	.st2{fill:#8F8F8F;}
	.st3{fill:#6E6E6E;}
	.st4{fill:#FFFFFF;}
	.st5{clip-path:url(#SVGID_00000178886475699666784820000011449478945848913061_);}
	.st6{fill:#878787;}
	.st7{fill:#4C4C4A;}
	.st8{fill:#858658;}
	.st9{fill:#1BB09D;}
	.st10{fill:#4CABCB;}
	.st11{fill:#737373;}
	.st12{fill:#4FA98B;}
	.st13{fill:#2276BB;}
	.st14{fill:none;stroke:#FFFFFF;stroke-width:0.25;stroke-miterlimit:10;}
	.st15{clip-path:url(#SVGID_00000010296994051720213600000004653161846838281918_);}
	.st16{clip-path:url(#SVGID_00000145764430157027649330000000427369450831127718_);}
	.st17{clip-path:url(#SVGID_00000024714991441618315170000013107722372921106337_);}
	.st18{clip-path:url(#SVGID_00000016040398205415254310000002248778013361278377_);}
	.st19{clip-path:url(#SVGID_00000057834702323526948330000009805696500569152913_);}
	.st20{clip-path:url(#SVGID_00000089550745797806330210000002902993085989956522_);}
	.st21{clip-path:url(#SVGID_00000167378236263122541410000004110573818273935750_);}
	.st22{clip-path:url(#SVGID_00000146483113356366616470000009653024214316032686_);}
	.st23{clip-path:url(#SVGID_00000067197633959014339770000011197754100664476311_);}
	
		.st24{clip-path:url(#SVGID_00000181073430543775210030000012601832136214445725_);fill:url(#SVGID_00000051343787261804966440000016494833861072293799_);}
	.st25{fill:#003DA6;stroke:#003DA6;stroke-width:0.25;stroke-miterlimit:10;}
	.st26{fill:none;stroke:#003DA6;stroke-width:0.3;stroke-miterlimit:10;}
	.st27{fill:#FFFFFF;stroke:#ABABAB;stroke-width:0.3093;stroke-miterlimit:10;}
	.st28{fill:none;stroke:#003DA6;stroke-width:0.5024;stroke-miterlimit:10;}
	.st29{fill:#FFFFFF;stroke:#003DA6;stroke-width:0.3467;stroke-miterlimit:10;}
	.st30{opacity:0.5;fill:url(#SVGID_00000105409512553966404570000000617662725084601245_);}
	.st31{fill:url(#SVGID_00000176735494363370947710000001641857860762254751_);}
	.st32{fill:#E4F4F9;}
	.st33{fill:#003DA6;}
	.st34{fill:#003DA6;stroke:#FFFFFF;stroke-width:0.2257;stroke-miterlimit:10;}
	.st35{fill:#FFFFFF;stroke:#003DA6;stroke-width:0.2257;stroke-miterlimit:10;}
	.st36{fill:#FFFFFF;stroke:#ABABAB;stroke-width:0.3504;stroke-miterlimit:10;}
	.st37{fill-rule:evenodd;clip-rule:evenodd;fill:#FFFFFF;stroke:#ABABAB;stroke-width:0.4053;stroke-miterlimit:10;}
	.st38{fill:#FFFFFF;stroke:#ABABAB;stroke-width:0.4053;stroke-miterlimit:10;}
	.st39{opacity:0.7;fill:url(#SVGID_00000057831840522152204460000004493115448881250475_);}
	.st40{opacity:0.5;fill:#4C4C4A;}
	.st41{opacity:0.5;fill:#858658;}
	.st42{opacity:0.5;fill:#1BB09D;}
	.st43{opacity:0.5;fill:#4CABCB;}
	.st44{opacity:0.5;fill:#737373;}
	.st45{opacity:0.5;fill:#2276BB;}
	.st46{fill:none;stroke:#003DA6;stroke-width:0.2224;stroke-miterlimit:10;}
	.st47{fill:#FFFFFF;stroke:#003DA6;stroke-width:0.2835;stroke-miterlimit:10;}
	.st48{fill:none;stroke:#003DA6;stroke-width:0.1864;stroke-linecap:round;stroke-miterlimit:1;}
	.st49{fill:#FFFFFF;stroke:#003DA6;stroke-width:0.1;stroke-miterlimit:10;}
	.st50{fill:none;stroke:#003DA6;stroke-width:0.2835;stroke-miterlimit:10;}
	.st51{fill:#575757;}
	.st52{clip-path:url(#SVGID_00000013178651321637346220000017792424610896380090_);}
	.st53{opacity:0.7;fill:url(#SVGID_00000083801811914537685260000011387654441100982687_);}
	.st54{fill:none;stroke:#003DA6;stroke-width:0.25;stroke-miterlimit:10;}
	.st55{fill:#1C3F81;}
	.st56{fill:none;stroke:#949494;stroke-width:0.25;stroke-miterlimit:10;}
	.st57{clip-path:url(#SVGID_00000020356938609241299970000007589688891235639682_);}
	.st58{fill:#43B6A5;}
	.st59{fill:#25745C;}
	.st60{clip-path:url(#SVGID_00000098218862578565488740000015878846087953337022_);}
	.st61{display:inline;fill:#1C3F81;}
	.st62{display:inline;fill:#4C4C4A;}
	.st63{fill:url(#SVGID_00000044875706122215131990000011165135771783186091_);}
	.st64{fill:url(#SVGID_00000070084129683597115290000017126584457840872097_);}
	.st65{fill:none;stroke:#FFFFFF;stroke-width:2;stroke-linecap:round;stroke-miterlimit:10;}
	.st66{clip-path:url(#SVGID_00000060002404980483257420000013166416672442721942_);}
	.st67{fill:#003DA6;stroke:#FFFFFF;stroke-width:0.1346;stroke-miterlimit:10;}
	.st68{fill:#141414;}
	.st69{stroke:#FFFFFF;stroke-width:0.1346;stroke-miterlimit:10;}
	.st70{clip-path:url(#SVGID_00000165218801387765576210000009836194193641190293_);}
	.st71{opacity:0.18;}
	.st72{fill:#089F91;}
	.st73{opacity:0.18;fill:#BADDE9;}
	.st74{fill:#F5F4EF;stroke:#FFFFFF;stroke-width:1.8244;stroke-miterlimit:10;}
	.st75{opacity:0.65;fill:#858658;}
	.st76{fill:#C3DFF5;}
	.st77{opacity:0.63;}
	.st78{fill:#9C9B9B;}
	.st79{fill:#A9A9A9;}
	.st80{fill:#35350B;}
	.st81{fill:none;stroke:#FFFFFF;stroke-width:0.1824;stroke-linecap:round;stroke-linejoin:round;stroke-miterlimit:10;}
	.st82{opacity:0.64;}
	.st83{fill:#F5F4EF;}
	.st84{clip-path:url(#SVGID_00000160152545176886066680000009354906336245127101_);}
	.st85{fill:#F5F4EF;stroke:#FFFFFF;stroke-width:1.2815;stroke-miterlimit:10;}
	.st86{opacity:0.65;}
	.st87{fill:none;stroke:#FFFFFF;stroke-width:0.1281;stroke-linecap:round;stroke-linejoin:round;stroke-miterlimit:10;}
	.st88{fill:#1D1D1B;}
	
		.st89{opacity:0.4;clip-path:url(#SVGID_00000137822168243509753400000010170117877002974900_);fill:url(#SVGID_00000023980866519495556790000012740990456566700690_);}
	.st90{fill:#45CFDA;}
	.st91{clip-path:url(#SVGID_00000137103795091944763360000007105338653574321831_);}
	.st92{clip-path:url(#SVGID_00000142163635494517933660000012296974610324230819_);}
	.st93{fill:#FFFFFF;stroke:#ABABAB;stroke-width:0.4901;stroke-miterlimit:10;}
	.st94{fill:url(#SVGID_00000155844283264003984010000015863347430309017507_);}
	.st95{fill-rule:evenodd;clip-rule:evenodd;fill:#FFFFFF;stroke:#ABABAB;stroke-width:0.2763;stroke-miterlimit:10;}
	.st96{fill:#FFFFFF;stroke:#ABABAB;stroke-width:0.2763;stroke-miterlimit:10;}
	.st97{fill:#0A0A0A;}
	.st98{opacity:0.5;}
	.st99{fill:#565630;}
	.st100{fill:#A2E3F4;}
	.st101{fill:#454545;}
	.st102{fill:none;stroke:#454545;stroke-width:0.5151;stroke-miterlimit:10;}
	.st103{clip-path:url(#SVGID_00000130626551745429409320000013030546552879807151_);}
	.st104{clip-path:url(#SVGID_00000026160743680232385340000016604891818922368177_);}
	.st105{fill:none;stroke:#787878;stroke-width:0.2794;stroke-miterlimit:10;}
	.st106{fill:none;stroke:#787878;stroke-width:0.2073;stroke-miterlimit:10;}
	.st107{fill:none;stroke:#A7B972;stroke-width:0.2557;stroke-miterlimit:10;}
	.st108{fill:none;stroke:#A7B972;stroke-width:0.1622;stroke-miterlimit:10;}
	
		.st109{clip-path:url(#SVGID_00000122684936598555398330000002495459639200361873_);fill:url(#SVGID_00000010276947983451833410000015374467870061548416_);}
	.st110{fill:#003DA6;stroke:#003DA6;stroke-width:0.1229;stroke-miterlimit:10;}
	.st111{fill:none;stroke:#003DA6;stroke-width:0.1475;stroke-miterlimit:10;}
	.st112{fill:#FFFFFF;stroke:#ABABAB;stroke-width:0.1521;stroke-miterlimit:10;}
	.st113{clip-path:url(#SVGID_00000013903135170118401840000010366119744748408470_);}
	.st114{clip-path:url(#SVGID_00000016758516481771604220000002868425066754218938_);}
	.st115{clip-path:url(#SVGID_00000083768377529719842570000016116286684524904382_);}
	.st116{clip-path:url(#SVGID_00000059275767482684716120000012385158463367737525_);}
	.st117{clip-path:url(#SVGID_00000147911058803266620380000016033883104892788154_);}
	.st118{fill:url(#SVGID_00000069368498263986376730000015209830140813919931_);}
	.st119{fill:none;stroke:#003DA6;stroke-width:0.3467;stroke-miterlimit:10;}
	
		.st120{clip-path:url(#SVGID_00000004538187098620418870000009549367289948793987_);fill:url(#SVGID_00000058589256407370241710000018260405452922376089_);}
	.st121{opacity:0.27;fill:#BADDE9;}
	.st122{clip-path:url(#SVGID_00000072962117210972456830000004006019777862020993_);}
	.st123{opacity:0.29;}
	
		.st124{clip-path:url(#SVGID_00000175309840454342633780000002211335979320277894_);fill:url(#SVGID_00000132062371103547196400000006479680496491768247_);}
	.st125{opacity:0.71;}
	.st126{clip-path:url(#SVGID_00000134964695667404437570000012778464654734497434_);}
	.st127{clip-path:url(#SVGID_00000093145918547178271210000002467670775759554979_);}
	.st128{clip-path:url(#SVGID_00000165917234814837437100000013846006101834031546_);}
	.st129{fill:none;stroke:#575757;stroke-miterlimit:10;}
	.st130{fill:none;stroke:#575757;stroke-width:0.5;stroke-miterlimit:10;}
	.st131{fill:#D1D1D1;stroke:#828282;stroke-width:0.1864;stroke-linecap:round;stroke-miterlimit:1;}
	.st132{fill:#FFFFFF;stroke:#828282;stroke-width:0.1864;stroke-linecap:round;stroke-miterlimit:1;}
	.st133{fill:#828282;stroke:#424242;stroke-width:0.5;stroke-miterlimit:1;}
	.st134{fill:none;stroke:#828282;stroke-width:0.1864;stroke-linecap:round;stroke-miterlimit:1;}
	.st135{fill:none;stroke:#1C1C1C;stroke-width:0.1864;stroke-linecap:round;stroke-miterlimit:1;}
	.st136{fill:none;stroke:#828282;stroke-width:0.75;stroke-linecap:round;stroke-miterlimit:1;}
	.st137{fill:none;stroke:#292929;stroke-width:0.75;stroke-linecap:round;stroke-miterlimit:1;}
	.st138{fill:#363636;}
	.st139{fill:none;stroke:#3D3D3D;stroke-width:0.1864;stroke-linecap:round;stroke-miterlimit:1;}
	.st140{fill:none;stroke:#BDBDBD;stroke-width:0.75;stroke-miterlimit:10;}
	.st141{opacity:0.27;fill:#E8E8E8;}
	.st142{fill:none;stroke:#003DA6;stroke-width:0.1794;stroke-miterlimit:10;}
	.st143{clip-path:url(#SVGID_00000157286484466093362420000001488877324761481111_);}
	.st144{fill:#1F1F1F;}
	.st145{clip-path:url(#SVGID_00000123400843697064884130000008912290391098507439_);}
	.st146{clip-path:url(#SVGID_00000129187704030998276090000002411575320257310898_);}
	.st147{clip-path:url(#SVGID_00000083804478576273713500000009056426841133342141_);}
	.st148{clip-path:url(#SVGID_00000043417489551932632330000017572493619889951363_);}
	.st149{fill:url(#SVGID_00000021841066689424845030000014746299914841218490_);}
	.st150{fill:#C0E3EA;}
	.st151{fill:#27745C;}
	.st152{fill:#4D4D4D;}
	.st153{clip-path:url(#SVGID_00000165203102241479225370000000832030397839661744_);}
	.st154{fill:none;stroke:#4DABCB;stroke-width:2;stroke-miterlimit:10;}
	.st155{fill:none;stroke:#27745C;stroke-width:3;stroke-miterlimit:10;}
	.st156{fill:url(#SVGID_00000052799263891040039380000009936535587033572994_);}
	.st157{fill:url(#SVGID_00000167359786968383042460000016745982936229894306_);}
	.st158{fill:#706F6F;}
	.st159{fill:none;}
	.st160{fill:url(#SVGID_00000170237613744545436960000012800612906968633984_);}
	.st161{fill:none;stroke:#4DABCB;stroke-width:2;stroke-linecap:round;stroke-miterlimit:10;}
	.st162{fill:url(#SVGID_00000119822559587030401180000017584569514032109460_);}
	.st163{clip-path:url(#SVGID_00000042706457706595730420000003542179888322267807_);}
	.st164{opacity:0.35;fill:#1C3F81;}
	.st165{clip-path:url(#SVGID_00000016057129740941102430000010805488178968817330_);}
	.st166{clip-path:url(#SVGID_00000008126773041978622130000014458238156444263599_);}
	.st167{opacity:0.29;fill:#4C1608;}
	.st168{clip-path:url(#SVGID_00000093170580109489220260000015095236601955035011_);}
	.st169{opacity:0.29;fill:#054096;}
	.st170{clip-path:url(#SVGID_00000125561432669267900060000010885942680426683552_);}
	.st171{clip-path:url(#SVGID_00000021101759902291508430000007910639034988478862_);}
	.st172{opacity:0.23;fill:#95A71A;}
	.st173{fill:#799B1C;}
	.st174{opacity:0.5;fill:url(#SVGID_00000016786554711068756200000001113579308776467642_);}
	
		.st175{clip-path:url(#SVGID_00000054978008068630062280000004365567327546382983_);fill:url(#SVGID_00000127021035793198930400000015464798454090614665_);}
	
		.st176{clip-path:url(#SVGID_00000163073723727244647000000008637140338448946091_);fill:url(#SVGID_00000159468016898725798340000006368312237467505046_);}
	.st177{clip-path:url(#SVGID_00000136383440244843196430000005411697359611567283_);}
	.st178{clip-path:url(#SVGID_00000085251347286552792470000003302840355897093048_);}
	.st179{opacity:0.57;fill:#BADDE9;}
	.st180{opacity:0.54;fill:#1C3F81;}
	.st181{clip-path:url(#SVGID_00000181048809182313515500000006610917400819577275_);}
	.st182{clip-path:url(#SVGID_00000168105437936555492890000015724801314230228914_);}
	.st183{fill:url(#SVGID_00000047046906757431028320000014043468873566481831_);}
	.st184{fill:url(#SVGID_00000174602793828236219160000000819893067497995677_);}
	.st185{clip-path:url(#SVGID_00000031928762513496527890000015528630230643753122_);}
	.st186{clip-path:url(#SVGID_00000016781390727020833440000014493252055233896064_);}
	.st187{fill:none;stroke:#FFFFFF;stroke-width:0.75;stroke-miterlimit:10;}
	.st188{fill:none;stroke:#FFFFFF;stroke-width:0.7503;stroke-miterlimit:10;}
	.st189{clip-path:url(#SVGID_00000147206117025283191000000010842070442511323561_);fill:#FFFFFF;}
	.st190{fill:none;stroke:#2276BB;stroke-width:0.1;stroke-miterlimit:10;}
	.st191{fill:none;stroke:#FFFFFF;stroke-width:0.5;stroke-miterlimit:10;}
	.st192{clip-path:url(#SVGID_00000070812189368795159340000000319963211535183773_);fill:#FFFFFF;}
	.st193{clip-path:url(#SVGID_00000003823874219012802770000011107386507684617345_);fill:#FFFFFF;}
	.st194{clip-path:url(#SVGID_00000152971741527058761000000001843675761957850537_);fill:#FFFFFF;}
	.st195{fill:url(#SVGID_00000153689179483221290110000011865408901503895206_);}
	.st196{fill:none;stroke:#003DA6;stroke-width:0.2543;stroke-linecap:round;stroke-miterlimit:10;}
	.st197{fill:#BEE2E9;}
	.st198{fill:#7FA6E5;}
	.st199{opacity:0.97;fill:#71D4FF;}
</style>
<g id="iconos-fondo" class="st0">
</g>
<g id="footer">
</g>
<g id="fondo">
</g>
<g id="detacado-foto">
</g>
<g id="bloque_1-A">
</g>
<g id="bloque_1_B">
</g>
<g id="destacado" class="st0">
</g>
<g id="destacado-hidro" class="st0">
</g>
<g id="destacado-camion">
</g>
<g id="cont">
</g>
<g id="EMPRESA">
	<g>
		<g>
			<defs>
				<path id="SVGID_00000069374321031223833000000004573872966763057338_" d="M23.99,20.52c-5.46,1.04-9.05,0.45-12.44-0.13
					c-2.48-0.43-4.86-0.85-7.79-0.64v37.7h70.93V20.48c-4.96-1.61-8.26-1.21-12.06-0.8c-3.67,0.39-7.8,0.79-14.33-0.65
					c-2.37-0.52-4.78-0.73-7.21-0.73C35.5,18.3,29.77,19.42,23.99,20.52"/>
			</defs>
			
				<linearGradient id="SVGID_00000106835611290973707820000005224788673792458669_" gradientUnits="userSpaceOnUse" x1="35.8581" y1="-0.566" x2="40.6261" y2="55.5148">
				<stop  offset="0" style="stop-color:#F5F5F5"/>
				<stop  offset="0.259" style="stop-color:#F1F3F4"/>
				<stop  offset="0.5416" style="stop-color:#E3EFF1"/>
				<stop  offset="0.8343" style="stop-color:#CEE7EC"/>
				<stop  offset="1" style="stop-color:#BEE2E9"/>
			</linearGradient>
			
				<use xlink:href="#SVGID_00000069374321031223833000000004573872966763057338_"  style="overflow:visible;fill:url(#SVGID_00000106835611290973707820000005224788673792458669_);"/>
			<clipPath id="SVGID_00000126315884459548883610000004906867869888860809_">
				<use xlink:href="#SVGID_00000069374321031223833000000004573872966763057338_"  style="overflow:visible;"/>
			</clipPath>
			
				<linearGradient id="SVGID_00000147195375169503238470000016104858342781221505_" gradientUnits="userSpaceOnUse" x1="35.9511" y1="-0.5617" x2="40.7182" y2="55.508">
				<stop  offset="0" style="stop-color:#F5F5F5"/>
				<stop  offset="0.259" style="stop-color:#F1F3F4"/>
				<stop  offset="0.5416" style="stop-color:#E3EFF1"/>
				<stop  offset="0.8343" style="stop-color:#CEE7EC"/>
				<stop  offset="1" style="stop-color:#BEE2E9"/>
			</linearGradient>
			
				<rect x="3.76" y="18.3" style="clip-path:url(#SVGID_00000126315884459548883610000004906867869888860809_);fill:url(#SVGID_00000147195375169503238470000016104858342781221505_);" width="70.93" height="39.15"/>
		</g>
		<g>
			<rect y="57.38" class="st110" width="78.66" height="2.77"/>
		</g>
		<g>
			<g>
				<g>
					<path class="st111" d="M74.92,57.45H3.76V11.6h71.16V57.45z M3.89,57.31h70.89V11.74H3.89V57.31z"/>
				</g>
				<g>
					<path class="st111" d="M74.85,11.74H3.82c-0.04,0-0.07-0.03-0.07-0.07s0.03-0.07,0.07-0.07h71.03c0.04,0,0.07,0.03,0.07,0.07
						S74.89,11.74,74.85,11.74z"/>
				</g>
			</g>
		</g>
		<g>
			<polygon class="st111" points="3.82,11.67 3.82,16.55 31.86,39.38 39.42,39.38 63.51,57.38 71.25,57.38 40.4,33.98 33.04,33.98 
				4.69,11.67 			"/>
		</g>
		<g>
			<g>
				<g>
					<path class="st111" d="M71.25,57.41h-2.06l-0.03-0.03v-1l0.03-0.03h2.06l0.03,0.03v1L71.25,57.41z M69.22,57.35h2v-0.93h-2
						V57.35z"/>
				</g>
				<g>
					<path class="st111" d="M69.96,56.42H67.9l-0.03-0.03v-1l0.03-0.03h2.06L70,55.39v1L69.96,56.42z M67.93,56.35h2v-0.93h-2V56.35
						z"/>
				</g>
				<g>
					<path class="st111" d="M68.67,55.42h-2.06l-0.03-0.03v-1l0.03-0.03h2.06l0.03,0.03v1L68.67,55.42z M66.64,55.36h2v-0.93h-2
						V55.36z"/>
				</g>
				<g>
					<path class="st111" d="M67.38,54.43h-2.06l-0.03-0.03v-1l0.03-0.03h2.06l0.03,0.03v1L67.38,54.43z M65.35,54.36h2v-0.93h-2
						V54.36z"/>
				</g>
				<g>
					<path class="st111" d="M66.09,53.43h-2.06L64,53.4v-1l0.03-0.03h2.06l0.03,0.03v1L66.09,53.43z M64.06,53.36h2v-0.93h-2V53.36z
						"/>
				</g>
				<g>
					<path class="st111" d="M64.8,52.43h-2.06l-0.03-0.03v-1l0.03-0.03h2.06l0.03,0.03v1L64.8,52.43z M62.77,52.37h2v-0.93h-2V52.37
						z"/>
				</g>
				<g>
					<path class="st111" d="M63.51,51.44h-2.06l-0.03-0.03v-1l0.03-0.03h2.06l0.03,0.03v1L63.51,51.44z M61.48,51.37h2v-0.93h-2
						V51.37z"/>
				</g>
				<g>
					<path class="st111" d="M62.22,50.44h-2.06l-0.03-0.03v-1l0.03-0.03h2.06l0.03,0.03v1L62.22,50.44z M60.19,50.38h2v-0.93h-2
						V50.38z"/>
				</g>
				<g>
					<path class="st111" d="M60.93,49.45h-2.06l-0.03-0.03v-1l0.03-0.03h2.06l0.03,0.03v1L60.93,49.45z M58.9,49.38h2v-0.93h-2
						V49.38z"/>
				</g>
				<g>
					<path class="st111" d="M59.64,48.45h-2.06l-0.03-0.03v-1l0.03-0.03h2.06l0.03,0.03v1L59.64,48.45z M57.61,48.38h2v-0.93h-2
						V48.38z"/>
				</g>
				<g>
					<path class="st111" d="M58.35,47.46h-2.06l-0.03-0.03v-1l0.03-0.03h2.06l0.03,0.03v1L58.35,47.46z M56.32,47.39h2v-0.93h-2
						V47.39z"/>
				</g>
				<g>
					<path class="st111" d="M57.06,46.46H55l-0.03-0.03v-1L55,45.4h2.06l0.03,0.03v1L57.06,46.46z M55.03,46.39h2v-0.93h-2V46.39z"
						/>
				</g>
				<g>
					<path class="st111" d="M55.77,45.46h-2.06l-0.03-0.03v-1l0.03-0.03h2.06l0.03,0.03v1L55.77,45.46z M53.74,45.4h2v-0.93h-2V45.4
						z"/>
				</g>
				<g>
					<path class="st111" d="M54.48,44.47h-2.06l-0.03-0.03v-1l0.03-0.03h2.06l0.03,0.03v1L54.48,44.47z M52.45,44.4h2v-0.93h-2V44.4
						z"/>
				</g>
				<g>
					<path class="st111" d="M53.19,43.47h-2.06l-0.03-0.03v-1l0.03-0.03h2.06l0.03,0.03v1L53.19,43.47z M51.16,43.41h2v-0.93h-2
						V43.41z"/>
				</g>
				<g>
					<path class="st111" d="M51.9,42.48h-2.06l-0.03-0.03v-1l0.03-0.03h2.06l0.03,0.03v1L51.9,42.48z M49.87,42.41h2v-0.93h-2V42.41
						z"/>
				</g>
				<g>
					<path class="st111" d="M50.61,41.48h-2.06l-0.03-0.03v-1l0.03-0.03h2.06l0.03,0.03v1L50.61,41.48z M48.58,41.41h2v-0.93h-2
						V41.41z"/>
				</g>
				<g>
					<path class="st111" d="M49.32,40.49h-2.06l-0.03-0.03v-1l0.03-0.03h2.06l0.03,0.03v1L49.32,40.49z M47.29,40.42h2v-0.93h-2
						V40.42z"/>
				</g>
				<g>
					<path class="st111" d="M48.03,39.49h-2.06l-0.03-0.03v-1l0.03-0.03h2.06l0.03,0.03v1L48.03,39.49z M46,39.42h2v-0.93h-2V39.42z
						"/>
				</g>
				<g>
					<path class="st111" d="M46.74,38.49h-2.06l-0.03-0.03v-1l0.03-0.03h2.06l0.03,0.03v1L46.74,38.49z M44.71,38.43h2V37.5h-2
						V38.43z"/>
				</g>
				<g>
					<path class="st111" d="M45.45,37.5h-2.06l-0.03-0.03v-1l0.03-0.03h2.06l0.03,0.03v1L45.45,37.5z M43.42,37.43h2V36.5h-2V37.43z
						"/>
				</g>
				<g>
					<path class="st111" d="M44.16,36.5h-2.06l-0.03-0.03v-1l0.03-0.03h2.06l0.03,0.03v1L44.16,36.5z M42.13,36.44h2v-0.93h-2V36.44
						z"/>
				</g>
				<g>
					<path class="st111" d="M42.87,35.51H40.8l-0.03-0.03v-1l0.03-0.03h2.06l0.03,0.03v1L42.87,35.51z M40.84,35.44h2v-0.93h-2
						V35.44z"/>
				</g>
				<g>
					<path class="st111" d="M41.58,34.51h-9.44l-0.03-0.03v-1l0.03-0.03h9.44l0.03,0.03v1L41.58,34.51z M32.17,34.44h9.37v-0.93
						h-9.37V34.44z"/>
				</g>
				<g>
					<path class="st111" d="M33.15,33.52h-2.06l-0.03-0.03v-1l0.03-0.03h2.06l0.03,0.03v1L33.15,33.52z M31.11,33.45h2v-0.93h-2
						V33.45z"/>
				</g>
				<g>
					<path class="st111" d="M31.86,32.52h-2.06l-0.03-0.03v-1l0.03-0.03h2.06l0.03,0.03v1L31.86,32.52z M29.82,32.45h2v-0.93h-2
						V32.45z"/>
				</g>
				<g>
					<path class="st111" d="M30.56,31.52H28.5l-0.03-0.03v-1l0.03-0.03h2.06l0.03,0.03v1L30.56,31.52z M28.53,31.46h2v-0.93h-2
						V31.46z"/>
				</g>
				<g>
					<path class="st111" d="M29.27,30.53h-2.06l-0.03-0.03v-1l0.03-0.03h2.06l0.03,0.03v1L29.27,30.53z M27.24,30.46h2v-0.93h-2
						V30.46z"/>
				</g>
				<g>
					<path class="st111" d="M27.98,29.53h-2.06l-0.03-0.03v-1l0.03-0.03h2.06l0.03,0.03v1L27.98,29.53z M25.95,29.47h2v-0.93h-2
						V29.47z"/>
				</g>
				<g>
					<path class="st111" d="M26.69,28.54h-2.06L24.6,28.5v-1l0.03-0.03h2.06l0.03,0.03v1L26.69,28.54z M24.66,28.47h2v-0.93h-2
						V28.47z"/>
				</g>
				<g>
					<path class="st111" d="M25.4,27.54h-2.06l-0.03-0.03v-1l0.03-0.03h2.06l0.03,0.03v1L25.4,27.54z M23.37,27.47h2v-0.93h-2V27.47
						z"/>
				</g>
				<g>
					<path class="st111" d="M24.11,26.54h-2.06l-0.03-0.03v-1l0.03-0.03h2.06l0.03,0.03v1L24.11,26.54z M22.08,26.48h2v-0.93h-2
						V26.48z"/>
				</g>
				<g>
					<path class="st111" d="M22.82,25.55h-2.06l-0.03-0.03v-1l0.03-0.03h2.06l0.03,0.03v1L22.82,25.55z M20.79,25.48h2v-0.93h-2
						V25.48z"/>
				</g>
				<g>
					<path class="st111" d="M21.53,24.55h-2.06l-0.03-0.03v-1l0.03-0.03h2.06l0.03,0.03v1L21.53,24.55z M19.5,24.49h2v-0.93h-2
						V24.49z"/>
				</g>
				<g>
					<path class="st111" d="M20.24,23.56h-2.06l-0.03-0.03v-1l0.03-0.03h2.06l0.03,0.03v1L20.24,23.56z M18.21,23.49h2v-0.93h-2
						V23.49z"/>
				</g>
				<g>
					<path class="st111" d="M18.95,22.56h-2.06l-0.03-0.03v-1l0.03-0.03h2.06l0.03,0.03v1L18.95,22.56z M16.92,22.49h2v-0.93h-2
						V22.49z"/>
				</g>
				<g>
					<path class="st111" d="M17.66,21.57H15.6l-0.03-0.03v-1l0.03-0.03h2.06l0.03,0.03v1L17.66,21.57z M15.63,21.5h2v-0.93h-2V21.5z
						"/>
				</g>
				<g>
					<path class="st111" d="M16.37,20.57h-2.06l-0.03-0.03v-1l0.03-0.03h2.06l0.03,0.03v1L16.37,20.57z M14.34,20.5h2v-0.93h-2V20.5
						z"/>
				</g>
				<g>
					<path class="st111" d="M15.08,19.57h-2.06l-0.03-0.03v-1l0.03-0.03h2.06l0.03,0.03v1L15.08,19.57z M13.05,19.51h2v-0.93h-2
						V19.51z"/>
				</g>
				<g>
					<path class="st111" d="M13.79,18.58h-2.06l-0.03-0.03v-1l0.03-0.03h2.06l0.03,0.03v1L13.79,18.58z M11.76,18.51h2v-0.93h-2
						V18.51z"/>
				</g>
				<g>
					<path class="st111" d="M12.5,17.58h-2.06l-0.03-0.03v-1l0.03-0.03h2.06l0.03,0.03v1L12.5,17.58z M10.47,17.52h2v-0.93h-2V17.52
						z"/>
				</g>
				<g>
					<path class="st111" d="M11.21,16.59H9.15l-0.03-0.03v-1l0.03-0.03h2.06l0.03,0.03v1L11.21,16.59z M9.18,16.52h2v-0.93h-2V16.52
						z"/>
				</g>
				<g>
					<path class="st111" d="M9.92,15.59H7.86l-0.03-0.03v-1l0.03-0.03h2.06l0.03,0.03v1L9.92,15.59z M7.89,15.52h2V14.6h-2V15.52z"
						/>
				</g>
				<g>
					<path class="st111" d="M8.63,14.6H6.57l-0.03-0.03v-1l0.03-0.03h2.06l0.03,0.03v1L8.63,14.6z M6.6,14.53h2V13.6h-2V14.53z"/>
				</g>
				<g>
					<path class="st111" d="M7.34,13.6H5.28l-0.03-0.03v-1l0.03-0.03h2.06l0.03,0.03v1L7.34,13.6z M5.31,13.53h2V12.6h-2V13.53z"/>
				</g>
				<g>
					<path class="st111" d="M6.31,12.6H4.24l-0.03-0.03v-1l0.03-0.03h2.06l0.03,0.03v1L6.31,12.6z M4.28,12.54h2v-0.93h-2V12.54z"/>
				</g>
			</g>
			<g>
				<path class="st111" d="M71.17,56.42H71l-0.03-0.03v-3.07L71,53.28h0.17l0.03,0.03v3.07L71.17,56.42z M71.04,56.35h0.1v-3h-0.1
					V56.35z"/>
			</g>
			<g>
				<path class="st111" d="M68.59,54.43h-0.17l-0.03-0.03v-3.07l0.03-0.03h0.17l0.03,0.03v3.07L68.59,54.43z M68.45,54.36h0.1v-3
					h-0.1V54.36z"/>
			</g>
			<g>
				<path class="st111" d="M66,52.43h-0.17L65.8,52.4v-3.07l0.03-0.03H66l0.03,0.03v3.07L66,52.43z M65.86,52.37h0.1v-3h-0.1V52.37z
					"/>
			</g>
			<g>
				<path class="st111" d="M63.41,50.44h-0.17l-0.03-0.03v-3.07l0.03-0.03h0.17l0.03,0.03v3.07L63.41,50.44z M63.28,50.38h0.1v-3
					h-0.1V50.38z"/>
			</g>
			<g>
				<path class="st111" d="M60.83,48.45h-0.17l-0.03-0.03v-3.07l0.03-0.03h0.17l0.03,0.03v3.07L60.83,48.45z M60.69,48.38h0.1v-3
					h-0.1V48.38z"/>
			</g>
			<g>
				<path class="st111" d="M58.24,46.46h-0.17l-0.03-0.03v-3.07l0.03-0.03h0.17l0.03,0.03v3.07L58.24,46.46z M58.1,46.39h0.1v-3
					h-0.1V46.39z"/>
			</g>
			<g>
				<path class="st111" d="M55.65,44.47h-0.17l-0.03-0.03v-3.07l0.03-0.03h0.17l0.03,0.03v3.07L55.65,44.47z M55.52,44.4h0.1v-3
					h-0.1V44.4z"/>
			</g>
			<g>
				<path class="st111" d="M53.06,42.48H52.9l-0.03-0.03v-3.07l0.03-0.03h0.17l0.03,0.03v3.07L53.06,42.48z M52.93,42.41h0.1v-3
					h-0.1V42.41z"/>
			</g>
			<g>
				<path class="st111" d="M50.48,40.49h-0.17l-0.03-0.03v-3.07l0.03-0.03h0.17l0.03,0.03v3.07L50.48,40.49z M50.34,40.42h0.1v-3
					h-0.1V40.42z"/>
			</g>
			<g>
				<path class="st111" d="M47.89,38.49h-0.17l-0.03-0.03v-3.07l0.03-0.03h0.17l0.03,0.03v3.07L47.89,38.49z M47.75,38.43h0.1v-3
					h-0.1V38.43z"/>
			</g>
			<g>
				<path class="st111" d="M45.3,36.5h-0.17l-0.03-0.03V33.4l0.03-0.03h0.17l0.03,0.03v3.07L45.3,36.5z M45.17,36.44h0.1v-3h-0.1
					V36.44z"/>
			</g>
			<g>
				<path class="st111" d="M42.72,34.51h-0.17l-0.03-0.03v-3.07l0.03-0.03h0.17l0.03,0.03v3.07L42.72,34.51z M42.58,34.44h0.1v-3
					h-0.1V34.44z"/>
			</g>
			<g>
				<path class="st111" d="M39.42,33.52h-0.17l-0.03-0.03v-3.07l0.03-0.03h0.17l0.03,0.03v3.07L39.42,33.52z M39.29,33.45h0.1v-3
					h-0.1V33.45z"/>
			</g>
			<g>
				<path class="st111" d="M36.23,33.52h-0.17l-0.03-0.03v-3.07l0.03-0.03h0.17l0.03,0.03v3.07L36.23,33.52z M36.09,33.45h0.1v-3
					h-0.1V33.45z"/>
			</g>
			<g>
				<path class="st111" d="M33.04,32.52h-0.17l-0.03-0.03v-3.07l0.03-0.03h0.17l0.03,0.03v3.07L33.04,32.52z M32.91,32.45h0.1v-3
					h-0.1V32.45z"/>
			</g>
			<g>
				<path class="st111" d="M30.46,30.53h-0.17l-0.03-0.03v-3.07l0.03-0.03h0.17l0.03,0.03v3.07L30.46,30.53z M30.32,30.46h0.1v-3
					h-0.1V30.46z"/>
			</g>
			<g>
				<path class="st111" d="M27.87,28.54H27.7l-0.03-0.03v-3.07l0.03-0.03h0.17l0.03,0.03v3.07L27.87,28.54z M27.73,28.47h0.1v-3
					h-0.1V28.47z"/>
			</g>
			<g>
				<path class="st111" d="M25.28,26.54h-0.17l-0.03-0.03v-3.07l0.03-0.03h0.17l0.03,0.03v3.07L25.28,26.54z M25.15,26.48h0.1v-3
					h-0.1V26.48z"/>
			</g>
			<g>
				<path class="st111" d="M22.7,24.55h-0.17l-0.03-0.03v-3.07l0.03-0.03h0.17l0.03,0.03v3.07L22.7,24.55z M22.56,24.49h0.1v-3h-0.1
					V24.49z"/>
			</g>
			<g>
				<path class="st111" d="M20.11,22.56h-0.17l-0.03-0.03v-3.07l0.03-0.03h0.17l0.03,0.03v3.07L20.11,22.56z M19.97,22.49h0.1v-3
					h-0.1V22.49z"/>
			</g>
			<g>
				<path class="st111" d="M17.52,20.57h-0.17l-0.03-0.03v-3.07l0.03-0.03h0.17l0.03,0.03v3.07L17.52,20.57z M17.39,20.5h0.1v-3
					h-0.1V20.5z"/>
			</g>
			<g>
				<path class="st111" d="M14.93,18.58h-0.17l-0.03-0.03v-3.07l0.03-0.03h0.17l0.03,0.03v3.07L14.93,18.58z M14.8,18.51h0.1v-3
					h-0.1V18.51z"/>
			</g>
			<g>
				<path class="st111" d="M12.35,16.59h-0.17l-0.03-0.03v-3.07l0.03-0.03h0.17l0.03,0.03v3.07L12.35,16.59z M12.21,16.52h0.1v-3
					h-0.1V16.52z"/>
			</g>
			<g>
				<path class="st111" d="M9.7,14.64H9.53L9.5,14.6v-3.07l0.03-0.03H9.7l0.03,0.03v3.07L9.7,14.64z M9.56,14.57h0.1v-3h-0.1V14.57z
					"/>
			</g>
			<g>
				<path class="st111" d="M71.05,53.47L41.16,30.61h-7.05l-0.02-0.01l-0.05-0.03L9.51,11.73L9.5,11.69l0.2-0.26l0.05-0.01
					l24.49,18.8h7.05l0.02,0.01L71.3,53.16l0.01,0.05l-0.2,0.26L71.05,53.47z M34.13,30.55h7.05l0.02,0.01L71.07,53.4l0.16-0.21
					L41.27,30.28h-7.05l-0.02-0.01L9.74,11.49L9.58,11.7L34.13,30.55z"/>
			</g>
		</g>
		<g>
			<path class="st112" d="M74.85,57.25H3.88c-0.01,0-0.02-0.01-0.02-0.02c0-0.01,0.01-0.02,0.02-0.02h70.97
				c0.01,0,0.02,0.01,0.02,0.02C74.87,57.24,74.86,57.25,74.85,57.25z"/>
		</g>
		<g>
			<path class="st111" d="M74.85,45.86H3.88c-0.01,0-0.02-0.01-0.02-0.02s0.01-0.02,0.02-0.02h70.97c0.01,0,0.02,0.01,0.02,0.02
				S74.86,45.86,74.85,45.86z"/>
		</g>
		<g>
			<path class="st111" d="M74.85,34.47H3.88c-0.01,0-0.02-0.01-0.02-0.02c0-0.01,0.01-0.02,0.02-0.02h70.97
				c0.01,0,0.02,0.01,0.02,0.02C74.87,34.46,74.86,34.47,74.85,34.47z"/>
		</g>
		<g>
			<path class="st111" d="M74.85,23.08H3.88c-0.01,0-0.02-0.01-0.02-0.02c0-0.01,0.01-0.02,0.02-0.02h70.97
				c0.01,0,0.02,0.01,0.02,0.02C74.87,23.07,74.86,23.08,74.85,23.08z"/>
		</g>
		<g>
			<path class="st111" d="M74.87,9.96H3.76c-0.07,0-0.13-0.06-0.13-0.13c0-0.07,0.06-0.13,0.13-0.13h71.11
				C74.94,9.7,75,9.76,75,9.83C75,9.9,74.94,9.96,74.87,9.96z"/>
		</g>
		<g>
			<path class="st111" d="M17.3,11.8c-0.07,0-0.13-0.06-0.13-0.13V9.83c0-0.07,0.06-0.13,0.13-0.13s0.13,0.06,0.13,0.13v1.84
				C17.43,11.74,17.37,11.8,17.3,11.8z"/>
		</g>
		<g>
			<path class="st111" d="M23.58,11.8c-0.07,0-0.13-0.06-0.13-0.13V9.83c0-0.07,0.06-0.13,0.13-0.13s0.13,0.06,0.13,0.13v1.84
				C23.71,11.74,23.65,11.8,23.58,11.8z"/>
		</g>
		<g>
			<path class="st111" d="M29.86,11.8c-0.07,0-0.13-0.06-0.13-0.13V9.83c0-0.07,0.06-0.13,0.13-0.13S30,9.76,30,9.83v1.84
				C30,11.74,29.94,11.8,29.86,11.8z"/>
		</g>
		<g>
			<path class="st111" d="M36.15,11.8c-0.07,0-0.13-0.06-0.13-0.13V9.83c0-0.07,0.06-0.13,0.13-0.13s0.13,0.06,0.13,0.13v1.84
				C36.28,11.74,36.22,11.8,36.15,11.8z"/>
		</g>
		<g>
			<path class="st111" d="M42.43,11.8c-0.07,0-0.13-0.06-0.13-0.13V9.83c0-0.07,0.06-0.13,0.13-0.13s0.13,0.06,0.13,0.13v1.84
				C42.57,11.74,42.51,11.8,42.43,11.8z"/>
		</g>
		<g>
			<path class="st111" d="M48.72,11.8c-0.07,0-0.13-0.06-0.13-0.13V9.83c0-0.07,0.06-0.13,0.13-0.13s0.13,0.06,0.13,0.13v1.84
				C48.85,11.74,48.79,11.8,48.72,11.8z"/>
		</g>
		<g>
			<path class="st111" d="M55,11.8c-0.07,0-0.13-0.06-0.13-0.13V9.83c0-0.07,0.06-0.13,0.13-0.13s0.13,0.06,0.13,0.13v1.84
				C55.13,11.74,55.07,11.8,55,11.8z"/>
		</g>
		<g>
			<path class="st111" d="M61.28,11.8c-0.07,0-0.13-0.06-0.13-0.13V9.83c0-0.07,0.06-0.13,0.13-0.13s0.13,0.06,0.13,0.13v1.84
				C61.42,11.74,61.36,11.8,61.28,11.8z"/>
		</g>
		<g>
			<path class="st111" d="M67.57,11.8c-0.07,0-0.13-0.06-0.13-0.13V9.83c0-0.07,0.06-0.13,0.13-0.13s0.13,0.06,0.13,0.13v1.84
				C67.7,11.74,67.64,11.8,67.57,11.8z"/>
		</g>
		<g>
			<path class="st111" d="M73.85,11.8c-0.07,0-0.13-0.06-0.13-0.13V9.83c0-0.07,0.06-0.13,0.13-0.13s0.13,0.06,0.13,0.13v1.84
				C73.99,11.74,73.93,11.8,73.85,11.8z"/>
		</g>
		<path class="st111" d="M3.89,11.74c0,0,10.45-9.96,35.33-9.96s35.63,9.83,35.63,9.83"/>
	</g>
</g>
<g id="SERVICIOS-terminal">
</g>
<g id="SERVICIO-lab">
</g>
<g id="SERV-transp-terrestre">
</g>
<g id="SERV-opera-solidos">
</g>
<g id="COMEX">
</g>
<g id="CONTACTO">
</g>
<g id="COMPROMISO">
</g>
<g id="Capa_19" class="st0">
</g>
<g id="TERMINAL">
</g>
<g id="servicios3">
</g>
<g id="servicios2">
</g>
<g id="servicios1">
</g>
<g id="Capa_10">
</g>
<g id="solapa-servicio">
</g>
<g id="top">
</g>
<g id="esqueletoi">
</g>
<g id="guias">
</g>
</svg>
